<?xml version="1.0" encoding="UTF-8"?>
<svg width="230px" height="120px" viewBox="0 0 230 120" version="1.1" xmlns="http://www.w3.org/2000/svg" xmlns:xlink="http://www.w3.org/1999/xlink">
    <!-- Generator: sketchtool 59.1 (101010) - https://sketch.com -->
    <title>AACC3A9E-B5AA-4A2A-B030-042BC1186AF3</title>
    <desc>Created with sketchtool.</desc>
    <g id="Pages" stroke="none" stroke-width="1" fill="none" fill-rule="evenodd">
        <g id="Commercial-Solution" transform="translate(-383.000000, -932.000000)">
            <g id="section-2" transform="translate(96.000000, 735.000000)">
                <g id="cards" transform="translate(0.000000, 197.000000)">
                    <g id="illustrations">
                        <g id="office-building" transform="translate(287.000000, 0.000000)">
                            <polygon id="Fill-1" fill="#FFFFFF" points="0 120 230 120 230 0 0 0"></polygon>
                            <g id="Group-6" transform="translate(31.000000, 118.000000)" stroke="#46BBC4" stroke-linecap="round" stroke-linejoin="round" stroke-width="2">
                                <line x1="0" y1="1" x2="168" y2="1" id="Stroke-2"></line>
                                <line x1="0" y1="1" x2="168" y2="1" id="Stroke-4"></line>
                            </g>
                            <polygon id="Fill-7" fill="#1C7F8A" points="90 115 100 115 100 99 90 99"></polygon>
                            <polygon id="Stroke-8" stroke="#1C7F8A" stroke-width="2" stroke-linecap="round" stroke-linejoin="round" points="90 115 100 115 100 99 90 99"></polygon>
                            <line x1="92" y1="113" x2="98" y2="113" id="Stroke-9" stroke="#46BBC4" stroke-width="2" stroke-linecap="round" stroke-linejoin="round"></line>
                            <polyline id="Stroke-10" stroke="#46BBC4" stroke-width="2" stroke-linecap="round" stroke-linejoin="round" points="76 115 76 11 114 11 114 115"></polyline>
                            <polyline id="Stroke-11" stroke="#46BBC4" stroke-width="2" stroke-linecap="round" stroke-linejoin="round" points="118 49 154 49 154 115"></polyline>
                            <polyline id="Stroke-12" stroke="#F57361" stroke-width="2" stroke-linecap="round" stroke-linejoin="round" points="138 45 138 39 122 39 122 45"></polyline>
                            <line x1="126" y1="45" x2="134" y2="45" id="Stroke-13" stroke="#FDDED9" stroke-width="2" stroke-linecap="round" stroke-linejoin="round"></line>
                            <polygon id="Stroke-14" stroke="#A7DFE3" stroke-width="2" stroke-linecap="round" stroke-linejoin="round" points="84 91 106 91 106 83 84 83"></polygon>
                            <polygon id="Stroke-15" stroke="#A7DFE3" stroke-width="2" stroke-linecap="round" stroke-linejoin="round" points="84 75 106 75 106 67 84 67"></polygon>
                            <polygon id="Stroke-16" stroke="#A7DFE3" stroke-width="2" stroke-linecap="round" stroke-linejoin="round" points="84 59 106 59 106 51 84 51"></polygon>
                            <polygon id="Stroke-17" stroke="#A7DFE3" stroke-width="2" stroke-linecap="round" stroke-linejoin="round" points="84 43 106 43 106 35 84 35"></polygon>
                            <polygon id="Stroke-18" stroke="#A7DFE3" stroke-width="2" stroke-linecap="round" stroke-linejoin="round" points="84 27 106 27 106 19 84 19"></polygon>
                            <polyline id="Stroke-19" stroke="#F4BA67" stroke-width="2" stroke-linecap="round" stroke-linejoin="round" points="103 7 103 1 87 1 87 7"></polyline>
                            <line x1="91" y1="7" x2="99" y2="7" id="Stroke-21" stroke="#FDEFDB" stroke-width="2" stroke-linecap="round" stroke-linejoin="round"></line>
                            <polygon id="Stroke-22" stroke="#A7DFE3" stroke-width="2" stroke-linecap="round" stroke-linejoin="round" points="122 69 130 69 130 57 122 57"></polygon>
                            <polygon id="Stroke-23" stroke="#A7DFE3" stroke-width="2" stroke-linecap="round" stroke-linejoin="round" points="138 69 146 69 146 57 138 57"></polygon>
                            <polygon id="Stroke-24" stroke="#A7DFE3" stroke-width="2" stroke-linecap="round" stroke-linejoin="round" points="122 89 130 89 130 77 122 77"></polygon>
                            <polygon id="Stroke-25" stroke="#A7DFE3" stroke-width="2" stroke-linecap="round" stroke-linejoin="round" points="138 89 146 89 146 77 138 77"></polygon>
                            <polygon id="Stroke-26" stroke="#A7DFE3" stroke-width="2" stroke-linecap="round" stroke-linejoin="round" points="122 109 130 109 130 97 122 97"></polygon>
                            <polygon id="Stroke-27" stroke="#A7DFE3" stroke-width="2" stroke-linecap="round" stroke-linejoin="round" points="138 109 146 109 146 97 138 97"></polygon>
                            <line x1="170.1396" y1="114.999" x2="169.9496" y2="98" id="Stroke-28" stroke="#A5CD7F" stroke-width="2" stroke-linecap="round" stroke-linejoin="round"></line>
                            <path d="M175.9941,101.9326 C175.9451,97.5146 173.1741,89.9636 169.8601,90.0004645 C166.5471,90.0376 163.9451,97.6496 163.9941,102.0676 C164.0441,106.4856 166.7481,108.0366 170.0611,107.9996 C173.3751,107.9626 176.0431,106.3506 175.9941,101.9326 Z" id="Stroke-29" stroke="#A5CD7F" stroke-width="2" stroke-linecap="round" stroke-linejoin="round"></path>
                            <line x1="188.1396" y1="114.999" x2="187.9496" y2="98" id="Stroke-31" stroke="#A5CD7F" stroke-width="2" stroke-linecap="round" stroke-linejoin="round"></line>
                            <path d="M193.9941,101.9326 C193.9451,97.5146 191.1741,89.9636 187.8601,90.0004645 C184.5471,90.0376 181.9451,97.6496 181.9941,102.0676 C182.0441,106.4856 184.7481,108.0366 188.0611,107.9996 C191.3751,107.9626 194.0431,106.3506 193.9941,101.9326 Z" id="Stroke-33" stroke="#A5CD7F" stroke-width="2" stroke-linecap="round" stroke-linejoin="round"></path>
                            <line x1="42.1396" y1="114.999" x2="41.9496" y2="98" id="Stroke-35" stroke="#A5CD7F" stroke-width="2" stroke-linecap="round" stroke-linejoin="round"></line>
                            <path d="M47.9941,101.9326 C47.9451,97.5146 45.1741,89.9636 41.8601,90.0004645 C38.5471,90.0376 35.9451,97.6496 35.9941,102.0676 C36.0441,106.4856 38.7481,108.0366 42.0611,107.9996 C45.3751,107.9626 48.0431,106.3506 47.9941,101.9326 Z" id="Stroke-37" stroke="#A5CD7F" stroke-width="2" stroke-linecap="round" stroke-linejoin="round"></path>
                            <line x1="60.1396" y1="114.999" x2="59.9496" y2="98" id="Stroke-39" stroke="#A5CD7F" stroke-width="2" stroke-linecap="round" stroke-linejoin="round"></line>
                            <path d="M65.9941,101.9326 C65.9451,97.5146 63.1741,89.9636 59.8601,90.0004645 C56.5471,90.0376 53.9451,97.6496 53.9941,102.0676 C54.0441,106.4856 56.7481,108.0366 60.0611,107.9996 C63.3751,107.9626 66.0431,106.3506 65.9941,101.9326 Z" id="Stroke-41" stroke="#A5CD7F" stroke-width="2" stroke-linecap="round" stroke-linejoin="round"></path>
                            <polyline id="Stroke-43" stroke="#FDEFDB" stroke-width="2" stroke-linecap="round" stroke-linejoin="round" points="1 75 1 30 17 30"></polyline>
                            <polyline id="Stroke-45" stroke="#FDEFDB" stroke-width="2" stroke-linecap="round" stroke-linejoin="round" points="34 62 34 5 63 5"></polyline>
                            <polyline id="Stroke-47" stroke="#FDEFDB" stroke-width="2" stroke-linecap="round" stroke-linejoin="round" points="44 70 23 70 23 107"></polyline>
                            <polyline id="Stroke-49" stroke="#FDEFDB" stroke-width="2" stroke-linecap="round" stroke-linejoin="round" points="130 24 177 24 177 53"></polyline>
                            <polyline id="Stroke-51" stroke="#FDEFDB" stroke-width="2" stroke-linecap="round" stroke-linejoin="round" points="229 7 207 7 207 93"></polyline>
                            <polyline id="Stroke-53" stroke="#FDEFDB" stroke-width="2" stroke-linecap="round" stroke-linejoin="round" points="174 65 187 65 187 76"></polyline>
                        </g>
                    </g>
                </g>
            </g>
        </g>
    </g>
</svg>