<svg width='120px' height='120px' viewBox='0 0 1024 1024'  xmlns="http://www.w3.org/2000/svg">
    <path glyph-name="eye"
          d="M1006.411 489.757c-2.071-2.618-51.687-64.86-136.745-127.352-113.671-83.511-237.351-127.652-357.668-127.652-120.32 0-244 44.142-357.668 127.652-85.060 62.49-134.676 124.734-136.745 127.352l-17.586 22.242 17.586 22.245c2.069 2.618 51.685 64.862 136.745 127.354 113.671 83.508 237.348 127.65 357.668 127.65 120.317 0 243.997-44.142 357.668-127.65 85.057-62.492 134.673-124.736 136.745-127.354l17.589-22.245-17.589-22.242zM825.563 604.981c-70.287 51.335-181.74 112.532-313.564 112.532s-243.28-61.197-313.564-112.532c-48.233-35.229-84.38-70.858-104.989-92.982 20.617-22.13 56.76-57.756 104.986-92.982 70.287-51.338 181.74-112.534 313.564-112.534 131.822 0 243.282 61.197 313.562 112.534 48.233 35.229 84.38 70.858 104.989 92.98-20.613 22.132-56.76 57.76-104.984 92.984zM511.999 360.306c-36.8 0-70.536 13.112-96.804 34.908 20.787 6.086 35.977 25.284 35.977 48.042 0 27.649-22.415 50.064-50.064 50.064-14.531 0-27.609-6.196-36.755-16.082-2.618 11.168-4.051 22.796-4.051 34.762 0 83.78 67.917 151.695 151.697 151.695 83.777 0 151.692-67.915 151.692-151.695s-67.911-151.695-151.692-151.695z"
    />
</svg>