<svg width='120px' height='120px' viewBox='0 0 1024 1024'  xmlns="http://www.w3.org/2000/svg">
    <path glyph-name="commercial"
          d="M704 540.416c0-15.68-14.336-28.416-32-28.416h-64c-17.664 0-32 12.8-32 28.416v56.896c0 15.68 14.336 28.48 32 28.48h64c17.664 0 32-12.736 32-28.416v-56.96zM416 512c17.664 0 32 12.8 32 28.416v56.896c0 15.68-14.336 28.48-32 28.48h-64c-17.664 0-32-12.736-32-28.416v-56.96c0-15.68 14.336-28.416 32-28.416h64zM960 408.576v444.8c0 62.784-57.28 113.728-128 113.728h-640c-70.72 0-128-50.944-128-113.792v-444.736c-39.808-31.68-63.040-76.672-64-124.16 5.76-55.808 23.296-110.080 51.904-160 20.544-41.152 66.368-67.584 116.928-67.584h686.336c50.56 0 96.384 26.432 116.928 67.456 28.608 49.92 46.208 104.32 51.904 160.064-0.96 47.488-24.192 92.48-64 124.16zM128 284.416c2.176 30.592 29.568 55.040 64 56.96 21.504-0.064 41.6-9.664 53.376-25.6 11.84-16 31.808-25.6 53.312-25.6 21.44 0 41.408 9.536 53.248 25.408 12.48 15.104 32.256 24 53.312 24 21.12 0 40.96-8.96 53.376-24 12.544-14.976 32.32-23.808 53.312-23.808s40.768 8.832 53.312 23.808c12.48 15.104 32.256 24 53.312 24 21.12 0 40.96-8.96 53.376-24 11.84-15.872 31.808-25.408 53.248-25.472 21.44 0 41.472 9.536 53.312 25.408 11.776 16.064 31.936 25.792 53.504 25.792 34.432-1.92 61.824-26.24 64-56.896-7.28-42.874-21.616-81.24-41.886-115.696l0.862 1.584-686.144 0.384c-19.32 32.764-33.589 71.002-40.55 111.733l-0.282 1.995zM832 455.104c-0.203 0.001-0.444 0.001-0.685 0.001-39.078 0-75.657-10.701-106.966-29.332l0.963 0.531c-30.715 17.478-67.482 27.781-106.656 27.781s-75.941-10.303-107.739-28.347l1.083 0.566c-30.715 17.478-67.482 27.781-106.656 27.781s-75.941-10.303-107.739-28.347l1.083 0.566c-30.346 18.1-66.925 28.801-106.003 28.801-0.241 0-0.482 0-0.722-0.001h0.037v398.208h256v-85.312c0-15.68 14.336-28.416 32-28.416h64c17.664 0 32 12.736 32 28.416v85.312h256v-398.208z"
    />
</svg>