<svg width='120px' height='120px' viewBox='0 0 1024 1024'  xmlns="http://www.w3.org/2000/svg">
    <path glyph-name="associations"
          d="M896 640h-6.72c-25.28-119.424-120.768-158.336-193.536-187.456-55.36-22.080-89.728-37.952-106.752-69.888 64.702-6.673 114.768-60.781 115.008-126.631v-128.025c-0.109-70.649-57.352-127.891-127.99-128h-128.010c-70.649 0.109-127.891 57.352-128 127.99v128.010c0.206 65.902 50.284 120.044 114.461 126.674l0.547 0.046c-17.024 31.872-51.392 47.68-106.752 69.824-72.768 29.12-168.32 68.032-193.536 187.456h-6.72c-70.649 0.109-127.891 57.352-128 127.99v128.010c0.109 70.649 57.352 127.891 127.99 128h128.010c70.649-0.109 127.891-57.352 128-127.99v-128.010c-0.206-65.902-50.284-120.044-114.461-126.674l-0.547-0.046c17.024-31.872 51.392-47.68 106.752-69.824 52.735-17.974 98.137-45.016 136.612-79.611l-0.356 0.315c38.122 34.256 83.524 61.278 133.516 78.416l2.74 0.816c55.36 22.080 89.728 37.952 106.752 69.888-64.724 6.676-114.802 60.818-115.008 126.699v128.021c0.109 70.649 57.352 127.891 127.99 128h128.010c70.649-0.109 127.891-57.352 128-127.99v-128.010c-0.109-70.649-57.352-127.891-127.99-128h-0.010zM128 896v-128h128l0.128 128h-128.128zM448 128h128l0.128 128h-128.128v-128zM768 896v-128h128l0.128 128h-128.128z"
    />
</svg>