<svg width='120px' height='120px' viewBox='0 0 964 1024'  xmlns="http://www.w3.org/2000/svg">
    <path glyph-name="eye"
          d="M542.118 513.024v60.235c0 16.634-13.484 30.118-30.118 30.118v0h-60.235c-16.634 0-30.118-13.484-30.118-30.118v0-60.235c0-16.634 13.484-30.118 30.118-30.118v0h60.235c16.634 0 30.118 13.484 30.118 30.118v0zM946.116 525.493c-10.898 10.901-25.954 17.645-42.586 17.649h-0.001v301.176c0 66.534-53.937 120.471-120.471 120.471v0h-602.353c-66.534 0-120.471-53.937-120.471-120.471v0-301.176c-33.261-0.007-60.222-26.973-60.222-60.235 0-16.63 6.739-31.687 17.636-42.586l421.647-421.647c10.9-10.897 25.956-17.636 42.586-17.636s31.687 6.739 42.587 17.636l421.647 421.647c10.897 10.9 17.636 25.956 17.636 42.586s-6.739 31.687-17.636 42.587v0zM783.059 844.318v-396.77l-301.176-301.176-301.176 301.176v396.71h240.941v-90.353c0-16.634 13.484-30.118 30.118-30.118v0h60.235c16.634 0 30.118 13.484 30.118 30.118v0 90.353h240.941z"
    />
</svg>