<svg width='120px' height='120px' viewBox='0 0 964 1024'  xmlns="http://www.w3.org/2000/svg">
    <path glyph-name="self-storage"
          d="M936.96 11.144c-9.393-6.346-20.971-10.13-33.433-10.13-20.811 0-39.157 10.554-49.978 26.601l-0.136 0.214-114.447 171.369h-514.349l-114.266-171.369c-10.959-16.26-29.305-26.812-50.116-26.812-33.271 0-60.243 26.972-60.243 60.243 0 12.46 3.783 24.037 10.263 33.645l-0.136-0.214 110.351 165.346v644.518c0 33.267 26.968 60.235 60.235 60.235v0h602.353c33.267 0 60.235-26.968 60.235-60.235v0-644.518l110.351-165.527c6.295-9.367 10.047-20.899 10.047-33.308 0-20.776-10.518-39.095-26.519-49.923l-0.212-0.135zM722.824 844.318h-481.882v-524.649h481.882v524.649zM361.412 663.612c0-33.267 26.968-60.235 60.235-60.235v0h120.471c33.267 0 60.235 26.968 60.235 60.235s-26.968 60.235-60.235 60.235v0h-120.471c-33.267 0-60.235-26.968-60.235-60.235v0z"
    />
</svg>