<svg width='120px' height='120px' viewBox='0 0 964 1024'  xmlns="http://www.w3.org/2000/svg">
    <path glyph-name="marina"
          d="M903.529 603.377h-361.412v-60.235h240.941c33.267 0 60.235-26.968 60.235-60.235v0c-7.785-217.105-144.416-400.433-335.407-476.404l-3.597-1.262c-6.748-2.865-14.597-4.53-22.834-4.53-33.034 0-59.814 26.779-59.814 59.814 0 0.28 0.002 0.559 0.006 0.838v-0.042 76.439c-140.273 55.241-238.269 188.42-240.937 344.82l-0.004 0.328c0 33.267 26.968 60.235 60.235 60.235v0h180.706v60.235h-361.412c-33.267 0-60.235 26.968-60.235 60.235v0c-0.009 0.882-0.015 1.923-0.015 2.966 0 164.705 133.52 298.225 298.225 298.225 1.043 0 2.085-0.005 3.125-0.016l-0.159 0.001h361.412c0.882 0.009 1.923 0.015 2.966 0.015 164.705 0 298.225-133.52 298.225-298.225 0-1.043-0.005-2.085-0.016-3.125l0.001 0.159c0-33.267-26.968-60.235-60.235-60.235v0zM715.475 422.671h-173.357v-261.060c88.372 60.029 151.384 151.718 172.915 258.436l0.442 2.624zM421.647 270.697v151.974h-111.616c16.181-64.832 56.459-118.272 110.541-151.362l1.075-0.611zM662.588 844.318h-361.412c-1.587 0.052-3.452 0.082-5.324 0.082-76.944 0-142.205-50.024-165.033-119.324l-0.35-1.228h702.825c-23.178 70.528-88.439 120.552-165.383 120.552-1.872 0-3.737-0.030-5.595-0.088l0.271 0.007z"
    />
</svg>