<svg width='120px' height='120px' viewBox="0 0 16 16" xmlns="http://www.w3.org/2000/svg"><path d="M12.888 11.468L11.44 10.02C11.8 9.43 12 8.73 12 8s-.2-1.43-.56-2.02l1.448-1.448a5.961 5.961 0 0 1 0 6.936m-8.355 1.42L5.98 11.44C6.57 11.8 7.27 12 8 12s1.43-.2 2.02-.56l1.448 1.448a5.963 5.963 0 0 1-6.935 0M2 8c0-1.292.415-2.487 1.113-3.468L4.56 5.98C4.2 6.57 4 7.27 4 8c0 .73.2 1.43.56 2.02l-1.447 1.448A5.96 5.96 0 0 1 2 8m6 2a1.955 1.955 0 0 1-1.41-.59C6.22 9.05 6 8.55 6 8c0-.55.22-1.05.59-1.41C6.95 6.22 7.45 6 8 6c.55 0 1.05.22 1.41.59.37.36.59.86.59 1.41 0 .55-.22 1.05-.59 1.41-.36.37-.86.59-1.41.59m3.468-6.887L10.02 4.56C9.43 4.2 8.73 4 8 4s-1.43.2-2.02.56L4.533 3.113a5.956 5.956 0 0 1 6.935 0M8 0C3.589 0 0 3.589 0 8c0 4.41 3.589 8 8 8 4.41 0 8-3.59 8-8 0-4.411-3.59-8-8-8"/></svg>