<?xml version="1.0" encoding="utf-8"?>
<!-- Generator: Adobe Illustrator 21.0.0, SVG Export Plug-In . SVG Version: 6.00 Build 0)  -->
<svg version="1.1" id="Слой_1" xmlns="http://www.w3.org/2000/svg" xmlns:xlink="http://www.w3.org/1999/xlink" x="0px" y="0px"
	 viewBox="0 0 242 134" style="enable-background:new 0 0 242 134;" xml:space="preserve">
<style type="text/css">
	.st0{fill:#FFFFFF;}
	.st1{fill:#D3EFF1;}
	.st2{fill:#FFFFFF;stroke:#000000;stroke-opacity:0.12;}
	.st3{fill:none;}
	.st4{fill:#46BBC4;}
	.st5{fill:#A7DFE3;}
	.st6{fill:#F4BA67;}
	.st7{enable-background:new    ;}
	.st8{fill:#3F3F3F;}
	.st9{fill:#717171;}
	.st10{fill:#F57361;}
</style>
<g>
	<rect id="path-1" class="st0" width="242" height="134"/>
</g>
<title>7B0149B5-D47E-4505-82D9-147D36AC4076</title>
<desc>Created with sketchtool.</desc>
<g id="Pricing">
	<g id="Pricing---Core-Features" transform="translate(-665.000000, -1560.000000)">
		<g id="section-3" transform="translate(81.000000, 1194.000000)">
			<g id="list" transform="translate(0.000000, 109.000000)">
				<g id="item" transform="translate(584.000000, 257.000000)">
					<g id="image">
						<g id="accounting-component">
							<g id="mask">
								<rect id="path-1_1_" class="st1" width="242" height="134"/>
							</g>
							<g id="design">
								<g transform="translate(39.000000, 27.000000)">
									<g id="box">
										<g>
											<path id="path-3_1_" d="M2,0h160c1.1,0,2,0.9,2,2v76c0,1.1-0.9,2-2,2H2c-1.1,0-2-0.9-2-2V2C0,0.9,0.9,0,2,0z"/>
										</g>
										<path class="st2" d="M1.5-0.5h161c1.1,0,2,0.9,2,2v77c0,1.1-0.9,2-2,2H1.5c-1.1,0-2-0.9-2-2v-77C-0.5,0.4,0.4-0.5,1.5-0.5
											z"/>
									</g>
									<g id="icon-_x2F_-48x48-_x2F_-section-role-_x2F_-accounting" transform="translate(10.000000, 16.000000)">
										<g>
											<rect id="bounds" class="st3" width="48" height="48"/>
											<path id="Shape" class="st4" d="M37,0H11C8.2,0,6,2.2,6,5v38c0,2.8,2.2,5,5,5h21.2c0.4,0,0.9-0.1,1.2-0.3
												c0.3-0.1,0.6-0.4,0.9-0.6l6.8-6.8c0.6-0.6,0.9-1.3,0.9-2.1V5C42,2.2,39.8,0,37,0z M8,43V5c0-1.7,1.3-3,3-3h26
												c1.7,0,3,1.3,3,3v33h-3.6C34,38,32,40,32,42.4V46H11C9.3,46,8,44.7,8,43z"/>
											<path id="Shape_1_" class="st5" d="M27,39c0,0.6-0.4,1-1,1H15c-0.6,0-1-0.4-1-1s0.4-1,1-1h11C26.6,38,27,38.4,27,39z
												 M34,32H15c-0.6,0-1,0.4-1,1s0.4,1,1,1h19c0.6,0,1-0.4,1-1S34.6,32,34,32z"/>
											<path id="Shape_2_" class="st6" d="M24,8c-5.5,0-10,4.5-10,10s4.5,10,10,10s10-4.5,10-10c0-2.7-1.1-5.2-2.9-7.1
												C29.2,9.1,26.7,8,24,8L24,8z M24.5,22.8v0.7c0,0.4-0.2,0.6-0.5,0.6h-0.1c-0.4,0-0.5-0.2-0.5-0.5v-0.8
												c-0.8-0.1-1.6-0.4-2.2-0.9c-0.1-0.1-0.2-0.2-0.2-0.4c0-0.1,0-0.3,0.1-0.4l0.3-0.4c0.1-0.1,0.2-0.2,0.4-0.2
												c0.1,0,0.3,0,0.4,0.1c0.5,0.4,1.2,0.6,1.9,0.7c0.7,0,1.4-0.4,1.4-1.1c0-1.6-4.4-1.4-4.4-4.3c0-1.4,1.1-2.5,2.5-2.6v-0.7
												c0-0.4,0.2-0.5,0.5-0.5H24c0.3,0,0.5,0.2,0.5,0.5v0.8c0.7,0,1.3,0.3,1.9,0.7c0.1,0.1,0.2,0.2,0.2,0.3s0,0.3-0.1,0.4
												l-0.2,0.4c-0.2,0.3-0.4,0.4-0.8,0.2c-0.5-0.3-1-0.5-1.6-0.5c-0.8,0-1.4,0.5-1.4,1.1c0,1.6,4.4,1.3,4.4,4.2
												C27.1,21.5,26,22.7,24.5,22.8L24.5,22.8z"/>
										</g>
									</g>
									<g class="st7">
										<g class="st7">
											<path class="st8" d="M71,46.4v-1.2c-0.6-0.1-1.1-0.2-1.5-0.4c-0.4-0.2-0.7-0.5-1-1s-0.4-1-0.5-1.6l1.2-0.2
												c0.1,0.7,0.3,1.1,0.5,1.5c0.3,0.4,0.8,0.7,1.2,0.7v-3.9c-0.5-0.1-1-0.3-1.6-0.6c-0.4-0.2-0.7-0.5-0.9-0.9
												s-0.3-0.8-0.3-1.3c0-0.9,0.3-1.6,0.9-2.1c0.4-0.4,1-0.6,1.8-0.7v-0.6h0.7v0.6c0.7,0.1,1.3,0.3,1.7,0.6
												c0.5,0.4,0.9,1.1,1,1.8l-1.3,0.2c-0.1-0.5-0.2-0.9-0.5-1.1c-0.2-0.3-0.5-0.4-0.9-0.5v3.5c0.6,0.2,1,0.3,1.2,0.4
												c0.4,0.2,0.7,0.4,0.9,0.6s0.4,0.5,0.6,0.9s0.2,0.7,0.2,1.1c0,0.9-0.3,1.6-0.8,2.1s-1.2,0.9-2.1,0.9v1.2H71z M71,35.7
												c-0.5,0.1-0.9,0.3-1.1,0.6s-0.4,0.7-0.4,1.1c0,0.4,0.1,0.8,0.4,1.1s0.6,0.5,1.2,0.7V35.7z M71.7,44.2
												c0.5-0.1,0.9-0.3,1.2-0.6s0.5-0.8,0.5-1.3c0-0.4-0.1-0.8-0.3-1.1c-0.2-0.3-0.7-0.5-1.3-0.7V44.2z"/>
											<path class="st8" d="M76,42.7l1.2-0.1c0.1,0.6,0.3,1,0.6,1.2s0.6,0.4,1.1,0.4c0.4,0,0.7-0.1,1-0.3s0.5-0.4,0.7-0.7
												c0.2-0.3,0.3-0.7,0.5-1.2s0.2-1,0.2-1.5c0-0.1,0-0.1,0-0.2c-0.2,0.4-0.6,0.7-1,1c-0.4,0.2-0.9,0.4-1.4,0.4
												c-0.8,0-1.5-0.3-2.1-0.9s-0.9-1.4-0.9-2.4c0-1,0.3-1.8,0.9-2.5s1.4-0.9,2.3-0.9c0.7,0,1.2,0.2,1.8,0.5s1,0.9,1.2,1.5
												c0.3,0.6,0.4,1.6,0.4,2.8c0,1.3-0.1,2.3-0.4,3.1c-0.3,0.8-0.7,1.3-1.2,1.7s-1.2,0.6-1.9,0.6c-0.8,0-1.4-0.2-1.9-0.7
												C76.4,44.1,76.1,43.5,76,42.7z M81.1,38.3c0-0.7-0.2-1.3-0.6-1.7S79.7,36,79.1,36c-0.5,0-1,0.2-1.4,0.7s-0.6,1-0.6,1.7
												c0,0.6,0.2,1.2,0.6,1.6c0.4,0.4,0.9,0.6,1.4,0.6c0.6,0,1-0.2,1.4-0.6C80.9,39.5,81.1,39,81.1,38.3z"/>
											<path class="st8" d="M84.3,45v-1.4h1.4V45c0,0.5-0.1,0.9-0.3,1.2c-0.2,0.3-0.5,0.6-0.9,0.7l-0.3-0.5
												c0.3-0.1,0.5-0.3,0.6-0.5c0.1-0.2,0.2-0.5,0.2-1H84.3z"/>
											<path class="st8" d="M87.7,42.7l1.2-0.1c0.1,0.6,0.3,1,0.6,1.2c0.3,0.3,0.6,0.4,1.1,0.4c0.4,0,0.7-0.1,1-0.3
												c0.3-0.2,0.5-0.4,0.7-0.7c0.2-0.3,0.3-0.7,0.5-1.2s0.2-1,0.2-1.5c0-0.1,0-0.1,0-0.2c-0.2,0.4-0.6,0.7-1,1
												c-0.4,0.2-0.9,0.4-1.4,0.4c-0.8,0-1.5-0.3-2.1-0.9s-0.9-1.4-0.9-2.4c0-1,0.3-1.8,0.9-2.5c0.6-0.6,1.3-0.9,2.3-0.9
												c0.7,0,1.2,0.2,1.8,0.5s1,0.9,1.2,1.5c0.3,0.6,0.4,1.6,0.4,2.8c0,1.3-0.1,2.3-0.4,3.1c-0.3,0.8-0.7,1.3-1.2,1.7
												c-0.5,0.4-1.2,0.6-1.9,0.6c-0.8,0-1.4-0.2-1.9-0.7C88.1,44.1,87.8,43.5,87.7,42.7z M92.7,38.3c0-0.7-0.2-1.3-0.6-1.7
												S91.3,36,90.8,36c-0.5,0-1,0.2-1.4,0.7c-0.4,0.4-0.6,1-0.6,1.7c0,0.6,0.2,1.2,0.6,1.6c0.4,0.4,0.9,0.6,1.4,0.6
												c0.6,0,1-0.2,1.4-0.6C92.6,39.5,92.7,39,92.7,38.3z"/>
											<path class="st8" d="M99.9,45h-1.2v-7.8c-0.3,0.3-0.7,0.6-1.2,0.8c-0.5,0.3-0.9,0.5-1.3,0.6v-1.2
												c0.7-0.3,1.3-0.7,1.8-1.2c0.5-0.5,0.9-0.9,1.1-1.3h0.8V45z"/>
											<path class="st8" d="M103.1,40.1c0-1.2,0.1-2.1,0.4-2.9c0.2-0.7,0.6-1.3,1.1-1.7c0.5-0.4,1.1-0.6,1.8-0.6
												c0.5,0,1,0.1,1.4,0.3c0.4,0.2,0.7,0.5,1,0.9c0.3,0.4,0.5,0.9,0.6,1.5c0.2,0.6,0.2,1.4,0.2,2.4c0,1.2-0.1,2.1-0.4,2.8
												c-0.2,0.7-0.6,1.3-1.1,1.7c-0.5,0.4-1.1,0.6-1.8,0.6c-1,0-1.7-0.3-2.3-1C103.4,43.3,103.1,41.9,103.1,40.1z M104.3,40.1
												c0,1.6,0.2,2.7,0.6,3.3c0.4,0.5,0.9,0.8,1.4,0.8c0.6,0,1-0.3,1.4-0.8c0.4-0.5,0.6-1.6,0.6-3.3c0-1.6-0.2-2.7-0.6-3.3
												c-0.4-0.5-0.9-0.8-1.4-0.8c-0.6,0-1,0.2-1.4,0.7C104.6,37.3,104.3,38.4,104.3,40.1z"/>
											<path class="st8" d="M111.6,45v-1.4h1.4V45H111.6z"/>
											<path class="st8" d="M114.8,36.3v-1.2h6.5v1c-0.6,0.7-1.3,1.6-1.9,2.7c-0.6,1.1-1.1,2.3-1.5,3.5
												c-0.2,0.8-0.4,1.8-0.5,2.8h-1.3c0-0.8,0.2-1.7,0.5-2.9c0.3-1.1,0.7-2.2,1.3-3.2c0.6-1,1.1-1.9,1.8-2.6H114.8z"/>
											<path class="st8" d="M122.6,42.4l1.2-0.2c0.1,0.7,0.4,1.2,0.7,1.5c0.3,0.3,0.8,0.5,1.2,0.5c0.6,0,1.1-0.2,1.5-0.6
												c0.4-0.4,0.6-0.9,0.6-1.5c0-0.6-0.2-1-0.6-1.4c-0.4-0.4-0.8-0.6-1.4-0.6c-0.2,0-0.5,0-0.9,0.1l0.1-1.1c0.1,0,0.1,0,0.2,0
												c0.5,0,1-0.1,1.4-0.4c0.4-0.3,0.6-0.7,0.6-1.3c0-0.5-0.2-0.8-0.5-1.1c-0.3-0.3-0.7-0.4-1.2-0.4c-0.5,0-0.9,0.2-1.2,0.5
												c-0.3,0.3-0.5,0.8-0.6,1.4l-1.2-0.2c0.2-0.8,0.5-1.5,1-1.9c0.5-0.5,1.2-0.7,2-0.7c0.5,0,1.1,0.1,1.5,0.4
												c0.5,0.2,0.8,0.6,1.1,1c0.2,0.4,0.4,0.8,0.4,1.3c0,0.4-0.1,0.8-0.3,1.2s-0.6,0.6-1,0.8c0.6,0.1,1.1,0.4,1.4,0.9
												c0.3,0.4,0.5,1,0.5,1.6c0,0.9-0.3,1.6-1,2.2c-0.6,0.6-1.4,0.9-2.4,0.9c-0.9,0-1.6-0.3-2.2-0.8S122.6,43.2,122.6,42.4z"/>
										</g>
									</g>
									<g class="st7">
										<g class="st7">
											<path class="st9" d="M69.6,26v-6.3h-2.4v-0.8h5.7v0.8h-2.4V26H69.6z"/>
											<path class="st9" d="M72.3,23.4c0-1,0.3-1.7,0.8-2.1c0.4-0.4,1-0.6,1.6-0.6c0.7,0,1.3,0.2,1.7,0.7
												c0.5,0.5,0.7,1.1,0.7,1.9c0,0.7-0.1,1.2-0.3,1.6c-0.2,0.4-0.5,0.7-0.9,0.9s-0.8,0.3-1.3,0.3c-0.7,0-1.3-0.2-1.8-0.7
												S72.3,24.3,72.3,23.4z M73.2,23.4c0,0.7,0.1,1.2,0.4,1.5c0.3,0.3,0.7,0.5,1.1,0.5c0.4,0,0.8-0.2,1.1-0.5s0.4-0.8,0.4-1.5
												c0-0.6-0.1-1.1-0.4-1.5c-0.3-0.3-0.7-0.5-1.1-0.5c-0.4,0-0.8,0.2-1.1,0.5S73.2,22.7,73.2,23.4z"/>
											<path class="st9" d="M80.1,25.2l0.1,0.8c-0.2,0.1-0.5,0.1-0.7,0.1c-0.3,0-0.6-0.1-0.7-0.2s-0.3-0.2-0.4-0.4
												c-0.1-0.2-0.1-0.5-0.1-1v-3h-0.6v-0.7h0.6v-1.3l0.9-0.5v1.8h0.9v0.7h-0.9v3c0,0.3,0,0.4,0,0.5s0.1,0.1,0.2,0.2
												s0.2,0.1,0.3,0.1C79.9,25.2,80,25.2,80.1,25.2z"/>
											<path class="st9" d="M84.4,25.4c-0.3,0.3-0.6,0.5-0.9,0.6c-0.3,0.1-0.6,0.2-1,0.2c-0.6,0-1-0.1-1.3-0.4
												c-0.3-0.3-0.5-0.6-0.5-1.1c0-0.3,0.1-0.5,0.2-0.7c0.1-0.2,0.3-0.4,0.5-0.5s0.4-0.2,0.6-0.3c0.2,0,0.4-0.1,0.8-0.1
												c0.7-0.1,1.2-0.2,1.6-0.3c0-0.1,0-0.2,0-0.2c0-0.4-0.1-0.6-0.2-0.8c-0.2-0.2-0.6-0.3-1-0.3c-0.4,0-0.7,0.1-0.9,0.2
												c-0.2,0.1-0.3,0.4-0.4,0.8l-0.9-0.1c0.1-0.4,0.2-0.7,0.4-0.9c0.2-0.2,0.4-0.4,0.8-0.5c0.3-0.1,0.7-0.2,1.2-0.2
												c0.4,0,0.8,0.1,1.1,0.2s0.5,0.2,0.6,0.4c0.1,0.2,0.2,0.4,0.3,0.6c0,0.1,0,0.4,0,0.8v1.2c0,0.8,0,1.3,0.1,1.5
												c0,0.2,0.1,0.4,0.2,0.6h-0.9C84.5,25.8,84.4,25.6,84.4,25.4z M84.3,23.4c-0.3,0.1-0.8,0.2-1.4,0.3
												c-0.4,0.1-0.6,0.1-0.8,0.2s-0.3,0.2-0.3,0.3c-0.1,0.1-0.1,0.3-0.1,0.4c0,0.2,0.1,0.4,0.3,0.6s0.4,0.2,0.8,0.2
												c0.3,0,0.6-0.1,0.9-0.2c0.3-0.1,0.5-0.4,0.6-0.6c0.1-0.2,0.1-0.5,0.1-0.9V23.4z"/>
											<path class="st9" d="M86.5,26v-7.2h0.9V26H86.5z"/>
											<path class="st9" d="M91.7,26v-7.2h5.2v0.8h-4.2v2.2h4v0.8h-4v2.4H97V26H91.7z"/>
											<path class="st9" d="M97.6,26l1.9-2.7l-1.8-2.5h1.1l0.8,1.2c0.1,0.2,0.3,0.4,0.4,0.6c0.1-0.2,0.3-0.4,0.4-0.6l0.9-1.2h1
												l-1.8,2.4l1.9,2.7h-1.1l-1.1-1.6l-0.3-0.4l-1.4,2H97.6z"/>
											<path class="st9" d="M103.2,28v-7.2h0.8v0.7c0.2-0.3,0.4-0.5,0.6-0.6c0.2-0.1,0.5-0.2,0.9-0.2c0.4,0,0.8,0.1,1.2,0.3
												s0.6,0.5,0.8,1c0.2,0.4,0.3,0.9,0.3,1.4c0,0.5-0.1,1-0.3,1.4c-0.2,0.4-0.5,0.8-0.8,1c-0.4,0.2-0.7,0.3-1.1,0.3
												c-0.3,0-0.6-0.1-0.8-0.2c-0.2-0.1-0.4-0.3-0.6-0.5V28H103.2z M104,23.4c0,0.7,0.1,1.2,0.4,1.5s0.6,0.5,1,0.5
												c0.4,0,0.7-0.2,1-0.5c0.3-0.3,0.4-0.8,0.4-1.5c0-0.7-0.1-1.2-0.4-1.5c-0.3-0.3-0.6-0.5-1-0.5c-0.4,0-0.7,0.2-1,0.5
												C104.2,22.3,104,22.8,104,23.4z"/>
											<path class="st9" d="M112.3,24.3l0.9,0.1c-0.1,0.5-0.4,0.9-0.8,1.2s-0.9,0.4-1.5,0.4c-0.8,0-1.4-0.2-1.8-0.7
												c-0.4-0.5-0.7-1.1-0.7-2c0-0.9,0.2-1.5,0.7-2s1-0.7,1.7-0.7c0.7,0,1.3,0.2,1.7,0.7s0.7,1.1,0.7,2c0,0.1,0,0.1,0,0.2h-3.9
												c0,0.6,0.2,1,0.5,1.3s0.7,0.5,1.1,0.5c0.3,0,0.6-0.1,0.8-0.3S112.2,24.7,112.3,24.3z M109.5,22.9h2.9
												c0-0.4-0.2-0.8-0.3-1c-0.3-0.3-0.6-0.5-1.1-0.5c-0.4,0-0.7,0.1-1,0.4C109.6,22.1,109.5,22.5,109.5,22.9z"/>
											<path class="st9" d="M114.4,26v-5.2h0.8v0.7c0.4-0.6,0.9-0.9,1.7-0.9c0.3,0,0.6,0.1,0.9,0.2c0.3,0.1,0.5,0.3,0.6,0.4
												s0.2,0.4,0.3,0.6c0,0.2,0,0.4,0,0.9V26h-0.9v-3.2c0-0.4,0-0.6-0.1-0.8c-0.1-0.2-0.2-0.3-0.4-0.4
												c-0.2-0.1-0.4-0.2-0.6-0.2c-0.4,0-0.7,0.1-1,0.4c-0.3,0.2-0.4,0.7-0.4,1.4V26H114.4z"/>
											<path class="st9" d="M119.6,24.5l0.9-0.1c0,0.3,0.2,0.6,0.4,0.8c0.2,0.2,0.5,0.3,0.9,0.3c0.4,0,0.7-0.1,0.9-0.2
												c0.2-0.2,0.3-0.4,0.3-0.6c0-0.2-0.1-0.4-0.3-0.5c-0.1-0.1-0.4-0.2-0.9-0.3c-0.6-0.2-1.1-0.3-1.3-0.4
												c-0.2-0.1-0.4-0.3-0.6-0.5c-0.1-0.2-0.2-0.4-0.2-0.7c0-0.2,0.1-0.4,0.2-0.6c0.1-0.2,0.3-0.4,0.4-0.5
												c0.1-0.1,0.3-0.2,0.6-0.3c0.2-0.1,0.5-0.1,0.8-0.1c0.4,0,0.8,0.1,1.1,0.2c0.3,0.1,0.5,0.3,0.7,0.5
												c0.1,0.2,0.2,0.5,0.3,0.8l-0.9,0.1c0-0.3-0.2-0.5-0.3-0.6c-0.2-0.1-0.5-0.2-0.8-0.2c-0.4,0-0.7,0.1-0.9,0.2
												s-0.3,0.3-0.3,0.5c0,0.1,0,0.2,0.1,0.3c0.1,0.1,0.2,0.2,0.3,0.2c0.1,0,0.3,0.1,0.8,0.2c0.6,0.2,1.1,0.3,1.3,0.4
												c0.2,0.1,0.4,0.3,0.6,0.5s0.2,0.5,0.2,0.8c0,0.3-0.1,0.6-0.3,0.8c-0.2,0.3-0.4,0.5-0.7,0.6c-0.3,0.1-0.7,0.2-1.1,0.2
												c-0.7,0-1.2-0.1-1.5-0.4C119.9,25.4,119.7,25,119.6,24.5z"/>
											<path class="st9" d="M128.5,24.3l0.9,0.1c-0.1,0.5-0.4,0.9-0.8,1.2s-0.9,0.4-1.5,0.4c-0.8,0-1.4-0.2-1.8-0.7
												c-0.4-0.5-0.7-1.1-0.7-2c0-0.9,0.2-1.5,0.7-2s1-0.7,1.7-0.7c0.7,0,1.3,0.2,1.7,0.7s0.7,1.1,0.7,2c0,0.1,0,0.1,0,0.2h-3.9
												c0,0.6,0.2,1,0.5,1.3s0.7,0.5,1.1,0.5c0.3,0,0.6-0.1,0.8-0.3S128.3,24.7,128.5,24.3z M125.6,22.9h2.9
												c0-0.4-0.2-0.8-0.3-1c-0.3-0.3-0.6-0.5-1.1-0.5c-0.4,0-0.7,0.1-1,0.4C125.8,22.1,125.6,22.5,125.6,22.9z"/>
											<path class="st9" d="M130.1,24.5l0.9-0.1c0,0.3,0.2,0.6,0.4,0.8c0.2,0.2,0.5,0.3,0.9,0.3c0.4,0,0.7-0.1,0.9-0.2
												c0.2-0.2,0.3-0.4,0.3-0.6c0-0.2-0.1-0.4-0.3-0.5c-0.1-0.1-0.4-0.2-0.9-0.3c-0.6-0.2-1.1-0.3-1.3-0.4
												c-0.3-0.1-0.4-0.3-0.6-0.5c-0.1-0.2-0.2-0.4-0.2-0.7c0-0.2,0.1-0.4,0.2-0.6c0.1-0.2,0.3-0.4,0.4-0.5
												c0.1-0.1,0.3-0.2,0.6-0.3c0.2-0.1,0.5-0.1,0.8-0.1c0.4,0,0.8,0.1,1.1,0.2c0.3,0.1,0.5,0.3,0.7,0.5
												c0.1,0.2,0.2,0.5,0.3,0.8l-0.9,0.1c0-0.3-0.2-0.5-0.3-0.6c-0.2-0.1-0.5-0.2-0.8-0.2c-0.4,0-0.7,0.1-0.9,0.2
												s-0.3,0.3-0.3,0.5c0,0.1,0,0.2,0.1,0.3c0.1,0.1,0.2,0.2,0.3,0.2c0.1,0,0.3,0.1,0.8,0.2c0.6,0.2,1.1,0.3,1.3,0.4
												c0.2,0.1,0.4,0.3,0.6,0.5s0.2,0.5,0.2,0.8c0,0.3-0.1,0.6-0.3,0.8c-0.2,0.3-0.4,0.5-0.7,0.6c-0.3,0.1-0.7,0.2-1.1,0.2
												c-0.7,0-1.2-0.1-1.5-0.4C130.4,25.4,130.2,25,130.1,24.5z"/>
										</g>
									</g>
									<g id="icon-_x2F_-16x16-_x2F_-down-arrow" transform="translate(68.000000, 52.000000)">
										<g id="Color">
											<path class="st10" d="M7.5,7H5V1c0-0.6-0.4-1-1-1S3,0.4,3,1v6H0.5C0.3,7,0.1,7.1,0,7.3s0,0.4,0.1,0.5l3.5,4
												C3.7,11.9,3.9,12,4,12s0.3-0.1,0.4-0.2l3.5-4C8,7.7,8,7.5,8,7.3C7.9,7.1,7.7,7,7.5,7z"/>
										</g>
									</g>
									<g class="st7">
										<g class="st7">
											<path class="st10" d="M83.7,61h-0.9v-5.6c-0.2,0.2-0.5,0.4-0.8,0.6s-0.7,0.4-0.9,0.5v-0.8c0.5-0.2,0.9-0.5,1.3-0.8
												s0.6-0.6,0.8-1h0.6V61z"/>
											<path class="st10" d="M90.6,60.2V61h-4.7c0-0.2,0-0.4,0.1-0.6c0.1-0.3,0.3-0.6,0.6-1c0.3-0.3,0.6-0.7,1.2-1.1
												c0.8-0.6,1.3-1.1,1.6-1.5c0.3-0.4,0.4-0.7,0.4-1.1c0-0.3-0.1-0.6-0.4-0.9c-0.2-0.2-0.6-0.4-1-0.4c-0.4,0-0.8,0.1-1,0.4
												s-0.4,0.6-0.4,1.1L86,55.9c0.1-0.7,0.3-1.2,0.7-1.5c0.4-0.4,0.9-0.5,1.6-0.5c0.7,0,1.2,0.2,1.6,0.6s0.6,0.9,0.6,1.4
												c0,0.3-0.1,0.6-0.2,0.8s-0.3,0.6-0.6,0.9c-0.3,0.3-0.7,0.7-1.4,1.3c-0.5,0.4-0.9,0.7-1,0.9c-0.1,0.2-0.3,0.3-0.4,0.5
												H90.6z"/>
											<path class="st10" d="M91.7,55.6c0-0.5,0.1-0.9,0.4-1.3s0.6-0.5,1.1-0.5c0.4,0,0.8,0.2,1.1,0.5c0.3,0.3,0.4,0.8,0.4,1.4
												c0,0.6-0.1,1.1-0.4,1.4c-0.3,0.3-0.7,0.5-1.1,0.5c-0.4,0-0.8-0.2-1.1-0.5C91.8,56.7,91.7,56.2,91.7,55.6z M93.2,54.3
												c-0.2,0-0.4,0.1-0.5,0.3c-0.1,0.2-0.2,0.5-0.2,1c0,0.5,0.1,0.8,0.2,1c0.1,0.2,0.3,0.3,0.5,0.3c0.2,0,0.4-0.1,0.5-0.3
												c0.1-0.2,0.2-0.5,0.2-1c0-0.5-0.1-0.8-0.2-1C93.6,54.4,93.5,54.3,93.2,54.3z M93.2,61.3l3.9-7.5h0.7L94,61.3H93.2z
												 M96.3,59.3c0-0.5,0.1-0.9,0.4-1.3c0.3-0.4,0.6-0.5,1.1-0.5c0.4,0,0.8,0.2,1.1,0.5c0.3,0.3,0.4,0.8,0.4,1.4
												c0,0.6-0.1,1.1-0.4,1.4c-0.3,0.3-0.7,0.5-1.1,0.5c-0.4,0-0.8-0.2-1.1-0.5C96.5,60.5,96.3,60,96.3,59.3z M97.9,58.1
												c-0.2,0-0.4,0.1-0.5,0.3c-0.1,0.2-0.2,0.5-0.2,1c0,0.5,0.1,0.8,0.2,1s0.3,0.3,0.5,0.3c0.2,0,0.4-0.1,0.6-0.3
												c0.1-0.2,0.2-0.5,0.2-1c0-0.5-0.1-0.8-0.2-1C98.3,58.2,98.1,58.1,97.9,58.1z"/>
										</g>
									</g>
								</g>
							</g>
						</g>
					</g>
				</g>
			</g>
		</g>
	</g>
</g>
</svg>
