<svg width="16px" height="16px" viewBox="0 0 14 12" version="1.1" xmlns="http://www.w3.org/2000/svg" xmlns:xlink="http://www.w3.org/1999/xlink">
    <g id="Pricing" stroke="none" stroke-width="1" fill="none" fill-rule="evenodd">
        <g id="Pricing---Core-Features" transform="translate(-705.000000, -736.000000)" fill="none">
            <g id="section-2" transform="translate(188.000000, 439.000000)">
                <g id="plans" transform="translate(97.000000, 109.000000)">
                    <g id="pro" transform="translate(379.000000, 0.000000)">
                        <g id="list" transform="translate(40.000000, 179.000000)">
                            <g id="checkmark-icons" transform="translate(0.000000, 7.000000)">
                                <g id="icon-/-16x16-/-checkmark-1">
                                    <g id="icon-/-16x16-/-checkmark" transform="translate(1.000000, 2.000000)">
                                        <path d="M5,12 C4.73480519,12 4.48049273,11.8945494 4.293,11.707 L0.293,7.707 C-0.0859722095,7.31462111 -0.0805523739,6.69091522 0.305181425,6.30518142 C0.690915223,5.91944763 1.31462111,5.91402779 1.707,6.293 L4.917,9.503 L12.217,0.375 C12.562178,-0.0563343896 13.1916656,-0.126177969 13.623,0.219 C14.0543344,0.564177969 14.124178,1.19366561 13.779,1.625 L5.779,11.625 C5.60189905,11.8471774 5.33864818,11.9835298 5.055,12 L5,12 Z" id="Color"></path>
                                    </g>
                                </g>
                            </g>
                        </g>
                    </g>
                </g>
            </g>
        </g>
    </g>
</svg>