<?xml version="1.0" encoding="UTF-8"?>
<svg width="230px" height="120px" viewBox="0 0 230 120" version="1.1" xmlns="http://www.w3.org/2000/svg" xmlns:xlink="http://www.w3.org/1999/xlink">
    <!-- Generator: sketchtool 59.1 (101010) - https://sketch.com -->
    <title>6E0A94EB-56B9-4EC3-A6D1-B423EE93AE0C</title>
    <desc>Created with sketchtool.</desc>
    <g id="Pages" stroke="none" stroke-width="1" fill="none" fill-rule="evenodd">
        <g id="Association-Solution" transform="translate(-805.000000, -988.000000)">
            <g id="section-2" transform="translate(218.000000, 735.000000)">
                <g id="cards" transform="translate(20.000000, 253.000000)">
                    <g id="illustrations" transform="translate(7.000000, 0.000000)">
                        <g id="condominium" transform="translate(560.000000, 0.000000)">
                            <polygon id="Fill-1" fill="#FFFFFF" points="0 120 230 120 230 0 0 0"></polygon>
                            <g id="Group-6" transform="translate(31.000000, 118.000000)" stroke="#46BBC4" stroke-linecap="round" stroke-linejoin="round" stroke-width="2">
                                <line x1="0" y1="1" x2="168" y2="1" id="Stroke-2"></line>
                                <line x1="0" y1="1" x2="168" y2="1" id="Stroke-4"></line>
                            </g>
                            <polygon id="Fill-7" fill="#1C7F8A" points="83 115 93 115 93 99 83 99"></polygon>
                            <polygon id="Stroke-8" stroke="#1C7F8A" stroke-width="2" stroke-linecap="round" stroke-linejoin="round" points="83 115 93 115 93 99 83 99"></polygon>
                            <line x1="85" y1="113" x2="91" y2="113" id="Stroke-9" stroke="#46BBC4" stroke-width="2" stroke-linecap="round" stroke-linejoin="round"></line>
                            <line x1="155" y1="13" x2="155" y2="115" id="Stroke-10" stroke="#46BBC4" stroke-width="2" stroke-linecap="round" stroke-linejoin="round"></line>
                            <line x1="75" y1="115" x2="75" y2="13" id="Stroke-11" stroke="#46BBC4" stroke-width="2" stroke-linecap="round" stroke-linejoin="round"></line>
                            <polygon id="Stroke-12" stroke="#A7DFE3" stroke-width="2" stroke-linecap="round" stroke-linejoin="round" points="119 69 129 69 129 57 119 57"></polygon>
                            <polygon id="Stroke-13" stroke="#A7DFE3" stroke-width="2" stroke-linecap="round" stroke-linejoin="round" points="137 69 147 69 147 57 137 57"></polygon>
                            <polygon id="Stroke-14" stroke="#A7DFE3" stroke-width="2" stroke-linecap="round" stroke-linejoin="round" points="119 89 129 89 129 77 119 77"></polygon>
                            <polygon id="Stroke-15" stroke="#A7DFE3" stroke-width="2" stroke-linecap="round" stroke-linejoin="round" points="137 89 147 89 147 77 137 77"></polygon>
                            <polygon id="Stroke-16" stroke="#A7DFE3" stroke-width="2" stroke-linecap="round" stroke-linejoin="round" points="119 111 129 111 129 99 119 99"></polygon>
                            <polygon id="Stroke-17" stroke="#A7DFE3" stroke-width="2" stroke-linecap="round" stroke-linejoin="round" points="101 111 111 111 111 99 101 99"></polygon>
                            <polygon id="Stroke-18" stroke="#A7DFE3" stroke-width="2" stroke-linecap="round" stroke-linejoin="round" points="137 111 147 111 147 99 137 99"></polygon>
                            <polygon id="Stroke-19" stroke="#A7DFE3" stroke-width="2" stroke-linecap="round" stroke-linejoin="round" points="83 69 93 69 93 57 83 57"></polygon>
                            <polygon id="Stroke-20" stroke="#A7DFE3" stroke-width="2" stroke-linecap="round" stroke-linejoin="round" points="101 69 111 69 111 57 101 57"></polygon>
                            <polygon id="Stroke-21" stroke="#A7DFE3" stroke-width="2" stroke-linecap="round" stroke-linejoin="round" points="83 89 93 89 93 77 83 77"></polygon>
                            <polygon id="Stroke-22" stroke="#A7DFE3" stroke-width="2" stroke-linecap="round" stroke-linejoin="round" points="101 89 111 89 111 77 101 77"></polygon>
                            <polygon id="Stroke-23" stroke="#A7DFE3" stroke-width="2" stroke-linecap="round" stroke-linejoin="round" points="119 29 129 29 129 17 119 17"></polygon>
                            <polygon id="Stroke-24" stroke="#A7DFE3" stroke-width="2" stroke-linecap="round" stroke-linejoin="round" points="137 29 147 29 147 17 137 17"></polygon>
                            <polygon id="Stroke-25" stroke="#A7DFE3" stroke-width="2" stroke-linecap="round" stroke-linejoin="round" points="119 49 129 49 129 37 119 37"></polygon>
                            <polygon id="Stroke-26" stroke="#A7DFE3" stroke-width="2" stroke-linecap="round" stroke-linejoin="round" points="137 49 147 49 147 37 137 37"></polygon>
                            <polygon id="Stroke-27" stroke="#A7DFE3" stroke-width="2" stroke-linecap="round" stroke-linejoin="round" points="83 29 93 29 93 17 83 17"></polygon>
                            <polygon id="Stroke-28" stroke="#A7DFE3" stroke-width="2" stroke-linecap="round" stroke-linejoin="round" points="101 29 111 29 111 17 101 17"></polygon>
                            <polygon id="Stroke-29" stroke="#A7DFE3" stroke-width="2" stroke-linecap="round" stroke-linejoin="round" points="83 49 93 49 93 37 83 37"></polygon>
                            <polygon id="Stroke-30" stroke="#A7DFE3" stroke-width="2" stroke-linecap="round" stroke-linejoin="round" points="101 49 111 49 111 37 101 37"></polygon>
                            <g id="Group-57" transform="translate(7.000000, 1.000000)" stroke-linecap="round" stroke-linejoin="round" stroke-width="2">
                                <path d="M52.8398,104 C53.5898,103.05 54.0098,101.72 53.9898,99.93 C53.9398,95.51 51.1698,87.96 47.8598,87.9998417 C44.5498,88.04 41.9498,95.65 41.9898,100.07 C42.0098,101.79 42.4298,103.07 43.1498,104" id="Stroke-31" stroke="#A5CD7F"></path>
                                <path d="M172.8398,104 C173.5898,103.05 174.0098,101.72 173.9898,99.93 C173.9398,95.51 171.1698,87.96 167.8598,87.9998417 C164.5498,88.04 161.9498,95.65 161.9898,100.07 C162.0098,101.79 162.4298,103.07 163.1498,104" id="Stroke-33" stroke="#A5CD7F"></path>
                                <line x1="141.8799" y1="4" x2="74.1199" y2="4" id="Stroke-35" stroke="#FDEFDB"></line>
                                <polygon id="Stroke-37" stroke="#F4BA67" points="144 0 72 0 66 8 150 8"></polygon>
                                <polyline id="Stroke-39" stroke="#F57361" points="184 114 184 108 152 108"></polyline>
                                <line x1="152" y1="114" x2="180" y2="114" id="Stroke-41" stroke="#FDDED9"></line>
                                <polyline id="Stroke-43" stroke="#F57361" points="64 108 32 108 32 114"></polyline>
                                <line x1="36" y1="114" x2="64" y2="114" id="Stroke-45" stroke="#FDDED9"></line>
                                <path d="M14,26 C14,22.134 10.866,19 7,19 C3.134,19 0,22.134 0,26 C0,29.866 3.134,33 7,33 L27,33" id="Stroke-47" stroke="#FDEFDB"></path>
                                <path d="M17,53 C14.791,53 13,51.209 13,49 C13,46.791 14.791,45 17,45 L27,45" id="Stroke-49" stroke="#FDEFDB"></path>
                                <line x1="35" y1="39" x2="17" y2="39" id="Stroke-51" stroke="#FDEFDB"></line>
                                <path d="M204,39 C206.209,39 208,40.791 208,43 C208,45.209 206.209,47 204,47 L186,47" id="Stroke-53" stroke="#FDEFDB"></path>
                                <path d="M168,53 L211,53 C215.971,53 220,57.029 220,62 C220,66.971 215.971,71 211,71" id="Stroke-55" stroke="#FDEFDB"></path>
                            </g>
                        </g>
                    </g>
                </g>
            </g>
        </g>
    </g>
</svg>