<?xml version="1.0" encoding="utf-8"?>
<!-- Generator: Adobe Illustrator 21.0.0, SVG Export Plug-In . SVG Version: 6.00 Build 0)  -->
<svg version="1.1" id="Слой_1" xmlns="http://www.w3.org/2000/svg" xmlns:xlink="http://www.w3.org/1999/xlink" x="0px" y="0px"
	 viewBox="0 0 242 134" style="enable-background:new 0 0 242 134;" xml:space="preserve">
<style type="text/css">
	.st0{fill:#FFFFFF;}
	.st1{fill:#D3EFF1;}
	.st2{fill:#FFFFFF;stroke:#000000;stroke-opacity:0.12;}
	.st3{fill:#5B85D2;}
	.st4{enable-background:new    ;}
	.st5{opacity:0.32;fill:#FFFFFF;enable-background:new    ;}
	.st6{opacity:0.64;fill:#46BBC4;enable-background:new    ;}
	.st7{opacity:0.32;fill:#46BBC4;enable-background:new    ;}
	.st8{fill:#FDEFDB;}
	.st9{fill:#717171;}
	.st10{fill:#E9E9E9;}
</style>
<g>
	<rect id="path-1" class="st0" width="242" height="134"/>
</g>
<title>A8C516AE-7089-45AC-9AC9-E14785B8EE31</title>
<desc>Created with sketchtool.</desc>
<g id="Pricing">
	<g id="Pricing---Core-Features" transform="translate(-373.000000, -2588.000000)">
		<g id="section-3" transform="translate(81.000000, 1194.000000)">
			<g id="list" transform="translate(0.000000, 109.000000)">
				<g id="item" transform="translate(292.000000, 1285.000000)">
					<g id="image">
						<g id="customer-websites">
							<g id="mask">
								<rect id="path-1_1_" class="st1" width="242" height="134"/>
							</g>
							<g id="design">
								<g transform="translate(39.000000, 27.000000)">
									<g id="box">
										<g>
											<path id="path-3_1_" d="M2,0h160c1.1,0,2,0.9,2,2v106l0,0H0V2C0,0.9,0.9,0,2,0z"/>
										</g>
										<path class="st2" d="M2-0.5h160c1.4,0,2.5,1.1,2.5,2.5v106.5h-165V2C-0.5,0.6,0.6-0.5,2-0.5z"/>
									</g>
									<g id="header">
										<path class="st3" d="M2,0h160c1.1,0,2,0.9,2,2v22l0,0H0V2C0,0.9,0.9,0,2,0z"/>
										<g class="st4">
											<g class="st4">
												<path class="st0" d="M24.3,13l0.9-0.1c0,0.5,0.1,0.9,0.3,1.1s0.4,0.3,0.8,0.3c0.2,0,0.4-0.1,0.6-0.2
													c0.2-0.1,0.3-0.3,0.4-0.4c0.1-0.2,0.1-0.5,0.1-0.9V7.8h0.9v4.9c0,0.6-0.1,1.1-0.2,1.4s-0.4,0.6-0.7,0.8
													s-0.7,0.3-1.1,0.3c-0.6,0-1.1-0.2-1.4-0.5S24.3,13.7,24.3,13z"/>
												<path class="st0" d="M29.3,12.4c0-1,0.3-1.7,0.8-2.1c0.4-0.4,1-0.6,1.6-0.6c0.7,0,1.3,0.2,1.7,0.7
													c0.5,0.5,0.7,1.1,0.7,1.9c0,0.7-0.1,1.2-0.3,1.6c-0.2,0.4-0.5,0.7-0.9,0.9s-0.8,0.3-1.3,0.3c-0.7,0-1.3-0.2-1.8-0.7
													S29.3,13.3,29.3,12.4z M30.2,12.4c0,0.7,0.1,1.2,0.4,1.5c0.3,0.3,0.7,0.5,1.1,0.5c0.4,0,0.8-0.2,1.1-0.5
													s0.4-0.8,0.4-1.5c0-0.6-0.1-1.1-0.4-1.5c-0.3-0.3-0.7-0.5-1.1-0.5c-0.4,0-0.8,0.2-1.1,0.5S30.2,11.7,30.2,12.4z"/>
												<path class="st0" d="M35.2,15V9.8H36v0.7c0.4-0.6,0.9-0.9,1.7-0.9c0.3,0,0.6,0.1,0.9,0.2c0.3,0.1,0.5,0.3,0.6,0.4
													s0.2,0.4,0.3,0.6c0,0.2,0,0.4,0,0.9V15h-0.9v-3.2c0-0.4,0-0.6-0.1-0.8c-0.1-0.2-0.2-0.3-0.4-0.4
													c-0.2-0.1-0.4-0.2-0.6-0.2c-0.4,0-0.7,0.1-1,0.4s-0.4,0.7-0.4,1.4V15H35.2z"/>
												<path class="st0" d="M44.3,13.3l0.9,0.1c-0.1,0.5-0.4,0.9-0.8,1.2s-0.9,0.4-1.5,0.4c-0.8,0-1.4-0.2-1.8-0.7
													c-0.4-0.5-0.7-1.1-0.7-2c0-0.9,0.2-1.5,0.7-2s1-0.7,1.7-0.7c0.7,0,1.3,0.2,1.7,0.7s0.7,1.1,0.7,2c0,0.1,0,0.1,0,0.2
													h-3.9c0,0.6,0.2,1,0.5,1.3s0.7,0.5,1.1,0.5c0.3,0,0.6-0.1,0.8-0.3S44.2,13.7,44.3,13.3z M41.4,11.9h2.9
													c0-0.4-0.1-0.8-0.3-1c-0.3-0.3-0.6-0.5-1.1-0.5c-0.4,0-0.7,0.1-1,0.4S41.5,11.5,41.4,11.9z"/>
												<path class="st0" d="M46,13.5l0.9-0.1c0,0.3,0.2,0.6,0.4,0.8s0.5,0.3,0.9,0.3c0.4,0,0.7-0.1,0.9-0.2
													c0.2-0.2,0.3-0.4,0.3-0.6c0-0.2-0.1-0.4-0.3-0.5c-0.1-0.1-0.4-0.2-0.9-0.3c-0.6-0.2-1.1-0.3-1.3-0.4
													c-0.2-0.1-0.4-0.3-0.6-0.5c-0.1-0.2-0.2-0.4-0.2-0.7c0-0.2,0.1-0.4,0.2-0.6c0.1-0.2,0.3-0.4,0.4-0.5
													c0.1-0.1,0.3-0.2,0.6-0.3c0.2-0.1,0.5-0.1,0.8-0.1c0.4,0,0.8,0.1,1.1,0.2s0.5,0.3,0.7,0.5c0.1,0.2,0.2,0.5,0.3,0.8
													l-0.9,0.1c0-0.3-0.2-0.5-0.3-0.6s-0.5-0.2-0.8-0.2c-0.4,0-0.7,0.1-0.9,0.2S47,10.9,47,11.1c0,0.1,0,0.2,0.1,0.3
													c0.1,0.1,0.2,0.2,0.3,0.2c0.1,0,0.3,0.1,0.8,0.2c0.6,0.2,1.1,0.3,1.3,0.4c0.2,0.1,0.4,0.3,0.6,0.5s0.2,0.5,0.2,0.8
													c0,0.3-0.1,0.6-0.3,0.8c-0.2,0.3-0.4,0.5-0.7,0.6c-0.3,0.1-0.7,0.2-1.1,0.2c-0.7,0-1.2-0.1-1.5-0.4S46.1,14,46,13.5z"/>
												<path class="st0" d="M54.2,15V7.8h2.7c0.5,0,0.8,0,1.1,0.1c0.4,0.1,0.6,0.2,0.9,0.3c0.2,0.2,0.4,0.4,0.6,0.7
													s0.2,0.6,0.2,1c0,0.6-0.2,1.1-0.6,1.5c-0.4,0.4-1.1,0.6-2.1,0.6h-1.8V15H54.2z M55.2,11.2H57c0.6,0,1-0.1,1.3-0.3
													s0.4-0.5,0.4-1c0-0.3-0.1-0.6-0.2-0.8c-0.2-0.2-0.4-0.4-0.6-0.4c-0.2,0-0.5-0.1-0.9-0.1h-1.8V11.2z"/>
												<path class="st0" d="M60.8,15V9.8h0.8v0.8c0.2-0.4,0.4-0.6,0.6-0.7s0.4-0.2,0.6-0.2c0.3,0,0.6,0.1,0.9,0.3l-0.3,0.8
													c-0.2-0.1-0.4-0.2-0.6-0.2c-0.2,0-0.4,0.1-0.5,0.2c-0.2,0.1-0.3,0.3-0.3,0.5c-0.1,0.3-0.1,0.7-0.1,1V15H60.8z"/>
												<path class="st0" d="M63.8,12.4c0-1,0.3-1.7,0.8-2.1c0.4-0.4,1-0.6,1.6-0.6c0.7,0,1.3,0.2,1.7,0.7
													c0.5,0.5,0.7,1.1,0.7,1.9c0,0.7-0.1,1.2-0.3,1.6c-0.2,0.4-0.5,0.7-0.9,0.9s-0.8,0.3-1.3,0.3c-0.7,0-1.3-0.2-1.8-0.7
													S63.8,13.3,63.8,12.4z M64.7,12.4c0,0.7,0.1,1.2,0.4,1.5c0.3,0.3,0.7,0.5,1.1,0.5c0.4,0,0.8-0.2,1.1-0.5
													s0.4-0.8,0.4-1.5c0-0.6-0.1-1.1-0.4-1.5c-0.3-0.3-0.7-0.5-1.1-0.5c-0.4,0-0.8,0.2-1.1,0.5S64.7,11.7,64.7,12.4z"/>
												<path class="st0" d="M69.7,17V9.8h0.8v0.7c0.2-0.3,0.4-0.5,0.6-0.6c0.2-0.1,0.5-0.2,0.9-0.2c0.4,0,0.8,0.1,1.2,0.3
													s0.6,0.5,0.8,1c0.2,0.4,0.3,0.9,0.3,1.4c0,0.5-0.1,1-0.3,1.4c-0.2,0.4-0.5,0.8-0.8,1c-0.4,0.2-0.7,0.3-1.1,0.3
													c-0.3,0-0.6-0.1-0.8-0.2s-0.4-0.3-0.6-0.5V17H69.7z M70.5,12.4c0,0.7,0.1,1.2,0.4,1.5s0.6,0.5,1,0.5
													c0.4,0,0.7-0.2,1-0.5c0.3-0.3,0.4-0.8,0.4-1.5c0-0.7-0.1-1.2-0.4-1.5s-0.6-0.5-1-0.5c-0.4,0-0.7,0.2-1,0.5
													C70.6,11.3,70.5,11.8,70.5,12.4z"/>
												<path class="st0" d="M78.8,13.3l0.9,0.1c-0.1,0.5-0.4,0.9-0.8,1.2s-0.9,0.4-1.5,0.4c-0.8,0-1.4-0.2-1.8-0.7
													c-0.4-0.5-0.7-1.1-0.7-2c0-0.9,0.2-1.5,0.7-2s1-0.7,1.7-0.7c0.7,0,1.3,0.2,1.7,0.7s0.7,1.1,0.7,2c0,0.1,0,0.1,0,0.2
													h-3.9c0,0.6,0.2,1,0.5,1.3s0.7,0.5,1.1,0.5c0.3,0,0.6-0.1,0.8-0.3S78.7,13.7,78.8,13.3z M75.9,11.9h2.9
													c0-0.4-0.1-0.8-0.3-1c-0.3-0.3-0.6-0.5-1.1-0.5c-0.4,0-0.7,0.1-1,0.4S75.9,11.5,75.9,11.9z"/>
												<path class="st0" d="M80.8,15V9.8h0.8v0.8c0.2-0.4,0.4-0.6,0.6-0.7s0.4-0.2,0.6-0.2c0.3,0,0.6,0.1,0.9,0.3l-0.3,0.8
													c-0.2-0.1-0.4-0.2-0.6-0.2c-0.2,0-0.4,0.1-0.5,0.2c-0.2,0.1-0.3,0.3-0.3,0.5c-0.1,0.3-0.1,0.7-0.1,1V15H80.8z"/>
												<path class="st0" d="M86.1,14.2l0.1,0.8c-0.2,0.1-0.5,0.1-0.7,0.1c-0.3,0-0.6-0.1-0.7-0.2s-0.3-0.2-0.4-0.4
													c-0.1-0.2-0.1-0.5-0.1-1v-3h-0.6V9.8h0.6V8.5L85.2,8v1.8h0.9v0.7h-0.9v3c0,0.3,0,0.4,0,0.5c0,0.1,0.1,0.1,0.2,0.2
													c0.1,0,0.2,0.1,0.3,0.1C85.8,14.2,85.9,14.2,86.1,14.2z"/>
												<path class="st0" d="M86.9,17l-0.1-0.8c0.2,0.1,0.4,0.1,0.5,0.1c0.2,0,0.4,0,0.5-0.1S88,16,88,15.9
													c0.1-0.1,0.1-0.3,0.3-0.7c0,0,0-0.1,0.1-0.2l-2-5.2h0.9l1.1,3c0.1,0.4,0.3,0.8,0.4,1.2c0.1-0.4,0.2-0.8,0.4-1.2l1.1-3
													h0.9l-2,5.3c-0.2,0.6-0.4,1-0.5,1.2c-0.2,0.3-0.3,0.5-0.5,0.6c-0.2,0.1-0.4,0.2-0.7,0.2C87.3,17.1,87.1,17.1,86.9,17z"
													/>
												<path class="st0" d="M99.9,12.5l0.9,0.2c-0.2,0.8-0.6,1.4-1.1,1.8c-0.5,0.4-1.1,0.6-1.9,0.6c-0.8,0-1.4-0.2-1.9-0.5
													c-0.5-0.3-0.9-0.8-1.1-1.4c-0.3-0.6-0.4-1.2-0.4-1.9c0-0.7,0.1-1.4,0.4-2c0.3-0.6,0.7-1,1.2-1.3
													c0.5-0.3,1.1-0.4,1.7-0.4c0.7,0,1.3,0.2,1.8,0.5s0.8,0.9,1,1.5L99.8,10c-0.2-0.5-0.4-0.9-0.7-1.1s-0.7-0.4-1.2-0.4
													c-0.5,0-1,0.1-1.4,0.4c-0.4,0.3-0.6,0.6-0.8,1.1c-0.1,0.4-0.2,0.9-0.2,1.4c0,0.6,0.1,1.1,0.3,1.6c0.2,0.5,0.5,0.8,0.8,1
													s0.8,0.3,1.2,0.3c0.5,0,1-0.2,1.3-0.5S99.8,13.1,99.9,12.5z"/>
												<path class="st0" d="M101.6,12.4c0-1,0.3-1.7,0.8-2.1c0.4-0.4,1-0.6,1.6-0.6c0.7,0,1.3,0.2,1.7,0.7
													c0.5,0.5,0.7,1.1,0.7,1.9c0,0.7-0.1,1.2-0.3,1.6c-0.2,0.4-0.5,0.7-0.9,0.9c-0.4,0.2-0.8,0.3-1.3,0.3
													c-0.7,0-1.3-0.2-1.8-0.7C101.8,14,101.6,13.3,101.6,12.4z M102.5,12.4c0,0.7,0.1,1.2,0.4,1.5c0.3,0.3,0.7,0.5,1.1,0.5
													c0.4,0,0.8-0.2,1.1-0.5s0.4-0.8,0.4-1.5c0-0.6-0.1-1.1-0.4-1.5c-0.3-0.3-0.7-0.5-1.1-0.5c-0.4,0-0.8,0.2-1.1,0.5
													S102.5,11.7,102.5,12.4z"/>
											</g>
										</g>
										<path id="Rectangle" class="st5" d="M120,11h10c0.6,0,1,0.4,1,1s-0.4,1-1,1h-10c-0.6,0-1-0.4-1-1S119.4,11,120,11z"/>
										<path id="Rectangle_1_" class="st5" d="M136,11h19c0.6,0,1,0.4,1,1s-0.4,1-1,1h-19c-0.6,0-1-0.4-1-1S135.4,11,136,11z"/>
										<circle id="Oval" class="st0" cx="14" cy="12" r="6"/>
									</g>
									<g id="text" transform="translate(8.000000, 41.000000)">
										<path id="Rectangle_2_" class="st6" d="M2,0h44c1.1,0,2,0.9,2,2s-0.9,2-2,2H2C0.9,4,0,3.1,0,2S0.9,0,2,0z"/>
										<path id="Rectangle_3_" class="st7" d="M1,8h22c0.6,0,1,0.4,1,1s-0.4,1-1,1H1c-0.6,0-1-0.4-1-1S0.4,8,1,8z"/>
										<path id="Rectangle_4_" class="st7" d="M29,8h38c0.6,0,1,0.4,1,1s-0.4,1-1,1H29c-0.6,0-1-0.4-1-1S28.4,8,29,8z"/>
										<path id="Rectangle_5_" class="st7" d="M73,8h23c0.6,0,1,0.4,1,1s-0.4,1-1,1H73c-0.6,0-1-0.4-1-1S72.4,8,73,8z"/>
										<path id="Rectangle_6_" class="st7" d="M1,14h32c0.6,0,1,0.4,1,1s-0.4,1-1,1H1c-0.6,0-1-0.4-1-1S0.4,14,1,14z"/>
										<path id="Rectangle_7_" class="st7" d="M39,14h14c0.6,0,1,0.4,1,1s-0.4,1-1,1H39c-0.6,0-1-0.4-1-1S38.4,14,39,14z"/>
										<path id="Rectangle_8_" class="st7" d="M59,14h23c0.6,0,1,0.4,1,1s-0.4,1-1,1H59c-0.6,0-1-0.4-1-1S58.4,14,59,14z"/>
										<path id="Rectangle_9_" class="st7" d="M1,20h10c0.6,0,1,0.4,1,1s-0.4,1-1,1H1c-0.6,0-1-0.4-1-1S0.4,20,1,20z"/>
										<path id="Rectangle_10_" class="st7" d="M17,20h27c0.6,0,1,0.4,1,1s-0.4,1-1,1H17c-0.6,0-1-0.4-1-1S16.4,20,17,20z"/>
										<path id="Rectangle_11_" class="st7" d="M50,20h40c0.6,0,1,0.4,1,1s-0.4,1-1,1H50c-0.6,0-1-0.4-1-1S49.4,20,50,20z"/>
									</g>
									<g id="icon" transform="translate(116.000000, 32.000000)">
										<circle id="Oval_1_" class="st8" cx="20" cy="20" r="20"/>
										<g id="icon-_x2F_-16x16-_x2F_-unit-apartment" transform="translate(12.000000, 12.000000)">
											<g id="Color" transform="translate(0.000000, 0.016595)">
												<path class="st9" d="M4,9.5v-1C4,8.2,4.2,8,4.5,8h1C5.8,8,6,8.2,6,8.5v1C6,9.8,5.8,10,5.5,10h-1C4.2,10,4,9.8,4,9.5z
													 M4.5,6h1C5.8,6,6,5.8,6,5.5v-1C6,4.2,5.8,4,5.5,4h-1C4.2,4,4,4.2,4,4.5v1C4,5.8,4.2,6,4.5,6z M16,5v10c0,0.6-0.4,1-1,1
													H1c-0.6,0-1-0.4-1-1V2c0-0.5,0.4-0.9,0.9-1l8-1c0.3,0,0.6,0.1,0.8,0.2C9.9,0.4,10,0.7,10,1v1.3l5.3,1.8
													C15.7,4.2,16,4.6,16,5z M2,14h2v-1.5C4,12.2,4.2,12,4.5,12h1C5.8,12,6,12.2,6,12.5V14h2V2.1L2,2.9V14z M14,14v-3h-1.5
													c-0.3,0-0.5-0.2-0.5-0.5v-2C12,8.2,12.2,8,12.5,8H14V5.7l-4-1.3V14H14z"/>
											</g>
										</g>
									</g>
									<polygon id="Divider" class="st10" points="8,80 156,80 156,81 8,81 									"/>
									<path id="Rectangle_12_" class="st6" d="M10,89h12c1.1,0,2,0.9,2,2s-0.9,2-2,2H10c-1.1,0-2-0.9-2-2S8.9,89,10,89z"/>
									<path id="Rectangle_13_" class="st7" d="M9,97h22c0.6,0,1,0.4,1,1s-0.4,1-1,1H9c-0.6,0-1-0.4-1-1S8.4,97,9,97z"/>
									<g id="Group-2" transform="translate(70.000000, 89.000000)">
										<path id="Rectangle_14_" class="st6" d="M2,0h20c1.1,0,2,0.9,2,2l0,0c0,1.1-0.9,2-2,2H2C0.9,4,0,3.1,0,2l0,0
											C0,0.9,0.9,0,2,0z"/>
										<path id="Rectangle_15_" class="st7" d="M1,8h16c0.6,0,1,0.4,1,1s-0.4,1-1,1H1c-0.6,0-1-0.4-1-1S0.4,8,1,8z"/>
										<path id="Rectangle_16_" class="st6" d="M64,0h15c1.1,0,2,0.9,2,2s-0.9,2-2,2H64c-1.1,0-2-0.9-2-2S62.9,0,64,0z"/>
										<path id="Rectangle_17_" class="st7" d="M63,8h22c0.6,0,1,0.4,1,1s-0.4,1-1,1H63c-0.6,0-1-0.4-1-1S62.4,8,63,8z"/>
									</g>
								</g>
							</g>
						</g>
					</g>
				</g>
			</g>
		</g>
	</g>
</g>
</svg>
