<?xml version="1.0" encoding="UTF-8"?>
<svg width="96px" height="96px" viewBox="0 0 96 96" version="1.1" xmlns="http://www.w3.org/2000/svg" xmlns:xlink="http://www.w3.org/1999/xlink">
    <!-- Generator: sketchtool 59.1 (101010) - https://sketch.com -->
    <title>533B04C4-C995-489F-B74A-4D409C4B8383</title>
    <desc>Created with sketchtool.</desc>
    <g id="Asset-Artboard-Page" stroke="none" stroke-width="1" fill="none" fill-rule="evenodd">
        <g id="icon-/-48x48-/-section-role-/-email-sent">
            <g transform="translate(0.000000, 8.000000)">
                <path d="M78,0 L10,0 C4.4798937,0.00661223267 0.00661223267,4.4798937 0,10 L0,58 C0.00661223267,63.5201063 4.4798937,67.9933878 10,68 L50,68 C51.1045695,68 52,67.1045695 52,66 C52,64.8954305 51.1045695,64 50,64 L10,64 C6.6862915,64 4,61.3137085 4,58 L4,10 C4,6.6862915 6.6862915,4 10,4 L78,4 C81.3137085,4 84,6.6862915 84,10 L84,36 C84,37.1045695 84.8954305,38 86,38 C87.1045695,38 88,37.1045695 88,36 L88,10 C87.9933878,4.4798937 83.5201063,0.00661223267 78,0 Z" id="Path" fill="#46BBC4"></path>
                <path d="M79.4140035,11.4140003 L52.2740023,38.5540013 C50.0797574,40.7486974 47.1034519,41.9817028 44.0000019,41.9817028 C40.8965519,41.9817028 37.9202464,40.7486974 35.7260015,38.5540013 L8.58600024,11.4140003 C7.82805578,10.6292425 7.83889545,9.38183072 8.61036309,8.6103631 C9.38183072,7.83889547 10.6292426,7.8280558 11.4140004,8.58600025 L38.5540016,35.7260012 C41.6015809,38.6359817 46.3984229,38.6359817 49.4460021,35.7260012 L76.5860034,8.58600025 C77.3707612,7.8280558 78.6181731,7.83889547 79.3896407,8.6103631 C80.1611083,9.38183072 80.171948,10.6292425 79.4140035,11.4140003 L79.4140035,11.4140003 Z M26.926,38.246 L8.5860002,56.5859998 C8.06608704,57.0881488 7.85757502,57.8317556 8.04060589,58.5310145 C8.22363677,59.2302733 8.76972669,59.7763632 9.46898554,59.9593941 C10.1682444,60.142425 10.9118512,59.933913 11.4140002,59.4139998 L29.754,41.074 C30.2739131,40.5718511 30.4824251,39.8282442 30.2993943,39.1289854 C30.1163634,38.4297265 29.5702735,37.8836366 28.8710146,37.7006057 C28.1717558,37.5175749 27.4281489,37.7260869 26.926,38.246 L26.926,38.246 Z" id="Shape" fill="#A7DFE3" fill-rule="nonzero"></path>
                <path d="M76,80 C64.954305,80 56,71.045695 56,60 C56,48.954305 64.954305,40 76,40 C87.045695,40 96,48.954305 96,60 C95.9878753,71.0406689 87.0406689,79.9878753 76,80 L76,80 Z M76,44 C67.163444,44 60,51.163444 60,60 C60,68.836556 67.163444,76 76,76 C84.836556,76 92,68.836556 92,60 C91.9900802,51.1675562 84.8324438,44.0099198 76,44 Z" id="Shape" fill="#F4BA67" fill-rule="nonzero"></path>
                <path d="M68,54 C68,52.8954305 68.8954305,52 70,52 C71.1045695,52 72,52.8954305 72,54 C72,55.1045695 71.1045695,56 70,56 C68.8954305,56 68,55.1045695 68,54 Z M82,56 C83.1045695,56 84,55.1045695 84,54 C84,52.8954305 83.1045695,52 82,52 C80.8954305,52 80,52.8954305 80,54 C80,55.1045695 80.8954305,56 82,56 Z M82.5420001,62.0919999 C81.4853555,61.8014061 80.3901022,62.4081036 80.0760001,63.4579999 C79.4558805,65.1355993 77.779344,66.1811724 76,65.9999999 C74.2218906,66.1804876 72.5466374,65.1360244 71.926,63.4599999 C71.6200952,62.4128709 70.531494,61.8040392 69.4791617,62.0915348 C68.4268294,62.3790305 67.7990019,63.456788 68.068,64.5139999 C69.1672312,67.9259496 72.4196452,70.1754129 76,69.9999998 C79.5803549,70.1754129 82.8327689,67.9259496 83.9320001,64.5139999 C84.2102982,63.4622169 83.5905319,62.3823075 82.5420001,62.0919999 L82.5420001,62.0919999 Z" id="Shape" fill="#F57361" fill-rule="nonzero"></path>
            </g>
        </g>
    </g>
</svg>