<svg width="289" height="265" xmlns="http://www.w3.org/2000/svg"><g fill="none" fill-rule="evenodd"><path d="M-80.5 357.5h450v-450h-450z"/><path d="M85.989 71.14c-.707 33.037 25.729 60.489 58.93 61.193 33.203.704 60.79-25.604 61.496-58.64.707-33.036-25.728-60.49-58.93-61.193-33.203-.703-60.79 25.604-61.496 58.64m-12.042-.254C74.795 31.238 107.9-.328 147.74.516c39.84.845 71.565 33.784 70.717 73.433-.848 39.647-33.953 71.212-73.795 70.368-39.841-.845-71.565-33.783-70.716-73.431M277.783 196.27l-3.215 1.676c-14.281 7.43-33.842 17.61-50.633 25.369l-4.438 2.054c-33.85 15.668-60.594 28.06-93.65 16.245-37.831-13.546-68.928-11.202-87.581 6.59a6.016 6.016 0 0 1-4.295 1.666 6.023 6.023 0 0 1-4.22-1.846 5.97 5.97 0 0 1 .182-8.473c22.127-21.113 57.633-24.39 99.988-9.22 28.414 10.174 51.929-.743 84.494-15.83l4.453-2.06c16.529-7.633 35.94-17.741 50.115-25.121l3.219-1.671c3.775-1.968 5.3-6.502 3.465-10.322-1.825-3.78-6.532-5.513-10.363-3.868l-55.89 23.557c-2.16 9.423-10.75 16.384-20.831 16.17l-57.373-1.216c-3.325-.071-5.964-2.808-5.893-6.12.07-3.311 2.824-5.935 6.15-5.864l57.373 1.216c4.886.104 8.946-3.768 9.05-8.63.104-4.856-3.763-8.896-8.623-9.004-16.22-.356-39.611-1.998-58.903-7.805-34.28-10.303-62.196-7.301-85.321 9.203-2.71 1.939-6.468 1.32-8.404-1.378a5.97 5.97 0 0 1 1.382-8.36c26.372-18.817 57.719-22.384 95.83-10.936 17.992 5.412 40.214 6.953 55.687 7.293 8.516.193 15.72 5.489 18.794 12.87l52.253-22.025a20.069 20.069 0 0 1 8.346-1.608c7.565.16 14.31 4.5 17.6 11.332 4.647 9.669.804 21.137-8.748 26.116" fill="#46BBC4"/><path d="M171.678 80.654a6.01 6.01 0 0 0-7.464 4.086c-1.74 5.97-9.69 10.331-18.493 10.145-8.802-.187-16.558-4.882-18.041-10.919-.793-3.219-4.06-5.198-7.283-4.399-3.232.786-5.21 4.028-4.42 7.241 2.827 11.504 14.955 19.752 29.488 20.06 14.533.308 27.002-7.418 30.319-18.792.927-3.177-.911-6.499-4.106-7.422m2.102-30.133c-4.988-.105-9.118 3.833-9.225 8.797-.106 4.963 3.852 9.072 8.84 9.18 4.989.105 9.118-3.834 9.224-8.797.107-4.964-3.851-9.073-8.84-9.18m-45.351 8.031c.106-4.964-3.852-9.073-8.84-9.179-4.988-.106-9.118 3.833-9.224 8.796-.106 4.964 3.85 9.073 8.839 9.18 4.989.105 9.119-3.834 9.225-8.797M48.682 162.618v89.895c0 6.608-5.402 11.987-12.046 11.987h-24.09C5.903 264.5.5 259.121.5 252.513v-89.895c0-6.608 5.403-11.985 12.046-11.985h24.09c6.644 0 12.046 5.377 12.046 11.985" fill="#1C7F8A"/></g></svg>