<?xml version="1.0" encoding="UTF-8"?>
<svg width="48px" height="48px" viewBox="0 0 48 48" version="1.1" xmlns="http://www.w3.org/2000/svg" xmlns:xlink="http://www.w3.org/1999/xlink">
    <!-- Generator: sketchtool 52.6 (67491) - http://www.bohemiancoding.com/sketch -->
    <title>B9F6F6FC-EF51-4962-99E4-1E83D3B0AC45</title>
    <desc>Created with sketchtool.</desc>
    <g id="Pages" stroke="none" stroke-width="1" fill="none" fill-rule="evenodd">
        <g id="All-in-one-Solution" transform="translate(-97.000000, -2258.000000)">
            <g id="section-4" transform="translate(80.000000, 1485.000000)">
                <g id="cols" transform="translate(16.000000, 108.000000)">
                    <g id="7" transform="translate(1.000000, 665.000000)">
                        <g id="discussion">
                            <rect id="bounds" x="0" y="0" width="48" height="48"></rect>
                            <path d="M43.049,37.982 C42.7452374,37.9831077 42.4452488,37.9146952 42.172,37.782 L39.4,36.326 C38.9254967,36.0624294 38.7478902,35.4684567 38.9998204,34.9876718 C39.2517505,34.506887 39.8412191,34.3148599 40.328,34.555 L43.078,35.994 L42.236,30.929 C42.070119,29.5248137 42.4896651,28.1142708 43.396,27.029 C46,23.776 46,19.534 46,17 C46,12.131 46,2 29,2 C21.432,2 16.354,4 13.91,7.956 C13.7250352,8.26645561 13.3869604,8.45296425 13.0256965,8.4438513 C12.6644326,8.43473835 12.3361912,8.23142176 12.1671143,7.91203538 C11.9980374,7.592649 12.0144329,7.20688839 12.21,6.903 C15.043,2.322 20.691,0 29,0 C48,0 48,11.913 48,17 C48,19.8 48,24.479 44.95,28.285 C44.3921454,28.9383301 44.1255343,29.7912686 44.212,30.646 L45.018,35.641 C45.1185557,36.2221329 44.9574936,36.8180205 44.5778699,37.269366 C44.1982461,37.7207114 43.6387683,37.9814942 43.049,37.982 Z" id="Path" fill="#A7DFE3"></path>
                            <path d="M4.943,47.981 C4.3491547,47.9777622 3.78745898,47.7107893 3.40996869,47.252353 C3.0324784,46.7939167 2.87823738,46.1914333 2.989,45.608 L3.789,40.613 C3.86707274,39.7690866 3.60134851,38.9293692 3.052,38.284 C0,34.482 0,29.8 0,27 C0,21.913 0,10 19,10 C38,10 38,21.913 38,27 C38,32.087 38,44 19,44 C17.5175879,44.0039917 16.0362679,43.9191731 14.564,43.746 C14.0360485,43.6853068 13.5016389,43.7732784 13.021,44 L5.855,47.77 C5.57088695,47.9084496 5.2590512,47.9805958 4.943,47.981 Z M19,12 C2,12 2,22.131 2,27 C2,29.535 2,33.778 4.612,37.032 C5.50990758,38.1091914 5.92860542,39.5065367 5.771,40.9 L4.959,45.958 L12.141,42.2 C12.9712004,41.8084919 13.8937861,41.6551315 14.806,41.757 C16.1978649,41.9219994 17.5983928,42.0031458 19,42 C36,42 36,31.869 36,27 C36,22.131 36,12 19,12 Z" id="Shape" fill="#46BBC4" fill-rule="nonzero"></path>
                            <path d="M22,27 C22,28.6568542 20.6568542,30 19,30 C17.3431458,30 16,28.6568542 16,27 C16,25.3431458 17.3431458,24 19,24 C20.6568542,24 22,25.3431458 22,27 Z M27,24 C25.3431458,24 24,25.3431458 24,27 C24,28.6568542 25.3431458,30 27,30 C28.6568542,30 30,28.6568542 30,27 C30,25.3431458 28.6568542,24 27,24 Z M11,24 C9.34314575,24 8,25.3431458 8,27 C8,28.6568542 9.34314575,30 11,30 C12.6568542,30 14,28.6568542 14,27 C14,25.3431458 12.6568542,24 11,24 Z" id="Shape" fill="#1C7F8A" fill-rule="nonzero"></path>
                        </g>
                    </g>
                </g>
            </g>
        </g>
    </g>
</svg>