<?xml version="1.0" encoding="UTF-8"?>
<svg width="36px" height="48px" viewBox="0 0 36 48" version="1.1" xmlns="http://www.w3.org/2000/svg" xmlns:xlink="http://www.w3.org/1999/xlink">
    <!-- Generator: sketchtool 52.6 (67491) - http://www.bohemiancoding.com/sketch -->
    <title>3D74A451-CAF3-483B-81D1-A9D579733BE4</title>
    <desc>Created with sketchtool.</desc>
    <g id="Pages" stroke="none" stroke-width="1" fill="none" fill-rule="evenodd">
        <g id="All-in-one-Solution" transform="translate(-493.000000, -1952.000000)">
            <g id="section-4" transform="translate(80.000000, 1485.000000)">
                <g id="cols" transform="translate(16.000000, 108.000000)">
                    <g id="5" transform="translate(391.000000, 359.000000)">
                        <g id="report">
                            <rect id="bounds" x="0" y="0" width="48" height="48"></rect>
                            <path d="M32,33 C32,33.5522847 31.5522847,34 31,34 L15,34 C14.4477153,34 14,33.5522847 14,33 C14,32.4477153 14.4477153,32 15,32 L31,32 C31.5522847,32 32,32.4477153 32,33 Z M23,38 L15,38 C14.4477153,38 14,38.4477153 14,39 C14,39.5522847 14.4477153,40 15,40 L23,40 C23.5522847,40 24,39.5522847 24,39 C24,38.4477153 23.5522847,38 23,38 Z" id="Shape" fill="#A7DFE3" fill-rule="nonzero"></path>
                            <path d="M25.727,16.656 L33.044,15.323 C33.1904034,15.2969117 33.3175969,15.2070091 33.3910443,15.077703 C33.4644917,14.948397 33.4765701,14.7931077 33.424,14.654 C32.4926736,12.0176787 30.5029897,9.88988771 27.935,8.784 C27.7995929,8.72260916 27.6438887,8.7246614 27.5101467,8.78959973 C27.3764046,8.85453806 27.2784983,8.9756262 27.243,9.12 L25.443,16.35 C25.4230243,16.4316478 25.4454164,16.5178688 25.5025968,16.5794788 C25.5597773,16.6410887 25.6440913,16.6698397 25.727,16.656 Z" id="Path" fill="#F57361"></path>
                            <path d="M22.9,18.016 L18.92,10.036 C18.8537444,9.9025644 18.7314373,9.80562435 18.5863979,9.77158844 C18.4413585,9.73755253 18.2886964,9.76996647 18.17,9.86 C14.8813598,12.2286941 13.3424635,16.344523 14.2703429,20.2897614 C15.1982224,24.2349998 18.4103223,27.2334433 22.41,27.888 C22.5552803,27.9145892 22.7048833,27.875588 22.8186916,27.781455 C22.9324999,27.687322 22.9988685,27.5476891 23,27.4 L23,18.463 C23.0016999,18.3082699 22.9674687,18.1552562 22.9,18.016 Z" id="Path" fill="#1C7F8A"></path>
                            <path d="M25,19.244 L25,27.4 C24.9937557,27.546448 25.0539426,27.6878914 25.1637979,27.7849368 C25.2736533,27.8819821 25.4214408,27.9242616 25.566,27.9 C30.4321606,27.1207912 34.0088633,22.9181444 34,17.99 L34,17.771 C33.9944686,17.6241915 33.9246518,17.4872446 33.8090916,17.3965298 C33.6935313,17.3058151 33.5439231,17.2705133 33.4,17.3 L25.41,18.752 C25.1724521,18.7954686 24.9999195,19.0025077 25,19.244 Z" id="Path" fill="#F4BA67"></path>
                            <path d="M25.3,8.631 L23.849,14.46 C23.8235201,14.5613819 23.7376526,14.6362071 23.6337383,14.6475797 C23.5298241,14.6589522 23.429805,14.6044708 23.383,14.511 L20.7,9.137 C20.6348113,9.00570611 20.6305212,8.85241922 20.6882645,8.71768479 C20.7460078,8.58295037 20.8599674,8.48034188 21,8.437 C21.9696731,8.1258894 22.9816421,7.96667295 24,7.965 C24.291,7.965 24.577,7.982 24.861,8.009 C25.0069125,8.0222932 25.1396518,8.0989172 25.224138,8.21862203 C25.3086242,8.33832686 25.3363544,8.48906507 25.3,8.631 Z M42,5 L42,38.17 C42.0003639,38.9682389 41.6825875,39.7337094 41.117,40.297 L34.297,47.117 C34.0424024,47.3721721 33.7439851,47.5794722 33.416,47.729 C33.0254003,47.9091207 32.6001267,48.001616 32.17,48 L11,48 C8.23994685,47.9966939 6.00330612,45.7600532 6,43 L6,5 C6.00330612,2.23994685 8.23994685,0.00330611633 11,0 L37,0 C39.7600532,0.00330611633 41.9966939,2.23994685 42,5 Z M40,5 C40,3.34314575 38.6568542,2 37,2 L11,2 C9.34314575,2 8,3.34314575 8,5 L8,43 C8,44.6568542 9.34314575,46 11,46 L32,46 L32,42.44 C32.0016547,39.9885414 33.9885414,38.0016547 36.44,38 L40,38 L40,5 Z" id="Shape" fill="#46BBC4" fill-rule="nonzero"></path>
                        </g>
                    </g>
                </g>
            </g>
        </g>
    </g>
</svg>