<?xml version="1.0" encoding="UTF-8"?>
<svg width="44px" height="44px" viewBox="0 0 44 44" version="1.1" xmlns="http://www.w3.org/2000/svg" xmlns:xlink="http://www.w3.org/1999/xlink">
    <!-- Generator: sketchtool 52.6 (67491) - http://www.bohemiancoding.com/sketch -->
    <title>0800BC6E-81B9-4880-8279-87AFFB2E2B93</title>
    <desc>Created with sketchtool.</desc>
    <g id="Pages" stroke="none" stroke-width="1" fill="none" fill-rule="evenodd">
        <g id="All-in-one-Solution" transform="translate(-879.000000, -1596.000000)">
            <g id="section-4" transform="translate(80.000000, 1485.000000)">
                <g id="cols" transform="translate(16.000000, 108.000000)">
                    <g id="3" transform="translate(781.000000, 1.000000)">
                        <g id="in-house-handyman">
                            <rect id="bounds" x="0" y="0" width="48" height="48"></rect>
                            <path d="M39.078,30 C37.9982639,29.8524472 36.8998928,29.9231782 35.848,30.208 L17.79,12.153 C18.0763296,11.1020648 18.1477537,10.0041749 18,8.925 C17.2681832,4.90679937 13.7602662,1.9918232 9.676,2.008 C9.27870091,2.02477342 8.88323957,2.07157358 8.493,2.148 C7.86877758,2.26797357 7.36201113,2.72317836 7.176,3.331 C6.99220348,3.9326534 7.15569559,4.58662183 7.601,5.031 L10.076,7.507 C10.1742573,7.60424368 10.2164362,7.74471431 10.188,7.88 L9.835,9.52 C9.80144628,9.67744789 9.67844789,9.80044628 9.521,9.834 L7.88,10.186 C7.74596392,10.2152054 7.60631131,10.173687 7.51,10.076 L5.031,7.6 C4.58662183,7.15469559 3.9326534,6.99120348 3.331,7.175 C2.7233028,7.36120611 2.26818074,7.86788046 2.148,8.492 C2.07195685,8.88162606 2.02515967,9.27639368 2.008,9.673 C1.9848041,13.7593501 4.90103315,17.2715629 8.922,18 C10.0020971,18.1482946 11.1010092,18.0772105 12.153,17.791 L30.211,35.848 C29.9241208,36.8998548 29.8523564,37.9987687 30,39.079 C30.711233,42.9888521 34.0550488,45.8719403 38.027,46 C38.127,46 38.227,46 38.327,45.993 C38.7239148,45.9762051 39.1190172,45.9297421 39.509,45.854 C40.1329895,45.7333115 40.6392724,45.2778107 40.825,44.67 C41.0101883,44.0683832 40.8465152,43.4136909 40.4,42.97 L37.925,40.494 C37.8255927,40.3970502 37.7835766,40.2554824 37.814,40.12 L38.167,38.479 C38.2009439,38.3228839 38.3228839,38.2009439 38.479,38.167 L40.121,37.814 C40.2560982,37.7856878 40.3963631,37.8274288 40.494,37.925 L42.97,40.4 C43.4136909,40.8465152 44.0683832,41.0101883 44.67,40.825 C45.2782099,40.6393006 45.7338532,40.1324744 45.854,39.508 C45.9296663,39.1176687 45.9761284,38.7222396 45.993,38.325 C46.0167711,34.2385021 43.099493,30.7263777 39.078,30 Z M43.971,38.57 L41.908,36.508 C41.3323679,35.9266395 40.4991005,35.6805841 39.7,35.856 L38.06,36.209 C37.1344781,36.4085231 36.4115231,37.1314781 36.212,38.057 L35.859,39.7 C35.6857354,40.4993279 35.9314641,41.3318658 36.511,41.909 L38.573,43.972 C38.4619073,43.9830549 38.350532,43.9910579 38.239,43.996 C35.1901628,43.9631033 32.5811016,41.7991762 31.985,38.809 C31.8477787,37.8349576 31.9507684,36.8421365 32.285,35.917 C32.4195535,35.5512781 32.3293988,35.1407038 32.054,34.865 L13.137,15.945 C12.8611044,15.6691996 12.4500106,15.5790167 12.084,15.714 C11.1590011,16.047316 10.1667295,16.1502843 9.193,16.014 C6.19457853,15.4324615 4.02354008,12.8152447 4.006,9.761 C4.01133333,9.65033333 4.01933333,9.53933333 4.03,9.428 L6.1,11.492 C6.67579341,12.0709623 7.5072283,12.3160564 8.305,12.142 L9.945,11.79 C10.8696402,11.5892813 11.5912843,10.8660727 11.79,9.941 L12.143,8.3 C12.3149231,7.5014559 12.0688905,6.6702951 11.49,6.094 L9.427,4.03 C9.53909193,4.01891036 9.65146779,4.01090733 9.764,4.006 C12.8180006,4.03081131 15.4323335,6.20238419 16.017,9.2 C16.1540888,10.1727255 16.0510942,11.1642201 15.717,12.088 C15.5820167,12.4540106 15.6721996,12.8651044 15.948,13.141 L34.864,32.056 C35.1397038,32.3313988 35.5502781,32.4215535 35.916,32.287 C36.8406076,31.9519749 37.8333025,31.8489626 38.807,31.987 C41.8081866,32.5632996 43.9832054,35.1810287 44,38.237 C43.992,38.3503333 43.9823333,38.4623333 43.971,38.573 L43.971,38.57 Z" id="Shape" fill="#46BBC4" fill-rule="nonzero"></path>
                            <path d="M21.757,30.223 L17.777,26.243 C17.3991754,25.86502 16.7909265,25.8509259 16.396,26.211 C10.669,31.436 3.3,38.773 3.233,38.843 C1.61603063,40.4818458 1.62466589,43.1184524 3.25233537,44.7466715 C4.88000485,46.3748906 7.51660844,46.384416 9.156,44.768 C9.227,44.697 16.564,37.331 21.789,31.604 C22.1490741,31.2090735 22.13498,30.6008246 21.757,30.223 Z" id="Path" fill="#1C7F8A"></path>
                            <path d="M45.707,3.713 L44.287,2.293 C43.9982673,2.0039681 43.562752,1.91963648 43.187,2.08 L38.453,4.105 C38.0466631,4.29500683 37.729042,4.63411294 37.566,5.052 L35.982,9.184 L27.523,17.643 C27.1326181,18.0334999 27.1326181,18.6665001 27.523,19.057 L28.943,20.477 C29.3334999,20.8673819 29.9665001,20.8673819 30.357,20.477 L38.816,12.018 L42.954,10.432 C43.3797633,10.2617202 43.7226004,9.93251051 43.91,9.514 L45.92,4.814 C46.0808199,4.43797292 45.99646,4.0019157 45.707,3.713 Z" id="Path" fill="#A7DFE3"></path>
                        </g>
                    </g>
                </g>
            </g>
        </g>
    </g>
</svg>