<?xml version="1.0" encoding="UTF-8"?>
<svg width="48px" height="48px" viewBox="0 0 48 48" version="1.1" xmlns="http://www.w3.org/2000/svg" xmlns:xlink="http://www.w3.org/1999/xlink">
    <!-- Generator: sketchtool 52.6 (67491) - http://www.bohemiancoding.com/sketch -->
    <title>25638B20-084A-4824-9013-68D2E5368566</title>
    <desc>Created with sketchtool.</desc>
    <g id="Pages" stroke="none" stroke-width="1" fill="none" fill-rule="evenodd">
        <g id="All-in-one-Solution" transform="translate(-487.000000, -1594.000000)">
            <g id="section-4" transform="translate(80.000000, 1485.000000)">
                <g id="cols" transform="translate(16.000000, 108.000000)">
                    <g id="2" transform="translate(390.000000, 0.000000)">
                        <g id="tenant">
                            <rect id="bounds" x="1" y="1" width="48" height="48"></rect>
                            <path d="M23.0435106,45 C11.1292551,45.0015686 1.36983466,35.5546564 1.00730555,23.6694201 C0.644776444,11.7841839 9.81035006,1.76228875 21.702639,1.0405623 C33.5949279,0.318835852 43.9097146,9.15849509 44.9928289,21 C45.0423561,21.5500756 44.6356997,22.0360705 44.0845363,22.0855 C43.5333729,22.1349295 43.046417,21.7290756 42.9968898,21.179 C42.2024193,12.4757135 35.8394486,5.29430103 27.2816908,3.44242219 C18.723933,1.59054335 9.9521131,5.49682237 5.61714111,13.0901095 C1.28216912,20.6833966 2.38739049,30.2061973 8.34680535,36.6094236 C14.3062202,43.0126499 23.7404998,44.8142513 31.6474911,41.059 C31.972636,40.880772 32.3698391,40.8964144 32.6799016,41.0996577 C32.9899642,41.3029009 33.1621419,41.6604826 33.1274259,42.0290841 C33.0927099,42.3976856 32.8567819,42.7169822 32.5142016,42.859 C29.5564349,44.2676031 26.3207656,44.9990775 23.0435106,45 Z" id="Path" fill="#46BBC4"></path>
                            <path d="M31,30.4545451 C31.0124175,30.7433515 30.7885648,30.9875547 30.5,31 L15.5,31 C15.2120929,30.9870105 14.9887076,30.7437645 15,30.4555459 C15.033,26.8225157 15.455,25.2752252 18.436,24.3804789 C19.868,23.9501199 20.672,23.325599 20.923,22.5919872 C20.9369517,22.5474963 20.9308334,22.4991288 20.9062436,22.4595215 C20.8816537,22.4199141 20.8410351,22.3930016 20.795,22.3858152 C19.9985442,22.2405379 19.2270232,21.981689 18.504,21.6171741 C18.3840105,21.5563584 18.3288852,21.414982 18.376,21.2889003 C18.7315342,20.2518258 19.0165189,19.1918542 19.229,18.1162541 C19.562,16.3037424 18.416,14.9135829 19.583,12.7257581 C19.9604236,11.757362 20.9850679,11.2070629 22,11.4276754 C22.8764958,10.9250434 23.9375136,10.8619109 24.8673402,11.2570633 C25.7971668,11.6522158 26.4886373,12.460111 26.736,13.4403541 C27.292,15.1297632 26.487,16.5659611 26.772,18.1152533 C26.9837734,19.1909181 27.2684309,20.2509149 27.624,21.2878995 C27.6711148,21.4139811 27.6159895,21.5553575 27.496,21.6161733 C26.7729078,21.9805225 26.0014111,22.2393632 25.205,22.3848144 C25.1589649,22.3920008 25.1183463,22.4189133 25.0937564,22.4585206 C25.0691666,22.498128 25.0630483,22.5464955 25.077,22.5909863 C25.328,23.3245982 26.132,23.9491191 27.564,24.3794781 C30.545,25.2742243 30.964,26.8215149 31,30.4545451" id="Path" fill="#1C7F8A"></path>
                            <path d="M30,35 L16,35 C15.4477153,35 15,34.5522847 15,34 C15,33.4477153 15.4477153,33 16,33 L30,33 C30.5522847,33 31,33.4477153 31,34 C31,34.5522847 30.5522847,35 30,35 Z" id="Path" fill="#F4BA67"></path>
                            <path d="M48.5129751,28.9643639 C47.8912747,27.3988692 46.6676446,26.1486078 45.1165261,25.493994 C43.5654076,24.8393803 41.8166239,24.8352031 40.2624002,25.4823992 C37.0230748,26.8863758 35.5033394,30.6271842 36.8448189,33.8947298 C37.1874999,34.7444244 37.7099163,35.5098234 38.3761832,36.1383513 L34.0319866,46.8203107 C33.9889919,46.9254428 33.9889919,47.0432695 34.0319866,47.1484016 L34.676719,48.7338408 C34.7449926,48.9048658 34.9159735,49.0120557 35.0995434,48.9989142 L37.7554409,48.806861 C37.9892195,48.7866949 38.1631414,48.5818606 38.1452791,48.3477338 L37.9723508,45.8560435 L39.8235823,44.2195902 C39.924383,44.1302397 39.9776365,43.9988641 39.9675226,43.8644918 L39.7915956,41.334791 L42.7493677,37.8608285 C43.5570115,37.8529113 44.3553209,37.6870905 45.0993922,37.3726933 C48.3349829,35.9672369 49.8523294,32.2297126 48.5129751,28.9643639 Z M42.7153819,31.5650844 C41.8872985,31.5650844 41.2160043,30.8933254 41.2160043,30.0646687 C41.2160043,29.236012 41.8872985,28.564253 42.7153819,28.564253 C43.5434652,28.564253 44.2147594,29.236012 44.2147594,30.0646687 C44.2147616,30.4634717 44.0561061,30.8458682 43.7738363,31.127395 C43.4915666,31.4089217 43.1089088,31.5664137 42.7103839,31.5650844 L42.7153819,31.5650844 Z" id="Shape" fill="#F57361" fill-rule="nonzero"></path>
                        </g>
                    </g>
                </g>
            </g>
        </g>
    </g>
</svg>