<?xml version="1.0" encoding="utf-8"?>
<!-- Generator: Adobe Illustrator 21.0.0, SVG Export Plug-In . SVG Version: 6.00 Build 0)  -->
<svg version="1.1" id="Слой_1" xmlns="http://www.w3.org/2000/svg" xmlns:xlink="http://www.w3.org/1999/xlink" x="0px" y="0px"
	 viewBox="0 0 242 134" style="enable-background:new 0 0 242 134;" xml:space="preserve">
<style type="text/css">
	.st0{fill:#FFFFFF;}
	.st1{fill:#D3EFF1;}
	.st2{fill:#FFFFFF;stroke:#000000;stroke-opacity:0.12;}
	.st3{fill:#AAAAAA;}
	.st4{enable-background:new    ;}
	.st5{fill:#46BBC4;}
	.st6{fill:#525252;}
	.st7{fill:#E9E9E9;}
	.st8{fill:#A7DFE3;}
	.st9{fill:#FADEB6;}
	.st10{fill:#FBBCB4;}
	.st11{fill:#B9CBEF;}
	.st12{fill:#D8D8D8;}
	.st13{fill:#D2CAF4;}
	.st14{fill:#D4E7C2;}
</style>
<g>
	<rect id="path-1" class="st0" width="242" height="134"/>
</g>
<title>3BF5049E-F767-4473-9696-31DA8D325389</title>
<desc>Created with sketchtool.</desc>
<g id="Pricing">
	<g id="Pricing---Core-Features" transform="translate(-373.000000, -2331.000000)">
		<g id="section-3" transform="translate(81.000000, 1194.000000)">
			<g id="list" transform="translate(0.000000, 109.000000)">
				<g id="item" transform="translate(292.000000, 1028.000000)">
					<g id="image">
						<g id="file-management">
							<g id="mask">
								<rect id="path-1_1_" class="st1" width="242" height="134"/>
							</g>
							<g id="design">
								<g transform="translate(39.000000, 27.000000)">
									<g id="box">
										<g>
											<path id="path-3_1_" d="M2,0h160c1.1,0,2,0.9,2,2v106l0,0H0V2C0,0.9,0.9,0,2,0z"/>
										</g>
										<path class="st2" d="M2-0.5h160c1.4,0,2.5,1.1,2.5,2.5v106.5h-165V2C-0.5,0.6,0.6-0.5,2-0.5z"/>
									</g>
									<g id="icon-_x2F_-16x16-_x2F_-maintenance-icon-_x2F_-16x16-_x2F_-files" transform="translate(8.000000, 9.000000)">
										<g id="icon-_x2F_-16x16-_x2F_-files" transform="translate(0.000000, 1.000000)">
											<path id="Color" class="st3" d="M2,12V2h3.6L7,3.4C7.4,3.8,7.9,4,8.4,4H14v8H2z M14,2H8.4L7,0.6C6.6,0.2,6.1,0,5.6,0H2
												C0.9,0,0,0.9,0,2v10c0,1.1,0.9,2,2,2h12c1.1,0,2-0.9,2-2V4C16,2.9,15.1,2,14,2L14,2z"/>
										</g>
									</g>
									<g class="st4">
										<g class="st4">
											<path class="st5" d="M30.8,21v-7.2h4.8v0.8h-3.9v2.2h3.4v0.8h-3.4V21H30.8z"/>
											<path class="st5" d="M36.8,14.9v-1h0.9v1H36.8z M36.8,21v-5.2h0.9V21H36.8z"/>
											<path class="st5" d="M39,21v-7.2h0.9V21H39z"/>
											<path class="st5" d="M44.8,19.3l0.9,0.1c-0.1,0.5-0.4,0.9-0.8,1.2s-0.9,0.4-1.5,0.4c-0.8,0-1.4-0.2-1.8-0.7
												c-0.4-0.5-0.7-1.1-0.7-2c0-0.9,0.2-1.5,0.7-2s1-0.7,1.7-0.7c0.7,0,1.3,0.2,1.7,0.7s0.7,1.1,0.7,2c0,0.1,0,0.1,0,0.2h-3.9
												c0,0.6,0.2,1,0.5,1.3s0.7,0.5,1.1,0.5c0.3,0,0.6-0.1,0.8-0.3S44.6,19.7,44.8,19.3z M41.9,17.9h2.9c0-0.4-0.1-0.8-0.3-1
												c-0.3-0.3-0.6-0.5-1.1-0.5c-0.4,0-0.7,0.1-1,0.4S41.9,17.5,41.9,17.9z"/>
											<path class="st5" d="M46.4,19.5l0.9-0.1c0,0.3,0.2,0.6,0.4,0.8s0.5,0.3,0.9,0.3c0.4,0,0.7-0.1,0.9-0.2
												c0.2-0.2,0.3-0.4,0.3-0.6c0-0.2-0.1-0.4-0.3-0.5c-0.1-0.1-0.4-0.2-0.9-0.3c-0.6-0.2-1.1-0.3-1.3-0.4
												c-0.2-0.1-0.4-0.3-0.6-0.5c-0.1-0.2-0.2-0.4-0.2-0.7c0-0.2,0.1-0.4,0.2-0.6c0.1-0.2,0.3-0.4,0.4-0.5
												c0.1-0.1,0.3-0.2,0.6-0.3c0.2-0.1,0.5-0.1,0.8-0.1c0.4,0,0.8,0.1,1.1,0.2s0.5,0.3,0.7,0.5c0.1,0.2,0.2,0.5,0.3,0.8
												l-0.9,0.1c0-0.3-0.2-0.5-0.3-0.6s-0.5-0.2-0.8-0.2c-0.4,0-0.7,0.1-0.9,0.2s-0.3,0.3-0.3,0.5c0,0.1,0,0.2,0.1,0.3
												c0.1,0.1,0.2,0.2,0.3,0.2c0.1,0,0.3,0.1,0.8,0.2c0.6,0.2,1.1,0.3,1.3,0.4c0.2,0.1,0.4,0.3,0.6,0.5s0.2,0.5,0.2,0.8
												c0,0.3-0.1,0.6-0.3,0.8c-0.2,0.3-0.4,0.5-0.7,0.6c-0.3,0.1-0.7,0.2-1.1,0.2c-0.7,0-1.2-0.1-1.5-0.4S46.5,20,46.4,19.5z"
												/>
										</g>
									</g>
									<g id="icon-_x2F_-16x16-_x2F_-chevron-right" transform="translate(56.000000, 13.000000)">
										<g id="Color_1_">
											<path class="st3" d="M0.3,7.7c-0.4-0.4-0.4-1,0-1.4L2.6,4L0.3,1.7c-0.4-0.4-0.4-1,0-1.4s1-0.4,1.4,0l3,3
												c0.4,0.4,0.4,1,0,1.4l-3,3C1.5,7.9,1.3,8,1,8S0.5,7.9,0.3,7.7z"/>
										</g>
									</g>
									<g class="st4">
										<g class="st4">
											<path class="st6" d="M66.7,21v-7.2h0.9v6.3h3.5V21H66.7z"/>
											<path class="st6" d="M75.8,19.3l0.9,0.1c-0.1,0.5-0.4,0.9-0.8,1.2s-0.9,0.4-1.5,0.4c-0.8,0-1.4-0.2-1.8-0.7
												c-0.4-0.5-0.7-1.1-0.7-2c0-0.9,0.2-1.5,0.7-2s1-0.7,1.7-0.7c0.7,0,1.3,0.2,1.7,0.7s0.7,1.1,0.7,2c0,0.1,0,0.1,0,0.2h-3.9
												c0,0.6,0.2,1,0.5,1.3s0.7,0.5,1.1,0.5c0.3,0,0.6-0.1,0.8-0.3S75.6,19.7,75.8,19.3z M72.9,17.9h2.9c0-0.4-0.1-0.8-0.3-1
												c-0.3-0.3-0.6-0.5-1.1-0.5c-0.4,0-0.7,0.1-1,0.4S72.9,17.5,72.9,17.9z"/>
											<path class="st6" d="M81.2,20.4c-0.3,0.3-0.6,0.5-0.9,0.6s-0.6,0.2-1,0.2c-0.6,0-1-0.1-1.3-0.4c-0.3-0.3-0.5-0.6-0.5-1.1
												c0-0.3,0.1-0.5,0.2-0.7c0.1-0.2,0.3-0.4,0.5-0.5s0.4-0.2,0.6-0.3c0.2,0,0.4-0.1,0.8-0.1c0.7-0.1,1.2-0.2,1.6-0.3
												c0-0.1,0-0.2,0-0.2c0-0.4-0.1-0.6-0.2-0.8c-0.2-0.2-0.6-0.3-1-0.3c-0.4,0-0.7,0.1-0.9,0.2c-0.2,0.1-0.3,0.4-0.4,0.8
												l-0.9-0.1c0.1-0.4,0.2-0.7,0.4-0.9c0.2-0.2,0.4-0.4,0.8-0.5c0.3-0.1,0.7-0.2,1.2-0.2c0.4,0,0.8,0.1,1.1,0.2
												s0.5,0.2,0.6,0.4c0.1,0.2,0.2,0.4,0.3,0.6c0,0.1,0,0.4,0,0.8v1.2c0,0.8,0,1.3,0.1,1.5c0,0.2,0.1,0.4,0.2,0.6h-0.9
												C81.3,20.8,81.2,20.6,81.2,20.4z M81.1,18.4c-0.3,0.1-0.8,0.2-1.4,0.3c-0.4,0.1-0.6,0.1-0.8,0.2s-0.3,0.2-0.3,0.3
												c-0.1,0.1-0.1,0.3-0.1,0.4c0,0.2,0.1,0.4,0.3,0.6s0.4,0.2,0.8,0.2c0.3,0,0.6-0.1,0.9-0.2c0.3-0.1,0.5-0.4,0.6-0.6
												c0.1-0.2,0.1-0.5,0.1-0.9V18.4z"/>
											<path class="st6" d="M83,19.5l0.9-0.1c0,0.3,0.2,0.6,0.4,0.8c0.2,0.2,0.5,0.3,0.9,0.3c0.4,0,0.7-0.1,0.9-0.2
												c0.2-0.2,0.3-0.4,0.3-0.6c0-0.2-0.1-0.4-0.3-0.5c-0.1-0.1-0.4-0.2-0.9-0.3c-0.6-0.2-1.1-0.3-1.3-0.4
												c-0.3-0.1-0.4-0.3-0.6-0.5c-0.1-0.2-0.2-0.4-0.2-0.7c0-0.2,0.1-0.4,0.2-0.6c0.1-0.2,0.3-0.4,0.4-0.5
												c0.1-0.1,0.3-0.2,0.6-0.3c0.2-0.1,0.5-0.1,0.8-0.1c0.4,0,0.8,0.1,1.1,0.2c0.3,0.1,0.5,0.3,0.7,0.5
												c0.1,0.2,0.2,0.5,0.3,0.8l-0.9,0.1c0-0.3-0.2-0.5-0.3-0.6c-0.2-0.1-0.5-0.2-0.8-0.2c-0.4,0-0.7,0.1-0.9,0.2
												S84,16.9,84,17.1c0,0.1,0,0.2,0.1,0.3c0.1,0.1,0.2,0.2,0.3,0.2c0.1,0,0.3,0.1,0.8,0.2c0.6,0.2,1.1,0.3,1.3,0.4
												c0.2,0.1,0.4,0.3,0.6,0.5s0.2,0.5,0.2,0.8c0,0.3-0.1,0.6-0.3,0.8c-0.2,0.3-0.4,0.5-0.7,0.6c-0.3,0.1-0.7,0.2-1.1,0.2
												c-0.7,0-1.2-0.1-1.5-0.4C83.3,20.4,83.1,20,83,19.5z"/>
											<path class="st6" d="M91.9,19.3l0.9,0.1c-0.1,0.5-0.4,0.9-0.8,1.2s-0.9,0.4-1.5,0.4c-0.8,0-1.4-0.2-1.8-0.7
												c-0.4-0.5-0.7-1.1-0.7-2c0-0.9,0.2-1.5,0.7-2s1-0.7,1.7-0.7c0.7,0,1.3,0.2,1.7,0.7s0.7,1.1,0.7,2c0,0.1,0,0.1,0,0.2H89
												c0,0.6,0.2,1,0.5,1.3s0.7,0.5,1.1,0.5c0.3,0,0.6-0.1,0.8-0.3S91.8,19.7,91.9,19.3z M89,17.9h2.9c0-0.4-0.1-0.8-0.3-1
												c-0.3-0.3-0.6-0.5-1.1-0.5c-0.4,0-0.7,0.1-1,0.4C89.2,17.1,89,17.5,89,17.9z"/>
											<path class="st6" d="M96.8,21v-7.2h2.5c0.6,0,1,0,1.3,0.1c0.4,0.1,0.8,0.3,1,0.5c0.4,0.3,0.7,0.7,0.8,1.2
												c0.2,0.5,0.3,1.1,0.3,1.7c0,0.5-0.1,1-0.2,1.4s-0.3,0.8-0.5,1c-0.2,0.3-0.4,0.5-0.7,0.7c-0.2,0.2-0.5,0.3-0.9,0.4
												c-0.3,0.1-0.7,0.1-1.2,0.1H96.8z M97.7,20.2h1.5c0.5,0,0.8,0,1.1-0.1c0.3-0.1,0.5-0.2,0.6-0.4c0.2-0.2,0.4-0.5,0.5-0.9
												c0.1-0.4,0.2-0.8,0.2-1.4c0-0.7-0.1-1.3-0.4-1.7c-0.2-0.4-0.5-0.7-0.9-0.8c-0.3-0.1-0.7-0.1-1.2-0.1h-1.5V20.2z"/>
											<path class="st6" d="M103.6,18.4c0-1,0.3-1.7,0.8-2.1c0.4-0.4,1-0.6,1.6-0.6c0.7,0,1.3,0.2,1.7,0.7
												c0.5,0.5,0.7,1.1,0.7,1.9c0,0.7-0.1,1.2-0.3,1.6c-0.2,0.4-0.5,0.7-0.9,0.9c-0.4,0.2-0.8,0.3-1.3,0.3
												c-0.7,0-1.3-0.2-1.8-0.7C103.8,20,103.6,19.3,103.6,18.4z M104.5,18.4c0,0.7,0.1,1.2,0.4,1.5c0.3,0.3,0.7,0.5,1.1,0.5
												c0.4,0,0.8-0.2,1.1-0.5s0.4-0.8,0.4-1.5c0-0.6-0.1-1.1-0.4-1.5c-0.3-0.3-0.7-0.5-1.1-0.5c-0.4,0-0.8,0.2-1.1,0.5
												S104.5,17.7,104.5,18.4z"/>
											<path class="st6" d="M112.9,19.1l0.9,0.1c-0.1,0.6-0.3,1.1-0.7,1.4c-0.4,0.3-0.9,0.5-1.4,0.5c-0.7,0-1.3-0.2-1.7-0.7
												c-0.4-0.5-0.6-1.1-0.6-2c0-0.6,0.1-1,0.3-1.5s0.5-0.7,0.8-0.9c0.4-0.2,0.8-0.3,1.2-0.3c0.6,0,1,0.1,1.4,0.4
												c0.4,0.3,0.6,0.7,0.7,1.2l-0.9,0.1c-0.1-0.3-0.2-0.6-0.4-0.8c-0.2-0.2-0.5-0.3-0.8-0.3c-0.4,0-0.8,0.2-1.1,0.5
												c-0.3,0.3-0.4,0.8-0.4,1.5c0,0.7,0.1,1.2,0.4,1.5s0.6,0.5,1,0.5c0.3,0,0.6-0.1,0.9-0.3S112.8,19.5,112.9,19.1z"/>
											<path class="st6" d="M117.9,21v-0.8c-0.4,0.6-1,0.9-1.6,0.9c-0.3,0-0.6-0.1-0.9-0.2c-0.3-0.1-0.5-0.3-0.6-0.4
												c-0.1-0.2-0.2-0.4-0.3-0.7c0-0.2-0.1-0.4-0.1-0.8v-3.2h0.9v2.9c0,0.5,0,0.8,0.1,0.9c0.1,0.2,0.2,0.4,0.4,0.5
												c0.2,0.1,0.4,0.2,0.7,0.2s0.5-0.1,0.7-0.2c0.2-0.1,0.4-0.3,0.5-0.6c0.1-0.2,0.1-0.6,0.1-1v-2.8h0.9V21H117.9z"/>
											<path class="st6" d="M120,21v-5.2h0.8v0.7c0.2-0.3,0.4-0.5,0.6-0.6c0.3-0.2,0.6-0.2,0.9-0.2c0.4,0,0.7,0.1,0.9,0.2
												c0.2,0.2,0.4,0.4,0.5,0.7c0.4-0.6,0.9-0.9,1.6-0.9c0.5,0,0.9,0.1,1.2,0.4c0.3,0.3,0.4,0.7,0.4,1.3V21h-0.9v-3.3
												c0-0.4,0-0.6-0.1-0.8c-0.1-0.2-0.2-0.3-0.3-0.4s-0.3-0.1-0.5-0.1c-0.4,0-0.7,0.1-0.9,0.4c-0.2,0.2-0.4,0.6-0.4,1.2v3
												h-0.9v-3.4c0-0.4-0.1-0.7-0.2-0.9s-0.4-0.3-0.7-0.3c-0.2,0-0.5,0.1-0.7,0.2c-0.2,0.1-0.4,0.3-0.5,0.6s-0.1,0.6-0.1,1.1
												V21H120z"/>
											<path class="st6" d="M131.9,19.3l0.9,0.1c-0.1,0.5-0.4,0.9-0.8,1.2s-0.9,0.4-1.5,0.4c-0.8,0-1.4-0.2-1.8-0.7
												c-0.4-0.5-0.7-1.1-0.7-2c0-0.9,0.2-1.5,0.7-2s1-0.7,1.7-0.7c0.7,0,1.3,0.2,1.7,0.7s0.7,1.1,0.7,2c0,0.1,0,0.1,0,0.2H129
												c0,0.6,0.2,1,0.5,1.3s0.7,0.5,1.1,0.5c0.3,0,0.6-0.1,0.8-0.3S131.8,19.7,131.9,19.3z M129,17.9h2.9c0-0.4-0.2-0.8-0.3-1
												c-0.3-0.3-0.6-0.5-1.1-0.5c-0.4,0-0.7,0.1-1,0.4C129.2,17.1,129.1,17.5,129,17.9z"/>
											<path class="st6" d="M133.9,21v-5.2h0.8v0.7c0.4-0.6,0.9-0.9,1.7-0.9c0.3,0,0.6,0.1,0.9,0.2c0.3,0.1,0.5,0.3,0.6,0.4
												s0.2,0.4,0.3,0.6c0,0.2,0,0.4,0,0.9V21h-0.9v-3.2c0-0.4,0-0.6-0.1-0.8c-0.1-0.2-0.2-0.3-0.4-0.4
												c-0.2-0.1-0.4-0.2-0.6-0.2c-0.4,0-0.7,0.1-1,0.4c-0.3,0.2-0.4,0.7-0.4,1.4V21H133.9z"/>
											<path class="st6" d="M141.4,20.2l0.1,0.8c-0.2,0.1-0.5,0.1-0.7,0.1c-0.3,0-0.6-0.1-0.7-0.2s-0.3-0.2-0.4-0.4
												c-0.1-0.2-0.1-0.5-0.1-1v-3H139v-0.7h0.6v-1.3l0.9-0.5v1.8h0.9v0.7h-0.9v3c0,0.3,0,0.4,0,0.5c0,0.1,0.1,0.1,0.2,0.2
												c0.1,0,0.2,0.1,0.3,0.1C141.1,20.2,141.2,20.2,141.4,20.2z"/>
											<path class="st6" d="M141.9,19.5l0.9-0.1c0,0.3,0.2,0.6,0.4,0.8c0.2,0.2,0.5,0.3,0.9,0.3c0.4,0,0.7-0.1,0.9-0.2
												c0.2-0.2,0.3-0.4,0.3-0.6c0-0.2-0.1-0.4-0.3-0.5c-0.1-0.1-0.4-0.2-0.9-0.3c-0.6-0.2-1.1-0.3-1.3-0.4
												c-0.3-0.1-0.4-0.3-0.6-0.5c-0.1-0.2-0.2-0.4-0.2-0.7c0-0.2,0.1-0.4,0.2-0.6c0.1-0.2,0.3-0.4,0.4-0.5
												c0.1-0.1,0.3-0.2,0.6-0.3c0.2-0.1,0.5-0.1,0.8-0.1c0.4,0,0.8,0.1,1.1,0.2c0.3,0.1,0.5,0.3,0.7,0.5
												c0.1,0.2,0.2,0.5,0.3,0.8l-0.9,0.1c0-0.3-0.2-0.5-0.3-0.6c-0.2-0.1-0.5-0.2-0.8-0.2c-0.4,0-0.7,0.1-0.9,0.2
												s-0.3,0.3-0.3,0.5c0,0.1,0,0.2,0.1,0.3c0.1,0.1,0.2,0.2,0.3,0.2c0.1,0,0.3,0.1,0.8,0.2c0.6,0.2,1.1,0.3,1.3,0.4
												c0.2,0.1,0.4,0.3,0.6,0.5s0.2,0.5,0.2,0.8c0,0.3-0.1,0.6-0.3,0.8c-0.2,0.3-0.4,0.5-0.7,0.6c-0.3,0.1-0.7,0.2-1.1,0.2
												c-0.7,0-1.2-0.1-1.5-0.4C142.2,20.4,142,20,141.9,19.5z"/>
										</g>
									</g>
									<rect id="Rectangle" x="8" y="34" class="st7" width="148" height="1"/>
									<g id="grid" transform="translate(8.000000, 43.000000)">
										<rect id="Rectangle_1_" class="st8" width="27" height="27"/>
										<rect id="Rectangle_2_" x="40" class="st9" width="27" height="27"/>
										<rect id="Rectangle_3_" x="81" class="st10" width="27" height="27"/>
										<rect id="Rectangle_4_" x="121" class="st11" width="27" height="27"/>
										<path id="Rectangle_5_" class="st12" d="M1,31h22c0.6,0,1,0.4,1,1c0,0.6-0.4,1-1,1H1c-0.6,0-1-0.4-1-1S0.4,31,1,31z"/>
										<path id="Rectangle_6_" class="st12" d="M41,31h14c0.6,0,1,0.4,1,1c0,0.6-0.4,1-1,1H41c-0.6,0-1-0.4-1-1S40.4,31,41,31z"
											/>
										<path id="Rectangle_7_" class="st12" d="M82,31h16c0.6,0,1,0.4,1,1c0,0.6-0.4,1-1,1H82c-0.6,0-1-0.4-1-1S81.4,31,82,31z"
											/>
										<path id="Rectangle_8_" class="st12" d="M122,31h12c0.6,0,1,0.4,1,1c0,0.6-0.4,1-1,1h-12c-0.6,0-1-0.4-1-1
											S121.4,31,122,31z"/>
									</g>
									<g id="grid_1_" transform="translate(8.000000, 89.000000)">
										<rect id="Rectangle_9_" class="st12" width="27" height="27"/>
										<rect id="Rectangle_10_" x="40" class="st13" width="27" height="27"/>
										<rect id="Rectangle_11_" x="81" class="st14" width="27" height="27"/>
										<rect id="Rectangle_12_" x="121" class="st9" width="27" height="27"/>
									</g>
								</g>
							</g>
						</g>
					</g>
				</g>
			</g>
		</g>
	</g>
</g>
</svg>
