<svg width="330" height="330" xmlns="http://www.w3.org/2000/svg"><g fill="none" fill-rule="evenodd"><path d="M169.85 62.291c41.84 1.945 77.136 28.92 91.27 66.291a2.482 2.482 0 0 0 3.09 1.476l54.541-17.72a2.497 2.497 0 0 0 1.568-3.23C297.981 46.946 239.388 2.082 170.04 0c-1.398-.04-2.548 1.094-2.548 2.492v57.315a2.483 2.483 0 0 0 2.358 2.484" fill="#F57361"/><path d="M265.749 134.796a2.48 2.48 0 0 0-1.636 3.006 102.806 102.806 0 0 1 3.623 27.111c0 32.428-15.028 61.34-38.496 80.169a2.484 2.484 0 0 0-.448 3.396l33.701 46.385c.822 1.131 2.421 1.373 3.527.516C304.944 265.196 330 217.98 330 164.913c0-16.032-2.29-31.527-6.555-46.183-.391-1.343-1.827-2.087-3.157-1.655l-54.54 17.721z" fill="#F4BA67"/><path d="M224.767 251.413a2.481 2.481 0 0 0-3.365-.626c-16.19 10.656-35.57 16.862-56.402 16.862s-40.212-6.206-56.402-16.862a2.48 2.48 0 0 0-3.365.626l-33.698 46.381c-.821 1.131-.559 2.725.596 3.513 26.454 18.048 58.428 28.606 92.87 28.606 34.44 0 66.413-10.558 92.868-28.606 1.155-.788 1.417-2.382.596-3.513l-33.698-46.38z" fill="#46BBC4"/><path d="M67.508 294.862l33.7-46.384a2.483 2.483 0 0 0-.448-3.396c-23.468-18.828-38.496-47.741-38.496-80.17 0-9.384 1.264-18.472 3.623-27.11a2.48 2.48 0 0 0-1.636-3.006l-54.539-17.72c-1.33-.433-2.766.311-3.157 1.654C2.29 133.385 0 148.881 0 164.913c0 53.068 25.055 100.283 63.98 130.466 1.106.857 2.705.615 3.528-.517" fill="#1C7F8A"/><path d="M68.881 128.582c14.133-37.372 49.429-64.346 91.27-66.29a2.483 2.483 0 0 0 2.358-2.485V2.492c0-1.397-1.15-2.533-2.547-2.492C90.612 2.082 32.02 46.946 9.681 109.11a2.498 2.498 0 0 0 1.568 3.229l54.54 17.72a2.483 2.483 0 0 0 3.092-1.476" fill="#46BBC4"/><g fill="#46BBC4" fill-rule="nonzero"><path d="M205.31 161.044l-.835-.835v8.016a8.545 8.545 0 0 1 4.315 3.256 10.477 10.477 0 0 1 .154 10.234 18.615 18.615 0 0 1 1.228 6.52 9.745 9.745 0 0 1-2.28 7.002 2.848 2.848 0 0 1-1.993.823h-80.67a8.17 8.17 0 0 0 0 5.697h82.094a2.848 2.848 0 1 1 0 5.697h-84.03a2.85 2.85 0 0 1-2.55-1.575 17.356 17.356 0 0 1-1.723-6.97 17.339 17.339 0 0 1 1.723-6.97 2.848 2.848 0 0 1 2.55-1.576h80.92c.185-.693.273-1.41.262-2.127a12.781 12.781 0 0 0-.542-3.57h-81.88c-1.43.001-2.639-1.06-2.825-2.478-1.088-8.323 2.319-11.84 4.446-13.188a8.591 8.591 0 0 1 1.043-.57v-8.16l-.917.854a2.848 2.848 0 1 1-3.863-4.188l5.589-5.17.046-.042 31.396-28.97a2.848 2.848 0 0 1 3.862 0l17.245 15.92 4.446-4.446a2.848 2.848 0 0 1 4.028 0l17.091 17.091 5.697 5.697a2.848 2.848 0 0 1-4.028 4.028zm-80.593 17.926h14.217a5.438 5.438 0 0 0-.838-4.011c-.894-.886-2.968-.576-4.127-.316a2.848 2.848 0 0 1-2.145-.376 4.862 4.862 0 0 0-5.09-.473 5.982 5.982 0 0 0-2.017 5.176zm39.879 0v-11.394h-5.697v11.394h5.697zm20.03 0a10.38 10.38 0 0 1 2.903-6.233 8.44 8.44 0 0 1 6.714-2.333 8.793 8.793 0 0 1 4.535-2.544v-13.348l-14.243-14.242-15.077 15.077a2.848 2.848 0 0 1-4.028-4.028l8.614-8.614-15.145-13.98-28.485 26.294v12.713c1.194.2 2.35.583 3.427 1.137a9.115 9.115 0 0 1 8.235 2.022 10.343 10.343 0 0 1 2.563 8.079h8.563v-14.243a2.848 2.848 0 0 1 2.848-2.848h11.394a2.848 2.848 0 0 1 2.849 2.848v14.243h14.333zm19.285 0h-.006a5.102 5.102 0 0 0 .12-4.376 3.56 3.56 0 0 0-3.205-1.321 3.213 3.213 0 0 0-2.729 1.464 2.848 2.848 0 0 1-3.227 1.495c-2.22-.544-3.074.285-3.359.57a4.44 4.44 0 0 0-1.113 2.168h13.519zm-13.679-16.656a2.814 2.814 0 0 1 1.424 2.413 2.848 2.848 0 0 1-2.848 2.849h-8.546a2.848 2.848 0 0 1-2.848-2.849c.012-1 .554-1.919 1.424-2.413v-6.132a2.848 2.848 0 0 1 2.849-2.849h5.697a2.848 2.848 0 0 1 2.848 2.849v6.132zm-4.273.285v-4.993h-2.848v4.993h2.848z"/></g></g></svg>