<svg width="46" height="48" xmlns="http://www.w3.org/2000/svg"><g fill="none" fill-rule="evenodd"><path d="M-1 0h48v48H-1z"/><path d="M40.843 39.135l-17-16A.502.502 0 0 0 23 23.5v23a.501.501 0 0 0 .847.36l6.669-6.44a1.5 1.5 0 0 1 1.042-.42H40.5a.5.5 0 0 0 .343-.864" stroke="#1C7F8A" stroke-width="2" fill="#1C7F8A" stroke-linecap="round" stroke-linejoin="round"/><path d="M41.76 34.51C43.81 31.17 45 27.22 45 23c0-12.15-9.85-22-22-22S1 10.85 1 23c0 10.78 7.76 19.76 18 21.63" stroke="#A7DFE3" stroke-width="2" stroke-linecap="round" stroke-linejoin="round"/><path d="M19 36.42C13.22 34.69 9 29.33 9 23c0-7.72 6.28-14 14-14s14 6.28 14 14c0 2.08-.46 4.05-1.27 5.83" stroke="#F4BA67" stroke-width="2" stroke-linecap="round" stroke-linejoin="round"/><path d="M19 27.46c-1.23-1.09-2-2.69-2-4.46 0-3.31 2.69-6 6-6 3.13 0 5.71 2.41 5.97 5.47" stroke="#F57361" stroke-width="2" stroke-linecap="round" stroke-linejoin="round"/></g></svg>