<svg width="42" height="48" xmlns="http://www.w3.org/2000/svg"><g fill="none" fill-rule="evenodd"><path d="M-6 0h48v48H-6z"/><path d="M35 8a1 1 0 0 0 1-1V5a5.006 5.006 0 0 0-5-5H5a5.006 5.006 0 0 0-5 5v38a5.006 5.006 0 0 0 5 5h21.17a3 3 0 0 0 2.127-.883l6.82-6.82A3.013 3.013 0 0 0 36 38.17V33a1 1 0 0 0-2 0v5h-3.56A4.445 4.445 0 0 0 26 42.44V46H5a3 3 0 0 1-3-3V5a3 3 0 0 1 3-3h26a3 3 0 0 1 3 3v2a1 1 0 0 0 1 1z" fill="#46BBC4"/><path d="M24 27a1 1 0 0 1-1 1h-5a1 1 0 0 1 0-2h5a1 1 0 0 1 1 1zm-3 5h-3a1 1 0 0 0 0 2h3a1 1 0 0 0 0-2zm-1 6h-2a1 1 0 0 0 0 2h2a1 1 0 0 0 0-2zm3-18h-5a1 1 0 0 0 0 2h5a1 1 0 0 0 0-2zm5-12H18a1 1 0 0 0 0 2h10a1 1 0 0 0 0-2zm-5 6h-5a1 1 0 0 0 0 2h5a1 1 0 0 0 0-2z" fill="#A7DFE3" fill-rule="nonzero"/><path d="M41.519 13.971a6.284 6.284 0 0 0-8.254-3.481 6.481 6.481 0 0 0-3.419 8.4c.343.85.865 1.615 1.532 2.243l-4.346 10.689a.433.433 0 0 0 0 .328l.645 1.585c.068.171.24.278.423.265l2.657-.192a.428.428 0 0 0 .39-.459l-.173-2.491 1.852-1.636c.1-.09.154-.22.144-.355l-.176-2.529 2.959-3.473a6.191 6.191 0 0 0 2.351-.488 6.481 6.481 0 0 0 3.415-8.406zm-5.8 2.6a1.5 1.5 0 1 1 1.059-.438 1.5 1.5 0 0 1-1.064.438h.005zm-21.012 5.136L12.414 24l2.293 2.293a1 1 0 1 1-1.414 1.414L11 25.414l-2.293 2.293a1 1 0 0 1-1.414-1.414L9.586 24l-2.293-2.293a1 1 0 0 1 1.414-1.414L11 22.586l2.293-2.293a1 1 0 0 1 1.414 1.414z" fill="#F57361" fill-rule="nonzero"/><path d="M7.293 13.707a1 1 0 0 1 1.414-1.414l1.138 1.138 3.323-4.986a1 1 0 0 1 1.664 1.11l-4 6A1 1 0 0 1 10.1 16c-.034 0-.067.005-.1.005a1 1 0 0 1-.707-.293l-2-2.005zm5.875 18.738l-3.323 4.986-1.138-1.138a1 1 0 0 0-1.414 1.414l2 2A1 1 0 0 0 10 40c.032 0 .065 0 .1-.005a1 1 0 0 0 .733-.44l4-6a1 1 0 0 0-1.664-1.11h-.001z" fill="#F4BA67" fill-rule="nonzero"/></g></svg>