<svg width="48" height="48" xmlns="http://www.w3.org/2000/svg"><g fill="none" fill-rule="evenodd"><path d="M0 0h48v48H0z"/><path d="M37 17h-4a1 1 0 0 0-1 1v4a1 1 0 0 0 1 1h4a1 1 0 0 0 1-1v-4a1 1 0 0 0-1-1zm-1 4h-2v-2h2v2z" fill="#F4BA67" fill-rule="nonzero"/><path d="M47.941 15.338A1 1 0 0 1 47 16h-5v13a3.003 3.003 0 0 1-3 3h-6.11a1 1 0 0 1 0-2H39a1 1 0 0 0 1-1V15a1 1 0 0 1 1-1h3.213L30.02 2.312 16.66 14H20a1 1 0 0 1 1 1v1a1 1 0 0 1-2 0h-5a1 1 0 0 1-.658-1.753l16-14A1 1 0 0 1 30.636.23l17 14a.999.999 0 0 1 .305 1.109v-.001zM30 33c0 8.284-6.716 15-15 15-8.284 0-15-6.716-15-15 0-8.284 6.716-15 15-15 8.28.009 14.991 6.72 15 15zm-2 0c0-7.18-5.82-13-13-13S2 25.82 2 33s5.82 13 13 13c7.176-.008 12.992-5.824 13-13z" fill="#46BBC4" fill-rule="nonzero"/><path d="M20.49 40.095a7.92 7.92 0 0 1 2.082.89 11.013 11.013 0 0 1-15.144 0 7.92 7.92 0 0 1 2.081-.89c1.724-.504 2.686-1.22 2.988-2.072a.184.184 0 0 0-.155-.238 10.251 10.251 0 0 1-2.75-.89.28.28 0 0 1-.156-.366 26.704 26.704 0 0 0 1.026-3.666c.404-2.09-.971-3.704.422-6.225a2.563 2.563 0 0 1 2.915-1.494 3.94 3.94 0 0 1 5.702 2.32c.66 1.952-.303 3.611.037 5.399a27.335 27.335 0 0 0 1.026 3.675.273.273 0 0 1-.156.358c-.87.425-1.796.724-2.75.889a.184.184 0 0 0-.156.238c.303.853 1.266 1.568 2.989 2.072h-.001zM29 17h-4.07a1 1 0 0 0-.552 1.834c1.455.96 2.75 2.14 3.84 3.5A1 1 0 0 0 30 21.71V18a1 1 0 0 0-1-1z" fill="#1C7F8A" fill-rule="nonzero"/></g></svg>