<?xml version="1.0" encoding="UTF-8"?>
<svg width="230px" height="120px" viewBox="0 0 230 120" version="1.1" xmlns="http://www.w3.org/2000/svg" xmlns:xlink="http://www.w3.org/1999/xlink">
    <!-- Generator: sketchtool 59.1 (101010) - https://sketch.com -->
    <title>D14930FB-5172-4104-A5A6-676F83F2071C</title>
    <desc>Created with sketchtool.</desc>
    <g id="Pages" stroke="none" stroke-width="1" fill="none" fill-rule="evenodd">
        <g id="Commercial-Solution" transform="translate(-670.000000, -932.000000)">
            <g id="section-2" transform="translate(96.000000, 735.000000)">
                <g id="cards" transform="translate(0.000000, 197.000000)">
                    <g id="illustrations">
                        <g id="industrial" transform="translate(574.000000, 0.000000)">
                            <polygon id="Fill-1" fill="#FFFFFF" points="0 120 230 120 230 0 0 0"></polygon>
                            <line x1="31" y1="119" x2="199" y2="119" id="Stroke-2" stroke="#46BBC4" stroke-width="2" stroke-linecap="round" stroke-linejoin="round"></line>
                            <line x1="115.8799" y1="65" x2="106.1199" y2="65" id="Stroke-4" stroke="#FDEFDB" stroke-width="2" stroke-linecap="round" stroke-linejoin="round"></line>
                            <line x1="141.8799" y1="65" x2="132.1199" y2="65" id="Stroke-5" stroke="#FDEFDB" stroke-width="2" stroke-linecap="round" stroke-linejoin="round"></line>
                            <line x1="167.8799" y1="65" x2="158.1199" y2="65" id="Stroke-6" stroke="#FDEFDB" stroke-width="2" stroke-linecap="round" stroke-linejoin="round"></line>
                            <polyline id="Stroke-7" stroke="#46BBC4" stroke-width="2" stroke-linecap="round" stroke-linejoin="round" points="58 115 58 69 172 69 172 115"></polyline>
                            <path d="M136,115 L136,91 C136,84.373 141.373,79 148,79 C154.627,79 160,84.373 160,91 L160,115 L136,115 Z" id="Fill-8" fill="#1C7F8A"></path>
                            <path d="M136,115 L136,91 C136,84.373 141.373,79 148,79 C154.627,79 160,84.373 160,91 L160,115 L136,115 Z" id="Stroke-10" stroke="#1C7F8A" stroke-width="2" stroke-linecap="round" stroke-linejoin="round"></path>
                            <line x1="138" y1="113" x2="158" y2="113" id="Stroke-12" stroke="#46BBC4" stroke-width="2" stroke-linecap="round" stroke-linejoin="round"></line>
                            <polygon id="Stroke-14" stroke="#A7DFE3" stroke-width="2" stroke-linecap="round" stroke-linejoin="round" points="100 89 108 89 108 79 100 79"></polygon>
                            <polygon id="Stroke-16" stroke="#A7DFE3" stroke-width="2" stroke-linecap="round" stroke-linejoin="round" points="116 89 124 89 124 79 116 79"></polygon>
                            <polygon id="Stroke-17" stroke="#A7DFE3" stroke-width="2" stroke-linecap="round" stroke-linejoin="round" points="68 89 76 89 76 79 68 79"></polygon>
                            <polygon id="Stroke-18" stroke="#A7DFE3" stroke-width="2" stroke-linecap="round" stroke-linejoin="round" points="84 89 92 89 92 79 84 79"></polygon>
                            <polygon id="Stroke-19" stroke="#A7DFE3" stroke-width="2" stroke-linecap="round" stroke-linejoin="round" points="100 109 108 109 108 99 100 99"></polygon>
                            <polygon id="Stroke-20" stroke="#A7DFE3" stroke-width="2" stroke-linecap="round" stroke-linejoin="round" points="116 109 124 109 124 99 116 99"></polygon>
                            <polygon id="Stroke-21" stroke="#A7DFE3" stroke-width="2" stroke-linecap="round" stroke-linejoin="round" points="68 109 76 109 76 99 68 99"></polygon>
                            <polygon id="Stroke-22" stroke="#A7DFE3" stroke-width="2" stroke-linecap="round" stroke-linejoin="round" points="84 109 92 109 92 99 84 99"></polygon>
                            <polyline id="Stroke-23" stroke="#F4BA67" stroke-width="2" stroke-linecap="round" stroke-linejoin="round" points="98 65 120 52 120 65"></polyline>
                            <polyline id="Stroke-24" stroke="#F4BA67" stroke-width="2" stroke-linecap="round" stroke-linejoin="round" points="124 65 146 52 146 65"></polyline>
                            <polyline id="Stroke-25" stroke="#F4BA67" stroke-width="2" stroke-linecap="round" stroke-linejoin="round" points="150 65 172 52 172 65"></polyline>
                            <polyline id="Stroke-26" stroke="#F57361" stroke-width="2" stroke-linecap="round" stroke-linejoin="round" points="66 65 66 59 88 59 88 65"></polyline>
                            <line x1="70" y1="65" x2="84" y2="65" id="Stroke-27" stroke="#FDDED9" stroke-width="2" stroke-linecap="round" stroke-linejoin="round"></line>
                            <polyline id="Stroke-28" stroke="#F4BA67" stroke-width="2" stroke-linecap="round" stroke-linejoin="round" points="83 55 81 12 73 12 71 55"></polyline>
                            <path d="M17,46 C37,30.828 49,46 65,39.82" id="Stroke-29" stroke="#FDEFDB" stroke-width="2" stroke-linecap="round" stroke-linejoin="round"></path>
                            <path d="M88,30.2646 C120,17.5636 140.46,16.7226 176,27.3336 C190.09,31.5346 201.43,32.9026 210,32.9996" id="Stroke-30" stroke="#FDEFDB" stroke-width="2" stroke-linecap="round" stroke-linejoin="round"></path>
                            <line x1="39" y1="115" x2="54" y2="115" id="Stroke-31" stroke="#A5CD7F" stroke-width="2" stroke-linecap="round" stroke-linejoin="round"></line>
                            <line x1="176" y1="115" x2="191" y2="115" id="Stroke-32" stroke="#A5CD7F" stroke-width="2" stroke-linecap="round" stroke-linejoin="round"></line>
                        </g>
                    </g>
                </g>
            </g>
        </g>
    </g>
</svg>