<?xml version="1.0" encoding="UTF-8"?>
<svg width="242px" height="134px" viewBox="0 0 242 134" version="1.1" xmlns="http://www.w3.org/2000/svg" xmlns:xlink="http://www.w3.org/1999/xlink" font-family="AvenirNext-DemiBold, Avenir Next">
    <!-- Generator: sketchtool 59.1 (101010) - https://sketch.com -->
    <title>EE1C26DD-AE7B-482E-8521-2030FC2C4B30</title>
    <desc>Created with sketchtool.</desc>
    <defs>
        <rect id="path-1" x="0" y="0" width="242" height="134"></rect>
        <path d="M2,0 L190,0 C191.104569,-2.02906125e-16 192,0.8954305 192,2 L192,78 C192,79.1045695 191.104569,80 190,80 L2,80 C0.8954305,80 1.3527075e-16,79.1045695 0,78 L0,2 C-1.3527075e-16,0.8954305 0.8954305,2.02906125e-16 2,0 Z" id="path-3"></path>
        <filter x="-7.8%" y="-13.8%" width="115.6%" height="137.5%" filterUnits="objectBoundingBox" id="filter-4">
            <feMorphology radius="1" operator="dilate" in="SourceAlpha" result="shadowSpreadOuter1"></feMorphology>
            <feOffset dx="0" dy="4" in="shadowSpreadOuter1" result="shadowOffsetOuter1"></feOffset>
            <feGaussianBlur stdDeviation="4" in="shadowOffsetOuter1" result="shadowBlurOuter1"></feGaussianBlur>
            <feComposite in="shadowBlurOuter1" in2="SourceAlpha" operator="out" result="shadowBlurOuter1"></feComposite>
            <feColorMatrix values="0 0 0 0 0   0 0 0 0 0   0 0 0 0 0  0 0 0 0.05 0" type="matrix" in="shadowBlurOuter1" result="shadowMatrixOuter1"></feColorMatrix>
            <feMorphology radius="1" operator="dilate" in="SourceAlpha" result="shadowSpreadOuter2"></feMorphology>
            <feOffset dx="0" dy="2" in="shadowSpreadOuter2" result="shadowOffsetOuter2"></feOffset>
            <feGaussianBlur stdDeviation="2" in="shadowOffsetOuter2" result="shadowBlurOuter2"></feGaussianBlur>
            <feComposite in="shadowBlurOuter2" in2="SourceAlpha" operator="out" result="shadowBlurOuter2"></feComposite>
            <feColorMatrix values="0 0 0 0 0   0 0 0 0 0   0 0 0 0 0  0 0 0 0.12 0" type="matrix" in="shadowBlurOuter2" result="shadowMatrixOuter2"></feColorMatrix>
            <feMerge>
                <feMergeNode in="shadowMatrixOuter1"></feMergeNode>
                <feMergeNode in="shadowMatrixOuter2"></feMergeNode>
            </feMerge>
        </filter>
    </defs>
    <g id="Pricing" stroke="none" stroke-width="1" fill="none" fill-rule="evenodd">
        <g id="Pricing---Core-Features" transform="translate(-81.000000, -2074.000000)">
            <g id="section-3" transform="translate(81.000000, 1194.000000)">
                <g id="list" transform="translate(0.000000, 109.000000)">
                    <g id="item" transform="translate(0.000000, 771.000000)">
                        <g id="image">
                            <g id="lease-management">
                                <mask id="mask-2" fill="white">
                                    <use xlink:href="#path-1"></use>
                                </mask>
                                <use id="mask" fill="#D3EFF1" xlink:href="#path-1"></use>
                                <g id="design" mask="url(#mask-2)">
                                    <g transform="translate(25.000000, 27.000000)">
                                        <g id="box" fill="none" transform="translate(96.000000, 40.000000) scale(-1, 1) translate(-96.000000, -40.000000) ">
                                            <use fill="black" fill-opacity="1" filter="url(#filter-4)" xlink:href="#path-3"></use>
                                            <path stroke-opacity="0.12" stroke="#000000" stroke-width="1" d="M2,-0.5 L190,-0.5 C191.380712,-0.5 192.5,0.619288125 192.5,2 L192.5,78 C192.5,79.3807119 191.380712,80.5 190,80.5 L2,80.5 C0.619288125,80.5 -0.5,79.3807119 -0.5,78 L-0.5,2 C-0.5,0.619288125 0.619288125,-0.5 2,-0.5 Z" fill="#FFFFFF" fill-rule="evenodd"></path>
                                        </g>
                                        <path d="M2,0 L73,0 L73,0 L73,80 L2,80 C0.8954305,80 1.3527075e-16,79.1045695 0,78 L0,2 C-1.3527075e-16,0.8954305 0.8954305,2.02906125e-16 2,0 Z" id="box" fill="#F4BA67" fill-rule="evenodd"></path>
                                        <g id="icon-/-48x48-/-section-role-/-lease-agreement" stroke-width="1" fill="none" fill-rule="evenodd" transform="translate(10.000000, 16.000000)">
                                            <g>
                                                <rect id="bounds" x="0" y="0" width="48" height="48"></rect>
                                                <path d="M41,8 C41.5522847,8 42,7.55228475 42,7 L42,5 C41.9966939,2.23994685 39.7600532,0.00330611633 37,0 L11,0 C8.23994685,0.00330611633 6.00330612,2.23994685 6,5 L6,43 C6.00330612,45.7600532 8.23994685,47.9966939 11,48.0000208 L32.17,48.0000208 C32.6001267,48.001616 33.0254003,47.9091207 33.416,47.729 C33.7439851,47.5794722 34.0424024,47.3721721 34.297,47.117 L41.117,40.297 C41.6825875,39.7337094 42.0003639,38.9682389 42,38.17 L42,33 C42,32.4477153 41.5522847,32 41,32 C40.4477153,32 40,32.4477153 40,33 L40,38 L36.44,38 C33.9885414,38.0016547 32.0016547,39.9885414 32,42.44 L32,46 L11,46 C9.34314575,46 8,44.6568542 8,43 L8,5 C8,3.34314575 9.34314575,2 11,2 L37,2 C38.6568542,2 40,3.34314575 40,5 L40,7 C40,7.55228475 40.4477153,8 41,8 Z" id="Path" fill="#FFFFFF"></path>
                                                <path d="M30.0000214,21.618 C30.0010665,21.7182535 29.9622609,21.8148239 29.8921211,21.8864641 C29.8219812,21.9581042 29.7262536,21.9989447 29.626,22 L18.376,22 C18.1670743,21.9983491 17.9988909,21.8279293 17.9999945,21.619 C18.025,19.078 18.341,17.997 20.577,17.371 C21.651,17.071 22.254,16.633 22.442,16.12 C22.4522393,16.0872885 22.4467917,16.0516812 22.4272405,16.0235275 C22.4076892,15.9953737 22.3762276,15.9778317 22.342,15.976 C21.7477581,15.8746874 21.1698871,15.6937242 20.624,15.438 C20.5340866,15.40141 20.4897245,15.2998209 20.524,15.209 C20.7898118,14.4852322 21.0033598,13.743328 21.163,12.989 C21.413,11.722 20.554,10.747 21.429,9.219 C21.7402811,8.52354711 22.4987949,8.14408105 23.242,8.312 C23.8899795,7.9534275 24.6643721,7.90346739 25.3530548,8.17580484 C26.0417376,8.44814229 26.5725166,9.01422845 26.8,9.719 C27.217,10.9 26.614,11.905 26.827,12.988 C26.9866402,13.742328 27.2001882,14.4842322 27.466,15.208 C27.5002755,15.2988209 27.4559134,15.40041 27.366,15.437 C26.8201129,15.6927242 26.2422419,15.8736874 25.648,15.975 C25.6137724,15.9768317 25.5823108,15.9943737 25.5627595,16.0225275 C25.5432083,16.0506812 25.5377607,16.0862885 25.548,16.119 C25.736,16.632 26.339,17.069 27.413,17.37 C29.659,18 29.976,19.077 30.0000214,21.618" id="Path" fill="#FFFFFF"></path>
                                                <path d="M47.519,13.971 C46.8970415,12.405939 45.6729035,11.156024 44.121141,10.5015916 C42.5693786,9.8471592 40.819869,9.84298313 39.265,10.49 C36.0297804,11.8934769 34.510501,15.6261318 35.846,18.89 C36.1888232,19.7394592 36.7114565,20.5046462 37.378,21.133 L33.032,31.822 C32.9889874,31.927103 32.9889874,32.044897 33.032,32.15 L33.677,33.735 C33.7453019,33.9059777 33.9163538,34.0131378 34.1,34 L36.757,33.808 C36.9908757,33.7878395 37.1648697,33.5830619 37.147,33.349 L36.974,30.858 L38.826,29.222 C38.9268425,29.1326743 38.9801181,29.0013351 38.97,28.867 L38.794,26.338 L41.753,22.865 C42.560979,22.857085 43.3596198,22.6913101 44.104,22.377 C47.3409339,20.9719329 48.8589103,17.2354441 47.519,13.971 L47.519,13.971 Z M41.719,16.571 C40.8905729,16.571 40.219,15.8994271 40.219,15.071 C40.219,14.2425729 40.8905729,13.571 41.719,13.571 C42.5474271,13.571 43.219,14.2425729 43.219,15.071 C43.219,15.4696926 43.0602808,15.8519831 42.7778939,16.1334319 C42.495507,16.4148806 42.1126903,16.572329 41.714,16.571 L41.719,16.571 Z" id="Shape" fill="#FFFFFF" fill-rule="nonzero"></path>
                                                <path d="M32,27 C32,27.5522847 31.5522847,28 31,28 L14,28 C13.4477153,28 13,27.5522847 13,27 C13,26.4477153 13.4477153,26 14,26 L31,26 C31.5522847,26 32,26.4477153 32,27 Z M30,32 L14,32 C13.4477153,32 13,32.4477153 13,33 C13,33.5522847 13.4477153,34 14,34 L30,34 C30.5522847,34 31,33.5522847 31,33 C31,32.4477153 30.5522847,32 30,32 Z M26,38 L14,38 C13.4477153,38 13,38.4477153 13,39 C13,39.5522847 13.4477153,40 14,40 L26,40 C26.5522847,40 27,39.5522847 27,39 C27,38.4477153 26.5522847,38 26,38 Z" id="Shape" fill="#FADEB6" fill-rule="nonzero"></path>
                                            </g>
                                        </g>
                                        <text id="Add-Lease" fill="none" font-family="AvenirNext-DemiBold, Avenir Next" font-size="10" font-weight="500">
                                            <tspan x="89" y="28" fill="#525252">Add Lease</tspan>
                                        </text>
                                        <text id="Set-the-terms-and-th" fill="none" font-family="AvenirNext-Regular, Avenir Next" font-size="10" font-weight="normal">
                                            <tspan x="89" y="44" fill="#717171">Set the terms and </tspan>
                                            <tspan x="89" y="58" fill="#717171">the rent amount. </tspan>
                                        </text>
                                    </g>
                                </g>
                            </g>
                        </g>
                    </g>
                </g>
            </g>
        </g>
    </g>
</svg>