<svg width="128" height="106" xmlns="http://www.w3.org/2000/svg"><path d="M84.223 105.636h-7.772l1.269-60.907c.317-11.843 1.718-20.382 4.203-25.616 2.485-5.234 6.398-9.728 11.737-13.482C99 1.877 104.79 0 111.03 0 122.343 0 128 5.921 128 17.765c0 4.335-3.7 13.323-11.103 26.964l-32.674 60.907zm-76.451 0H0L.952 44.57c.317-16.496 3.991-28.048 11.023-34.657C19.007 3.304 26.488 0 34.42 0c5.181 0 9.332 1.507 12.45 4.52 3.12 3.014 4.68 7.164 4.68 12.451 0 5.288-3.595 14.593-10.786 27.916L7.772 105.636z" fill="#46BBC4" fill-rule="nonzero"/></svg>