<svg xmlns="http://www.w3.org/2000/svg" viewBox="0 0 299 273"><path d="M155.911 179.588a1.994 1.994 0 0 1-2.499 1.323c-48.923-15.053-89.028-40.959-115.98-74.918C12.945 75.137 0 39.177 0 2a2 2 0 0 1 4 0c0 36.265 12.644 71.365 36.566 101.507 26.447 33.323 65.875 58.767 114.022 73.582a1.999 1.999 0 0 1 1.323 2.499zm-34.752-48.774a2 2 0 1 0 1.682-3.628c-24.38-11.298-44.118-26.043-58.668-43.828C45.479 60.51 36 33.138 36 2a2 2 0 0 0-4 0c0 32.084 9.783 60.31 29.077 83.892 14.936 18.255 35.15 33.37 60.082 44.922zm177.743 139.57c-15.472-47.77-58.644-82.86-128.314-104.295C74.888 136.643 20 76.834 20 2a2 2 0 0 0-4 0c0 76.712 55.916 137.913 153.412 167.911 68.35 21.03 110.638 55.25 125.686 101.705a2 2 0 1 0 3.804-1.232z" fill="#85d2d8"/></svg>