<svg width="44" height="44" xmlns="http://www.w3.org/2000/svg"><g fill="none" fill-rule="evenodd"><path d="M-2-2h48v48H-2z"/><path d="M34 17c0 9.388-7.612 17-17 17S0 26.388 0 17 7.612 0 17 0s17 7.612 17 17zm-2 0c0-8.284-6.716-15-15-15C8.716 2 2 8.716 2 17c0 8.284 6.716 15 15 15 8.284 0 15-6.716 15-15z" fill="#46BBC4" fill-rule="nonzero"/><path d="M29.484 26.818l11.82 11.13c.936.915.936 2.42-.013 3.347-.962.94-2.53.94-3.492 0L26.812 29.498a1 1 0 1 0-1.464 1.363l11.02 11.83c1.771 1.734 4.582 1.734 6.321.034a4.339 4.339 0 0 0 0-6.22L30.855 25.362a1 1 0 1 0-1.37 1.456z" fill="#46BBC4" fill-rule="nonzero"/><path d="M30 17c0 7.18-5.82 13-13 13S4 24.18 4 17 9.82 4 17 4s13 5.82 13 13zm-2 0c0-6.075-4.925-11-11-11S6 10.925 6 17s4.925 11 11 11 11-4.925 11-11z" fill="#A7DFE3" fill-rule="nonzero"/></g></svg>