<svg width="40" height="48" xmlns="http://www.w3.org/2000/svg"><g fill="none" fill-rule="evenodd"><path d="M-4 0h48v48H-4z"/><path d="M37.728 26.134a5.263 5.263 0 0 0 .372-1.943c0-2.788-2.135-5.082-4.8-5.082h-9.762A33.629 33.629 0 0 0 24.8 9.996c0-3.51-.91-6.553-2.58-8.486C21.025.13 18.84-.44 17.283.382A3.916 3.916 0 0 0 15.2 3.927c.054.7.097 2.853.005 3.989-.212 2.64-1.925 5.644-5.139 8.889-1.181 1.197-1.904 2.117-3.117 3.833-.614.871-.843 1.179-1.117 1.484-.552.614-1.003.82-1.925.829C1.748 22.97 0 24.67 0 26.825V40.28c0 2.16 1.755 3.866 3.918 3.88 1.88.01 2.71.349 4.547 1.588.236.159.341.229.478.319 2.007 1.32 3.708 1.932 6.307 1.932H31.4c2.665 0 4.8-2.293 4.8-5.082 0-.675-.129-1.332-.372-1.942 1.386-.909 2.272-2.516 2.272-4.3 0-.676-.129-1.333-.371-1.943C39.114 33.823 40 32.216 40 30.434s-.886-3.39-2.272-4.3zm.272 4.3c0 1.348-.808 2.512-1.96 2.92a1 1 0 0 0-.496 1.5c.36.535.556 1.162.556 1.82 0 1.35-.808 2.515-1.959 2.922a1 1 0 0 0-.498 1.5c.36.536.557 1.164.557 1.821 0 1.715-1.273 3.082-2.8 3.082H15.25c-2.164 0-3.503-.482-5.208-1.603-.129-.085-.23-.152-.46-.307-2.134-1.439-3.303-1.915-5.652-1.93C2.852 42.153 2 41.324 2 40.28V26.825c0-1.04.848-1.864 1.926-1.875 1.487-.014 2.468-.463 3.393-1.49.348-.388.6-.726 1.264-1.668 1.154-1.632 1.82-2.482 2.906-3.581 3.514-3.549 5.454-6.95 5.71-10.134.06-.737.072-1.679.05-2.732a45.942 45.942 0 0 0-.052-1.517c-.012-.67.383-1.342 1.019-1.677.68-.359 1.872-.048 2.491.667C22.027 4.347 22.8 6.93 22.8 9.995a31.623 31.623 0 0 1-1.204 8.633 1.944 1.944 0 0 0 1.885 2.481H33.3c1.527 0 2.8 1.368 2.8 3.082 0 .65-.194 1.284-.555 1.82a1 1 0 0 0 .496 1.502c1.15.407 1.959 1.573 1.959 2.921z" fill="#46BBC4" fill-rule="nonzero"/></g></svg>