<svg width="408" height="92" xmlns="http://www.w3.org/2000/svg"><g fill="none" fill-rule="evenodd"><path fill="#F57361" d="M16 0h392l-16 92H0z"/><path d="M110.1 27h-5.78l-.14 3.06c.227-.067.497-.113.81-.14.313-.027.597-.04.85-.04.693 0 1.337.1 1.93.3.593.2 1.11.49 1.55.87.44.38.783.847 1.03 1.4.247.553.37 1.19.37 1.91 0 .787-.137 1.49-.41 2.11a4.622 4.622 0 0 1-1.11 1.57 4.841 4.841 0 0 1-1.64.98 5.835 5.835 0 0 1-2 .34c-1.187 0-2.187-.277-3-.83-.813-.553-1.407-1.31-1.78-2.27l2.18-.8c.2.56.533 1.01 1 1.35.467.34 1.02.51 1.66.51.36 0 .7-.06 1.02-.18.32-.12.6-.293.84-.52.24-.227.43-.51.57-.85.14-.34.21-.723.21-1.15 0-.547-.093-1-.28-1.36-.187-.36-.43-.65-.73-.87-.3-.22-.637-.373-1.01-.46a5.025 5.025 0 0 0-1.14-.13c-.267 0-.55.02-.85.06-.3.04-.593.097-.88.17a11.15 11.15 0 0 0-.84.25 5.902 5.902 0 0 0-.73.3l.24-7.74h8.06V27zm13.2 4.92c0 1.147-.11 2.18-.33 3.1-.22.92-.54 1.7-.96 2.34-.42.64-.94 1.133-1.56 1.48-.62.347-1.33.52-2.13.52-.8 0-1.513-.173-2.14-.52a4.518 4.518 0 0 1-1.58-1.48c-.427-.64-.75-1.42-.97-2.34-.22-.92-.33-1.953-.33-3.1s.11-2.18.33-3.1c.22-.92.543-1.7.97-2.34a4.518 4.518 0 0 1 1.58-1.48c.627-.347 1.34-.52 2.14-.52s1.51.173 2.13.52c.62.347 1.14.84 1.56 1.48.42.64.74 1.42.96 2.34.22.92.33 1.953.33 3.1zm-2.46 0c0-.493-.03-1.053-.09-1.68a8.424 8.424 0 0 0-.36-1.78c-.18-.56-.437-1.03-.77-1.41-.333-.38-.767-.57-1.3-.57-.547 0-.987.19-1.32.57-.333.38-.59.85-.77 1.41a8.868 8.868 0 0 0-.37 1.78c-.067.627-.1 1.187-.1 1.68 0 .493.033 1.053.1 1.68s.19 1.213.37 1.76c.18.547.437 1.01.77 1.39.333.38.773.57 1.32.57.533 0 .967-.19 1.3-.57.333-.38.59-.843.77-1.39.18-.547.3-1.133.36-1.76s.09-1.187.09-1.68zm14.66 0c0 1.147-.11 2.18-.33 3.1-.22.92-.54 1.7-.96 2.34-.42.64-.94 1.133-1.56 1.48-.62.347-1.33.52-2.13.52-.8 0-1.513-.173-2.14-.52a4.518 4.518 0 0 1-1.58-1.48c-.427-.64-.75-1.42-.97-2.34-.22-.92-.33-1.953-.33-3.1s.11-2.18.33-3.1c.22-.92.543-1.7.97-2.34a4.518 4.518 0 0 1 1.58-1.48c.627-.347 1.34-.52 2.14-.52s1.51.173 2.13.52c.62.347 1.14.84 1.56 1.48.42.64.74 1.42.96 2.34.22.92.33 1.953.33 3.1zm-2.46 0c0-.493-.03-1.053-.09-1.68a8.424 8.424 0 0 0-.36-1.78c-.18-.56-.437-1.03-.77-1.41-.333-.38-.767-.57-1.3-.57-.547 0-.987.19-1.32.57-.333.38-.59.85-.77 1.41a8.868 8.868 0 0 0-.37 1.78c-.067.627-.1 1.187-.1 1.68 0 .493.033 1.053.1 1.68s.19 1.213.37 1.76c.18.547.437 1.01.77 1.39.333.38.773.57 1.32.57.533 0 .967-.19 1.3-.57.333-.38.59-.843.77-1.39.18-.547.3-1.133.36-1.76s.09-1.187.09-1.68zm14.66 0c0 1.147-.11 2.18-.33 3.1-.22.92-.54 1.7-.96 2.34-.42.64-.94 1.133-1.56 1.48-.62.347-1.33.52-2.13.52-.8 0-1.513-.173-2.14-.52a4.518 4.518 0 0 1-1.58-1.48c-.427-.64-.75-1.42-.97-2.34-.22-.92-.33-1.953-.33-3.1s.11-2.18.33-3.1c.22-.92.543-1.7.97-2.34a4.518 4.518 0 0 1 1.58-1.48c.627-.347 1.34-.52 2.14-.52s1.51.173 2.13.52c.62.347 1.14.84 1.56 1.48.42.64.74 1.42.96 2.34.22.92.33 1.953.33 3.1zm-2.46 0c0-.493-.03-1.053-.09-1.68a8.424 8.424 0 0 0-.36-1.78c-.18-.56-.437-1.03-.77-1.41-.333-.38-.767-.57-1.3-.57-.547 0-.987.19-1.32.57-.333.38-.59.85-.77 1.41a8.868 8.868 0 0 0-.37 1.78c-.067.627-.1 1.187-.1 1.68 0 .493.033 1.053.1 1.68s.19 1.213.37 1.76c.18.547.437 1.01.77 1.39.333.38.773.57 1.32.57.533 0 .967-.19 1.3-.57.333-.38.59-.843.77-1.39.18-.547.3-1.133.36-1.76s.09-1.187.09-1.68zm9.2 0v-4.4h2.04v4.4h4.4v2.04h-4.4v4.4h-2.04v-4.4h-4.4v-2.04h4.4zm14.16-8.04h2.4V39h-2.4V23.88zm11.28 13.9h-.06c-.24.427-.627.777-1.16 1.05-.533.273-1.14.41-1.82.41-.387 0-.79-.05-1.21-.15-.42-.1-.807-.267-1.16-.5a2.907 2.907 0 0 1-.88-.92c-.233-.38-.35-.85-.35-1.41 0-.72.203-1.293.61-1.72.407-.427.93-.753 1.57-.98a8.85 8.85 0 0 1 2.13-.45c.78-.073 1.543-.11 2.29-.11v-.24c0-.6-.217-1.043-.65-1.33-.433-.287-.95-.43-1.55-.43-.507 0-.993.107-1.46.32a3.93 3.93 0 0 0-1.16.78l-1.24-1.46a5.416 5.416 0 0 1 1.89-1.14 6.442 6.442 0 0 1 2.17-.38c.853 0 1.557.12 2.11.36.553.24.99.553 1.31.94.32.387.543.82.67 1.3.127.48.19.96.19 1.44V39h-2.24v-1.22zm-.04-3.16h-.54c-.387 0-.793.017-1.22.05-.427.033-.82.107-1.18.22a2.52 2.52 0 0 0-.9.48c-.24.207-.36.49-.36.85 0 .227.05.417.15.57.1.153.23.277.39.37.16.093.34.16.54.2.2.04.4.06.6.06.827 0 1.453-.22 1.88-.66.427-.44.64-1.04.64-1.8v-.34zm5.08-5.22h2.28v1.54h.04c.213-.48.583-.903 1.11-1.27.527-.367 1.15-.55 1.87-.55.627 0 1.163.11 1.61.33.447.22.813.51 1.1.87.287.36.497.773.63 1.24.133.467.2.947.2 1.44v6h-2.4v-5.32c0-.28-.02-.573-.06-.88a2.375 2.375 0 0 0-.26-.83 1.724 1.724 0 0 0-.55-.61c-.233-.16-.543-.24-.93-.24s-.72.077-1 .23c-.28.153-.51.35-.69.59-.18.24-.317.517-.41.83-.093.313-.14.63-.14.95V39h-2.4v-9.6zm21.4 9.6h-2.28v-1.44H204c-.333.56-.797.987-1.39 1.28-.593.293-1.23.44-1.91.44-.733 0-1.39-.137-1.97-.41a4.523 4.523 0 0 1-1.48-1.1c-.407-.46-.72-1-.94-1.62a5.907 5.907 0 0 1-.33-1.99c0-.707.113-1.367.34-1.98a4.832 4.832 0 0 1 .96-1.6c.413-.453.907-.81 1.48-1.07s1.2-.39 1.88-.39c.44 0 .833.05 1.18.15.347.1.65.223.91.37s.483.307.67.48c.187.173.34.34.46.5h.06v-6.74h2.4V39zm-7.9-4.84c0 .373.057.747.17 1.12.113.373.283.707.51 1 .227.293.513.533.86.72.347.187.753.28 1.22.28.44 0 .833-.09 1.18-.27a2.89 2.89 0 0 0 .89-.71c.247-.293.433-.623.56-.99.127-.367.19-.737.19-1.11 0-.373-.063-.747-.19-1.12a3.023 3.023 0 0 0-1.45-1.72 2.45 2.45 0 0 0-1.18-.28c-.467 0-.873.09-1.22.27-.347.18-.633.417-.86.71a3.102 3.102 0 0 0-.51.99 3.74 3.74 0 0 0-.17 1.11zm10.86-10.28h2.4V39h-2.4V23.88zm4.76 10.28c0-.76.137-1.45.41-2.07a4.84 4.84 0 0 1 1.11-1.59c.467-.44 1.02-.78 1.66-1.02.64-.24 1.32-.36 2.04-.36s1.4.12 2.04.36c.64.24 1.193.58 1.66 1.02.467.44.837.97 1.11 1.59.273.62.41 1.31.41 2.07 0 .76-.137 1.453-.41 2.08a4.926 4.926 0 0 1-1.11 1.61 5.07 5.07 0 0 1-1.66 1.05c-.64.253-1.32.38-2.04.38s-1.4-.127-2.04-.38a5.07 5.07 0 0 1-1.66-1.05 4.926 4.926 0 0 1-1.11-1.61 5.148 5.148 0 0 1-.41-2.08zm2.44 0c0 .373.057.747.17 1.12.113.373.283.707.51 1 .227.293.513.533.86.72.347.187.76.28 1.24.28s.893-.093 1.24-.28a2.67 2.67 0 0 0 .86-.72c.227-.293.397-.627.51-1a3.74 3.74 0 0 0 0-2.23 3.102 3.102 0 0 0-.51-.99 2.561 2.561 0 0 0-.86-.71c-.347-.18-.76-.27-1.24-.27s-.893.09-1.24.27c-.347.18-.633.417-.86.71a3.102 3.102 0 0 0-.51.99 3.74 3.74 0 0 0-.17 1.11zm10.32-4.76h2.3V31h.04c.267-.56.64-1.013 1.12-1.36.48-.347 1.04-.52 1.68-.52.093 0 .193.003.3.01.107.007.2.023.28.05v2.2a2.825 2.825 0 0 0-.74-.1c-.547 0-.987.1-1.32.3a2.4 2.4 0 0 0-.78.72c-.187.28-.313.567-.38.86-.067.293-.1.527-.1.7V39h-2.4v-9.6zm16.68 9.6h-2.28v-1.44h-.04c-.333.56-.797.987-1.39 1.28-.593.293-1.23.44-1.91.44-.733 0-1.39-.137-1.97-.41a4.523 4.523 0 0 1-1.48-1.1c-.407-.46-.72-1-.94-1.62a5.907 5.907 0 0 1-.33-1.99c0-.707.113-1.367.34-1.98a4.832 4.832 0 0 1 .96-1.6c.413-.453.907-.81 1.48-1.07s1.2-.39 1.88-.39c.44 0 .833.05 1.18.15.347.1.65.223.91.37s.483.307.67.48c.187.173.34.34.46.5h.06v-6.74h2.4V39zm-7.9-4.84c0 .373.057.747.17 1.12.113.373.283.707.51 1 .227.293.513.533.86.72.347.187.753.28 1.22.28.44 0 .833-.09 1.18-.27a2.89 2.89 0 0 0 .89-.71c.247-.293.433-.623.56-.99.127-.367.19-.737.19-1.11 0-.373-.063-.747-.19-1.12a3.023 3.023 0 0 0-1.45-1.72 2.45 2.45 0 0 0-1.18-.28c-.467 0-.873.09-1.22.27-.347.18-.633.417-.86.71a3.102 3.102 0 0 0-.51.99 3.74 3.74 0 0 0-.17 1.11zm16.08-2.2a2.77 2.77 0 0 0-.88-.73 2.478 2.478 0 0 0-1.22-.31c-.387 0-.74.08-1.06.24-.32.16-.48.427-.48.8 0 .373.177.637.53.79.353.153.87.31 1.55.47.36.08.723.187 1.09.32.367.133.7.31 1 .53.3.22.543.493.73.82.187.327.28.723.28 1.19 0 .587-.11 1.083-.33 1.49-.22.407-.513.737-.88.99a3.706 3.706 0 0 1-1.28.55c-.487.113-.99.17-1.51.17a5.994 5.994 0 0 1-2.18-.41c-.707-.273-1.293-.663-1.76-1.17l1.58-1.48c.267.347.613.633 1.04.86.427.227.9.34 1.42.34.173 0 .35-.02.53-.06.18-.04.347-.103.5-.19.153-.087.277-.203.37-.35a.986.986 0 0 0 .14-.54c0-.4-.183-.687-.55-.86-.367-.173-.917-.347-1.65-.52-.36-.08-.71-.183-1.05-.31a3.427 3.427 0 0 1-.91-.5 2.317 2.317 0 0 1-.64-.77c-.16-.307-.24-.687-.24-1.14 0-.533.11-.993.33-1.38.22-.387.51-.703.87-.95s.767-.43 1.22-.55c.453-.12.92-.18 1.4-.18.693 0 1.37.12 2.03.36.66.24 1.183.607 1.57 1.1l-1.56 1.38zm14.58 5.82h-.06c-.24.427-.627.777-1.16 1.05-.533.273-1.14.41-1.82.41-.387 0-.79-.05-1.21-.15-.42-.1-.807-.267-1.16-.5a2.907 2.907 0 0 1-.88-.92c-.233-.38-.35-.85-.35-1.41 0-.72.203-1.293.61-1.72.407-.427.93-.753 1.57-.98a8.85 8.85 0 0 1 2.13-.45c.78-.073 1.543-.11 2.29-.11v-.24c0-.6-.217-1.043-.65-1.33-.433-.287-.95-.43-1.55-.43-.507 0-.993.107-1.46.32a3.93 3.93 0 0 0-1.16.78l-1.24-1.46a5.416 5.416 0 0 1 1.89-1.14 6.442 6.442 0 0 1 2.17-.38c.853 0 1.557.12 2.11.36.553.24.99.553 1.31.94.32.387.543.82.67 1.3.127.48.19.96.19 1.44V39h-2.24v-1.22zm-.04-3.16h-.54c-.387 0-.793.017-1.22.05-.427.033-.82.107-1.18.22a2.52 2.52 0 0 0-.9.48c-.24.207-.36.49-.36.85 0 .227.05.417.15.57.1.153.23.277.39.37.16.093.34.16.54.2.2.04.4.06.6.06.827 0 1.453-.22 1.88-.66.427-.44.64-1.04.64-1.8v-.34zm5.08-5.22h2.3V31h.04c.267-.56.64-1.013 1.12-1.36.48-.347 1.04-.52 1.68-.52.093 0 .193.003.3.01.107.007.2.023.28.05v2.2a2.825 2.825 0 0 0-.74-.1c-.547 0-.987.1-1.32.3a2.4 2.4 0 0 0-.78.72c-.187.28-.313.567-.38.86-.067.293-.1.527-.1.7V39h-2.4v-9.6zm6.36 4.76c0-.76.137-1.45.41-2.07a4.84 4.84 0 0 1 1.11-1.59c.467-.44 1.02-.78 1.66-1.02.64-.24 1.32-.36 2.04-.36s1.4.12 2.04.36c.64.24 1.193.58 1.66 1.02.467.44.837.97 1.11 1.59.273.62.41 1.31.41 2.07 0 .76-.137 1.453-.41 2.08a4.926 4.926 0 0 1-1.11 1.61 5.07 5.07 0 0 1-1.66 1.05c-.64.253-1.32.38-2.04.38s-1.4-.127-2.04-.38a5.07 5.07 0 0 1-1.66-1.05 4.926 4.926 0 0 1-1.11-1.61 5.148 5.148 0 0 1-.41-2.08zm2.44 0c0 .373.057.747.17 1.12.113.373.283.707.51 1 .227.293.513.533.86.72.347.187.76.28 1.24.28s.893-.093 1.24-.28a2.67 2.67 0 0 0 .86-.72c.227-.293.397-.627.51-1a3.74 3.74 0 0 0 0-2.23 3.102 3.102 0 0 0-.51-.99 2.561 2.561 0 0 0-.86-.71c-.347-.18-.76-.27-1.24-.27s-.893.09-1.24.27c-.347.18-.633.417-.86.71a3.102 3.102 0 0 0-.51.99 3.74 3.74 0 0 0-.17 1.11zM299.16 39h-2.28v-1.54h-.04c-.213.48-.583.903-1.11 1.27-.527.367-1.15.55-1.87.55-.627 0-1.163-.11-1.61-.33a3.174 3.174 0 0 1-1.1-.87 3.52 3.52 0 0 1-.63-1.24 5.216 5.216 0 0 1-.2-1.44v-6h2.4v5.32c0 .28.02.573.06.88.04.307.127.583.26.83s.317.45.55.61c.233.16.543.24.93.24a2.067 2.067 0 0 0 1.69-.82c.18-.24.317-.517.41-.83.093-.313.14-.63.14-.95V29.4h2.4V39zm2.88-9.6h2.28v1.54h.04c.213-.48.583-.903 1.11-1.27.527-.367 1.15-.55 1.87-.55.627 0 1.163.11 1.61.33.447.22.813.51 1.1.87.287.36.497.773.63 1.24.133.467.2.947.2 1.44v6h-2.4v-5.32c0-.28-.02-.573-.06-.88a2.375 2.375 0 0 0-.26-.83 1.724 1.724 0 0 0-.55-.61c-.233-.16-.543-.24-.93-.24s-.72.077-1 .23c-.28.153-.51.35-.69.59-.18.24-.317.517-.41.83-.093.313-.14.63-.14.95V39h-2.4v-9.6zm21.4 9.6h-2.28v-1.44h-.04c-.333.56-.797.987-1.39 1.28-.593.293-1.23.44-1.91.44-.733 0-1.39-.137-1.97-.41a4.523 4.523 0 0 1-1.48-1.1c-.407-.46-.72-1-.94-1.62a5.907 5.907 0 0 1-.33-1.99c0-.707.113-1.367.34-1.98a4.832 4.832 0 0 1 .96-1.6c.413-.453.907-.81 1.48-1.07s1.2-.39 1.88-.39c.44 0 .833.05 1.18.15.347.1.65.223.91.37s.483.307.67.48c.187.173.34.34.46.5h.06v-6.74h2.4V39zm-7.9-4.84c0 .373.057.747.17 1.12.113.373.283.707.51 1 .227.293.513.533.86.72.347.187.753.28 1.22.28.44 0 .833-.09 1.18-.27a2.89 2.89 0 0 0 .89-.71c.247-.293.433-.623.56-.99.127-.367.19-.737.19-1.11 0-.373-.063-.747-.19-1.12a3.023 3.023 0 0 0-1.45-1.72 2.45 2.45 0 0 0-1.18-.28c-.467 0-.873.09-1.22.27-.347.18-.633.417-.86.71a3.102 3.102 0 0 0-.51.99 3.74 3.74 0 0 0-.17 1.11zm14.44-2.84V29.4h1.68v-2.78h2.36v2.78h2.4v1.92h-2.4v4.46c0 .427.077.78.23 1.06.153.28.497.42 1.03.42.16 0 .333-.017.52-.05s.353-.083.5-.15l.08 1.88c-.213.08-.467.143-.76.19-.293.047-.573.07-.84.07-.64 0-1.16-.09-1.56-.27-.4-.18-.717-.427-.95-.74a2.74 2.74 0 0 1-.48-1.08 6.28 6.28 0 0 1-.13-1.31v-4.48h-1.68zm13.52-2.2c.627 0 1.163.11 1.61.33.447.22.813.51 1.1.87.287.36.497.773.63 1.24.133.467.2.947.2 1.44v6h-2.4v-5.28c0-.28-.02-.57-.06-.87-.04-.3-.123-.573-.25-.82a1.637 1.637 0 0 0-.54-.61c-.233-.16-.543-.24-.93-.24s-.72.073-1 .22a2.07 2.07 0 0 0-.7.59 2.634 2.634 0 0 0-.42.83c-.093.307-.14.62-.14.94V39h-2.4V23.88h2.4v6.86h.04c.093-.2.23-.397.41-.59a3.233 3.233 0 0 1 1.45-.89 3.42 3.42 0 0 1 1-.14zm13.1 4.12c0-.307-.043-.6-.13-.88a2.014 2.014 0 0 0-.41-.74 2.002 2.002 0 0 0-.71-.51 2.482 2.482 0 0 0-1.01-.19c-.72 0-1.33.217-1.83.65-.5.433-.777.99-.83 1.67h4.92zm2.4 1.08v.32c0 .107-.007.213-.02.32h-7.3a2.377 2.377 0 0 0 .88 1.69c.253.207.54.37.86.49.32.12.653.18 1 .18.6 0 1.107-.11 1.52-.33.413-.22.753-.523 1.02-.91l1.6 1.28c-.947 1.28-2.32 1.92-4.12 1.92a5.86 5.86 0 0 1-2.06-.35 4.861 4.861 0 0 1-1.63-.99c-.46-.427-.82-.95-1.08-1.57-.26-.62-.39-1.323-.39-2.11 0-.773.13-1.477.39-2.11a4.803 4.803 0 0 1 1.07-1.62c.453-.447.99-.793 1.61-1.04.62-.247 1.29-.37 2.01-.37.667 0 1.283.11 1.85.33.567.22 1.057.547 1.47.98.413.433.737.973.97 1.62.233.647.35 1.403.35 2.27zM100.08 55.4h2.6l2 6.88h.04l2.06-6.88h2.56l2.08 6.88h.04l2.04-6.88h2.5l-3.32 9.6h-2.44l-2.18-6.72h-.04L105.86 65h-2.44l-3.34-9.6zm16.88 4.76c0-.76.137-1.45.41-2.07a4.84 4.84 0 0 1 1.11-1.59c.467-.44 1.02-.78 1.66-1.02.64-.24 1.32-.36 2.04-.36s1.4.12 2.04.36c.64.24 1.193.58 1.66 1.02.467.44.837.97 1.11 1.59.273.62.41 1.31.41 2.07 0 .76-.137 1.453-.41 2.08a4.926 4.926 0 0 1-1.11 1.61 5.07 5.07 0 0 1-1.66 1.05c-.64.253-1.32.38-2.04.38s-1.4-.127-2.04-.38a5.07 5.07 0 0 1-1.66-1.05 4.926 4.926 0 0 1-1.11-1.61 5.148 5.148 0 0 1-.41-2.08zm2.44 0c0 .373.057.747.17 1.12.113.373.283.707.51 1 .227.293.513.533.86.72.347.187.76.28 1.24.28s.893-.093 1.24-.28a2.67 2.67 0 0 0 .86-.72c.227-.293.397-.627.51-1a3.74 3.74 0 0 0 0-2.23 3.102 3.102 0 0 0-.51-.99 2.561 2.561 0 0 0-.86-.71c-.347-.18-.76-.27-1.24-.27s-.893.09-1.24.27c-.347.18-.633.417-.86.71a3.102 3.102 0 0 0-.51.99 3.74 3.74 0 0 0-.17 1.11zm10.32-4.76h2.3V57h.04c.267-.56.64-1.013 1.12-1.36.48-.347 1.04-.52 1.68-.52.093 0 .193.003.3.01.107.007.2.023.28.05v2.2a2.825 2.825 0 0 0-.74-.1c-.547 0-.987.1-1.32.3a2.4 2.4 0 0 0-.78.72c-.187.28-.313.567-.38.86-.067.293-.1.527-.1.7V65h-2.4v-9.6zm7.32-5.52h2.4V65h-2.4V49.88zM152.12 65h-2.28v-1.44h-.04c-.333.56-.797.987-1.39 1.28-.593.293-1.23.44-1.91.44-.733 0-1.39-.137-1.97-.41a4.523 4.523 0 0 1-1.48-1.1c-.407-.46-.72-1-.94-1.62a5.907 5.907 0 0 1-.33-1.99c0-.707.113-1.367.34-1.98a4.832 4.832 0 0 1 .96-1.6c.413-.453.907-.81 1.48-1.07s1.2-.39 1.88-.39c.44 0 .833.05 1.18.15.347.1.65.223.91.37s.483.307.67.48c.187.173.34.34.46.5h.06v-6.74h2.4V65zm-7.9-4.84c0 .373.057.747.17 1.12.113.373.283.707.51 1 .227.293.513.533.86.72.347.187.753.28 1.22.28.44 0 .833-.09 1.18-.27a2.89 2.89 0 0 0 .89-.71c.247-.293.433-.623.56-.99.127-.367.19-.737.19-1.11 0-.373-.063-.747-.19-1.12a3.023 3.023 0 0 0-1.45-1.72 2.45 2.45 0 0 0-1.18-.28c-.467 0-.873.09-1.22.27-.347.18-.633.417-.86.71a3.102 3.102 0 0 0-.51.99 3.74 3.74 0 0 0-.17 1.11zm22.38-2.1c-.187-.267-.467-.49-.84-.67a2.6 2.6 0 0 0-1.14-.27c-.44 0-.827.09-1.16.27-.333.18-.61.417-.83.71-.22.293-.383.623-.49.99-.107.367-.16.737-.16 1.11 0 .373.057.743.17 1.11.113.367.283.697.51.99.227.293.51.53.85.71.34.18.737.27 1.19.27.373 0 .747-.073 1.12-.22.373-.147.673-.36.9-.64l1.5 1.52c-.4.427-.91.757-1.53.99a5.66 5.66 0 0 1-2.01.35 5.92 5.92 0 0 1-2.01-.34 4.768 4.768 0 0 1-1.66-1 4.743 4.743 0 0 1-1.12-1.6c-.273-.627-.41-1.34-.41-2.14 0-.773.137-1.473.41-2.1a4.814 4.814 0 0 1 1.11-1.6 4.96 4.96 0 0 1 1.63-1.02c.62-.24 1.283-.36 1.99-.36.707 0 1.39.133 2.05.4.66.267 1.183.633 1.57 1.1l-1.64 1.44zm8.54-2.94c.627 0 1.163.11 1.61.33.447.22.813.51 1.1.87.287.36.497.773.63 1.24.133.467.2.947.2 1.44v6h-2.4v-5.28c0-.28-.02-.57-.06-.87-.04-.3-.123-.573-.25-.82a1.637 1.637 0 0 0-.54-.61c-.233-.16-.543-.24-.93-.24s-.72.073-1 .22a2.07 2.07 0 0 0-.7.59 2.634 2.634 0 0 0-.42.83c-.093.307-.14.62-.14.94V65h-2.4V49.88h2.4v6.86h.04c.093-.2.23-.397.41-.59a3.233 3.233 0 0 1 1.45-.89 3.42 3.42 0 0 1 1-.14zm5.78 5.04c0-.76.137-1.45.41-2.07a4.84 4.84 0 0 1 1.11-1.59c.467-.44 1.02-.78 1.66-1.02.64-.24 1.32-.36 2.04-.36s1.4.12 2.04.36c.64.24 1.193.58 1.66 1.02.467.44.837.97 1.11 1.59.273.62.41 1.31.41 2.07 0 .76-.137 1.453-.41 2.08a4.926 4.926 0 0 1-1.11 1.61 5.07 5.07 0 0 1-1.66 1.05c-.64.253-1.32.38-2.04.38s-1.4-.127-2.04-.38a5.07 5.07 0 0 1-1.66-1.05 4.926 4.926 0 0 1-1.11-1.61 5.148 5.148 0 0 1-.41-2.08zm2.44 0c0 .373.057.747.17 1.12.113.373.283.707.51 1 .227.293.513.533.86.72.347.187.76.28 1.24.28s.893-.093 1.24-.28a2.67 2.67 0 0 0 .86-.72c.227-.293.397-.627.51-1a3.74 3.74 0 0 0 0-2.23 3.102 3.102 0 0 0-.51-.99 2.561 2.561 0 0 0-.86-.71c-.347-.18-.76-.27-1.24-.27s-.893.09-1.24.27c-.347.18-.633.417-.86.71a3.102 3.102 0 0 0-.51.99 3.74 3.74 0 0 0-.17 1.11zm9.76 0c0-.76.137-1.45.41-2.07a4.84 4.84 0 0 1 1.11-1.59c.467-.44 1.02-.78 1.66-1.02.64-.24 1.32-.36 2.04-.36s1.4.12 2.04.36c.64.24 1.193.58 1.66 1.02.467.44.837.97 1.11 1.59.273.62.41 1.31.41 2.07 0 .76-.137 1.453-.41 2.08a4.926 4.926 0 0 1-1.11 1.61 5.07 5.07 0 0 1-1.66 1.05c-.64.253-1.32.38-2.04.38s-1.4-.127-2.04-.38a5.07 5.07 0 0 1-1.66-1.05 4.926 4.926 0 0 1-1.11-1.61 5.148 5.148 0 0 1-.41-2.08zm2.44 0c0 .373.057.747.17 1.12.113.373.283.707.51 1 .227.293.513.533.86.72.347.187.76.28 1.24.28s.893-.093 1.24-.28a2.67 2.67 0 0 0 .86-.72c.227-.293.397-.627.51-1a3.74 3.74 0 0 0 0-2.23 3.102 3.102 0 0 0-.51-.99 2.561 2.561 0 0 0-.86-.71c-.347-.18-.76-.27-1.24-.27s-.893.09-1.24.27c-.347.18-.633.417-.86.71a3.102 3.102 0 0 0-.51.99 3.74 3.74 0 0 0-.17 1.11zm15.58-2.2a2.77 2.77 0 0 0-.88-.73 2.478 2.478 0 0 0-1.22-.31c-.387 0-.74.08-1.06.24-.32.16-.48.427-.48.8 0 .373.177.637.53.79.353.153.87.31 1.55.47.36.08.723.187 1.09.32.367.133.7.31 1 .53.3.22.543.493.73.82.187.327.28.723.28 1.19 0 .587-.11 1.083-.33 1.49-.22.407-.513.737-.88.99a3.706 3.706 0 0 1-1.28.55c-.487.113-.99.17-1.51.17a5.994 5.994 0 0 1-2.18-.41c-.707-.273-1.293-.663-1.76-1.17l1.58-1.48c.267.347.613.633 1.04.86.427.227.9.34 1.42.34.173 0 .35-.02.53-.06.18-.04.347-.103.5-.19.153-.087.277-.203.37-.35a.986.986 0 0 0 .14-.54c0-.4-.183-.687-.55-.86-.367-.173-.917-.347-1.65-.52-.36-.08-.71-.183-1.05-.31a3.427 3.427 0 0 1-.91-.5 2.317 2.317 0 0 1-.64-.77c-.16-.307-.24-.687-.24-1.14 0-.533.11-.993.33-1.38.22-.387.51-.703.87-.95s.767-.43 1.22-.55c.453-.12.92-.18 1.4-.18.693 0 1.37.12 2.03.36.66.24 1.183.607 1.57 1.1l-1.56 1.38zm10.38 1.28c0-.307-.043-.6-.13-.88a2.014 2.014 0 0 0-.41-.74 2.002 2.002 0 0 0-.71-.51 2.482 2.482 0 0 0-1.01-.19c-.72 0-1.33.217-1.83.65-.5.433-.777.99-.83 1.67h4.92zm2.4 1.08v.32c0 .107-.007.213-.02.32h-7.3a2.377 2.377 0 0 0 .88 1.69c.253.207.54.37.86.49.32.12.653.18 1 .18.6 0 1.107-.11 1.52-.33.413-.22.753-.523 1.02-.91l1.6 1.28c-.947 1.28-2.32 1.92-4.12 1.92a5.86 5.86 0 0 1-2.06-.35 4.861 4.861 0 0 1-1.63-.99c-.46-.427-.82-.95-1.08-1.57-.26-.62-.39-1.323-.39-2.11 0-.773.13-1.477.39-2.11a4.803 4.803 0 0 1 1.07-1.62c.453-.447.99-.793 1.61-1.04.62-.247 1.29-.37 2.01-.37.667 0 1.283.11 1.85.33.567.22 1.057.547 1.47.98.413.433.737.973.97 1.62.233.647.35 1.403.35 2.27zm7.44-9.48h3.94l3.68 10.06h.06l3.64-10.06h3.96V65h-2.5V53.62h-.04L239.8 65h-1.76l-4.24-11.38h-.04V65h-2.4V50.84zm24.24 12.94h-.06c-.24.427-.627.777-1.16 1.05-.533.273-1.14.41-1.82.41-.387 0-.79-.05-1.21-.15-.42-.1-.807-.267-1.16-.5a2.907 2.907 0 0 1-.88-.92c-.233-.38-.35-.85-.35-1.41 0-.72.203-1.293.61-1.72.407-.427.93-.753 1.57-.98a8.85 8.85 0 0 1 2.13-.45c.78-.073 1.543-.11 2.29-.11v-.24c0-.6-.217-1.043-.65-1.33-.433-.287-.95-.43-1.55-.43-.507 0-.993.107-1.46.32a3.93 3.93 0 0 0-1.16.78l-1.24-1.46a5.416 5.416 0 0 1 1.89-1.14 6.442 6.442 0 0 1 2.17-.38c.853 0 1.557.12 2.11.36.553.24.99.553 1.31.94.32.387.543.82.67 1.3.127.48.19.96.19 1.44V65h-2.24v-1.22zm-.04-3.16h-.54c-.387 0-.793.017-1.22.05-.427.033-.82.107-1.18.22a2.52 2.52 0 0 0-.9.48c-.24.207-.36.49-.36.85 0 .227.05.417.15.57.1.153.23.277.39.37.16.093.34.16.54.2.2.04.4.06.6.06.827 0 1.453-.22 1.88-.66.427-.44.64-1.04.64-1.8v-.34zm5.08-5.22h2.28v1.54h.04c.213-.48.583-.903 1.11-1.27.527-.367 1.15-.55 1.87-.55.627 0 1.163.11 1.61.33.447.22.813.51 1.1.87.287.36.497.773.63 1.24.133.467.2.947.2 1.44v6h-2.4v-5.32c0-.28-.02-.573-.06-.88a2.375 2.375 0 0 0-.26-.83 1.724 1.724 0 0 0-.55-.61c-.233-.16-.543-.24-.93-.24s-.72.077-1 .23c-.28.153-.51.35-.69.59-.18.24-.317.517-.41.83-.093.313-.14.63-.14.95V65h-2.4v-9.6zm17.6 8.38h-.06c-.24.427-.627.777-1.16 1.05-.533.273-1.14.41-1.82.41-.387 0-.79-.05-1.21-.15-.42-.1-.807-.267-1.16-.5a2.907 2.907 0 0 1-.88-.92c-.233-.38-.35-.85-.35-1.41 0-.72.203-1.293.61-1.72.407-.427.93-.753 1.57-.98a8.85 8.85 0 0 1 2.13-.45c.78-.073 1.543-.11 2.29-.11v-.24c0-.6-.217-1.043-.65-1.33-.433-.287-.95-.43-1.55-.43-.507 0-.993.107-1.46.32a3.93 3.93 0 0 0-1.16.78l-1.24-1.46a5.416 5.416 0 0 1 1.89-1.14 6.442 6.442 0 0 1 2.17-.38c.853 0 1.557.12 2.11.36.553.24.99.553 1.31.94.32.387.543.82.67 1.3.127.48.19.96.19 1.44V65h-2.24v-1.22zm-.04-3.16h-.54c-.387 0-.793.017-1.22.05-.427.033-.82.107-1.18.22a2.52 2.52 0 0 0-.9.48c-.24.207-.36.49-.36.85 0 .227.05.417.15.57.1.153.23.277.39.37.16.093.34.16.54.2.2.04.4.06.6.06.827 0 1.453-.22 1.88-.66.427-.44.64-1.04.64-1.8v-.34zm14.84-5.22v8.74c0 .867-.107 1.65-.32 2.35-.213.7-.543 1.293-.99 1.78-.447.487-1.01.863-1.69 1.13-.68.267-1.487.4-2.42.4a8.491 8.491 0 0 1-2.51-.4 7.7 7.7 0 0 1-1.21-.5 5.834 5.834 0 0 1-1.04-.68l1.38-1.86c.467.44.993.777 1.58 1.01a4.78 4.78 0 0 0 1.78.35c.573 0 1.057-.083 1.45-.25.393-.167.707-.397.94-.69.233-.293.4-.64.5-1.04.1-.4.15-.84.15-1.32v-.7h-.04c-.347.467-.79.823-1.33 1.07-.54.247-1.143.37-1.81.37-.72 0-1.373-.133-1.96-.4a4.443 4.443 0 0 1-1.49-1.08 4.947 4.947 0 0 1-.95-1.59 5.469 5.469 0 0 1-.34-1.93c0-.693.11-1.347.33-1.96.22-.613.533-1.147.94-1.6a4.47 4.47 0 0 1 1.48-1.08c.58-.267 1.23-.4 1.95-.4.68 0 1.313.14 1.9.42.587.28 1.053.713 1.4 1.3h.04V55.4h2.28zm-5.12 1.68c-.44 0-.83.08-1.17.24-.34.16-.627.377-.86.65a2.921 2.921 0 0 0-.54.97 3.71 3.71 0 0 0-.19 1.2c0 .387.063.76.19 1.12.127.36.307.683.54.97.233.287.52.517.86.69.34.173.723.26 1.15.26.44 0 .837-.083 1.19-.25.353-.167.653-.39.9-.67s.437-.603.57-.97c.133-.367.2-.75.2-1.15 0-.413-.067-.807-.2-1.18a2.983 2.983 0 0 0-.57-.98c-.247-.28-.543-.5-.89-.66-.347-.16-.74-.24-1.18-.24zm14.76 2.16c0-.307-.043-.6-.13-.88a2.014 2.014 0 0 0-.41-.74 2.002 2.002 0 0 0-.71-.51 2.482 2.482 0 0 0-1.01-.19c-.72 0-1.33.217-1.83.65-.5.433-.777.99-.83 1.67h4.92zm2.4 1.08v.32c0 .107-.007.213-.02.32h-7.3a2.377 2.377 0 0 0 .88 1.69c.253.207.54.37.86.49.32.12.653.18 1 .18.6 0 1.107-.11 1.52-.33.413-.22.753-.523 1.02-.91l1.6 1.28c-.947 1.28-2.32 1.92-4.12 1.92a5.86 5.86 0 0 1-2.06-.35 4.861 4.861 0 0 1-1.63-.99c-.46-.427-.82-.95-1.08-1.57-.26-.62-.39-1.323-.39-2.11 0-.773.13-1.477.39-2.11a4.803 4.803 0 0 1 1.07-1.62c.453-.447.99-.793 1.61-1.04.62-.247 1.29-.37 2.01-.37.667 0 1.283.11 1.85.33.567.22 1.057.547 1.47.98.413.433.737.973.97 1.62.233.647.35 1.403.35 2.27zm12.66-6.16a3.227 3.227 0 0 0-1.46-1.11 4.837 4.837 0 0 0-1.76-.35c-.733 0-1.4.133-2 .4-.6.267-1.117.633-1.55 1.1a4.888 4.888 0 0 0-1 1.64 5.801 5.801 0 0 0-.35 2.04c0 .773.113 1.48.34 2.12.227.64.55 1.19.97 1.65.42.46.923.817 1.51 1.07.587.253 1.247.38 1.98.38.76 0 1.433-.15 2.02-.45.587-.3 1.06-.697 1.42-1.19l2.02 1.42a6.472 6.472 0 0 1-2.3 1.83c-.907.433-1.967.65-3.18.65-1.107 0-2.123-.183-3.05-.55a7.026 7.026 0 0 1-2.39-1.54 7.01 7.01 0 0 1-1.56-2.36c-.373-.913-.56-1.923-.56-3.03 0-1.133.197-2.157.59-3.07a6.837 6.837 0 0 1 1.62-2.33 7.192 7.192 0 0 1 2.43-1.48c.933-.347 1.947-.52 3.04-.52.453 0 .927.043 1.42.13.493.087.967.22 1.42.4.453.18.88.403 1.28.67s.74.587 1.02.96l-1.92 1.52zm9.18 9.62h-.06c-.24.427-.627.777-1.16 1.05-.533.273-1.14.41-1.82.41-.387 0-.79-.05-1.21-.15-.42-.1-.807-.267-1.16-.5a2.907 2.907 0 0 1-.88-.92c-.233-.38-.35-.85-.35-1.41 0-.72.203-1.293.61-1.72.407-.427.93-.753 1.57-.98a8.85 8.85 0 0 1 2.13-.45c.78-.073 1.543-.11 2.29-.11v-.24c0-.6-.217-1.043-.65-1.33-.433-.287-.95-.43-1.55-.43-.507 0-.993.107-1.46.32a3.93 3.93 0 0 0-1.16.78l-1.24-1.46a5.416 5.416 0 0 1 1.89-1.14 6.442 6.442 0 0 1 2.17-.38c.853 0 1.557.12 2.11.36.553.24.99.553 1.31.94.32.387.543.82.67 1.3.127.48.19.96.19 1.44V65h-2.24v-1.22zm-.04-3.16h-.54c-.387 0-.793.017-1.22.05-.427.033-.82.107-1.18.22a2.52 2.52 0 0 0-.9.48c-.24.207-.36.49-.36.85 0 .227.05.417.15.57.1.153.23.277.39.37.16.093.34.16.54.2.2.04.4.06.6.06.827 0 1.453-.22 1.88-.66.427-.44.64-1.04.64-1.8v-.34zm10.34-2.66a2.77 2.77 0 0 0-.88-.73 2.478 2.478 0 0 0-1.22-.31c-.387 0-.74.08-1.06.24-.32.16-.48.427-.48.8 0 .373.177.637.53.79.353.153.87.31 1.55.47.36.08.723.187 1.09.32.367.133.7.31 1 .53.3.22.543.493.73.82.187.327.28.723.28 1.19 0 .587-.11 1.083-.33 1.49-.22.407-.513.737-.88.99a3.706 3.706 0 0 1-1.28.55c-.487.113-.99.17-1.51.17a5.994 5.994 0 0 1-2.18-.41c-.707-.273-1.293-.663-1.76-1.17l1.58-1.48c.267.347.613.633 1.04.86.427.227.9.34 1.42.34.173 0 .35-.02.53-.06.18-.04.347-.103.5-.19.153-.087.277-.203.37-.35a.986.986 0 0 0 .14-.54c0-.4-.183-.687-.55-.86-.367-.173-.917-.347-1.65-.52-.36-.08-.71-.183-1.05-.31a3.427 3.427 0 0 1-.91-.5 2.317 2.317 0 0 1-.64-.77c-.16-.307-.24-.687-.24-1.14 0-.533.11-.993.33-1.38.22-.387.51-.703.87-.95s.767-.43 1.22-.55c.453-.12.92-.18 1.4-.18.693 0 1.37.12 2.03.36.66.24 1.183.607 1.57 1.1l-1.56 1.38zm9.58 5.82h-.06c-.24.427-.627.777-1.16 1.05-.533.273-1.14.41-1.82.41-.387 0-.79-.05-1.21-.15-.42-.1-.807-.267-1.16-.5a2.907 2.907 0 0 1-.88-.92c-.233-.38-.35-.85-.35-1.41 0-.72.203-1.293.61-1.72.407-.427.93-.753 1.57-.98a8.85 8.85 0 0 1 2.13-.45c.78-.073 1.543-.11 2.29-.11v-.24c0-.6-.217-1.043-.65-1.33-.433-.287-.95-.43-1.55-.43-.507 0-.993.107-1.46.32a3.93 3.93 0 0 0-1.16.78l-1.24-1.46a5.416 5.416 0 0 1 1.89-1.14 6.442 6.442 0 0 1 2.17-.38c.853 0 1.557.12 2.11.36.553.24.99.553 1.31.94.32.387.543.82.67 1.3.127.48.19.96.19 1.44V65h-2.24v-1.22zm-.04-3.16h-.54c-.387 0-.793.017-1.22.05-.427.033-.82.107-1.18.22a2.52 2.52 0 0 0-.9.48c-.24.207-.36.49-.36.85 0 .227.05.417.15.57.1.153.23.277.39.37.16.093.34.16.54.2.2.04.4.06.6.06.827 0 1.453-.22 1.88-.66.427-.44.64-1.04.64-1.8v-.34z" fill="#FFF" fill-rule="nonzero" opacity=".89"/><path d="M72 40c0 3.312-2.688 6-6 6s-6-2.688-6-6 2.688-6 6-6 6 2.688 6 6m-6 22.608C61.377 57.394 54 47.488 54 40c0-6.618 5.382-12 12-12s12 5.382 12 12c0 7.488-7.377 17.394-12 22.608M66 22c-9.927 0-18 8.073-18 18 0 13.092 15.231 28.473 15.879 29.121A2.992 2.992 0 0 0 66 70c.795 0 1.56-.315 2.121-.879C68.769 68.473 84 53.092 84 40c0-9.927-8.073-18-18-18" fill="#FFF"/></g></svg>