<svg width="478" height="407" xmlns="http://www.w3.org/2000/svg"><g fill="none" fill-rule="evenodd"><path d="M43 22h384v384H43z"/><path d="M422 305.04c-158-32-67.5-119-94-173s-96.774 1.428-192.5-71c-189-143-141.5 275.5 0 192.5 129.632-76.038 58.352 64.357 121.5 119.5 106.5 93 323-36 165-68z" fill="#FDF3E6"/><g transform="translate(35 22)"><path d="M8 0h384v384H8z"/><path d="M389.088 145.832l-136-112a8 8 0 0 0-10.36.144l-128 112A8 8 0 0 0 120 160h40v104c0 13.255 10.745 24 24 24h136c13.255 0 24-10.745 24-24V160h40a8 8 0 0 0 5.088-14.168zM336 144a8 8 0 0 0-8 8v112a8 8 0 0 1-8 8H184a8 8 0 0 1-8-8V152a8 8 0 0 0-8-8h-26.704L248.16 50.496 361.704 144H336z" fill="#46BBC4" fill-rule="nonzero"/><rect fill="#1C7F8A" x="192" y="168" width="56" height="88" rx="1"/><path d="M80 288c-13.255 0-24-10.745-24-24V160H16a8 8 0 0 1-5.272-14.024l128-112a8 8 0 0 1 10.36-.144l28.56 23.52a8 8 0 1 1-10.176 12.344l-23.312-19.2L37.296 144H64a8 8 0 0 1 8 8v112a8 8 0 0 0 8 8h58.8a8 8 0 1 1 0 16H80zm192-72h32a8 8 0 0 0 8-8v-32a8 8 0 0 0-8-8h-32a8 8 0 0 0-8 8v32a8 8 0 0 0 8 8zm48 88H80a8 8 0 1 0 0 16h240a8 8 0 1 0 0-16z" fill="#A7DFE3" fill-rule="nonzero"/><path d="M304 352H96a8 8 0 1 1 0-16h208a8 8 0 1 1 0 16z" fill="#F4BA67"/></g><g opacity=".24" stroke="#F0B867" stroke-width="2" transform="translate(1 1)"><circle cx="55" cy="249" r="17"/><circle cx="242" cy="23" r="23"/><circle cx="374" cy="58" r="9"/><circle cx="408" cy="109" r="4"/><circle cx="424.5" cy="244.5" r="7.5"/><circle cx="13" cy="142" r="13"/><circle cx="86" cy="361" r="4"/><circle cx="65" cy="72" r="4"/><circle cx="397" cy="366" r="17"/></g></g></svg>