<?xml version="1.0" encoding="utf-8"?>
<!-- Generator: Adobe Illustrator 21.0.0, SVG Export Plug-In . SVG Version: 6.00 Build 0)  -->
<svg version="1.1" id="Слой_1" xmlns="http://www.w3.org/2000/svg" xmlns:xlink="http://www.w3.org/1999/xlink" x="0px" y="0px"
	 viewBox="0 0 242 134" style="enable-background:new 0 0 242 134;" xml:space="preserve">
<style type="text/css">
	.st0{fill:#FFFFFF;}
	.st1{fill:#D3EFF1;}
	.st2{fill:#FFFFFF;stroke:#000000;stroke-opacity:0.12;}
	.st3{fill:#F57361;}
	.st4{fill:#E9E4F9;}
	.st5{fill:#3F3F3F;}
	.st6{fill:#C67328;}
	.st7{fill:#403F3E;}
	.st8{opacity:0.5;fill:#403F3E;enable-background:new    ;}
	.st9{opacity:0.23;fill:#403F3E;enable-background:new    ;}
	.st10{enable-background:new    ;}
	.st11{fill:#525252;}
	.st12{opacity:0.64;fill:#46BBC4;enable-background:new    ;}
	.st13{opacity:0.32;fill:#46BBC4;enable-background:new    ;}
	.st14{fill:#46BBC4;}
</style>
<g>
	<rect id="path-1" class="st0" width="242" height="134"/>
</g>
<title>BA41B4D4-E436-4C7C-ADFB-23106B32BDC5</title>
<desc>Created with sketchtool.</desc>
<g id="Pricing">
	<g id="Pricing---Core-Features" transform="translate(-957.000000, -1560.000000)">
		<g id="section-3" transform="translate(81.000000, 1194.000000)">
			<g id="list" transform="translate(0.000000, 109.000000)">
				<g id="item" transform="translate(876.000000, 257.000000)">
					<g id="image">
						<g id="owner-portal">
							<g id="mask">
								<rect id="path-1_1_" class="st1" width="242" height="134"/>
							</g>
							<g id="design">
								<g transform="translate(33.000000, 27.000000)">
									<g id="box">
										<g>
											<path id="path-3_1_" d="M30,0h144c1.1,0,2,0.9,2,2v76c0,1.1-0.9,2-2,2H30c-1.1,0-2-0.9-2-2V2C28,0.9,28.9,0,30,0z"/>
										</g>
										<path class="st2" d="M30-0.5h144c1.4,0,2.5,1.1,2.5,2.5v76c0,1.4-1.1,2.5-2.5,2.5H30c-1.4,0-2.5-1.1-2.5-2.5V2
											C27.5,0.6,28.6-0.5,30-0.5z"/>
									</g>
									<g id="avatar" transform="translate(0.000000, 12.000000)">
										<g id="Fill-35">
											<g>
												<path id="path-5_2_" d="M43.4,51.3c-1.3,0.9-2.6,1.6-4.1,2.2C35.9,55.1,32,56,28,56c-1.5,0-3-0.1-4.4-0.3
													c-4.1-0.7-7.9-2.2-11.2-4.4C4.9,46.2,0,37.7,0,28C0,12.5,12.5,0,28,0s28,12.5,28,28C56,37.8,51,46.3,43.4,51.3z"/>
											</g>
											<g>
												<path id="path-5_1_" class="st3" d="M43.4,51.3c-1.3,0.9-2.6,1.6-4.1,2.2C35.9,55.1,32,56,28,56c-1.5,0-3-0.1-4.4-0.3
													c-4.1-0.7-7.9-2.2-11.2-4.4C4.9,46.2,0,37.7,0,28C0,12.5,12.5,0,28,0s28,12.5,28,28C56,37.8,51,46.3,43.4,51.3z"/>
											</g>
										</g>
										<path id="Fill-37" class="st4" d="M27.7,47.5c-1.6-7.5-9.4-7.2-8.5-15.7c0.3-2.9-3.4-6.5-4.7-10.5
											c-1.4-4.3,1.8-11.4,8.9-8.6s3.3-4.8,11.3-2.9s1.9,7.6,3.3,11.5c1.2,3.2,2.2,6.2-0.5,11c-2.3,4.3-5.4,7.9-4.7,11.5
											c0.7,3.5,0.3,3.4,0.3,3.4L27.7,47.5z"/>
										<path id="Fill-39" class="st5" d="M39.4,53.6C35.9,55.1,32,56,28,56c-1.5,0-3-0.1-4.4-0.3c-4.1-0.6-7.9-2.2-11.2-4.4
											c1.5-2,3-3.7,4.5-5.1c0.3-0.3,0.5-0.5,0.8-0.7c0.6-0.6,1.3-1.2,1.9-1.7c2.7-2.4,4.7-4.1,4.7-6.2l4.8,0.5l1,1.6l0.3,0.4
											l0.9,1.3l0.1,0.2l2.4,3.6l2.7,4l0.7,1.1L39.4,53.6z"/>
										<path id="Fill-42" class="st5" d="M43.4,51.4c-1.3,0.9-2.6,1.6-4.1,2.2C35.9,55.1,32,56,28,56c-1.5,0-3-0.1-4.4-0.3
											c1-1.6,2-3.7,2.9-6.1c0.2-0.6,0.4-1.2,0.6-1.9c0.2-0.8,0.5-1.6,0.6-2.5l1.2-2.5l1.3-2.7l1.2-2.5c0.7,2.1,1.9,3.8,3.2,5.3
											c1.4,1.6,3,3,4.6,4.5c0.5,0.4,1,0.9,1.5,1.3C41.7,49.6,42.6,50.4,43.4,51.4"/>
										<path id="Fill-45" class="st6" d="M27.9,18.1c11,0,7,13.9,3.7,19.4c-2.6,4.4-4.4,4.4-7.3,0C20.5,32,16.9,18.1,27.9,18.1"
											/>
										<path id="Fill-47" class="st7" d="M25.7,35.2c0.3,0.2,0.6,0.4,0.9,0.6c0.3,0.2,0.6,0.3,0.9,0.4c0.3,0.1,0.6,0.1,0.9,0.1
											s0.6-0.2,1-0.4l0,0c0.1-0.1,0.3,0,0.3,0.1s0,0.2,0,0.3c-0.3,0.3-0.6,0.7-1.1,0.9c-0.4,0.2-1,0.2-1.4,0.1
											c-0.5-0.1-0.9-0.4-1.2-0.7c-0.3-0.3-0.6-0.6-0.8-1c-0.1-0.1,0-0.3,0.1-0.3C25.5,35.1,25.6,35.1,25.7,35.2L25.7,35.2z"/>
										<path id="Fill-49" class="st7" d="M25.7,27.5c0,0.4-0.3,0.6-0.7,0.6c-0.4,0-0.7-0.3-0.7-0.6s0.3-0.6,0.7-0.6
											C25.3,26.8,25.7,27.1,25.7,27.5"/>
										<path id="Fill-51" class="st7" d="M30.4,27.5c0,0.4,0.3,0.6,0.7,0.6s0.7-0.3,0.7-0.6s-0.3-0.6-0.7-0.6
											S30.4,27.1,30.4,27.5"/>
										<path id="Fill-53" class="st8" d="M30.2,24.6c0.2-0.2,0.5-0.2,0.8-0.3c0.3,0,0.5,0,0.8,0.1c0.5,0.1,1,0.5,1.2,1
											c0.1,0.1,0,0.3-0.1,0.4c-0.1,0-0.1,0-0.2,0l0,0c-0.2-0.1-0.4-0.2-0.6-0.2c-0.2-0.1-0.4-0.1-0.6-0.2s-0.4-0.1-0.6-0.1
											s-0.4-0.1-0.6-0.1h-0.1c-0.1,0-0.2-0.2-0.2-0.3C30.1,24.7,30.1,24.7,30.2,24.6"/>
										<path id="Fill-55" class="st8" d="M25.4,25.2c-0.2,0.1-0.4,0.1-0.6,0.1s-0.4,0.1-0.6,0.1s-0.4,0.1-0.6,0.2
											s-0.4,0.1-0.6,0.2l0,0c-0.1,0-0.3,0-0.3-0.2c0-0.1,0-0.1,0-0.2c0.2-0.5,0.7-0.8,1.2-1c0.3-0.1,0.5-0.1,0.8-0.1
											s0.5,0.1,0.8,0.3c0.1,0.1,0.2,0.2,0.1,0.4C25.6,25.1,25.5,25.2,25.4,25.2L25.4,25.2z"/>
										<path id="Fill-57" class="st7" d="M28.3,27c0.5,0.6,0.9,1.3,1.3,1.9c0.4,0.7,0.7,1.3,1,2.2c0.2,1-0.2,1.9-1,2.5
											c-0.4,0.3-1,0.3-1.4,0.2c-0.5-0.2-0.8-0.5-1-0.8c-0.1-0.1-0.1-0.3,0-0.4c0.1-0.1,0.2-0.1,0.3,0l0,0
											c0.6,0.4,1.2,0.6,1.6,0.2c0.4-0.3,0.6-1,0.5-1.5c-0.1-0.6-0.5-1.3-0.8-2s-0.6-1.4-0.9-2.1c-0.1-0.1,0-0.3,0.1-0.3
											C28.1,26.8,28.2,26.9,28.3,27"/>
										<path id="Fill-59" class="st6" d="M31.5,37.5c0,1.2-0.1,2.4-0.1,3.6c-0.3,3.5-4.9,8.4-4.9,8.4c-0.3-4-1.2-6-1.6-8
											c-0.5-2.5-0.7-4-0.7-4C27.1,41.9,28.9,41.9,31.5,37.5"/>
										<path id="Fill-61" class="st9" d="M31.5,37.5c0,1.2-0.1,2.4-0.1,3.6c-0.9,1-2.1,1.7-3.4,1.7c-1.1,0-2.1-0.5-3-1.3
											c-0.6-2.4-0.7-4-0.7-4C27.1,41.9,28.9,41.9,31.5,37.5"/>
										<path id="Fill-63" class="st4" d="M25.2,22.5c0.2,0,0.7-0.5,1.3-1.5l1,1.5l1.1-2.2l0.9,2.3c0,0,4.7,0.1,7.9,1.2
											c0,0-0.5-7.3-9.3-7.3s-9.3,6.8-9.3,6.8S21.7,22.7,25.2,22.5z"/>
									</g>
									<g id="text" transform="translate(68.000000, 12.000000)">
										<g class="st10">
											<g class="st10">
												<path class="st11" d="M0,10l2.7-7.2h1L6.7,10H5.6L4.8,7.8h-3L1,10H0z M2.1,7.1h2.4l-0.7-2C3.5,4.5,3.3,4,3.2,3.6
													C3.1,4.1,3,4.5,2.8,5L2.1,7.1z"/>
												<path class="st11" d="M7.3,10V2.8h0.9V10H7.3z"/>
												<path class="st11" d="M13.1,8.3L14,8.4c-0.1,0.5-0.4,0.9-0.8,1.2s-0.9,0.4-1.5,0.4c-0.8,0-1.4-0.2-1.8-0.7
													c-0.4-0.5-0.7-1.1-0.7-2c0-0.9,0.2-1.5,0.7-2s1-0.7,1.7-0.7c0.7,0,1.3,0.2,1.7,0.7s0.7,1.1,0.7,2c0,0.1,0,0.1,0,0.2
													h-3.9c0,0.6,0.2,1,0.5,1.3s0.7,0.5,1.1,0.5c0.3,0,0.6-0.1,0.8-0.3S13,8.7,13.1,8.3z M10.2,6.9h2.9c0-0.4-0.1-0.8-0.3-1
													c-0.3-0.3-0.6-0.5-1.1-0.5c-0.4,0-0.7,0.1-1,0.4S10.2,6.5,10.2,6.9z"/>
												<path class="st11" d="M14.5,10l1.9-2.7l-1.8-2.5h1.1L16.6,6c0.1,0.2,0.3,0.4,0.4,0.6c0.1-0.2,0.3-0.4,0.4-0.6l0.9-1.2h1
													l-1.8,2.4l1.9,2.7h-1.1l-1.1-1.6L17,8l-1.4,2H14.5z"/>
												<path class="st11" d="M22.7,7.7l0.9-0.1c0,0.4,0.1,0.7,0.3,0.9c0.2,0.2,0.4,0.4,0.7,0.6c0.3,0.1,0.7,0.2,1.1,0.2
													c0.4,0,0.7-0.1,1-0.2s0.5-0.3,0.6-0.4c0.1-0.2,0.2-0.4,0.2-0.6c0-0.2-0.1-0.4-0.2-0.6c-0.1-0.2-0.3-0.3-0.6-0.4
													C26.4,7,26,6.9,25.4,6.7c-0.7-0.2-1.1-0.3-1.4-0.4c-0.3-0.2-0.6-0.4-0.8-0.7C23,5.3,23,5,23,4.7c0-0.4,0.1-0.7,0.3-1
													c0.2-0.3,0.5-0.6,0.9-0.7s0.8-0.2,1.3-0.2c0.5,0,1,0.1,1.4,0.3c0.4,0.2,0.7,0.4,0.9,0.8s0.3,0.7,0.4,1.1l-0.9,0.1
													c0-0.5-0.2-0.8-0.5-1c-0.3-0.2-0.7-0.3-1.2-0.3c-0.6,0-1,0.1-1.3,0.3c-0.3,0.2-0.4,0.5-0.4,0.8c0,0.3,0.1,0.5,0.3,0.6
													c0.2,0.2,0.7,0.3,1.4,0.5c0.8,0.2,1.3,0.3,1.6,0.5c0.4,0.2,0.7,0.4,0.9,0.7c0.2,0.3,0.3,0.6,0.3,1
													c0,0.4-0.1,0.7-0.3,1.1c-0.2,0.3-0.5,0.6-0.9,0.8c-0.4,0.2-0.9,0.3-1.4,0.3c-0.6,0-1.2-0.1-1.6-0.3
													c-0.4-0.2-0.8-0.5-1-0.9C22.8,8.6,22.7,8.2,22.7,7.7z"/>
												<path class="st11" d="M31.5,9.2l0.1,0.8c-0.2,0.1-0.5,0.1-0.7,0.1c-0.3,0-0.6-0.1-0.7-0.2s-0.3-0.2-0.4-0.4
													c-0.1-0.2-0.1-0.5-0.1-1v-3h-0.6V4.8h0.6V3.5L30.6,3v1.8h0.9v0.7h-0.9v3c0,0.3,0,0.4,0,0.5c0,0.1,0.1,0.1,0.2,0.2
													c0.1,0,0.2,0.1,0.3,0.1C31.2,9.2,31.3,9.2,31.5,9.2z"/>
												<path class="st11" d="M35.9,8.3l0.9,0.1C36.7,9,36.4,9.4,36,9.7s-0.9,0.4-1.5,0.4c-0.8,0-1.4-0.2-1.8-0.7
													c-0.4-0.5-0.7-1.1-0.7-2c0-0.9,0.2-1.5,0.7-2s1-0.7,1.7-0.7c0.7,0,1.3,0.2,1.7,0.7s0.7,1.1,0.7,2c0,0.1,0,0.1,0,0.2H33
													c0,0.6,0.2,1,0.5,1.3s0.7,0.5,1.1,0.5c0.3,0,0.6-0.1,0.8-0.3S35.8,8.7,35.9,8.3z M33,6.9h2.9c0-0.4-0.2-0.8-0.3-1
													c-0.3-0.3-0.6-0.5-1.1-0.5c-0.4,0-0.7,0.1-1,0.4C33.2,6.1,33,6.5,33,6.9z"/>
												<path class="st11" d="M39.3,10l-2-5.2h0.9l1.1,3.1c0.1,0.3,0.2,0.7,0.3,1c0.1-0.3,0.2-0.6,0.3-1l1.2-3.2h0.9l-2,5.2
													H39.3z"/>
												<path class="st11" d="M46.5,8.3l0.9,0.1c-0.1,0.5-0.4,0.9-0.8,1.2s-0.9,0.4-1.5,0.4c-0.8,0-1.4-0.2-1.8-0.7
													c-0.4-0.5-0.7-1.1-0.7-2c0-0.9,0.2-1.5,0.7-2s1-0.7,1.7-0.7c0.7,0,1.3,0.2,1.7,0.7s0.7,1.1,0.7,2c0,0.1,0,0.1,0,0.2
													h-3.9c0,0.6,0.2,1,0.5,1.3s0.7,0.5,1.1,0.5c0.3,0,0.6-0.1,0.8-0.3S46.3,8.7,46.5,8.3z M43.6,6.9h2.9
													c0-0.4-0.1-0.8-0.3-1c-0.3-0.3-0.6-0.5-1.1-0.5c-0.4,0-0.7,0.1-1,0.4C43.7,6.1,43.6,6.5,43.6,6.9z"/>
												<path class="st11" d="M48.5,10V4.8h0.8v0.7c0.4-0.6,0.9-0.9,1.7-0.9c0.3,0,0.6,0.1,0.9,0.2C52,5,52.2,5.1,52.4,5.3
													s0.2,0.4,0.3,0.6c0,0.2,0,0.4,0,0.9V10h-0.9V6.8c0-0.4,0-0.6-0.1-0.8c-0.1-0.2-0.2-0.3-0.4-0.4
													c-0.2-0.1-0.4-0.2-0.6-0.2c-0.4,0-0.7,0.1-1,0.4c-0.3,0.2-0.4,0.7-0.4,1.4V10H48.5z"/>
												<path class="st11" d="M53.7,8.5l0.9-0.1c0,0.3,0.2,0.6,0.4,0.8c0.2,0.2,0.5,0.3,0.9,0.3c0.4,0,0.7-0.1,0.9-0.2
													C57,9,57.1,8.8,57.1,8.6c0-0.2-0.1-0.4-0.3-0.5c-0.1-0.1-0.4-0.2-0.9-0.3c-0.6-0.2-1.1-0.3-1.3-0.4
													c-0.3-0.1-0.4-0.3-0.6-0.5c-0.1-0.2-0.2-0.4-0.2-0.7c0-0.2,0.1-0.4,0.2-0.6c0.1-0.2,0.3-0.4,0.4-0.5
													C54.5,5,54.7,4.9,55,4.8c0.2-0.1,0.5-0.1,0.8-0.1c0.4,0,0.8,0.1,1.1,0.2c0.3,0.1,0.5,0.3,0.7,0.5
													c0.1,0.2,0.2,0.5,0.3,0.8l-0.9,0.1c0-0.3-0.2-0.5-0.3-0.6c-0.2-0.1-0.5-0.2-0.8-0.2c-0.4,0-0.7,0.1-0.9,0.2
													s-0.3,0.3-0.3,0.5c0,0.1,0,0.2,0.1,0.3c0.1,0.1,0.2,0.2,0.3,0.2c0.1,0,0.3,0.1,0.8,0.2c0.6,0.2,1.1,0.3,1.3,0.4
													c0.2,0.1,0.4,0.3,0.6,0.5S58,8.2,58,8.5c0,0.3-0.1,0.6-0.3,0.8c-0.2,0.3-0.4,0.5-0.7,0.6c-0.3,0.1-0.7,0.2-1.1,0.2
													c-0.7,0-1.2-0.1-1.5-0.4C54,9.4,53.8,9,53.7,8.5z"/>
											</g>
										</g>
										<path id="Rectangle" class="st12" d="M2,18h44c1.1,0,2,0.9,2,2s-0.9,2-2,2H2c-1.1,0-2-0.9-2-2S0.9,18,2,18z"/>
										<path id="Rectangle_1_" class="st13" d="M1,26h22c0.6,0,1,0.4,1,1s-0.4,1-1,1H1c-0.6,0-1-0.4-1-1S0.4,26,1,26z"/>
										<path id="Rectangle_2_" class="st13" d="M29,26h30c0.6,0,1,0.4,1,1s-0.4,1-1,1H29c-0.6,0-1-0.4-1-1S28.4,26,29,26z"/>
									</g>
									<g id="button" transform="translate(68.000000, 48.000000)">
										<path id="Rectangle_3_" class="st14" d="M9.5,0h73C87.7,0,92,4.3,92,9.5S87.7,19,82.5,19h-73C4.3,19,0,14.7,0,9.5
											S4.3,0,9.5,0z"/>
										<g class="st10">
											<g class="st10">
												<path class="st0" d="M11.8,13L9,5.8h1l1.9,5.2c0.1,0.4,0.3,0.8,0.4,1.2c0.1-0.4,0.2-0.8,0.4-1.2l1.9-5.2h1L12.8,13H11.8
													z"/>
												<path class="st0" d="M16.2,6.9v-1H17v1H16.2z M16.2,13V7.8H17V13H16.2z"/>
												<path class="st0" d="M18,11.5l0.9-0.1c0,0.3,0.2,0.6,0.4,0.8s0.5,0.3,0.9,0.3c0.4,0,0.7-0.1,0.9-0.2
													c0.2-0.2,0.3-0.4,0.3-0.6c0-0.2-0.1-0.4-0.3-0.5c-0.1-0.1-0.4-0.2-0.9-0.3c-0.6-0.2-1.1-0.3-1.3-0.4
													c-0.2-0.1-0.4-0.3-0.6-0.5c-0.1-0.2-0.2-0.4-0.2-0.7c0-0.2,0.1-0.4,0.2-0.6c0.1-0.2,0.3-0.4,0.4-0.5
													c0.1-0.1,0.3-0.2,0.6-0.3c0.2-0.1,0.5-0.1,0.8-0.1c0.4,0,0.8,0.1,1.1,0.2c0.3,0.1,0.5,0.3,0.7,0.5
													c0.1,0.2,0.2,0.5,0.3,0.8l-0.9,0.1c0-0.3-0.2-0.5-0.3-0.6s-0.5-0.2-0.8-0.2c-0.4,0-0.7,0.1-0.9,0.2S19,8.9,19,9.1
													c0,0.1,0,0.2,0.1,0.3c0.1,0.1,0.2,0.2,0.3,0.2c0.1,0,0.3,0.1,0.8,0.2c0.6,0.2,1.1,0.3,1.3,0.4c0.2,0.1,0.4,0.3,0.6,0.5
													s0.2,0.5,0.2,0.8c0,0.3-0.1,0.6-0.3,0.8c-0.2,0.3-0.4,0.5-0.7,0.6c-0.3,0.1-0.7,0.2-1.1,0.2c-0.7,0-1.2-0.1-1.5-0.4
													S18.1,12,18,11.5z"/>
												<path class="st0" d="M23.4,6.9v-1h0.9v1H23.4z M23.4,13V7.8h0.9V13H23.4z"/>
												<path class="st0" d="M27.5,12.2l0.1,0.8c-0.2,0.1-0.5,0.1-0.7,0.1c-0.3,0-0.6-0.1-0.7-0.2s-0.3-0.2-0.4-0.4
													c-0.1-0.2-0.1-0.5-0.1-1v-3h-0.6V7.8h0.6V6.5L26.6,6v1.8h0.9v0.7h-0.9v3c0,0.3,0,0.4,0,0.5c0,0.1,0.1,0.1,0.2,0.2
													c0.1,0,0.2,0.1,0.3,0.1C27.2,12.2,27.4,12.2,27.5,12.2z"/>
												<path class="st0" d="M31.3,13V5.8h2.5c0.6,0,1,0,1.3,0.1c0.4,0.1,0.8,0.3,1,0.5c0.4,0.3,0.7,0.7,0.8,1.2
													c0.2,0.5,0.3,1.1,0.3,1.7c0,0.5-0.1,1-0.2,1.4s-0.3,0.8-0.5,1c-0.2,0.3-0.4,0.5-0.7,0.7c-0.2,0.2-0.5,0.3-0.9,0.4
													C34.7,13,34.3,13,33.8,13H31.3z M32.2,12.2h1.5c0.5,0,0.8,0,1.1-0.1c0.3-0.1,0.5-0.2,0.6-0.4c0.2-0.2,0.4-0.5,0.5-0.9
													c0.1-0.4,0.2-0.8,0.2-1.4c0-0.7-0.1-1.3-0.4-1.7c-0.2-0.4-0.5-0.7-0.9-0.8c-0.3-0.1-0.7-0.1-1.2-0.1h-1.5V12.2z"/>
												<path class="st0" d="M41.8,12.4c-0.3,0.3-0.6,0.5-0.9,0.6c-0.3,0.1-0.6,0.2-1,0.2c-0.6,0-1-0.1-1.3-0.4
													c-0.3-0.3-0.5-0.6-0.5-1.1c0-0.3,0.1-0.5,0.2-0.7c0.1-0.2,0.3-0.4,0.5-0.5c0.2-0.1,0.4-0.2,0.6-0.3
													c0.2,0,0.4-0.1,0.8-0.1c0.7-0.1,1.2-0.2,1.6-0.3c0-0.1,0-0.2,0-0.2c0-0.4-0.1-0.6-0.2-0.8c-0.2-0.2-0.6-0.3-1-0.3
													c-0.4,0-0.7,0.1-0.9,0.2c-0.2,0.1-0.3,0.4-0.4,0.8l-0.9-0.1c0.1-0.4,0.2-0.7,0.4-0.9C38.8,8.2,39,8,39.4,7.9
													c0.3-0.1,0.7-0.2,1.2-0.2c0.4,0,0.8,0.1,1.1,0.2s0.5,0.2,0.6,0.4c0.1,0.2,0.2,0.4,0.3,0.6c0,0.1,0,0.4,0,0.8v1.2
													c0,0.8,0,1.3,0.1,1.5c0,0.2,0.1,0.4,0.2,0.6h-0.9C41.8,12.8,41.8,12.6,41.8,12.4z M41.7,10.4c-0.3,0.1-0.8,0.2-1.4,0.3
													c-0.4,0.1-0.6,0.1-0.8,0.2s-0.3,0.2-0.3,0.3c-0.1,0.1-0.1,0.3-0.1,0.4c0,0.2,0.1,0.4,0.3,0.6c0.2,0.2,0.4,0.2,0.8,0.2
													c0.3,0,0.6-0.1,0.9-0.2c0.3-0.1,0.5-0.4,0.6-0.6c0.1-0.2,0.1-0.5,0.1-0.9V10.4z"/>
												<path class="st0" d="M43.6,11.5l0.9-0.1c0,0.3,0.2,0.6,0.4,0.8c0.2,0.2,0.5,0.3,0.9,0.3c0.4,0,0.7-0.1,0.9-0.2
													c0.2-0.2,0.3-0.4,0.3-0.6c0-0.2-0.1-0.4-0.3-0.5c-0.1-0.1-0.4-0.2-0.9-0.3c-0.6-0.2-1.1-0.3-1.3-0.4
													c-0.3-0.1-0.4-0.3-0.6-0.5c-0.1-0.2-0.2-0.4-0.2-0.7c0-0.2,0.1-0.4,0.2-0.6c0.1-0.2,0.3-0.4,0.4-0.5
													c0.1-0.1,0.3-0.2,0.6-0.3c0.2-0.1,0.5-0.1,0.8-0.1c0.4,0,0.8,0.1,1.1,0.2C47,8,47.2,8.1,47.4,8.3
													c0.1,0.2,0.2,0.5,0.3,0.8l-0.9,0.1c0-0.3-0.2-0.5-0.3-0.6c-0.2-0.1-0.5-0.2-0.8-0.2c-0.4,0-0.7,0.1-0.9,0.2
													s-0.3,0.3-0.3,0.5c0,0.1,0,0.2,0.1,0.3c0.1,0.1,0.2,0.2,0.3,0.2c0.1,0,0.3,0.1,0.8,0.2c0.6,0.2,1.1,0.3,1.3,0.4
													c0.2,0.1,0.4,0.3,0.6,0.5s0.2,0.5,0.2,0.8c0,0.3-0.1,0.6-0.3,0.8c-0.2,0.3-0.4,0.5-0.7,0.6c-0.3,0.1-0.7,0.2-1.1,0.2
													c-0.7,0-1.2-0.1-1.5-0.4C43.9,12.4,43.7,12,43.6,11.5z"/>
												<path class="st0" d="M48.9,13V5.8h0.9v2.6c0.4-0.5,0.9-0.7,1.6-0.7c0.4,0,0.7,0.1,1,0.2c0.3,0.2,0.5,0.4,0.6,0.6
													c0.1,0.3,0.2,0.7,0.2,1.2V13h-0.9V9.7c0-0.4-0.1-0.8-0.3-1c-0.2-0.2-0.5-0.3-0.8-0.3c-0.3,0-0.5,0.1-0.7,0.2
													C50.2,8.8,50.1,9,50,9.2s-0.1,0.5-0.1,1V13H48.9z"/>
												<path class="st0" d="M55.3,13h-0.8V5.8h0.9v2.6c0.4-0.5,0.8-0.7,1.4-0.7c0.3,0,0.6,0.1,0.9,0.2C58,8,58.2,8.2,58.4,8.4
													c0.2,0.2,0.3,0.5,0.4,0.8S59,10,59,10.3c0,0.9-0.2,1.6-0.7,2.1s-1,0.7-1.6,0.7c-0.6,0-1.1-0.3-1.4-0.8V13z M55.3,10.4
													c0,0.6,0.1,1.1,0.3,1.3c0.3,0.5,0.7,0.7,1.1,0.7c0.4,0,0.7-0.2,1-0.5c0.3-0.3,0.4-0.8,0.4-1.5c0-0.7-0.1-1.2-0.4-1.5
													c-0.3-0.3-0.6-0.5-1-0.5c-0.4,0-0.7,0.2-1,0.5C55.4,9.3,55.3,9.7,55.3,10.4z"/>
												<path class="st0" d="M59.7,10.4c0-1,0.3-1.7,0.8-2.1c0.4-0.4,1-0.6,1.6-0.6c0.7,0,1.3,0.2,1.7,0.7
													c0.5,0.5,0.7,1.1,0.7,1.9c0,0.7-0.1,1.2-0.3,1.6c-0.2,0.4-0.5,0.7-0.9,0.9c-0.4,0.2-0.8,0.3-1.3,0.3
													c-0.7,0-1.3-0.2-1.8-0.7C60,12,59.7,11.3,59.7,10.4z M60.6,10.4c0,0.7,0.1,1.2,0.4,1.5c0.3,0.3,0.7,0.5,1.1,0.5
													c0.4,0,0.8-0.2,1.1-0.5s0.4-0.8,0.4-1.5c0-0.6-0.1-1.1-0.4-1.5c-0.3-0.3-0.7-0.5-1.1-0.5c-0.4,0-0.8,0.2-1.1,0.5
													S60.6,9.7,60.6,10.4z"/>
												<path class="st0" d="M69,12.4c-0.3,0.3-0.6,0.5-0.9,0.6c-0.3,0.1-0.6,0.2-1,0.2c-0.6,0-1-0.1-1.3-0.4
													c-0.3-0.3-0.5-0.6-0.5-1.1c0-0.3,0.1-0.5,0.2-0.7c0.1-0.2,0.3-0.4,0.5-0.5c0.2-0.1,0.4-0.2,0.6-0.3
													c0.2,0,0.4-0.1,0.8-0.1c0.7-0.1,1.2-0.2,1.6-0.3c0-0.1,0-0.2,0-0.2c0-0.4-0.1-0.6-0.2-0.8c-0.2-0.2-0.6-0.3-1-0.3
													c-0.4,0-0.7,0.1-0.9,0.2c-0.2,0.1-0.3,0.4-0.4,0.8l-0.9-0.1c0.1-0.4,0.2-0.7,0.4-0.9C66,8.2,66.3,8,66.6,7.9
													c0.3-0.1,0.7-0.2,1.2-0.2c0.4,0,0.8,0.1,1.1,0.2s0.5,0.2,0.6,0.4c0.1,0.2,0.2,0.4,0.3,0.6c0,0.1,0,0.4,0,0.8v1.2
													c0,0.8,0,1.3,0.1,1.5c0,0.2,0.1,0.4,0.2,0.6h-0.9C69.1,12.8,69,12.6,69,12.4z M68.9,10.4c-0.3,0.1-0.8,0.2-1.4,0.3
													c-0.4,0.1-0.6,0.1-0.8,0.2s-0.3,0.2-0.3,0.3c-0.1,0.1-0.1,0.3-0.1,0.4c0,0.2,0.1,0.4,0.3,0.6c0.2,0.2,0.4,0.2,0.8,0.2
													c0.3,0,0.6-0.1,0.9-0.2c0.3-0.1,0.5-0.4,0.6-0.6c0.1-0.2,0.1-0.5,0.1-0.9V10.4z"/>
												<path class="st0" d="M71.2,13V7.8H72v0.8c0.2-0.4,0.4-0.6,0.6-0.7c0.2-0.1,0.4-0.2,0.6-0.2c0.3,0,0.6,0.1,0.9,0.3
													l-0.3,0.8c-0.2-0.1-0.4-0.2-0.6-0.2c-0.2,0-0.4,0.1-0.5,0.2c-0.2,0.1-0.3,0.3-0.3,0.5c-0.1,0.3-0.1,0.7-0.1,1V13H71.2z"
													/>
												<path class="st0" d="M77.9,13v-0.7c-0.3,0.5-0.8,0.8-1.5,0.8c-0.4,0-0.8-0.1-1.1-0.3c-0.3-0.2-0.6-0.5-0.8-1
													c-0.2-0.4-0.3-0.9-0.3-1.4c0-0.5,0.1-1,0.3-1.4c0.2-0.4,0.4-0.7,0.8-1s0.7-0.3,1.2-0.3c0.3,0,0.6,0.1,0.8,0.2
													c0.2,0.1,0.4,0.3,0.6,0.5V5.8h0.9V13H77.9z M75.1,10.4c0,0.7,0.1,1.2,0.4,1.5s0.6,0.5,1,0.5c0.4,0,0.7-0.2,1-0.5
													c0.3-0.3,0.4-0.8,0.4-1.4c0-0.7-0.1-1.2-0.4-1.6s-0.6-0.5-1-0.5c-0.4,0-0.7,0.2-1,0.5C75.2,9.2,75.1,9.7,75.1,10.4z"/>
											</g>
										</g>
									</g>
								</g>
							</g>
						</g>
					</g>
				</g>
			</g>
		</g>
	</g>
</g>
</svg>
