<?xml version="1.0" encoding="UTF-8"?>
<svg width="230px" height="120px" viewBox="0 0 230 120" version="1.1" xmlns="http://www.w3.org/2000/svg" xmlns:xlink="http://www.w3.org/1999/xlink">
    <!-- Generator: sketchtool 59.1 (101010) - https://sketch.com -->
    <title>ADC3EC07-4EC9-409A-97B8-5D286EEBA95C</title>
    <desc>Created with sketchtool.</desc>
    <g id="Pages" stroke="none" stroke-width="1" fill="none" fill-rule="evenodd">
        <g id="Commercial-Solution" transform="translate(-957.000000, -932.000000)">
            <g id="section-2" transform="translate(96.000000, 735.000000)">
                <g id="cards" transform="translate(0.000000, 197.000000)">
                    <g id="illustrations">
                        <g id="parking" transform="translate(861.000000, 0.000000)">
                            <polygon id="Fill-1" fill="#FFFFFF" points="0 120 230 120 230 0 0 0"></polygon>
                            <line x1="31" y1="119" x2="199" y2="119" id="Stroke-2" stroke="#46BBC4" stroke-width="2" stroke-linecap="round" stroke-linejoin="round"></line>
                            <path d="M94,110 C94,112.762 91.762,115 89,115 C86.238,115 84,112.762 84,110 C84,107.238 86.238,105 89,105 C91.762,105 94,107.238 94,110" id="Fill-4" fill="#1C7F8A"></path>
                            <path d="M94,110 C94,112.762 91.762,115 89,115 C86.238,115 84,112.762 84,110 C84,107.238 86.238,105 89,105 C91.762,105 94,107.238 94,110 Z" id="Stroke-6" stroke="#1C7F8A" stroke-width="2" stroke-linecap="round" stroke-linejoin="round"></path>
                            <path d="M136,110 C136,112.762 133.762,115 131,115 C128.238,115 126,112.762 126,110 C126,107.238 128.238,105 131,105 C133.762,105 136,107.238 136,110" id="Fill-8" fill="#1C7F8A"></path>
                            <path d="M136,110 C136,112.762 133.762,115 131,115 C128.238,115 126,112.762 126,110 C126,107.238 128.238,105 131,105 C133.762,105 136,107.238 136,110 Z" id="Stroke-10" stroke="#1C7F8A" stroke-width="2" stroke-linecap="round" stroke-linejoin="round"></path>
                            <path d="M175,110 C175,112.762 172.762,115 170,115 C167.238,115 165,112.762 165,110 C165,107.238 167.238,105 170,105 C172.762,105 175,107.238 175,110" id="Fill-12" fill="#1C7F8A"></path>
                            <path d="M175,110 C175,112.762 172.762,115 170,115 C167.238,115 165,112.762 165,110 C165,107.238 167.238,105 170,105 C172.762,105 175,107.238 175,110 Z" id="Stroke-14" stroke="#1C7F8A" stroke-width="2" stroke-linecap="round" stroke-linejoin="round"></path>
                            <line x1="98" y1="111" x2="122" y2="111" id="Stroke-16" stroke="#46BBC4" stroke-width="2" stroke-linecap="round" stroke-linejoin="round"></line>
                            <path d="M81,111 C75,111 74,110 74,108 C74,106 74,104 76,103 L75,100 L79,93 L78,91 C78,91 84,89 104,89 C114,89 120,94 123,98 C123,98 137,99 141,101 C142.24,102.24 142.327,105.401 142.214,107.625 C142.141,109.068 141.292,110.354 140,111" id="Stroke-18" stroke="#46BBC4" stroke-width="2" stroke-linecap="round" stroke-linejoin="round"></path>
                            <line x1="118" y1="98" x2="82" y2="96" id="Stroke-20" stroke="#A7DFE3" stroke-width="2" stroke-linecap="round" stroke-linejoin="round"></line>
                            <line x1="104" y1="93.25" x2="105" y2="97" id="Stroke-22" stroke="#A7DFE3" stroke-width="2" stroke-linecap="round" stroke-linejoin="round"></line>
                            <line x1="92.9199" y1="96.6104" x2="91.9999" y2="93.2504" id="Stroke-24" stroke="#A7DFE3" stroke-width="2" stroke-linecap="round" stroke-linejoin="round"></line>
                            <path d="M179,110 L183,110 C184.657,110 186,108.657 186,107 L186,97 C186,95.343 184.657,94 183,94 L179,84 L182,84 C182,84 181,78 174,78 L165,78" id="Stroke-26" stroke="#46BBC4" stroke-width="2" stroke-linecap="round" stroke-linejoin="round"></path>
                            <path d="M146,110 L161,110 L161,77 C161,75.896 160.104,75 159,75 L123,75 C121.896,75 121,75.896 121,77 L121,90" id="Stroke-28" stroke="#F4BA67" stroke-width="2" stroke-linecap="round" stroke-linejoin="round"></path>
                            <line x1="153" y1="79" x2="153" y2="106" id="Stroke-30" stroke="#FDEFDB" stroke-width="2" stroke-linecap="round" stroke-linejoin="round"></line>
                            <line x1="145" y1="79" x2="145" y2="97" id="Stroke-32" stroke="#FDEFDB" stroke-width="2" stroke-linecap="round" stroke-linejoin="round"></line>
                            <line x1="137" y1="79" x2="137" y2="95" id="Stroke-34" stroke="#FDEFDB" stroke-width="2" stroke-linecap="round" stroke-linejoin="round"></line>
                            <line x1="129" y1="79" x2="129" y2="94" id="Stroke-36" stroke="#FDEFDB" stroke-width="2" stroke-linecap="round" stroke-linejoin="round"></line>
                            <polyline id="Stroke-38" stroke="#A7DFE3" stroke-width="2" stroke-linecap="round" stroke-linejoin="round" points="178 93.5 167 93.08 167 84 175 84"></polyline>
                            <line x1="60.0605" y1="54" x2="53.0605" y2="47" id="Stroke-40" stroke="#A5CD7F" stroke-width="2" stroke-linecap="round" stroke-linejoin="round"></line>
                            <line x1="60.0605" y1="70" x2="72.0605" y2="58" id="Stroke-42" stroke="#A5CD7F" stroke-width="2" stroke-linecap="round" stroke-linejoin="round"></line>
                            <line x1="60.0605" y1="115" x2="60.0605" y2="34" id="Stroke-44" stroke="#A5CD7F" stroke-width="2" stroke-linecap="round" stroke-linejoin="round"></line>
                            <path d="M78.9697,45.5801 C78.9807,45.3901 78.9997,45.2001 78.9997,45.0001 C78.9997,34.5301 70.5227,26.0361 60.0607,26.0031 L60.0607,26.0001 L59.9997,26.0001 L59.9397,26.0001 L59.9397,26.0031 C49.4777,26.0361 40.9997,34.5301 40.9997,45.0001 C40.9997,45.2001 41.0197,45.3901 41.0307,45.5801 C35.2307,47.2901 30.9997,52.6501 30.9997,59.0001 C30.9997,65.7101 35.7307,71.3201 42.0307,72.6801 C42.3497,78.3501 46.5997,82.9701 52.1197,83.8401 C52.7337,87.7111 55.9557,90.7151 59.9397,90.9691 L59.9397,90.9801 C59.9597,90.9781 59.9797,90.9761 59.9997,90.9751 C60.0207,90.9761 60.0397,90.9781 60.0607,90.9801 L60.0607,90.9691 C64.0437,90.7151 67.2667,87.7111 67.8797,83.8401 C73.4007,82.9701 77.6507,78.3501 77.9697,72.6801 C84.2697,71.3201 88.9997,65.7101 88.9997,59.0001 C88.9997,52.6501 84.7697,47.2901 78.9697,45.5801 Z" id="Stroke-46" stroke="#A5CD7F" stroke-width="2" stroke-linecap="round" stroke-linejoin="round"></path>
                            <path d="M132,40 C132,40 134,40 135,42 C136,40 138,40 138,40" id="Stroke-48" stroke="#FDEFDB" stroke-width="2" stroke-linecap="round" stroke-linejoin="round"></path>
                            <path d="M168,55 C168,55 170,55 171,57 C172,55 174,55 174,55" id="Stroke-50" stroke="#FDEFDB" stroke-width="2" stroke-linecap="round" stroke-linejoin="round"></path>
                            <path d="M183,30 C183,30 185,30 186,32 C187,30 189,30 189,30" id="Stroke-52" stroke="#FDEFDB" stroke-width="2" stroke-linecap="round" stroke-linejoin="round"></path>
                            <path d="M88.2998,46.9199 C88.8608,46.9699 89.4298,46.9999 89.9998,46.9999 C100.4898,46.9999 108.9998,38.4899 108.9998,27.9999 C108.9998,17.5099 100.4898,8.9999 89.9998,8.9999 C80.5498,8.9999 72.6998,15.9099 71.2498,24.9599" id="Stroke-54" stroke="#FDEFDB" stroke-width="2" stroke-linecap="round" stroke-linejoin="round"></path>
                        </g>
                    </g>
                </g>
            </g>
        </g>
    </g>
</svg>