<?xml version="1.0" encoding="utf-8"?>
<!-- Generator: Adobe Illustrator 21.0.0, SVG Export Plug-In . SVG Version: 6.00 Build 0)  -->
<svg version="1.1" id="Слой_1" xmlns="http://www.w3.org/2000/svg" xmlns:xlink="http://www.w3.org/1999/xlink" x="0px" y="0px"
	 viewBox="0 0 242 134" style="enable-background:new 0 0 242 134;" xml:space="preserve">
<style type="text/css">
	.st0{fill:#FFFFFF;}
	.st1{fill:#D3EFF1;}
	.st2{fill:#FFFFFF;stroke:#000000;stroke-opacity:0.12;}
	.st3{enable-background:new    ;}
	.st4{fill:#525252;}
	.st5{opacity:0.64;fill:#46BBC4;enable-background:new    ;}
	.st6{opacity:0.32;fill:#46BBC4;enable-background:new    ;}
</style>
<g>
	<rect id="path-1" class="st0" width="242" height="134"/>
</g>
<title>6A45CFD6-1135-4526-AB40-0319B3B3B0B0</title>
<desc>Created with sketchtool.</desc>
<g id="Pricing">
	<g id="Pricing---Core-Features" transform="translate(-957.000000, -2331.000000)">
		<g id="section-3" transform="translate(81.000000, 1194.000000)">
			<g id="list" transform="translate(0.000000, 109.000000)">
				<g id="item" transform="translate(876.000000, 1028.000000)">
					<g id="image">
						<g id="property-mgmt-agreements">
							<g id="mask">
								<rect id="path-1_1_" class="st1" width="242" height="134"/>
							</g>
							<g id="design">
								<g transform="translate(48.000000, 18.000000)">
									
										<g id="_x32_" transform="translate(60.988295, 69.982948) rotate(-4.000000) translate(-60.988295, -69.982948) translate(4.488295, 8.982948)">
										<g id="box">
											<g>
												<path id="path-3_1_" d="M2,0l109,0c1.1,0,2,0.9,2,2l0,120l0,0L0,122L0,2C0,0.9,0.9,0,2,0z"/>
											</g>
											<path class="st2" d="M2-0.5l109,0c1.4,0,2.5,1.1,2.5,2.5l0,120.5l-114,0L-0.5,2C-0.5,0.6,0.6-0.5,2-0.5z"/>
										</g>
										<g class="st3">
											<g class="st3">
												<path class="st4" d="M23.7,20.5l0.9,0.2c-0.2,0.8-0.6,1.4-1.1,1.8c-0.5,0.4-1.1,0.6-1.9,0.6c-0.8,0-1.4-0.2-1.9-0.5
													c-0.5-0.3-0.9-0.8-1.1-1.4c-0.3-0.6-0.4-1.2-0.4-1.9c0-0.7,0.1-1.4,0.4-2c0.3-0.6,0.7-1,1.2-1.3
													c0.5-0.3,1.1-0.4,1.7-0.4c0.7,0,1.3,0.2,1.8,0.5c0.5,0.4,0.8,0.9,1,1.5L23.6,18c-0.2-0.5-0.4-0.9-0.7-1.1
													c-0.3-0.2-0.7-0.4-1.2-0.4c-0.6,0-1,0.1-1.4,0.4c-0.4,0.3-0.6,0.6-0.8,1.1c-0.1,0.4-0.2,0.9-0.2,1.4
													c0,0.6,0.1,1.1,0.3,1.6c0.2,0.5,0.5,0.8,0.8,1c0.4,0.2,0.8,0.3,1.2,0.3c0.5,0,1-0.2,1.3-0.5
													C23.4,21.5,23.6,21.1,23.7,20.5z"/>
												<path class="st4" d="M25.4,20.4c0-1,0.3-1.7,0.8-2.1c0.4-0.4,1-0.6,1.6-0.6c0.7,0,1.3,0.2,1.7,0.7
													c0.5,0.5,0.7,1.1,0.7,1.9c0,0.7-0.1,1.2-0.3,1.6c-0.2,0.4-0.5,0.7-0.9,0.9c-0.4,0.2-0.8,0.3-1.3,0.3
													c-0.7,0-1.3-0.2-1.8-0.7C25.6,22,25.4,21.3,25.4,20.4z M26.3,20.4c0,0.7,0.1,1.2,0.4,1.5c0.3,0.3,0.7,0.5,1.1,0.5
													c0.4,0,0.8-0.2,1.1-0.5c0.3-0.3,0.4-0.8,0.4-1.5c0-0.6-0.1-1.1-0.4-1.5c-0.3-0.3-0.7-0.5-1.1-0.5
													c-0.4,0-0.8,0.2-1.1,0.5C26.5,19.2,26.3,19.7,26.3,20.4z"/>
												<path class="st4" d="M31.3,23l0-5.2l0.8,0l0,0.7c0.2-0.3,0.4-0.5,0.6-0.6c0.3-0.2,0.6-0.2,0.9-0.2
													c0.4,0,0.7,0.1,0.9,0.2c0.2,0.2,0.4,0.4,0.5,0.7c0.4-0.6,0.9-0.9,1.6-0.9c0.5,0,0.9,0.1,1.2,0.4
													c0.3,0.3,0.4,0.7,0.4,1.3l0,3.6l-0.9,0l0-3.3c0-0.4,0-0.6-0.1-0.8c-0.1-0.2-0.2-0.3-0.3-0.4c-0.1-0.1-0.3-0.1-0.5-0.1
													c-0.4,0-0.7,0.1-0.9,0.4c-0.2,0.2-0.4,0.6-0.4,1.2l0,3l-0.9,0l0-3.4c0-0.4-0.1-0.7-0.2-0.9c-0.1-0.2-0.4-0.3-0.7-0.3
													c-0.2,0-0.5,0.1-0.7,0.2s-0.4,0.3-0.5,0.6c-0.1,0.3-0.1,0.6-0.1,1.1l0,2.7L31.3,23z"/>
												<path class="st4" d="M39.6,23l0-5.2l0.8,0l0,0.7c0.2-0.3,0.4-0.5,0.6-0.6c0.3-0.2,0.6-0.2,0.9-0.2
													c0.4,0,0.7,0.1,0.9,0.2c0.2,0.2,0.4,0.4,0.5,0.7c0.4-0.6,0.9-0.9,1.6-0.9c0.5,0,0.9,0.1,1.2,0.4
													c0.3,0.3,0.4,0.7,0.4,1.3l0,3.6l-0.9,0l0-3.3c0-0.4,0-0.6-0.1-0.8s-0.2-0.3-0.3-0.4c-0.1-0.1-0.3-0.1-0.5-0.1
													c-0.4,0-0.7,0.1-0.9,0.4c-0.2,0.2-0.4,0.6-0.4,1.2l0,3l-0.9,0l0-3.4c0-0.4-0.1-0.7-0.2-0.9c-0.1-0.2-0.4-0.3-0.7-0.3
													c-0.2,0-0.5,0.1-0.7,0.2s-0.4,0.3-0.5,0.6c-0.1,0.3-0.1,0.6-0.1,1.1l0,2.7L39.6,23z"/>
												<path class="st4" d="M51.4,23l0-0.8c-0.4,0.6-1,0.9-1.6,0.9c-0.3,0-0.6-0.1-0.9-0.2c-0.3-0.1-0.5-0.3-0.6-0.4
													c-0.1-0.2-0.2-0.4-0.3-0.7c0-0.2-0.1-0.4-0.1-0.8l0-3.2l0.9,0l0,2.9c0,0.5,0,0.8,0.1,0.9c0.1,0.2,0.2,0.4,0.4,0.5
													c0.2,0.1,0.4,0.2,0.7,0.2c0.3,0,0.5-0.1,0.7-0.2c0.2-0.1,0.4-0.3,0.5-0.6c0.1-0.2,0.1-0.6,0.1-1l0-2.8l0.9,0l0,5.2
													L51.4,23z"/>
												<path class="st4" d="M53.5,23l0-5.2l0.8,0l0,0.7c0.4-0.6,0.9-0.9,1.6-0.9c0.3,0,0.6,0.1,0.9,0.2
													c0.3,0.1,0.5,0.3,0.6,0.4c0.1,0.2,0.2,0.4,0.3,0.6c0,0.2,0,0.4,0,0.9l0,3.2l-0.9,0l0-3.2c0-0.4,0-0.6-0.1-0.8
													c-0.1-0.2-0.2-0.3-0.4-0.4c-0.2-0.1-0.4-0.2-0.6-0.2c-0.4,0-0.7,0.1-1,0.4c-0.3,0.2-0.4,0.7-0.4,1.4l0,2.8L53.5,23z"/>
												<path class="st4" d="M59.1,16.9l0-1l0.9,0l0,1L59.1,16.9z M59.1,23l0-5.2l0.9,0l0,5.2L59.1,23z"/>
												<path class="st4" d="M63.2,22.2l0.1,0.8c-0.2,0.1-0.5,0.1-0.7,0.1c-0.3,0-0.6-0.1-0.7-0.2c-0.2-0.1-0.3-0.2-0.4-0.4
													c-0.1-0.2-0.1-0.5-0.1-1l0-3l-0.6,0l0-0.7l0.6,0l0-1.3l0.9-0.5l0,1.8l0.9,0l0,0.7l-0.9,0l0,3c0,0.3,0,0.4,0,0.5
													c0,0.1,0.1,0.1,0.2,0.2c0.1,0,0.2,0.1,0.3,0.1C62.9,22.2,63.1,22.2,63.2,22.2z"/>
												<path class="st4" d="M64.1,25L64,24.2c0.2,0.1,0.4,0.1,0.5,0.1c0.2,0,0.4,0,0.5-0.1c0.1-0.1,0.2-0.2,0.3-0.3
													c0.1-0.1,0.1-0.3,0.3-0.7c0,0,0-0.1,0.1-0.2l-2-5.2l0.9,0l1.1,3c0.1,0.4,0.3,0.8,0.4,1.2c0.1-0.4,0.2-0.8,0.4-1.2l1.1-3
													l0.9,0l-2,5.3c-0.2,0.6-0.4,1-0.5,1.2c-0.2,0.3-0.3,0.5-0.5,0.6c-0.2,0.1-0.4,0.2-0.7,0.2C64.5,25.1,64.3,25.1,64.1,25z
													"/>
												<path class="st4" d="M72,23l0-7.2l4.8,0l0,0.8l-3.9,0l0,2.2l3.4,0l0,0.8l-3.4,0l0,3.3L72,23z"/>
												<path class="st4" d="M81.5,21.3l0.9,0.1c-0.1,0.5-0.4,0.9-0.8,1.2c-0.4,0.3-0.9,0.4-1.5,0.4c-0.8,0-1.4-0.2-1.8-0.7
													c-0.4-0.5-0.7-1.1-0.7-2c0-0.9,0.2-1.6,0.7-2c0.4-0.5,1-0.7,1.7-0.7c0.7,0,1.3,0.2,1.7,0.7c0.4,0.5,0.7,1.1,0.7,2
													c0,0.1,0,0.1,0,0.2l-3.9,0c0,0.6,0.2,1,0.5,1.3c0.3,0.3,0.7,0.5,1.1,0.5c0.3,0,0.6-0.1,0.8-0.3
													C81.2,22,81.4,21.7,81.5,21.3z M78.6,19.9l2.9,0c0-0.4-0.2-0.8-0.3-1c-0.3-0.3-0.6-0.5-1.1-0.5c-0.4,0-0.7,0.1-1,0.4
													C78.8,19.1,78.7,19.5,78.6,19.9z"/>
												<path class="st4" d="M87.1,21.3l0.9,0.1c-0.1,0.5-0.4,0.9-0.8,1.2c-0.4,0.3-0.9,0.4-1.5,0.4c-0.8,0-1.4-0.2-1.8-0.7
													c-0.4-0.5-0.7-1.1-0.7-2c0-0.9,0.2-1.6,0.7-2c0.4-0.5,1-0.7,1.7-0.7c0.7,0,1.3,0.2,1.7,0.7c0.4,0.5,0.7,1.1,0.7,2
													c0,0.1,0,0.1,0,0.2l-3.9,0c0,0.6,0.2,1,0.5,1.3c0.3,0.3,0.7,0.5,1.1,0.5c0.3,0,0.6-0.1,0.8-0.3
													C86.8,22,87,21.7,87.1,21.3z M84.2,19.9l2.9,0c0-0.4-0.2-0.8-0.3-1c-0.3-0.3-0.6-0.5-1.1-0.5c-0.4,0-0.7,0.1-1,0.4
													C84.4,19.1,84.2,19.5,84.2,19.9z"/>
												<path class="st4" d="M88.8,21.5l0.9-0.1c0,0.3,0.2,0.6,0.4,0.8c0.2,0.2,0.5,0.3,0.9,0.3c0.4,0,0.7-0.1,0.9-0.2
													c0.2-0.2,0.3-0.4,0.3-0.6c0-0.2-0.1-0.4-0.3-0.5c-0.1-0.1-0.4-0.2-0.9-0.3c-0.6-0.2-1.1-0.3-1.3-0.4
													c-0.2-0.1-0.4-0.3-0.6-0.5c-0.1-0.2-0.2-0.4-0.2-0.7c0-0.2,0.1-0.4,0.2-0.6c0.1-0.2,0.3-0.4,0.4-0.5
													c0.1-0.1,0.3-0.2,0.6-0.3c0.2-0.1,0.5-0.1,0.8-0.1c0.4,0,0.8,0.1,1.1,0.2c0.3,0.1,0.5,0.3,0.7,0.5
													c0.1,0.2,0.2,0.5,0.3,0.8L92,19.3c0-0.3-0.2-0.5-0.3-0.6c-0.2-0.2-0.5-0.2-0.8-0.2c-0.4,0-0.7,0.1-0.9,0.2
													c-0.2,0.1-0.3,0.3-0.3,0.5c0,0.1,0,0.2,0.1,0.3c0.1,0.1,0.2,0.2,0.3,0.2c0.1,0,0.3,0.1,0.8,0.2c0.6,0.2,1.1,0.3,1.3,0.4
													c0.2,0.1,0.4,0.3,0.6,0.5c0.1,0.2,0.2,0.5,0.2,0.8c0,0.3-0.1,0.6-0.3,0.8c-0.2,0.3-0.4,0.5-0.7,0.6
													c-0.3,0.1-0.7,0.2-1.1,0.2c-0.7,0-1.2-0.1-1.5-0.4C89.1,22.4,88.9,22,88.8,21.5z"/>
											</g>
										</g>
										<g id="text" transform="translate(8.000000, 39.000000)">
											<path id="Rectangle" class="st5" d="M2,0l44,0c1.1,0,2,0.9,2,2c0,1.1-0.9,2-2,2L2,4C0.9,4,0,3.1,0,2S0.9,0,2,0z"/>
											<path id="Rectangle_1_" class="st6" d="M1,8l22,0c0.6,0,1,0.4,1,1c0,0.6-0.4,1-1,1L1,10c-0.6,0-1-0.4-1-1
												C0,8.4,0.4,8,1,8z"/>
											<path id="Rectangle_2_" class="st6" d="M29,8l38,0c0.6,0,1,0.4,1,1s-0.4,1-1,1l-38,0c-0.6,0-1-0.4-1-1S28.4,8,29,8z"/>
											<path id="Rectangle_3_" class="st6" d="M73,8l23,0c0.6,0,1,0.4,1,1s-0.4,1-1,1l-23,0c-0.6,0-1-0.4-1-1
												C72,8.4,72.4,8,73,8z"/>
											<path id="Rectangle_4_" class="st6" d="M1,14l32,0c0.6,0,1,0.4,1,1s-0.4,1-1,1L1,16c-0.6,0-1-0.4-1-1C0,14.4,0.4,14,1,14
												z"/>
											<path id="Rectangle_5_" class="st6" d="M39,14l14,0c0.6,0,1,0.4,1,1s-0.4,1-1,1l-14,0c-0.6,0-1-0.4-1-1S38.4,14,39,14z"
												/>
											<path id="Rectangle_6_" class="st6" d="M59,14l23,0c0.6,0,1,0.4,1,1s-0.4,1-1,1l-23,0c-0.6,0-1-0.4-1-1
												C58,14.4,58.4,14,59,14z"/>
											<path id="Rectangle_7_" class="st6" d="M1,20l10,0c0.6,0,1,0.4,1,1c0,0.6-0.4,1-1,1L1,22c-0.6,0-1-0.4-1-1
												C0,20.4,0.4,20,1,20z"/>
											<path id="Rectangle_8_" class="st6" d="M17,20l27,0c0.6,0,1,0.4,1,1c0,0.6-0.4,1-1,1l-27,0c-0.6,0-1-0.4-1-1
												S16.4,20,17,20z"/>
											<path id="Rectangle_9_" class="st6" d="M50,20l40,0c0.6,0,1,0.4,1,1s-0.4,1-1,1l-40,0c-0.6,0-1-0.4-1-1
												C49,20.4,49.4,20,50,20z"/>
											<path id="Rectangle_10_" class="st6" d="M1,38l14,0c0.6,0,1,0.4,1,1s-0.4,1-1,1L1,40c-0.6,0-1-0.4-1-1
												C0,38.4,0.4,38,1,38z"/>
											<path id="Rectangle_11_" class="st6" d="M21,38l30,0c0.6,0,1,0.4,1,1s-0.4,1-1,1l-30,0c-0.6,0-1-0.4-1-1
												C20,38.4,20.4,38,21,38z"/>
											<path id="Rectangle_12_" class="st6" d="M57,38l23,0c0.6,0,1,0.4,1,1s-0.4,1-1,1l-23,0c-0.6,0-1-0.4-1-1S56.4,38,57,38z"
												/>
											<path id="Rectangle_13_" class="st6" d="M1,44l29,0c0.6,0,1,0.4,1,1s-0.4,1-1,1L1,46c-0.6,0-1-0.4-1-1S0.4,44,1,44z"/>
											<path id="Rectangle_14_" class="st6" d="M36,44l33,0c0.6,0,1,0.4,1,1s-0.4,1-1,1l-33,0c-0.6,0-1-0.4-1-1
												C35,44.4,35.4,44,36,44z"/>
											<path id="Rectangle_15_" class="st6" d="M75,44l21,0c0.6,0,1,0.4,1,1s-0.4,1-1,1l-21,0c-0.6,0-1-0.4-1-1S74.4,44,75,44z"
												/>
											<path id="Rectangle_16_" class="st6" d="M1,50l19,0c0.6,0,1,0.4,1,1c0,0.6-0.4,1-1,1L1,52c-0.6,0-1-0.4-1-1
												C0,50.4,0.4,50,1,50z"/>
											<path id="Rectangle_17_" class="st6" d="M26,50l32,0c0.6,0,1,0.4,1,1s-0.4,1-1,1l-32,0c-0.6,0-1-0.4-1-1S25.4,50,26,50z"
												/>
											<path id="Rectangle_18_" class="st6" d="M64,50l32,0c0.6,0,1,0.4,1,1s-0.4,1-1,1l-32,0c-0.6,0-1-0.4-1-1S63.4,50,64,50z"
												/>
										</g>
									</g>
									
										<g id="_x31_" transform="translate(82.937166, 71.863270) rotate(10.000000) translate(-82.937166, -71.863270) translate(26.437166, 8.863270)">
										<g id="box_1_">
											<g>
												<path id="path-5_1_" d="M2,0l109,0c1.1,0,2,0.9,2,2l0,124l0,0L0,126L0,2C0,0.9,0.9,0,2,0z"/>
											</g>
											<path class="st2" d="M2-0.5l109,0c1.4,0,2.5,1.1,2.5,2.5l0,124.5l-114,0L-0.5,2C-0.5,0.6,0.6-0.5,2-0.5z"/>
										</g>
										<g class="st3">
											<g class="st3">
												<path class="st4" d="M15.5,23l2.7-7.2l1,0l2.9,7.2l-1.1,0l-0.8-2.2l-3,0L16.6,23L15.5,23z M17.6,20.1l2.4,0l-0.7-2
													c-0.2-0.6-0.4-1.1-0.5-1.5c-0.1,0.5-0.2,0.9-0.4,1.4L17.6,20.1z"/>
												<path class="st4" d="M22.7,23.4l0.9,0.1c0,0.3,0.1,0.5,0.3,0.6c0.2,0.2,0.5,0.2,0.9,0.2c0.4,0,0.7-0.1,0.9-0.2
													c0.2-0.2,0.4-0.4,0.4-0.7c0-0.2,0.1-0.6,0.1-1.1c-0.4,0.5-0.9,0.7-1.4,0.7c-0.7,0-1.3-0.3-1.7-0.8
													c-0.4-0.5-0.6-1.1-0.6-1.9c0-0.5,0.1-1,0.3-1.4c0.2-0.4,0.4-0.7,0.8-1c0.3-0.2,0.7-0.3,1.2-0.3c0.6,0,1.1,0.2,1.5,0.7
													l0-0.6l0.8,0l0,4.5c0,0.8-0.1,1.4-0.2,1.7c-0.2,0.3-0.4,0.6-0.8,0.8c-0.4,0.2-0.8,0.3-1.3,0.3c-0.6,0-1.1-0.1-1.5-0.4
													C22.9,24.4,22.7,24,22.7,23.4z M23.5,20.3c0,0.7,0.1,1.2,0.4,1.5c0.3,0.3,0.6,0.5,1,0.5c0.4,0,0.7-0.2,1-0.5
													c0.3-0.3,0.4-0.8,0.4-1.5c0-0.6-0.1-1.1-0.4-1.4c-0.3-0.3-0.6-0.5-1-0.5c-0.4,0-0.7,0.2-1,0.5
													C23.6,19.2,23.5,19.7,23.5,20.3z"/>
												<path class="st4" d="M28.4,23l0-5.2l0.8,0l0,0.8c0.2-0.4,0.4-0.6,0.6-0.7c0.2-0.1,0.4-0.2,0.6-0.2
													c0.3,0,0.6,0.1,0.9,0.3L31,18.8c-0.2-0.1-0.4-0.2-0.6-0.2c-0.2,0-0.4,0.1-0.5,0.2c-0.2,0.1-0.3,0.3-0.3,0.5
													c-0.1,0.3-0.1,0.7-0.1,1l0,2.7L28.4,23z"/>
												<path class="st4" d="M35.3,21.3l0.9,0.1c-0.1,0.5-0.4,0.9-0.8,1.2c-0.4,0.3-0.9,0.4-1.5,0.4c-0.8,0-1.4-0.2-1.8-0.7
													c-0.4-0.5-0.7-1.1-0.7-2c0-0.9,0.2-1.5,0.7-2c0.4-0.5,1-0.7,1.7-0.7c0.7,0,1.3,0.2,1.7,0.7s0.7,1.1,0.7,2
													c0,0.1,0,0.1,0,0.2l-3.9,0c0,0.6,0.2,1,0.5,1.3c0.3,0.3,0.7,0.5,1.1,0.5c0.3,0,0.6-0.1,0.8-0.3
													C35,22,35.2,21.7,35.3,21.3z M32.4,19.9l2.9,0c0-0.4-0.1-0.8-0.3-1c-0.3-0.3-0.6-0.5-1.1-0.5c-0.4,0-0.7,0.1-1,0.4
													C32.6,19.1,32.5,19.5,32.4,19.9z"/>
												<path class="st4" d="M40.9,21.3l0.9,0.1c-0.1,0.5-0.4,0.9-0.8,1.2c-0.4,0.3-0.9,0.4-1.5,0.4c-0.8,0-1.4-0.2-1.8-0.7
													c-0.4-0.5-0.7-1.1-0.7-2c0-0.9,0.2-1.5,0.7-2c0.4-0.5,1-0.7,1.7-0.7c0.7,0,1.3,0.2,1.7,0.7c0.4,0.5,0.7,1.1,0.7,2
													c0,0.1,0,0.1,0,0.2l-3.9,0c0,0.6,0.2,1,0.5,1.3c0.3,0.3,0.7,0.5,1.1,0.5c0.3,0,0.6-0.1,0.8-0.3
													C40.6,22,40.8,21.7,40.9,21.3z M38,19.9l2.9,0c0-0.4-0.1-0.8-0.3-1c-0.3-0.3-0.6-0.5-1.1-0.5c-0.4,0-0.7,0.1-1,0.4
													C38.2,19.1,38,19.5,38,19.9z"/>
												<path class="st4" d="M42.9,23l0-5.2l0.8,0l0,0.7c0.2-0.3,0.4-0.5,0.6-0.6c0.3-0.2,0.6-0.2,0.9-0.2
													c0.4,0,0.7,0.1,0.9,0.2c0.2,0.2,0.4,0.4,0.5,0.7c0.4-0.6,0.9-0.9,1.6-0.9c0.5,0,0.9,0.1,1.2,0.4
													c0.3,0.3,0.4,0.7,0.4,1.3l0,3.6l-0.9,0l0-3.3c0-0.4,0-0.6-0.1-0.8c-0.1-0.2-0.2-0.3-0.3-0.4c-0.1-0.1-0.3-0.1-0.5-0.1
													c-0.4,0-0.7,0.1-0.9,0.4c-0.2,0.2-0.4,0.6-0.4,1.2l0,3L46,23l0-3.4c0-0.4-0.1-0.7-0.2-0.9c-0.1-0.2-0.4-0.3-0.7-0.3
													c-0.2,0-0.5,0.1-0.7,0.2c-0.2,0.1-0.4,0.3-0.5,0.6c-0.1,0.3-0.1,0.6-0.1,1.1l0,2.7L42.9,23z"/>
												<path class="st4" d="M54.8,21.3l0.9,0.1c-0.1,0.5-0.4,0.9-0.8,1.2c-0.4,0.3-0.9,0.4-1.5,0.4c-0.8,0-1.4-0.2-1.8-0.7
													c-0.4-0.5-0.7-1.1-0.7-2c0-0.9,0.2-1.5,0.7-2c0.4-0.5,1-0.7,1.7-0.7c0.7,0,1.3,0.2,1.7,0.7s0.7,1.1,0.7,2
													c0,0.1,0,0.1,0,0.2l-3.9,0c0,0.6,0.2,1,0.5,1.3c0.3,0.3,0.7,0.5,1.1,0.5c0.3,0,0.6-0.1,0.8-0.3
													C54.5,22,54.7,21.7,54.8,21.3z M51.9,19.9l2.9,0c0-0.4-0.1-0.8-0.3-1c-0.3-0.3-0.6-0.5-1.1-0.5c-0.4,0-0.7,0.1-1,0.4
													C52.1,19.1,51.9,19.5,51.9,19.9z"/>
												<path class="st4" d="M56.8,23l0-5.2l0.8,0l0,0.7c0.4-0.6,0.9-0.9,1.7-0.9c0.3,0,0.6,0.1,0.9,0.2
													c0.3,0.1,0.5,0.3,0.6,0.4c0.1,0.2,0.2,0.4,0.3,0.6c0,0.2,0,0.4,0,0.9l0,3.2l-0.9,0l0-3.2c0-0.4,0-0.6-0.1-0.8
													c-0.1-0.2-0.2-0.3-0.4-0.4c-0.2-0.1-0.4-0.2-0.6-0.2c-0.4,0-0.7,0.1-1,0.4c-0.3,0.2-0.4,0.7-0.4,1.4l0,2.8L56.8,23z"/>
												<path class="st4" d="M64.3,22.2l0.1,0.8c-0.2,0.1-0.5,0.1-0.7,0.1c-0.3,0-0.6-0.1-0.7-0.2c-0.2-0.1-0.3-0.2-0.4-0.4
													c-0.1-0.2-0.1-0.5-0.1-1l0-3l-0.6,0l0-0.7l0.6,0l0-1.3l0.9-0.5l0,1.8l0.9,0l0,0.7l-0.9,0l0,3c0,0.3,0,0.4,0,0.5
													c0,0.1,0.1,0.1,0.2,0.2c0.1,0,0.2,0.1,0.3,0.1C64,22.2,64.1,22.2,64.3,22.2z"/>
												<path class="st4" d="M69.7,23l0-6.3l-2.4,0l0-0.8l5.7,0l0,0.8l-2.4,0l0,6.3L69.7,23z"/>
												<path class="st4" d="M76.3,21.3l0.9,0.1c-0.1,0.5-0.4,0.9-0.8,1.2c-0.4,0.3-0.9,0.4-1.5,0.4c-0.8,0-1.4-0.2-1.8-0.7
													c-0.4-0.5-0.7-1.1-0.7-2c0-0.9,0.2-1.5,0.7-2c0.4-0.5,1-0.7,1.7-0.7c0.7,0,1.3,0.2,1.7,0.7c0.4,0.5,0.7,1.1,0.7,2
													c0,0.1,0,0.1,0,0.2l-3.9,0c0,0.6,0.2,1,0.5,1.3c0.3,0.3,0.7,0.5,1.1,0.5c0.3,0,0.6-0.1,0.8-0.3
													C76,22,76.1,21.7,76.3,21.3z M73.4,19.9l2.9,0c0-0.4-0.1-0.8-0.3-1c-0.3-0.3-0.6-0.5-1.1-0.5c-0.4,0-0.7,0.1-1,0.4
													C73.6,19.1,73.4,19.5,73.4,19.9z"/>
												<path class="st4" d="M78.3,23l0-5.2l0.8,0l0,0.8c0.2-0.4,0.4-0.6,0.6-0.7c0.2-0.1,0.4-0.2,0.6-0.2
													c0.3,0,0.6,0.1,0.9,0.3l-0.3,0.8c-0.2-0.1-0.4-0.2-0.6-0.2c-0.2,0-0.4,0.1-0.5,0.2c-0.2,0.1-0.3,0.3-0.3,0.5
													c-0.1,0.3-0.1,0.7-0.1,1l0,2.7L78.3,23z"/>
												<path class="st4" d="M81.6,23l0-5.2l0.8,0l0,0.7c0.2-0.3,0.4-0.5,0.6-0.6c0.3-0.2,0.6-0.2,0.9-0.2
													c0.4,0,0.7,0.1,0.9,0.2c0.2,0.2,0.4,0.4,0.5,0.7c0.4-0.6,0.9-0.9,1.6-0.9c0.5,0,0.9,0.1,1.2,0.4
													c0.3,0.3,0.4,0.7,0.4,1.3l0,3.6l-0.9,0l0-3.3c0-0.4,0-0.6-0.1-0.8c-0.1-0.2-0.2-0.3-0.3-0.4c-0.2-0.1-0.3-0.1-0.5-0.1
													c-0.4,0-0.7,0.1-0.9,0.4c-0.2,0.2-0.4,0.6-0.4,1.2l0,3l-0.9,0l0-3.4c0-0.4-0.1-0.7-0.2-0.9c-0.1-0.2-0.4-0.3-0.7-0.3
													c-0.2,0-0.5,0.1-0.7,0.2c-0.2,0.1-0.4,0.3-0.5,0.6c-0.1,0.3-0.1,0.6-0.1,1.1l0,2.7L81.6,23z"/>
												<path class="st4" d="M89.6,21.5l0.9-0.1c0,0.3,0.2,0.6,0.4,0.8c0.2,0.2,0.5,0.3,0.9,0.3c0.4,0,0.7-0.1,0.9-0.2
													c0.2-0.2,0.3-0.4,0.3-0.6c0-0.2-0.1-0.4-0.3-0.5c-0.1-0.1-0.4-0.2-0.9-0.3c-0.6-0.2-1.1-0.3-1.3-0.4
													c-0.2-0.1-0.4-0.3-0.6-0.5c-0.1-0.2-0.2-0.4-0.2-0.7c0-0.2,0.1-0.4,0.2-0.6c0.1-0.2,0.2-0.4,0.4-0.5
													c0.1-0.1,0.3-0.2,0.6-0.3c0.2-0.1,0.5-0.1,0.8-0.1c0.4,0,0.8,0.1,1.1,0.2c0.3,0.1,0.5,0.3,0.7,0.5
													c0.1,0.2,0.2,0.5,0.3,0.8l-0.9,0.1c0-0.3-0.2-0.5-0.3-0.6c-0.2-0.1-0.5-0.2-0.8-0.2c-0.4,0-0.7,0.1-0.9,0.2
													s-0.3,0.3-0.3,0.5c0,0.1,0,0.2,0.1,0.3c0.1,0.1,0.2,0.2,0.3,0.2c0.1,0,0.3,0.1,0.8,0.2c0.6,0.2,1.1,0.3,1.3,0.4
													c0.2,0.1,0.4,0.3,0.6,0.5c0.1,0.2,0.2,0.5,0.2,0.8c0,0.3-0.1,0.6-0.3,0.8c-0.2,0.3-0.4,0.5-0.7,0.6
													c-0.3,0.1-0.7,0.2-1.1,0.2c-0.7,0-1.2-0.1-1.5-0.4C89.9,22.4,89.7,22,89.6,21.5z"/>
											</g>
										</g>
										<g id="text_1_" transform="translate(8.000000, 39.000000)">
											<path id="Rectangle_19_" class="st5" d="M2,0l44,0c1.1,0,2,0.9,2,2s-0.9,2-2,2L2,4C0.9,4,0,3.1,0,2S0.9,0,2,0z"/>
											<path id="Rectangle_20_" class="st6" d="M1,8l22,0c0.6,0,1,0.4,1,1s-0.4,1-1,1L1,10c-0.6,0-1-0.4-1-1C0,8.4,0.4,8,1,8z"
												/>
											<path id="Rectangle_21_" class="st6" d="M29,8l38,0c0.6,0,1,0.4,1,1s-0.4,1-1,1l-38,0c-0.6,0-1-0.4-1-1
												C28,8.4,28.4,8,29,8z"/>
											<path id="Rectangle_22_" class="st6" d="M73,8l23,0c0.6,0,1,0.4,1,1s-0.4,1-1,1l-23,0c-0.6,0-1-0.4-1-1S72.4,8,73,8z"/>
											<path id="Rectangle_23_" class="st6" d="M1,14l32,0c0.6,0,1,0.4,1,1c0,0.6-0.4,1-1,1L1,16c-0.6,0-1-0.4-1-1
												C0,14.4,0.4,14,1,14z"/>
											<path id="Rectangle_24_" class="st6" d="M39,14l14,0c0.6,0,1,0.4,1,1s-0.4,1-1,1l-14,0c-0.6,0-1-0.4-1-1
												C38,14.4,38.4,14,39,14z"/>
											<path id="Rectangle_25_" class="st6" d="M59,14l23,0c0.6,0,1,0.4,1,1s-0.4,1-1,1l-23,0c-0.6,0-1-0.4-1-1S58.4,14,59,14z"
												/>
											<path id="Rectangle_26_" class="st6" d="M1,20l10,0c0.6,0,1,0.4,1,1s-0.4,1-1,1L1,22c-0.6,0-1-0.4-1-1
												C0,20.4,0.4,20,1,20z"/>
											<path id="Rectangle_27_" class="st6" d="M17,20l27,0c0.6,0,1,0.4,1,1s-0.4,1-1,1l-27,0c-0.6,0-1-0.4-1-1
												C16,20.4,16.4,20,17,20z"/>
											<path id="Rectangle_28_" class="st6" d="M50,20l40,0c0.6,0,1,0.4,1,1s-0.4,1-1,1l-40,0c-0.6,0-1-0.4-1-1S49.4,20,50,20z"
												/>
											<path id="Rectangle_29_" class="st6" d="M1,38l14,0c0.6,0,1,0.4,1,1s-0.4,1-1,1H1c-0.6,0-1-0.4-1-1S0.4,38,1,38z"/>
											<path id="Rectangle_30_" class="st6" d="M21,38l30,0c0.6,0,1,0.4,1,1s-0.4,1-1,1l-30,0c-0.6,0-1-0.4-1-1S20.4,38,21,38z"
												/>
											<path id="Rectangle_31_" class="st6" d="M57,38l23,0c0.6,0,1,0.4,1,1s-0.4,1-1,1l-23,0c-0.6,0-1-0.4-1-1S56.4,38,57,38z"
												/>
											<path id="Rectangle_32_" class="st6" d="M1,44l29,0c0.6,0,1,0.4,1,1s-0.4,1-1,1L1,46c-0.6,0-1-0.4-1-1
												C0,44.4,0.4,44,1,44z"/>
											<path id="Rectangle_33_" class="st6" d="M36,44l33,0c0.6,0,1,0.4,1,1s-0.4,1-1,1l-33,0c-0.6,0-1-0.4-1-1S35.4,44,36,44z"
												/>
											<path id="Rectangle_34_" class="st6" d="M75,44l21,0c0.6,0,1,0.4,1,1s-0.4,1-1,1l-21,0c-0.6,0-1-0.4-1-1S74.4,44,75,44z"
												/>
											<path id="Rectangle_35_" class="st6" d="M1,50l19,0c0.6,0,1,0.4,1,1s-0.4,1-1,1L1,52c-0.6,0-1-0.4-1-1
												C0,50.4,0.4,50,1,50z"/>
											<path id="Rectangle_36_" class="st6" d="M26,50l32,0c0.6,0,1,0.4,1,1s-0.4,1-1,1l-32,0c-0.6,0-1-0.4-1-1S25.4,50,26,50z"
												/>
											<path id="Rectangle_37_" class="st6" d="M64,50l32,0c0.6,0,1,0.4,1,1s-0.4,1-1,1l-32,0c-0.6,0-1-0.4-1-1S63.4,50,64,50z"
												/>
											<path id="Rectangle_38_" class="st6" d="M1,68l22,0c0.6,0,1,0.4,1,1s-0.4,1-1,1L1,70c-0.6,0-1-0.4-1-1S0.4,68,1,68z"/>
											<path id="Rectangle_39_" class="st6" d="M29,68l38,0c0.6,0,1,0.4,1,1s-0.4,1-1,1l-38,0c-0.6,0-1-0.4-1-1S28.4,68,29,68z"
												/>
											<path id="Rectangle_40_" class="st6" d="M1,74l32,0c0.6,0,1,0.4,1,1s-0.4,1-1,1L1,76c-0.6,0-1-0.4-1-1
												C0,74.4,0.4,74,1,74z"/>
										</g>
									</g>
								</g>
							</g>
						</g>
					</g>
				</g>
			</g>
		</g>
	</g>
</g>
</svg>
