<?xml version="1.0" encoding="UTF-8"?>
<svg width="96px" height="96px" viewBox="0 0 96 96" version="1.1" xmlns="http://www.w3.org/2000/svg" xmlns:xlink="http://www.w3.org/1999/xlink">
    <!-- Generator: sketchtool 59.1 (101010) - https://sketch.com -->
    <title>95A922C1-8BCE-49E7-A036-894B3E047989</title>
    <desc>Created with sketchtool.</desc>
    <g id="Asset-Artboard-Page" stroke="none" stroke-width="1" fill="none" fill-rule="evenodd">
        <g id="icon-/-48x48-/-section-role-/-email-verify-icon-/-48x48-/-section-role-/-success">
            <g id="icon-/-48x48-/-section-role-/-success">
                <path d="M48,96 C21.490332,96 0,74.509668 0,48 C0,21.490332 21.490332,0 48,0 C74.509668,0 96,21.490332 96,48 C95.969141,74.4968752 74.4968752,95.969141 48,96 Z M48,4 C23.699471,4 4,23.699471 4,48 C4,72.300529 23.699471,92 48,92 C72.300529,92 92,72.300529 92,48 C91.9724457,23.7108935 72.2891065,4.02755432 48,4 Z" id="Shape" fill="#46BBC4" fill-rule="nonzero"></path>
                <path d="M42,66 C41.4696104,66 40.9609855,65.7890988 40.586,65.414 L24.5860002,49.4140003 C23.8280558,48.6292425 23.8388955,47.3818307 24.6103631,46.6103632 C25.3818307,45.8388956 26.6292424,45.8280559 27.4140002,46.5860003 L41.814,60.9860001 L68.4139997,26.7740006 C69.0922053,25.9013908 70.3493897,25.7437951 71.2219996,26.4220007 C72.0946095,27.1002063 72.2522052,28.3573907 71.5739996,29.2300006 L43.574,65.23 C43.2214014,65.6831226 42.6910714,65.9628571 42.118,65.998 L42,66 Z" id="Path" fill="#F4BA67"></path>
            </g>
        </g>
    </g>
</svg>