<svg width="36" height="48" xmlns="http://www.w3.org/2000/svg"><g fill="none" fill-rule="evenodd"><path d="M-6 0h48v48H-6z"/><path d="M26 33a1 1 0 0 1-1 1H9a1 1 0 0 1 0-2h16a1 1 0 0 1 1 1zm-9 5H9a1 1 0 0 0 0 2h8a1 1 0 0 0 0-2z" fill="#A7DFE3" fill-rule="nonzero"/><path d="M19.727 16.656l7.317-1.333a.5.5 0 0 0 .38-.669 10.028 10.028 0 0 0-5.489-5.87.5.5 0 0 0-.692.336l-1.8 7.23a.25.25 0 0 0 .284.306z" fill="#F57361"/><path d="M16.9 18.016l-3.98-7.98a.5.5 0 0 0-.75-.176 10.025 10.025 0 0 0 4.24 18.028.5.5 0 0 0 .59-.488v-8.937a1 1 0 0 0-.1-.447z" fill="#1C7F8A"/><path d="M19 19.244V27.4a.486.486 0 0 0 .566.5A10.018 10.018 0 0 0 28 17.99v-.219a.5.5 0 0 0-.6-.471l-7.99 1.452a.5.5 0 0 0-.41.492z" fill="#F4BA67"/><path d="M19.3 8.631l-1.451 5.829a.25.25 0 0 1-.466.051L14.7 9.137a.5.5 0 0 1 .3-.7 9.873 9.873 0 0 1 3-.472c.291 0 .577.017.861.044a.5.5 0 0 1 .439.622zM36 5v33.17a3 3 0 0 1-.883 2.127l-6.82 6.82A3.006 3.006 0 0 1 26.17 48H5a5.006 5.006 0 0 1-5-5V5a5.006 5.006 0 0 1 5-5h26a5.006 5.006 0 0 1 5 5zm-2 0a3 3 0 0 0-3-3H5a3 3 0 0 0-3 3v38a3 3 0 0 0 3 3h21v-3.56A4.443 4.443 0 0 1 30.44 38H34V5z" fill="#46BBC4" fill-rule="nonzero"/></g></svg>