<?xml version="1.0" encoding="UTF-8"?>
<svg width="230px" height="120px" viewBox="0 0 230 120" version="1.1" xmlns="http://www.w3.org/2000/svg" xmlns:xlink="http://www.w3.org/1999/xlink">
    <!-- Generator: sketchtool 59.1 (101010) - https://sketch.com -->
    <title>EF577C52-F02D-4867-8C06-BD21AEE16C33</title>
    <desc>Created with sketchtool.</desc>
    <g id="Pages" stroke="none" stroke-width="1" fill="none" fill-rule="evenodd">
        <g id="Commercial-Solution" transform="translate(-96.000000, -932.000000)">
            <g id="section-2" transform="translate(96.000000, 735.000000)">
                <g id="cards" transform="translate(0.000000, 197.000000)">
                    <g id="illustrations">
                        <g id="retail">
                            <polygon id="Fill-1" fill="#FFFFFF" points="0 120 230 120 230 0 0 0"></polygon>
                            <line x1="142.8799" y1="57" x2="87.1199" y2="57" id="Stroke-2" stroke="#FDEFDB" stroke-width="2" stroke-linecap="round" stroke-linejoin="round"></line>
                            <line x1="85" y1="81" x2="85" y2="115" id="Stroke-3" stroke="#46BBC4" stroke-width="2" stroke-linecap="round" stroke-linejoin="round"></line>
                            <line x1="145" y1="115" x2="145" y2="81" id="Stroke-4" stroke="#46BBC4" stroke-width="2" stroke-linecap="round" stroke-linejoin="round"></line>
                            <polygon id="Stroke-5" stroke="#F4BA67" stroke-width="2" stroke-linecap="round" stroke-linejoin="round" points="83 61 147 61 147 51 83 51"></polygon>
                            <line x1="31" y1="119" x2="199" y2="119" id="Stroke-6" stroke="#46BBC4" stroke-width="2" stroke-linecap="round" stroke-linejoin="round"></line>
                            <polyline id="Stroke-8" stroke="#46BBC4" stroke-width="2" stroke-linecap="round" stroke-linejoin="round" points="191 115 191 109 155 109 155 115"></polyline>
                            <line x1="159" y1="115" x2="187" y2="115" id="Stroke-9" stroke="#D3EFF1" stroke-width="2" stroke-linecap="round" stroke-linejoin="round"></line>
                            <polygon id="Fill-10" fill="#1C7F8A" points="95 115 109 115 109 93 95 93"></polygon>
                            <polygon id="Stroke-11" stroke="#1C7F8A" stroke-width="2" stroke-linecap="round" stroke-linejoin="round" points="95 115 109 115 109 93 95 93"></polygon>
                            <line x1="97" y1="113" x2="107" y2="113" id="Stroke-12" stroke="#46BBC4" stroke-width="2" stroke-linecap="round" stroke-linejoin="round"></line>
                            <polygon id="Stroke-13" stroke="#A7DFE3" stroke-width="2" stroke-linecap="round" stroke-linejoin="round" points="117 111 135 111 135 93 117 93"></polygon>
                            <line x1="141" y1="85" x2="89" y2="85" id="Stroke-14" stroke="#D3EFF1" stroke-width="2" stroke-linecap="round" stroke-linejoin="round"></line>
                            <path d="M145,65 L146.996,73.192 C146.889,75.399 145.014,77.102 142.808,76.995 C140.601,76.889 138.898,75.014 139.004,72.808 L139,73 C139,75.209 137.209,77 135,77 C132.791,77 131,75.209 131,73 C131,75.209 129.209,77 127,77 C124.791,77 123,75.209 123,73 C123,75.209 121.209,77 119,77 C116.791,77 115,75.209 115,73 C115,75.209 113.209,77 111,77 C108.791,77 107,75.209 107,73 C107,75.209 105.209,77 103,77 C100.791,77 99,75.209 99,73 C99,75.209 97.209,77 95,77 C92.791,77 91,75.209 91,73 C91,75.209 89.209,77 87,77 C84.791,77 83,75.209 83,73 L85,65" id="Stroke-15" stroke="#F57361" stroke-width="2" stroke-linecap="round" stroke-linejoin="round"></path>
                            <path d="M169.3901,105 C169.7801,104.25 170.0001,103.4 170.0001,102.5 C170.0001,99.46 167.5401,97 164.5001,97 C161.4601,97 159.0001,99.46 159.0001,102.5 C159.0001,103.4 159.2201,104.25 159.6101,105" id="Stroke-17" stroke="#A5CD7F" stroke-width="2" stroke-linecap="round" stroke-linejoin="round"></path>
                            <path d="M186.3901,105 C186.7801,104.25 187.0001,103.4 187.0001,102.5 C187.0001,99.46 184.5401,97 181.5001,97 C178.4601,97 176.0001,99.46 176.0001,102.5 C176.0001,103.4 176.2201,104.25 176.6101,105" id="Stroke-19" stroke="#A5CD7F" stroke-width="2" stroke-linecap="round" stroke-linejoin="round"></path>
                            <polyline id="Stroke-21" stroke="#46BBC4" stroke-width="2" stroke-linecap="round" stroke-linejoin="round" points="75 115 75 109 39 109 39 115"></polyline>
                            <line x1="43" y1="115" x2="71" y2="115" id="Stroke-23" stroke="#D3EFF1" stroke-width="2" stroke-linecap="round" stroke-linejoin="round"></line>
                            <path d="M53.3901,105 C53.7801,104.25 54.0001,103.4 54.0001,102.5 C54.0001,99.46 51.5401,97 48.5001,97 C45.4601,97 43.0001,99.46 43.0001,102.5 C43.0001,103.4 43.2201,104.25 43.6101,105" id="Stroke-25" stroke="#A5CD7F" stroke-width="2" stroke-linecap="round" stroke-linejoin="round"></path>
                            <path d="M70.3901,105 C70.7801,104.25 71.0001,103.4 71.0001,102.5 C71.0001,99.46 68.5401,97 65.5001,97 C62.4601,97 60.0001,99.46 60.0001,102.5 C60.0001,103.4 60.2201,104.25 60.6101,105" id="Stroke-27" stroke="#A5CD7F" stroke-width="2" stroke-linecap="round" stroke-linejoin="round"></path>
                            <line x1="117" y1="102" x2="135" y2="102" id="Stroke-29" stroke="#A7DFE3" stroke-width="2" stroke-linecap="round" stroke-linejoin="round"></line>
                            <line x1="126" y1="93" x2="126" y2="111" id="Stroke-31" stroke="#A7DFE3" stroke-width="2" stroke-linecap="round" stroke-linejoin="round"></line>
                            <path d="M209,22 L183,22 C180.791,22 179,20.209 179,18 C179,15.791 180.791,14 183,14" id="Stroke-33" stroke="#FDEFDB" stroke-width="2" stroke-linecap="round" stroke-linejoin="round"></path>
                            <path d="M198,28 L179,28 C176.791,28 175,29.791 175,32 C175,34.209 176.791,36 179,36" id="Stroke-35" stroke="#FDEFDB" stroke-width="2" stroke-linecap="round" stroke-linejoin="round"></path>
                            <path d="M47,62 C49.209,62 51,60.209 51,58 C51,55.791 49.209,54 47,54 L29,54" id="Stroke-37" stroke="#FDEFDB" stroke-width="2" stroke-linecap="round" stroke-linejoin="round"></path>
                            <path d="M11,48 L54,48 C58.971,48 63,43.971 63,39 C63,34.029 58.971,30 54,30" id="Stroke-39" stroke="#FDEFDB" stroke-width="2" stroke-linecap="round" stroke-linejoin="round"></path>
                        </g>
                    </g>
                </g>
            </g>
        </g>
    </g>
</svg>