<svg width="128" height="106" xmlns="http://www.w3.org/2000/svg"><path d="M43.777 105.636h7.772L50.28 44.729c-.317-11.843-1.718-20.382-4.203-25.616-2.485-5.234-6.398-9.728-11.737-13.482C29 1.877 23.21 0 16.97 0 5.657 0 0 5.921 0 17.765 0 22.1 3.7 31.088 11.103 44.729l32.674 60.907zm76.451 0H128l-.952-61.066c-.317-16.496-3.991-28.048-11.023-34.657C108.993 3.304 101.512 0 93.58 0 88.4 0 84.25 1.507 81.131 4.52c-3.12 3.014-4.68 7.164-4.68 12.451 0 5.288 3.595 14.593 10.786 27.916l32.991 60.749z" fill="#46BBC4" fill-rule="nonzero"/></svg>