<svg version="1.1" xmlns="http://www.w3.org/2000/svg" xmlns:xlink="http://www.w3.org/1999/xlink" x="0px" y="0px"
	 viewBox="0 0 16 16" style="enable-background:new 0 0 16 16;" xml:space="preserve">
<g>
	<g>
		<g transform="translate(0.000000, 4.000000)">
			<path d="M15.8,3.6l-4-3.5C11.7,0,11.5,0,11.3,0C11.1,0.1,11,0.3,11,0.5V3H1C0.4,3,0,3.4,0,4s0.4,1,1,1h10v2.5
				c0,0.2,0.1,0.4,0.3,0.5c0.1,0,0.1,0,0.2,0c0.1,0,0.2,0,0.3-0.1l4-3.5C15.9,4.3,16,4.1,16,4S15.9,3.7,15.8,3.6"/>
		</g>
	</g>
</g>
</svg>
