<?xml version="1.0" encoding="UTF-8"?>
<svg width="96px" height="96px" viewBox="0 0 96 96" version="1.1" xmlns="http://www.w3.org/2000/svg" xmlns:xlink="http://www.w3.org/1999/xlink">
    <!-- Generator: sketchtool 59.1 (101010) - https://sketch.com -->
    <title>76CF3B0A-F7DC-42FE-A4F9-AC5FE03ED663</title>
    <desc>Created with sketchtool.</desc>
    <g id="Asset-Artboard-Page" stroke="none" stroke-width="1" fill="none" fill-rule="evenodd">
        <g id="icon-/-48x48-/-section-role-/-admin-icon-/-48x48-/-section-role-/-seminar">
            <g id="icon-/-48x48-/-section-role-/-seminar" transform="translate(0.000000, -2.000000)">
                <rect id="bounds" x="0" y="2" width="96" height="96"></rect>
                <path d="M58.3860002,28.78 C55.1100002,27.914 53.2660002,26.644 52.7220002,25.172 C52.6917298,25.0809383 52.7071631,24.9808717 52.7634631,24.9031619 C52.8197631,24.825452 52.91004,24.7796088 53.0060002,24.78 C54.8086132,24.508738 56.565597,23.9919385 58.2280002,23.244 C58.4814115,23.1460049 58.61019,22.8635804 58.5180002,22.608 C57.7192197,20.5424151 57.0741307,18.4206407 56.5880002,16.26 C55.9440002,13.16 57.7640002,10.28 56.5020002,6.91999999 C55.7105332,4.86945616 54.0804788,3.25489471 52.0224702,2.48304595 C49.9644615,1.71119719 47.6746971,1.85564464 45.7300002,2.87999999 C43.5145432,2.36687671 41.236757,3.44286582 40.2260002,5.47999999 C37.5720001,9.83999998 40.1840002,12.64 39.4120002,16.26 C38.9258697,18.4206407 38.2807807,20.5424151 37.4820001,22.608 C37.389593,22.8630239 37.5173779,23.1452157 37.7700001,23.244 C39.4330362,23.9921129 41.1907045,24.5089158 42.9940002,24.78 C43.0899604,24.7796088 43.1802373,24.825452 43.2365373,24.9031619 C43.2928373,24.9808717 43.3082705,25.0809383 43.2780002,25.172 C42.7340002,26.644 40.8900002,27.914 37.6140001,28.78 C32.2340001,30.1899999 30.5340001,32.4239999 30.0080001,36.9039999 C29.9890364,37.1955097 30.0947481,37.4813606 30.2988181,37.6903893 C30.5028881,37.899418 30.7861191,38.0119608 31.0780001,37.9999999 L64.9260003,37.9999999 C65.2173301,38.0112751 65.4998365,37.8987977 65.7036931,37.6903686 C65.9075497,37.4819396 66.0137339,37.197008 65.9960003,36.9059999 C65.4840003,32.4259999 63.7680003,30.1899999 58.3860002,28.78 L58.3860002,28.78 Z" id="Path" fill="#1C7F8A" fill-rule="nonzero"></path>
                <path d="M79.5120035,42.69 C79.1316298,42.2519961 78.5801167,42 78.0000034,42 L18.0000005,42 C17.4199672,42 16.8684703,42.2516632 16.4885303,42.6899374 C16.1085902,43.1282116 15.9376357,43.7098443 16.0200004,44.284 L18.0200005,58.2839999 C18.1612846,59.2688757 19.0050425,60.0001326 20.0000006,60 L24.2000008,60 L27.634001,92.6279997 C27.9501314,95.6847877 30.5289155,98.006039 33.6020013,98.0000114 L62.3980027,98.0000114 C65.4710884,98.006039 68.0498725,95.6847877 68.3660029,92.6279997 L71.8000031,60 L76.0000033,60 C76.9949614,60.0001326 77.8387194,59.2688757 77.9800034,58.2839999 L79.9800035,44.284 C80.0619541,43.7099822 79.8912616,43.1286065 79.5120035,42.69 L79.5120035,42.69 Z M64.3880015,92.2100016 C64.2814753,93.2277091 63.4232688,94.0004403 62.4000015,94 L33.6020005,94 C32.5779683,94.0014656 31.7186054,93.2284708 31.6120004,92.2100016 L28.2200003,60 L67.7800016,60 L64.3880015,92.2100016 Z M74.2660007,56 L21.7340002,56 L20.3060002,46 L75.6940007,46 L74.2660007,56 Z" id="Shape" fill="#46BBC4" fill-rule="nonzero"></path>
                <path d="M58,90 L38,90 C36.8954305,90 36,89.1045695 36,88 C36,86.8954305 36.8954305,86 38,86 L58,86 C59.1045695,86 60,86.8954305 60,88 C60,89.1045695 59.1045695,90 58,90 Z" id="Path" fill="#F4BA67" fill-rule="nonzero"></path>
            </g>
        </g>
    </g>
</svg>