<?xml version="1.0" encoding="utf-8"?>
<!-- Generator: Adobe Illustrator 21.0.0, SVG Export Plug-In . SVG Version: 6.00 Build 0)  -->
<svg version="1.1" id="Слой_1" xmlns="http://www.w3.org/2000/svg" xmlns:xlink="http://www.w3.org/1999/xlink" x="0px" y="0px"
	 viewBox="0 0 242 134" style="enable-background:new 0 0 242 134;" xml:space="preserve">
<style type="text/css">
	.st0{fill:#FFFFFF;}
	.st1{fill:#D3EFF1;}
	.st2{fill:#A18FE7;}
	.st3{fill:#3F3F3F;}
	.st4{fill:#F4F6FC;}
	.st5{fill:#E9E4F9;}
	.st6{fill:#F4BA67;}
	.st7{fill:#A23F36;}
	.st8{opacity:0.5;fill:#A23F36;enable-background:new    ;}
	.st9{fill:#C67328;}
	.st10{opacity:0.23;fill:#A65B10;enable-background:new    ;}
	.st11{fill:#F57361;}
	.st12{fill:#A5CD7F;}
	.st13{fill:#D2CAF4;}
	.st14{opacity:0.23;fill:#633A13;enable-background:new    ;}
	.st15{opacity:0.6;fill:#3F3F3F;enable-background:new    ;}
	.st16{fill:#715CC3;}
	.st17{fill:#C63E2B;}
	.st18{fill:#FFCDC6;}
	.st19{fill:#FF6651;}
	.st20{opacity:0.23;fill:#A23F36;enable-background:new    ;}
	.st21{opacity:0.64;fill:#46BBC4;enable-background:new    ;}
	.st22{opacity:0.32;fill:#46BBC4;enable-background:new    ;}
	.st23{opacity:0.9;}
</style>
<g>
	<rect id="path-1" class="st0" width="242" height="134"/>
</g>
<title>2F625C21-4D71-43D8-9DD4-72422C6131F2</title>
<desc>Created with sketchtool.</desc>
<g id="Pricing">
	<g id="Pricing---Core-Features" transform="translate(-957.000000, -1303.000000)">
		<g id="section-3" transform="translate(81.000000, 1194.000000)">
			<g id="list" transform="translate(0.000000, 109.000000)">
				<g id="item" transform="translate(876.000000, 0.000000)">
					<g id="image">
						<g id="team-management">
							<g id="mask">
								<rect id="path-1_1_" class="st1" width="242" height="134"/>
							</g>
							<g id="design">
								<g transform="translate(21.000000, 30.000000)">
									<g id="_x33_" transform="translate(144.000000, 0.000000)">
										<g id="Fill-35">
											<g>
												<path id="path-3_2_" d="M43.4,51.3c-1.3,0.9-2.6,1.6-4.1,2.2C35.9,55.1,32,56,28,56c-1.5,0-3-0.1-4.4-0.3
													c-4.1-0.7-7.9-2.2-11.2-4.4C4.9,46.2,0,37.7,0,28C0,12.5,12.5,0,28,0s28,12.5,28,28C56,37.8,51,46.3,43.4,51.3z"/>
											</g>
											<g>
												<path id="path-3_1_" class="st2" d="M43.4,51.3c-1.3,0.9-2.6,1.6-4.1,2.2C35.9,55.1,32,56,28,56c-1.5,0-3-0.1-4.4-0.3
													c-4.1-0.7-7.9-2.2-11.2-4.4C4.9,46.2,0,37.7,0,28C0,12.5,12.5,0,28,0s28,12.5,28,28C56,37.8,51,46.3,43.4,51.3z"/>
											</g>
										</g>
										<path id="Fill-37" class="st3" d="M21.3,48.3c-1.7-7.9-8.1-8.2-6.2-19.2c1.1-6-8.7-5.2,1.1-13.3s13.1-8.6,16.6-3
											c9.8,0.2,16.2,5.8,8.3,12.8c-4.8,4.2-6.3,8.2-5.6,11.9S32.8,47,32.8,47L21.3,48.3z"/>
										<path id="Fill-39" class="st4" d="M39.4,53.6C35.9,55.1,32,56,28,56c-1.5,0-3-0.1-4.4-0.3c-4.1-0.6-7.9-2.2-11.2-4.4
											c1.5-2,3-3.7,4.5-5.1c0.3-0.3,0.5-0.5,0.8-0.7c0.6-0.6,1.3-1.2,1.9-1.7c2.7-2.4,4.7-4.1,4.7-6.2l4.8,0.5l1,1.6l0.3,0.4
											l0.9,1.3l0.1,0.2l2.4,3.6l2.7,4l0.7,1.1L39.4,53.6z"/>
										<path id="Fill-42" class="st5" d="M43.4,51.4c-1.3,0.9-2.6,1.6-4.1,2.2C35.9,55.1,32,56,28,56c-1.5,0-3-0.1-4.4-0.3
											c1-1.6,2-3.7,2.9-6.1c0.2-0.6,0.4-1.2,0.6-1.9c0.2-0.8,0.5-1.6,0.6-2.5l1.2-2.5l1.3-2.7l1.2-2.5c0.7,2.1,1.9,3.8,3.2,5.3
											c1.4,1.6,3,3,4.6,4.5c0.5,0.4,1,0.9,1.5,1.3C41.7,49.6,42.6,50.4,43.4,51.4"/>
										<path id="Fill-45" class="st6" d="M27.9,18.1c11,0,7,13.9,3.7,19.4c-2.6,4.4-4.4,4.4-7.3,0C20.5,32,16.9,18.1,27.9,18.1"
											/>
										<path id="Fill-47" class="st7" d="M25.7,35.2c0.3,0.2,0.6,0.4,0.9,0.6c0.3,0.2,0.6,0.3,0.9,0.4c0.3,0.1,0.6,0.1,0.9,0.1
											s0.6-0.2,1-0.4l0,0c0.1-0.1,0.3,0,0.3,0.1s0,0.2,0,0.3c-0.3,0.3-0.6,0.7-1.1,0.9c-0.4,0.2-1,0.2-1.4,0.1
											c-0.5-0.1-0.9-0.4-1.2-0.7c-0.3-0.3-0.6-0.6-0.8-1c-0.1-0.1,0-0.3,0.1-0.3C25.5,35.1,25.6,35.1,25.7,35.2L25.7,35.2z"/>
										<path id="Fill-49" class="st7" d="M25.7,27.5c0,0.4-0.3,0.6-0.7,0.6c-0.4,0-0.7-0.3-0.7-0.6s0.3-0.6,0.7-0.6
											C25.3,26.8,25.7,27.1,25.7,27.5"/>
										<path id="Fill-51" class="st7" d="M30.4,27.5c0,0.4,0.3,0.6,0.7,0.6s0.7-0.3,0.7-0.6s-0.3-0.6-0.7-0.6
											S30.4,27.1,30.4,27.5"/>
										<path id="Fill-53" class="st8" d="M30.2,24.6c0.2-0.2,0.5-0.2,0.8-0.3c0.3,0,0.5,0,0.8,0.1c0.5,0.1,1,0.5,1.2,1
											c0.1,0.1,0,0.3-0.1,0.4c-0.1,0-0.1,0-0.2,0l0,0c-0.2-0.1-0.4-0.2-0.6-0.2c-0.2-0.1-0.4-0.1-0.6-0.2s-0.4-0.1-0.6-0.1
											s-0.4-0.1-0.6-0.1h-0.1c-0.1,0-0.2-0.2-0.2-0.3C30.1,24.7,30.1,24.7,30.2,24.6"/>
										<path id="Fill-55" class="st8" d="M25.4,25.2c-0.2,0.1-0.4,0.1-0.6,0.1s-0.4,0.1-0.6,0.1s-0.4,0.1-0.6,0.2
											s-0.4,0.1-0.6,0.2l0,0c-0.1,0-0.3,0-0.3-0.2c0-0.1,0-0.1,0-0.2c0.2-0.5,0.7-0.8,1.2-1c0.3-0.1,0.5-0.1,0.8-0.1
											s0.5,0.1,0.8,0.3c0.1,0.1,0.2,0.2,0.1,0.4C25.6,25.1,25.5,25.2,25.4,25.2L25.4,25.2z"/>
										<path id="Fill-57" class="st9" d="M28.3,27c0.5,0.6,0.9,1.3,1.3,1.9c0.4,0.7,0.7,1.3,1,2.2c0.2,1-0.2,1.9-1,2.5
											c-0.4,0.3-1,0.3-1.4,0.2c-0.5-0.2-0.8-0.5-1-0.8c-0.1-0.1-0.1-0.3,0-0.4c0.1-0.1,0.2-0.1,0.3,0l0,0
											c0.6,0.4,1.2,0.6,1.6,0.2c0.4-0.3,0.6-1,0.5-1.5c-0.1-0.6-0.5-1.3-0.8-2s-0.6-1.4-0.9-2.1c-0.1-0.1,0-0.3,0.1-0.3
											C28.1,26.8,28.2,26.9,28.3,27"/>
										<path id="Fill-59" class="st6" d="M31.5,37.5c0,1.2-0.1,2.4-0.1,3.6c-0.3,3.5-4.9,8.4-4.9,8.4c-0.3-4-1.2-6-1.6-8
											c-0.5-2.5-0.7-4-0.7-4C27.1,41.9,28.9,41.9,31.5,37.5"/>
										<path id="Fill-61" class="st10" d="M31.5,37.5c0,1.2-0.1,2.4-0.1,3.6c-0.9,1-2.1,1.7-3.4,1.7c-1.1,0-2.1-0.5-3-1.3
											c-0.6-2.4-0.7-4-0.7-4C27.1,41.9,28.9,41.9,31.5,37.5"/>
										<path id="Fill-63" class="st3" d="M18.8,23.3c0,0,4.2-0.8,8.7-0.8l1.1-2.2l0.9,2.3c0,0,4.7,0.1,7.9,1.2
											c0,0-0.5-7.3-9.3-7.3S18.8,23.3,18.8,23.3"/>
										<path id="Fill-65" class="st11" d="M22.9,48.1c-1.7-2.7-3.5,0.4-6.1-2c0.3-0.3,0.5-0.5,0.8-0.7
											C19.8,46.8,21.7,45.4,22.9,48.1"/>
										<path id="Fill-67" class="st11" d="M40.8,48.7c-4.2,0.5-4.4,4.3-8.5,2.7c4,1,3.2-3.2,7-4C39.9,47.8,40.4,48.3,40.8,48.7"
											/>
									</g>
									<g id="_x32_" transform="translate(72.000000, 0.000000)">
										<g id="Fill-69">
											<g>
												<path id="path-5_2_" d="M44,51c-0.3,0.2-0.6,0.4-0.9,0.6c-0.6,0.4-1.3,0.8-2,1.2c-3.9,2-8.3,3.2-13.1,3.2
													c-2.8,0-5.6-0.4-8.1-1.2c-0.1,0-0.2,0-0.2-0.1c-2.8-0.9-5.3-2.1-7.6-3.8C4.8,45.9,0,37.5,0,28C0,12.5,12.5,0,28,0
													s28,12.5,28,28C56,37.5,51.3,45.9,44,51z"/>
											</g>
											<g>
												<path id="path-5_1_" class="st12" d="M44,51c-0.3,0.2-0.6,0.4-0.9,0.6c-0.6,0.4-1.3,0.8-2,1.2c-3.9,2-8.3,3.2-13.1,3.2
													c-2.8,0-5.6-0.4-8.1-1.2c-0.1,0-0.2,0-0.2-0.1c-2.8-0.9-5.3-2.1-7.6-3.8C4.8,45.9,0,37.5,0,28C0,12.5,12.5,0,28,0
													s28,12.5,28,28C56,37.5,51.3,45.9,44,51z"/>
											</g>
										</g>
										<path id="Fill-71" class="st5" d="M24.2,36.6c-6.5,1.9-12.3-2.7-7.8-12.1C11,20.8,12,10.9,21.7,11.4
											c1.7-3.6,5.5-4.2,8.1,0.9C32.7,9.8,44,5.5,40,18.5c0,0,8.8,8.6-1.9,9.5c5.2,4,0.2,12.2-7.2,9.5
											C23.5,34.9,24.2,36.6,24.2,36.6"/>
										<path id="Fill-73" class="st2" d="M44,51c-0.3,0.2-0.6,0.4-0.9,0.6c-0.6,0.4-1.3,0.8-2,1.2c-3.9,2-8.3,3.2-13.1,3.2
											c-2.8,0-5.6-0.4-8.1-1.2c-0.1,0-0.2,0-0.2-0.1c-2.8-0.8-5.3-2.1-7.6-3.8c0.4-0.6,0.9-1.3,1.4-1.8c0.5-0.6,1-1.2,1.5-1.7
											c2.3-2.5,4.7-4.7,7-7.2c0.3-0.3,0.5-0.6,0.8-0.9c0.3-0.3,0.5-0.6,0.8-0.9c0,0,0-0.1,0.1-0.1c0.2-0.2,0.3-0.4,0.5-0.6
											c0.1-0.1,0.2-0.2,0.2-0.3H32c0.1,0.1,0.2,0.2,0.3,0.3l0,0c0.2,0.2,0.4,0.4,0.5,0.7l0.1,0.1c0.2,0.2,0.4,0.4,0.6,0.6
											c0.3,0.3,0.6,0.7,0.9,1c0.5,0.6,1.1,1.2,1.7,1.7c0.5,0.6,1.1,1.1,1.6,1.6C39.8,45.9,42,48.1,44,51"/>
										<path id="Fill-75" class="st13" d="M34.2,40.4c-0.8,3.8-3.6,7.2-6.2,6.9c-2.5-0.3-4.8-2.7-6.1-7c0.8-0.8,1.6-1.8,2.3-2.7
											h7.6C32.6,38.6,33.4,39.5,34.2,40.4"/>
										<path id="Fill-77" class="st9" d="M33,37.5c-0.5,2-1.1,3.5-1.7,4.6l0,0c-0.8,1.5-1.7,2.3-2.3,2.7c-0.6,0.4-1.3,0.4-1.9,0
											s-1.5-1.2-2.4-2.9c-0.6-1.1-1.1-2.5-1.6-4.5l4.9,1.7L33,37.5z"/>
										<path id="Fill-79" class="st14" d="M33,37.5c-0.5,2-1.1,3.5-1.7,4.6l0,0c-1.2,0.6-2.3,0.8-3.1,0.8c-0.9,0-2.1-0.2-3.5-1
											c-0.6-1.1-1.1-2.5-1.6-4.5l4.9,1.7L33,37.5z"/>
										<path id="Fill-81" class="st9" d="M28.1,18c12.9,0,9.1,14.1,5.2,19.7c-3.1,4.4-7,4.5-10.5,0C18.6,32.1,15.2,18,28.1,18"/>
										<path id="Fill-83" class="st3" d="M30.7,34.7c-1.8,2.2-4.4,0.9-4.4,0.9c1.1,2.5,5.1,2.8,4.5-0.9
											C30.8,34.7,30.7,34.7,30.7,34.7"/>
										<path id="Fill-85" class="st3" d="M30.8,34.9c-0.1,0.1-0.1,0.2-0.2,0.3c0,0.1,0,0.2,0,0.3c0,0.3-0.1,0.6-0.1,0.8
											c-0.1,0.4-0.4,0.6-0.7,0.8c-0.1,0.1-0.3,0.1-0.5,0.1c-0.5,0.1-1.1-0.1-1.6-0.4c-0.2-0.1-0.4-0.3-0.6-0.5l0,0
											C27,36.2,27,36.1,26.9,36c-0.1,0-0.3-0.1-0.4-0.1s-0.2-0.1-0.3-0.1l0.1-0.1l0,0l0.1-0.1c0,0.1,0.1,0.2,0.1,0.2
											c0.1,0.1,0.1,0.2,0.2,0.3c0.2,0,0.4,0.1,0.6,0.1c0.4,0,0.9,0,1.3,0c0.7-0.1,1.4-0.5,1.9-1v-0.1v-0.2l0,0l0,0l0,0l0,0l0,0
											C30.6,35,30.7,35,30.8,34.9L30.8,34.9L30.8,34.9 M31.1,35v-0.2v-0.1l0,0c0,0,0-0.1-0.1-0.1c-0.1-0.2-0.4-0.2-0.5,0
											c-0.5,0.6-1.1,1-1.9,1.1c-0.7,0.1-1.5,0-2.2-0.3l0,0c-0.1,0-0.1,0-0.2,0s-0.2,0.2-0.1,0.3c0.1,0.2,0.1,0.3,0.2,0.4
											c0.3,0.4,0.6,0.8,1.1,1.1c0.2,0.1,0.3,0.2,0.5,0.3c0.4,0.2,0.9,0.3,1.4,0.2c0.3,0,0.5-0.1,0.7-0.2c0.1,0,0.2-0.1,0.3-0.2
											c0.3-0.2,0.5-0.5,0.6-0.8s0.2-0.7,0.2-1C31.1,35.4,31.1,35.2,31.1,35"/>
										<path id="Fill-87" class="st3" d="M25.7,27.5c0,0.4-0.3,0.7-0.7,0.7c-0.4,0-0.7-0.3-0.7-0.7c0-0.4,0.3-0.7,0.7-0.7
											C25.3,26.8,25.7,27.1,25.7,27.5"/>
										<path id="Fill-89" class="st3" d="M30.4,27.5c0,0.4,0.3,0.7,0.7,0.7s0.7-0.3,0.7-0.7c0-0.4-0.3-0.7-0.7-0.7
											S30.4,27.1,30.4,27.5"/>
										<path id="Fill-93" class="st15" d="M30.2,23.9c0.2-0.2,0.5-0.2,0.8-0.3c0.3,0,0.5,0,0.8,0.1c0.5,0.1,1,0.5,1.2,1
											c0.1,0.1,0,0.3-0.1,0.4c-0.1,0-0.1,0-0.2,0l0,0c-0.2-0.1-0.4-0.2-0.6-0.2c-0.2-0.1-0.4-0.1-0.6-0.2s-0.4-0.1-0.6-0.1
											s-0.4-0.1-0.6-0.1h-0.1c-0.1,0-0.2-0.2-0.2-0.3C30.1,24,30.1,24,30.2,23.9"/>
										<path id="Fill-98" class="st15" d="M25.4,25.4c-0.2,0.1-0.4,0.1-0.6,0.1c-0.2,0.1-0.4,0.1-0.6,0.1s-0.4,0.1-0.6,0.2
											S23.2,25.9,23,26l0,0c-0.1,0-0.3,0-0.3-0.2c0-0.1,0-0.1,0-0.2c0.2-0.5,0.7-0.8,1.2-1c0.3-0.1,0.5-0.1,0.8-0.1
											s0.5,0.1,0.8,0.3c0.1,0.1,0.2,0.2,0.1,0.4C25.6,25.3,25.5,25.4,25.4,25.4L25.4,25.4z"/>
										<path id="Fill-101" class="st3" d="M28.6,27.4c-0.4,1.3-1,2.4-1.3,3.5c-0.1,0.3-0.1,0.5-0.1,0.8c0.1,0.2,0.1,0.4,0.3,0.5
											c0.3,0.3,1,0.3,1.6,0.4l0,0c0.1,0,0.2,0.1,0.2,0.3c0,0.1-0.1,0.2-0.2,0.2c-0.6,0.1-1.4,0.3-2.2-0.1
											c-0.4-0.2-0.6-0.7-0.7-1.1c0-0.4,0-0.8,0.1-1.1c0.4-1.4,1.1-2.4,1.8-3.5l0,0c0.1-0.1,0.2-0.2,0.3-0.1
											C28.6,27.2,28.7,27.3,28.6,27.4"/>
										<path id="Fill-103" class="st5" d="M18.5,31.7c2.3-0.8,5.5-11.8,0.5-10.8L18.5,31.7z"/>
										<path id="Fill-105" class="st5" d="M18.9,24.1c6.8,0,9.7-4.6,9.7-4.6s3,4.2,8,2.3c0,0,0.1-4.7-8.6-5.1
											C19.3,16.4,18.9,24.1,18.9,24.1"/>
										<path id="Fill-107" class="st5" d="M34.2,19.8c0,0-0.9,6.4,2.9,11.9C37,31.7,40.6,21.3,34.2,19.8"/>
										<path id="Fill-109" class="st16" d="M22.4,46.8c0,0.6-0.5,1.2-1.2,1.2c-0.6,0-1.2-0.5-1.2-1.2c0-0.6,0.5-1.2,1.2-1.2
											C21.9,45.7,22.4,46.2,22.4,46.8"/>
										<path id="Fill-111" class="st16" d="M28.9,50.7c0,0.6-0.5,1.2-1.2,1.2c-0.6,0-1.2-0.5-1.2-1.2c0-0.6,0.5-1.2,1.2-1.2
											C28.4,49.6,28.9,50.1,28.9,50.7"/>
										<path id="Fill-113" class="st16" d="M21.3,53.6c0,0.6-0.5,1.2-1.2,1.2c-0.6,0-1.2-0.5-1.2-1.2c0-0.6,0.5-1.2,1.2-1.2
											C20.8,52.5,21.3,53,21.3,53.6"/>
										<path id="Fill-115" class="st16" d="M15.5,48.5c0,0.6-0.5,1.2-1.2,1.2c-0.4,0-0.7-0.2-0.9-0.5c0.5-0.6,1-1.2,1.5-1.7
											C15.2,47.6,15.5,48,15.5,48.5"/>
										<path id="Fill-117" class="st16" d="M35.7,52.5c0,0.6-0.5,1.2-1.2,1.2c-0.6,0-1.2-0.5-1.2-1.2c0-0.6,0.5-1.2,1.2-1.2
											C35.1,51.3,35.7,51.8,35.7,52.5"/>
										<path id="Fill-119" class="st16" d="M37.5,43.7c-0.2,0.3-0.5,0.5-0.9,0.5c-0.6,0-1.2-0.5-1.2-1.2c0-0.4,0.2-0.7,0.5-0.9
											C36.4,42.6,37,43.1,37.5,43.7"/>
										<path id="Fill-121" class="st16" d="M37.8,48c0,0.6-0.5,1.2-1.2,1.2c-0.6,0-1.2-0.5-1.2-1.2s0.5-1.2,1.2-1.2
											C37.2,46.8,37.8,47.4,37.8,48"/>
										<path id="Fill-123" class="st16" d="M43.1,51.5c-0.6,0.4-1.3,0.8-2,1.2C41,52.6,41,52.4,41,52.2c0-0.6,0.5-1.2,1.2-1.2
											C42.6,51,42.9,51.2,43.1,51.5"/>
									</g>
									<g id="_x31_">
										<g id="Fill-1">
											<g>
												<path id="path-7_2_" d="M28,56C12.5,56,0,43.5,0,28S12.5,0,28,0s28,12.5,28,28S43.5,56,28,56z"/>
											</g>
											<g>
												<path id="path-7_1_" class="st6" d="M28,56C12.5,56,0,43.5,0,28S12.5,0,28,0s28,12.5,28,28S43.5,56,28,56z"/>
											</g>
										</g>
										<path id="Fill-3" class="st3" d="M27,12c6-6,8-3,10-1c5-3,10,7,5,12c0,0,5,9-4,12c0,0,1,7-8,8L27,12z"/>
										<path id="Fill-5" class="st3" d="M29.5,10C20.5,5,12,11,14,21c-5,7-2,14,4,18s7.5,1.8,7.5,1.8L29.5,10z"/>
										<path id="Fill-7" class="st11" d="M29.5,51.2c-0.5,1.6-1,3.2-1.5,4.8l0,0c-5.4,0-10.4-1.5-14.7-4.2
											c4.4-5.5,8.8-7.1,10.9-14.3c0,0,0.4,6.6,5.1,13.6L29.5,51.2z"/>
										<path id="Fill-10" class="st17" d="M42.5,52c-4.2,2.6-9.2,4-14.5,4c0.5-1.6,1.1-3.2,1.5-4.8c1.2-4.3,2-8.8,2-13.6
											C33.6,44.8,38,46.3,42.5,52"/>
										<path id="Fill-13" class="st18" d="M27.9,18.1c11,0,7,13.9,3.7,19.4c-2.6,4.4-4.4,4.4-7.3,0C20.5,32,16.9,18.1,27.9,18.1"
											/>
										<path id="Fill-15" class="st7" d="M25.7,34.7c0.4,0.3,0.8,0.5,1.2,0.7c0.4,0.2,0.8,0.3,1.2,0.3c0.4,0,0.8-0.1,1.2-0.3
											c0.4-0.2,0.8-0.5,1.1-0.8l0,0c0.1-0.1,0.3-0.1,0.4,0s0.1,0.2,0,0.3c-0.1,0.2-0.3,0.4-0.5,0.6c-0.2,0.2-0.4,0.4-0.6,0.6
											c-0.4,0.4-1,0.5-1.6,0.6c-0.6,0-1.2-0.1-1.7-0.4c-0.5-0.3-0.9-0.7-1.2-1.2c-0.1-0.1,0-0.3,0.1-0.3
											C25.5,34.6,25.6,34.6,25.7,34.7L25.7,34.7z"/>
										<path id="Fill-17" class="st7" d="M25.7,26.5c0,0.4-0.3,0.7-0.7,0.7c-0.4,0-0.7-0.3-0.7-0.7c0-0.4,0.3-0.7,0.7-0.7
											C25.3,25.8,25.7,26.1,25.7,26.5"/>
										<path id="Fill-19" class="st7" d="M30.4,26.5c0,0.4,0.3,0.7,0.7,0.7s0.7-0.3,0.7-0.7c0-0.4-0.3-0.7-0.7-0.7
											S30.4,26.1,30.4,26.5"/>
										<path id="Fill-21" class="st8" d="M30.2,23.9c0.2-0.2,0.5-0.2,0.8-0.3c0.3,0,0.5,0,0.8,0.1c0.5,0.1,1,0.5,1.2,1
											c0.1,0.1,0,0.3-0.1,0.4c-0.1,0-0.1,0-0.2,0l0,0c-0.2-0.1-0.4-0.2-0.6-0.2c-0.2-0.1-0.4-0.1-0.6-0.2s-0.4-0.1-0.6-0.1
											s-0.4-0.1-0.6-0.1h-0.1c-0.1,0-0.2-0.2-0.2-0.3C30.1,24,30.1,24,30.2,23.9"/>
										<path id="Fill-23" class="st8" d="M25.4,24.4c-0.2,0.1-0.4,0.1-0.6,0.1c-0.2,0.1-0.4,0.1-0.6,0.1s-0.4,0.1-0.6,0.2
											S23.2,24.9,23,25l0,0c-0.1,0-0.3,0-0.3-0.2c0-0.1,0-0.1,0-0.2c0.2-0.5,0.7-0.8,1.2-1c0.3-0.1,0.5-0.1,0.8-0.1
											s0.5,0.1,0.8,0.3c0.1,0.1,0.2,0.2,0.1,0.4C25.6,24.3,25.5,24.4,25.4,24.4L25.4,24.4z"/>
										<path id="Fill-25" class="st19" d="M28.3,27.1c0,0.9-0.1,1.8-0.3,2.8c-0.2,0.9-0.5,1.8-1,2.6l0,0l-0.1-0.6
											c0.1,0.1,0.3,0.3,0.4,0.3c0.2,0.1,0.3,0.2,0.5,0.2c0.4,0.1,0.8,0.1,1.2-0.1l0,0c0.1,0,0.3,0,0.3,0.1s0,0.2-0.1,0.3
											c-0.4,0.3-1,0.4-1.5,0.4c-0.3,0-0.5-0.1-0.8-0.2c-0.3-0.1-0.5-0.2-0.7-0.4c-0.2-0.1-0.2-0.4-0.1-0.6l0,0l0,0
											c0.5-0.7,0.8-1.5,1.1-2.3c0.3-0.8,0.5-1.7,0.5-2.5l0,0c0-0.1,0.1-0.2,0.3-0.2C28.2,26.9,28.3,27,28.3,27.1"/>
										<path id="Fill-27" class="st18" d="M31.5,37.5c0,1.2-0.1,2.4-0.1,3.6c-0.3,3.5-0.9,6.8-1.9,10L29.3,51
											c-2.4-3.6-3.7-7-4.4-9.6c-0.6-2.4-0.7-4-0.7-4C27.1,41.9,28.9,41.9,31.5,37.5"/>
										<path id="Fill-29" class="st20" d="M31.5,37.5c0,1.2-0.1,2.4-0.1,3.6c-0.9,1-2.1,1.7-3.4,1.7c-1.1,0-2.1-0.5-3-1.3
											c-0.6-2.4-0.7-4-0.7-4C27.1,41.9,28.9,41.9,31.5,37.5"/>
										<path id="Fill-31" class="st3" d="M29.7,12.6c0,0-2.9,12.5-12.1,21.3C17.6,33.9,9.2,25.1,29.7,12.6"/>
										<path id="Fill-33" class="st3" d="M22,17c0,0,5.9-1.5,15,9.2C37,26.2,41.8,11.2,22,17"/>
									</g>
									<g id="text" transform="translate(12.000000, 64.000000)">
										<path id="Rectangle" class="st21" d="M2,0h28c1.1,0,2,0.9,2,2l0,0c0,1.1-0.9,2-2,2H2C0.9,4,0,3.1,0,2l0,0C0,0.9,0.9,0,2,0
											z"/>
										<path id="Rectangle_1_" class="st22" d="M1,8h14c0.6,0,1,0.4,1,1s-0.4,1-1,1H1c-0.6,0-1-0.4-1-1S0.4,8,1,8z"/>
										<path id="Rectangle_2_" class="st22" d="M21,8h6c0.6,0,1,0.4,1,1s-0.4,1-1,1h-6c-0.6,0-1-0.4-1-1S20.4,8,21,8z"/>
									</g>
									<g id="text_1_" transform="translate(84.000000, 64.000000)">
										<path id="Rectangle_3_" class="st21" d="M2,0h28c1.1,0,2,0.9,2,2l0,0c0,1.1-0.9,2-2,2H2C0.9,4,0,3.1,0,2l0,0
											C0,0.9,0.9,0,2,0z"/>
										<path id="Rectangle_4_" class="st22" d="M1,8h8c0.6,0,1,0.4,1,1s-0.4,1-1,1H1c-0.6,0-1-0.4-1-1S0.4,8,1,8z"/>
										<path id="Rectangle_5_" class="st22" d="M15,8h10c0.6,0,1,0.4,1,1s-0.4,1-1,1H15c-0.6,0-1-0.4-1-1S14.4,8,15,8z"/>
									</g>
									<g id="text_2_" transform="translate(156.000000, 64.000000)" class="st23">
										<path id="Rectangle_6_" class="st21" d="M2,0h28c1.1,0,2,0.9,2,2l0,0c0,1.1-0.9,2-2,2H2C0.9,4,0,3.1,0,2l0,0
											C0,0.9,0.9,0,2,0z"/>
										<path id="Rectangle_7_" class="st22" d="M1,8h11c0.6,0,1,0.4,1,1s-0.4,1-1,1H1c-0.6,0-1-0.4-1-1S0.4,8,1,8z"/>
										<path id="Rectangle_8_" class="st22" d="M18,8h11c0.6,0,1,0.4,1,1s-0.4,1-1,1H18c-0.6,0-1-0.4-1-1S17.4,8,18,8z"/>
									</g>
								</g>
							</g>
						</g>
					</g>
				</g>
			</g>
		</g>
	</g>
</g>
</svg>
