<svg width="289" height="241" xmlns="http://www.w3.org/2000/svg"><g fill="none" fill-rule="evenodd"><path d="M-80.5 345.5h450v-450h-450z"/><path d="M270.5 235.278c0 2.88-2.4 5.22-5.4 5.22h-49.08c.3-1.26.48-2.64.48-4.02-.18-19.5-1.74-35.94-16.32-46.68.3-.66.48-1.44.6-2.22.18-.96-.06-1.92-.72-2.58-3.84-3.84-5.76-14.46-5.76-17.7-2.7-3.66-3.12-5.94-4.56-11.82-1.02-4.38 1.14-6.12 2.4-6.72.42-.24.6-.66.48-1.14-2.58-8.34-2.58-22.86 5.04-25.74 4.62-5.88 12.66-10.92 28.8-4.08 4.62-.84 19.02 6.36 13.86 29.94-.06.36.12.84.48.96 1.2.6 3.48 2.28 2.46 6.78-1.44 5.88-1.86 8.16-4.56 11.82 0 3.24-1.92 13.86-5.76 17.7-.6.72-.9 1.62-.72 2.58.84 5.34 4.2 8.28 15.06 11.28 10.08 2.82 15.9 6.66 19.14 12.481 3.3 5.76 4.08 13.44 4.08 23.94" fill="#F4BA67"/><path d="M99.26 155.478c-1.44 5.88-1.86 8.16-4.56 11.82 0 3.24-1.92 13.86-5.76 17.7-.6.72-.9 1.62-.72 2.58.12.78.3 1.56.54 2.22-14.52 10.8-16.08 27.24-16.26 46.74 0 1.38.18 2.7.48 3.96H23.9c-3 0-5.4-2.34-5.4-5.22 0-21 3.06-30.78 23.22-36.42 10.86-3 14.22-5.94 15.06-11.28.18-.96-.06-1.92-.72-2.58-3.84-3.84-5.76-14.46-5.76-17.7-2.7-3.66-3.12-5.94-4.56-11.82-1.02-4.38 1.14-6.12 2.4-6.72.42-.24.6-.66.48-1.14-2.58-8.34-2.58-22.86 5.04-25.74 4.62-5.88 12.66-10.92 28.8-4.08 4.62-.84 19.02 6.36 13.86 29.94-.06.36.12.84.48.96 1.2.6 3.48 2.28 2.46 6.78" fill="#A7DFE3"/><path d="M204.5 236.573c.02 2.147-1.651 3.904-3.736 3.926H88.258c-2.088-.013-3.77-1.767-3.758-3.918v-.008c.249-26.135 3.415-37.262 25.774-43.7 10.733-3.098 16.764-7.588 18.648-12.866.24-.68-.263-1.391-.96-1.484-6.745-.911-14.066-4.072-17.177-5.533-.885-.39-1.31-1.433-.96-2.356 1.32-3.725 4.575-13.37 6.39-22.828 2.498-13.036-6.09-23.066 2.655-38.777 1.912-3.431 6.615-11.56 18.13-9.335 10.007-6.6 29.742-3.54 35.525 14.482 4.163 12.155-1.869 22.487.27 33.63 1.807 9.459 5.062 19.103 6.382 22.828.35.923-.075 1.966-.96 2.356-3.113 1.46-10.434 4.622-17.177 5.533-.697.093-1.2.804-.96 1.484 1.882 5.278 7.913 9.768 18.647 12.867 22.36 6.437 25.534 17.564 25.774 43.699" fill="#1C7F8A"/><path d="M286.438 121.97l-138-120a6.015 6.015 0 0 0-7.875 0l-138 120a6.002 6.002 0 0 0 7.874 9.058L144.5 14.45l134.063 116.58a6 6 0 0 0 3.935 1.47 6.002 6.002 0 0 0 3.94-10.529" fill="#46BBC4"/></g></svg>