<?xml version="1.0" encoding="utf-8"?>
<!-- Generator: Adobe Illustrator 21.0.0, SVG Export Plug-In . SVG Version: 6.00 Build 0)  -->
<svg version="1.1" id="Слой_1" xmlns="http://www.w3.org/2000/svg" xmlns:xlink="http://www.w3.org/1999/xlink" x="0px" y="0px"
	 viewBox="0 0 242 134" style="enable-background:new 0 0 242 134;" xml:space="preserve">
<style type="text/css">
	.st0{fill:#FFFFFF;}
	.st1{fill:#D3EFF1;}
	.st2{fill:#FFFFFF;stroke:#000000;stroke-opacity:0.12;}
	.st3{fill:#5B85D2;}
	.st4{fill:#E9E4F9;}
	.st5{fill:#FADEB6;}
	.st6{fill:#3F3F3F;}
	.st7{fill:#F4BA67;}
	.st8{fill:#C67328;}
	.st9{fill:#A5CD7F;}
	.st10{fill:#A18FE7;}
	.st11{fill:#715CC3;}
	.st12{fill:#FFCDC6;}
	.st13{fill:#A23F36;}
	.st14{fill:#FF6651;}
</style>
<g>
	<rect id="path-1" class="st0" width="242" height="134"/>
</g>
<title>89229F14-7FD7-4D61-B56A-993A22F49A45</title>
<desc>Created with sketchtool.</desc>
<g id="Pricing">
	<g id="Pricing---Core-Features" transform="translate(-81.000000, -1560.000000)">
		<g id="section-3" transform="translate(81.000000, 1194.000000)">
			<g id="list" transform="translate(0.000000, 109.000000)">
				<g id="item" transform="translate(0.000000, 257.000000)">
					<g id="image">
						<g id="unlimited-users">
							<g id="mask">
								<rect id="path-1_1_" class="st1" width="242" height="134"/>
							</g>
							<g id="design">
								<g transform="translate(39.000000, 31.000000)">
									<g id="Fill-65">
										<g>
											<path id="path-3_1_" d="M145.1,52.1c-4,4.2-9.5,6.3-16.5,6.3c-5.6,0-11.3-1.6-17-4.7C106,50.5,98.8,44.4,90,35.6
												c6.5-5.7,12.2-10.1,16.9-13.3c4.7-3.3,8.8-5.6,12.2-6.8c3.4-1.4,6.9-2,10.5-2c6.5,0,11.6,2.2,15.5,6.6
												c4,4.3,6,9.8,6,16.5C151.1,42.6,149.1,47.8,145.1,52.1 M52.4,53.6C46.8,56.8,41,58.4,35,58.4c-4.5,0-8.4-0.9-11.4-2.7
												s-5.5-4.3-7.6-7.5s-3.1-7.1-3.1-11.8c0-6.7,2-12.2,6-16.5s9-6.5,15-6.5c4.2,0,8.1,0.7,11.7,2.2c3.6,1.4,7.7,3.8,12.4,7.2
												c4.7,3.3,10,7.5,16,12.7C65.2,44.4,58,50.4,52.4,53.6 M154.4,10.5C148.2,3.5,139.9,0,129.6,0c-4.9,0-9.4,0.8-13.5,2.3
												s-9.2,4.6-15.3,9.1c-6,4.5-12.3,9.9-18.9,16.4C75.4,21.4,69.1,15.9,63,11.4c-6-4.6-11-7.6-15.1-9.1
												C43.9,0.8,39.3,0,34.4,0c-10.3,0-18.6,3.5-25,10.5C3.1,17.5,0,25.9,0,35.7c0,10.5,3,19.1,8.9,26C15,68.6,23.4,72,34.1,72
												c8.4,0,15.8-1.8,22.2-5.5c6.4-3.6,14.9-10.9,25.7-21.8c10.3,10.6,18.7,17.7,25.2,21.5c6.5,3.8,14.1,5.7,22.8,5.7
												c6.7,0,12.6-1.5,17.7-4.4c5.2-3,9.2-7.3,12-13.1c2.8-5.7,4.2-12,4.2-18.8C164,25.9,160.8,17.5,154.4,10.5"/>
										</g>
										<path class="st2" d="M144.8,51.8c3.9-4.2,5.8-9.3,5.8-15.3c0-6.6-1.9-11.9-5.8-16.1C141,16.1,136,14,129.7,14
											c-3.6,0-7,0.7-10.4,2c-3.3,1.3-7.4,3.5-12.1,6.8c-4.6,3.1-10.1,7.4-16.4,12.9c8.6,8.6,15.6,14.5,21.1,17.7
											c5.6,3.1,11.2,4.6,16.8,4.6C135.5,57.9,140.9,55.9,144.8,51.8z M73.2,35.6c-5.8-5-11-9.1-15.6-12.3
											c-4.7-3.4-8.8-5.7-12.3-7.2C41.8,14.7,38,14,33.8,14c-5.9,0-10.8,2.1-14.6,6.3c-3.9,4.2-5.8,9.6-5.8,16.1
											c0,4.6,1,8.4,3,11.5s4.5,5.6,7.4,7.3c3,1.7,6.7,2.6,11.2,2.6c5.9,0,11.6-1.6,17.1-4.8l0,0C57.6,50,64.6,44.2,73.2,35.6z
											 M52.6,54.1L52.6,54.1L52.6,54.1L52.6,54.1z M154.8,10.2c6.5,7,9.7,15.6,9.7,25.6c0,6.8-1.4,13.2-4.3,19
											C157.4,60.6,153.3,65,148,68c-5.2,3-11.2,4.5-18,4.5c-8.8,0-16.5-1.9-23.1-5.8c-6.4-3.8-14.7-10.9-24.9-21.3
											C71.4,56.2,62.9,63.4,56.6,67c-6.4,3.7-13.9,5.5-22.5,5.5c-10.9,0-19.4-3.5-25.6-10.4c-6-6.9-9.1-15.7-9.1-26.3
											c0-9.9,3.2-18.5,9.6-25.6C15.5,3.1,24-0.5,34.4-0.5c5,0,9.6,0.8,13.8,2.3s9.3,4.6,15.3,9.2c6,4.4,12.1,9.8,18.6,16.1
											c6.4-6.3,12.6-11.6,18.6-16.1c6.1-4.6,11.2-7.7,15.4-9.2c4.2-1.5,8.8-2.3,13.7-2.3C140-0.5,148.4,3.1,154.8,10.2
											L154.8,10.2z"/>
									</g>
									<g id="Group" transform="translate(12.900500, 13.440000)">
										<path id="Fill-1" class="st3" d="M138.3,22.6c0,0.4,0,0.8,0,1.1c0,0.7-0.1,1.4-0.2,2.1c0,0.1,0,0.2,0,0.3
											c-0.1,0.5-0.1,1-0.3,1.4c-0.1,0.4-0.2,0.8-0.3,1.1c-0.1,0.4-0.2,0.7-0.3,1.1v0.1c-0.1,0.4-0.2,0.7-0.4,1.1
											c-0.1,0.4-0.3,0.7-0.4,1.1c-0.2,0.4-0.3,0.7-0.5,1.1c-0.2,0.4-0.3,0.7-0.5,1s-0.4,0.7-0.6,1c-0.2,0.3-0.4,0.6-0.6,0.9
											c0,0.1-0.1,0.1-0.1,0.2c-0.2,0.2-0.3,0.5-0.5,0.7c-0.1,0.2-0.2,0.3-0.3,0.5c-0.2,0.2-0.3,0.4-0.4,0.6
											c-0.3,0.4-0.7,0.8-1,1.2c-0.3,0.3-0.5,0.5-0.8,0.8c-0.1,0.1-0.1,0.1-0.2,0.2c-0.3,0.3-0.6,0.6-0.9,0.8l0,0
											c-0.8,0.6-1.6,1.1-2.5,1.6c-1.1,0.6-2.4,1.1-3.7,1.5c-1,0.3-2.1,0.5-3.1,0.7c-0.5,0.1-0.9,0.1-1.4,0.2
											c-1.1,0.1-2.2,0.2-3.4,0.2c-0.7,0-1.5,0-2.2-0.1c-0.7,0-1.4-0.1-2.2-0.2c-0.3,0-0.6-0.1-0.9-0.1c-1.3-0.2-2.5-0.5-3.8-0.9
											c-0.3-0.1-0.6-0.2-0.9-0.3c-1.4-0.5-2.9-1-4.3-1.7c-0.9-0.4-1.8-0.9-2.8-1.4c-0.5-0.3-1.1-0.7-1.7-1
											c-5.4-3.4-12-9.1-19.9-17.1C83.7,16.5,89.3,12.1,94,8.9c0.4-0.3,0.7-0.5,1.1-0.7c4.3-2.9,7.9-4.9,11.1-6.1
											c3.4-1.3,6.9-2,10.5-2c5.1,0,9.5,1.4,12.9,4.2c3.4,2.9,6,6.7,7.4,11C137.9,17.5,138.3,20,138.3,22.6"/>
										<path id="Fill-3" class="st4" d="M110.6,29.3c-1.2,0.9-4.7,1.1-5.6-5s0.2-15.5,9.2-14.8c9.6,0.8,9.7,6.8,9.2,13.2
											c-0.4,5.1-3.2,10.8-7.2,6.3S110.8,29.5,110.6,29.3"/>
										<path id="Fill-5" class="st5" d="M120.5,44.6c-0.5,0.1-0.9,0.2-1.4,0.2c-1.1,0.1-2.2,0.2-3.4,0.2c-0.7,0-1.5,0-2.2-0.1
											c-0.7,0-1.4-0.1-2.2-0.2c-0.3,0-0.6-0.1-0.9-0.2c-1.3-0.2-2.5-0.5-3.8-0.9c-0.3-0.1-0.6-0.2-0.9-0.3
											c-1.4-0.5-2.9-1-4.3-1.7c1.1-1.3,2.1-2.5,3.2-3.5c0,0,0.1,0,0.1-0.1c0.2-0.2,0.4-0.4,0.6-0.6c0,0,0-0.1,0.1-0.1
											c0.6-0.5,1.1-1,1.6-1.5c1.2-1,2.2-1.9,2.9-2.8c0.7-0.8,1.1-1.6,1.2-2.5l0,0l4.1,0.5l0.9,1.4l0,0l0.2,0.3L117,34l0.1,0.2
											l2.1,3.1l2.3,3.5l0.5,0.7l0.2,0.2l0.4,0.6l1.1,1.6C122.6,44.2,121.6,44.5,120.5,44.6"/>
										<path id="Fill-7" class="st6" d="M116.1,32.6v0.7v1.5l-0.1,2.4l-0.2,5.2l-2.2,2.5c-0.7,0-1.4-0.1-2.2-0.2
											c-0.3,0-0.6-0.1-0.9-0.1c1.7-3.5,1.7-5.8-0.6-11.3c0.7-0.8,1.1-1.6,1.2-2.5l0,0l4.1,0.5L116.1,32.6L116.1,32.6z"/>
										<path id="Fill-9" class="st7" d="M127.3,42.4c-1.2,0.6-2.4,1.1-3.7,1.5c-1,0.3-2,0.5-3.1,0.7c-0.5,0.1-0.9,0.2-1.4,0.2
											c-1.1,0.1-2.2,0.2-3.3,0.2c-0.7,0-1.5,0-2.2-0.1c-0.7,0-1.4-0.1-2.2-0.2c0.6-1.1,1.1-2.3,1.6-3.7l0,0
											c0.2-0.5,0.4-1,0.5-1.6c0.2-0.7,0.4-1.4,0.5-2.1l1-2.1l0,0l0.9-1.8l0.2-0.5l1.1-2.1c0.6,1.8,1.6,3.2,2.8,4.6
											c0.8,0.9,1.7,1.8,2.6,2.6c0.3,0.3,0.7,0.7,1.1,1c0.1,0.1,0.2,0.2,0.3,0.3c0.4,0.4,0.8,0.8,1.3,1.1
											C126,41,126.7,41.7,127.3,42.4"/>
										<path id="Fill-11" class="st8" d="M114.2,14.1c9.4,0,6,11.9,3.1,16.7c-2.2,3.7-3.8,3.8-6.3,0
											C107.9,26,104.7,14.1,114.2,14.1"/>
										<path id="Fill-13" class="st6" d="M112.3,28.7c0.3,0.2,0.5,0.4,0.8,0.5c0.3,0.2,0.5,0.3,0.8,0.4s0.5,0.1,0.8,0
											c0.3,0,0.5-0.2,0.8-0.3l0,0c0.1-0.1,0.2,0,0.3,0.1c0,0.1,0,0.2,0,0.2c-0.2,0.3-0.5,0.6-0.9,0.7c-0.4,0.2-0.8,0.2-1.2,0.1
											c-0.4-0.1-0.7-0.3-1-0.6c-0.3-0.3-0.5-0.5-0.7-0.9c0-0.1,0-0.2,0.1-0.3C112.1,28.6,112.2,28.6,112.3,28.7L112.3,28.7z"/>
										<path id="Fill-15" class="st6" d="M112.3,22.1c0,0.3-0.3,0.5-0.6,0.5c-0.3,0-0.6-0.2-0.6-0.5s0.3-0.5,0.6-0.5
											C112,21.5,112.3,21.8,112.3,22.1"/>
										<path id="Fill-17" class="st6" d="M116.4,22.1c0,0.3,0.3,0.5,0.6,0.5c0.3,0,0.6-0.2,0.6-0.5s-0.3-0.5-0.6-0.5
											C116.6,21.5,116.4,21.8,116.4,22.1"/>
										<path id="Fill-19" class="st6" d="M116.2,19.7c0.2-0.1,0.4-0.2,0.7-0.2c0.2,0,0.5,0,0.7,0.1c0.4,0.1,0.9,0.4,1.1,0.9
											c0.1,0.1,0,0.3-0.1,0.3s-0.1,0-0.2,0l0,0c-0.2-0.1-0.3-0.1-0.5-0.2c-0.2,0-0.3-0.1-0.5-0.1s-0.3-0.1-0.5-0.1
											s-0.4-0.1-0.5-0.1h-0.1c-0.1,0-0.2-0.2-0.1-0.3C116.1,19.7,116.1,19.7,116.2,19.7"/>
										<path id="Fill-21" class="st6" d="M112.1,20.2c-0.2,0.1-0.4,0.1-0.5,0.1c-0.2,0-0.3,0.1-0.5,0.1s-0.3,0.1-0.5,0.1
											s-0.3,0.1-0.5,0.2l0,0c-0.1,0-0.2,0-0.3-0.1c0-0.1,0-0.1,0-0.2c0.2-0.4,0.6-0.7,1.1-0.9c0.2-0.1,0.5-0.1,0.7-0.1
											s0.4,0.1,0.7,0.2c0.1,0.1,0.1,0.2,0.1,0.3C112.2,20.1,112.2,20.1,112.1,20.2L112.1,20.2z"/>
										<path id="Fill-23" class="st6" d="M114.5,21.7c0.4,0.5,0.7,1.1,1.1,1.7c0.3,0.6,0.6,1.2,0.8,1.9c0.1,0.8-0.2,1.7-0.9,2.1
											c-0.4,0.2-0.8,0.3-1.2,0.2c-0.4-0.1-0.7-0.4-0.9-0.7c-0.1-0.1-0.1-0.2,0-0.3c0.1-0.1,0.2-0.1,0.3,0l0,0
											c0.5,0.4,1,0.5,1.4,0.2s0.6-0.9,0.5-1.3c-0.1-0.5-0.4-1.1-0.7-1.7c-0.3-0.6-0.5-1.2-0.8-1.8c0-0.1,0-0.2,0.1-0.3
											C114.3,21.6,114.4,21.6,114.5,21.7"/>
										<path id="Fill-25" class="st8" d="M117.3,30.7c0,1,0,2.1-0.1,3.1c-0.2,3-4.2,7.2-4.2,7.2c-0.3-3.5-1-5.1-1.4-6.8
											c-0.5-2.1-0.6-3.4-0.6-3.4C113.5,34.5,115.1,34.5,117.3,30.7"/>
										<path id="Fill-27" class="st6" d="M117.3,30.7c0,1,0,2.1-0.1,3.1c-0.8,0.8-1.8,1.4-2.9,1.4c-1,0-1.8-0.4-2.6-1.1
											c-0.6-2.1-0.6-3.4-0.6-3.4C113.5,34.5,115.1,34.5,117.3,30.7"/>
										<path id="Fill-29" class="st4" d="M107.4,26.8c-0.4-6.8,0.8-9,3-10.1c1.2-0.6,5.3-0.4,6.1,1.5c0,0,5.3-4.3,4.3,5.2
											c1.1-2,3.2-10.8-7.1-10.8C103.3,12.6,107.4,26.8,107.4,26.8"/>
										<path id="Fill-31" class="st6" d="M123.7,38.9c-0.1,1.5-0.5,2.6-1.1,3.4c-0.6,0.8-1.3,1.5-2.1,2.3
											c-0.5,0.1-0.9,0.1-1.4,0.2c1-1.1,2.2-2.1,2.9-3.3c0.6-1,0.9-2.1,0.6-3.6C123,38.3,123.4,38.6,123.7,38.9"/>
										<path id="Fill-33" class="st6" d="M106.7,43.6c-0.3-0.1-0.6-0.2-0.9-0.3c0.5-1.9,0.3-3.6-1.1-5.2c0,0,0.1,0,0.1-0.1
											c0.2-0.2,0.4-0.4,0.6-0.6C106.6,38.9,107.2,40.6,106.7,43.6"/>
										<path id="Fill-35" class="st9" d="M61,22.2C52.2,31,45,37,39.4,40.2c-1.3,0.8-2.6,1.4-4,2c-3.6,1.6-7.3,2.5-11.1,2.8
											c-0.7,0-1.4,0-2.2,0c-4.2,0-7.7-0.8-10.6-2.3c-0.3-0.1-0.5-0.3-0.8-0.4c-2.2-1.3-4.2-3-5.9-5.1c-0.1-0.1-0.2-0.2-0.2-0.3
											c-2-2.6-3.4-5.6-4.1-8.9l0,0C0.1,26.5,0,24.8,0,23.1c0-6.7,2-12.2,6-16.5s9-6.5,15-6.5c4.2,0,8.1,0.7,11.7,2.2
											c3.5,1.4,7.7,3.8,12.4,7.2C49.8,12.8,55.1,17,61,22.2"/>
										<path id="Fill-37" class="st6" d="M13.9,42c2.6-3.4,1.8-7.8-1.3-14.9c-3.1-7.2-1.8-18.4,7.3-17.4c0,0,4.1-5.9,11.7-1.7
											s4.7,15.3,2,20.4s-1.7,8.9,0.3,13.8L13.9,42z"/>
										<path id="Fill-39" class="st10" d="M25.1,42.4c-0.2,0.8-0.5,1.7-0.7,2.5C23.6,45,22.9,45,22.1,45c-4.2,0-7.7-0.8-10.7-2.3
											c1.3-1.6,2.7-2.9,3.9-4c2.2-2.1,4.1-4.1,5.2-8c0,0,0,0.1,0,0.3c0,0.2,0,0.4,0.1,0.6c0,0.1,0,0.2,0,0.3
											c0.1,0.3,0.1,0.8,0.2,1.2c0.1,0.3,0.2,0.6,0.2,1c0,0.2,0.1,0.4,0.2,0.6c0,0.1,0.1,0.3,0.1,0.4c0.2,0.5,0.4,1.1,0.6,1.8
											c0.1,0.3,0.3,0.7,0.4,1s0.3,0.6,0.4,0.9c0.1,0.3,0.2,0.5,0.4,0.8c0,0.1,0.1,0.1,0.1,0.2c0.1,0.1,0.1,0.3,0.2,0.4
											c0.2,0.3,0.3,0.6,0.5,1c0.2,0.3,0.4,0.6,0.6,1c0.1,0.1,0.1,0.2,0.2,0.3L25.1,42.4z"/>
										<path id="Fill-41" class="st11" d="M35.5,42.2c-3.6,1.6-7.3,2.5-11.1,2.8c0.3-0.8,0.5-1.6,0.7-2.5c0-0.1,0.1-0.2,0.1-0.4
											l0,0c0.3-0.9,0.5-1.8,0.7-2.8c0.1-0.3,0.1-0.7,0.2-1.1c0.2-1,0.3-1.9,0.4-2.9l0,0c0.1-0.5,0.1-1,0.2-1.4
											c0.1-1,0.1-2,0.1-3.1c1.2,4.3,3.4,6.2,5.8,8.6l0,0C33.6,40.2,34.5,41.1,35.5,42.2"/>
										<path id="Fill-43" class="st12" d="M23.7,14.1c9.4,0,6,11.9,3.1,16.7c-2.2,3.7-3.8,3.8-6.3,0C17.4,26,14.3,14.1,23.7,14.1
											"/>
										<path id="Fill-45" class="st13" d="M21.8,28.3c0.3,0.2,0.7,0.4,1,0.6c0.3,0.1,0.7,0.2,1,0.2s0.7-0.1,1-0.3
											c0.3-0.2,0.6-0.4,1-0.7l0,0c0.1-0.1,0.2-0.1,0.3,0c0.1,0.1,0.1,0.2,0,0.2c-0.1,0.2-0.3,0.4-0.4,0.6
											c-0.2,0.2-0.3,0.3-0.5,0.5c-0.4,0.3-0.9,0.5-1.4,0.5s-1-0.1-1.4-0.4s-0.8-0.6-1-1c-0.1-0.1,0-0.2,0.1-0.3
											C21.6,28.2,21.7,28.2,21.8,28.3L21.8,28.3z"/>
										<path id="Fill-47" class="st13" d="M21.8,21.3c0,0.3-0.3,0.6-0.6,0.6c-0.3,0-0.6-0.3-0.6-0.6c0-0.3,0.3-0.6,0.6-0.6
											C21.5,20.7,21.8,21,21.8,21.3"/>
										<path id="Fill-49" class="st13" d="M25.9,21.3c0,0.3,0.3,0.6,0.6,0.6c0.3,0,0.6-0.3,0.6-0.6c0-0.3-0.3-0.6-0.6-0.6
											C26.2,20.7,25.9,21,25.9,21.3"/>
										<path id="Fill-51" class="st13" d="M25.7,19.1c0.2-0.1,0.4-0.2,0.7-0.2c0.2,0,0.5,0,0.7,0.1c0.4,0.1,0.9,0.4,1.1,0.9
											c0.1,0.1,0,0.2-0.1,0.3c-0.1,0-0.1,0-0.2,0l0,0c-0.2-0.1-0.3-0.1-0.5-0.2c-0.2,0-0.3-0.1-0.5-0.1s-0.3-0.1-0.5-0.1
											s-0.4-0.1-0.5-0.1h-0.1c-0.1,0-0.2-0.2-0.1-0.3C25.6,19.1,25.7,19.1,25.7,19.1"/>
										<path id="Fill-53" class="st13" d="M21.6,19.5c-0.2,0.1-0.4,0.1-0.5,0.1c-0.2,0-0.3,0.1-0.5,0.1s-0.3,0.1-0.5,0.1
											s-0.3,0.1-0.5,0.2l0,0c-0.1,0-0.2,0-0.3-0.1c0-0.1,0-0.1,0-0.2c0.2-0.4,0.6-0.7,1.1-0.9c0.2-0.1,0.5-0.1,0.7-0.1
											s0.4,0.1,0.7,0.2c0.1,0.1,0.1,0.2,0.1,0.3C21.7,19.4,21.7,19.5,21.6,19.5L21.6,19.5z"/>
										<path id="Fill-55" class="st14" d="M24.1,21.8c0,0.8-0.1,1.6-0.3,2.4c-0.2,0.8-0.5,1.5-0.8,2.3L22.9,26
											c0.1,0.1,0.2,0.2,0.4,0.3c0.1,0.1,0.3,0.2,0.4,0.2c0.3,0.1,0.7,0.1,1-0.1l0,0c0.1,0,0.2,0,0.3,0.1c0,0.1,0,0.2-0.1,0.3
											c-0.4,0.2-0.8,0.4-1.3,0.3c-0.2,0-0.5-0.1-0.7-0.2s-0.4-0.2-0.6-0.4c-0.1-0.1-0.2-0.3-0.1-0.5l0,0l0,0
											c0.4-0.6,0.7-1.3,0.9-2c0.2-0.7,0.4-1.5,0.5-2.2l0,0c0-0.1,0.1-0.2,0.2-0.2C24,21.6,24.1,21.7,24.1,21.8"/>
										<path id="Fill-57" class="st12" d="M26.8,30.7c0,1,0,2.1-0.1,3.1c-0.2,3-0.8,5.8-1.6,8.6H25c-2.1-3.1-3.2-6-3.8-8.2
											c-0.6-2.1-0.6-3.4-0.6-3.4C23.1,34.5,24.6,34.5,26.8,30.7"/>
										<path id="Fill-59" class="st13" d="M26.8,30.7c0,1,0,2.1-0.1,3.1c-0.8,0.8-1.8,1.4-2.9,1.4c-1,0-1.8-0.4-2.6-1.1
											c-0.6-2.1-0.6-3.4-0.6-3.4C23.1,34.5,24.6,34.5,26.8,30.7"/>
										<path id="Fill-61" class="st6" d="M18.3,8.9c0,0,6.8,9.1,17.2,12.4C35.6,21.3,38.9,10.7,18.3,8.9"/>
										<path id="Fill-63" class="st6" d="M26,15.5c0,0-5,0.2-11.5,7.1C14.5,22.6,13.2,6.2,26,15.5"/>
									</g>
								</g>
							</g>
						</g>
					</g>
				</g>
			</g>
		</g>
	</g>
</g>
</svg>
