<?xml version="1.0" encoding="UTF-8"?>
<svg width="96px" height="96px" viewBox="0 0 96 96" version="1.1" xmlns="http://www.w3.org/2000/svg" xmlns:xlink="http://www.w3.org/1999/xlink">
    <!-- Generator: sketchtool 59.1 (101010) - https://sketch.com -->
    <title>B3582FBB-DC38-4864-A757-4B2D8B9E9FA7</title>
    <desc>Created with sketchtool.</desc>
    <g id="Asset-Artboard-Page" stroke="none" stroke-width="1" fill="none" fill-rule="evenodd">
        <g id="icon-/-48x48-/-section-role-/-admin-icon-/-48x48-/-section-role-/-webinar">
            <g id="icon-/-48x48-/-section-role-/-webinar">
                <rect id="bounds" x="0" y="0" width="96" height="96"></rect>
                <path d="M82,64 L14,64 C12.8954305,64 12,63.1045695 12,62 C12,60.8954305 12.8954305,60 14,60 L82,60 C83.1045695,60 84,60.8954305 84,62 C84,63.1045695 83.1045695,64 82,64 Z" id="Path" fill="#F4BA67" fill-rule="nonzero"></path>
                <path d="M62.000002,51.128 C62.0168827,51.5923822 61.6543668,51.9826463 61.190002,52 L34.8140014,52 C34.3493558,51.9837036 33.9853931,51.5947017 34.0000014,51.13 L34.0000014,51.128 C34.0540014,45.3199999 34.7400014,42.8479998 39.5840015,41.4159998 C41.9100015,40.7279998 44.2160016,39.7299998 44.6240016,38.5559998 C44.6457721,38.4846058 44.6352999,38.4072659 44.5953273,38.3442322 C44.5553547,38.2811986 44.489863,38.2387492 44.4160016,38.2279998 C43.1242659,37.9952268 41.8718915,37.5811353 40.6960015,36.9979997 C40.500816,36.9041184 40.4096727,36.6766941 40.4860015,36.4739997 C41.0631038,34.8169116 41.5261846,33.1222899 41.8720015,31.4019996 C42.4120015,28.5039996 40.5520015,26.2759996 42.4460015,22.7839995 C43.0737115,21.226685 44.7339737,20.3500598 46.3740016,20.7099995 C47.793828,19.9038357 49.5069762,19.8007296 51.0132417,20.4307861 C52.5195071,21.0608426 53.6490261,22.3530092 54.0720018,23.9299995 C54.9720018,26.6299996 53.6680018,28.9259996 54.1320018,31.4019996 C54.4752574,33.1222859 54.9363439,34.8169459 55.5120018,36.4739997 C55.588909,36.6756553 55.4996482,36.9027068 55.3060018,36.9979997 C54.1294829,37.5813133 52.8764231,37.9954088 51.5840017,38.2279998 C51.5096655,38.238641 51.4437501,38.2813841 51.4037084,38.3449118 C51.3636667,38.4084396 51.3535371,38.4863447 51.3760017,38.5579998 C51.7840018,39.7299998 54.0900018,40.7279998 56.4160019,41.4179998 C61.260002,42.8479998 61.948002,45.3199999 62.000002,51.128" id="Path" fill="#1C7F8A" fill-rule="nonzero"></path>
                <path d="M86,8 L10,8 C4.4798937,8.00661223 0.00661223267,12.4798937 0,18 L0,66 C0.00661223267,71.5201059 4.4798937,75.9933873 10,76 L38,76 C38,82.3759995 33.54,84.0399995 33.368,84.1019995 C32.4364939,84.4114629 31.8672368,85.3511759 32.024331,86.320089 C32.1814251,87.289002 33.0184346,88 34,88 L62,88 C62.9815654,88 63.8185749,87.289002 63.975669,86.320089 C64.1327632,85.3511759 63.5635061,84.4114629 62.632,84.1019995 C62.586,84.0859995 58,82.4819995 58,76 L86,76 C91.5201063,75.9933873 95.9933878,71.5201059 96,66 L96,18 C95.9933878,12.4798937 91.5201063,8.00661223 86,8 L86,8 Z M56.3659992,84 L39.6339989,84 C41.2606327,81.6562836 42.0901598,78.8514584 41.9999989,76 L53.9999992,76 C53.9098383,78.8514584 54.7393654,81.6562836 56.3659992,84 L56.3659992,84 Z M92,66 C91.9966926,69.3123376 89.3123376,71.9966926 86,72 L10,72 C6.68766243,71.9966926 4.00330738,69.3123376 4,66 L4,18 C4.00330738,14.6876624 6.68766243,12.0033074 10,12 L86,12 C89.3123376,12.0033074 91.9966926,14.6876624 92,18 L92,66 Z" id="Shape" fill="#46BBC4" fill-rule="nonzero"></path>
            </g>
        </g>
    </g>
</svg>