<?xml version="1.0" encoding="utf-8"?>
<!-- Generator: Adobe Illustrator 21.0.0, SVG Export Plug-In . SVG Version: 6.00 Build 0)  -->
<svg version="1.1" id="Слой_1" xmlns="http://www.w3.org/2000/svg" xmlns:xlink="http://www.w3.org/1999/xlink" x="0px" y="0px"
	 viewBox="0 0 242 134" style="enable-background:new 0 0 242 134;" xml:space="preserve">
<style type="text/css">
	.st0{fill:#FFFFFF;}
	.st1{fill:#D3EFF1;}
	.st2{fill:#FFFFFF;stroke:#000000;stroke-opacity:0.12;}
	.st3{fill:#46BBC4;}
	.st4{fill:#1C7F8A;}
	.st5{fill:#F4BA67;}
	.st6{opacity:0.64;fill:#46BBC4;enable-background:new    ;}
	.st7{fill:#F57360;stroke:#E85B47;}
</style>
<g>
	<rect id="path-1" class="st0" width="242" height="134"/>
</g>
<title>3C47252A-1F96-4ECA-BC54-6C79B7B48B88</title>
<desc>Created with sketchtool.</desc>
<g id="Pricing">
	<g id="Pricing---Core-Features" transform="translate(-665.000000, -1817.000000)">
		<g id="section-3" transform="translate(81.000000, 1194.000000)">
			<g id="list" transform="translate(0.000000, 109.000000)">
				<g id="item" transform="translate(584.000000, 514.000000)">
					<g id="image">
						<g id="all-updates-support">
							<g id="mask">
								<rect id="path-1_1_" class="st1" width="242" height="134"/>
							</g>
							<g id="design">
								<g transform="translate(24.000000, 35.000000)">
									<g id="box">
										<g>
											<path id="path-3_1_" d="M15.4,0h33.2c5.3,0,7.3,0.6,9.2,1.6c2,1,3.5,2.6,4.5,4.5c1,2,1.6,3.9,1.6,9.2v33.2
												c0,5.3-0.6,7.3-1.6,9.2c-1,2-2.6,3.5-4.5,4.5c-2,1-3.9,1.6-9.2,1.6H15.4c-5.3,0-7.3-0.6-9.2-1.6c-2-1-3.5-2.6-4.5-4.5
												c-1-2-1.6-3.9-1.6-9.2V15.4C0,10,0.6,8.1,1.6,6.1s2.6-3.5,4.5-4.5S10,0,15.4,0z"/>
										</g>
										<path class="st2" d="M15.4-0.5h33.2c5,0,7.2,0.4,9.5,1.7c2,1.1,3.6,2.7,4.7,4.7c1.2,2.3,1.7,4.5,1.7,9.5v33.2
											c0,5-0.4,7.2-1.7,9.5c-1.1,2-2.7,3.6-4.7,4.7c-2.3,1.2-4.5,1.7-9.5,1.7H15.4c-5,0-7.2-0.4-9.5-1.7c-2-1.1-3.6-2.7-4.7-4.7
											c-1.2-2.3-1.7-4.5-1.7-9.5V15.4c0-5,0.4-7.2,1.7-9.5c1.1-2,2.7-3.6,4.7-4.7C8.2-0.1,10.4-0.5,15.4-0.5z"/>
									</g>
									<g id="icon" transform="translate(8.000000, 8.000000)">
										<path id="Fill-1" class="st3" d="M19,43.1c0.2,0,0.4,0,0.5,0.1l4.5,2.6l4.5-2.6c0.2-0.1,0.4-0.1,0.6-0.1l5.2,0.2l2.8-4.4
											c0.1-0.2,0.2-0.3,0.4-0.4l4.7-2.2l0.4-5.2c0-0.2,0.1-0.4,0.2-0.5l3.2-4.2l-2.1-4.8c-0.1-0.2-0.1-0.4-0.1-0.6l0.9-5.2
											l-4-3.3c-0.2-0.1-0.3-0.3-0.3-0.5l-1.6-5l-5.1-1c-0.2,0-0.4-0.1-0.5-0.3l-3.7-3.6l-5,1.5c-0.2,0.1-0.4,0.1-0.6,0l-5-1.5
											L15,5.8C14.9,5.9,14.7,6,14.5,6L9.4,7l-1.6,5c-0.1,0.2-0.2,0.3-0.3,0.5l-4.1,3.3L4.3,21c0,0.2,0,0.4-0.1,0.6l-2.1,4.8
											l3.2,4.2c0.1,0.2,0.2,0.3,0.2,0.5l0.4,5.2l4.7,2.2c0.2,0.1,0.3,0.2,0.4,0.4l2.8,4.4L19,43.1L19,43.1 M24,48
											c-0.2,0-0.4,0-0.5-0.1l-4.7-2.8l-5.5,0.3c-0.4,0-0.7-0.2-0.9-0.5l-2.9-4.7l-5-2.3C4.2,37.7,4,37.4,3.9,37l-0.4-5.5
											l-3.3-4.4c-0.2-0.3-0.3-0.7-0.1-1L2.3,21l-0.9-5.5c-0.1-0.4,0.1-0.7,0.4-0.9L6,11.1l1.7-5.3c0.1-0.3,0.4-0.6,0.8-0.7
											L13.9,4l3.9-3.9C18,0,18.4-0.1,18.7,0L24,1.6L29.3,0c0.3-0.1,0.7,0,1,0.2l3.9,3.9l5.4,1.1c0.4,0.1,0.6,0.3,0.8,0.7
											l1.7,5.3l4.3,3.5c0.3,0.2,0.4,0.6,0.4,0.9L45.7,21l2.2,5.1c0.1,0.3,0.1,0.7-0.1,1l-3.3,4.4L44.1,37c0,0.4-0.2,0.7-0.6,0.8
											l-5,2.3l-2.9,4.7c-0.2,0.3-0.5,0.5-0.9,0.5L29.2,45l-4.7,2.8C24.4,48,24.2,48,24,48"/>
										<path id="Fill-4" class="st4" d="M17,29c-0.3,0-0.7-0.2-0.8-0.5l-3.2-5V28c0,0.6-0.4,1-1,1s-1-0.4-1-1v-8
											c0-0.4,0.3-0.8,0.7-1c0.4-0.1,0.9,0.1,1.1,0.4l3.2,5V20c0-0.6,0.4-1,1-1s1,0.4,1,1v8c0,0.4-0.3,0.8-0.7,1
											C17.2,29,17.1,29,17,29"/>
										<path id="Fill-6" class="st4" d="M34.9,29c-0.5,0-0.9-0.3-1-0.8L33,24.4l-0.9,3.9c-0.1,0.5-0.5,0.8-1,0.8s-0.9-0.3-1-0.8
											l-1.6-8c-0.1-0.5,0.2-1.1,0.8-1.2c0.5-0.1,1.1,0.2,1.2,0.8l0.7,3.5l0.8-3.5c0.1-0.5,0.5-0.8,1-0.8s0.9,0.3,1,0.8l0.8,3.5
											l0.7-3.5c0.1-0.5,0.6-0.9,1.2-0.8c0.5,0.1,0.9,0.6,0.8,1.2l-1.6,8C35.8,28.7,35.4,29,34.9,29L34.9,29z"/>
										<path id="Fill-8" class="st4" d="M26,29h-5c-0.6,0-1-0.4-1-1v-8c0-0.6,0.4-1,1-1h5c0.6,0,1,0.4,1,1s-0.4,1-1,1h-4v6h4
											c0.6,0,1,0.4,1,1S26.6,29,26,29"/>
										<path id="Fill-10" class="st4" d="M25,25h-4c-0.6,0-1-0.4-1-1s0.4-1,1-1h4c0.6,0,1,0.4,1,1S25.6,25,25,25"/>
										<path id="Fill-12" class="st5" d="M36,33H12c-0.6,0-1-0.4-1-1c0-0.6,0.4-1,1-1h24c0.6,0,1,0.4,1,1C37,32.6,36.6,33,36,33"
											/>
										<path id="Fill-14" class="st5" d="M36,17H12c-0.6,0-1-0.4-1-1s0.4-1,1-1h24c0.6,0,1,0.4,1,1S36.6,17,36,17"/>
									</g>
									<g id="box_1_">
										<g>
											<path id="path-5_1_" d="M145.4,0h33.2c5.3,0,7.3,0.6,9.2,1.6c2,1,3.5,2.6,4.5,4.5s1.6,3.9,1.6,9.2v33.2
												c0,5.3-0.6,7.3-1.6,9.2c-1,2-2.6,3.5-4.5,4.5c-2,1-3.9,1.6-9.2,1.6h-33.2c-5.3,0-7.3-0.6-9.2-1.6c-2-1-3.5-2.6-4.5-4.5
												c-1-2-1.6-3.9-1.6-9.2V15.4c0-5.3,0.6-7.3,1.6-9.2s2.6-3.5,4.5-4.5C138.1,0.6,140,0,145.4,0z"/>
										</g>
										<path class="st2" d="M145.4-0.5h33.2c5,0,7.2,0.4,9.5,1.7c2,1.1,3.6,2.7,4.7,4.7c1.2,2.3,1.7,4.5,1.7,9.5v33.2
											c0,5-0.4,7.2-1.7,9.5c-1.1,2-2.7,3.6-4.7,4.7c-2.3,1.2-4.5,1.7-9.5,1.7h-33.2c-5,0-7.2-0.4-9.5-1.7
											c-2-1.1-3.6-2.7-4.7-4.7c-1.2-2.3-1.7-4.5-1.7-9.5V15.4c0-5,0.4-7.2,1.7-9.5c1.1-2,2.7-3.6,4.7-4.7
											C138.2-0.1,140.4-0.5,145.4-0.5z"/>
									</g>
									<g id="icon_1_" transform="translate(138.000000, 8.000000)">
										<path id="Fill-1_1_" class="st6" d="M43,38c-0.3,0-0.6-0.1-0.9-0.2l-2.8-1.5c-0.5-0.3-0.7-0.9-0.4-1.3
											c0.3-0.5,0.9-0.7,1.3-0.4L43,36l-0.8-5.1c-0.2-1.4,0.2-2.8,1.2-3.9C46,23.8,46,19.5,46,17c0-4.9,0-15-17-15
											c-7.6,0-12.6,2-15.1,6c-0.3,0.5-0.9,0.6-1.4,0.3s-0.6-0.9-0.3-1.4C15,2.3,20.7,0,29,0c19,0,19,11.9,19,17
											c0,2.8,0,7.5-3.1,11.3c-0.6,0.7-0.8,1.6-0.7,2.4l0.8,5c0.1,0.7-0.2,1.5-0.8,1.9C43.9,37.8,43.5,38,43,38"/>
										<path id="Fill-3" class="st3" d="M19,12C2,12,2,22.1,2,27c0,2.5,0,6.8,2.6,10c0.9,1.1,1.3,2.5,1.2,3.9L5,46l7.2-3.8
											c0.9-0.4,1.8-0.5,2.7-0.4c1.3,0.2,2.7,0.2,4.2,0.2c17,0,17-10.1,17-15S36,12,19,12 M4.9,48c-0.4,0-0.9-0.1-1.2-0.4
											c-0.6-0.5-0.9-1.2-0.7-2l0.8-5c0.1-0.8-0.2-1.6-0.7-2.3C0,34.5,0,29.8,0,27c0-5.1,0-17,19-17s19,11.9,19,17s0,17-19,17
											c-1.6,0-3-0.1-4.4-0.3c-0.5-0.1-1,0-1.5,0.3l-7.2,3.8C5.6,47.9,5.2,48,4.9,48"/>
										<path id="Fill-5" class="st4" d="M11,24c-1.7,0-3,1.3-3,3s1.3,3,3,3s3-1.3,3-3S12.7,24,11,24 M27,24c-1.7,0-3,1.3-3,3
											s1.3,3,3,3s3-1.3,3-3S28.7,24,27,24 M22,27c0,1.7-1.3,3-3,3s-3-1.3-3-3s1.3-3,3-3S22,25.3,22,27"/>
									</g>
									<g id="circle">
										<g>
											<path id="path-7_1_" d="M97,15c9.4,0,17,7.6,17,17s-7.6,17-17,17s-17-7.6-17-17S87.6,15,97,15z"/>
										</g>
										<path class="st7" d="M97,14.5c9.7,0,17.5,7.8,17.5,17.5S106.7,49.5,97,49.5S79.5,41.7,79.5,32S87.3,14.5,97,14.5z"/>
									</g>
									<g id="icon-_x2F_-16x16-_x2F_-plus" transform="translate(89.000000, 24.000000)">
										<g id="Color" transform="translate(1.000000, 1.000000)">
											<path class="st0" d="M13,6H8V1c0-0.6-0.4-1-1-1S6,0.4,6,1v5H1C0.4,6,0,6.4,0,7s0.4,1,1,1h5v5c0,0.6,0.4,1,1,1s1-0.4,1-1
												V8h5c0.6,0,1-0.4,1-1S13.6,6,13,6"/>
										</g>
									</g>
								</g>
							</g>
						</g>
					</g>
				</g>
			</g>
		</g>
	</g>
</g>
</svg>
