<?xml version="1.0" encoding="UTF-8"?>
<svg width="230px" height="120px" viewBox="0 0 230 120" version="1.1" xmlns="http://www.w3.org/2000/svg" xmlns:xlink="http://www.w3.org/1999/xlink">
    <!-- Generator: sketchtool 59.1 (101010) - https://sketch.com -->
    <title>6FE957D8-9202-45BF-AFD4-2C936B52E358</title>
    <desc>Created with sketchtool.</desc>
    <g id="Pages" stroke="none" stroke-width="1" fill="none" fill-rule="evenodd">
        <g id="Association-Solution" transform="translate(-245.000000, -988.000000)">
            <g id="section-2" transform="translate(218.000000, 735.000000)">
                <g id="cards" transform="translate(20.000000, 253.000000)">
                    <g id="illustrations" transform="translate(7.000000, 0.000000)">
                        <g id="association">
                            <polygon id="Fill-1" fill="#FFFFFF" points="0 120 230 120 230 0 0 0"></polygon>
                            <line x1="57" y1="87" x2="99" y2="87" id="Stroke-2" stroke="#D3EFF1" stroke-width="2" stroke-linecap="round" stroke-linejoin="round"></line>
                            <line x1="57" y1="55" x2="99" y2="55" id="Stroke-3" stroke="#D3EFF1" stroke-width="2" stroke-linecap="round" stroke-linejoin="round"></line>
                            <line x1="53" y1="53" x2="53" y2="115" id="Stroke-4" stroke="#46BBC4" stroke-width="2" stroke-linecap="round" stroke-linejoin="round"></line>
                            <line x1="103" y1="115" x2="103" y2="53" id="Stroke-5" stroke="#46BBC4" stroke-width="2" stroke-linecap="round" stroke-linejoin="round"></line>
                            <polygon id="Fill-6" fill="#1C7F8A" points="83 115 91 115 91 97 83 97"></polygon>
                            <polygon id="Stroke-7" stroke="#1C7F8A" stroke-width="2" stroke-linecap="round" stroke-linejoin="round" points="83 115 91 115 91 97 83 97"></polygon>
                            <polygon id="Stroke-8" stroke="#F4BA67" stroke-width="2" stroke-linecap="round" stroke-linejoin="round" points="51 49 105 49 105 39 51 39"></polygon>
                            <line x1="56" y1="45" x2="101" y2="45" id="Stroke-9" stroke="#FDEFDB" stroke-width="2" stroke-linecap="round" stroke-linejoin="round"></line>
                            <polygon id="Stroke-10" stroke="#A7DFE3" stroke-width="2" stroke-linecap="round" stroke-linejoin="round" points="83 77 91 77 91 65 83 65"></polygon>
                            <polygon id="Stroke-11" stroke="#A7DFE3" stroke-width="2" stroke-linecap="round" stroke-linejoin="round" points="65 77 73 77 73 65 65 65"></polygon>
                            <polygon id="Stroke-12" stroke="#A7DFE3" stroke-width="2" stroke-linecap="round" stroke-linejoin="round" points="65 105 73 105 73 97 65 97"></polygon>
                            <line x1="31" y1="119" x2="199" y2="119" id="Stroke-13" stroke="#46BBC4" stroke-width="2" stroke-linecap="round" stroke-linejoin="round"></line>
                            <line x1="85" y1="113" x2="89" y2="113" id="Stroke-15" stroke="#46BBC4" stroke-width="2" stroke-linecap="round" stroke-linejoin="round"></line>
                            <line x1="131" y1="87" x2="173" y2="87" id="Stroke-16" stroke="#D3EFF1" stroke-width="2" stroke-linecap="round" stroke-linejoin="round"></line>
                            <line x1="131" y1="55" x2="173" y2="55" id="Stroke-17" stroke="#D3EFF1" stroke-width="2" stroke-linecap="round" stroke-linejoin="round"></line>
                            <line x1="127" y1="53" x2="127" y2="115" id="Stroke-18" stroke="#46BBC4" stroke-width="2" stroke-linecap="round" stroke-linejoin="round"></line>
                            <line x1="177" y1="115" x2="177" y2="53" id="Stroke-19" stroke="#46BBC4" stroke-width="2" stroke-linecap="round" stroke-linejoin="round"></line>
                            <polygon id="Fill-20" fill="#1C7F8A" points="157 115 165 115 165 97 157 97"></polygon>
                            <polygon id="Stroke-21" stroke="#1C7F8A" stroke-width="2" stroke-linecap="round" stroke-linejoin="round" points="157 115 165 115 165 97 157 97"></polygon>
                            <line x1="159" y1="113" x2="163" y2="113" id="Stroke-22" stroke="#46BBC4" stroke-width="2" stroke-linecap="round" stroke-linejoin="round"></line>
                            <polygon id="Stroke-23" stroke="#F57361" stroke-width="2" stroke-linecap="round" stroke-linejoin="round" points="125 49 179 49 179 39 125 39"></polygon>
                            <line x1="130" y1="45" x2="175" y2="45" id="Stroke-24" stroke="#FDDED9" stroke-width="2" stroke-linecap="round" stroke-linejoin="round"></line>
                            <polygon id="Stroke-25" stroke="#A7DFE3" stroke-width="2" stroke-linecap="round" stroke-linejoin="round" points="157 77 165 77 165 65 157 65"></polygon>
                            <polygon id="Stroke-26" stroke="#A7DFE3" stroke-width="2" stroke-linecap="round" stroke-linejoin="round" points="139 77 147 77 147 65 139 65"></polygon>
                            <polygon id="Stroke-27" stroke="#A7DFE3" stroke-width="2" stroke-linecap="round" stroke-linejoin="round" points="139 105 147 105 147 97 139 97"></polygon>
                            <g id="Group-46" transform="translate(1.000000, 13.000000)" stroke-linecap="round" stroke-linejoin="round" stroke-width="2">
                                <path d="M228,38.8086 C210,45.8086 207,57.8086 180,52.8186" id="Stroke-28" stroke="#FDEFDB"></path>
                                <path d="M0,71 C20,56 32,71 48,64.89" id="Stroke-30" stroke="#FDEFDB"></path>
                                <line x1="40" y1="102" x2="40" y2="85" id="Stroke-32" stroke="#A5CD7F"></line>
                                <path d="M46,89 C46,84.582 43.313,77 40,77 C36.687,77 34,84.582 34,89 C34,93.418 36.687,95 40,95 C43.313,95 46,93.418 46,89 Z" id="Stroke-34" stroke="#A5CD7F"></path>
                                <line x1="114" y1="102" x2="114" y2="85" id="Stroke-36" stroke="#A5CD7F"></line>
                                <path d="M120,89 C120,84.582 117.313,77 114,77 C110.687,77 108,84.582 108,89 C108,93.418 110.687,95 114,95 C117.313,95 120,93.418 120,89 Z" id="Stroke-38" stroke="#A5CD7F"></path>
                                <line x1="188.1396" y1="101.999" x2="187.9496" y2="85" id="Stroke-40" stroke="#A5CD7F"></line>
                                <path d="M193.9941,88.9331 C193.9441,84.5151 191.1741,76.9641 187.8601,77.0009645 C184.5471,77.0371 181.9451,84.6491 181.9951,89.0671 C182.0441,93.4851 184.7481,95.0371 188.0611,94.9991 C191.3751,94.9621 194.0431,93.3511 193.9941,88.9331 Z" id="Stroke-42" stroke="#A5CD7F"></path>
                                <path d="M72,11 C104,-2 128.46,-2.86 164,8 C178.09,12.3 189.43,13.7 198,13.8" id="Stroke-44" stroke="#FDEFDB"></path>
                            </g>
                        </g>
                    </g>
                </g>
            </g>
        </g>
    </g>
</svg>