<?xml version="1.0" encoding="UTF-8"?>
<svg width="44px" height="44px" viewBox="0 0 44 44" version="1.1" xmlns="http://www.w3.org/2000/svg" xmlns:xlink="http://www.w3.org/1999/xlink">
    <!-- Generator: sketchtool 52.6 (67491) - http://www.bohemiancoding.com/sketch -->
    <title>568FDE4E-1577-4D16-890F-D817C586AC79</title>
    <desc>Created with sketchtool.</desc>
    <g id="Pages" stroke="none" stroke-width="1" fill="none" fill-rule="evenodd">
        <g id="Free-Trial-Home-1" transform="translate(-82.000000, -2010.000000)">
            <g id="section-4" transform="translate(80.000000, 1667.000000)">
                <g id="operation" transform="translate(0.000000, 341.000000)">
                    <g id="title">
                        <g id="icon-/-48x48-/-section-role-/-business-basics">
                            <g>
                                <rect id="bounds" x="0" y="0" width="48" height="48"></rect>
                                <path d="M16.059,22 L31.941,22 C32.451,22.0395959 32.9556434,21.8735035 33.3424338,21.5387485 C33.7292243,21.2039934 33.9660078,20.7284041 34,20.218 L34,3.782 C33.9660078,3.27159588 33.7292243,2.79600658 33.3424338,2.46125152 C32.9556434,2.12649646 32.451,1.96040406 31.941,2 L16.059,2 C15.549,1.96040406 15.0443566,2.12649646 14.6575662,2.46125152 C14.2707757,2.79600658 14.0339922,3.27159588 14,3.782 L14,20.218 C14.0339922,20.7284041 14.2707757,21.2039934 14.6575662,21.5387485 C15.0443566,21.8735035 15.549,22.0395959 16.059,22 Z M16,4 C16.0196504,3.99887034 16.0393496,3.99887034 16.059,4 L31.941,4 C31.9606504,3.99887034 31.9803496,3.99887034 32,4 L32,20 C31.9803496,20.0011297 31.9606504,20.0011297 31.941,20 L16.059,20 C16.0393496,20.0011297 16.0196504,20.0011297 16,20 L16,4 Z M19.941,26 L4.059,26 C3.549,25.9604041 3.04435665,26.1264965 2.65756615,26.4612515 C2.27077566,26.7960066 2.03399217,27.2715959 2,27.782 L2,44.218 C2.03399217,44.7284041 2.27077566,45.2039934 2.65756615,45.5387485 C3.04435665,45.8735035 3.549,46.0395959 4.059,46 L19.941,46 C20.451,46.0395959 20.9556434,45.8735035 21.3424338,45.5387485 C21.7292243,45.2039934 21.9660078,44.7284041 22,44.218 L22,27.782 C21.9660078,27.2715959 21.7292243,26.7960066 21.3424338,26.4612515 C20.9556434,26.1264965 20.451,25.9604041 19.941,26 Z M20,44 C19.9803496,44.0011297 19.9606504,44.0011297 19.941,44 L4.059,44 C4.03934956,44.0011297 4.01965044,44.0011297 4,44 L4,28 C4.01965044,27.9988703 4.03934956,27.9988703 4.059,28 L19.941,28 C19.9606504,27.9988703 19.9803496,27.9988703 20,28 L20,44 Z M43.941,26 L28.059,26 C27.549,25.9604041 27.0443566,26.1264965 26.6575662,26.4612515 C26.2707757,26.7960066 26.0339922,27.2715959 26,27.782 L26,44.218 C26.0339922,44.7284041 26.2707757,45.2039934 26.6575662,45.5387485 C27.0443566,45.8735035 27.549,46.0395959 28.059,46 L43.941,46 C44.451,46.0395959 44.9556434,45.8735035 45.3424338,45.5387485 C45.7292243,45.2039934 45.9660078,44.7284041 46,44.218 L46,27.782 C45.9660078,27.2715959 45.7292243,26.7960066 45.3424338,26.4612515 C44.9556434,26.1264965 44.451,25.9604041 43.941,26 Z M44,44 C43.9803496,44.0011297 43.9606504,44.0011297 43.941,44 L28.059,44 C28.0393496,44.0011297 28.0196504,44.0011297 28,44 L28,28 C28.0196504,27.9988703 28.0393496,27.9988703 28.059,28 L43.941,28 C43.9606504,27.9988703 43.9803496,27.9988703 44,28 L44,44 Z" id="Shape" fill="#46BBC4" fill-rule="nonzero"></path>
                                <path d="M27.938,15.647 L24.938,7.647 C24.7921391,7.25575983 24.4185455,6.99632936 24.001,6.99632936 C23.5834545,6.99632936 23.2098609,7.25575983 23.064,7.647 L20.064,15.647 C19.9707469,15.8954979 19.9801097,16.1708748 20.0900257,16.412465 C20.1999418,16.6540552 20.4013931,16.8420377 20.65,16.935 C20.7620044,16.9768359 20.8804431,16.9988317 21,17 C21.4171213,17.0002605 21.7905905,16.7415823 21.937,16.351 L22.444,15 L25.558,15 L26.064,16.351 C26.1890429,16.6857579 26.4831786,16.9283773 26.8356089,16.9874658 C27.1880392,17.0465544 27.5452216,16.9131351 27.7726089,16.6374658 C27.9999962,16.3617965 28.063043,15.9857579 27.938,15.651 L27.938,15.647 Z M23.193,13 L24,10.848 L24.807,13 L23.193,13 Z" id="Shape" fill="#F4BA67" fill-rule="nonzero"></path>
                                <path d="M14.941,35.732 C15.5944225,34.8192168 15.681732,33.6174133 15.1670994,32.6197724 C14.6524667,31.6221314 13.622552,30.9966476 12.5,31 L9,31 C8.44771525,31 8,31.4477153 8,32 L8,40 C8,40.5522847 8.44771525,41 9,41 L13,41 C14.2559772,41.0052586 15.3810768,40.2242585 15.8153098,39.0457221 C16.2495428,37.8671856 15.900137,36.5429025 14.941,35.732 Z M10,33 L12.5,33 C13.0522847,33 13.5,33.4477153 13.5,34 C13.5,34.5522847 13.0522847,35 12.5,35 L10,35 L10,33 Z M13,39 L10,39 L10,37 L13,37 C13.5522847,37 14,37.4477153 14,38 C14,38.5522847 13.5522847,39 13,39 Z" id="Shape" fill="#1C7F8A" fill-rule="nonzero"></path>
                                <path d="M37,41 C33.822,41 32,39.178 32,36 C32,32.822 33.822,31 37,31 C37.8779771,31.0018646 38.7400675,31.2342842 39.5,31.674 C39.8119508,31.8513616 40.0049532,32.1822732 40.0057421,32.5411183 C40.006531,32.8999634 39.8149854,33.2317204 39.5038174,33.4104519 C39.1926495,33.5891833 38.8095704,33.5874844 38.5,33.406 C38.0446322,33.1405647 37.527082,33.0004811 37,33 C34.925,33 34,33.925 34,36 C34,38.075 34.925,39 37,39 C37.527082,38.9995189 38.0446322,38.8594353 38.5,38.594 C38.97786,38.3223097 39.5854205,38.4872584 39.8602745,38.9633057 C40.1351286,39.439353 39.9742136,40.0479942 39.5,40.326 C38.7400675,40.7657158 37.8779771,40.9981354 37,41 Z" id="Path" fill="#F57361"></path>
                            </g>
                        </g>
                    </g>
                </g>
            </g>
        </g>
    </g>
</svg>