<?xml version="1.0" encoding="UTF-8"?>
<svg width="478px" height="333px" viewBox="0 0 478 333" version="1.1" xmlns="http://www.w3.org/2000/svg" xmlns:xlink="http://www.w3.org/1999/xlink">
    <!-- Generator: Sketch 53 (72520) - https://sketchapp.com -->
    <title>callout-bg-buildings</title>
    <desc>Created with Sketch.</desc>
    <g id="callout-bg-buildings" stroke="none" stroke-width="1" fill="none" fill-rule="evenodd" opacity="0.319999993">
        <g id="background">
            <g id="callout-2-bg">
                <polyline id="Stroke-1" stroke="#85D2D8" stroke-width="4" stroke-linecap="round" stroke-linejoin="round" points="420.0001 20 420.0001 332 196.0001 332 196.0001 20"></polyline>
                <polygon id="Stroke-3" stroke="#85D2D8" stroke-width="4" stroke-linecap="round" stroke-linejoin="round" points="216 284 264 284 264 244 216 244"></polygon>
                <polygon id="Stroke-4" stroke="#85D2D8" stroke-width="4" stroke-linecap="round" stroke-linejoin="round" points="352 284 400 284 400 244 352 244"></polygon>
                <polygon id="Stroke-5" stroke="#85D2D8" stroke-width="4" stroke-linecap="round" stroke-linejoin="round" points="352 216 400 216 400 176 352 176"></polygon>
                <polygon id="Stroke-6" stroke="#85D2D8" stroke-width="4" stroke-linecap="round" stroke-linejoin="round" points="284 216 332 216 332 176 284 176"></polygon>
                <polygon id="Stroke-7" stroke="#85D2D8" stroke-width="4" stroke-linecap="round" stroke-linejoin="round" points="216 216 264 216 264 176 216 176"></polygon>
                <polygon id="Stroke-8" stroke="#85D2D8" stroke-width="4" stroke-linecap="round" stroke-linejoin="round" points="352 148 400 148 400 108 352 108"></polygon>
                <polygon id="Stroke-9" stroke="#85D2D8" stroke-width="4" stroke-linecap="round" stroke-linejoin="round" points="284 148 332 148 332 108 284 108"></polygon>
                <polygon id="Stroke-10" stroke="#85D2D8" stroke-width="4" stroke-linecap="round" stroke-linejoin="round" points="216 148 264 148 264 108 216 108"></polygon>
                <polygon id="Stroke-11" stroke="#85D2D8" stroke-width="4" stroke-linecap="round" stroke-linejoin="round" points="352 80 400 80 400 40 352 40"></polygon>
                <polygon id="Stroke-12" stroke="#85D2D8" stroke-width="4" stroke-linecap="round" stroke-linejoin="round" points="284 80 332 80 332 40 284 40"></polygon>
                <polygon id="Stroke-13" stroke="#85D2D8" stroke-width="4" stroke-linecap="round" stroke-linejoin="round" points="216 80 264 80 264 40 216 40"></polygon>
                <polygon id="Stroke-14" stroke="#F4BA67" stroke-width="4" stroke-linecap="round" stroke-linejoin="round" points="186 12 430 12 430 0 186 0"></polygon>
                <path d="M276.0001,324 L204.0001,324" id="Stroke-16" stroke="#C2E9EC" stroke-width="4" stroke-linecap="round" stroke-linejoin="round"></path>
                <path d="M360.0001,208 L392.0001,208" id="Stroke-17" stroke="#C2E9EC" stroke-width="4" stroke-linecap="round" stroke-linejoin="round"></path>
                <path d="M224.0001,276 L256.0001,276" id="Stroke-18" stroke="#C2E9EC" stroke-width="4" stroke-linecap="round" stroke-linejoin="round"></path>
                <path d="M224.0001,140 L256.0001,140" id="Stroke-19" stroke="#C2E9EC" stroke-width="4" stroke-linecap="round" stroke-linejoin="round"></path>
                <path d="M292.0001,72 L324.0001,72" id="Stroke-20" stroke="#C2E9EC" stroke-width="4" stroke-linecap="round" stroke-linejoin="round"></path>
                <path d="M412.0001,324 L340.0001,324" id="Stroke-21" stroke="#C2E9EC" stroke-width="4" stroke-linecap="round" stroke-linejoin="round"></path>
                <polyline id="Stroke-22" stroke="#85D2D8" stroke-width="4" stroke-linecap="round" stroke-linejoin="round" points="196.0001 152 196.0001 332 16.0001 332 16.0001 152"></polyline>
                <polygon id="Stroke-24" stroke="#85D2D8" stroke-width="4" stroke-linecap="round" stroke-linejoin="round" points="48 284 96 284 96 244 48 244"></polygon>
                <polygon id="Stroke-25" stroke="#85D2D8" stroke-width="4" stroke-linecap="round" stroke-linejoin="round" points="48 216 164 216 164 176 48 176"></polygon>
                <polyline id="Stroke-26" stroke="#F4BA67" stroke-width="4" stroke-linecap="round" stroke-linejoin="round" points="188.0001 144 6.0001 144 6.0001 132 106.0001 108 188.0001 127.68"></polyline>
                <path d="M108.0001,324 L24.0001,324" id="Stroke-27" stroke="#C2E9EC" stroke-width="4" stroke-linecap="round" stroke-linejoin="round"></path>
                <path d="M56.0001,276 L88.0001,276" id="Stroke-28" stroke="#C2E9EC" stroke-width="4" stroke-linecap="round" stroke-linejoin="round"></path>
                <path d="M56.0001,196 L156.0001,196" id="Stroke-29" stroke="#C2E9EC" stroke-width="4" stroke-linecap="round" stroke-linejoin="round"></path>
                <path d="M188.0001,324 L172.0001,324" id="Stroke-30" stroke="#C2E9EC" stroke-width="4" stroke-linecap="round" stroke-linejoin="round"></path>
                <path d="M88.0001,184 L88.0001,208" id="Stroke-31" stroke="#C2E9EC" stroke-width="4" stroke-linecap="round" stroke-linejoin="round"></path>
                <path d="M124.0001,184 L124.0001,208" id="Stroke-32" stroke="#C2E9EC" stroke-width="4" stroke-linecap="round" stroke-linejoin="round"></path>
                <path d="M436.0001,332 L0.000100000005,332" id="Stroke-33" stroke="#85D2D8" stroke-width="4" stroke-linecap="round" stroke-linejoin="round"></path>
                <polygon id="Fill-35" fill="#2B8E9E" points="116 332 164 332 164 244 116 244"></polygon>
                <polygon id="Stroke-36" stroke="#2B8E9E" stroke-width="4" stroke-linecap="round" stroke-linejoin="round" points="116 332 164 332 164 244 116 244"></polygon>
                <path d="M158.0001,292 C158.0001,293.104 157.1041,294 156.0001,294 C154.8961,294 154.0001,293.104 154.0001,292 C154.0001,290.896 154.8961,290 156.0001,290 C157.1041,290 158.0001,290.896 158.0001,292" id="Fill-38" fill="#FFFFFF"></path>
                <polygon id="Fill-39" fill="#2B8E9E" points="284 332 332 332 332 244 284 244"></polygon>
                <polygon id="Stroke-40" stroke="#2B8E9E" stroke-width="4" stroke-linecap="round" stroke-linejoin="round" points="284 332 332 332 332 244 284 244"></polygon>
                <path d="M326.0001,292 C326.0001,293.104 325.1041,294 324.0001,294 C322.8961,294 322.0001,293.104 322.0001,292 C322.0001,290.896 322.8961,290 324.0001,290 C325.1041,290 326.0001,290.896 326.0001,292" id="Fill-41" fill="#FFFFFF"></path>
                <polygon id="Fill-48" fill="#C2E9EC" points="446.0001 312 474.0001 312 470.0001 332 450.0001 332"></polygon>
                <polygon id="Stroke-49" stroke="#C2E9EC" stroke-width="4" stroke-linecap="round" stroke-linejoin="round" points="446.0001 312 474.0001 312 470.0001 332 450.0001 332"></polygon>
                <path d="M460.0001,266 C463.3131,266 466.0001,263.313 466.0001,260 C466.0001,256.687 463.3131,254 460.0001,254 C456.6871,254 454.0001,256.687 454.0001,260 C454.0001,263.313 456.6871,266 460.0001,266" id="Fill-50" fill="#FBE8CD"></path>
                <path d="M460.0001,266 C463.3131,266 466.0001,263.313 466.0001,260 C466.0001,256.687 463.3131,254 460.0001,254 C456.6871,254 454.0001,256.687 454.0001,260 C454.0001,263.313 456.6871,266 460.0001,266 Z" id="Stroke-51" stroke="#FBE8CD" stroke-width="4" stroke-linecap="round" stroke-linejoin="round"></path>
                <path d="M478.0001,290 C478.0001,285.162 474.5641,281.129 470.0001,280.202 L470.0001,279.241 C471.5411,277.478 472.3611,275.066 471.8471,272.434 C471.2911,269.59 469.1201,267.209 466.3501,266.36 C463.9811,265.634 461.7911,266.067 460.0001,267.109 C458.2091,266.067 456.0191,265.634 453.6501,266.36 C450.8801,267.209 448.7091,269.59 448.1531,272.434 C447.6391,275.066 448.4581,277.478 450.0001,279.241 L450.0001,280.202 C445.4361,281.129 442.0001,285.162 442.0001,290 C442.0001,294.195 444.5901,297.769 448.2551,299.246 C449.5231,299.759 450.5181,300.732 451.3811,301.795 C452.4741,303.139 454.1301,304 456.0001,304 L464.0001,304 C465.8701,304 467.5261,303.139 468.6191,301.795 C469.4821,300.732 470.4761,299.759 471.7451,299.246 C475.4101,297.769 478.0001,294.195 478.0001,290" id="Fill-52" fill="#FBE8CD"></path>
                <path d="M478.0001,290 C478.0001,285.162 474.5641,281.129 470.0001,280.202 L470.0001,279.241 C471.5411,277.478 472.3611,275.066 471.8471,272.434 C471.2911,269.59 469.1201,267.209 466.3501,266.36 C463.9811,265.634 461.7911,266.067 460.0001,267.109 C458.2091,266.067 456.0191,265.634 453.6501,266.36 C450.8801,267.209 448.7091,269.59 448.1531,272.434 C447.6391,275.066 448.4581,277.478 450.0001,279.241 L450.0001,280.202 C445.4361,281.129 442.0001,285.162 442.0001,290 C442.0001,294.195 444.5901,297.769 448.2551,299.246 C449.5231,299.759 450.5181,300.732 451.3811,301.795 C452.4741,303.139 454.1301,304 456.0001,304 L464.0001,304 C465.8701,304 467.5261,303.139 468.6191,301.795 C469.4821,300.732 470.4761,299.759 471.7451,299.246 C475.4101,297.769 478.0001,294.195 478.0001,290 Z" id="Stroke-53" stroke="#FBE8CD" stroke-width="4" stroke-linecap="round" stroke-linejoin="round"></path>
            </g>
        </g>
    </g>
</svg>