<svg width="218" height="187" xmlns="http://www.w3.org/2000/svg"><path d="M167.62 138.772v-.424c0-5.148 2.786-13.317 10.262-13.317.952 0 2.126.474 3.263.933l.536.217a3.057 3.057 0 0 0 2.368-.048 3.026 3.026 0 0 0 1.615-1.717c1.757-4.767 6.478-7.725 12.324-7.725 7.517 0 13.135 7.762 13.135 14.702 0 1.861-.36 4.918-.926 7.379h-42.576zm-97.709 0h15.195v-27.129H69.911v27.129zm-42.547 0H7.389c-.475-1.93-.59-3.774-.59-5.82 0-7.015 6.378-12.72 14.217-12.72 2.324 0 4.845 1.212 6.917 3.324a3.055 3.055 0 0 0 4.191.155c1.315-1.153 3.204-1.623 6.52-1.623 5.558 0 9.867 6.161 9.867 11.46 0 1.334-.173 3.581-.39 5.224H27.364zM93.736 7.276l41.29 40.952-42.963 42.611a2.996 2.996 0 0 0 0 4.262 3.053 3.053 0 0 0 4.297 0l13.06-12.952v31.002c0 1.663 1.36 3.014 3.038 3.014 1.68 0 3.04-1.35 3.04-3.014V76.12l39.02-38.702 39.996 39.669v33.868c-5.765.89-10.534 3.962-13.252 8.616-1.032-.324-2.165-.57-3.38-.57-10.614 0-16.34 9.967-16.34 19.346v.424H91.186v-30.143c0-1.664-1.36-3.014-3.04-3.014H66.873c-1.678 0-3.04 1.35-3.04 3.014v30.143h-9.594c.27-2.344.351-4.719.351-5.224 0-8.254-6.818-17.489-15.944-17.489-2.655 0-5.606.22-8.262 1.583-1.883-1.471-3.94-2.487-6.058-3.014V76.12L93.736 7.276zm120.532 173.695H9.358c-4.835-7.469-.904-13.113.905-15.11.127.017.253.04.386.04h199.869c.84 0 1.642-.346 2.217-.953 7.55-7.985 5.654-16.549 2.483-21.888.047-.098.118-.183.155-.288 1.129-3.232 1.828-8.424 1.828-11.38 0-10.092-7.504-19.028-16.609-20.496v-27.78l12.085 11.985c.593.59 1.37.883 2.149.883.778 0 1.556-.294 2.148-.883a2.996 2.996 0 0 0 0-4.262l-16.595-16.46a3.024 3.024 0 0 0-1.724-1.709l-41.987-41.645a3.058 3.058 0 0 0-4.299 0l-13.047 12.94L95.886.884a3.058 3.058 0 0 0-4.299 0L.89 90.839a2.996 2.996 0 0 0 0 4.262c.593.59 1.37.883 2.149.883.778 0 1.556-.294 2.148-.883l13.06-12.952V114.4C8.364 115.654.72 123.483.72 132.951c0 2.78.186 6.127 1.569 9.872a3.04 3.04 0 0 0 2.853 1.977h203.945c1.799 2.392 5.333 8.573.05 15.072H10.648c-.293 0-.57.054-.838.13a3.042 3.042 0 0 0-2.87.626c-4.292 3.765-10.15 13.87-1.596 25.168A3.046 3.046 0 0 0 7.774 187h206.494c1.68 0 3.04-1.35 3.04-3.014 0-1.664-1.36-3.015-3.04-3.015zm-63.833-74.84h15.196v-21.1h-15.196v21.1zm-7.598 6.029h30.391c1.68 0 3.04-1.35 3.04-3.014 0-1.664-1.36-3.015-3.04-3.015h-1.52V82.017c0-1.664-1.36-3.014-3.038-3.014h-21.274c-1.677 0-3.039 1.35-3.039 3.014v24.114h-1.52c-1.677 0-3.039 1.35-3.039 3.015 0 1.663 1.362 3.014 3.04 3.014z" fill="#46BBC4" fill-rule="evenodd" opacity=".08"/></svg>