<svg width="48" height="48" xmlns="http://www.w3.org/2000/svg"><g fill="none" fill-rule="evenodd"><path d="M0 0h48v48H0z"/><path d="M24 46C11.869 46 2 36.131 2 24S11.869 2 24 2s22 9.869 22 22-9.869 22-22 22m0-46C10.767 0 0 10.767 0 24s10.767 24 24 24 24-10.767 24-24S37.233 0 24 0" fill="#46BBC4"/><path d="M24 19a5 5 0 0 0-5 5 5 5 0 0 0 5 5 5 5 0 0 0 5-5 5 5 0 0 0-5-5" fill="#F4BA67"/><path d="M24 6a1 1 0 0 0-1 1v10a1 1 0 1 0 2 0V7a1 1 0 0 0-1-1" fill="#1C7F8A"/><path d="M36.728 35.313l-6.95-6.949a.999.999 0 1 0-1.413 1.415l6.95 6.948a.997.997 0 0 0 1.413 0 .999.999 0 0 0 0-1.413" fill="#F57361"/><path d="M41 23a1 1 0 1 0 0 2 1 1 0 1 0 0-2m-5.687-11.728c-.39.39-.39 1.024 0 1.415.391.39 1.025.39 1.415 0 .39-.391.39-1.025 0-1.415a1.002 1.002 0 0 0-1.415 0M24 40a1 1 0 1 0 0 2 1 1 0 1 0 0-2M7 23a1 1 0 1 0 0 2 1 1 0 1 0 0-2m4.272 12.313a1.002 1.002 0 0 0 0 1.415c.39.39 1.024.39 1.415 0 .39-.39.39-1.024 0-1.415a1.002 1.002 0 0 0-1.415 0m1.415-24.041c.39.39.39 1.024 0 1.415-.391.39-1.025.39-1.415 0a1.002 1.002 0 0 1 0-1.415c.39-.39 1.024-.39 1.415 0" fill="#A7DFE3"/></g></svg>