<?xml version="1.0" encoding="utf-8"?>
<!-- Generator: Adobe Illustrator 21.0.0, SVG Export Plug-In . SVG Version: 6.00 Build 0)  -->
<svg version="1.1" id="Слой_1" xmlns="http://www.w3.org/2000/svg" xmlns:xlink="http://www.w3.org/1999/xlink" x="0px" y="0px"
	 viewBox="0 0 242 134" style="enable-background:new 0 0 242 134;" xml:space="preserve">
<style type="text/css">
	.st0{fill:#FFFFFF;}
	.st1{fill:#D3EFF1;}
	.st2{fill:#FFFFFF;stroke:#000000;stroke-opacity:0.12;}
	.st3{enable-background:new    ;}
	.st4{fill:#525252;}
	.st5{opacity:0.64;fill:#46BBC4;enable-background:new    ;}
	.st6{opacity:0.32;fill:#46BBC4;enable-background:new    ;}
	.st7{fill:#D2CAF4;}
	.st8{fill:#A65B10;}
	.st9{fill:#715CC3;}
	.st10{fill:#2A4EA1;}
	.st11{fill:#FDEFDB;}
	.st12{fill:#A23F36;}
	.st13{opacity:0.5;fill:#A23F36;enable-background:new    ;}
	.st14{fill:#C67328;}
	.st15{opacity:0.23;fill:#A65B10;enable-background:new    ;}
	.st16{fill:#1C7F8A;}
</style>
<g>
	<rect id="path-1" class="st0" width="242" height="134"/>
</g>
<title>6A5225B0-8482-4C36-8E90-CE17E4D73647</title>
<desc>Created with sketchtool.</desc>
<g id="Pricing">
	<g id="Pricing---Core-Features" transform="translate(-81.000000, -2331.000000)">
		<g id="section-3" transform="translate(81.000000, 1194.000000)">
			<g id="list" transform="translate(0.000000, 109.000000)">
				<g id="item" transform="translate(0.000000, 1028.000000)">
					<g id="image">
						<g id="credit-background-check">
							<g id="mask">
								<rect id="path-1_1_" class="st1" width="242" height="134"/>
							</g>
							<g id="design">
								<g transform="translate(33.000000, 26.000000)">
									<g id="box">
										<g>
											<path id="path-3_1_" d="M30,0h144c1.1,0,2,0.9,2,2v65c0,1.1-0.9,2-2,2H30c-1.1,0-2-0.9-2-2V2C28,0.9,28.9,0,30,0z"/>
										</g>
										<path class="st2" d="M30-0.5h144c1.4,0,2.5,1.1,2.5,2.5v65c0,1.4-1.1,2.5-2.5,2.5H30c-1.4,0-2.5-1.1-2.5-2.5V2
											C27.5,0.6,28.6-0.5,30-0.5z"/>
									</g>
									<g id="text" transform="translate(80.000000, 13.000000)">
										<g class="st3">
											<g class="st3">
												<path class="st4" d="M2.6,10V3.7H0.2V2.8h5.7v0.8H3.5V10H2.6z"/>
												<path class="st4" d="M9,9.4C8.7,9.6,8.4,9.8,8.1,9.9s-0.6,0.2-1,0.2c-0.6,0-1-0.1-1.3-0.4C5.5,9.4,5.4,9.1,5.4,8.6
													c0-0.3,0.1-0.5,0.2-0.7C5.7,7.7,5.8,7.6,6,7.4s0.4-0.2,0.6-0.3c0.2,0,0.4-0.1,0.8-0.1C8.1,6.9,8.6,6.8,9,6.7
													c0-0.1,0-0.2,0-0.2c0-0.4-0.1-0.6-0.2-0.8c-0.2-0.2-0.6-0.3-1-0.3C7.3,5.4,7,5.5,6.8,5.6C6.6,5.8,6.5,6,6.4,6.4L5.5,6.3
													c0.1-0.4,0.2-0.7,0.4-0.9C6.1,5.2,6.3,5,6.7,4.9C7,4.8,7.4,4.7,7.9,4.7c0.4,0,0.8,0.1,1.1,0.2C9.2,5,9.4,5.1,9.5,5.2
													c0.1,0.2,0.2,0.4,0.3,0.6c0,0.1,0,0.4,0,0.8v1.2c0,0.8,0,1.3,0.1,1.5c0,0.2,0.1,0.4,0.2,0.6H9.2C9.1,9.8,9.1,9.6,9,9.4z
													 M9,7.4C8.7,7.5,8.2,7.6,7.5,7.7C7.2,7.8,6.9,7.8,6.8,7.9S6.5,8.1,6.4,8.2C6.3,8.3,6.3,8.5,6.3,8.6
													c0,0.2,0.1,0.4,0.3,0.6S7,9.4,7.3,9.4c0.3,0,0.6-0.1,0.9-0.2c0.3-0.1,0.5-0.4,0.6-0.6C8.9,8.4,9,8.1,9,7.7V7.4z"/>
												<path class="st4" d="M11.2,12l-0.1-0.8c0.2,0.1,0.4,0.1,0.5,0.1c0.2,0,0.4,0,0.5-0.1s0.2-0.2,0.3-0.3
													c0.1-0.1,0.1-0.3,0.3-0.7c0,0,0-0.1,0.1-0.2l-2-5.2h0.9l1.1,3C12.9,8.2,13,8.6,13.1,9c0.1-0.4,0.2-0.8,0.4-1.2l1.1-3
													h0.9l-2,5.3c-0.2,0.6-0.4,1-0.5,1.2c-0.2,0.3-0.3,0.5-0.5,0.6c-0.2,0.1-0.4,0.2-0.7,0.2C11.6,12.1,11.4,12.1,11.2,12z"
													/>
												<path class="st4" d="M16.2,10V2.8h0.9V10H16.2z"/>
												<path class="st4" d="M18.1,7.4c0-1,0.3-1.7,0.8-2.1c0.4-0.4,1-0.6,1.6-0.6c0.7,0,1.3,0.2,1.7,0.7
													C22.7,5.9,23,6.5,23,7.3c0,0.7-0.1,1.2-0.3,1.6c-0.2,0.4-0.5,0.7-0.9,0.9c-0.4,0.2-0.8,0.3-1.3,0.3
													c-0.7,0-1.3-0.2-1.8-0.7C18.3,9,18.1,8.3,18.1,7.4z M19,7.4c0,0.7,0.1,1.2,0.4,1.5c0.3,0.3,0.7,0.5,1.1,0.5
													c0.4,0,0.8-0.2,1.1-0.5s0.4-0.8,0.4-1.5c0-0.6-0.1-1.1-0.4-1.5c-0.3-0.3-0.7-0.5-1.1-0.5c-0.4,0-0.8,0.2-1.1,0.5
													S19,6.7,19,7.4z"/>
												<path class="st4" d="M24,10V4.8h0.8v0.8C25,5.2,25.2,5,25.3,4.9c0.2-0.1,0.4-0.2,0.6-0.2c0.3,0,0.6,0.1,0.9,0.3
													l-0.3,0.8c-0.2-0.1-0.4-0.2-0.6-0.2c-0.2,0-0.4,0.1-0.5,0.2c-0.2,0.1-0.3,0.3-0.3,0.5c-0.1,0.3-0.1,0.7-0.1,1V10H24z"/>
												<path class="st4" d="M31.5,10l-1.9-7.2h1l1.1,4.7c0.1,0.5,0.2,1,0.3,1.5c0.2-0.8,0.3-1.2,0.3-1.3l1.4-4.8h1.1l1,3.6
													C36,7.4,36.2,8.2,36.3,9c0.1-0.5,0.2-1,0.4-1.6l1.1-4.6h1l-2,7.2h-0.9l-1.5-5.5c-0.1-0.5-0.2-0.7-0.2-0.8
													C34.1,4,34,4.3,34,4.5L32.4,10H31.5z"/>
												<path class="st4" d="M42.9,8.3l0.9,0.1C43.7,9,43.4,9.4,43,9.7s-0.9,0.4-1.5,0.4c-0.8,0-1.4-0.2-1.8-0.7
													c-0.4-0.5-0.7-1.1-0.7-2c0-0.9,0.2-1.5,0.7-2s1-0.7,1.7-0.7c0.7,0,1.3,0.2,1.7,0.7s0.7,1.1,0.7,2c0,0.1,0,0.1,0,0.2H40
													c0,0.6,0.2,1,0.5,1.3s0.7,0.5,1.1,0.5c0.3,0,0.6-0.1,0.8-0.3S42.8,8.7,42.9,8.3z M40,6.9h2.9c0-0.4-0.2-0.8-0.3-1
													c-0.3-0.3-0.6-0.5-1.1-0.5c-0.4,0-0.7,0.1-1,0.4C40.2,6.1,40.1,6.5,40,6.9z"/>
												<path class="st4" d="M44.9,10V2.8h0.9V10H44.9z"/>
												<path class="st4" d="M47.1,10V2.8H48V10H47.1z"/>
												<path class="st4" d="M49,8.5l0.9-0.1c0,0.3,0.2,0.6,0.4,0.8c0.2,0.2,0.5,0.3,0.9,0.3c0.4,0,0.7-0.1,0.9-0.2
													c0.2-0.2,0.3-0.4,0.3-0.6c0-0.2-0.1-0.4-0.3-0.5C52,8,51.7,7.9,51.3,7.8c-0.6-0.2-1.1-0.3-1.3-0.4
													c-0.3-0.1-0.4-0.3-0.6-0.5c-0.1-0.2-0.2-0.4-0.2-0.7c0-0.2,0.1-0.4,0.2-0.6c0.1-0.2,0.3-0.4,0.4-0.5
													c0.1-0.1,0.3-0.2,0.6-0.3c0.2-0.1,0.5-0.1,0.8-0.1c0.4,0,0.8,0.1,1.1,0.2c0.3,0.1,0.5,0.3,0.7,0.5
													c0.1,0.2,0.2,0.5,0.3,0.8l-0.9,0.1c0-0.3-0.2-0.5-0.3-0.6c-0.2-0.1-0.5-0.2-0.8-0.2c-0.4,0-0.7,0.1-0.9,0.2
													S50,5.9,50,6.1c0,0.1,0,0.2,0.1,0.3c0.1,0.1,0.2,0.2,0.3,0.2c0.1,0,0.3,0.1,0.8,0.2c0.6,0.2,1.1,0.3,1.3,0.4
													c0.2,0.1,0.4,0.3,0.6,0.5s0.2,0.5,0.2,0.8c0,0.3-0.1,0.6-0.3,0.8c-0.2,0.3-0.4,0.5-0.7,0.6c-0.3,0.1-0.7,0.2-1.1,0.2
													c-0.7,0-1.2-0.1-1.5-0.4C49.3,9.4,49.1,9,49,8.5z"/>
												<path class="st4" d="M57.8,9.4c-0.3,0.3-0.6,0.5-0.9,0.6c-0.3,0.1-0.6,0.2-1,0.2c-0.6,0-1-0.1-1.3-0.4
													c-0.3-0.3-0.5-0.6-0.5-1.1c0-0.3,0.1-0.5,0.2-0.7c0.1-0.2,0.3-0.4,0.5-0.5c0.2-0.1,0.4-0.2,0.6-0.3
													c0.2,0,0.4-0.1,0.8-0.1c0.7-0.1,1.2-0.2,1.6-0.3c0-0.1,0-0.2,0-0.2c0-0.4-0.1-0.6-0.2-0.8c-0.2-0.2-0.6-0.3-1-0.3
													c-0.4,0-0.7,0.1-0.9,0.2c-0.2,0.1-0.3,0.4-0.4,0.8l-0.9-0.1c0.1-0.4,0.2-0.7,0.4-0.9c0.2-0.2,0.4-0.4,0.8-0.5
													c0.3-0.1,0.7-0.2,1.2-0.2c0.4,0,0.8,0.1,1.1,0.2s0.5,0.2,0.6,0.4c0.1,0.2,0.2,0.4,0.3,0.6c0,0.1,0,0.4,0,0.8v1.2
													c0,0.8,0,1.3,0.1,1.5c0,0.2,0.1,0.4,0.2,0.6h-0.9C57.8,9.8,57.8,9.6,57.8,9.4z M57.7,7.4c-0.3,0.1-0.8,0.2-1.4,0.3
													c-0.4,0.1-0.6,0.1-0.8,0.2s-0.3,0.2-0.3,0.3C55.1,8.3,55,8.5,55,8.6c0,0.2,0.1,0.4,0.3,0.6c0.2,0.2,0.4,0.2,0.8,0.2
													c0.3,0,0.6-0.1,0.9-0.2c0.3-0.1,0.5-0.4,0.6-0.6c0.1-0.2,0.1-0.5,0.1-0.9V7.4z"/>
												<path class="st4" d="M60.9,10l-1.6-5.2h0.9l0.8,3l0.3,1.1c0-0.1,0.1-0.4,0.3-1.1l0.8-3h0.9l0.8,3l0.3,1l0.3-1l0.9-3h0.9
													L64.8,10h-0.9l-0.8-3.1L62.9,6l-1,4H60.9z"/>
											</g>
										</g>
										<path id="Rectangle" class="st5" d="M2,18h54c1.1,0,2,0.9,2,2s-0.9,2-2,2H2c-1.1,0-2-0.9-2-2S0.9,18,2,18z"/>
										<path id="Rectangle_1_" class="st6" d="M1,26h46c0.6,0,1,0.4,1,1s-0.4,1-1,1H1c-0.6,0-1-0.4-1-1S0.4,26,1,26z"/>
										<path id="Rectangle_2_" class="st6" d="M53,26h22c0.6,0,1,0.4,1,1s-0.4,1-1,1H53c-0.6,0-1-0.4-1-1S52.4,26,53,26z"/>
										<path id="Rectangle_3_" class="st6" d="M1,32h22c0.6,0,1,0.4,1,1s-0.4,1-1,1H1c-0.6,0-1-0.4-1-1S0.4,32,1,32z"/>
										<path id="Rectangle_4_" class="st6" d="M29,32h38c0.6,0,1,0.4,1,1s-0.4,1-1,1H29c-0.6,0-1-0.4-1-1S28.4,32,29,32z"/>
										<path id="Rectangle_5_" class="st6" d="M1,38h8c0.6,0,1,0.4,1,1s-0.4,1-1,1H1c-0.6,0-1-0.4-1-1S0.4,38,1,38z"/>
										<path id="Rectangle_6_" class="st6" d="M15,38h20c0.6,0,1,0.4,1,1s-0.4,1-1,1H15c-0.6,0-1-0.4-1-1S14.4,38,15,38z"/>
										<path id="Rectangle_7_" class="st6" d="M41,38h30c0.6,0,1,0.4,1,1s-0.4,1-1,1H41c-0.6,0-1-0.4-1-1S40.4,38,41,38z"/>
									</g>
									<g id="avatar" transform="translate(6.000000, 17.000000)">
										<g id="Fill-35">
											<g>
												<path id="path-5_2_" d="M43.4,51.3c-1.3,0.9-2.6,1.6-4.1,2.2C35.9,55.1,32,56,28,56c-1.5,0-3-0.1-4.4-0.3
													c-4.1-0.7-7.9-2.2-11.2-4.4C4.9,46.2,0,37.7,0,28C0,12.5,12.5,0,28,0s28,12.5,28,28C56,37.8,51,46.3,43.4,51.3z"/>
											</g>
											<g>
												<path id="path-5_1_" class="st7" d="M43.4,51.3c-1.3,0.9-2.6,1.6-4.1,2.2C35.9,55.1,32,56,28,56c-1.5,0-3-0.1-4.4-0.3
													c-4.1-0.7-7.9-2.2-11.2-4.4C4.9,46.2,0,37.7,0,28C0,12.5,12.5,0,28,0s28,12.5,28,28C56,37.8,51,46.3,43.4,51.3z"/>
											</g>
										</g>
										<path id="Fill-37" class="st8" d="M21.3,48.3c-1.7-7.9-8.1-8.2-6.2-19.2c1.1-6-8.7-5.2,1.1-13.3s13.1-8.6,16.6-3
											c9.8,0.2,16.2,5.8,8.3,12.8c-4.8,4.2-6.3,8.2-5.6,11.9S32.8,47,32.8,47L21.3,48.3z"/>
										<path id="Fill-39" class="st9" d="M39.4,53.6C35.9,55.1,32,56,28,56c-1.5,0-3-0.1-4.4-0.3c-4.1-0.6-7.9-2.2-11.2-4.4
											c1.5-2,3-3.7,4.5-5.1c0.3-0.3,0.5-0.5,0.8-0.7c0.6-0.6,1.3-1.2,1.9-1.7c2.7-2.4,4.7-4.1,4.7-6.2l4.8,0.5l1,1.6l0.3,0.4
											l0.9,1.3l0.1,0.2l2.4,3.6l2.7,4l0.7,1.1L39.4,53.6z"/>
										<path id="Fill-42" class="st10" d="M43.4,51.4c-1.3,0.9-2.6,1.6-4.1,2.2C35.9,55.1,32,56,28,56c-1.5,0-3-0.1-4.4-0.3
											c1-1.6,2-3.7,2.9-6.1c0.2-0.6,0.4-1.2,0.6-1.9c0.2-0.8,0.5-1.6,0.6-2.5l1.2-2.5l1.3-2.7l1.2-2.5c0.7,2.1,1.9,3.8,3.2,5.3
											c1.4,1.6,3,3,4.6,4.5c0.5,0.4,1,0.9,1.5,1.3C41.7,49.6,42.6,50.4,43.4,51.4"/>
										<path id="Fill-45" class="st11" d="M27.9,18.1c11,0,7,13.9,3.7,19.4c-2.6,4.4-4.4,4.4-7.3,0C20.5,32,16.9,18.1,27.9,18.1"
											/>
										<path id="Fill-47" class="st12" d="M25.7,35.2c0.3,0.2,0.6,0.4,0.9,0.6c0.3,0.2,0.6,0.3,0.9,0.4c0.3,0.1,0.6,0.1,0.9,0.1
											s0.6-0.2,1-0.4l0,0c0.1-0.1,0.3,0,0.3,0.1s0,0.2,0,0.3c-0.3,0.3-0.6,0.7-1.1,0.9c-0.4,0.2-1,0.2-1.4,0.1
											c-0.5-0.1-0.9-0.4-1.2-0.7c-0.3-0.3-0.6-0.6-0.8-1c-0.1-0.1,0-0.3,0.1-0.3C25.5,35.1,25.6,35.1,25.7,35.2L25.7,35.2z"/>
										<path id="Fill-49" class="st12" d="M25.7,27.5c0,0.4-0.3,0.6-0.7,0.6c-0.4,0-0.7-0.3-0.7-0.6s0.3-0.6,0.7-0.6
											C25.3,26.8,25.7,27.1,25.7,27.5"/>
										<path id="Fill-51" class="st12" d="M30.4,27.5c0,0.4,0.3,0.6,0.7,0.6s0.7-0.3,0.7-0.6s-0.3-0.6-0.7-0.6
											S30.4,27.1,30.4,27.5"/>
										<path id="Fill-53" class="st13" d="M30.2,24.6c0.2-0.2,0.5-0.2,0.8-0.3c0.3,0,0.5,0,0.8,0.1c0.5,0.1,1,0.5,1.2,1
											c0.1,0.1,0,0.3-0.1,0.4c-0.1,0-0.1,0-0.2,0l0,0c-0.2-0.1-0.4-0.2-0.6-0.2c-0.2-0.1-0.4-0.1-0.6-0.2s-0.4-0.1-0.6-0.1
											s-0.4-0.1-0.6-0.1h-0.1c-0.1,0-0.2-0.2-0.2-0.3C30.1,24.7,30.1,24.7,30.2,24.6"/>
										<path id="Fill-55" class="st13" d="M25.4,25.2c-0.2,0.1-0.4,0.1-0.6,0.1s-0.4,0.1-0.6,0.1s-0.4,0.1-0.6,0.2
											s-0.4,0.1-0.6,0.2l0,0c-0.1,0-0.3,0-0.3-0.2c0-0.1,0-0.1,0-0.2c0.2-0.5,0.7-0.8,1.2-1c0.3-0.1,0.5-0.1,0.8-0.1
											s0.5,0.1,0.8,0.3c0.1,0.1,0.2,0.2,0.1,0.4C25.6,25.1,25.5,25.2,25.4,25.2L25.4,25.2z"/>
										<path id="Fill-57" class="st14" d="M28.3,27c0.5,0.6,0.9,1.3,1.3,1.9c0.4,0.7,0.7,1.3,1,2.2c0.2,1-0.2,1.9-1,2.5
											c-0.4,0.3-1,0.3-1.4,0.2c-0.5-0.2-0.8-0.5-1-0.8c-0.1-0.1-0.1-0.3,0-0.4c0.1-0.1,0.2-0.1,0.3,0l0,0
											c0.6,0.4,1.2,0.6,1.6,0.2c0.4-0.3,0.6-1,0.5-1.5c-0.1-0.6-0.5-1.3-0.8-2s-0.6-1.4-0.9-2.1c-0.1-0.1,0-0.3,0.1-0.3
											C28.1,26.8,28.2,26.9,28.3,27"/>
										<path id="Fill-59" class="st11" d="M31.5,37.5c0,1.2-0.1,2.4-0.1,3.6c-0.3,3.5-4.9,8.4-4.9,8.4c-0.3-4-1.2-6-1.6-8
											c-0.5-2.5-0.7-4-0.7-4C27.1,41.9,28.9,41.9,31.5,37.5"/>
										<path id="Fill-61" class="st15" d="M31.5,37.5c0,1.2-0.1,2.4-0.1,3.6c-0.9,1-2.1,1.7-3.4,1.7c-1.1,0-2.1-0.5-3-1.3
											c-0.6-2.4-0.7-4-0.7-4C27.1,41.9,28.9,41.9,31.5,37.5"/>
										<path id="Fill-63" class="st8" d="M18.8,23.3c0,0,4.2-0.8,8.7-0.8l1.1-2.2l0.9,2.3c0,0,4.7,0.1,7.9,1.2
											c0,0-0.5-7.3-9.3-7.3S18.8,23.3,18.8,23.3"/>
									</g>
									<g id="search" transform="translate(0.000000, 11.000000)">
										<path id="Fill-1" class="st16" d="M79,82c-0.8,0-1.5-0.3-2.1-0.9l-21-21c-1.2-1.2-1.2-3.1,0-4.2c1.2-1.2,3.1-1.2,4.2,0
											l21,21c1.2,1.2,1.2,3.1,0,4.2C80.5,81.7,79.8,82,79,82"/>
										<path id="Fill-3" class="st0" d="M34,6C18.6,6,6,18.6,6,34s12.6,28,28,28s28-12.6,28-28S49.4,6,34,6 M34,66
											C16.4,66,2,51.6,2,34S16.4,2,34,2s32,14.4,32,32S51.6,66,34,66"/>
										<path id="Fill-5" class="st16" d="M34,4C17.5,4,4,17.5,4,34s13.5,30,30,30s30-13.5,30-30S50.5,4,34,4 M34,68
											C15.3,68,0,52.7,0,34S15.3,0,34,0s34,15.3,34,34S52.7,68,34,68"/>
									</g>
								</g>
							</g>
						</g>
					</g>
				</g>
			</g>
		</g>
	</g>
</g>
</svg>
