<svg width="96" height="80" xmlns="http://www.w3.org/2000/svg"><g fill="none" fill-rule="evenodd"><path d="M50 68H10C4.48 67.993.007 63.52 0 58V10C.007 4.48 4.48.007 10 0h68c5.52.007 9.993 4.48 10 10v26a2 2 0 1 1-4 0V10a6 6 0 0 0-6-6H10a6 6 0 0 0-6 6v48a6 6 0 0 0 6 6h40a2 2 0 1 1 0 4z" fill="#46BBC4"/><path d="M76 40c-11.046 0-20 8.954-20 20s8.954 20 20 20 20-8.954 20-20-8.954-20-20-20zm7.664 15.11l-8 12a2 2 0 0 1-1.466.88c-.068 0-.132.01-.2.01a2 2 0 0 1-1.414-.586l-4-4a2 2 0 0 1 2.828-2.828l2.276 2.276 6.646-9.972a2 2 0 0 1 3.328 2.22h.002z" fill="#F4BA67" fill-rule="nonzero"/><path d="M79.414 11.414l-27.14 27.14a11.7 11.7 0 0 1-16.548 0l-27.14-27.14a2 2 0 0 1 2.828-2.828l27.14 27.14a7.886 7.886 0 0 0 10.892 0l27.14-27.14a2 2 0 0 1 2.828 2.828zM26.926 38.246l-18.34 18.34a2 2 0 1 0 2.828 2.828l18.34-18.34a2 2 0 1 0-2.828-2.828z" fill="#A7DFE3" fill-rule="nonzero"/></g></svg>