<svg width="176" height="176" xmlns="http://www.w3.org/2000/svg"><g fill="none" fill-rule="evenodd" opacity=".08"><path d="M-8-8h192v192H-8z"/><path d="M75.996 112.004a4 4 0 1 0 0 8h23.998a4 4 0 1 0 0-8H75.996zm43.997-12a4 4 0 0 0-4-4H59.998a4 4 0 1 0 0 8h55.997a4 4 0 0 0 4-4zm8-15.999a4 4 0 0 0-4-4H51.997a4 4 0 1 0 0 8h71.996a4 4 0 0 0 4-4zM28.75 92.11a2 2 0 0 0 3.248-1.576V68.006c0-6.627 5.373-12 12-12h87.995c6.627 0 11.999 5.373 11.999 12v22.519a2 2 0 0 0 3.248 1.568l26.366-21a4.016 4.016 0 0 0 1.288-4.51 15.735 15.735 0 0 0-4.935-6.833L100.322 4.314a19.783 19.783 0 0 0-24.662 0L6.032 59.75a15.735 15.735 0 0 0-4.936 6.832 4.016 4.016 0 0 0 1.288 4.512L28.75 92.093v.016zm147.24-4.384V164c0 6.627-5.372 11.999-12 11.999H12c-6.628 0-12-5.372-12-12V87.718a4 4 0 0 1 6.496-3.128l69.164 55.085c3.608 2.872 7.92 4.312 12.24 4.32h.191a19.719 19.719 0 0 0 12.24-4.32l69.164-55.085a4 4 0 0 1 6.495 3.12v.016z" fill="#3F3F3F" fill-rule="nonzero"/></g></svg>