<?xml version="1.0" encoding="UTF-8"?>
<svg width="49px" height="44px" viewBox="0 0 49 44" version="1.1" xmlns="http://www.w3.org/2000/svg" xmlns:xlink="http://www.w3.org/1999/xlink">
    <!-- Generator: sketchtool 52.6 (67491) - http://www.bohemiancoding.com/sketch -->
    <title>E4203BD9-A522-418B-8B96-11FA5B298074</title>
    <desc>Created with sketchtool.</desc>
    <g id="Pages" stroke="none" stroke-width="1" fill="none" fill-rule="evenodd">
        <g id="All-in-one-Solution" transform="translate(-96.000000, -1596.000000)">
            <g id="section-4" transform="translate(80.000000, 1485.000000)">
                <g id="cols" transform="translate(16.000000, 108.000000)">
                    <g id="1" transform="translate(0.000000, 1.000000)">
                        <g id="rental-property-owner">
                            <rect id="bounds" x="1" y="0" width="48" height="48"></rect>
                            <path d="M38,25 L34,25 C33.4477153,25 33,24.5522847 33,24 L33,20 C33,19.4477153 33.4477153,19 34,19 L38,19 C38.5522847,19 39,19.4477153 39,20 L39,24 C39,24.5522847 38.5522847,25 38,25 Z M35,23 L37,23 L37,21 L35,21 L35,23 Z" id="Shape" fill="#F4BA67" fill-rule="nonzero"></path>
                            <rect id="Rectangle" fill="#1C7F8A" x="24" y="19" width="7" height="11" rx="1"></rect>
                            <path d="M40,34 L23,34 C21.3431458,34 20,32.6568542 20,31 L20,18 L15,18 C14.5832773,17.9999915 14.2102442,17.7415599 14.0638011,17.3514161 C13.9173581,16.9612722 14.0282078,16.5212121 14.342,16.247 L30.342,2.247 C30.7107872,1.92508857 31.2584014,1.91747106 31.636,2.229 L48.636,16.229 C48.9611039,16.497531 49.0828333,16.9411351 48.9403166,17.3379858 C48.7977999,17.7348365 48.4216649,17.999648 48,18 L43,18 L43,31 C43,32.6568542 41.6568542,34 40,34 Z M17.661,16 L21,16 C21.5522847,16 22,16.4477153 22,17 L22,31 C22,31.5522847 22.4477153,32 23,32 L40,32 C40.5522847,32 41,31.5522847 41,31 L41,17 C41,16.4477153 41.4477153,16 42,16 L45.213,16 L31.02,4.312 L17.661,16 Z" id="Shape" fill="#46BBC4" fill-rule="nonzero"></path>
                            <path d="M32.96,43 L32.1,40.95 C32.0405804,40.8105087 31.9294913,40.6994196 31.79,40.64 L17.99,34.794 C17.99,34.694 18.005,34.594 18.005,34.5 C18.0140597,30.411347 15.1170711,26.8928562 11.1027083,26.116933 C7.08834552,25.3410097 3.08885245,27.5265018 1.57361745,31.3240311 C0.0583824449,35.1215603 1.45477484,39.4600403 4.9006266,41.6607836 C8.34647836,43.861527 12.8698931,43.3038178 15.678,40.332 L21.305,40.81 L23.485,43.32 C23.6000332,43.4519939 23.7703498,43.522342 23.945,43.51 L27.205,43.34 L29.345,45.8 C29.4400495,45.9147 29.5770157,45.9866329 29.7253992,45.9997808 C29.8737826,46.0129287 30.0212631,45.9662 30.135,45.87 L32.815,43.63 C32.9927218,43.4724004 33.0509439,43.2194354 32.96,43 Z M7,36 C5.8954305,36 5,35.1045695 5,34 C5,32.8954305 5.8954305,32 7,32 C8.1045695,32 9,32.8954305 9,34 C9,35.1045695 8.1045695,36 7,36 Z" id="Shape" fill="#F57361" fill-rule="nonzero"></path>
                        </g>
                    </g>
                </g>
            </g>
        </g>
    </g>
</svg>