<svg width="48" height="48" xmlns="http://www.w3.org/2000/svg"><g fill="none" fill-rule="evenodd"><path d="M0 0h48v48H0z"/><path d="M46.484 20.841l-1.819-.462a20.037 20.037 0 0 0-.959-3.584l1.346-1.3a2 2 0 0 0 .343-2.438l-1.22-2.112a2 2 0 0 0-2.282-.923l-1.8.509a20.267 20.267 0 0 0-2.627-2.613l.517-1.811a2 2 0 0 0-.923-2.281l-2.112-1.22a2 2 0 0 0-2.437.342l-1.3 1.337a20.057 20.057 0 0 0-3.59-.94l-.457-1.828A2 2 0 0 0 25.219 0h-2.438a2 2 0 0 0-1.94 1.516l-.462 1.819c-1.222.208-2.422.53-3.584.959l-1.3-1.346a2 2 0 0 0-2.438-.343l-2.112 1.22a2 2 0 0 0-.923 2.282l.509 1.8a20.267 20.267 0 0 0-2.613 2.627l-1.811-.517a2 2 0 0 0-2.281.923l-1.22 2.112a2 2 0 0 0 .342 2.437l1.337 1.3a20.057 20.057 0 0 0-.94 3.59l-1.828.457A2 2 0 0 0 0 22.781v2.438a2 2 0 0 0 1.516 1.94l1.819.462c.208 1.222.53 2.422.959 3.584l-1.346 1.3a2 2 0 0 0-.343 2.438l1.22 2.112a2 2 0 0 0 2.282.923l1.8-.509c.794.95 1.673 1.824 2.627 2.613l-.517 1.811a2 2 0 0 0 .923 2.281l2.112 1.22a2 2 0 0 0 2.437-.342l1.3-1.337c1.165.424 2.367.738 3.59.94l.457 1.828A2 2 0 0 0 22.781 48h2.438a2 2 0 0 0 1.94-1.516l.462-1.819a20.037 20.037 0 0 0 3.584-.959l1.3 1.346a2 2 0 0 0 2.438.343l2.112-1.22a2 2 0 0 0 .923-2.282l-.509-1.8a20.267 20.267 0 0 0 2.613-2.627l1.811.517a2 2 0 0 0 2.281-.923l1.22-2.112a2 2 0 0 0-.342-2.437l-1.337-1.3c.424-1.165.738-2.367.94-3.59l1.828-.457A2 2 0 0 0 48 25.219v-2.438a2 2 0 0 0-1.516-1.94zM46 25.219l-1.83.458a2 2 0 0 0-1.476 1.6 18.865 18.865 0 0 1-.857 3.24 2 2 0 0 0 .478 2.122l1.347 1.3-1.219 2.112-1.808-.517a2 2 0 0 0-2.079.646 19.179 19.179 0 0 1-2.371 2.372 2 2 0 0 0-.647 2.077l.518 1.808-2.112 1.22-1.3-1.348a2 2 0 0 0-2.12-.477 18.9 18.9 0 0 1-3.241.857 2 2 0 0 0-1.6 1.478L25.219 46H22.78l-.457-1.83a2 2 0 0 0-1.6-1.476 18.865 18.865 0 0 1-3.24-.857 2.038 2.038 0 0 0-.693-.123 1.989 1.989 0 0 0-1.429.6l-1.3 1.347-2.112-1.219.517-1.808a2 2 0 0 0-.646-2.079 19.179 19.179 0 0 1-2.372-2.371 2 2 0 0 0-2.077-.647l-1.808.518-1.22-2.112 1.348-1.3a2 2 0 0 0 .477-2.12 18.9 18.9 0 0 1-.857-3.241 2 2 0 0 0-1.478-1.6L2 25.219V22.78l1.83-.457a2 2 0 0 0 1.476-1.6c.189-1.103.476-2.188.857-3.24a2 2 0 0 0-.478-2.122l-1.347-1.3 1.219-2.112 1.808.517a2 2 0 0 0 2.079-.646 19.179 19.179 0 0 1 2.371-2.372 2 2 0 0 0 .647-2.077l-.518-1.808 2.112-1.22 1.3 1.348a2 2 0 0 0 2.12.477 18.9 18.9 0 0 1 3.241-.857 2 2 0 0 0 1.6-1.478L22.781 2h2.439l.457 1.83a2 2 0 0 0 1.6 1.476c1.103.189 2.188.476 3.24.857a2 2 0 0 0 2.122-.478l1.3-1.347 2.112 1.219-.517 1.808a2 2 0 0 0 .646 2.079c.858.72 1.652 1.513 2.372 2.371a2 2 0 0 0 2.077.647l1.808-.518 1.22 2.112-1.348 1.3a2 2 0 0 0-.477 2.12 18.9 18.9 0 0 1 .857 3.241 2 2 0 0 0 1.478 1.6l1.833.464v2.438z" fill="#46BBC4" fill-rule="nonzero"/><path d="M24 9C15.716 9 9 15.716 9 24c0 8.284 6.716 15 15 15 8.284 0 15-6.716 15-15-.01-8.28-6.72-14.99-15-15zm0 28a12.9 12.9 0 0 1-5.606-1.289l4.472-7.751a1 1 0 0 0-1.732-1l-4.476 7.758a12.981 12.981 0 0 1 0-21.436l4.476 7.758a1 1 0 1 0 1.732-1l-4.472-7.751A12.956 12.956 0 0 1 36.949 23H28a1 1 0 0 0 0 2h8.949A13.009 13.009 0 0 1 24 37z" fill="#A7DFE3" fill-rule="nonzero"/><path d="M24 29a5 5 0 1 1 0-10 5 5 0 0 1 0 10zm0-8a3 3 0 1 0 0 6 3 3 0 0 0 0-6z" fill="#1C7F8A" fill-rule="nonzero"/></g></svg>