<svg width="44" height="44" xmlns="http://www.w3.org/2000/svg"><g fill="none" fill-rule="evenodd"><path d="M-2-2h48v48H-2z"/><path d="M43 5a4 4 0 0 0-4-4H5a4 4 0 0 0-4 4v34a4 4 0 0 0 4 4h34a4 4 0 0 0 4-4V5z" stroke="#46BBC4" stroke-width="2" stroke-linecap="round" stroke-linejoin="round"/><path fill="#46BBC4" d="M24 36h4V24h-4z"/><path stroke="#46BBC4" stroke-width="2" stroke-linecap="round" stroke-linejoin="round" d="M24 36h4V24h-4z"/><path fill="#1C7F8A" d="M16 36h4v-7h-4z"/><path stroke="#1C7F8A" stroke-width="2" stroke-linecap="round" stroke-linejoin="round" d="M16 36h4v-7h-4z"/><path fill="#F57361" d="M8 36h4v-2H8z"/><path stroke="#F57361" stroke-width="2" stroke-linecap="round" stroke-linejoin="round" d="M8 36h4v-2H8z"/><path fill="#F4BA67" d="M32 36h4V20h-4z"/><path stroke="#F4BA67" stroke-width="2" stroke-linecap="round" stroke-linejoin="round" d="M32 36h4V20h-4z"/><path d="M8 30L35 9M30 8.054l5.964-.036-1.464 5.964" stroke="#1C7F8A" stroke-width="2" stroke-linecap="round" stroke-linejoin="round"/></g></svg>