<svg width="36" height="48" xmlns="http://www.w3.org/2000/svg"><g fill="none" fill-rule="evenodd"><path d="M-6 0h48v48H-6z"/><path d="M31 0H5a5.006 5.006 0 0 0-5 5v38a5.006 5.006 0 0 0 5 5h21.17a3.006 3.006 0 0 0 2.127-.883l6.82-6.82A3 3 0 0 0 36 38.17V5a5.006 5.006 0 0 0-5-5zM2 43V5a3 3 0 0 1 3-3h26a3 3 0 0 1 3 3v33h-3.56A4.443 4.443 0 0 0 26 42.44V46H5a3 3 0 0 1-3-3z" fill="#46BBC4" fill-rule="nonzero"/><path d="M21 39a1 1 0 0 1-1 1H9a1 1 0 0 1 0-2h11a1 1 0 0 1 1 1zm7-7H9a1 1 0 0 0 0 2h19a1 1 0 0 0 0-2z" fill="#A7DFE3" fill-rule="nonzero"/><path d="M18 8C12.477 8 8 12.477 8 18s4.477 10 10 10 10-4.477 10-10A10 10 0 0 0 18 8zm.533 14.789v.658c0 .355-.171.553-.514.553h-.091c-.369 0-.527-.171-.527-.46v-.751a4.489 4.489 0 0 1-2.236-.894.5.5 0 0 1-.093-.763l.289-.408a.5.5 0 0 1 .764-.119 3.341 3.341 0 0 0 1.881.658c.711 0 1.369-.368 1.369-1.131 0-1.58-4.447-1.421-4.447-4.25a2.728 2.728 0 0 1 2.472-2.645v-.7c0-.355.158-.539.527-.539h.091c.343 0 .514.158.514.461v.75c.683.042 1.343.27 1.907.657a.5.5 0 0 1 .159.737l-.224.448c-.171.315-.421.355-.75.171a3.066 3.066 0 0 0-1.579-.487c-.789 0-1.421.46-1.421 1.118 0 1.566 4.447 1.29 4.447 4.237a2.711 2.711 0 0 1-2.538 2.699z" fill="#F4BA67" fill-rule="nonzero"/></g></svg>