<svg width="48" height="40" xmlns="http://www.w3.org/2000/svg"><g fill="none" fill-rule="evenodd"><path d="M0-4h48v48H0z"/><path d="M43 40H5a5.006 5.006 0 0 1-5-5V5a5.006 5.006 0 0 1 5-5h8.343a4.968 4.968 0 0 1 3.535 1.465l3.658 3.656A3.017 3.017 0 0 0 22.657 6H43a5.006 5.006 0 0 1 5 5v24a5.006 5.006 0 0 1-5 5zM5 2a3 3 0 0 0-3 3v30a3 3 0 0 0 3 3h38a3 3 0 0 0 3-3V11a3 3 0 0 0-3-3H22.657a4.968 4.968 0 0 1-3.535-1.465l-3.658-3.656A3.017 3.017 0 0 0 13.343 2H5z" fill="#46BBC4" fill-rule="nonzero"/><path d="M40 33H8a1 1 0 0 1 0-2h32a1 1 0 0 1 0 2z" fill="#A7DFE3"/></g></svg>