<svg width="44" height="44" xmlns="http://www.w3.org/2000/svg"><g fill="none" fill-rule="evenodd"><path d="M-2-2h48v48H-2z"/><path d="M37.078 28a8.141 8.141 0 0 0-3.23.208L15.79 10.153A8.1 8.1 0 0 0 16 6.925 8.427 8.427 0 0 0 7.676.008a7.895 7.895 0 0 0-1.183.14 1.716 1.716 0 0 0-1.317 1.183 1.7 1.7 0 0 0 .425 1.7l2.475 2.476c.098.097.14.238.112.373l-.353 1.64a.408.408 0 0 1-.314.314l-1.641.352a.4.4 0 0 1-.37-.11L3.031 5.6a1.7 1.7 0 0 0-1.7-.425A1.717 1.717 0 0 0 .148 6.492a7.98 7.98 0 0 0-.14 1.181A8.414 8.414 0 0 0 6.922 16a8.107 8.107 0 0 0 3.231-.209l18.058 18.057A8.107 8.107 0 0 0 28 37.079 8.435 8.435 0 0 0 36.027 44c.1 0 .2 0 .3-.007a7.966 7.966 0 0 0 1.182-.139 1.717 1.717 0 0 0 1.316-1.184 1.694 1.694 0 0 0-.425-1.7l-2.475-2.476a.4.4 0 0 1-.111-.374l.353-1.641a.408.408 0 0 1 .312-.312l1.642-.353a.409.409 0 0 1 .373.111L40.97 38.4c.444.447 1.098.61 1.7.425a1.716 1.716 0 0 0 1.184-1.317 8.02 8.02 0 0 0 .14-1.183A8.41 8.41 0 0 0 37.077 28zm4.893 8.57l-2.063-2.062a2.387 2.387 0 0 0-2.208-.652l-1.64.353a2.41 2.41 0 0 0-1.848 1.848l-.353 1.643a2.4 2.4 0 0 0 .652 2.209l2.062 2.063a6.1 6.1 0 0 1-.334.024 6.448 6.448 0 0 1-6.254-5.187 6.034 6.034 0 0 1 .3-2.892 1 1 0 0 0-.231-1.052l-18.917-18.92a1 1 0 0 0-1.053-.231 6.053 6.053 0 0 1-2.891.3 6.407 6.407 0 0 1-5.187-6.253 7.05 7.05 0 0 1 .024-.333L4.1 9.492a2.391 2.391 0 0 0 2.205.65l1.64-.352A2.41 2.41 0 0 0 9.79 7.941l.353-1.641a2.4 2.4 0 0 0-.653-2.206L7.427 2.03a6.14 6.14 0 0 1 .337-.024A6.424 6.424 0 0 1 14.017 7.2a6.021 6.021 0 0 1-.3 2.888 1 1 0 0 0 .231 1.053l18.916 18.915a1 1 0 0 0 1.052.231 6.01 6.01 0 0 1 2.891-.3A6.4 6.4 0 0 1 42 36.237a10.68 10.68 0 0 1-.029.336v-.003z" fill="#46BBC4" fill-rule="nonzero"/><path d="M19.757 28.223l-3.98-3.98a1 1 0 0 0-1.381-.032C8.669 29.436 1.3 36.773 1.233 36.843a4.189 4.189 0 0 0 5.923 5.925c.071-.071 7.408-7.437 12.633-13.164a1 1 0 0 0-.032-1.381z" fill="#1C7F8A"/><path d="M43.707 1.713l-1.42-1.42a1 1 0 0 0-1.1-.213l-4.734 2.025c-.406.19-.724.53-.887.947l-1.584 4.132-8.459 8.459a1 1 0 0 0 0 1.414l1.42 1.42a1 1 0 0 0 1.414 0l8.459-8.459 4.138-1.586c.426-.17.769-.5.956-.918l2.01-4.7a1 1 0 0 0-.213-1.101z" fill="#A7DFE3"/></g></svg>