<?xml version="1.0" encoding="utf-8"?>
<!-- Generator: Adobe Illustrator 21.0.0, SVG Export Plug-In . SVG Version: 6.00 Build 0)  -->
<svg version="1.1" id="Слой_1" xmlns="http://www.w3.org/2000/svg" xmlns:xlink="http://www.w3.org/1999/xlink" x="0px" y="0px"
	 viewBox="0 0 242 134" style="enable-background:new 0 0 242 134;" xml:space="preserve">
<style type="text/css">
	.st0{fill:#FFFFFF;}
	.st1{fill:#D3EFF1;}
	.st2{fill:#FFFFFF;stroke:#000000;stroke-opacity:0.12;}
	.st3{fill:#F4BA67;}
	.st4{fill:none;}
	.st5{fill:#FADEB6;}
	.st6{enable-background:new    ;}
	.st7{fill:#525252;}
	.st8{fill:#717171;}
</style>
<g>
	<rect id="path-1" class="st0" width="242" height="134"/>
</g>
<title>EE1C26DD-AE7B-482E-8521-2030FC2C4B30</title>
<desc>Created with sketchtool.</desc>
<g id="Pricing">
	<g id="Pricing---Core-Features" transform="translate(-81.000000, -2074.000000)">
		<g id="section-3" transform="translate(81.000000, 1194.000000)">
			<g id="list" transform="translate(0.000000, 109.000000)">
				<g id="item" transform="translate(0.000000, 771.000000)">
					<g id="image">
						<g id="lease-management">
							<g id="mask">
								<rect id="path-1_1_" class="st1" width="242" height="134"/>
							</g>
							<g id="design">
								<g transform="translate(25.000000, 27.000000)">
									<g id="box" transform="translate(96.000000, 40.000000) scale(-1, 1) translate(-96.000000, -40.000000) ">
										<g>
											<path id="path-3_1_" d="M2,0h188c1.1,0,2,0.9,2,2v76c0,1.1-0.9,2-2,2H2c-1.1,0-2-0.9-2-2V2C0,0.9,0.9,0,2,0z"/>
										</g>
										<path class="st2" d="M2-0.5h188c1.4,0,2.5,1.1,2.5,2.5v76c0,1.4-1.1,2.5-2.5,2.5H2c-1.4,0-2.5-1.1-2.5-2.5V2
											C-0.5,0.6,0.6-0.5,2-0.5z"/>
									</g>
									<path id="box_1_" class="st3" d="M2,0h71l0,0v80H2c-1.1,0-2-0.9-2-2V2C0,0.9,0.9,0,2,0z"/>
									<g id="icon-_x2F_-48x48-_x2F_-section-role-_x2F_-lease-agreement" transform="translate(10.000000, 16.000000)">
										<g>
											<rect id="bounds" class="st4" width="48" height="48"/>
											<path id="Path" class="st0" d="M41,8c0.6,0,1-0.4,1-1V5c0-2.8-2.2-5-5-5H11C8.2,0,6,2.2,6,5v38c0,2.8,2.2,5,5,5h21.2
												c0.4,0,0.9-0.1,1.2-0.3c0.3-0.1,0.6-0.4,0.9-0.6l6.8-6.8c0.6-0.6,0.9-1.3,0.9-2.1V33c0-0.6-0.4-1-1-1s-1,0.4-1,1v5h-3.6
												C34,38,32,40,32,42.4V46H11c-1.7,0-3-1.3-3-3V5c0-1.7,1.3-3,3-3h26c1.7,0,3,1.3,3,3v2C40,7.6,40.4,8,41,8z"/>
											<path id="Path_1_" class="st0" d="M30,21.6c0,0.1,0,0.2-0.1,0.3C29.8,22,29.7,22,29.6,22H18.4c-0.2,0-0.4-0.2-0.4-0.4
												c0-2.5,0.3-3.6,2.6-4.2c1.1-0.3,1.7-0.7,1.9-1.3V16h-0.1c-0.6-0.1-1.2-0.3-1.7-0.5c-0.1,0-0.1-0.1-0.1-0.2
												c0.3-0.7,0.5-1.5,0.6-2.2c0.3-1.3-0.6-2.2,0.3-3.8c0.3-0.7,1.1-1.1,1.8-0.9C23.9,8,24.7,8,25.4,8.3
												C26,8.4,26.6,9,26.8,9.7c0.4,1.2-0.2,2.2,0,3.3c0.2,0.8,0.4,1.5,0.6,2.2c0,0.1,0,0.2-0.1,0.2c-0.5,0.3-1.1,0.4-1.7,0.5
												h-0.1V16c0.2,0.5,0.8,1,1.9,1.3C29.7,18,30,19.1,30,21.6"/>
											<path id="Shape" class="st0" d="M47.5,14c-0.6-1.6-1.8-2.8-3.4-3.5c-1.6-0.7-3.3-0.7-4.9,0c-3.2,1.4-4.8,5.1-3.4,8.4
												c0.3,0.8,0.9,1.6,1.5,2.2L33,31.8c0,0.1,0,0.2,0,0.3l0.6,1.6c0.1,0.2,0.2,0.3,0.4,0.3l2.7-0.2c0.2,0,0.4-0.2,0.4-0.5
												L37,30.9l1.9-1.6c0.1-0.1,0.2-0.2,0.1-0.4l-0.2-2.5l3-3.5c0.8,0,1.6-0.2,2.4-0.5C47.3,21,48.9,17.2,47.5,14L47.5,14z
												 M41.7,16.6c-0.8,0-1.5-0.7-1.5-1.5s0.7-1.5,1.5-1.5s1.5,0.7,1.5,1.5c0,0.4-0.2,0.8-0.4,1.1
												C42.5,16.4,42.1,16.6,41.7,16.6L41.7,16.6z"/>
											<path id="Shape_1_" class="st5" d="M32,27c0,0.6-0.4,1-1,1H14c-0.6,0-1-0.4-1-1s0.4-1,1-1h17C31.6,26,32,26.4,32,27z
												 M30,32H14c-0.6,0-1,0.4-1,1s0.4,1,1,1h16c0.6,0,1-0.4,1-1S30.6,32,30,32z M26,38H14c-0.6,0-1,0.4-1,1s0.4,1,1,1h12
												c0.6,0,1-0.4,1-1S26.6,38,26,38z"/>
										</g>
									</g>
									<g class="st6">
										<g class="st6">
											<path class="st7" d="M89,28l2.7-7.2h1l2.9,7.2h-1.1l-0.8-2.2h-3L90,28H89z M91,25.1h2.4l-0.7-2c-0.2-0.6-0.4-1.1-0.5-1.5
												c-0.1,0.5-0.2,0.9-0.4,1.4L91,25.1z"/>
											<path class="st7" d="M99.7,28v-0.7c-0.3,0.5-0.8,0.8-1.4,0.8c-0.4,0-0.8-0.1-1.1-0.3s-0.6-0.5-0.8-1
												c-0.2-0.4-0.3-0.9-0.3-1.4c0-0.5,0.1-1,0.3-1.4c0.2-0.4,0.4-0.7,0.8-1c0.3-0.2,0.7-0.3,1.2-0.3c0.3,0,0.6,0.1,0.8,0.2
												c0.2,0.1,0.4,0.3,0.6,0.5v-2.6h0.9V28H99.7z M96.9,25.4c0,0.7,0.1,1.2,0.4,1.5c0.3,0.3,0.6,0.5,1,0.5
												c0.4,0,0.7-0.2,1-0.5c0.3-0.3,0.4-0.8,0.4-1.4c0-0.7-0.1-1.2-0.4-1.6s-0.6-0.5-1-0.5c-0.4,0-0.7,0.2-1,0.5
												S96.9,24.7,96.9,25.4z"/>
											<path class="st7" d="M105.2,28v-0.7c-0.3,0.5-0.8,0.8-1.5,0.8c-0.4,0-0.8-0.1-1.1-0.3s-0.6-0.5-0.8-1
												c-0.2-0.4-0.3-0.9-0.3-1.4c0-0.5,0.1-1,0.3-1.4c0.2-0.4,0.4-0.7,0.8-1c0.3-0.2,0.7-0.3,1.2-0.3c0.3,0,0.6,0.1,0.8,0.2
												c0.2,0.1,0.4,0.3,0.6,0.5v-2.6h0.9V28H105.2z M102.5,25.4c0,0.7,0.1,1.2,0.4,1.5c0.3,0.3,0.6,0.5,1,0.5
												c0.4,0,0.7-0.2,1-0.5c0.3-0.3,0.4-0.8,0.4-1.4c0-0.7-0.1-1.2-0.4-1.6s-0.6-0.5-1-0.5c-0.4,0-0.7,0.2-1,0.5
												S102.5,24.7,102.5,25.4z"/>
											<path class="st7" d="M110.3,28v-7.2h0.9v6.3h3.5V28H110.3z"/>
											<path class="st7" d="M119.3,26.3l0.9,0.1c-0.1,0.5-0.4,0.9-0.8,1.2c-0.4,0.3-0.9,0.4-1.5,0.4c-0.8,0-1.4-0.2-1.8-0.7
												c-0.4-0.5-0.7-1.1-0.7-2c0-0.9,0.2-1.5,0.7-2s1-0.7,1.7-0.7c0.7,0,1.3,0.2,1.7,0.7s0.7,1.1,0.7,2c0,0.1,0,0.1,0,0.2h-3.9
												c0,0.6,0.2,1,0.5,1.3c0.3,0.3,0.7,0.5,1.1,0.5c0.3,0,0.6-0.1,0.8-0.3C119,27,119.2,26.7,119.3,26.3z M116.4,24.9h2.9
												c0-0.4-0.1-0.8-0.3-1c-0.3-0.3-0.6-0.5-1.1-0.5c-0.4,0-0.7,0.1-1,0.4S116.5,24.5,116.4,24.9z"/>
											<path class="st7" d="M124.7,27.4c-0.3,0.3-0.6,0.5-0.9,0.6s-0.6,0.2-1,0.2c-0.6,0-1-0.1-1.3-0.4
												c-0.3-0.3-0.5-0.6-0.5-1.1c0-0.3,0.1-0.5,0.2-0.7c0.1-0.2,0.3-0.4,0.5-0.5s0.4-0.2,0.6-0.3c0.2,0,0.4-0.1,0.8-0.1
												c0.7-0.1,1.2-0.2,1.6-0.3c0-0.1,0-0.2,0-0.2c0-0.4-0.1-0.6-0.3-0.8c-0.2-0.2-0.6-0.3-1-0.3c-0.4,0-0.7,0.1-0.9,0.2
												c-0.2,0.1-0.3,0.4-0.4,0.8l-0.9-0.1c0.1-0.4,0.2-0.7,0.4-0.9c0.2-0.2,0.4-0.4,0.8-0.5c0.3-0.1,0.7-0.2,1.2-0.2
												c0.4,0,0.8,0.1,1.1,0.2c0.3,0.1,0.5,0.2,0.6,0.4c0.1,0.2,0.2,0.4,0.3,0.6c0,0.1,0,0.4,0,0.8v1.2c0,0.8,0,1.3,0.1,1.5
												c0,0.2,0.1,0.4,0.2,0.6h-0.9C124.8,27.8,124.7,27.6,124.7,27.4z M124.6,25.4c-0.3,0.1-0.8,0.2-1.4,0.3
												c-0.4,0.1-0.6,0.1-0.8,0.2c-0.2,0.1-0.3,0.2-0.3,0.3c-0.1,0.1-0.1,0.3-0.1,0.4c0,0.2,0.1,0.4,0.3,0.6s0.4,0.2,0.8,0.2
												c0.3,0,0.6-0.1,0.9-0.2c0.3-0.1,0.5-0.4,0.6-0.6c0.1-0.2,0.1-0.5,0.1-0.9V25.4z"/>
											<path class="st7" d="M126.5,26.5l0.9-0.1c0,0.3,0.2,0.6,0.4,0.8s0.5,0.3,0.9,0.3c0.4,0,0.7-0.1,0.9-0.2
												c0.2-0.2,0.3-0.4,0.3-0.6c0-0.2-0.1-0.4-0.3-0.5c-0.1-0.1-0.4-0.2-0.9-0.3c-0.6-0.2-1.1-0.3-1.3-0.4
												c-0.2-0.1-0.4-0.3-0.6-0.5c-0.1-0.2-0.2-0.4-0.2-0.7c0-0.2,0.1-0.4,0.2-0.6c0.1-0.2,0.3-0.4,0.4-0.5
												c0.1-0.1,0.3-0.2,0.6-0.3c0.2-0.1,0.5-0.1,0.8-0.1c0.4,0,0.8,0.1,1.1,0.2s0.5,0.3,0.7,0.5c0.1,0.2,0.2,0.5,0.3,0.8
												l-0.9,0.1c0-0.3-0.2-0.5-0.3-0.6s-0.5-0.2-0.8-0.2c-0.4,0-0.7,0.1-0.9,0.2c-0.2,0.1-0.3,0.3-0.3,0.5c0,0.1,0,0.2,0.1,0.3
												c0.1,0.1,0.2,0.2,0.3,0.2c0.1,0,0.3,0.1,0.8,0.2c0.6,0.2,1.1,0.3,1.3,0.4c0.2,0.1,0.4,0.3,0.6,0.5
												c0.1,0.2,0.2,0.5,0.2,0.8c0,0.3-0.1,0.6-0.3,0.8c-0.2,0.3-0.4,0.5-0.7,0.6c-0.3,0.1-0.7,0.2-1.1,0.2
												c-0.7,0-1.2-0.1-1.5-0.4S126.6,27,126.5,26.5z"/>
											<path class="st7" d="M135.4,26.3l0.9,0.1c-0.1,0.5-0.4,0.9-0.8,1.2c-0.4,0.3-0.9,0.4-1.5,0.4c-0.8,0-1.4-0.2-1.8-0.7
												c-0.4-0.5-0.7-1.1-0.7-2c0-0.9,0.2-1.5,0.7-2s1-0.7,1.7-0.7c0.7,0,1.3,0.2,1.7,0.7s0.7,1.1,0.7,2c0,0.1,0,0.1,0,0.2h-3.9
												c0,0.6,0.2,1,0.5,1.3c0.3,0.3,0.7,0.5,1.1,0.5c0.3,0,0.6-0.1,0.8-0.3C135.1,27,135.3,26.7,135.4,26.3z M132.6,24.9h2.9
												c0-0.4-0.1-0.8-0.3-1c-0.3-0.3-0.6-0.5-1.1-0.5c-0.4,0-0.7,0.1-1,0.4S132.6,24.5,132.6,24.9z"/>
										</g>
									</g>
									<g class="st6">
										<g class="st6">
											<path class="st8" d="M89.4,41.7l0.9-0.1c0,0.4,0.1,0.7,0.3,0.9c0.2,0.2,0.4,0.4,0.7,0.6c0.3,0.1,0.7,0.2,1.1,0.2
												c0.4,0,0.7-0.1,1-0.2s0.5-0.3,0.6-0.4c0.1-0.2,0.2-0.4,0.2-0.6c0-0.2-0.1-0.4-0.2-0.6c-0.1-0.2-0.3-0.3-0.6-0.4
												c-0.2-0.1-0.6-0.2-1.3-0.3c-0.7-0.2-1.1-0.3-1.4-0.4c-0.3-0.2-0.6-0.4-0.8-0.7c-0.2-0.3-0.3-0.6-0.3-0.9
												c0-0.4,0.1-0.7,0.3-1c0.2-0.3,0.5-0.6,0.9-0.7s0.8-0.2,1.3-0.2c0.5,0,1,0.1,1.4,0.3c0.4,0.2,0.7,0.4,0.9,0.8
												s0.3,0.7,0.4,1.1L94,38.9c0-0.5-0.2-0.8-0.5-1s-0.7-0.3-1.2-0.3c-0.6,0-1,0.1-1.3,0.3c-0.3,0.2-0.4,0.5-0.4,0.8
												c0,0.3,0.1,0.5,0.3,0.6c0.2,0.2,0.7,0.3,1.4,0.5c0.8,0.2,1.3,0.3,1.6,0.5c0.4,0.2,0.7,0.4,0.9,0.7c0.2,0.3,0.3,0.6,0.3,1
												c0,0.4-0.1,0.7-0.3,1.1c-0.2,0.3-0.5,0.6-0.9,0.8c-0.4,0.2-0.9,0.3-1.4,0.3c-0.6,0-1.2-0.1-1.6-0.3s-0.8-0.5-1-0.9
												C89.6,42.6,89.5,42.2,89.4,41.7z"/>
											<path class="st8" d="M99.9,42.3l0.9,0.1c-0.1,0.5-0.4,0.9-0.8,1.2s-0.9,0.4-1.5,0.4c-0.8,0-1.4-0.2-1.8-0.7
												c-0.4-0.5-0.7-1.1-0.7-2c0-0.9,0.2-1.5,0.7-2s1-0.7,1.7-0.7c0.7,0,1.3,0.2,1.7,0.7s0.7,1.1,0.7,2c0,0.1,0,0.1,0,0.2h-3.9
												c0,0.6,0.2,1,0.5,1.3s0.7,0.5,1.1,0.5c0.3,0,0.6-0.1,0.8-0.3S99.7,42.7,99.9,42.3z M97,40.9h2.9c0-0.4-0.2-0.8-0.3-1
												c-0.3-0.3-0.6-0.5-1.1-0.5c-0.4,0-0.7,0.1-1,0.4C97.2,40.1,97,40.5,97,40.9z"/>
											<path class="st8" d="M103.8,43.2l0.1,0.8c-0.2,0.1-0.5,0.1-0.7,0.1c-0.3,0-0.6-0.1-0.7-0.2s-0.3-0.2-0.4-0.4
												c-0.1-0.2-0.1-0.5-0.1-1v-3h-0.6v-0.7h0.6v-1.3l0.9-0.5v1.8h0.9v0.7h-0.9v3c0,0.3,0,0.4,0,0.5c0,0.1,0.1,0.1,0.2,0.2
												c0.1,0,0.2,0.1,0.3,0.1C103.5,43.2,103.7,43.2,103.8,43.2z"/>
											<path class="st8" d="M109.4,43.2l0.1,0.8c-0.2,0.1-0.5,0.1-0.7,0.1c-0.3,0-0.6-0.1-0.7-0.2s-0.3-0.2-0.4-0.4
												c-0.1-0.2-0.1-0.5-0.1-1v-3H107v-0.7h0.6v-1.3l0.9-0.5v1.8h0.9v0.7h-0.9v3c0,0.3,0,0.4,0,0.5c0,0.1,0.1,0.1,0.2,0.2
												c0.1,0,0.2,0.1,0.3,0.1C109.1,43.2,109.2,43.2,109.4,43.2z"/>
											<path class="st8" d="M110.2,44v-7.2h0.9v2.6c0.4-0.5,0.9-0.7,1.6-0.7c0.4,0,0.7,0.1,1,0.2c0.3,0.2,0.5,0.4,0.6,0.6
												c0.1,0.3,0.2,0.7,0.2,1.2V44h-0.9v-3.3c0-0.4-0.1-0.8-0.3-1c-0.2-0.2-0.5-0.3-0.8-0.3c-0.3,0-0.5,0.1-0.7,0.2
												c-0.2,0.1-0.4,0.3-0.5,0.5s-0.1,0.5-0.1,1V44H110.2z"/>
											<path class="st8" d="M119.3,42.3l0.9,0.1c-0.1,0.5-0.4,0.9-0.8,1.2s-0.9,0.4-1.5,0.4c-0.8,0-1.4-0.2-1.8-0.7
												c-0.4-0.5-0.7-1.1-0.7-2c0-0.9,0.2-1.5,0.7-2s1-0.7,1.7-0.7c0.7,0,1.3,0.2,1.7,0.7s0.7,1.1,0.7,2c0,0.1,0,0.1,0,0.2h-3.9
												c0,0.6,0.2,1,0.5,1.3s0.7,0.5,1.1,0.5c0.3,0,0.6-0.1,0.8-0.3S119.2,42.7,119.3,42.3z M116.5,40.9h2.9
												c0-0.4-0.1-0.8-0.3-1c-0.3-0.3-0.6-0.5-1.1-0.5c-0.4,0-0.7,0.1-1,0.4C116.6,40.1,116.5,40.5,116.5,40.9z"/>
											<path class="st8" d="M126,43.2l0.1,0.8c-0.2,0.1-0.5,0.1-0.7,0.1c-0.3,0-0.6-0.1-0.7-0.2s-0.3-0.2-0.4-0.4
												c-0.1-0.2-0.1-0.5-0.1-1v-3h-0.6v-0.7h0.6v-1.3l0.9-0.5v1.8h0.9v0.7h-0.9v3c0,0.3,0,0.4,0,0.5c0,0.1,0.1,0.1,0.2,0.2
												c0.1,0,0.2,0.1,0.3,0.1C125.8,43.2,125.9,43.2,126,43.2z"/>
											<path class="st8" d="M130.5,42.3l0.9,0.1c-0.1,0.5-0.4,0.9-0.8,1.2s-0.9,0.4-1.5,0.4c-0.8,0-1.4-0.2-1.8-0.7
												c-0.4-0.5-0.7-1.1-0.7-2c0-0.9,0.2-1.5,0.7-2s1-0.7,1.7-0.7c0.7,0,1.3,0.2,1.7,0.7s0.7,1.1,0.7,2c0,0.1,0,0.1,0,0.2h-3.9
												c0,0.6,0.2,1,0.5,1.3s0.7,0.5,1.1,0.5c0.3,0,0.6-0.1,0.8-0.3S130.3,42.7,130.5,42.3z M127.6,40.9h2.9
												c0-0.4-0.2-0.8-0.3-1c-0.3-0.3-0.6-0.5-1.1-0.5c-0.4,0-0.7,0.1-1,0.4C127.8,40.1,127.6,40.5,127.6,40.9z"/>
											<path class="st8" d="M132.5,44v-5.2h0.8v0.8c0.2-0.4,0.4-0.6,0.6-0.7c0.2-0.1,0.4-0.2,0.6-0.2c0.3,0,0.6,0.1,0.9,0.3
												l-0.3,0.8c-0.2-0.1-0.4-0.2-0.6-0.2c-0.2,0-0.4,0.1-0.5,0.2c-0.2,0.1-0.3,0.3-0.3,0.5c-0.1,0.3-0.1,0.7-0.1,1V44H132.5z"
												/>
											<path class="st8" d="M135.8,44v-5.2h0.8v0.7c0.2-0.3,0.4-0.5,0.6-0.6c0.3-0.2,0.6-0.2,0.9-0.2c0.4,0,0.7,0.1,0.9,0.2
												c0.2,0.2,0.4,0.4,0.5,0.7c0.4-0.6,0.9-0.9,1.6-0.9c0.5,0,0.9,0.1,1.2,0.4c0.3,0.3,0.4,0.7,0.4,1.3V44h-0.9v-3.3
												c0-0.4,0-0.6-0.1-0.8c-0.1-0.2-0.2-0.3-0.3-0.4s-0.3-0.1-0.5-0.1c-0.4,0-0.7,0.1-0.9,0.4c-0.2,0.2-0.4,0.6-0.4,1.2v3
												h-0.9v-3.4c0-0.4-0.1-0.7-0.2-0.9s-0.4-0.3-0.7-0.3c-0.2,0-0.5,0.1-0.7,0.2c-0.2,0.1-0.4,0.3-0.5,0.6s-0.1,0.6-0.1,1.1
												V44H135.8z"/>
											<path class="st8" d="M143.8,42.5l0.9-0.1c0,0.3,0.2,0.6,0.4,0.8c0.2,0.2,0.5,0.3,0.9,0.3c0.4,0,0.7-0.1,0.9-0.2
												c0.2-0.2,0.3-0.4,0.3-0.6c0-0.2-0.1-0.4-0.3-0.5c-0.1-0.1-0.4-0.2-0.9-0.3c-0.6-0.2-1.1-0.3-1.3-0.4
												c-0.3-0.1-0.4-0.3-0.6-0.5c-0.1-0.2-0.2-0.4-0.2-0.7c0-0.2,0.1-0.4,0.2-0.6c0.1-0.2,0.3-0.4,0.4-0.5
												c0.1-0.1,0.3-0.2,0.6-0.3c0.2-0.1,0.5-0.1,0.8-0.1c0.4,0,0.8,0.1,1.1,0.2c0.3,0.1,0.5,0.3,0.7,0.5
												c0.1,0.2,0.2,0.5,0.3,0.8l-0.9,0.1c0-0.3-0.2-0.5-0.3-0.6c-0.2-0.1-0.5-0.2-0.8-0.2c-0.4,0-0.7,0.1-0.9,0.2
												s-0.3,0.3-0.3,0.5c0,0.1,0,0.2,0.1,0.3c0.1,0.1,0.2,0.2,0.3,0.2c0.1,0,0.3,0.1,0.8,0.2c0.6,0.2,1.1,0.3,1.3,0.4
												c0.2,0.1,0.4,0.3,0.6,0.5s0.2,0.5,0.2,0.8c0,0.3-0.1,0.6-0.3,0.8c-0.2,0.3-0.4,0.5-0.7,0.6c-0.3,0.1-0.7,0.2-1.1,0.2
												c-0.7,0-1.2-0.1-1.5-0.4C144.1,43.4,143.9,43,143.8,42.5z"/>
											<path class="st8" d="M155.3,43.4c-0.3,0.3-0.6,0.5-0.9,0.6c-0.3,0.1-0.6,0.2-1,0.2c-0.6,0-1-0.1-1.3-0.4
												c-0.3-0.3-0.5-0.6-0.5-1.1c0-0.3,0.1-0.5,0.2-0.7c0.1-0.2,0.3-0.4,0.5-0.5c0.2-0.1,0.4-0.2,0.6-0.3
												c0.2,0,0.4-0.1,0.8-0.1c0.7-0.1,1.2-0.2,1.6-0.3c0-0.1,0-0.2,0-0.2c0-0.4-0.1-0.6-0.2-0.8c-0.2-0.2-0.6-0.3-1-0.3
												c-0.4,0-0.7,0.1-0.9,0.2c-0.2,0.1-0.3,0.4-0.4,0.8l-0.9-0.1c0.1-0.4,0.2-0.7,0.4-0.9c0.2-0.2,0.4-0.4,0.8-0.5
												c0.3-0.1,0.7-0.2,1.2-0.2c0.4,0,0.8,0.1,1.1,0.2s0.5,0.2,0.6,0.4c0.1,0.2,0.2,0.4,0.3,0.6c0,0.1,0,0.4,0,0.8v1.2
												c0,0.8,0,1.3,0.1,1.5c0,0.2,0.1,0.4,0.2,0.6h-0.9C155.4,43.8,155.3,43.6,155.3,43.4z M155.2,41.4
												c-0.3,0.1-0.8,0.2-1.4,0.3c-0.4,0.1-0.6,0.1-0.8,0.2s-0.3,0.2-0.3,0.3c-0.1,0.1-0.1,0.3-0.1,0.4c0,0.2,0.1,0.4,0.3,0.6
												c0.2,0.2,0.4,0.2,0.8,0.2c0.3,0,0.6-0.1,0.9-0.2c0.3-0.1,0.5-0.4,0.6-0.6c0.1-0.2,0.1-0.5,0.1-0.9V41.4z"/>
											<path class="st8" d="M157.5,44v-5.2h0.8v0.7c0.4-0.6,0.9-0.9,1.7-0.9c0.3,0,0.6,0.1,0.9,0.2c0.3,0.1,0.5,0.3,0.6,0.4
												s0.2,0.4,0.3,0.6c0,0.2,0,0.4,0,0.9V44h-0.9v-3.2c0-0.4,0-0.6-0.1-0.8c-0.1-0.2-0.2-0.3-0.4-0.4
												c-0.2-0.1-0.4-0.2-0.6-0.2c-0.4,0-0.7,0.1-1,0.4c-0.3,0.2-0.4,0.7-0.4,1.4V44H157.5z"/>
											<path class="st8" d="M166.4,44v-0.7c-0.3,0.5-0.8,0.8-1.5,0.8c-0.4,0-0.8-0.1-1.1-0.3c-0.3-0.2-0.6-0.5-0.8-1
												c-0.2-0.4-0.3-0.9-0.3-1.4c0-0.5,0.1-1,0.3-1.4c0.2-0.4,0.4-0.7,0.8-1s0.7-0.3,1.2-0.3c0.3,0,0.6,0.1,0.8,0.2
												c0.2,0.1,0.4,0.3,0.6,0.5v-2.6h0.9V44H166.4z M163.6,41.4c0,0.7,0.1,1.2,0.4,1.5s0.6,0.5,1,0.5c0.4,0,0.7-0.2,1-0.5
												c0.3-0.3,0.4-0.8,0.4-1.4c0-0.7-0.1-1.2-0.4-1.6s-0.6-0.5-1-0.5c-0.4,0-0.7,0.2-1,0.5C163.7,40.2,163.6,40.7,163.6,41.4z
												"/>
										</g>
									</g>
									<g class="st6">
										<g class="st6">
											<path class="st8" d="M91.6,57.2l0.1,0.8c-0.2,0.1-0.5,0.1-0.7,0.1c-0.3,0-0.6-0.1-0.7-0.2s-0.3-0.2-0.4-0.4
												c-0.1-0.2-0.1-0.5-0.1-1v-3h-0.6v-0.7h0.6v-1.3l0.9-0.5v1.8h0.9v0.7h-0.9v3c0,0.3,0,0.4,0,0.5s0.1,0.1,0.2,0.2
												s0.2,0.1,0.3,0.1C91.3,57.2,91.4,57.2,91.6,57.2z"/>
											<path class="st8" d="M92.4,58v-7.2h0.9v2.6c0.4-0.5,0.9-0.7,1.6-0.7c0.4,0,0.7,0.1,1,0.2c0.3,0.2,0.5,0.4,0.6,0.6
												s0.2,0.7,0.2,1.2V58h-0.9v-3.3c0-0.4-0.1-0.8-0.3-1c-0.2-0.2-0.5-0.3-0.8-0.3c-0.3,0-0.5,0.1-0.7,0.2
												c-0.2,0.1-0.4,0.3-0.5,0.5s-0.1,0.5-0.1,1V58H92.4z"/>
											<path class="st8" d="M101.5,56.3l0.9,0.1c-0.1,0.5-0.4,0.9-0.8,1.2s-0.9,0.4-1.5,0.4c-0.8,0-1.4-0.2-1.8-0.7
												c-0.4-0.5-0.7-1.1-0.7-2c0-0.9,0.2-1.5,0.7-2s1-0.7,1.7-0.7c0.7,0,1.3,0.2,1.7,0.7s0.7,1.1,0.7,2c0,0.1,0,0.1,0,0.2h-3.9
												c0,0.6,0.2,1,0.5,1.3s0.7,0.5,1.1,0.5c0.3,0,0.6-0.1,0.8-0.3S101.4,56.7,101.5,56.3z M98.7,54.9h2.9c0-0.4-0.2-0.8-0.3-1
												c-0.3-0.3-0.6-0.5-1.1-0.5c-0.4,0-0.7,0.1-1,0.4C98.8,54.1,98.7,54.5,98.7,54.9z"/>
											<path class="st8" d="M106.3,58v-5.2h0.8v0.8c0.2-0.4,0.4-0.6,0.6-0.7c0.2-0.1,0.4-0.2,0.6-0.2c0.3,0,0.6,0.1,0.9,0.3
												l-0.3,0.8c-0.2-0.1-0.4-0.2-0.6-0.2c-0.2,0-0.4,0.1-0.5,0.2c-0.2,0.1-0.3,0.3-0.3,0.5c-0.1,0.3-0.1,0.7-0.1,1V58H106.3z"
												/>
											<path class="st8" d="M113.2,56.3l0.9,0.1c-0.1,0.5-0.4,0.9-0.8,1.2s-0.9,0.4-1.5,0.4c-0.8,0-1.4-0.2-1.8-0.7
												c-0.4-0.5-0.7-1.1-0.7-2c0-0.9,0.2-1.5,0.7-2s1-0.7,1.7-0.7c0.7,0,1.3,0.2,1.7,0.7s0.7,1.1,0.7,2c0,0.1,0,0.1,0,0.2h-3.9
												c0,0.6,0.2,1,0.5,1.3s0.7,0.5,1.1,0.5c0.3,0,0.6-0.1,0.8-0.3S113.1,56.7,113.2,56.3z M110.3,54.9h2.9
												c0-0.4-0.2-0.8-0.3-1c-0.3-0.3-0.6-0.5-1.1-0.5c-0.4,0-0.7,0.1-1,0.4C110.5,54.1,110.4,54.5,110.3,54.9z"/>
											<path class="st8" d="M115.2,58v-5.2h0.8v0.7c0.4-0.6,0.9-0.9,1.7-0.9c0.3,0,0.6,0.1,0.9,0.2c0.3,0.1,0.5,0.3,0.6,0.4
												s0.2,0.4,0.3,0.6c0,0.2,0,0.4,0,0.9V58h-0.9v-3.2c0-0.4,0-0.6-0.1-0.8c-0.1-0.2-0.2-0.3-0.4-0.4
												c-0.2-0.1-0.4-0.2-0.6-0.2c-0.4,0-0.7,0.1-1,0.4c-0.3,0.2-0.4,0.7-0.4,1.4V58H115.2z"/>
											<path class="st8" d="M122.7,57.2l0.1,0.8c-0.2,0.1-0.5,0.1-0.7,0.1c-0.3,0-0.6-0.1-0.7-0.2s-0.3-0.2-0.4-0.4
												c-0.1-0.2-0.1-0.5-0.1-1v-3h-0.6v-0.7h0.6v-1.3l0.9-0.5v1.8h0.9v0.7h-0.9v3c0,0.3,0,0.4,0,0.5c0,0.1,0.1,0.1,0.2,0.2
												c0.1,0,0.2,0.1,0.3,0.1C122.4,57.2,122.6,57.2,122.7,57.2z"/>
											<path class="st8" d="M129.7,57.4c-0.3,0.3-0.6,0.5-0.9,0.6c-0.3,0.1-0.6,0.2-1,0.2c-0.6,0-1-0.1-1.3-0.4
												c-0.3-0.3-0.5-0.6-0.5-1.1c0-0.3,0.1-0.5,0.2-0.7c0.1-0.2,0.3-0.4,0.5-0.5c0.2-0.1,0.4-0.2,0.6-0.3
												c0.2,0,0.4-0.1,0.8-0.1c0.7-0.1,1.2-0.2,1.6-0.3c0-0.1,0-0.2,0-0.2c0-0.4-0.1-0.6-0.2-0.8c-0.2-0.2-0.6-0.3-1-0.3
												c-0.4,0-0.7,0.1-0.9,0.2c-0.2,0.1-0.3,0.4-0.4,0.8l-0.9-0.1c0.1-0.4,0.2-0.7,0.4-0.9c0.2-0.2,0.4-0.4,0.8-0.5
												c0.3-0.1,0.7-0.2,1.2-0.2c0.4,0,0.8,0.1,1.1,0.2s0.5,0.2,0.6,0.4c0.1,0.2,0.2,0.4,0.3,0.6c0,0.1,0,0.4,0,0.8v1.2
												c0,0.8,0,1.3,0.1,1.5c0,0.2,0.1,0.4,0.2,0.6h-0.9C129.8,57.8,129.8,57.6,129.7,57.4z M129.7,55.4
												c-0.3,0.1-0.8,0.2-1.4,0.3c-0.4,0.1-0.6,0.1-0.8,0.2s-0.3,0.2-0.3,0.3c-0.1,0.1-0.1,0.3-0.1,0.4c0,0.2,0.1,0.4,0.3,0.6
												c0.2,0.2,0.4,0.2,0.8,0.2c0.3,0,0.6-0.1,0.9-0.2c0.3-0.1,0.5-0.4,0.6-0.6c0.1-0.2,0.1-0.5,0.1-0.9V55.4z"/>
											<path class="st8" d="M131.9,58v-5.2h0.8v0.7c0.2-0.3,0.4-0.5,0.6-0.6c0.3-0.2,0.6-0.2,0.9-0.2c0.4,0,0.7,0.1,0.9,0.2
												c0.2,0.2,0.4,0.4,0.5,0.7c0.4-0.6,0.9-0.9,1.6-0.9c0.5,0,0.9,0.1,1.2,0.4c0.3,0.3,0.4,0.7,0.4,1.3V58h-0.9v-3.3
												c0-0.4,0-0.6-0.1-0.8c-0.1-0.2-0.2-0.3-0.3-0.4s-0.3-0.1-0.5-0.1c-0.4,0-0.7,0.1-0.9,0.4c-0.2,0.2-0.4,0.6-0.4,1.2v3H135
												v-3.4c0-0.4-0.1-0.7-0.2-0.9s-0.4-0.3-0.7-0.3c-0.2,0-0.5,0.1-0.7,0.2c-0.2,0.1-0.4,0.3-0.5,0.6s-0.1,0.6-0.1,1.1V58
												H131.9z"/>
											<path class="st8" d="M139.9,55.4c0-1,0.3-1.7,0.8-2.1c0.4-0.4,1-0.6,1.6-0.6c0.7,0,1.3,0.2,1.7,0.7
												c0.5,0.5,0.7,1.1,0.7,1.9c0,0.7-0.1,1.2-0.3,1.6c-0.2,0.4-0.5,0.7-0.9,0.9c-0.4,0.2-0.8,0.3-1.3,0.3
												c-0.7,0-1.3-0.2-1.8-0.7C140.1,57,139.9,56.3,139.9,55.4z M140.8,55.4c0,0.7,0.1,1.2,0.4,1.5c0.3,0.3,0.7,0.5,1.1,0.5
												c0.4,0,0.8-0.2,1.1-0.5s0.4-0.8,0.4-1.5c0-0.6-0.1-1.1-0.4-1.5c-0.3-0.3-0.7-0.5-1.1-0.5c-0.4,0-0.8,0.2-1.1,0.5
												S140.8,54.7,140.8,55.4z"/>
											<path class="st8" d="M149.2,58v-0.8c-0.4,0.6-1,0.9-1.6,0.9c-0.3,0-0.6-0.1-0.9-0.2c-0.3-0.1-0.5-0.3-0.6-0.4
												c-0.1-0.2-0.2-0.4-0.3-0.7c0-0.2-0.1-0.4-0.1-0.8v-3.2h0.9v2.9c0,0.5,0,0.8,0.1,0.9c0.1,0.2,0.2,0.4,0.4,0.5
												c0.2,0.1,0.4,0.2,0.7,0.2s0.5-0.1,0.7-0.2c0.2-0.1,0.4-0.3,0.5-0.6c0.1-0.2,0.1-0.6,0.1-1v-2.8h0.9V58H149.2z"/>
											<path class="st8" d="M151.4,58v-5.2h0.8v0.7c0.4-0.6,0.9-0.9,1.7-0.9c0.3,0,0.6,0.1,0.9,0.2c0.3,0.1,0.5,0.3,0.6,0.4
												s0.2,0.4,0.3,0.6c0,0.2,0,0.4,0,0.9V58h-0.9v-3.2c0-0.4,0-0.6-0.1-0.8c-0.1-0.2-0.2-0.3-0.4-0.4
												c-0.2-0.1-0.4-0.2-0.6-0.2c-0.4,0-0.7,0.1-1,0.4c-0.3,0.2-0.4,0.7-0.4,1.4V58H151.4z"/>
											<path class="st8" d="M158.8,57.2L159,58c-0.2,0.1-0.5,0.1-0.7,0.1c-0.3,0-0.6-0.1-0.7-0.2s-0.3-0.2-0.4-0.4
												c-0.1-0.2-0.1-0.5-0.1-1v-3h-0.6v-0.7h0.6v-1.3L158,51v1.8h0.9v0.7H158v3c0,0.3,0,0.4,0,0.5c0,0.1,0.1,0.1,0.2,0.2
												c0.1,0,0.2,0.1,0.3,0.1C158.6,57.2,158.7,57.2,158.8,57.2z"/>
											<path class="st8" d="M160,58v-1h1v1H160z"/>
										</g>
									</g>
								</g>
							</g>
						</g>
					</g>
				</g>
			</g>
		</g>
	</g>
</g>
</svg>
