<?xml version="1.0" encoding="UTF-8"?>
<svg width="377px" height="214px" viewBox="0 0 377 214" version="1.1" xmlns="http://www.w3.org/2000/svg" xmlns:xlink="http://www.w3.org/1999/xlink">
    <!-- Generator: sketchtool 51.3 (57544) - http://www.bohemiancoding.com/sketch -->
    <title>FB3CED36-FF17-4D9B-9169-6DC9DC3F5213</title>
    <desc>Created with sketchtool.</desc>
    <defs></defs>
    <g id="Pages" stroke="none" stroke-width="1" fill="none" fill-rule="evenodd">
        <g id="Request-a-Demo" transform="translate(0.000000, -762.000000)">
            <g id="section-1" transform="translate(0.000000, 60.000000)">
                <g id="background">
                    <g id="left-illustration" transform="translate(-11.000000, 704.000000)">
                        <polyline id="Stroke-1" stroke="#85D2D8" stroke-width="4" stroke-linecap="round" stroke-linejoin="round" points="306 100 306 210 82 210 82 100"></polyline>
                        <path d="M322,210 L66,210" id="Stroke-3" stroke="#85D2D8" stroke-width="4" stroke-linecap="round" stroke-linejoin="round"></path>
                        <polygon id="Fill-6" fill="#2B8E9E" points="170 210 218 210 218 122 170 122"></polygon>
                        <polygon id="Stroke-7" stroke="#2B8E9E" stroke-width="4" stroke-linecap="round" stroke-linejoin="round" points="170 210 218 210 218 122 170 122"></polygon>
                        <path d="M212,170 C212,171.104 211.104,172 210,172 C208.896,172 208,171.104 208,170 C208,168.896 208.896,168 210,168 C211.104,168 212,168.896 212,170" id="Fill-9" fill="#FFFFFF"></path>
                        <polygon id="Stroke-10" stroke="#85D2D8" stroke-width="4" stroke-linecap="round" stroke-linejoin="round" points="102 162 150 162 150 122 102 122"></polygon>
                        <path d="M126,130 L126,154" id="Stroke-11" stroke="#C2E9EC" stroke-width="4" stroke-linecap="round" stroke-linejoin="round"></path>
                        <path d="M142,142 L110,142" id="Stroke-12" stroke="#C2E9EC" stroke-width="4" stroke-linecap="round" stroke-linejoin="round"></path>
                        <polygon id="Stroke-13" stroke="#85D2D8" stroke-width="4" stroke-linecap="round" stroke-linejoin="round" points="238 162 286 162 286 122 238 122"></polygon>
                        <path d="M262,130 L262,154" id="Stroke-14" stroke="#C2E9EC" stroke-width="4" stroke-linecap="round" stroke-linejoin="round"></path>
                        <path d="M278,142 L246,142" id="Stroke-15" stroke="#C2E9EC" stroke-width="4" stroke-linecap="round" stroke-linejoin="round"></path>
                        <polygon id="Stroke-16" stroke="#F4BA67" stroke-width="4" stroke-linecap="round" stroke-linejoin="round" points="194 0 68 88 68 100 194 12 320 100 320 88"></polygon>
                        <path d="M162,202 L90,202" id="Stroke-17" stroke="#C2E9EC" stroke-width="4" stroke-linecap="round" stroke-linejoin="round"></path>
                        <path d="M298,202 L226,202" id="Stroke-18" stroke="#C2E9EC" stroke-width="4" stroke-linecap="round" stroke-linejoin="round"></path>
                        <path d="M182,64 C182,57.373 187.373,52 194,52 C200.627,52 206,57.373 206,64 C206,70.627 200.627,76 194,76 C187.373,76 182,70.627 182,64 Z" id="Stroke-19" stroke="#85D2D8" stroke-width="4" stroke-linecap="round" stroke-linejoin="round"></path>
                        <polygon id="Fill-20" fill="#C2E9EC" points="50 184 54 178 58 184 58 210 50 210"></polygon>
                        <polygon id="Stroke-21" stroke="#C2E9EC" stroke-width="4" stroke-linecap="round" stroke-linejoin="round" points="50 184 54 178 58 184 58 210 50 210"></polygon>
                        <polygon id="Fill-22" fill="#C2E9EC" points="34 184 38 178 42 184 42 210 34 210"></polygon>
                        <polygon id="Stroke-23" stroke="#C2E9EC" stroke-width="4" stroke-linecap="round" stroke-linejoin="round" points="34 184 38 178 42 184 42 210 34 210"></polygon>
                        <polygon id="Fill-24" fill="#C2E9EC" points="18 184 22 178 26 184 26 210 18 210"></polygon>
                        <polygon id="Stroke-25" stroke="#C2E9EC" stroke-width="4" stroke-linecap="round" stroke-linejoin="round" points="18 184 22 178 26 184 26 210 18 210"></polygon>
                        <path d="M8,206 L54,206" id="Stroke-28" stroke="#C2E9EC" stroke-width="4" stroke-linecap="round" stroke-linejoin="round"></path>
                        <path d="M8,186 L54,186" id="Stroke-29" stroke="#C2E9EC" stroke-width="4" stroke-linecap="round" stroke-linejoin="round"></path>
                        <path d="M74,124.2402 L74,202.0002 L66,202.0002 L66,184.0002 C66,182.4202 65.54,180.8802 64.66,179.5602 L60.66,173.5602 C59.2,171.3602 56.7,170.0602 54,170.0602 C51.3,170.0602 48.8,171.3602 47.34,173.5602 L46,175.5802 L44.66,173.5602 C43.2,171.3602 40.7,170.0602 38,170.0602 C35.3,170.0602 32.8,171.3602 31.34,173.5602 L30,175.5802 L28.66,173.5602 C27.22,171.4202 24.82,170.1402 22.2,170.0602 C23.1,165.4802 27.14,162.0002 32,162.0002 C33.439,162.0002 34.82,162.3202 36.061,162.8802 C36.62,156.7802 41.76,152.0002 48,152.0002 C49,152.0002 49.96,152.1402 50.9,152.3602 C50.34,151.3602 50,150.2192 50,149.0002 C50,145.1402 53.14,142.0002 57,142.0002 C57.36,142.0002 57.7,142.0602 58.04,142.1002 C58.48,133.0402 65.22,125.6202 74,124.2402" id="Fill-30" fill="#FBE8CD"></path>
                        <path d="M74,124.2402 L74,202.0002 L66,202.0002 L66,184.0002 C66,182.4202 65.54,180.8802 64.66,179.5602 L60.66,173.5602 C59.2,171.3602 56.7,170.0602 54,170.0602 C51.3,170.0602 48.8,171.3602 47.34,173.5602 L46,175.5802 L44.66,173.5602 C43.2,171.3602 40.7,170.0602 38,170.0602 C35.3,170.0602 32.8,171.3602 31.34,173.5602 L30,175.5802 L28.66,173.5602 C27.22,171.4202 24.82,170.1402 22.2,170.0602 C23.1,165.4802 27.14,162.0002 32,162.0002 C33.439,162.0002 34.82,162.3202 36.061,162.8802 C36.62,156.7802 41.76,152.0002 48,152.0002 C49,152.0002 49.96,152.1402 50.9,152.3602 C50.34,151.3602 50,150.2192 50,149.0002 C50,145.1402 53.14,142.0002 57,142.0002 C57.36,142.0002 57.7,142.0602 58.04,142.1002 C58.48,133.0402 65.22,125.6202 74,124.2402 Z" id="Stroke-31" stroke="#FBE8CD" stroke-width="4" stroke-linecap="round" stroke-linejoin="round"></path>
                        <path d="M314,124.2402 L314,202.0002 L322,202.0002 L322,184.0002 C322,182.4202 322.46,180.8802 323.34,179.5602 L327.34,173.5602 C328.8,171.3602 331.3,170.0602 334,170.0602 C336.7,170.0602 339.2,171.3602 340.66,173.5602 L342,175.5802 L343.34,173.5602 C344.8,171.3602 347.3,170.0602 350,170.0602 C352.7,170.0602 355.2,171.3602 356.66,173.5602 L358,175.5802 L359.34,173.5602 C360.78,171.4202 363.18,170.1402 365.8,170.0602 C364.9,165.4802 360.86,162.0002 356,162.0002 C354.56,162.0002 353.18,162.3202 351.939,162.8802 C351.38,156.7802 346.24,152.0002 340,152.0002 C339,152.0002 338.04,152.1402 337.1,152.3602 C337.66,151.3602 338,150.2192 338,149.0002 C338,145.1402 334.86,142.0002 331,142.0002 C330.64,142.0002 330.3,142.0602 329.96,142.1002 C329.52,133.0402 322.78,125.6202 314,124.2402" id="Fill-32" fill="#FBE8CD"></path>
                        <path d="M314,124.2402 L314,202.0002 L322,202.0002 L322,184.0002 C322,182.4202 322.46,180.8802 323.34,179.5602 L327.34,173.5602 C328.8,171.3602 331.3,170.0602 334,170.0602 C336.7,170.0602 339.2,171.3602 340.66,173.5602 L342,175.5802 L343.34,173.5602 C344.8,171.3602 347.3,170.0602 350,170.0602 C352.7,170.0602 355.2,171.3602 356.66,173.5602 L358,175.5802 L359.34,173.5602 C360.78,171.4202 363.18,170.1402 365.8,170.0602 C364.9,165.4802 360.86,162.0002 356,162.0002 C354.56,162.0002 353.18,162.3202 351.939,162.8802 C351.38,156.7802 346.24,152.0002 340,152.0002 C339,152.0002 338.04,152.1402 337.1,152.3602 C337.66,151.3602 338,150.2192 338,149.0002 C338,145.1402 334.86,142.0002 331,142.0002 C330.64,142.0002 330.3,142.0602 329.96,142.1002 C329.52,133.0402 322.78,125.6202 314,124.2402 Z" id="Stroke-33" stroke="#FBE8CD" stroke-width="4" stroke-linecap="round" stroke-linejoin="round"></path>
                        <path d="M44,204 L48,204 L48,188 L44,188 L44,204 Z M28,204 L32,204 L32,188 L28,188 L28,204 Z M12,204 L16,204 L16,188 L12,188 L12,204 Z M59.664,182.891 L55.664,176.891 C54.922,175.777 53.078,175.777 52.336,176.891 L48.336,182.891 C48.117,183.219 48,183.605 48,184 L44,184 C44,183.605 43.883,183.219 43.664,182.891 L39.664,176.891 C38.922,175.777 37.078,175.777 36.336,176.891 L32.336,182.891 C32.117,183.219 32,183.605 32,184 L28,184 C28,183.605 27.883,183.219 27.664,182.891 L23.664,176.891 C22.922,175.777 21.078,175.777 20.336,176.891 L16.336,182.891 C16.117,183.219 16,183.605 16,184 L12,184 C12,183.605 11.883,183.219 11.664,182.891 L7.664,176.891 C6.922,175.777 5.078,175.777 4.336,176.891 L0.336,182.891 C0.117,183.219 0,183.605 0,184 L0,210 C0,211.105 0.896,212 2,212 L10,212 C11.104,212 12,211.105 12,210 L12,208 L16,208 L16,210 C16,211.105 16.896,212 18,212 L26,212 C27.104,212 28,211.105 28,210 L28,208 L32,208 L32,210 C32,211.105 32.896,212 34,212 L42,212 C43.104,212 44,211.105 44,210 L44,208 L48,208 L48,210 C48,211.105 48.896,212 50,212 L58,212 C59.104,212 60,211.105 60,210 L60,184 C60,183.605 59.883,183.219 59.664,182.891 Z" id="Fill-34" fill="#C2E9EC"></path>
                        <polygon id="Fill-35" fill="#C2E9EC" points="378 184 382 178 386 184 386 210 378 210"></polygon>
                        <polygon id="Stroke-36" stroke="#C2E9EC" stroke-width="4" stroke-linecap="round" stroke-linejoin="round" points="378 184 382 178 386 184 386 210 378 210"></polygon>
                        <polygon id="Fill-37" fill="#C2E9EC" points="362 184 366 178 370 184 370 210 362 210"></polygon>
                        <polygon id="Stroke-38" stroke="#C2E9EC" stroke-width="4" stroke-linecap="round" stroke-linejoin="round" points="362 184 366 178 370 184 370 210 362 210"></polygon>
                        <polygon id="Fill-39" fill="#C2E9EC" points="346 184 350 178 354 184 354 210 346 210"></polygon>
                        <polygon id="Stroke-40" stroke="#C2E9EC" stroke-width="4" stroke-linecap="round" stroke-linejoin="round" points="346 184 350 178 354 184 354 210 346 210"></polygon>
                        <polygon id="Fill-41" fill="#C2E9EC" points="330 184 334 178 338 184 338 210 330 210"></polygon>
                        <polygon id="Stroke-42" stroke="#C2E9EC" stroke-width="4" stroke-linecap="round" stroke-linejoin="round" points="330 184 334 178 338 184 338 210 330 210"></polygon>
                        <path d="M336,206 L382,206" id="Stroke-43" stroke="#C2E9EC" stroke-width="4" stroke-linecap="round" stroke-linejoin="round"></path>
                        <path d="M336,186 L382,186" id="Stroke-44" stroke="#C2E9EC" stroke-width="4" stroke-linecap="round" stroke-linejoin="round"></path>
                    </g>
                </g>
            </g>
        </g>
    </g>
</svg>