<?xml version="1.0" encoding="utf-8"?>
<!-- Generator: Adobe Illustrator 21.0.0, SVG Export Plug-In . SVG Version: 6.00 Build 0)  -->
<svg version="1.1" id="Слой_1" xmlns="http://www.w3.org/2000/svg" xmlns:xlink="http://www.w3.org/1999/xlink" x="0px" y="0px"
	 viewBox="0 0 242 134" style="enable-background:new 0 0 242 134;" xml:space="preserve">
<style type="text/css">
	.st0{fill:#FFFFFF;}
	.st1{fill:#D3EFF1;}
	.st2{fill:#FFFFFF;stroke:#000000;stroke-opacity:0.12;}
	.st3{fill:none;stroke:#5B85D2;}
	.st4{fill:#5B85D2;}
	.st5{enable-background:new    ;}
	.st6{fill:#525252;}
	.st7{fill:#717171;}
	.st8{fill:#46BBC4;stroke:#35A6AF;}
	.st9{fill:none;stroke:#F57361;}
	.st10{fill:#F57361;}
</style>
<g>
	<circle id="path-9" class="st0" cx="35" cy="87" r="10"/>
</g>
<g>
	<circle id="path-5" class="st0" cx="207" cy="32" r="10"/>
</g>
<g>
	<rect id="path-1" class="st0" width="242" height="134"/>
</g>
<title>0A8471B6-435A-40B7-86F2-BCAC271254D4</title>
<desc>Created with sketchtool.</desc>
<g id="Pricing">
	<g id="Pricing---Core-Features" transform="translate(-373.000000, -1560.000000)">
		<g id="section-3" transform="translate(81.000000, 1194.000000)">
			<g id="list" transform="translate(0.000000, 109.000000)">
				<g id="item" transform="translate(292.000000, 257.000000)">
					<g id="image">
						<g id="limited-support">
							<g id="mask">
								<rect id="path-1_1_" class="st1" width="242" height="134"/>
							</g>
							<g id="design">
								<g transform="translate(25.000000, 22.000000)">
									<g id="_x31_">
										<g id="box" transform="translate(83.500000, 19.500000) scale(-1, 1) translate(-83.500000, -19.500000) ">
											<g>
												<path id="path-3_1_" d="M5,0h160c1.1,0,2,0.9,2,2v35c0,1.1-0.9,2-2,2H5c-1.1,0-2-0.9-2-2V15l0,0l-3-4l3-4V2
													C3,0.9,3.9,0,5,0z"/>
											</g>
											<path class="st2" d="M2.5,15.2L-0.6,11l3.1-4.2V2c0-1.4,1.1-2.5,2.5-2.5h160c1.4,0,2.5,1.1,2.5,2.5v35
												c0,1.4-1.1,2.5-2.5,2.5H5c-1.4,0-2.5-1.1-2.5-2.5V15.2z"/>
										</g>
										
											<g id="avatar-_x2F_-20x20-_x2F_-initials-_x2F_-coral-avatar-_x2F_-20x20-_x2F_-initials-_x2F_-blue" transform="translate(172.000000, 0.000000)">
											<g id="avatar-_x2F_-20x20-_x2F_-initials-_x2F_-blue">
												<circle class="st3" cx="10" cy="10" r="9.5"/>
												<path id="Symbol" class="st4" d="M10,11c2.4,0,4.5,0.9,6.1,2.4C14.9,15.6,12.6,17,10,17s-4.9-1.4-6.1-3.6
													C5.5,11.9,7.6,11,10,11z M10,3c1.7,0,3,1.3,3,3s-1.3,3-3,3S7,7.7,7,6S8.3,3,10,3z"/>
											</g>
										</g>
										<g class="st5">
											<path class="st6" d="M8.3,13l0.9-0.1c0,0.5,0.1,0.9,0.3,1.1s0.4,0.3,0.8,0.3c0.2,0,0.4-0.1,0.6-0.2
												c0.2-0.1,0.3-0.3,0.4-0.4c0.1-0.2,0.1-0.5,0.1-0.9V7.8h0.9v4.9c0,0.6-0.1,1.1-0.2,1.4s-0.4,0.6-0.7,0.8s-0.7,0.3-1.1,0.3
												c-0.6,0-1.1-0.2-1.4-0.5S8.3,13.7,8.3,13z"/>
											<path class="st6" d="M17,14.4c-0.3,0.3-0.6,0.5-0.9,0.6s-0.6,0.2-1,0.2c-0.6,0-1-0.1-1.3-0.4c-0.3-0.3-0.5-0.6-0.5-1.1
												c0-0.3,0.1-0.5,0.2-0.7c0.1-0.2,0.3-0.4,0.5-0.5s0.4-0.2,0.6-0.3c0.2,0,0.4-0.1,0.8-0.1c0.7-0.1,1.2-0.2,1.6-0.3
												c0-0.1,0-0.2,0-0.2c0-0.4-0.1-0.6-0.2-0.8c-0.2-0.2-0.6-0.3-1-0.3c-0.4,0-0.7,0.1-0.9,0.2c-0.2,0.1-0.3,0.4-0.4,0.8
												l-0.9-0.1c0.1-0.4,0.2-0.7,0.4-0.9c0.2-0.2,0.4-0.4,0.8-0.5c0.3-0.1,0.7-0.2,1.2-0.2c0.4,0,0.8,0.1,1.1,0.2
												s0.5,0.2,0.6,0.4c0.1,0.2,0.2,0.4,0.3,0.6c0,0.1,0,0.4,0,0.8v1.2c0,0.8,0,1.3,0.1,1.5c0,0.2,0.1,0.4,0.2,0.6h-0.9
												C17.1,14.8,17.1,14.6,17,14.4z M17,12.4c-0.3,0.1-0.8,0.2-1.4,0.3c-0.4,0.1-0.6,0.1-0.8,0.2s-0.3,0.2-0.3,0.3
												c-0.1,0.1-0.1,0.3-0.1,0.4c0,0.2,0.1,0.4,0.3,0.6s0.4,0.2,0.8,0.2c0.3,0,0.6-0.1,0.9-0.2c0.3-0.1,0.5-0.4,0.6-0.6
												c0.1-0.2,0.1-0.5,0.1-0.9V12.4z"/>
											<path class="st6" d="M19.2,15V9.8H20v0.7c0.4-0.6,0.9-0.9,1.7-0.9c0.3,0,0.6,0.1,0.9,0.2c0.3,0.1,0.5,0.3,0.6,0.4
												s0.2,0.4,0.3,0.6c0,0.2,0,0.4,0,0.9V15h-0.9v-3.2c0-0.4,0-0.6-0.1-0.8c-0.1-0.2-0.2-0.3-0.4-0.4
												c-0.2-0.1-0.4-0.2-0.6-0.2c-0.4,0-0.7,0.1-1,0.4s-0.4,0.7-0.4,1.4V15H19.2z"/>
											<path class="st6" d="M28.3,13.3l0.9,0.1c-0.1,0.5-0.4,0.9-0.8,1.2s-0.9,0.4-1.5,0.4c-0.8,0-1.4-0.2-1.8-0.7
												c-0.4-0.5-0.7-1.1-0.7-2c0-0.9,0.2-1.5,0.7-2s1-0.7,1.7-0.7c0.7,0,1.3,0.2,1.7,0.7s0.7,1.1,0.7,2c0,0.1,0,0.1,0,0.2h-3.9
												c0,0.6,0.2,1,0.5,1.3s0.7,0.5,1.1,0.5c0.3,0,0.6-0.1,0.8-0.3S28.2,13.7,28.3,13.3z M25.4,11.9h2.9c0-0.4-0.1-0.8-0.3-1
												c-0.3-0.3-0.6-0.5-1.1-0.5c-0.4,0-0.7,0.1-1,0.4S25.5,11.5,25.4,11.9z"/>
											<path class="st6" d="M38.1,14.2c-0.2,0.2-0.4,0.4-0.7,0.6c-0.3,0.1-0.5,0.2-0.8,0.2c-0.3,0-0.6-0.1-0.8-0.3
												s-0.5-0.4-0.7-0.8s-0.3-0.7-0.3-1.2c0-0.5,0.1-1,0.4-1.6c0.3-0.5,0.6-0.9,1-1.2s0.8-0.4,1.1-0.4c0.3,0,0.6,0.1,0.8,0.2
												c0.3,0.1,0.5,0.4,0.7,0.7L39,9.8h0.9l-0.7,3.3c-0.1,0.5-0.1,0.7-0.1,0.8c0,0.1,0,0.2,0.1,0.2c0.1,0.1,0.1,0.1,0.2,0.1
												c0.2,0,0.4-0.1,0.7-0.3c0.4-0.3,0.7-0.6,0.9-1c0.2-0.4,0.3-0.9,0.3-1.4c0-0.5-0.1-1.1-0.4-1.5s-0.7-0.8-1.2-1.1
												s-1.2-0.4-1.8-0.4c-0.8,0-1.5,0.2-2.1,0.5c-0.6,0.4-1.1,0.9-1.5,1.5c-0.3,0.7-0.5,1.4-0.5,2.1c0,0.8,0.2,1.5,0.5,2.1
												s0.8,1,1.5,1.3c0.7,0.3,1.4,0.4,2.2,0.4c0.9,0,1.6-0.1,2.1-0.4s1-0.6,1.3-1h0.9c-0.2,0.3-0.5,0.7-0.9,1s-0.9,0.6-1.4,0.8
												c-0.6,0.2-1.2,0.3-2,0.3c-0.7,0-1.4-0.1-2-0.3s-1.1-0.5-1.6-0.8c-0.4-0.4-0.8-0.8-1-1.3c-0.3-0.6-0.4-1.3-0.4-2
												c0-0.8,0.2-1.6,0.5-2.3c0.4-0.9,1-1.6,1.7-2s1.6-0.7,2.7-0.7c0.8,0,1.5,0.2,2.2,0.5c0.6,0.3,1.1,0.8,1.5,1.5
												c0.3,0.6,0.5,1.2,0.5,1.8c0,0.9-0.3,1.8-1,2.5c-0.6,0.7-1.2,1-1.9,1c-0.2,0-0.4,0-0.5-0.1s-0.2-0.2-0.3-0.3
												C38.2,14.5,38.2,14.4,38.1,14.2z M35.8,12.9c0,0.4,0.1,0.8,0.3,1s0.5,0.4,0.7,0.4c0.2,0,0.4-0.1,0.6-0.2
												c0.2-0.1,0.4-0.3,0.6-0.5s0.3-0.5,0.5-0.8c0.1-0.3,0.2-0.7,0.2-1c0-0.4-0.1-0.8-0.3-1s-0.5-0.4-0.8-0.4
												c-0.2,0-0.4,0.1-0.6,0.2c-0.2,0.1-0.4,0.3-0.5,0.5S36,11.6,35.9,12S35.8,12.6,35.8,12.9z"/>
											<path class="st6" d="M46.1,15V7.8h1.4l1.7,5.1c0.2,0.5,0.3,0.8,0.3,1.1c0.1-0.3,0.2-0.6,0.4-1.1l1.7-5H53V15h-0.9V9
												L50,15h-0.9L47,8.9V15H46.1z"/>
											<path class="st6" d="M57.8,14.4c-0.3,0.3-0.6,0.5-0.9,0.6s-0.6,0.2-1,0.2c-0.6,0-1-0.1-1.3-0.4c-0.3-0.3-0.5-0.6-0.5-1.1
												c0-0.3,0.1-0.5,0.2-0.7c0.1-0.2,0.3-0.4,0.5-0.5s0.4-0.2,0.6-0.3c0.2,0,0.4-0.1,0.8-0.1c0.7-0.1,1.2-0.2,1.6-0.3
												c0-0.1,0-0.2,0-0.2c0-0.4-0.1-0.6-0.2-0.8c-0.2-0.2-0.6-0.3-1-0.3c-0.4,0-0.7,0.1-0.9,0.2c-0.2,0.1-0.3,0.4-0.4,0.8
												l-0.9-0.1c0.1-0.4,0.2-0.7,0.4-0.9c0.2-0.2,0.4-0.4,0.8-0.5c0.3-0.1,0.7-0.2,1.2-0.2c0.4,0,0.8,0.1,1.1,0.2
												s0.5,0.2,0.6,0.4c0.1,0.2,0.2,0.4,0.3,0.6c0,0.1,0,0.4,0,0.8v1.2c0,0.8,0,1.3,0.1,1.5c0,0.2,0.1,0.4,0.2,0.6h-0.9
												C57.9,14.8,57.8,14.6,57.8,14.4z M57.7,12.4c-0.3,0.1-0.8,0.2-1.4,0.3c-0.4,0.1-0.6,0.1-0.8,0.2s-0.3,0.2-0.3,0.3
												c-0.1,0.1-0.1,0.3-0.1,0.4c0,0.2,0.1,0.4,0.3,0.6s0.4,0.2,0.8,0.2c0.3,0,0.6-0.1,0.9-0.2c0.3-0.1,0.5-0.4,0.6-0.6
												c0.1-0.2,0.1-0.5,0.1-0.9V12.4z"/>
											<path class="st6" d="M59.9,15V9.8h0.8v0.7c0.4-0.6,0.9-0.9,1.7-0.9c0.3,0,0.6,0.1,0.9,0.2c0.3,0.1,0.5,0.3,0.6,0.4
												s0.2,0.4,0.3,0.6c0,0.2,0,0.4,0,0.9V15h-0.9v-3.2c0-0.4,0-0.6-0.1-0.8c-0.1-0.2-0.2-0.3-0.4-0.4
												c-0.2-0.1-0.4-0.2-0.6-0.2c-0.4,0-0.7,0.1-1,0.4s-0.4,0.7-0.4,1.4V15H59.9z"/>
											<path class="st6" d="M68.9,14.4c-0.3,0.3-0.6,0.5-0.9,0.6s-0.6,0.2-1,0.2c-0.6,0-1-0.1-1.3-0.4c-0.3-0.3-0.5-0.6-0.5-1.1
												c0-0.3,0.1-0.5,0.2-0.7c0.1-0.2,0.3-0.4,0.5-0.5s0.4-0.2,0.6-0.3c0.2,0,0.4-0.1,0.8-0.1c0.7-0.1,1.2-0.2,1.6-0.3
												c0-0.1,0-0.2,0-0.2c0-0.4-0.1-0.6-0.2-0.8c-0.2-0.2-0.6-0.3-1-0.3c-0.4,0-0.7,0.1-0.9,0.2c-0.2,0.1-0.3,0.4-0.4,0.8
												l-0.9-0.1c0.1-0.4,0.2-0.7,0.4-0.9c0.2-0.2,0.4-0.4,0.8-0.5c0.3-0.1,0.7-0.2,1.2-0.2c0.4,0,0.8,0.1,1.1,0.2
												s0.5,0.2,0.6,0.4c0.1,0.2,0.2,0.4,0.3,0.6c0,0.1,0,0.4,0,0.8v1.2c0,0.8,0,1.3,0.1,1.5c0,0.2,0.1,0.4,0.2,0.6h-0.9
												C69,14.8,68.9,14.6,68.9,14.4z M68.8,12.4c-0.3,0.1-0.8,0.2-1.4,0.3c-0.4,0.1-0.6,0.1-0.8,0.2s-0.3,0.2-0.3,0.3
												c-0.1,0.1-0.1,0.3-0.1,0.4c0,0.2,0.1,0.4,0.3,0.6s0.4,0.2,0.8,0.2c0.3,0,0.6-0.1,0.9-0.2c0.3-0.1,0.5-0.4,0.6-0.6
												c0.1-0.2,0.1-0.5,0.1-0.9V12.4z"/>
											<path class="st6" d="M70.9,15.4l0.9,0.1c0,0.3,0.1,0.5,0.3,0.6c0.2,0.2,0.5,0.2,0.9,0.2c0.4,0,0.7-0.1,0.9-0.2
												s0.4-0.4,0.4-0.7c0-0.2,0.1-0.6,0.1-1.1C74,14.8,73.5,15,73,15c-0.7,0-1.3-0.3-1.7-0.8s-0.6-1.1-0.6-1.9
												c0-0.5,0.1-1,0.3-1.4c0.2-0.4,0.4-0.7,0.8-1s0.7-0.3,1.2-0.3c0.6,0,1.1,0.2,1.5,0.7V9.8h0.8v4.5c0,0.8-0.1,1.4-0.2,1.7
												c-0.2,0.3-0.4,0.6-0.8,0.8s-0.8,0.3-1.3,0.3c-0.6,0-1.1-0.1-1.5-0.4C71.1,16.4,70.9,16,70.9,15.4z M71.6,12.3
												c0,0.7,0.1,1.2,0.4,1.5s0.6,0.5,1,0.5c0.4,0,0.7-0.2,1-0.5c0.3-0.3,0.4-0.8,0.4-1.5c0-0.6-0.1-1.1-0.4-1.4
												s-0.6-0.5-1-0.5c-0.4,0-0.7,0.2-1,0.5C71.8,11.2,71.6,11.7,71.6,12.3z"/>
											<path class="st6" d="M80.2,13.3l0.9,0.1c-0.1,0.5-0.4,0.9-0.8,1.2s-0.9,0.4-1.5,0.4c-0.8,0-1.4-0.2-1.8-0.7
												c-0.4-0.5-0.7-1.1-0.7-2c0-0.9,0.2-1.5,0.7-2s1-0.7,1.7-0.7c0.7,0,1.3,0.2,1.7,0.7s0.7,1.1,0.7,2c0,0.1,0,0.1,0,0.2h-3.9
												c0,0.6,0.2,1,0.5,1.3s0.7,0.5,1.1,0.5c0.3,0,0.6-0.1,0.8-0.3S80,13.7,80.2,13.3z M77.3,11.9h2.9c0-0.4-0.1-0.8-0.3-1
												c-0.3-0.3-0.6-0.5-1.1-0.5c-0.4,0-0.7,0.1-1,0.4S77.3,11.5,77.3,11.9z"/>
											<path class="st6" d="M87.4,12.5l0.9,0.2c-0.2,0.8-0.6,1.4-1.1,1.8c-0.5,0.4-1.1,0.6-1.9,0.6c-0.8,0-1.4-0.2-1.9-0.5
												c-0.5-0.3-0.9-0.8-1.1-1.4S82,12.1,82,11.4c0-0.7,0.1-1.4,0.4-2c0.3-0.6,0.7-1,1.2-1.3c0.5-0.3,1.1-0.4,1.7-0.4
												c0.7,0,1.3,0.2,1.8,0.5s0.8,0.9,1,1.5L87.3,10c-0.2-0.5-0.4-0.9-0.7-1.1s-0.7-0.4-1.2-0.4c-0.6,0-1,0.1-1.4,0.4
												s-0.6,0.6-0.8,1.1c-0.1,0.4-0.2,0.9-0.2,1.4c0,0.6,0.1,1.1,0.3,1.6c0.2,0.5,0.5,0.8,0.8,1s0.8,0.3,1.2,0.3
												c0.5,0,1-0.2,1.3-0.5S87.3,13.1,87.4,12.5z"/>
											<path class="st6" d="M92.8,14.4c-0.3,0.3-0.6,0.5-0.9,0.6s-0.6,0.2-1,0.2c-0.6,0-1-0.1-1.3-0.4c-0.3-0.3-0.5-0.6-0.5-1.1
												c0-0.3,0.1-0.5,0.2-0.7c0.1-0.2,0.3-0.4,0.5-0.5s0.4-0.2,0.6-0.3c0.2,0,0.4-0.1,0.8-0.1c0.7-0.1,1.2-0.2,1.6-0.3
												c0-0.1,0-0.2,0-0.2c0-0.4-0.1-0.6-0.2-0.8c-0.2-0.2-0.6-0.3-1-0.3c-0.4,0-0.7,0.1-0.9,0.2c-0.2,0.1-0.3,0.4-0.4,0.8
												l-0.9-0.1c0.1-0.4,0.2-0.7,0.4-0.9c0.2-0.2,0.4-0.4,0.8-0.5c0.3-0.1,0.7-0.2,1.2-0.2c0.4,0,0.8,0.1,1.1,0.2
												s0.5,0.2,0.6,0.4c0.1,0.2,0.2,0.4,0.3,0.6c0,0.1,0,0.4,0,0.8v1.2c0,0.8,0,1.3,0.1,1.5c0,0.2,0.1,0.4,0.2,0.6H93
												C92.9,14.8,92.8,14.6,92.8,14.4z M92.7,12.4c-0.3,0.1-0.8,0.2-1.4,0.3c-0.4,0.1-0.6,0.1-0.8,0.2s-0.3,0.2-0.3,0.3
												c-0.1,0.1-0.1,0.3-0.1,0.4c0,0.2,0.1,0.4,0.3,0.6s0.4,0.2,0.8,0.2c0.3,0,0.6-0.1,0.9-0.2c0.3-0.1,0.5-0.4,0.6-0.6
												c0.1-0.2,0.1-0.5,0.1-0.9V12.4z"/>
											<path class="st6" d="M94.6,13.5l0.9-0.1c0,0.3,0.2,0.6,0.4,0.8s0.5,0.3,0.9,0.3c0.4,0,0.7-0.1,0.9-0.2
												c0.2-0.2,0.3-0.4,0.3-0.6c0-0.2-0.1-0.4-0.3-0.5c-0.1-0.1-0.4-0.2-0.9-0.3c-0.6-0.2-1.1-0.3-1.3-0.4
												c-0.2-0.1-0.4-0.3-0.6-0.5c-0.1-0.2-0.2-0.4-0.2-0.7c0-0.2,0.1-0.4,0.2-0.6c0.1-0.2,0.3-0.4,0.4-0.5
												c0.1-0.1,0.3-0.2,0.6-0.3c0.2-0.1,0.5-0.1,0.8-0.1c0.4,0,0.8,0.1,1.1,0.2c0.3,0.1,0.5,0.3,0.7,0.5
												c0.1,0.2,0.2,0.5,0.3,0.8l-0.9,0.1c0-0.3-0.2-0.5-0.3-0.6c-0.2-0.1-0.5-0.2-0.8-0.2c-0.4,0-0.7,0.1-0.9,0.2
												s-0.3,0.3-0.3,0.5c0,0.1,0,0.2,0.1,0.3c0.1,0.1,0.2,0.2,0.3,0.2c0.1,0,0.3,0.1,0.8,0.2c0.6,0.2,1.1,0.3,1.3,0.4
												c0.2,0.1,0.4,0.3,0.6,0.5s0.2,0.5,0.2,0.8c0,0.3-0.1,0.6-0.3,0.8c-0.2,0.3-0.4,0.5-0.7,0.6c-0.3,0.1-0.7,0.2-1.1,0.2
												c-0.7,0-1.2-0.1-1.5-0.4S94.7,14,94.6,13.5z"/>
											<path class="st6" d="M103.4,14.4c-0.3,0.3-0.6,0.5-0.9,0.6c-0.3,0.1-0.6,0.2-1,0.2c-0.6,0-1-0.1-1.3-0.4
												c-0.3-0.3-0.5-0.6-0.5-1.1c0-0.3,0.1-0.5,0.2-0.7c0.1-0.2,0.3-0.4,0.5-0.5c0.2-0.1,0.4-0.2,0.6-0.3
												c0.2,0,0.4-0.1,0.8-0.1c0.7-0.1,1.2-0.2,1.6-0.3c0-0.1,0-0.2,0-0.2c0-0.4-0.1-0.6-0.2-0.8c-0.2-0.2-0.6-0.3-1-0.3
												c-0.4,0-0.7,0.1-0.9,0.2c-0.2,0.1-0.3,0.4-0.4,0.8l-0.9-0.1c0.1-0.4,0.2-0.7,0.4-0.9c0.2-0.2,0.4-0.4,0.8-0.5
												c0.3-0.1,0.7-0.2,1.2-0.2c0.4,0,0.8,0.1,1.1,0.2s0.5,0.2,0.6,0.4c0.1,0.2,0.2,0.4,0.3,0.6c0,0.1,0,0.4,0,0.8v1.2
												c0,0.8,0,1.3,0.1,1.5c0,0.2,0.1,0.4,0.2,0.6h-0.9C103.4,14.8,103.4,14.6,103.4,14.4z M103.3,12.4
												c-0.3,0.1-0.8,0.2-1.4,0.3c-0.4,0.1-0.6,0.1-0.8,0.2s-0.3,0.2-0.3,0.3c-0.1,0.1-0.1,0.3-0.1,0.4c0,0.2,0.1,0.4,0.3,0.6
												c0.2,0.2,0.4,0.2,0.8,0.2c0.3,0,0.6-0.1,0.9-0.2c0.3-0.1,0.5-0.4,0.6-0.6c0.1-0.2,0.1-0.5,0.1-0.9V12.4z"/>
										</g>
										<g class="st5">
											<path class="st7" d="M8.8,31v-7.2h0.9v2.9h3.7v-2.9h0.9V31h-0.9v-3.4H9.7V31H8.8z"/>
											<path class="st7" d="M19.4,29.3l0.9,0.1c-0.1,0.5-0.4,0.9-0.8,1.2s-0.9,0.4-1.5,0.4c-0.8,0-1.4-0.2-1.8-0.7
												c-0.4-0.5-0.7-1.1-0.7-2c0-0.9,0.2-1.5,0.7-2s1-0.7,1.7-0.7c0.7,0,1.3,0.2,1.7,0.7s0.7,1.1,0.7,2c0,0.1,0,0.1,0,0.2h-3.9
												c0,0.6,0.2,1,0.5,1.3s0.7,0.5,1.1,0.5c0.3,0,0.6-0.1,0.8-0.3S19.3,29.7,19.4,29.3z M16.5,27.9h2.9c0-0.4-0.1-0.8-0.3-1
												c-0.3-0.3-0.6-0.5-1.1-0.5c-0.4,0-0.7,0.1-1,0.4S16.6,27.5,16.5,27.9z"/>
											<path class="st7" d="M21.4,33l-0.1-0.8c0.2,0.1,0.4,0.1,0.5,0.1c0.2,0,0.4,0,0.5-0.1s0.2-0.2,0.3-0.3
												c0.1-0.1,0.1-0.3,0.3-0.7c0,0,0-0.1,0.1-0.2l-2-5.2h0.9l1.1,3c0.1,0.4,0.3,0.8,0.4,1.2c0.1-0.4,0.2-0.8,0.4-1.2l1.1-3
												h0.9l-2,5.3c-0.2,0.6-0.4,1-0.5,1.2c-0.2,0.3-0.3,0.5-0.5,0.6c-0.2,0.1-0.4,0.2-0.7,0.2C21.8,33.1,21.6,33.1,21.4,33z"/>
											<path class="st7" d="M29.3,31v-7.2h1.4l1.7,5.1c0.2,0.5,0.3,0.8,0.3,1.1c0.1-0.3,0.2-0.6,0.4-1.1l1.7-5h1.3V31h-0.9v-6
												l-2.1,6h-0.9l-2.1-6.1V31H29.3z"/>
											<path class="st7" d="M40.9,30.4c-0.3,0.3-0.6,0.5-0.9,0.6s-0.6,0.2-1,0.2c-0.6,0-1-0.1-1.3-0.4c-0.3-0.3-0.5-0.6-0.5-1.1
												c0-0.3,0.1-0.5,0.2-0.7c0.1-0.2,0.3-0.4,0.5-0.5s0.4-0.2,0.6-0.3c0.2,0,0.4-0.1,0.8-0.1c0.7-0.1,1.2-0.2,1.6-0.3
												c0-0.1,0-0.2,0-0.2c0-0.4-0.1-0.6-0.2-0.8c-0.2-0.2-0.6-0.3-1-0.3c-0.4,0-0.7,0.1-0.9,0.2c-0.2,0.1-0.3,0.4-0.4,0.8
												l-0.9-0.1c0.1-0.4,0.2-0.7,0.4-0.9c0.2-0.2,0.4-0.4,0.8-0.5c0.3-0.1,0.7-0.2,1.2-0.2c0.4,0,0.8,0.1,1.1,0.2
												s0.5,0.2,0.6,0.4c0.1,0.2,0.2,0.4,0.3,0.6c0,0.1,0,0.4,0,0.8v1.2c0,0.8,0,1.3,0.1,1.5c0,0.2,0.1,0.4,0.2,0.6h-0.9
												C41,30.8,41,30.6,40.9,30.4z M40.9,28.4c-0.3,0.1-0.8,0.2-1.4,0.3c-0.4,0.1-0.6,0.1-0.8,0.2s-0.3,0.2-0.3,0.3
												c-0.1,0.1-0.1,0.3-0.1,0.4c0,0.2,0.1,0.4,0.3,0.6s0.4,0.2,0.8,0.2c0.3,0,0.6-0.1,0.9-0.2c0.3-0.1,0.5-0.4,0.6-0.6
												c0.1-0.2,0.1-0.5,0.1-0.9V28.4z"/>
											<path class="st7" d="M43.1,31v-5.2h0.8v0.8c0.2-0.4,0.4-0.6,0.6-0.7s0.4-0.2,0.6-0.2c0.3,0,0.6,0.1,0.9,0.3l-0.3,0.8
												c-0.2-0.1-0.4-0.2-0.6-0.2c-0.2,0-0.4,0.1-0.5,0.2c-0.2,0.1-0.3,0.3-0.3,0.5c-0.1,0.3-0.1,0.7-0.1,1V31H43.1z"/>
											<path class="st7" d="M46.4,31v-7.2h0.9v4.1l2.1-2.1h1.1l-2,1.9l2.2,3.3h-1.1l-1.7-2.7l-0.6,0.6V31H46.4z"/>
											<path class="st7" d="M51.9,29.2l-0.3-3.8v-1.6h1.1v1.6l-0.3,3.8H51.9z M51.7,31v-1h1v1H51.7z"/>
											<path class="st7" d="M57.1,31v-7.2h0.9v2.9h3.7v-2.9h0.9V31h-0.9v-3.4h-3.7V31H57.1z"/>
											<path class="st7" d="M63.9,28.4c0-1,0.3-1.7,0.8-2.1c0.4-0.4,1-0.6,1.6-0.6c0.7,0,1.3,0.2,1.7,0.7
												c0.5,0.5,0.7,1.1,0.7,1.9c0,0.7-0.1,1.2-0.3,1.6c-0.2,0.4-0.5,0.7-0.9,0.9s-0.8,0.3-1.3,0.3c-0.7,0-1.3-0.2-1.8-0.7
												S63.9,29.3,63.9,28.4z M64.8,28.4c0,0.7,0.1,1.2,0.4,1.5c0.3,0.3,0.7,0.5,1.1,0.5c0.4,0,0.8-0.2,1.1-0.5s0.4-0.8,0.4-1.5
												c0-0.6-0.1-1.1-0.4-1.5c-0.3-0.3-0.7-0.5-1.1-0.5c-0.4,0-0.8,0.2-1.1,0.5S64.8,27.7,64.8,28.4z"/>
											<path class="st7" d="M70.7,31l-1.6-5.2h0.9l0.8,3l0.3,1.1c0-0.1,0.1-0.4,0.3-1.1l0.8-3h0.9l0.8,3l0.3,1l0.3-1l0.9-3h0.9
												L74.6,31h-0.9l-0.8-3.1L72.7,27l-1,4H70.7z"/>
											<path class="st7" d="M83.2,29.1l0.9,0.1c-0.1,0.6-0.3,1.1-0.7,1.4c-0.4,0.3-0.9,0.5-1.4,0.5c-0.7,0-1.3-0.2-1.7-0.7
												c-0.4-0.5-0.6-1.1-0.6-2c0-0.6,0.1-1,0.3-1.5s0.5-0.7,0.8-0.9c0.4-0.2,0.8-0.3,1.2-0.3c0.6,0,1,0.1,1.4,0.4
												c0.4,0.3,0.6,0.7,0.7,1.2l-0.9,0.1c-0.1-0.3-0.2-0.6-0.4-0.8s-0.5-0.3-0.7-0.3c-0.4,0-0.8,0.2-1.1,0.5
												c-0.3,0.3-0.4,0.8-0.4,1.5c0,0.7,0.1,1.2,0.4,1.5s0.6,0.5,1,0.5c0.3,0,0.6-0.1,0.9-0.3S83.1,29.5,83.2,29.1z"/>
											<path class="st7" d="M88.2,30.4c-0.3,0.3-0.6,0.5-0.9,0.6s-0.6,0.2-1,0.2c-0.6,0-1-0.1-1.3-0.4c-0.3-0.3-0.5-0.6-0.5-1.1
												c0-0.3,0.1-0.5,0.2-0.7c0.1-0.2,0.3-0.4,0.5-0.5s0.4-0.2,0.6-0.3c0.2,0,0.4-0.1,0.8-0.1c0.7-0.1,1.2-0.2,1.6-0.3
												c0-0.1,0-0.2,0-0.2c0-0.4-0.1-0.6-0.2-0.8c-0.2-0.2-0.6-0.3-1-0.3c-0.4,0-0.7,0.1-0.9,0.2c-0.2,0.1-0.3,0.4-0.4,0.8
												l-0.9-0.1c0.1-0.4,0.2-0.7,0.4-0.9c0.2-0.2,0.4-0.4,0.8-0.5c0.3-0.1,0.7-0.2,1.2-0.2c0.4,0,0.8,0.1,1.1,0.2
												s0.5,0.2,0.6,0.4c0.1,0.2,0.2,0.4,0.3,0.6c0,0.1,0,0.4,0,0.8v1.2c0,0.8,0,1.3,0.1,1.5c0,0.2,0.1,0.4,0.2,0.6h-0.9
												C88.3,30.8,88.2,30.6,88.2,30.4z M88.1,28.4c-0.3,0.1-0.8,0.2-1.4,0.3c-0.4,0.1-0.6,0.1-0.8,0.2s-0.3,0.2-0.3,0.3
												c-0.1,0.1-0.1,0.3-0.1,0.4c0,0.2,0.1,0.4,0.3,0.6s0.4,0.2,0.8,0.2c0.3,0,0.6-0.1,0.9-0.2c0.3-0.1,0.5-0.4,0.6-0.6
												c0.1-0.2,0.1-0.5,0.1-0.9V28.4z"/>
											<path class="st7" d="M90.3,31v-5.2h0.8v0.7c0.4-0.6,0.9-0.9,1.7-0.9c0.3,0,0.6,0.1,0.9,0.2c0.3,0.1,0.5,0.3,0.6,0.4
												s0.2,0.4,0.3,0.6c0,0.2,0,0.4,0,0.9V31h-0.9v-3.2c0-0.4,0-0.6-0.1-0.8c-0.1-0.2-0.2-0.3-0.4-0.4
												c-0.2-0.1-0.4-0.2-0.6-0.2c-0.4,0-0.7,0.1-1,0.4s-0.4,0.7-0.4,1.4V31H90.3z"/>
											<path class="st7" d="M99,31v-7.2h0.9V31H99z"/>
											<path class="st7" d="M107.6,30.4c-0.3,0.3-0.6,0.5-0.9,0.6c-0.3,0.1-0.6,0.2-1,0.2c-0.6,0-1-0.1-1.3-0.4
												c-0.3-0.3-0.5-0.6-0.5-1.1c0-0.3,0.1-0.5,0.2-0.7c0.1-0.2,0.3-0.4,0.5-0.5c0.2-0.1,0.4-0.2,0.6-0.3
												c0.2,0,0.4-0.1,0.8-0.1c0.7-0.1,1.2-0.2,1.6-0.3c0-0.1,0-0.2,0-0.2c0-0.4-0.1-0.6-0.2-0.8c-0.2-0.2-0.6-0.3-1-0.3
												c-0.4,0-0.7,0.1-0.9,0.2c-0.2,0.1-0.3,0.4-0.4,0.8l-0.9-0.1c0.1-0.4,0.2-0.7,0.4-0.9c0.2-0.2,0.4-0.4,0.8-0.5
												c0.3-0.1,0.7-0.2,1.2-0.2c0.4,0,0.8,0.1,1.1,0.2s0.5,0.2,0.6,0.4c0.1,0.2,0.2,0.4,0.3,0.6c0,0.1,0,0.4,0,0.8v1.2
												c0,0.8,0,1.3,0.1,1.5c0,0.2,0.1,0.4,0.2,0.6h-0.9C107.7,30.8,107.7,30.6,107.6,30.4z M107.6,28.4
												c-0.3,0.1-0.8,0.2-1.4,0.3c-0.4,0.1-0.6,0.1-0.8,0.2s-0.3,0.2-0.3,0.3c-0.1,0.1-0.1,0.3-0.1,0.4c0,0.2,0.1,0.4,0.3,0.6
												c0.2,0.2,0.4,0.2,0.8,0.2c0.3,0,0.6-0.1,0.9-0.2c0.3-0.1,0.5-0.4,0.6-0.6c0.1-0.2,0.1-0.5,0.1-0.9V28.4z"/>
											<path class="st7" d="M109.5,29.5l0.9-0.1c0,0.3,0.2,0.6,0.4,0.8c0.2,0.2,0.5,0.3,0.9,0.3c0.4,0,0.7-0.1,0.9-0.2
												c0.2-0.2,0.3-0.4,0.3-0.6c0-0.2-0.1-0.4-0.3-0.5c-0.1-0.1-0.4-0.2-0.9-0.3c-0.6-0.2-1.1-0.3-1.3-0.4
												c-0.2-0.1-0.4-0.3-0.6-0.5c-0.1-0.2-0.2-0.4-0.2-0.7c0-0.2,0.1-0.4,0.2-0.6c0.1-0.2,0.3-0.4,0.4-0.5
												c0.1-0.1,0.3-0.2,0.6-0.3c0.2-0.1,0.5-0.1,0.8-0.1c0.4,0,0.8,0.1,1.1,0.2c0.3,0.1,0.5,0.3,0.7,0.5
												c0.1,0.2,0.2,0.5,0.3,0.8l-0.9,0.1c0-0.3-0.2-0.5-0.3-0.6c-0.2-0.1-0.5-0.2-0.8-0.2c-0.4,0-0.7,0.1-0.9,0.2
												s-0.3,0.3-0.3,0.5c0,0.1,0,0.2,0.1,0.3c0.1,0.1,0.2,0.2,0.3,0.2c0.1,0,0.3,0.1,0.8,0.2c0.6,0.2,1.1,0.3,1.3,0.4
												c0.2,0.1,0.4,0.3,0.6,0.5s0.2,0.5,0.2,0.8c0,0.3-0.1,0.6-0.3,0.8c-0.2,0.3-0.4,0.5-0.7,0.6c-0.3,0.1-0.7,0.2-1.1,0.2
												c-0.7,0-1.2-0.1-1.5-0.4C109.8,30.4,109.5,30,109.5,29.5z"/>
											<path class="st7" d="M114.5,29.5l0.9-0.1c0,0.3,0.2,0.6,0.4,0.8c0.2,0.2,0.5,0.3,0.9,0.3c0.4,0,0.7-0.1,0.9-0.2
												c0.2-0.2,0.3-0.4,0.3-0.6c0-0.2-0.1-0.4-0.3-0.5c-0.1-0.1-0.4-0.2-0.9-0.3c-0.6-0.2-1.1-0.3-1.3-0.4
												c-0.2-0.1-0.4-0.3-0.6-0.5c-0.1-0.2-0.2-0.4-0.2-0.7c0-0.2,0.1-0.4,0.2-0.6c0.1-0.2,0.3-0.4,0.4-0.5
												c0.1-0.1,0.3-0.2,0.6-0.3c0.2-0.1,0.5-0.1,0.8-0.1c0.4,0,0.8,0.1,1.1,0.2c0.3,0.1,0.5,0.3,0.7,0.5
												c0.1,0.2,0.2,0.5,0.3,0.8l-0.9,0.1c0-0.3-0.2-0.5-0.3-0.6c-0.2-0.1-0.5-0.2-0.8-0.2c-0.4,0-0.7,0.1-0.9,0.2
												s-0.3,0.3-0.3,0.5c0,0.1,0,0.2,0.1,0.3c0.1,0.1,0.2,0.2,0.3,0.2c0.1,0,0.3,0.1,0.8,0.2c0.6,0.2,1.1,0.3,1.3,0.4
												c0.2,0.1,0.4,0.3,0.6,0.5s0.2,0.5,0.2,0.8c0,0.3-0.1,0.6-0.3,0.8c-0.2,0.3-0.4,0.5-0.7,0.6c-0.3,0.1-0.7,0.2-1.1,0.2
												c-0.7,0-1.2-0.1-1.5-0.4C114.8,30.4,114.5,30,114.5,29.5z"/>
											<path class="st7" d="M119.8,24.9v-1h0.9v1H119.8z M119.8,31v-5.2h0.9V31H119.8z"/>
											<path class="st7" d="M121.7,29.5l0.9-0.1c0,0.3,0.2,0.6,0.4,0.8c0.2,0.2,0.5,0.3,0.9,0.3c0.4,0,0.7-0.1,0.9-0.2
												c0.2-0.2,0.3-0.4,0.3-0.6c0-0.2-0.1-0.4-0.3-0.5c-0.1-0.1-0.4-0.2-0.9-0.3c-0.6-0.2-1.1-0.3-1.3-0.4
												c-0.3-0.1-0.4-0.3-0.6-0.5c-0.1-0.2-0.2-0.4-0.2-0.7c0-0.2,0.1-0.4,0.2-0.6c0.1-0.2,0.3-0.4,0.4-0.5
												c0.1-0.1,0.3-0.2,0.6-0.3c0.2-0.1,0.5-0.1,0.8-0.1c0.4,0,0.8,0.1,1.1,0.2c0.3,0.1,0.5,0.3,0.7,0.5
												c0.1,0.2,0.2,0.5,0.3,0.8l-0.9,0.1c0-0.3-0.2-0.5-0.3-0.6c-0.2-0.1-0.5-0.2-0.8-0.2c-0.4,0-0.7,0.1-0.9,0.2
												s-0.3,0.3-0.3,0.5c0,0.1,0,0.2,0.1,0.3c0.1,0.1,0.2,0.2,0.3,0.2c0.1,0,0.3,0.1,0.8,0.2c0.6,0.2,1.1,0.3,1.3,0.4
												c0.2,0.1,0.4,0.3,0.6,0.5s0.2,0.5,0.2,0.8c0,0.3-0.1,0.6-0.3,0.8c-0.2,0.3-0.4,0.5-0.7,0.6c-0.3,0.1-0.7,0.2-1.1,0.2
												c-0.7,0-1.2-0.1-1.5-0.4C122,30.4,121.8,30,121.7,29.5z"/>
											<path class="st7" d="M128.9,30.2l0.1,0.8c-0.2,0.1-0.5,0.1-0.7,0.1c-0.3,0-0.6-0.1-0.7-0.2s-0.3-0.2-0.4-0.4
												c-0.1-0.2-0.1-0.5-0.1-1v-3h-0.6v-0.7h0.6v-1.3l0.9-0.5v1.8h0.9v0.7h-0.9v3c0,0.3,0,0.4,0,0.5c0,0.1,0.1,0.1,0.2,0.2
												c0.1,0,0.2,0.1,0.3,0.1C128.7,30.2,128.8,30.2,128.9,30.2z"/>
											<path class="st7" d="M132.5,33l-0.1-0.8c0.2,0.1,0.4,0.1,0.5,0.1c0.2,0,0.4,0,0.5-0.1s0.2-0.2,0.3-0.3
												c0.1-0.1,0.1-0.3,0.3-0.7c0,0,0-0.1,0.1-0.2l-2-5.2h0.9l1.1,3c0.1,0.4,0.3,0.8,0.4,1.2c0.1-0.4,0.2-0.8,0.4-1.2l1.1-3
												h0.9l-2,5.3c-0.2,0.6-0.4,1-0.5,1.2c-0.2,0.3-0.3,0.5-0.5,0.6c-0.2,0.1-0.4,0.2-0.7,0.2C132.9,33.1,132.8,33.1,132.5,33z
												"/>
											<path class="st7" d="M137.3,28.4c0-1,0.3-1.7,0.8-2.1c0.4-0.4,1-0.6,1.6-0.6c0.7,0,1.3,0.2,1.7,0.7
												c0.5,0.5,0.7,1.1,0.7,1.9c0,0.7-0.1,1.2-0.3,1.6c-0.2,0.4-0.5,0.7-0.9,0.9c-0.4,0.2-0.8,0.3-1.3,0.3
												c-0.7,0-1.3-0.2-1.8-0.7C137.5,30,137.3,29.3,137.3,28.4z M138.2,28.4c0,0.7,0.1,1.2,0.4,1.5c0.3,0.3,0.7,0.5,1.1,0.5
												c0.4,0,0.8-0.2,1.1-0.5s0.4-0.8,0.4-1.5c0-0.6-0.1-1.1-0.4-1.5c-0.3-0.3-0.7-0.5-1.1-0.5c-0.4,0-0.8,0.2-1.1,0.5
												S138.2,27.7,138.2,28.4z"/>
											<path class="st7" d="M146.5,31v-0.8c-0.4,0.6-1,0.9-1.6,0.9c-0.3,0-0.6-0.1-0.9-0.2c-0.3-0.1-0.5-0.3-0.6-0.4
												c-0.1-0.2-0.2-0.4-0.3-0.7c0-0.2-0.1-0.4-0.1-0.8v-3.2h0.9v2.9c0,0.5,0,0.8,0.1,0.9c0.1,0.2,0.2,0.4,0.4,0.5
												c0.2,0.1,0.4,0.2,0.7,0.2s0.5-0.1,0.7-0.2c0.2-0.1,0.4-0.3,0.5-0.6c0.1-0.2,0.1-0.6,0.1-1v-2.8h0.9V31H146.5z"/>
											<path class="st7" d="M150.3,29.2c0-0.1,0-0.2,0-0.3c0-0.3,0-0.6,0.1-0.9c0.1-0.2,0.2-0.4,0.3-0.6
												c0.1-0.1,0.3-0.3,0.6-0.6c0.3-0.3,0.5-0.5,0.6-0.6s0.1-0.3,0.1-0.5c0-0.3-0.1-0.6-0.4-0.9c-0.3-0.3-0.6-0.4-1-0.4
												c-0.4,0-0.7,0.1-0.9,0.4s-0.4,0.6-0.5,1.1l-0.9-0.1c0.1-0.7,0.3-1.2,0.7-1.5c0.4-0.4,0.9-0.5,1.6-0.5
												c0.7,0,1.3,0.2,1.7,0.6s0.6,0.8,0.6,1.4c0,0.3-0.1,0.6-0.2,0.9s-0.4,0.6-0.9,1c-0.3,0.3-0.5,0.4-0.6,0.6
												s-0.2,0.3-0.2,0.4s-0.1,0.4-0.1,0.8H150.3z M150.3,31v-1h1v1H150.3z"/>
										</g>
									</g>
									<g id="_x32_" transform="translate(0.000000, 55.000000)">
										<g id="box_1_">
											<g>
												<path id="path-7_1_" d="M30,0h160c1.1,0,2,0.9,2,2v35c0,1.1-0.9,2-2,2H30c-1.1,0-2-0.9-2-2V15l0,0l-3-4l3-4V2
													C28,0.9,28.9,0,30,0z"/>
											</g>
											<path class="st8" d="M27.5,15.2L24.4,11l3.1-4.2V2c0-1.4,1.1-2.5,2.5-2.5h160c1.4,0,2.5,1.1,2.5,2.5v35
												c0,1.4-1.1,2.5-2.5,2.5H30c-1.4,0-2.5-1.1-2.5-2.5V15.2z"/>
										</g>
										<g id="avatar-_x2F_-20x20-_x2F_-initials-_x2F_-coral">
											<g>
												<circle class="st9" cx="10" cy="10" r="9.5"/>
												<path id="Symbol_1_" class="st10" d="M10,11c2.4,0,4.5,0.9,6.1,2.4C14.9,15.6,12.6,17,10,17s-4.9-1.4-6.1-3.6
													C5.5,11.9,7.6,11,10,11z M10,3c1.7,0,3,1.3,3,3s-1.3,3-3,3S7,7.7,7,6S8.3,3,10,3z"/>
											</g>
										</g>
										<g class="st5">
											<path class="st0" d="M36.7,15V7.8h1.4l1.7,5.1c0.2,0.5,0.3,0.8,0.3,1.1c0.1-0.3,0.2-0.6,0.4-1.1l1.7-5h1.3V15h-0.9V9
												l-2.1,6h-0.9l-2.1-6.1V15H36.7z"/>
											<path class="st0" d="M48.4,14.4c-0.3,0.3-0.6,0.5-0.9,0.6s-0.6,0.2-1,0.2c-0.6,0-1-0.1-1.3-0.4c-0.3-0.3-0.5-0.6-0.5-1.1
												c0-0.3,0.1-0.5,0.2-0.7c0.1-0.2,0.3-0.4,0.5-0.5s0.4-0.2,0.6-0.3c0.2,0,0.4-0.1,0.8-0.1c0.7-0.1,1.2-0.2,1.6-0.3
												c0-0.1,0-0.2,0-0.2c0-0.4-0.1-0.6-0.2-0.8c-0.2-0.2-0.6-0.3-1-0.3c-0.4,0-0.7,0.1-0.9,0.2c-0.2,0.1-0.3,0.4-0.4,0.8
												l-0.9-0.1c0.1-0.4,0.2-0.7,0.4-0.9c0.2-0.2,0.4-0.4,0.8-0.5c0.3-0.1,0.7-0.2,1.2-0.2c0.4,0,0.8,0.1,1.1,0.2
												s0.5,0.2,0.6,0.4c0.1,0.2,0.2,0.4,0.3,0.6c0,0.1,0,0.4,0,0.8v1.2c0,0.8,0,1.3,0.1,1.5c0,0.2,0.1,0.4,0.2,0.6h-0.9
												C48.5,14.8,48.4,14.6,48.4,14.4z M48.3,12.4c-0.3,0.1-0.8,0.2-1.4,0.3c-0.4,0.1-0.6,0.1-0.8,0.2s-0.3,0.2-0.3,0.3
												c-0.1,0.1-0.1,0.3-0.1,0.4c0,0.2,0.1,0.4,0.3,0.6s0.4,0.2,0.8,0.2c0.3,0,0.6-0.1,0.9-0.2c0.3-0.1,0.5-0.4,0.6-0.6
												c0.1-0.2,0.1-0.5,0.1-0.9V12.4z"/>
											<path class="st0" d="M50.5,15V9.8h0.8v0.8c0.2-0.4,0.4-0.6,0.6-0.7s0.4-0.2,0.6-0.2c0.3,0,0.6,0.1,0.9,0.3l-0.3,0.8
												c-0.2-0.1-0.4-0.2-0.6-0.2c-0.2,0-0.4,0.1-0.5,0.2c-0.2,0.1-0.3,0.3-0.3,0.5c-0.1,0.3-0.1,0.7-0.1,1V15H50.5z"/>
											<path class="st0" d="M53.9,15V7.8h0.9v4.1l2.1-2.1H58l-2,1.9l2.2,3.3h-1.1l-1.7-2.7l-0.6,0.6V15H53.9z"/>
										</g>
										<g class="st5">
											<path class="st0" d="M36.9,31v-7.2h0.9V31H36.9z"/>
											<path class="st0" d="M45.6,30.4c-0.3,0.3-0.6,0.5-0.9,0.6s-0.6,0.2-1,0.2c-0.6,0-1-0.1-1.3-0.4c-0.3-0.3-0.5-0.6-0.5-1.1
												c0-0.3,0.1-0.5,0.2-0.7c0.1-0.2,0.3-0.4,0.5-0.5s0.4-0.2,0.6-0.3c0.2,0,0.4-0.1,0.8-0.1c0.7-0.1,1.2-0.2,1.6-0.3
												c0-0.1,0-0.2,0-0.2c0-0.4-0.1-0.6-0.2-0.8c-0.2-0.2-0.6-0.3-1-0.3c-0.4,0-0.7,0.1-0.9,0.2c-0.2,0.1-0.3,0.4-0.4,0.8
												l-0.9-0.1c0.1-0.4,0.2-0.7,0.4-0.9c0.2-0.2,0.4-0.4,0.8-0.5c0.3-0.1,0.7-0.2,1.2-0.2c0.4,0,0.8,0.1,1.1,0.2
												s0.5,0.2,0.6,0.4c0.1,0.2,0.2,0.4,0.3,0.6c0,0.1,0,0.4,0,0.8v1.2c0,0.8,0,1.3,0.1,1.5c0,0.2,0.1,0.4,0.2,0.6h-0.9
												C45.7,30.8,45.6,30.6,45.6,30.4z M45.5,28.4c-0.3,0.1-0.8,0.2-1.4,0.3c-0.4,0.1-0.6,0.1-0.8,0.2s-0.3,0.2-0.3,0.3
												c-0.1,0.1-0.1,0.3-0.1,0.4c0,0.2,0.1,0.4,0.3,0.6s0.4,0.2,0.8,0.2c0.3,0,0.6-0.1,0.9-0.2c0.3-0.1,0.5-0.4,0.6-0.6
												c0.1-0.2,0.1-0.5,0.1-0.9V28.4z"/>
											<path class="st0" d="M47.8,31v-5.2h0.8v0.7c0.2-0.3,0.4-0.5,0.6-0.6c0.3-0.2,0.6-0.2,0.9-0.2c0.4,0,0.7,0.1,0.9,0.2
												s0.4,0.4,0.5,0.7c0.4-0.6,0.9-0.9,1.6-0.9c0.5,0,0.9,0.1,1.2,0.4c0.3,0.3,0.4,0.7,0.4,1.3V31h-0.9v-3.3
												c0-0.4,0-0.6-0.1-0.8c-0.1-0.2-0.2-0.3-0.3-0.4s-0.3-0.1-0.5-0.1c-0.4,0-0.7,0.1-0.9,0.4c-0.2,0.2-0.4,0.6-0.4,1.2v3
												h-0.9v-3.4c0-0.4-0.1-0.7-0.2-0.9s-0.4-0.3-0.7-0.3c-0.2,0-0.5,0.1-0.7,0.2s-0.4,0.3-0.5,0.6s-0.1,0.6-0.1,1.1V31H47.8z"
												/>
											<path class="st0" d="M59.8,31l-1.6-5.2h0.9l0.8,3l0.3,1.1c0-0.1,0.1-0.4,0.3-1.1l0.8-3h0.9l0.8,3l0.3,1l0.3-1l0.9-3h0.9
												L63.7,31h-0.9L62,27.9L61.8,27l-1,4H59.8z"/>
											<path class="st0" d="M69.5,30.4c-0.3,0.3-0.6,0.5-0.9,0.6s-0.6,0.2-1,0.2c-0.6,0-1-0.1-1.3-0.4c-0.3-0.3-0.5-0.6-0.5-1.1
												c0-0.3,0.1-0.5,0.2-0.7c0.1-0.2,0.3-0.4,0.5-0.5s0.4-0.2,0.6-0.3c0.2,0,0.4-0.1,0.8-0.1c0.7-0.1,1.2-0.2,1.6-0.3
												c0-0.1,0-0.2,0-0.2c0-0.4-0.1-0.6-0.2-0.8c-0.2-0.2-0.6-0.3-1-0.3c-0.4,0-0.7,0.1-0.9,0.2c-0.2,0.1-0.3,0.4-0.4,0.8
												L66,27.3c0.1-0.4,0.2-0.7,0.4-0.9c0.2-0.2,0.4-0.4,0.8-0.5c0.3-0.1,0.7-0.2,1.2-0.2c0.4,0,0.8,0.1,1.1,0.2
												s0.5,0.2,0.6,0.4c0.1,0.2,0.2,0.4,0.3,0.6c0,0.1,0,0.4,0,0.8v1.2c0,0.8,0,1.3,0.1,1.5c0,0.2,0.1,0.4,0.2,0.6h-0.9
												C69.6,30.8,69.5,30.6,69.5,30.4z M69.4,28.4c-0.3,0.1-0.8,0.2-1.4,0.3c-0.4,0.1-0.6,0.1-0.8,0.2s-0.3,0.2-0.3,0.3
												c-0.1,0.1-0.1,0.3-0.1,0.4c0,0.2,0.1,0.4,0.3,0.6s0.4,0.2,0.8,0.2c0.3,0,0.6-0.1,0.9-0.2c0.3-0.1,0.5-0.4,0.6-0.6
												c0.1-0.2,0.1-0.5,0.1-0.9V28.4z"/>
											<path class="st0" d="M71.7,31v-5.2h0.8v0.7c0.4-0.6,0.9-0.9,1.7-0.9c0.3,0,0.6,0.1,0.9,0.2c0.3,0.1,0.5,0.3,0.6,0.4
												s0.2,0.4,0.3,0.6c0,0.2,0,0.4,0,0.9V31H75v-3.2c0-0.4,0-0.6-0.1-0.8c-0.1-0.2-0.2-0.3-0.4-0.4c-0.2-0.1-0.4-0.2-0.6-0.2
												c-0.4,0-0.7,0.1-1,0.4s-0.4,0.7-0.4,1.4V31H71.7z"/>
											<path class="st0" d="M79.1,30.2l0.1,0.8c-0.2,0.1-0.5,0.1-0.7,0.1c-0.3,0-0.6-0.1-0.7-0.2s-0.3-0.2-0.4-0.4
												c-0.1-0.2-0.1-0.5-0.1-1v-3h-0.6v-0.7h0.6v-1.3l0.9-0.5v1.8h0.9v0.7h-0.9v3c0,0.3,0,0.4,0,0.5s0.1,0.1,0.2,0.2
												s0.2,0.1,0.3,0.1C78.9,30.2,79,30.2,79.1,30.2z"/>
											<path class="st0" d="M80,24.9v-1h0.9v1H80z M80,31v-5.2h0.9V31H80z"/>
											<path class="st0" d="M82.2,31v-5.2H83v0.7c0.4-0.6,0.9-0.9,1.7-0.9c0.3,0,0.6,0.1,0.9,0.2c0.3,0.1,0.5,0.3,0.6,0.4
												s0.2,0.4,0.3,0.6c0,0.2,0,0.4,0,0.9V31h-0.9v-3.2c0-0.4,0-0.6-0.1-0.8c-0.1-0.2-0.2-0.3-0.4-0.4
												c-0.2-0.1-0.4-0.2-0.6-0.2c-0.4,0-0.7,0.1-1,0.4s-0.4,0.7-0.4,1.4V31H82.2z"/>
											<path class="st0" d="M87.6,31.4l0.9,0.1c0,0.3,0.1,0.5,0.3,0.6c0.2,0.2,0.5,0.2,0.9,0.2c0.4,0,0.7-0.1,0.9-0.2
												s0.4-0.4,0.4-0.7c0-0.2,0.1-0.6,0.1-1.1c-0.4,0.5-0.9,0.7-1.4,0.7c-0.7,0-1.3-0.3-1.7-0.8s-0.6-1.1-0.6-1.9
												c0-0.5,0.1-1,0.3-1.4c0.2-0.4,0.4-0.7,0.8-1s0.7-0.3,1.2-0.3c0.6,0,1.1,0.2,1.5,0.7v-0.6H92v4.5c0,0.8-0.1,1.4-0.2,1.7
												c-0.2,0.3-0.4,0.6-0.8,0.8s-0.8,0.3-1.3,0.3c-0.6,0-1.1-0.1-1.5-0.4C87.8,32.4,87.6,32,87.6,31.4z M88.4,28.3
												c0,0.7,0.1,1.2,0.4,1.5s0.6,0.5,1,0.5c0.4,0,0.7-0.2,1-0.5c0.3-0.3,0.4-0.8,0.4-1.5c0-0.6-0.1-1.1-0.4-1.4
												s-0.6-0.5-1-0.5c-0.4,0-0.7,0.2-1,0.5C88.5,27.2,88.4,27.7,88.4,28.3z"/>
											<path class="st0" d="M98.1,30.2l0.1,0.8c-0.2,0.1-0.5,0.1-0.7,0.1c-0.3,0-0.6-0.1-0.7-0.2s-0.3-0.2-0.4-0.4
												c-0.1-0.2-0.1-0.5-0.1-1v-3h-0.6v-0.7h0.6v-1.3l0.9-0.5v1.8h0.9v0.7h-0.9v3c0,0.3,0,0.4,0,0.5c0,0.1,0.1,0.1,0.2,0.2
												c0.1,0,0.2,0.1,0.3,0.1C97.8,30.2,97.9,30.2,98.1,30.2z"/>
											<path class="st0" d="M98.6,28.4c0-1,0.3-1.7,0.8-2.1c0.4-0.4,1-0.6,1.6-0.6c0.7,0,1.3,0.2,1.7,0.7
												c0.5,0.5,0.7,1.1,0.7,1.9c0,0.7-0.1,1.2-0.3,1.6c-0.2,0.4-0.5,0.7-0.9,0.9c-0.4,0.2-0.8,0.3-1.3,0.3
												c-0.7,0-1.3-0.2-1.8-0.7C98.8,30,98.6,29.3,98.6,28.4z M99.5,28.4c0,0.7,0.1,1.2,0.4,1.5c0.3,0.3,0.7,0.5,1.1,0.5
												c0.4,0,0.8-0.2,1.1-0.5s0.4-0.8,0.4-1.5c0-0.6-0.1-1.1-0.4-1.5c-0.3-0.3-0.7-0.5-1.1-0.5c-0.4,0-0.8,0.2-1.1,0.5
												S99.5,27.7,99.5,28.4z"/>
											<path class="st0" d="M110.6,30.4c-0.3,0.3-0.6,0.5-0.9,0.6c-0.3,0.1-0.6,0.2-1,0.2c-0.6,0-1-0.1-1.3-0.4
												c-0.3-0.3-0.5-0.6-0.5-1.1c0-0.3,0.1-0.5,0.2-0.7c0.1-0.2,0.3-0.4,0.5-0.5c0.2-0.1,0.4-0.2,0.6-0.3
												c0.2,0,0.4-0.1,0.8-0.1c0.7-0.1,1.2-0.2,1.6-0.3c0-0.1,0-0.2,0-0.2c0-0.4-0.1-0.6-0.2-0.8c-0.2-0.2-0.6-0.3-1-0.3
												c-0.4,0-0.7,0.1-0.9,0.2c-0.2,0.1-0.3,0.4-0.4,0.8l-0.9-0.1c0.1-0.4,0.2-0.7,0.4-0.9c0.2-0.2,0.4-0.4,0.8-0.5
												c0.3-0.1,0.7-0.2,1.2-0.2c0.4,0,0.8,0.1,1.1,0.2s0.5,0.2,0.6,0.4c0.1,0.2,0.2,0.4,0.3,0.6c0,0.1,0,0.4,0,0.8v1.2
												c0,0.8,0,1.3,0.1,1.5c0,0.2,0.1,0.4,0.2,0.6h-0.9C110.7,30.8,110.7,30.6,110.6,30.4z M110.6,28.4
												c-0.3,0.1-0.8,0.2-1.4,0.3c-0.4,0.1-0.6,0.1-0.8,0.2s-0.3,0.2-0.3,0.3c-0.1,0.1-0.1,0.3-0.1,0.4c0,0.2,0.1,0.4,0.3,0.6
												c0.2,0.2,0.4,0.2,0.8,0.2c0.3,0,0.6-0.1,0.9-0.2c0.3-0.1,0.5-0.4,0.6-0.6c0.1-0.2,0.1-0.5,0.1-0.9V28.4z"/>
											<path class="st0" d="M116.2,31v-0.7c-0.3,0.5-0.8,0.8-1.5,0.8c-0.4,0-0.8-0.1-1.1-0.3c-0.3-0.2-0.6-0.5-0.8-1
												c-0.2-0.4-0.3-0.9-0.3-1.4c0-0.5,0.1-1,0.3-1.4c0.2-0.4,0.4-0.7,0.8-1s0.7-0.3,1.2-0.3c0.3,0,0.6,0.1,0.8,0.2
												c0.2,0.1,0.4,0.3,0.6,0.5v-2.6h0.9V31H116.2z M113.4,28.4c0,0.7,0.1,1.2,0.4,1.5s0.6,0.5,1,0.5c0.4,0,0.7-0.2,1-0.5
												c0.3-0.3,0.4-0.8,0.4-1.4c0-0.7-0.1-1.2-0.4-1.6s-0.6-0.5-1-0.5c-0.4,0-0.7,0.2-1,0.5C113.5,27.2,113.4,27.7,113.4,28.4z
												"/>
											<path class="st0" d="M121.7,31v-0.7c-0.3,0.5-0.8,0.8-1.5,0.8c-0.4,0-0.8-0.1-1.1-0.3c-0.3-0.2-0.6-0.5-0.8-1
												c-0.2-0.4-0.3-0.9-0.3-1.4c0-0.5,0.1-1,0.3-1.4c0.2-0.4,0.4-0.7,0.8-1s0.7-0.3,1.2-0.3c0.3,0,0.6,0.1,0.8,0.2
												c0.2,0.1,0.4,0.3,0.6,0.5v-2.6h0.9V31H121.7z M119,28.4c0,0.7,0.1,1.2,0.4,1.5s0.6,0.5,1,0.5c0.4,0,0.7-0.2,1-0.5
												c0.3-0.3,0.4-0.8,0.4-1.4c0-0.7-0.1-1.2-0.4-1.6s-0.6-0.5-1-0.5c-0.4,0-0.7,0.2-1,0.5C119.1,27.2,119,27.7,119,28.4z"/>
											<path class="st0" d="M130.1,30.4c-0.3,0.3-0.6,0.5-0.9,0.6c-0.3,0.1-0.6,0.2-1,0.2c-0.6,0-1-0.1-1.3-0.4
												c-0.3-0.3-0.5-0.6-0.5-1.1c0-0.3,0.1-0.5,0.2-0.7c0.1-0.2,0.3-0.4,0.5-0.5c0.2-0.1,0.4-0.2,0.6-0.3
												c0.2,0,0.4-0.1,0.8-0.1c0.7-0.1,1.2-0.2,1.6-0.3c0-0.1,0-0.2,0-0.2c0-0.4-0.1-0.6-0.2-0.8c-0.2-0.2-0.6-0.3-1-0.3
												c-0.4,0-0.7,0.1-0.9,0.2c-0.2,0.1-0.3,0.4-0.4,0.8l-0.9-0.1c0.1-0.4,0.2-0.7,0.4-0.9c0.2-0.2,0.4-0.4,0.8-0.5
												c0.3-0.1,0.7-0.2,1.2-0.2c0.4,0,0.8,0.1,1.1,0.2s0.5,0.2,0.6,0.4c0.1,0.2,0.2,0.4,0.3,0.6c0,0.1,0,0.4,0,0.8v1.2
												c0,0.8,0,1.3,0.1,1.5c0,0.2,0.1,0.4,0.2,0.6h-0.9C130.2,30.8,130.1,30.6,130.1,30.4z M130,28.4c-0.3,0.1-0.8,0.2-1.4,0.3
												c-0.4,0.1-0.6,0.1-0.8,0.2s-0.3,0.2-0.3,0.3c-0.1,0.1-0.1,0.3-0.1,0.4c0,0.2,0.1,0.4,0.3,0.6c0.2,0.2,0.4,0.2,0.8,0.2
												c0.3,0,0.6-0.1,0.9-0.2c0.3-0.1,0.5-0.4,0.6-0.6c0.1-0.2,0.1-0.5,0.1-0.9V28.4z"/>
											<path class="st0" d="M135.6,31v-0.7c-0.3,0.5-0.8,0.8-1.5,0.8c-0.4,0-0.8-0.1-1.1-0.3c-0.3-0.2-0.6-0.5-0.8-1
												c-0.2-0.4-0.3-0.9-0.3-1.4c0-0.5,0.1-1,0.3-1.4c0.2-0.4,0.4-0.7,0.8-1s0.7-0.3,1.2-0.3c0.3,0,0.6,0.1,0.8,0.2
												c0.2,0.1,0.4,0.3,0.6,0.5v-2.6h0.9V31H135.6z M132.9,28.4c0,0.7,0.1,1.2,0.4,1.5s0.6,0.5,1,0.5c0.4,0,0.7-0.2,1-0.5
												c0.3-0.3,0.4-0.8,0.4-1.4c0-0.7-0.1-1.2-0.4-1.6s-0.6-0.5-1-0.5c-0.4,0-0.7,0.2-1,0.5C133,27.2,132.9,27.7,132.9,28.4z"
												/>
											<path class="st0" d="M141.2,31v-0.7c-0.3,0.5-0.8,0.8-1.5,0.8c-0.4,0-0.8-0.1-1.1-0.3c-0.3-0.2-0.6-0.5-0.8-1
												c-0.2-0.4-0.3-0.9-0.3-1.4c0-0.5,0.1-1,0.3-1.4c0.2-0.4,0.4-0.7,0.8-1s0.7-0.3,1.2-0.3c0.3,0,0.6,0.1,0.8,0.2
												c0.2,0.1,0.4,0.3,0.6,0.5v-2.6h0.9V31H141.2z M138.4,28.4c0,0.7,0.1,1.2,0.4,1.5s0.6,0.5,1,0.5c0.4,0,0.7-0.2,1-0.5
												c0.3-0.3,0.4-0.8,0.4-1.4c0-0.7-0.1-1.2-0.4-1.6s-0.6-0.5-1-0.5c-0.4,0-0.7,0.2-1,0.5C138.6,27.2,138.4,27.7,138.4,28.4z
												"/>
											<path class="st0" d="M143.4,24.9v-1h0.9v1H143.4z M143.4,31v-5.2h0.9V31H143.4z"/>
											<path class="st0" d="M147.5,30.2l0.1,0.8c-0.2,0.1-0.5,0.1-0.7,0.1c-0.3,0-0.6-0.1-0.7-0.2s-0.3-0.2-0.4-0.4
												c-0.1-0.2-0.1-0.5-0.1-1v-3h-0.6v-0.7h0.6v-1.3l0.9-0.5v1.8h0.9v0.7h-0.9v3c0,0.3,0,0.4,0,0.5c0,0.1,0.1,0.1,0.2,0.2
												c0.1,0,0.2,0.1,0.3,0.1C147.3,30.2,147.4,30.2,147.5,30.2z"/>
											<path class="st0" d="M148.4,24.9v-1h0.9v1H148.4z M148.4,31v-5.2h0.9V31H148.4z"/>
											<path class="st0" d="M150.3,28.4c0-1,0.3-1.7,0.8-2.1c0.4-0.4,1-0.6,1.6-0.6c0.7,0,1.3,0.2,1.7,0.7
												c0.5,0.5,0.7,1.1,0.7,1.9c0,0.7-0.1,1.2-0.3,1.6c-0.2,0.4-0.5,0.7-0.9,0.9c-0.4,0.2-0.8,0.3-1.3,0.3
												c-0.7,0-1.3-0.2-1.8-0.7C150.5,30,150.3,29.3,150.3,28.4z M151.2,28.4c0,0.7,0.1,1.2,0.4,1.5c0.3,0.3,0.7,0.5,1.1,0.5
												c0.4,0,0.8-0.2,1.1-0.5s0.4-0.8,0.4-1.5c0-0.6-0.1-1.1-0.4-1.5c-0.3-0.3-0.7-0.5-1.1-0.5c-0.4,0-0.8,0.2-1.1,0.5
												S151.2,27.7,151.2,28.4z"/>
											<path class="st0" d="M156.2,31v-5.2h0.8v0.7c0.4-0.6,0.9-0.9,1.7-0.9c0.3,0,0.6,0.1,0.9,0.2c0.3,0.1,0.5,0.3,0.6,0.4
												s0.2,0.4,0.3,0.6c0,0.2,0,0.4,0,0.9V31h-0.9v-3.2c0-0.4,0-0.6-0.1-0.8c-0.1-0.2-0.2-0.3-0.4-0.4
												c-0.2-0.1-0.4-0.2-0.6-0.2c-0.4,0-0.7,0.1-1,0.4c-0.3,0.2-0.4,0.7-0.4,1.4V31H156.2z"/>
											<path class="st0" d="M165.1,30.4c-0.3,0.3-0.6,0.5-0.9,0.6c-0.3,0.1-0.6,0.2-1,0.2c-0.6,0-1-0.1-1.3-0.4
												c-0.3-0.3-0.5-0.6-0.5-1.1c0-0.3,0.1-0.5,0.2-0.7c0.1-0.2,0.3-0.4,0.5-0.5c0.2-0.1,0.4-0.2,0.6-0.3
												c0.2,0,0.4-0.1,0.8-0.1c0.7-0.1,1.2-0.2,1.6-0.3c0-0.1,0-0.2,0-0.2c0-0.4-0.1-0.6-0.2-0.8c-0.2-0.2-0.6-0.3-1-0.3
												c-0.4,0-0.7,0.1-0.9,0.2c-0.2,0.1-0.3,0.4-0.4,0.8l-0.9-0.1c0.1-0.4,0.2-0.7,0.4-0.9c0.2-0.2,0.4-0.4,0.8-0.5
												c0.3-0.1,0.7-0.2,1.2-0.2c0.4,0,0.8,0.1,1.1,0.2s0.5,0.2,0.6,0.4c0.1,0.2,0.2,0.4,0.3,0.6c0,0.1,0,0.4,0,0.8v1.2
												c0,0.8,0,1.3,0.1,1.5c0,0.2,0.1,0.4,0.2,0.6h-0.9C165.2,30.8,165.2,30.6,165.1,30.4z M165.1,28.4
												c-0.3,0.1-0.8,0.2-1.4,0.3c-0.4,0.1-0.6,0.1-0.8,0.2s-0.3,0.2-0.3,0.3c-0.1,0.1-0.1,0.3-0.1,0.4c0,0.2,0.1,0.4,0.3,0.6
												c0.2,0.2,0.4,0.2,0.8,0.2c0.3,0,0.6-0.1,0.9-0.2c0.3-0.1,0.5-0.4,0.6-0.6c0.1-0.2,0.1-0.5,0.1-0.9V28.4z"/>
											<path class="st0" d="M167.3,31v-7.2h0.9V31H167.3z"/>
											<path class="st0" d="M170,31v-1h1v1H170z M173.4,31v-1h1v1H173.4z M176.7,31v-1h1v1H176.7z"/>
										</g>
									</g>
								</g>
							</g>
						</g>
					</g>
				</g>
			</g>
		</g>
	</g>
</g>
</svg>
