<svg width="36" height="48" xmlns="http://www.w3.org/2000/svg"><g fill="none" fill-rule="evenodd"><path d="M-6 0h48v48H-6z"/><path d="M34.82 39c-.1.22-.24.42-.41.59l-6.82 6.82c-.17.17-.37.31-.59.41v-4.38c0-1.9 1.54-3.44 3.44-3.44h4.38z" fill="#46BBC4"/><path d="M34.82 38a1 1 0 0 1 .91 1.414c-.149.328-.357.628-.613.883l-6.82 6.82a3.016 3.016 0 0 1-.883.613A1 1 0 0 1 26 46.82v-4.38A4.44 4.44 0 0 1 30.44 38h4.38zm-4.38 2A2.44 2.44 0 0 0 28 42.44v2.146L32.586 40H30.44z" fill="#46BBC4" fill-rule="nonzero"/><path d="M36 11v27.17a3.016 3.016 0 0 1-.883 2.127l-6.82 6.82A3.008 3.008 0 0 1 26.17 48H11c-2.762 0-5-2.238-5-5V11c0-2.762 2.238-5 5-5h20c2.762 0 5 2.238 5 5zm-2 0c0-1.658-1.342-3-3-3H11c-1.658 0-3 1.342-3 3v32c0 1.658 1.342 3 3 3h15.17a1.017 1.017 0 0 0 .713-.297l6.82-6.82c.087-.087.157-.188.209-.302A.968.968 0 0 0 34 38.17V11z" fill="#46BBC4" fill-rule="nonzero"/><path d="M30 34H12a1 1 0 0 0 0 2h18a1 1 0 0 0 0-2z" fill="#A7DFE3" fill-rule="nonzero"/><path d="M14 23v7a2 2 0 0 0 2 2h10a2 2 0 0 0 2-2v-7h2c.89 0 1.337-1.077.707-1.707l-9-9a1 1 0 0 0-1.414 0l-9 9c-.63.63-.184 1.707.707 1.707h2zm13.586-2H27a1 1 0 0 0-1 1v8H16v-8a1 1 0 0 0-1-1h-.586L21 14.414 27.586 21z" fill="#F4BA67" fill-rule="nonzero"/><path fill="#1C7F8A" d="M20 27h2v-4h-2z"/><path d="M20 28h2a1 1 0 0 0 1-1v-4a1 1 0 0 0-1-1h-2a1 1 0 0 0-1 1v4a1 1 0 0 0 1 1z" fill="#1C7F8A" fill-rule="nonzero"/><path d="M3.498 39.593A2.98 2.98 0 0 1 2 37V5c0-1.658 1.342-3 3-3h20a2.98 2.98 0 0 1 2.593 1.498 1 1 0 1 0 1.734-.996A4.98 4.98 0 0 0 25 0H5C2.238 0 0 2.238 0 5v32a4.98 4.98 0 0 0 2.502 4.327 1 1 0 1 0 .996-1.734z" fill="#46BBC4" fill-rule="nonzero"/></g></svg>