<svg width="48" height="42" xmlns="http://www.w3.org/2000/svg"><g fill="none" fill-rule="evenodd"><path d="M0-3h48v48H0z"/><path d="M34 30a1 1 0 0 1-1 1H5a5 5 0 0 1-5-5 1 1 0 0 1 1-1h32a1 1 0 0 1 1 1v4zm-2-1v-2H2.17A3.001 3.001 0 0 0 5 29h27z" fill="#46BBC4" fill-rule="nonzero"/><path d="M5 25V5c0-1.658 1.342-3 3-3h32c1.658 0 3 1.342 3 3v10a1 1 0 0 0 2 0V5c0-2.762-2.238-5-5-5H8C5.238 0 3 2.238 3 5v21a1 1 0 0 0 1 1h29a1 1 0 0 0 0-2H5z" fill="#46BBC4" fill-rule="nonzero"/><path d="M39.5 8h-31a.5.5 0 0 1-.5-.5v-2a.5.5 0 0 1 .5-.5h31a.5.5 0 0 1 .5.5v2a.5.5 0 0 1-.5.5" fill="#46BBC4"/><path d="M39.5 9h-31A1.5 1.5 0 0 1 7 7.5v-2A1.5 1.5 0 0 1 8.5 4h31A1.5 1.5 0 0 1 41 5.5v2A1.5 1.5 0 0 1 39.5 9zM39 7V6H9v1h30z" fill="#46BBC4" fill-rule="nonzero"/><path fill="#46BBC4" d="M37 21h6v-2h-6z"/><path d="M37 22h6a1 1 0 0 0 1-1v-2a1 1 0 0 0-1-1h-6a1 1 0 0 0-1 1v2a1 1 0 0 0 1 1z" fill="#46BBC4" fill-rule="nonzero"/><path d="M37 27h6a1 1 0 0 0 0-2h-6a1 1 0 0 0 0 2zM37 37h6a1 1 0 0 0 0-2h-6a1 1 0 0 0 0 2zM37 32h4a1 1 0 0 0 0-2h-4a1 1 0 0 0 0 2z" fill="#A7DFE3" fill-rule="nonzero"/><path fill="#F4BA67" d="M8 22h8V12H8z"/><path d="M8 23h8a1 1 0 0 0 1-1V12a1 1 0 0 0-1-1H8a1 1 0 0 0-1 1v10a1 1 0 0 0 1 1zm1-2v-8h6v8H9z" fill="#F4BA67" fill-rule="nonzero"/><path d="M20 13h11a1 1 0 0 0 0-2H20a1 1 0 0 0 0 2zM20 23h7a1 1 0 0 0 0-2h-7a1 1 0 0 0 0 2zM20 18h9a1 1 0 0 0 0-2h-9a1 1 0 0 0 0 2z" fill="#A7DFE3" fill-rule="nonzero"/><path d="M44 42h-8a4 4 0 0 1-4-4V18a4 4 0 0 1 4-4h8a4 4 0 0 1 4 4v20a4 4 0 0 1-4 4zm0-2a2 2 0 0 0 2-2V18a2 2 0 0 0-2-2h-8a2 2 0 0 0-2 2v20a2 2 0 0 0 2 2h8z" fill="#46BBC4" fill-rule="nonzero"/></g></svg>