<svg width="48" height="40" xmlns="http://www.w3.org/2000/svg"><g fill="none" fill-rule="evenodd"><path d="M0-5h48v48H0z"/><path d="M25 32H5c-1.658 0-3-1.342-3-3V5c0-1.658 1.342-3 3-3h34c1.658 0 3 1.342 3 3v13a1 1 0 0 0 2 0V5c0-2.762-2.238-5-5-5H5C2.238 0 0 2.238 0 5v24c0 2.762 2.238 5 5 5h20a1 1 0 0 0 0-2z" fill="#46BBC4" fill-rule="nonzero"/><path d="M4.293 5.707l13.57 13.57a5.851 5.851 0 0 0 8.274 0l13.57-13.57a1 1 0 1 0-1.414-1.414l-13.57 13.57a3.851 3.851 0 0 1-5.446 0L5.707 4.293a1 1 0 1 0-1.414 1.414zM13.463 19.123l-9.17 9.17a1 1 0 0 0 1.414 1.414l9.17-9.17a1 1 0 0 0-1.414-1.414z" fill="#A7DFE3" fill-rule="nonzero"/><path d="M36 27a1 1 0 1 1-2 0 1 1 0 0 1 2 0M42 27a1 1 0 1 1-2 0 1 1 0 0 1 2 0" fill="#F57361"/><path d="M48 30c0 5.523-4.477 10-10 10s-10-4.477-10-10 4.477-10 10-10 10 4.477 10 10zm-2 0a8 8 0 0 0-8-8 8 8 0 0 0-8 8 8 8 0 0 0 8 8 8 8 0 0 0 8-8z" fill="#F4BA67" fill-rule="nonzero"/><path d="M34.034 32.257c.103.388.343.898.79 1.405C35.564 34.497 36.628 35 38 35c1.373 0 2.437-.503 3.175-1.338.448-.507.688-1.017.791-1.405a1 1 0 1 0-1.932-.514c-.03.112-.143.352-.358.595-.366.415-.89.662-1.676.662-.786 0-1.31-.247-1.676-.662a1.695 1.695 0 0 1-.358-.595 1 1 0 1 0-1.932.514z" fill="#F57361" fill-rule="nonzero"/></g></svg>