<?xml version="1.0" encoding="utf-8"?>
<!-- Generator: Adobe Illustrator 21.0.0, SVG Export Plug-In . SVG Version: 6.00 Build 0)  -->
<svg version="1.1" id="Слой_1" xmlns="http://www.w3.org/2000/svg" xmlns:xlink="http://www.w3.org/1999/xlink" x="0px" y="0px"
	 viewBox="0 0 242 134" style="enable-background:new 0 0 242 134;" xml:space="preserve">
<style type="text/css">
	.st0{fill:#FFFFFF;}
	.st1{fill:#D3EFF1;}
	.st2{fill:#FFFFFF;stroke:#000000;stroke-opacity:0.12;}
	.st3{fill:#AAAAAA;}
	.st4{enable-background:new    ;}
	.st5{fill:#525252;}
	.st6{fill:#717171;}
	.st7{fill:#46BBC4;}
	.st8{fill:#E9E9E9;}
	.st9{fill:#C63E2B;}
	.st10{fill:#CC5140;}
	.st11{fill:#F57361;}
</style>
<g>
	<rect id="path-1" class="st0" width="242" height="134"/>
</g>
<title>B4A54FA1-6744-4845-AA96-4D093E85901D</title>
<desc>Created with sketchtool.</desc>
<g id="Pricing">
	<g id="Pricing---Core-Features" transform="translate(-373.000000, -1303.000000)">
		<g id="section-3" transform="translate(81.000000, 1194.000000)">
			<g id="list" transform="translate(0.000000, 109.000000)">
				<g id="item" transform="translate(292.000000, 0.000000)">
					<g id="image">
						<g id="listing-rental">
							<g id="mask">
								<rect id="path-1_1_" class="st1" width="242" height="134"/>
							</g>
							<g id="design">
								<g transform="translate(39.000000, 23.000000)">
									<g id="box">
										<g>
											<path id="path-3_1_" d="M2,4h160c1.1,0,2,0.9,2,2v106l0,0H0V6C0,4.9,0.9,4,2,4z"/>
										</g>
										<path class="st2" d="M2,3.5h160c1.4,0,2.5,1.1,2.5,2.5v106.5h-165V6C-0.5,4.6,0.6,3.5,2,3.5z"/>
									</g>
									<g id="icon-_x2F_-16x16-_x2F_-location" transform="translate(8.000000, 14.000000)">
										<g id="Color" transform="translate(2.000000, 0.000000)">
											<path class="st3" d="M8,6c0,1.1-0.9,2-2,2S4,7.1,4,6s0.9-2,2-2S8,4.9,8,6 M6,13.5c-1.5-1.7-4-5-4-7.5c0-2.2,1.8-4,4-4
												s4,1.8,4,4C10,8.5,7.5,11.8,6,13.5 M6,0C2.7,0,0,2.7,0,6c0,4.4,5.1,9.5,5.3,9.7C5.5,15.9,5.7,16,6,16s0.5-0.1,0.7-0.3
												C6.9,15.5,12,10.4,12,6C12,2.7,9.3,0,6,0"/>
										</g>
									</g>
									<g class="st4">
										<g class="st4">
											<path class="st5" d="M31.7,25h-0.9v-5.6c-0.2,0.2-0.5,0.4-0.8,0.6s-0.7,0.4-0.9,0.5v-0.8c0.5-0.2,0.9-0.5,1.3-0.8
												s0.6-0.6,0.8-1h0.6V25z"/>
											<path class="st5" d="M34,23.1l0.9-0.1c0.1,0.4,0.2,0.8,0.5,1c0.2,0.2,0.5,0.3,0.9,0.3c0.4,0,0.8-0.2,1.1-0.5
												s0.4-0.7,0.4-1.3c0-0.5-0.1-0.9-0.4-1.2S36.7,21,36.3,21c-0.3,0-0.5,0.1-0.8,0.2c-0.2,0.1-0.4,0.3-0.5,0.5l-0.8-0.1
												l0.7-3.7h3.6v0.8h-2.9l-0.4,1.9c0.4-0.3,0.9-0.4,1.4-0.4c0.6,0,1.2,0.2,1.6,0.6s0.6,1,0.6,1.7c0,0.6-0.2,1.2-0.6,1.7
												c-0.5,0.6-1.1,0.9-1.9,0.9c-0.7,0-1.2-0.2-1.6-0.5S34,23.7,34,23.1z"/>
											<path class="st5" d="M44.2,24.2V25h-4.7c0-0.2,0-0.4,0.1-0.6c0.1-0.3,0.3-0.6,0.6-1s0.6-0.7,1.1-1.1
												c0.8-0.6,1.3-1.1,1.6-1.5c0.3-0.4,0.4-0.7,0.4-1.1c0-0.3-0.1-0.6-0.4-0.9c-0.2-0.2-0.6-0.4-1-0.4c-0.4,0-0.8,0.1-1,0.4
												s-0.4,0.6-0.4,1.1l-0.9-0.1c0.1-0.7,0.3-1.2,0.7-1.5c0.4-0.4,0.9-0.5,1.6-0.5c0.7,0,1.2,0.2,1.6,0.6s0.6,0.9,0.6,1.4
												c0,0.3-0.1,0.6-0.2,0.8s-0.3,0.6-0.6,0.9s-0.7,0.7-1.4,1.3c-0.5,0.4-0.9,0.7-1,0.9c-0.1,0.2-0.3,0.3-0.4,0.5H44.2z"/>
											<path class="st5" d="M49.7,19.6l-0.9,0.1c-0.1-0.3-0.2-0.6-0.3-0.8c-0.2-0.3-0.5-0.4-0.9-0.4c-0.3,0-0.5,0.1-0.7,0.2
												c-0.3,0.2-0.5,0.5-0.7,0.9s-0.2,0.9-0.2,1.7c0.2-0.3,0.5-0.6,0.8-0.7s0.6-0.2,1-0.2c0.6,0,1.1,0.2,1.5,0.6
												c0.4,0.4,0.6,1,0.6,1.7c0,0.4-0.1,0.9-0.3,1.3c-0.2,0.4-0.5,0.7-0.8,0.9s-0.7,0.3-1.2,0.3c-0.7,0-1.3-0.3-1.8-0.8
												c-0.5-0.5-0.7-1.4-0.7-2.7c0-1.4,0.3-2.4,0.8-3c0.4-0.5,1-0.8,1.8-0.8c0.6,0,1,0.2,1.4,0.5S49.6,19,49.7,19.6z
												 M46.1,22.7c0,0.3,0.1,0.6,0.2,0.9s0.3,0.5,0.5,0.6c0.2,0.1,0.5,0.2,0.7,0.2c0.4,0,0.7-0.1,1-0.4s0.4-0.7,0.4-1.2
												c0-0.5-0.1-0.9-0.4-1.2c-0.3-0.3-0.6-0.4-1-0.4c-0.4,0-0.7,0.1-1,0.4C46.2,21.8,46.1,22.2,46.1,22.7z"/>
											<path class="st5" d="M53.8,25v-7.2h2.5c0.6,0,1,0,1.3,0.1c0.4,0.1,0.8,0.3,1,0.5c0.4,0.3,0.7,0.7,0.8,1.2
												c0.2,0.5,0.3,1.1,0.3,1.7c0,0.5-0.1,1-0.2,1.4s-0.3,0.8-0.5,1c-0.2,0.3-0.4,0.5-0.7,0.7c-0.2,0.2-0.5,0.3-0.9,0.4
												S56.8,25,56.4,25H53.8z M54.7,24.2h1.5c0.5,0,0.8,0,1.1-0.1s0.5-0.2,0.6-0.4c0.2-0.2,0.4-0.5,0.5-0.9
												c0.1-0.4,0.2-0.8,0.2-1.4c0-0.7-0.1-1.3-0.4-1.7c-0.2-0.4-0.5-0.7-0.9-0.8c-0.3-0.1-0.7-0.1-1.2-0.1h-1.5V24.2z"/>
											<path class="st5" d="M64.3,24.4c-0.3,0.3-0.6,0.5-0.9,0.6s-0.6,0.2-1,0.2c-0.6,0-1-0.1-1.3-0.4c-0.3-0.3-0.5-0.6-0.5-1.1
												c0-0.3,0.1-0.5,0.2-0.7c0.1-0.2,0.3-0.4,0.5-0.5s0.4-0.2,0.6-0.3c0.2,0,0.4-0.1,0.8-0.1c0.7-0.1,1.2-0.2,1.6-0.3
												c0-0.1,0-0.2,0-0.2c0-0.4-0.1-0.6-0.2-0.8c-0.2-0.2-0.6-0.3-1-0.3c-0.4,0-0.7,0.1-0.9,0.2c-0.2,0.1-0.3,0.4-0.4,0.8
												l-0.9-0.1c0.1-0.4,0.2-0.7,0.4-0.9c0.2-0.2,0.4-0.4,0.8-0.5c0.3-0.1,0.7-0.2,1.2-0.2c0.4,0,0.8,0.1,1.1,0.2
												s0.5,0.2,0.6,0.4c0.1,0.2,0.2,0.4,0.3,0.6c0,0.1,0,0.4,0,0.8v1.2c0,0.8,0,1.3,0.1,1.5c0,0.2,0.1,0.4,0.2,0.6h-0.9
												C64.4,24.8,64.3,24.6,64.3,24.4z M64.2,22.4c-0.3,0.1-0.8,0.2-1.4,0.3c-0.4,0.1-0.6,0.1-0.8,0.2s-0.3,0.2-0.3,0.3
												c-0.1,0.1-0.1,0.3-0.1,0.4c0,0.2,0.1,0.4,0.3,0.6s0.4,0.2,0.8,0.2c0.3,0,0.6-0.1,0.9-0.2c0.3-0.1,0.5-0.4,0.6-0.6
												c0.1-0.2,0.1-0.5,0.1-0.9V22.4z"/>
											<path class="st5" d="M66.4,25v-7.2h0.9V25H66.4z"/>
											<path class="st5" d="M72.2,23.3l0.9,0.1c-0.1,0.5-0.4,0.9-0.8,1.2s-0.9,0.4-1.5,0.4c-0.8,0-1.4-0.2-1.8-0.7
												c-0.4-0.5-0.7-1.1-0.7-2c0-0.9,0.2-1.5,0.7-2s1-0.7,1.7-0.7c0.7,0,1.3,0.2,1.7,0.7s0.7,1.1,0.7,2c0,0.1,0,0.1,0,0.2h-3.9
												c0,0.6,0.2,1,0.5,1.3s0.7,0.5,1.1,0.5c0.3,0,0.6-0.1,0.8-0.3S72.1,23.7,72.2,23.3z M69.4,21.9h2.9c0-0.4-0.1-0.8-0.3-1
												c-0.3-0.3-0.6-0.5-1.1-0.5c-0.4,0-0.7,0.1-1,0.4S69.4,21.5,69.4,21.9z"/>
											<path class="st5" d="M75.8,25l2.7-7.2h1l2.9,7.2h-1.1l-0.8-2.2h-3L76.8,25H75.8z M77.9,22.1h2.4l-0.7-2
												c-0.2-0.6-0.4-1.1-0.5-1.5c-0.1,0.5-0.2,0.9-0.4,1.4L77.9,22.1z"/>
											<path class="st5" d="M84.4,25l-2-5.2h0.9l1.1,3.1c0.1,0.3,0.2,0.7,0.3,1c0.1-0.3,0.2-0.6,0.3-1l1.2-3.2h0.9l-2,5.2H84.4z
												"/>
											<path class="st5" d="M91.5,23.3l0.9,0.1c-0.1,0.5-0.4,0.9-0.8,1.2s-0.9,0.4-1.5,0.4c-0.8,0-1.4-0.2-1.8-0.7
												c-0.4-0.5-0.7-1.1-0.7-2c0-0.9,0.2-1.5,0.7-2s1-0.7,1.7-0.7c0.7,0,1.3,0.2,1.7,0.7s0.7,1.1,0.7,2c0,0.1,0,0.1,0,0.2h-3.9
												c0,0.6,0.2,1,0.5,1.3s0.7,0.5,1.1,0.5c0.3,0,0.6-0.1,0.8-0.3S91.4,23.7,91.5,23.3z M88.6,21.9h2.9c0-0.4-0.2-0.8-0.3-1
												c-0.3-0.3-0.6-0.5-1.1-0.5c-0.4,0-0.7,0.1-1,0.4C88.8,21.1,88.7,21.5,88.6,21.9z"/>
											<path class="st5" d="M93.5,25v-5.2h0.8v0.7c0.4-0.6,0.9-0.9,1.7-0.9c0.3,0,0.6,0.1,0.9,0.2c0.3,0.1,0.5,0.3,0.6,0.4
												s0.2,0.4,0.3,0.6c0,0.2,0,0.4,0,0.9V25h-0.9v-3.2c0-0.4,0-0.6-0.1-0.8c-0.1-0.2-0.2-0.3-0.4-0.4
												c-0.2-0.1-0.4-0.2-0.6-0.2c-0.4,0-0.7,0.1-1,0.4c-0.3,0.2-0.4,0.7-0.4,1.4V25H93.5z"/>
											<path class="st5" d="M102.5,25v-0.8c-0.4,0.6-1,0.9-1.6,0.9c-0.3,0-0.6-0.1-0.9-0.2c-0.3-0.1-0.5-0.3-0.6-0.4
												c-0.1-0.2-0.2-0.4-0.3-0.7c0-0.2-0.1-0.4-0.1-0.8v-3.2h0.9v2.9c0,0.5,0,0.8,0.1,0.9c0.1,0.2,0.2,0.4,0.4,0.5
												c0.2,0.1,0.4,0.2,0.7,0.2s0.5-0.1,0.7-0.2c0.2-0.1,0.4-0.3,0.5-0.6c0.1-0.2,0.1-0.6,0.1-1v-2.8h0.9V25H102.5z"/>
											<path class="st5" d="M108.2,23.3l0.9,0.1c-0.1,0.5-0.4,0.9-0.8,1.2s-0.9,0.4-1.5,0.4c-0.8,0-1.4-0.2-1.8-0.7
												c-0.4-0.5-0.7-1.1-0.7-2c0-0.9,0.2-1.5,0.7-2s1-0.7,1.7-0.7c0.7,0,1.3,0.2,1.7,0.7s0.7,1.1,0.7,2c0,0.1,0,0.1,0,0.2h-3.9
												c0,0.6,0.2,1,0.5,1.3s0.7,0.5,1.1,0.5c0.3,0,0.6-0.1,0.8-0.3S108.1,23.7,108.2,23.3z M105.3,21.9h2.9
												c0-0.4-0.1-0.8-0.3-1c-0.3-0.3-0.6-0.5-1.1-0.5c-0.4,0-0.7,0.1-1,0.4C105.5,21.1,105.3,21.5,105.3,21.9z"/>
										</g>
									</g>
									<g class="st4">
										<g class="st4">
											<path class="st6" d="M28.4,36.7l0.9-0.1c0,0.4,0.1,0.7,0.3,0.9c0.2,0.2,0.4,0.4,0.7,0.6c0.3,0.1,0.7,0.2,1.1,0.2
												c0.4,0,0.7-0.1,1-0.2s0.5-0.3,0.6-0.4c0.1-0.2,0.2-0.4,0.2-0.6c0-0.2-0.1-0.4-0.2-0.6c-0.1-0.2-0.3-0.3-0.6-0.4
												c-0.2-0.1-0.6-0.2-1.3-0.3c-0.7-0.2-1.1-0.3-1.4-0.4c-0.3-0.2-0.6-0.4-0.8-0.7c-0.2-0.3-0.3-0.6-0.3-0.9
												c0-0.4,0.1-0.7,0.3-1c0.2-0.3,0.5-0.6,0.9-0.7s0.8-0.2,1.3-0.2c0.5,0,1,0.1,1.4,0.3c0.4,0.2,0.7,0.4,0.9,0.8
												s0.3,0.7,0.4,1.1L33,33.9c0-0.5-0.2-0.8-0.5-1s-0.7-0.3-1.2-0.3c-0.6,0-1,0.1-1.3,0.3c-0.3,0.2-0.4,0.5-0.4,0.8
												c0,0.3,0.1,0.5,0.3,0.6c0.2,0.2,0.7,0.3,1.4,0.5c0.8,0.2,1.3,0.3,1.6,0.5c0.4,0.2,0.7,0.4,0.9,0.7c0.2,0.3,0.3,0.6,0.3,1
												c0,0.4-0.1,0.7-0.3,1.1c-0.2,0.3-0.5,0.6-0.9,0.8c-0.4,0.2-0.9,0.3-1.4,0.3c-0.6,0-1.2-0.1-1.6-0.3s-0.8-0.5-1-0.9
												C28.6,37.6,28.5,37.2,28.4,36.7z"/>
											<path class="st6" d="M38.9,37.3l0.9,0.1c-0.1,0.5-0.4,0.9-0.8,1.2s-0.9,0.4-1.5,0.4c-0.8,0-1.4-0.2-1.8-0.7
												c-0.4-0.5-0.7-1.1-0.7-2c0-0.9,0.2-1.5,0.7-2s1-0.7,1.7-0.7c0.7,0,1.3,0.2,1.7,0.7s0.7,1.1,0.7,2c0,0.1,0,0.1,0,0.2h-3.9
												c0,0.6,0.2,1,0.5,1.3s0.7,0.5,1.1,0.5c0.3,0,0.6-0.1,0.8-0.3S38.7,37.7,38.9,37.3z M36,35.9h2.9c0-0.4-0.1-0.8-0.3-1
												c-0.3-0.3-0.6-0.5-1.1-0.5c-0.4,0-0.7,0.1-1,0.4S36,35.5,36,35.9z"/>
											<path class="st6" d="M44.3,38.4c-0.3,0.3-0.6,0.5-0.9,0.6s-0.6,0.2-1,0.2c-0.6,0-1-0.1-1.3-0.4c-0.3-0.3-0.5-0.6-0.5-1.1
												c0-0.3,0.1-0.5,0.2-0.7c0.1-0.2,0.3-0.4,0.5-0.5s0.4-0.2,0.6-0.3c0.2,0,0.4-0.1,0.8-0.1c0.7-0.1,1.2-0.2,1.6-0.3
												c0-0.1,0-0.2,0-0.2c0-0.4-0.1-0.6-0.2-0.8c-0.2-0.2-0.6-0.3-1-0.3c-0.4,0-0.7,0.1-0.9,0.2c-0.2,0.1-0.3,0.4-0.4,0.8
												l-0.9-0.1c0.1-0.4,0.2-0.7,0.4-0.9c0.2-0.2,0.4-0.4,0.8-0.5c0.3-0.1,0.7-0.2,1.2-0.2c0.4,0,0.8,0.1,1.1,0.2
												s0.5,0.2,0.6,0.4c0.1,0.2,0.2,0.4,0.3,0.6c0,0.1,0,0.4,0,0.8v1.2c0,0.8,0,1.3,0.1,1.5c0,0.2,0.1,0.4,0.2,0.6h-0.9
												C44.4,38.8,44.3,38.6,44.3,38.4z M44.2,36.4c-0.3,0.1-0.8,0.2-1.4,0.3c-0.4,0.1-0.6,0.1-0.8,0.2s-0.3,0.2-0.3,0.3
												c-0.1,0.1-0.1,0.3-0.1,0.4c0,0.2,0.1,0.4,0.3,0.6s0.4,0.2,0.8,0.2c0.3,0,0.6-0.1,0.9-0.2c0.3-0.1,0.5-0.4,0.6-0.6
												c0.1-0.2,0.1-0.5,0.1-0.9V36.4z"/>
											<path class="st6" d="M48.4,38.2l0.1,0.8c-0.2,0.1-0.5,0.1-0.7,0.1c-0.3,0-0.6-0.1-0.7-0.2s-0.3-0.2-0.4-0.4
												c-0.1-0.2-0.1-0.5-0.1-1v-3H46v-0.7h0.6v-1.3l0.9-0.5v1.8h0.9v0.7h-0.9v3c0,0.3,0,0.4,0,0.5s0.1,0.1,0.2,0.2
												s0.2,0.1,0.3,0.1C48.1,38.2,48.2,38.2,48.4,38.2z"/>
											<path class="st6" d="M51.1,38.2l0.1,0.8c-0.2,0.1-0.5,0.1-0.7,0.1c-0.3,0-0.6-0.1-0.7-0.2s-0.3-0.2-0.4-0.4
												c-0.1-0.2-0.1-0.5-0.1-1v-3h-0.6v-0.7h0.6v-1.3l0.9-0.5v1.8h0.9v0.7h-0.9v3c0,0.3,0,0.4,0,0.5s0.1,0.1,0.2,0.2
												s0.2,0.1,0.3,0.1C50.9,38.2,51,38.2,51.1,38.2z"/>
											<path class="st6" d="M52,39v-7.2h0.9V39H52z"/>
											<path class="st6" d="M57.8,37.3l0.9,0.1c-0.1,0.5-0.4,0.9-0.8,1.2s-0.9,0.4-1.5,0.4c-0.8,0-1.4-0.2-1.8-0.7
												c-0.4-0.5-0.7-1.1-0.7-2c0-0.9,0.2-1.5,0.7-2s1-0.7,1.7-0.7c0.7,0,1.3,0.2,1.7,0.7s0.7,1.1,0.7,2c0,0.1,0,0.1,0,0.2h-3.9
												c0,0.6,0.2,1,0.5,1.3s0.7,0.5,1.1,0.5c0.3,0,0.6-0.1,0.8-0.3S57.6,37.7,57.8,37.3z M54.9,35.9h2.9c0-0.4-0.1-0.8-0.3-1
												c-0.3-0.3-0.6-0.5-1.1-0.5c-0.4,0-0.7,0.1-1,0.4S54.9,35.5,54.9,35.9z"/>
											<path class="st6" d="M60,39v-1h1v1c0,0.4-0.1,0.7-0.2,0.9c-0.1,0.2-0.3,0.4-0.6,0.5L60,40c0.2-0.1,0.3-0.2,0.4-0.4
												c0.1-0.2,0.1-0.4,0.1-0.7H60z"/>
											<path class="st6" d="M66.7,39l-1.9-7.2h1l1.1,4.7c0.1,0.5,0.2,1,0.3,1.5c0.2-0.8,0.3-1.2,0.3-1.3l1.4-4.8H70l1,3.6
												c0.3,0.9,0.4,1.7,0.6,2.5c0.1-0.5,0.2-1,0.4-1.6l1.1-4.6h1l-2,7.2h-0.9l-1.5-5.5c-0.1-0.5-0.2-0.7-0.2-0.8
												c-0.1,0.3-0.1,0.6-0.2,0.8L67.7,39H66.7z"/>
											<path class="st6" d="M73.7,39l2.7-7.2h1l2.9,7.2h-1.1l-0.8-2.2h-3L74.7,39H73.7z M75.8,36.1h2.4l-0.7-2
												c-0.2-0.6-0.4-1.1-0.5-1.5c-0.1,0.5-0.2,0.9-0.4,1.4L75.8,36.1z"/>
										</g>
									</g>
									<path id="Rectangle" class="st7" d="M30,47h39c1.1,0,2,0.9,2,2v11c0,1.1-0.9,2-2,2H30c-1.1,0-2-0.9-2-2V49
										C28,47.9,28.9,47,30,47z"/>
									<g class="st4">
										<g class="st4">
											<path class="st0" d="M35.5,59v-0.9c-0.4-0.1-0.8-0.2-1.1-0.3c-0.3-0.1-0.5-0.4-0.7-0.7s-0.3-0.7-0.3-1.2l0.9-0.2
												c0.1,0.5,0.2,0.8,0.4,1c0.2,0.3,0.5,0.5,0.9,0.5v-2.8c-0.4-0.1-0.7-0.2-1.1-0.4c-0.3-0.2-0.5-0.4-0.6-0.6
												s-0.2-0.6-0.2-0.9c0-0.6,0.2-1.1,0.7-1.5c0.3-0.3,0.7-0.4,1.3-0.5v-0.4H36v0.4c0.5,0,0.9,0.2,1.2,0.4
												c0.4,0.3,0.6,0.8,0.7,1.3L37,52.5c-0.1-0.3-0.2-0.6-0.3-0.8c-0.2-0.2-0.4-0.3-0.7-0.4v2.5c0.4,0.1,0.7,0.2,0.9,0.3
												c0.3,0.1,0.5,0.3,0.7,0.4s0.3,0.4,0.4,0.6s0.1,0.5,0.1,0.8c0,0.6-0.2,1.1-0.6,1.5s-0.9,0.6-1.5,0.7V59H35.5z M35.5,51.3
												c-0.3,0.1-0.6,0.2-0.8,0.4s-0.3,0.5-0.3,0.8c0,0.3,0.1,0.5,0.3,0.8s0.5,0.4,0.9,0.5V51.3z M36,57.4
												c0.3,0,0.6-0.2,0.8-0.4s0.3-0.6,0.3-0.9c0-0.3-0.1-0.6-0.2-0.8c-0.2-0.2-0.5-0.4-0.9-0.5V57.4z"/>
											<path class="st0" d="M42.3,58h-0.9v-5.6c-0.2,0.2-0.5,0.4-0.8,0.6s-0.7,0.4-0.9,0.5v-0.8c0.5-0.2,0.9-0.5,1.3-0.8
												s0.6-0.6,0.8-1h0.6V58z"/>
											<path class="st0" d="M45,58v-1h1v1c0,0.4-0.1,0.7-0.2,0.9c-0.1,0.2-0.3,0.4-0.6,0.5L45,59c0.2-0.1,0.3-0.2,0.4-0.4
												c0.1-0.2,0.1-0.4,0.1-0.7H45z"/>
											<path class="st0" d="M47.4,56.3l0.8-0.1c0.1,0.4,0.2,0.7,0.4,0.9s0.5,0.3,0.8,0.3c0.3,0,0.5-0.1,0.7-0.2s0.4-0.3,0.5-0.5
												c0.1-0.2,0.2-0.5,0.3-0.8s0.1-0.7,0.1-1.1c0,0,0-0.1,0-0.2c-0.2,0.3-0.4,0.5-0.7,0.7c-0.3,0.2-0.6,0.3-1,0.3
												c-0.6,0-1.1-0.2-1.5-0.6s-0.6-1-0.6-1.7c0-0.7,0.2-1.3,0.6-1.8s1-0.7,1.6-0.7c0.5,0,0.9,0.1,1.3,0.4s0.7,0.6,0.9,1.1
												c0.2,0.5,0.3,1.1,0.3,2c0,0.9-0.1,1.6-0.3,2.2c-0.2,0.5-0.5,1-0.9,1.2s-0.9,0.4-1.4,0.4c-0.6,0-1-0.2-1.4-0.5
												C47.7,57.3,47.5,56.9,47.4,56.3z M51,53.2c0-0.5-0.1-0.9-0.4-1.2s-0.6-0.4-1-0.4c-0.4,0-0.7,0.2-1,0.5s-0.4,0.7-0.4,1.2
												c0,0.5,0.1,0.8,0.4,1.1c0.3,0.3,0.6,0.4,1,0.4c0.4,0,0.7-0.1,1-0.4C50.9,54.1,51,53.7,51,53.2z"/>
											<path class="st0" d="M57.4,52.6l-0.9,0.1c-0.1-0.3-0.2-0.6-0.3-0.8c-0.2-0.3-0.5-0.4-0.9-0.4c-0.3,0-0.5,0.1-0.7,0.2
												c-0.3,0.2-0.5,0.5-0.7,0.9s-0.2,0.9-0.2,1.7c0.2-0.3,0.5-0.6,0.8-0.7s0.6-0.2,1-0.2c0.6,0,1.1,0.2,1.5,0.6
												c0.4,0.4,0.6,1,0.6,1.7c0,0.4-0.1,0.9-0.3,1.3c-0.2,0.4-0.5,0.7-0.8,0.9s-0.7,0.3-1.2,0.3c-0.7,0-1.3-0.3-1.8-0.8
												c-0.5-0.5-0.7-1.4-0.7-2.7c0-1.4,0.3-2.4,0.8-3c0.4-0.5,1-0.8,1.8-0.8c0.6,0,1,0.2,1.4,0.5S57.4,52,57.4,52.6z
												 M53.8,55.7c0,0.3,0.1,0.6,0.2,0.9s0.3,0.5,0.5,0.6c0.2,0.1,0.5,0.2,0.7,0.2c0.4,0,0.7-0.1,1-0.4s0.4-0.7,0.4-1.2
												c0-0.5-0.1-0.9-0.4-1.2c-0.3-0.3-0.6-0.4-1-0.4c-0.4,0-0.7,0.1-1,0.4C54,54.8,53.8,55.2,53.8,55.7z"/>
											<path class="st0" d="M59.8,54.1c-0.4-0.1-0.6-0.3-0.8-0.6s-0.3-0.5-0.3-0.9c0-0.5,0.2-1,0.6-1.3s0.9-0.5,1.5-0.5
												c0.6,0,1.1,0.2,1.5,0.5c0.4,0.4,0.6,0.8,0.6,1.3c0,0.3-0.1,0.6-0.3,0.9c-0.2,0.2-0.4,0.4-0.8,0.6c0.4,0.1,0.8,0.4,1,0.7
												s0.3,0.7,0.3,1.1c0,0.6-0.2,1.1-0.6,1.5s-1,0.6-1.7,0.6s-1.3-0.2-1.7-0.6c-0.4-0.4-0.6-0.9-0.6-1.6
												c0-0.5,0.1-0.9,0.4-1.2C59,54.4,59.4,54.2,59.8,54.1z M59.3,55.9c0,0.3,0.1,0.5,0.2,0.7s0.3,0.4,0.5,0.5
												c0.2,0.1,0.5,0.2,0.8,0.2c0.4,0,0.8-0.1,1-0.4s0.4-0.6,0.4-1c0-0.4-0.1-0.8-0.4-1s-0.6-0.4-1.1-0.4c-0.4,0-0.8,0.1-1,0.4
												S59.3,55.5,59.3,55.9z M59.6,52.6c0,0.3,0.1,0.6,0.3,0.8s0.5,0.3,0.8,0.3c0.3,0,0.6-0.1,0.8-0.3c0.2-0.2,0.3-0.5,0.3-0.8
												c0-0.3-0.1-0.6-0.3-0.8c-0.2-0.2-0.5-0.3-0.8-0.3c-0.3,0-0.6,0.1-0.8,0.3S59.6,52.3,59.6,52.6z"/>
										</g>
									</g>
									<rect id="Rectangle_1_" x="8" y="71" class="st8" width="148" height="1"/>
									<g id="icon-_x2F_-16x16-_x2F_-unit-room" transform="translate(8.000000, 84.000000)">
										<g id="Color_1_" transform="translate(0.000000, 1.016595)">
											<path class="st3" d="M15,6.3v-3c0-0.5-0.2-1-0.6-1.4C13.7,1.2,12,0,8,0S2.3,1.2,1.6,1.9C1.2,2.3,1,2.8,1,3.3v2.9
												C0.4,6.6,0,7.3,0,8v3c0,0.6,0.4,1,1,1v1c0,0.6,0.4,1,1,1s1-0.4,1-1v-1h10v1c0,0.6,0.4,1,1,1s1-0.4,1-1v-1
												c0.6,0,1-0.4,1-1V8C16,7.3,15.6,6.6,15,6.3z M2,10V8h12v2H2z M3,3.3C3.4,2.9,4.7,2,8,2s4.6,0.9,5,1.3V6h-2V5.5
												C11,5.2,10.8,5,10.5,5h-1C9.2,5,9,5.2,9,5.5V6H7V5.5C7,5.2,6.8,5,6.5,5h-1C5.2,5,5,5.2,5,5.5V6H3V3.3z"/>
										</g>
									</g>
									<g class="st4">
										<g class="st4">
											<path class="st6" d="M30.4,93.1l0.9-0.1c0.1,0.5,0.3,0.9,0.5,1.1c0.2,0.2,0.5,0.3,0.9,0.3c0.4,0,0.8-0.1,1-0.4
												s0.4-0.6,0.4-1.1c0-0.4-0.1-0.7-0.4-1c-0.3-0.3-0.6-0.4-1-0.4c-0.2,0-0.4,0-0.6,0.1l0.1-0.8c0.1,0,0.1,0,0.1,0
												c0.4,0,0.7-0.1,1-0.3s0.4-0.5,0.4-0.9c0-0.3-0.1-0.6-0.3-0.8s-0.5-0.3-0.8-0.3c-0.3,0-0.6,0.1-0.9,0.3s-0.4,0.5-0.4,1
												l-0.9-0.2c0.1-0.6,0.4-1,0.7-1.4c0.4-0.3,0.9-0.5,1.4-0.5c0.4,0,0.8,0.1,1.1,0.3c0.3,0.2,0.6,0.4,0.8,0.7
												s0.3,0.6,0.3,0.9c0,0.3-0.1,0.6-0.2,0.8s-0.4,0.5-0.7,0.6c0.4,0.1,0.8,0.3,1,0.6c0.2,0.3,0.4,0.7,0.4,1.2
												c0,0.6-0.2,1.2-0.7,1.6c-0.5,0.4-1,0.7-1.7,0.7c-0.6,0-1.1-0.2-1.6-0.6S30.5,93.7,30.4,93.1z"/>
										</g>
									</g>
									<path id="Fill-1" class="st3" d="M64,97h-4c-1.9,0-3.4-1.3-3.9-3h11.7C67.4,95.7,65.9,97,64,97 M70,93c0-0.6-0.4-1-1-1h-1
										v-4c0-2.2-1.8-4-4-4c-1.3,0-2.5,0.6-3.2,1.6c-1,0.3-1.8,1.3-1.8,2.4c0,0.6,0.4,1,1,1h3c0.6,0,1-0.4,1-1
										c0-0.7-0.3-1.4-0.8-1.8c0.2-0.1,0.5-0.2,0.8-0.2c1.1,0,2,0.9,2,2v4H55c-0.6,0-1,0.4-1,1c0,2,1,3.7,2.5,4.8l-0.4,0.7
										c-0.2,0.5,0,1.1,0.5,1.3c0.1,0.1,0.3,0.1,0.4,0.1c0.4,0,0.7-0.2,0.9-0.6l0.4-0.7c0.6,0.2,1.1,0.3,1.8,0.3h4
										c0.6,0,1.2-0.1,1.8-0.3l0.4,0.7c0.2,0.4,0.5,0.6,0.9,0.6c0.1,0,0.3,0,0.4-0.1c0.5-0.2,0.7-0.8,0.5-1.3l-0.4-0.7
										C69,96.7,70,95,70,93"/>
									<g class="st4">
										<g class="st4">
											<path class="st6" d="M79.7,95h-0.9v-5.6c-0.2,0.2-0.5,0.4-0.8,0.6s-0.7,0.4-0.9,0.5v-0.8c0.5-0.2,0.9-0.5,1.3-0.8
												s0.6-0.6,0.8-1h0.6V95z"/>
										</g>
									</g>
									<path id="Fill-1_1_" class="st3" d="M113,94c0,0.6-0.4,1-1,1s-1-0.4-1-1s0.4-1,1-1S113,93.4,113,94L113,94z M105,94
										c0,0.6-0.4,1-1,1s-1-0.4-1-1s0.4-1,1-1S105,93.4,105,94L105,94z M104.5,86.5c2.2-0.7,4.7-0.7,7,0c0.4,0.1,0.6,0.4,0.7,0.8
										l0.3,2.3c-1.2,0.2-2.7,0.4-4.5,0.4s-3.3-0.2-4.5-0.4l0.3-2.3C103.9,86.9,104.1,86.6,104.5,86.5L104.5,86.5z M103,96h-1
										v-4.7c1.4,0.3,3.5,0.7,6,0.7s4.7-0.4,6-0.7l0,0V96h-1H103z M115.2,89.7c-0.2-0.2-0.5-0.3-0.8-0.4l-0.3-2.3
										c-0.2-1.2-1-2.1-2.1-2.4c-2.6-0.8-5.5-0.8-8.1,0c-1.1,0.3-1.9,1.3-2.1,2.4l-0.3,2.3c-0.3,0.1-0.5,0.2-0.8,0.4
										c-0.5,0.4-0.8,1-0.8,1.6V96c0,0.7,0.4,1.4,1,1.7v0.8c0,0.8,0.7,1.5,1.5,1.5s1.5-0.7,1.5-1.5V98h8v0.5
										c0,0.8,0.7,1.5,1.5,1.5s1.5-0.7,1.5-1.5v-0.8c0.6-0.3,1-1,1-1.7v-4.7C116,90.7,115.7,90.1,115.2,89.7L115.2,89.7z"/>
									<g class="st4">
										<g class="st4">
											<path class="st6" d="M127,94.2V95h-4.7c0-0.2,0-0.4,0.1-0.6c0.1-0.3,0.3-0.6,0.6-1c0.3-0.3,0.6-0.7,1.1-1.1
												c0.8-0.6,1.3-1.1,1.6-1.5c0.3-0.4,0.4-0.7,0.4-1.1c0-0.3-0.1-0.6-0.4-0.9c-0.3-0.2-0.6-0.4-1-0.4c-0.4,0-0.8,0.1-1,0.4
												s-0.4,0.6-0.4,1.1l-0.9-0.1c0.1-0.7,0.3-1.2,0.7-1.5c0.4-0.4,0.9-0.5,1.6-0.5c0.7,0,1.2,0.2,1.6,0.6s0.6,0.9,0.6,1.4
												c0,0.3-0.1,0.6-0.2,0.8s-0.3,0.6-0.6,0.9c-0.3,0.3-0.7,0.7-1.4,1.3c-0.5,0.4-0.9,0.7-1,0.9c-0.2,0.2-0.3,0.3-0.4,0.5H127
												z"/>
										</g>
									</g>
									<g id="badge" transform="translate(93.910020, 0.000000)">
										<rect id="Rectangle_2_" x="1.1" class="st9" width="29" height="4"/>
										<rect id="Rectangle_3_" x="70" y="25" class="st10" width="4" height="16"/>
										<path id="Combined-Shape" class="st11" d="M29.6,0L74,24.9v16L1,0H29.6z"/>
										<g class="st4">
											<g class="st4">
												<path class="st0" d="M29.1,11.5l3.5-6.3l4.2,2.3l-0.4,0.7L33,6.4l-1.1,1.9l2.9,1.6l-0.4,0.7l-2.9-1.6L29.9,12L29.1,11.5
													z"/>
												<path class="st0" d="M35.3,12c0.5-0.8,1-1.3,1.7-1.5c0.6-0.1,1.1,0,1.7,0.3c0.6,0.3,1,0.8,1.2,1.5s0.1,1.3-0.3,2
													c-0.3,0.6-0.7,1-1,1.2c-0.4,0.2-0.8,0.4-1.2,0.4c-0.4,0-0.9-0.1-1.3-0.3c-0.6-0.4-1-0.8-1.2-1.5
													C34.7,13.4,34.9,12.7,35.3,12z M36.1,12.4c-0.3,0.6-0.4,1.1-0.3,1.5c0.1,0.4,0.3,0.8,0.7,1c0.4,0.2,0.8,0.2,1.2,0.1
													s0.8-0.5,1.1-1.1c0.3-0.6,0.4-1.1,0.3-1.5c-0.1-0.4-0.3-0.8-0.7-1c-0.4-0.2-0.8-0.2-1.2-0.1S36.4,11.8,36.1,12.4z"/>
												<path class="st0" d="M39.2,17.1l2.5-4.5l0.7,0.4L42,13.6c0.4-0.2,0.6-0.3,0.8-0.4c0.2,0,0.4,0,0.6,0.1
													c0.3,0.1,0.5,0.4,0.7,0.7l-0.7,0.6c-0.1-0.2-0.3-0.4-0.5-0.5c-0.2-0.1-0.3-0.1-0.5-0.1c-0.2,0-0.4,0.1-0.5,0.3
													c-0.2,0.2-0.4,0.5-0.6,0.8l-1.3,2.4L39.2,17.1z"/>
												<path class="st0" d="M44.6,20.1l3.5-6.3l2.8,1.5c0.6,0.3,1,0.6,1.2,0.9s0.3,0.6,0.4,1c0,0.4-0.1,0.7-0.3,1.1
													c-0.2,0.4-0.6,0.7-1.1,0.9c-0.5,0.1-1,0.1-1.7-0.2c0.2,0.2,0.3,0.4,0.3,0.6c0.1,0.4,0.2,0.8,0.2,1.2l0.1,2.3l-1-0.6
													L49,20.8c0-0.5-0.1-0.9-0.1-1.2c0-0.3-0.1-0.5-0.2-0.7c-0.1-0.1-0.2-0.3-0.3-0.4c-0.1-0.1-0.2-0.2-0.4-0.3l-1-0.5
													l-1.5,2.8L44.6,20.1z M47.4,17.1l1.8,1c0.4,0.2,0.7,0.3,1,0.4c0.3,0,0.5,0,0.7-0.1c0.2-0.1,0.4-0.3,0.5-0.5
													c0.2-0.3,0.2-0.6,0.1-0.9s-0.4-0.6-0.9-0.9l-2-1.1L47.4,17.1z"/>
												<path class="st0" d="M54.8,23.8l0.7,0.5c-0.4,0.4-0.8,0.6-1.3,0.7s-1,0-1.5-0.3c-0.7-0.4-1.1-0.9-1.2-1.5
													c-0.2-0.6,0-1.3,0.4-2c0.4-0.8,0.9-1.2,1.6-1.4c0.6-0.2,1.3-0.1,1.9,0.2c0.6,0.3,1,0.8,1.1,1.4c0.2,0.6,0,1.3-0.4,2.1
													c0,0-0.1,0.1-0.1,0.2l-3.4-1.9c-0.2,0.5-0.3,1-0.2,1.4s0.3,0.7,0.7,0.9c0.3,0.2,0.6,0.2,0.8,0.2
													C54.2,24.2,54.5,24.1,54.8,23.8z M52.9,21.2l2.5,1.4c0.2-0.4,0.2-0.7,0.2-1c-0.1-0.4-0.3-0.8-0.7-1
													c-0.4-0.2-0.7-0.2-1.1-0.1C53.5,20.5,53.2,20.8,52.9,21.2z"/>
												<path class="st0" d="M55.7,26.2l2.5-4.5l0.7,0.4l-0.4,0.6c0.6-0.3,1.2-0.3,1.9,0.1c0.3,0.2,0.5,0.3,0.7,0.6
													c0.2,0.2,0.3,0.5,0.3,0.7s0,0.5-0.1,0.7c0,0.2-0.2,0.4-0.4,0.8l-1.5,2.8l-0.8-0.4l1.5-2.8c0.2-0.3,0.3-0.6,0.3-0.8
													c0-0.2,0-0.4-0.1-0.5c-0.1-0.2-0.3-0.3-0.5-0.4c-0.3-0.2-0.7-0.2-1-0.2c-0.4,0.1-0.7,0.4-1,1l-1.4,2.5L55.7,26.2z"/>
												<path class="st0" d="M62.6,29.2l-0.3,0.7c-0.2-0.1-0.4-0.2-0.6-0.3c-0.3-0.2-0.5-0.3-0.6-0.5C61.1,29,61,28.8,61,28.7
													c0-0.2,0.2-0.5,0.4-1l1.4-2.6l-0.6-0.3l0.3-0.6l0.6,0.3l0.6-1.1l1,0L64,24.9l0.8,0.4l-0.3,0.6l-0.8-0.4l-1.5,2.7
													c-0.1,0.2-0.2,0.4-0.2,0.4s0,0.2,0,0.2c0,0.1,0.1,0.1,0.2,0.2C62.4,29.1,62.5,29.1,62.6,29.2z"/>
											</g>
										</g>
									</g>
								</g>
							</g>
						</g>
					</g>
				</g>
			</g>
		</g>
	</g>
</g>
</svg>
