<svg xmlns="http://www.w3.org/2000/svg" viewBox="0 0 149 32"><path d="M25.007 15.153V13a1 1 0 0 0-1-1h-2a1 1 0 0 0-1 1v2.153a.988.988 0 0 0-.5.847 1 1 0 0 0 1 1h3a1 1 0 0 0 1-1 .988.988 0 0 0-.5-.847zm-1.5.1h-1V13.5h1zm39.885 6.156q-.03-.454-.03-1c-.009-.353-.009-.764-.009-1.214v-2.239a3.049 3.049 0 0 0-.989-2.535 4.085 4.085 0 0 0-2.623-.784 5.83 5.83 0 0 0-1.85.324 4.193 4.193 0 0 0-1.6.969l.685.812a4.146 4.146 0 0 1 2.77-1.038 3.051 3.051 0 0 1 1.82.519 1.945 1.945 0 0 1 .725 1.713v.558h-1.376c-.44 0-.959.029-1.536.088a6.24 6.24 0 0 0-1.645.391 3.386 3.386 0 0 0-1.311.93 2.475 2.475 0 0 0-.529 1.664 2.6 2.6 0 0 0 .284 1.253 2.69 2.69 0 0 0 .734.852 3.067 3.067 0 0 0 1.028.47 4.598 4.598 0 0 0 1.155.156 3.94 3.94 0 0 0 1.912-.421 3.262 3.262 0 0 0 1.262-1.311h.038a8.666 8.666 0 0 0 .118 1.488h1.106c-.039-.265-.069-.529-.088-.793s-.036-.548-.051-.852zm-1.106-2.349a4.573 4.573 0 0 1-.137 1.145 2.444 2.444 0 0 1-.5 1.008 2.4 2.4 0 0 1-.97.725 3.692 3.692 0 0 1-1.546.284 2.601 2.601 0 0 1-.734-.108 2.06 2.06 0 0 1-.656-.323 1.562 1.562 0 0 1-.336-2.271 2.369 2.369 0 0 1 .9-.636 5.092 5.092 0 0 1 1.253-.343 11.46 11.46 0 0 1 1.439-.1h1.292zM52.064 8.986h1.843v14.069h-1.294v-12.4h-.039l-5.3 12.4h-.567l-5.374-12.4h-.036v12.4h-1.3V8.985h1.942l5.068 11.805zM31.522 18.37a3 3 0 0 0-1.515-1.143v-2.814l.293.293a1 1 0 0 0 1.414-1.414l-2-2-6-6a1 1 0 0 0-1.414 0l-1.561 1.561-6.054-5.589a1 1 0 0 0-1.356 0L2.307 11.435l-.016.015-1.962 1.815a1 1 0 1 0 1.356 1.47l.322-.3V17.3a3.01 3.01 0 0 0-.366.2c-.747.473-1.943 1.708-1.561 4.63a1 1 0 0 0 .992.87h28.745a4.486 4.486 0 0 1 .19 1.253 2.728 2.728 0 0 1-.092.747H1.507a1 1 0 0 0-.895.553A6.087 6.087 0 0 0 .007 28a6.092 6.092 0 0 0 .605 2.447 1 1 0 0 0 .895.553h29.5a1 1 0 1 0 0-2H2.187a2.868 2.868 0 0 1 0-2h28.32a1 1 0 0 0 .7-.289 3.42 3.42 0 0 0 .8-2.458 6.536 6.536 0 0 0-.431-2.289 3.678 3.678 0 0 0-.054-3.593zM6.998 21H2.007a2.1 2.1 0 0 1 .708-1.817 1.707 1.707 0 0 1 1.787.166 1 1 0 0 0 .753.132c.407-.091 1.135-.2 1.449.111A1.909 1.909 0 0 1 6.998 21zm9.009 0h-2v-4h2zm7.032 0h-5.032v-5a1 1 0 0 0-1-1h-4a1 1 0 0 0-1 1v5H9.001a3.631 3.631 0 0 0-.9-2.836 3.2 3.2 0 0 0-2.891-.71 4.1 4.1 0 0 0-1.203-.399v-4.463l10-9.231 5.317 4.908-3.024 3.024a1 1 0 0 0 1.414 1.414l5.293-5.293 5 5V17.1a3.087 3.087 0 0 0-1.592.893 2.963 2.963 0 0 0-2.357.819A3.644 3.644 0 0 0 23.039 21zm6.768 0h-4.744a1.56 1.56 0 0 1 .391-.761c.1-.1.4-.391 1.179-.2a1 1 0 0 0 1.133-.525 1.128 1.128 0 0 1 .958-.514 1.25 1.25 0 0 1 1.125.464A1.791 1.791 0 0 1 29.807 21zm43.365-4.88a7.291 7.291 0 0 1 .147 1.471v5.464h-1.177V17.65a5.936 5.936 0 0 0-.1-1.083 2.9 2.9 0 0 0-.343-.944 1.82 1.82 0 0 0-.686-.666 2.337 2.337 0 0 0-1.148-.248 3.3 3.3 0 0 0-1.226.229 2.63 2.63 0 0 0-1 .695 3.4 3.4 0 0 0-.667 1.172 5.079 5.079 0 0 0-.245 1.66v4.59h-1.175v-6.6c0-.173-.006-.381-.019-.626s-.023-.5-.03-.746-.016-.47-.029-.7q-.017-.253-.02-.507h1.177q.02.517.03.994a3.157 3.157 0 0 0 .048.616h.059a3.217 3.217 0 0 1 1.177-1.3 3.4 3.4 0 0 1 1.922-.546 3.811 3.811 0 0 1 1.726.338 2.79 2.79 0 0 1 1.049.884 3.354 3.354 0 0 1 .53 1.258zm71.4-.3a3.299 3.299 0 0 0-.655-1.293 3.372 3.372 0 0 0-1.283-.929 5.082 5.082 0 0 0-2.075-.363 6.072 6.072 0 0 0-2.124.382 5.222 5.222 0 0 0-1.859 1.135l1.223 1.449a3.641 3.641 0 0 1 1.135-.773 3.322 3.322 0 0 1 1.43-.323 2.714 2.714 0 0 1 1.527.431 1.487 1.487 0 0 1 .636 1.321v.235c-.754 0-1.508.039-2.251.108a8.75 8.75 0 0 0-2.085.45 3.83 3.83 0 0 0-1.537.969 2.41 2.41 0 0 0-.607 1.713 2.671 2.671 0 0 0 .343 1.4 2.9 2.9 0 0 0 .871.92 3.578 3.578 0 0 0 1.135.49 5.168 5.168 0 0 0 1.185.156 3.767 3.767 0 0 0 1.781-.411 2.604 2.604 0 0 0 1.145-1.047h.059v1.214h2.192v-5.8a5.412 5.412 0 0 0-.186-1.433zm-2.672 5.012a2.476 2.476 0 0 1-1.849.655 3.005 3.005 0 0 1-.588-.058 1.565 1.565 0 0 1-.529-.206 1.13 1.13 0 0 1-.381-.362 1.177 1.177 0 0 1 .205-1.409 2.385 2.385 0 0 1 .881-.48 5.132 5.132 0 0 1 1.155-.215c.421-.039.822-.049 1.2-.049h.529l.004.332a2.529 2.529 0 0 1-.627 1.792zm-11.367-4.772a.8.8 0 0 0 .519.785 9.402 9.402 0 0 0 1.52.467 8.665 8.665 0 0 1 1.069.318 3.882 3.882 0 0 1 .981.527 2.593 2.593 0 0 1 .716.815 2.37 2.37 0 0 1 .274 1.182 3.115 3.115 0 0 1-.323 1.48 2.77 2.77 0 0 1-.863.984 3.616 3.616 0 0 1-1.255.547 6.428 6.428 0 0 1-1.481.168 5.8 5.8 0 0 1-2.138-.407 4.518 4.518 0 0 1-1.726-1.162l1.55-1.47a3.116 3.116 0 0 0 1.019.854 2.9 2.9 0 0 0 1.393.337 2.332 2.332 0 0 0 .52-.059 1.77 1.77 0 0 0 .49-.189 1.019 1.019 0 0 0 .363-.348.992.992 0 0 0 .137-.536.882.882 0 0 0-.539-.855 8.634 8.634 0 0 0-1.618-.516 7.865 7.865 0 0 1-1.03-.308 3.383 3.383 0 0 1-.892-.5 2.314 2.314 0 0 1-.628-.765 2.457 2.457 0 0 1-.235-1.133 2.764 2.764 0 0 1 .323-1.371 2.801 2.801 0 0 1 .854-.944 3.801 3.801 0 0 1 1.2-.546 5.211 5.211 0 0 1 1.373-.179 5.725 5.725 0 0 1 1.99.357 3.363 3.363 0 0 1 1.54 1.093l-1.529 1.374a2.75 2.75 0 0 0-.864-.725 2.406 2.406 0 0 0-1.2-.308 2.272 2.272 0 0 0-1.039.238.823.823 0 0 0-.471.795zm-47.926 5.349q-.029-.454-.029-1c-.01-.353-.01-.764-.01-1.214v-2.239a3.071 3.071 0 0 0-.979-2.535 4.133 4.133 0 0 0-2.633-.784 5.733 5.733 0 0 0-1.84.324 4.166 4.166 0 0 0-1.615.969l.695.812a4.1 4.1 0 0 1 2.76-1.038 3.054 3.054 0 0 1 1.821.519 1.952 1.952 0 0 1 .734 1.713v.558h-1.38c-.44 0-.959.029-1.537.088a6.34 6.34 0 0 0-1.644.391 3.4 3.4 0 0 0-1.312.93 2.48 2.48 0 0 0-.528 1.664 2.6 2.6 0 0 0 .284 1.253 2.677 2.677 0 0 0 .734.852 3.058 3.058 0 0 0 1.028.47 4.597 4.597 0 0 0 1.151.158 3.933 3.933 0 0 0 1.908-.421 3.352 3.352 0 0 0 1.273-1.311h.039a8.78 8.78 0 0 0 .117 1.488h1.1q-.058-.4-.088-.793c-.021-.263-.041-.55-.049-.854zm-1.247-1.204a2.432 2.432 0 0 1-.5 1.008 2.392 2.392 0 0 1-.969.725 3.7 3.7 0 0 1-1.546.284 2.588 2.588 0 0 1-.734-.108 2.062 2.062 0 0 1-.656-.323 1.5 1.5 0 0 1-.48-.538 1.43 1.43 0 0 1-.186-.744 1.475 1.475 0 0 1 .333-.989 2.26 2.26 0 0 1 .891-.636 5.22 5.22 0 0 1 1.252-.343 11.602 11.602 0 0 1 1.439-.1h1.3l.003.619a4.587 4.587 0 0 1-.147 1.145zm44.929-5.677h.001a3.371 3.371 0 0 0-1.283-.928 5.082 5.082 0 0 0-2.075-.363 6.072 6.072 0 0 0-2.124.382 5.181 5.181 0 0 0-1.849 1.135l1.213 1.449a3.753 3.753 0 0 1 1.136-.773 3.316 3.316 0 0 1 1.429-.323 2.709 2.709 0 0 1 1.526.431 1.485 1.485 0 0 1 .637 1.321v.235c-.754 0-1.5.039-2.251.108a8.748 8.748 0 0 0-2.085.45 3.83 3.83 0 0 0-1.537.969 2.4 2.4 0 0 0-.6 1.713 2.58 2.58 0 0 0 .343 1.4 2.777 2.777 0 0 0 .861.92 3.677 3.677 0 0 0 1.135.49 5.168 5.168 0 0 0 1.185.156 3.836 3.836 0 0 0 1.791-.411 2.638 2.638 0 0 0 1.135-1.047h.059v1.214h2.192v-5.8a5.52 5.52 0 0 0-.186-1.428 3.299 3.299 0 0 0-.653-1.3zm-2.016 6.304a2.477 2.477 0 0 1-1.85.655 2.999 2.999 0 0 1-.587-.058 1.552 1.552 0 0 1-.528-.206 1.123 1.123 0 0 1-.382-.362 1.177 1.177 0 0 1 .2-1.409 2.386 2.386 0 0 1 .881-.48 5.235 5.235 0 0 1 1.155-.215c.4-.039.8-.049 1.2-.049h.53l.008.332a2.529 2.529 0 0 1-.627 1.792zm-8.221-1.294l1.981 1.411a6.353 6.353 0 0 1-2.255 1.818 7.077 7.077 0 0 1-3.119.646 7.966 7.966 0 0 1-2.99-.546 6.893 6.893 0 0 1-2.344-1.531 6.964 6.964 0 0 1-1.53-2.344 7.982 7.982 0 0 1-.549-3.011 7.726 7.726 0 0 1 .579-3.051 6.78 6.78 0 0 1 1.588-2.314 7.03 7.03 0 0 1 2.383-1.471 8.384 8.384 0 0 1 2.98-.516 7.88 7.88 0 0 1 1.394.129 7.012 7.012 0 0 1 1.392.4 6.728 6.728 0 0 1 1.255.665 4.051 4.051 0 0 1 1 .955l-1.882 1.509a3.178 3.178 0 0 0-1.432-1.1 4.743 4.743 0 0 0-3.687.05 4.591 4.591 0 0 0-1.52 1.092 4.882 4.882 0 0 0-.981 1.63 5.83 5.83 0 0 0-.343 2.027 6.332 6.332 0 0 0 .334 2.106 4.784 4.784 0 0 0 .95 1.64 4.284 4.284 0 0 0 1.48 1.063 4.793 4.793 0 0 0 1.943.378 4.234 4.234 0 0 0 1.98-.448 3.886 3.886 0 0 0 1.392-1.187zm-23.367-4.109h-.039a3.565 3.565 0 0 0-1.38-1.312 4.135 4.135 0 0 0-2.046-.48 4.918 4.918 0 0 0-1.889.373 5.165 5.165 0 0 0-1.537 1.018 4.59 4.59 0 0 0-1.037 5.148 4.824 4.824 0 0 0 4.463 2.88 4.136 4.136 0 0 0 2.046-.48 3.557 3.557 0 0 0 1.38-1.312h.039v1.273c0 .176 0 .4-.02.675a4.276 4.276 0 0 1-.127.891 3.95 3.95 0 0 1-.333.93 2.805 2.805 0 0 1-.626.851 2.845 2.845 0 0 1-1.018.627 4.081 4.081 0 0 1-1.517.244 4.89 4.89 0 0 1-2.007-.42 3.736 3.736 0 0 1-1.566-1.312l-.92.881a4.389 4.389 0 0 0 .832.812 5.009 5.009 0 0 0 1.067.607 6.183 6.183 0 0 0 1.243.372 6.88 6.88 0 0 0 1.35.127 6.47 6.47 0 0 0 1.528-.2 4.014 4.014 0 0 0 1.576-.773 4.43 4.43 0 0 0 1.233-1.634 6.61 6.61 0 0 0 .489-2.76v-8.583h-1.182zm-.243 4.338l-.002-.002a3.661 3.661 0 0 1-.763 1.155 3.601 3.601 0 0 1-1.136.773 3.378 3.378 0 0 1-1.4.294 3.495 3.495 0 0 1-1.41-.294 3.707 3.707 0 0 1-1.135-.773 3.84 3.84 0 0 1-.764-1.155 3.64 3.64 0 0 1-.284-1.419 3.714 3.714 0 0 1 .284-1.42 3.84 3.84 0 0 1 .764-1.155A3.724 3.724 0 0 1 87.734 15a3.5 3.5 0 0 1 2.809 0 3.61 3.61 0 0 1 1.136.773 3.688 3.688 0 0 1 .763 3.994zm10.565-4.788a4.076 4.076 0 0 0-1.335-.979 4.327 4.327 0 0 0-1.83-.363 4.428 4.428 0 0 0-1.835.363 4.48 4.48 0 0 0-2.368 2.535 5.287 5.287 0 0 0-.333 1.909 5.671 5.671 0 0 0 .323 1.957 4.484 4.484 0 0 0 .93 1.527 4.121 4.121 0 0 0 1.448 1.008 4.89 4.89 0 0 0 1.89.362 5.36 5.36 0 0 0 2.221-.46 3.953 3.953 0 0 0 1.694-1.507l-.862-.744a3.112 3.112 0 0 1-1.292 1.194 3.735 3.735 0 0 1-1.742.441 3.267 3.267 0 0 1-1.7-.4 3.5 3.5 0 0 1-1.047-.949 3.38 3.38 0 0 1-.539-1.145 4.204 4.204 0 0 1-.146-.96h7.605v-.841a4.582 4.582 0 0 0-.274-1.566 4.031 4.031 0 0 0-.808-1.382zm-6.522 2.711a2.564 2.564 0 0 1 .156-.666 4.012 4.012 0 0 1 .529-1.008 3.5 3.5 0 0 1 1.008-.91 3.005 3.005 0 0 1 1.6-.4 3.325 3.325 0 0 1 1.224.245 3.189 3.189 0 0 1 1 .646 2.881 2.881 0 0 1 .666.94 2.757 2.757 0 0 1 .244 1.155zm50.936-8.102a1.936 1.936 0 0 0-.619-.416 1.836 1.836 0 0 0-.753-.155 1.885 1.885 0 0 0-.763.155 2.058 2.058 0 0 0-.618.416 1.947 1.947 0 0 0-.415.62 1.792 1.792 0 0 0-.155.757 1.714 1.714 0 0 0 .155.755 1.92 1.92 0 0 0 1.033 1.027 1.88 1.88 0 0 0 .763.146 1.832 1.832 0 0 0 .753-.146A1.925 1.925 0 0 0 148 10.965a1.941 1.941 0 0 0-.58-1.377zm.135 2.016a1.705 1.705 0 0 1-.348.523 1.64 1.64 0 0 1-2.327 0 1.896 1.896 0 0 1-.348-.523 1.602 1.602 0 0 1-.125-.64 1.447 1.447 0 0 1 .125-.639 1.64 1.64 0 0 1 .348-.523 1.728 1.728 0 0 1 .521-.359 1.698 1.698 0 0 1 1.284 0 1.616 1.616 0 0 1 .522.359 1.374 1.374 0 0 1 .348.523 1.575 1.575 0 0 1 0 1.28zm-.83-.707a.56.56 0 0 0 .144-.398.721.721 0 0 0-.068-.3.698.698 0 0 0-.183-.194.987.987 0 0 0-.27-.116 1.469 1.469 0 0 0-.29-.029h-.773v2.2h.396v-.92h.28l.512.92h.473l-.589-.97a.64.64 0 0 0 .367-.193zm-.735-.078h-.318v-.63h.367a.609.609 0 0 1 .29.068.227.227 0 0 1 .144.233.245.245 0 0 1-.155.262.77.77 0 0 1-.328.067zm-119.3-6.103h-.293V2.663h.453l.627 1.575.628-1.575h.437v2.053h-.292V2.992h-.01l-.676 1.724h-.19L26.7 2.992h-.01zm-1.65-1.784h-.66v-.27h1.6v.27h-.648v1.784h-.291z" fill="#f57361"/></svg>