<?xml version="1.0" encoding="UTF-8"?>
<svg width="400px" height="121px" viewBox="0 0 400 121" version="1.1" xmlns="http://www.w3.org/2000/svg" xmlns:xlink="http://www.w3.org/1999/xlink">
    <!-- Generator: sketchtool 59.1 (101010) - https://sketch.com -->
    <title>60079987-76E6-445A-8A30-BD1AFB8AC6DF</title>
    <desc>Created with sketchtool.</desc>
    <g id="Pages" stroke="none" stroke-width="1" fill="none" fill-rule="evenodd">
        <g id="Residential-Solution" transform="translate(-721.000000, -931.000000)">
            <g id="section-2" transform="translate(120.000000, 735.000000)">
                <g id="cards" transform="translate(0.000000, 197.000000)">
                    <g id="right" transform="translate(562.000000, 0.000000)">
                        <g id="multi-family-homes-illustration" transform="translate(39.000000, 0.000000)">
                            <polygon id="Fill-1" fill="#FFFFFF" points="0 120 400 120 400 0 0 0"></polygon>
                            <line x1="34" y1="119" x2="368" y2="119" id="Stroke-2" stroke="#46BBC4" stroke-width="2" stroke-linecap="round" stroke-linejoin="round"></line>
                            <line x1="159" y1="25" x2="159" y2="115" id="Stroke-4" stroke="#46BBC4" stroke-width="2" stroke-linecap="round" stroke-linejoin="round"></line>
                            <line x1="71" y1="115" x2="71" y2="25" id="Stroke-5" stroke="#46BBC4" stroke-width="2" stroke-linecap="round" stroke-linejoin="round"></line>
                            <line x1="152.8799" y1="17" x2="77.1199" y2="17" id="Stroke-6" stroke="#FDEFDB" stroke-width="2" stroke-linecap="round" stroke-linejoin="round"></line>
                            <polygon id="Stroke-7" stroke="#F4BA67" stroke-width="2" stroke-linecap="round" stroke-linejoin="round" points="153 7 77 7 71 21 159 21"></polygon>
                            <polygon id="Fill-8" fill="#1C7F8A" points="135 115 147 115 147 93 135 93"></polygon>
                            <polygon id="Stroke-9" stroke="#1C7F8A" stroke-width="2" stroke-linecap="round" stroke-linejoin="round" points="135 115 147 115 147 93 135 93"></polygon>
                            <line x1="137" y1="113" x2="145" y2="113" id="Stroke-10" stroke="#46BBC4" stroke-width="2" stroke-linecap="round" stroke-linejoin="round"></line>
                            <polygon id="Stroke-11" stroke="#A7DFE3" stroke-width="2" stroke-linecap="round" stroke-linejoin="round" points="83 109 95 109 95 93 83 93"></polygon>
                            <polygon id="Stroke-12" stroke="#A7DFE3" stroke-width="2" stroke-linecap="round" stroke-linejoin="round" points="109 109 121 109 121 93 109 93"></polygon>
                            <polygon id="Stroke-13" stroke="#A7DFE3" stroke-width="2" stroke-linecap="round" stroke-linejoin="round" points="109 79 121 79 121 63 109 63"></polygon>
                            <polygon id="Stroke-14" stroke="#A7DFE3" stroke-width="2" stroke-linecap="round" stroke-linejoin="round" points="83 79 95 79 95 63 83 63"></polygon>
                            <polygon id="Stroke-15" stroke="#A7DFE3" stroke-width="2" stroke-linecap="round" stroke-linejoin="round" points="135 79 147 79 147 63 135 63"></polygon>
                            <polygon id="Stroke-16" stroke="#A7DFE3" stroke-width="2" stroke-linecap="round" stroke-linejoin="round" points="109 49 121 49 121 33 109 33"></polygon>
                            <polygon id="Stroke-17" stroke="#A7DFE3" stroke-width="2" stroke-linecap="round" stroke-linejoin="round" points="83 49 95 49 95 33 83 33"></polygon>
                            <polygon id="Stroke-18" stroke="#A7DFE3" stroke-width="2" stroke-linecap="round" stroke-linejoin="round" points="135 49 147 49 147 33 135 33"></polygon>
                            <polyline id="Stroke-19" stroke="#F57361" stroke-width="2" stroke-linecap="round" stroke-linejoin="round" points="151 95 151 89 131 89 131 95"></polyline>
                            <polygon id="Fill-20" fill="#1C7F8A" points="238 115 246 115 246 101 238 101"></polygon>
                            <polygon id="Stroke-21" stroke="#1C7F8A" stroke-width="2" stroke-linecap="round" stroke-linejoin="round" points="238 115 246 115 246 101 238 101"></polygon>
                            <line x1="240" y1="113" x2="244" y2="113" id="Stroke-22" stroke="#46BBC4" stroke-width="2" stroke-linecap="round" stroke-linejoin="round"></line>
                            <polygon id="Stroke-23" stroke="#A7DFE3" stroke-width="2" stroke-linecap="round" stroke-linejoin="round" points="222 93 246 93 246 87 222 87"></polygon>
                            <polygon id="Stroke-24" stroke="#A7DFE3" stroke-width="2" stroke-linecap="round" stroke-linejoin="round" points="222 107 230 107 230 101 222 101"></polygon>
                            <line x1="214" y1="51" x2="214" y2="115" id="Stroke-25" stroke="#46BBC4" stroke-width="2" stroke-linecap="round" stroke-linejoin="round"></line>
                            <line x1="254" y1="115" x2="254" y2="51" id="Stroke-26" stroke="#46BBC4" stroke-width="2" stroke-linecap="round" stroke-linejoin="round"></line>
                            <line x1="294" y1="115" x2="294" y2="51" id="Stroke-27" stroke="#46BBC4" stroke-width="2" stroke-linecap="round" stroke-linejoin="round"></line>
                            <polygon id="Stroke-28" stroke="#F4BA67" stroke-width="2" stroke-linecap="round" stroke-linejoin="round" points="314 29 338 47 338 36 314 18 294 33 274 18 254 33 234 18 210 36 210 47 234 29 254 44 274 29 294 44"></polygon>
                            <polyline id="Stroke-29" stroke="#FDEFDB" stroke-width="2" stroke-linecap="round" stroke-linejoin="round" points="214 38.7002 234 24.0002 254 38.7002 274 24.0002 294 38.7002 314 24.0002 334 38.7002"></polyline>
                            <line x1="250" y1="79" x2="218" y2="79" id="Stroke-30" stroke="#D3EFF1" stroke-width="2" stroke-linecap="round" stroke-linejoin="round"></line>
                            <polygon id="Fill-31" fill="#1C7F8A" points="278 115 286 115 286 101 278 101"></polygon>
                            <polygon id="Stroke-32" stroke="#1C7F8A" stroke-width="2" stroke-linecap="round" stroke-linejoin="round" points="278 115 286 115 286 101 278 101"></polygon>
                            <line x1="280" y1="113" x2="284" y2="113" id="Stroke-33" stroke="#46BBC4" stroke-width="2" stroke-linecap="round" stroke-linejoin="round"></line>
                            <polygon id="Stroke-34" stroke="#A7DFE3" stroke-width="2" stroke-linecap="round" stroke-linejoin="round" points="262 93 286 93 286 87 262 87"></polygon>
                            <polygon id="Stroke-35" stroke="#A7DFE3" stroke-width="2" stroke-linecap="round" stroke-linejoin="round" points="262 57 286 57 286 51 262 51"></polygon>
                            <polygon id="Stroke-36" stroke="#A7DFE3" stroke-width="2" stroke-linecap="round" stroke-linejoin="round" points="262 107 270 107 270 101 262 101"></polygon>
                            <polygon id="Stroke-37" stroke="#A7DFE3" stroke-width="2" stroke-linecap="round" stroke-linejoin="round" points="262 71 270 71 270 65 262 65"></polygon>
                            <polygon id="Stroke-38" stroke="#A7DFE3" stroke-width="2" stroke-linecap="round" stroke-linejoin="round" points="278 71 286 71 286 65 278 65"></polygon>
                            <line x1="290" y1="79" x2="258" y2="79" id="Stroke-39" stroke="#D3EFF1" stroke-width="2" stroke-linecap="round" stroke-linejoin="round"></line>
                            <line x1="334" y1="115" x2="334" y2="51" id="Stroke-40" stroke="#46BBC4" stroke-width="2" stroke-linecap="round" stroke-linejoin="round"></line>
                            <polygon id="Fill-41" fill="#1C7F8A" points="318 115 326 115 326 101 318 101"></polygon>
                            <polygon id="Stroke-42" stroke="#1C7F8A" stroke-width="2" stroke-linecap="round" stroke-linejoin="round" points="318 115 326 115 326 101 318 101"></polygon>
                            <line x1="320" y1="113" x2="324" y2="113" id="Stroke-43" stroke="#46BBC4" stroke-width="2" stroke-linecap="round" stroke-linejoin="round"></line>
                            <polygon id="Stroke-44" stroke="#A7DFE3" stroke-width="2" stroke-linecap="round" stroke-linejoin="round" points="302 93 326 93 326 87 302 87"></polygon>
                            <polygon id="Stroke-45" stroke="#A7DFE3" stroke-width="2" stroke-linecap="round" stroke-linejoin="round" points="302 57 326 57 326 51 302 51"></polygon>
                            <polygon id="Stroke-46" stroke="#A7DFE3" stroke-width="2" stroke-linecap="round" stroke-linejoin="round" points="302 107 310 107 310 101 302 101"></polygon>
                            <polygon id="Stroke-47" stroke="#A7DFE3" stroke-width="2" stroke-linecap="round" stroke-linejoin="round" points="302 71 310 71 310 65 302 65"></polygon>
                            <polygon id="Stroke-48" stroke="#A7DFE3" stroke-width="2" stroke-linecap="round" stroke-linejoin="round" points="318 71 326 71 326 65 318 65"></polygon>
                            <line x1="330" y1="79" x2="298" y2="79" id="Stroke-49" stroke="#D3EFF1" stroke-width="2" stroke-linecap="round" stroke-linejoin="round"></line>
                            <polygon id="Stroke-50" stroke="#A7DFE3" stroke-width="2" stroke-linecap="round" stroke-linejoin="round" points="222 57 246 57 246 51 222 51"></polygon>
                            <polygon id="Stroke-51" stroke="#A7DFE3" stroke-width="2" stroke-linecap="round" stroke-linejoin="round" points="222 71 230 71 230 65 222 65"></polygon>
                            <polygon id="Stroke-52" stroke="#A7DFE3" stroke-width="2" stroke-linecap="round" stroke-linejoin="round" points="238 71 246 71 246 65 238 65"></polygon>
                            <polyline id="Stroke-53" stroke="#F57361" stroke-width="2" stroke-linecap="round" stroke-linejoin="round" points="261 23 261 17 247 17 247 23"></polyline>
                            <polyline id="Stroke-54" stroke="#FDDED9" stroke-width="2" stroke-linecap="round" stroke-linejoin="round" points="251 23 254 25 257 23"></polyline>
                            <polyline id="Stroke-55" stroke="#F57361" stroke-width="2" stroke-linecap="round" stroke-linejoin="round" points="301 23 301 17 287 17 287 23"></polyline>
                            <polyline id="Stroke-56" stroke="#FDDED9" stroke-width="2" stroke-linecap="round" stroke-linejoin="round" points="291 23 294 25 297 23"></polyline>
                            <line x1="50" y1="115" x2="50" y2="98" id="Stroke-57" stroke="#A5CD7F" stroke-width="2" stroke-linecap="round" stroke-linejoin="round"></line>
                            <g id="Group-90" transform="translate(1.000000, 0.000000)" stroke-linecap="round" stroke-linejoin="round" stroke-width="2">
                                <path d="M49,108 C60.514,108 57.636,103 52.533,100 C56.066,99 57.026,95 51.674,92.89 C54.671,92 52.918,88 49,88 C45.082,88 43.329,92 46.326,92.89 C40.974,95 41.934,99 45.467,100 C40.364,103 37.486,108 49,108 Z" id="Stroke-58" stroke="#A5CD7F"></path>
                                <line x1="194.8604" y1="93" x2="190.8604" y2="89" id="Stroke-60" stroke="#A5CD7F"></line>
                                <line x1="194.8604" y1="99" x2="198.8604" y2="95" id="Stroke-62" stroke="#A5CD7F"></line>
                                <path d="M190.8604,103.2002 C186.2004,101.2802 182.8604,96.1002 182.8604,90.0002 C182.8604,82.2702 188.2304,76.0002 194.8604,76.0002 C201.4904,76.0002 206.8604,82.2702 206.8604,90.0002 C206.8604,97.7302 201.4904,104.0002 194.8604,104.0002" id="Stroke-64" stroke="#A5CD7F"></path>
                                <line x1="194.8604" y1="115" x2="194.8604" y2="84" id="Stroke-66" stroke="#A5CD7F"></line>
                                <line x1="352.8604" y1="89" x2="356.8604" y2="85" id="Stroke-68" stroke="#A5CD7F"></line>
                                <line x1="352.8604" y1="97" x2="348.8604" y2="93" id="Stroke-70" stroke="#A5CD7F"></line>
                                <path d="M348.8604,102.79 C343.1504,100.77 339.0004,94.69 339.0004,87.5 C339.0004,78.66 345.2694,71.5 353.0004,71.5 C360.7304,71.5 367.0004,78.66 367.0004,87.5 C367.0004,96.34 360.7304,103.5 353.0004,103.5 L352.8604,103.5" id="Stroke-72" stroke="#A5CD7F"></path>
                                <line x1="352.8604" y1="115" x2="352.8604" y2="80" id="Stroke-74" stroke="#A5CD7F"></line>
                                <path d="M0,49 L26,49 C28.209,49 30,47.209 30,45 C30,42.791 28.209,41 26,41" id="Stroke-76" stroke="#FDEFDB"></path>
                                <path d="M11,55 L30,55 C32.209,55 34,56.791 34,59 C34,61.209 32.209,63 30,63" id="Stroke-78" stroke="#FDEFDB"></path>
                                <path d="M382,44 C384.209,44 386,42.209 386,40 C386,37.791 384.209,36 382,36 L364,36" id="Stroke-80" stroke="#FDEFDB"></path>
                                <path d="M346,30 L389,30 C393.971,30 398,25.971 398,21 C398,16.029 393.971,12 389,12" id="Stroke-82" stroke="#FDEFDB"></path>
                                <path d="M186,7 C186,3.134 182.866,0 179,0 C175.134,0 172,3.134 172,7 C172,10.866 175.134,14 179,14 L199,14" id="Stroke-84" stroke="#FDEFDB"></path>
                                <path d="M189,34 C186.791,34 185,32.209 185,30 C185,27.791 186.791,26 189,26 L199,26" id="Stroke-86" stroke="#FDEFDB"></path>
                                <line x1="207" y1="20" x2="189" y2="20" id="Stroke-88" stroke="#FDEFDB"></line>
                            </g>
                        </g>
                    </g>
                </g>
            </g>
        </g>
    </g>
</svg>