<?xml version="1.0" encoding="utf-8"?>
<!-- Generator: Adobe Illustrator 21.0.0, SVG Export Plug-In . SVG Version: 6.00 Build 0)  -->
<svg version="1.1" id="Слой_1" xmlns="http://www.w3.org/2000/svg" xmlns:xlink="http://www.w3.org/1999/xlink" x="0px" y="0px"
	 viewBox="0 0 242 134" style="enable-background:new 0 0 242 134;" xml:space="preserve">
<style type="text/css">
	.st0{fill:#FFFFFF;}
	.st1{fill:#D3EFF1;}
	.st2{fill:#FFFFFF;stroke:#000000;stroke-opacity:0.12;}
	.st3{fill:#E6E6E6;}
	.st4{fill:#F57361;stroke:#E85B47;}
	.st5{opacity:0.64;fill:#FFFFFF;enable-background:new    ;}
	.st6{opacity:0.32;fill:#FFFFFF;enable-background:new    ;}
	.st7{opacity:0.64;}
</style>
<g>
	<rect id="path-1" class="st0" width="242" height="134"/>
</g>
<title>5B969C6B-D976-4026-A1D2-E48C7D86F526</title>
<desc>Created with sketchtool.</desc>
<g id="Pricing">
	<g id="Pricing---Core-Features" transform="translate(-373.000000, -2074.000000)">
		<g id="section-3" transform="translate(81.000000, 1194.000000)">
			<g id="list" transform="translate(0.000000, 109.000000)">
				<g id="item" transform="translate(292.000000, 771.000000)">
					<g id="image">
						<g id="online-payments">
							<g id="mask">
								<rect id="path-1_1_" class="st1" width="242" height="134"/>
							</g>
							<g id="design">
								<g transform="translate(46.000000, 14.000000)">
									<g id="card-back">
										<g>
											<path id="path-3_1_" d="M22,16h122c3.3,0,6,2.7,6,6v78c0,3.3-2.7,6-6,6H22c-3.3,0-6-2.7-6-6V22C16,18.7,18.7,16,22,16z"
												/>
										</g>
										<path class="st2" d="M21.5,15.5h123c3.3,0,6,2.7,6,6v79c0,3.3-2.7,6-6,6h-123c-3.3,0-6-2.7-6-6v-79
											C15.5,18.2,18.2,15.5,21.5,15.5z"/>
									</g>
									<rect id="Rectangle" x="134" y="35" class="st3" width="16" height="20"/>
									<g id="card-front">
										<g>
											<path id="path-5_1_" d="M6,0h122c3.3,0,6,2.7,6,6v78c0,3.3-2.7,6-6,6H6c-3.3,0-6-2.7-6-6V6C0,2.7,2.7,0,6,0z"/>
										</g>
										<path class="st4" d="M5.5-0.5h123c3.3,0,6,2.7,6,6v79c0,3.3-2.7,6-6,6H5.5c-3.3,0-6-2.7-6-6v-79C-0.5,2.2,2.2-0.5,5.5-0.5
											z"/>
									</g>
									<g id="dates" transform="translate(12.000000, 70.000000)">
										<path id="Rectangle_1_" class="st0" d="M1,0h16c0.6,0,1,0.4,1,1l0,0c0,0.6-0.4,1-1,1H1C0.4,2,0,1.6,0,1l0,0
											C0,0.4,0.4,0,1,0z"/>
										<path id="Rectangle_2_" class="st5" d="M2,6h9c1.1,0,2,0.9,2,2l0,0c0,1.1-0.9,2-2,2H2c-1.1,0-2-0.9-2-2l0,0
											C0,6.9,0.9,6,2,6z"/>
										<path id="Rectangle_3_" class="st5" d="M19,6h13c1.1,0,2,0.9,2,2l0,0c0,1.1-0.9,2-2,2H19c-1.1,0-2-0.9-2-2l0,0
											C17,6.9,17.9,6,19,6z"/>
										<path id="Rectangle_4_" class="st0" d="M47,0h11c0.6,0,1,0.4,1,1s-0.4,1-1,1H47c-0.6,0-1-0.4-1-1S46.4,0,47,0z"/>
										<path id="Rectangle_5_" class="st5" d="M48,6h15c1.1,0,2,0.9,2,2s-0.9,2-2,2H48c-1.1,0-2-0.9-2-2S46.9,6,48,6z"/>
										<path id="Rectangle_6_" class="st5" d="M71,6h11c1.1,0,2,0.9,2,2s-0.9,2-2,2H71c-1.1,0-2-0.9-2-2S69.9,6,71,6z"/>
									</g>
									<path id="Rectangle_7_" class="st6" d="M14,26h8c1.1,0,2,0.9,2,2v5c0,1.1-0.9,2-2,2h-8c-1.1,0-2-0.9-2-2v-5
										C12,26.9,12.9,26,14,26z"/>
									<g id="numbers" transform="translate(12.000000, 12.000000)" class="st7">
										<path id="Rectangle_8_" class="st0" d="M1,34h2c0.6,0,1,0.4,1,1v5c0,0.6-0.4,1-1,1H1c-0.6,0-1-0.4-1-1v-5
											C0,34.4,0.4,34,1,34z"/>
										<path id="Rectangle_9_" class="st0" d="M6,34h2c0.6,0,1,0.4,1,1v5c0,0.6-0.4,1-1,1H6c-0.6,0-1-0.4-1-1v-5
											C5,34.4,5.4,34,6,34z"/>
										<path id="Rectangle_10_" class="st0" d="M11,34h2c0.6,0,1,0.4,1,1v5c0,0.6-0.4,1-1,1h-2c-0.6,0-1-0.4-1-1v-5
											C10,34.4,10.4,34,11,34z"/>
										<path id="Rectangle_11_" class="st0" d="M16,34h2c0.6,0,1,0.4,1,1v5c0,0.6-0.4,1-1,1h-2c-0.6,0-1-0.4-1-1v-5
											C15,34.4,15.4,34,16,34z"/>
										<path id="Rectangle_12_" class="st0" d="M27,34h2c0.6,0,1,0.4,1,1v5c0,0.6-0.4,1-1,1h-2c-0.6,0-1-0.4-1-1v-5
											C26,34.4,26.4,34,27,34z"/>
										<path id="Rectangle_13_" class="st6" d="M86,0h22c1.1,0,2,0.9,2,2v4c0,1.1-0.9,2-2,2H86c-1.1,0-2-0.9-2-2V2
											C84,0.9,84.9,0,86,0z"/>
										<path id="Rectangle_14_" class="st0" d="M32,34h2c0.6,0,1,0.4,1,1v5c0,0.6-0.4,1-1,1h-2c-0.6,0-1-0.4-1-1v-5
											C31,34.4,31.4,34,32,34z"/>
										<path id="Rectangle_15_" class="st0" d="M37,34h2c0.6,0,1,0.4,1,1v5c0,0.6-0.4,1-1,1h-2c-0.6,0-1-0.4-1-1v-5
											C36,34.4,36.4,34,37,34z"/>
										<path id="Rectangle_16_" class="st0" d="M42,34h2c0.6,0,1,0.4,1,1v5c0,0.6-0.4,1-1,1h-2c-0.6,0-1-0.4-1-1v-5
											C41,34.4,41.4,34,42,34z"/>
										<path id="Rectangle_17_" class="st0" d="M53,34h2c0.6,0,1,0.4,1,1v5c0,0.6-0.4,1-1,1h-2c-0.6,0-1-0.4-1-1v-5
											C52,34.4,52.4,34,53,34z"/>
										<path id="Rectangle_18_" class="st0" d="M58,34h2c0.6,0,1,0.4,1,1v5c0,0.6-0.4,1-1,1h-2c-0.6,0-1-0.4-1-1v-5
											C57,34.4,57.4,34,58,34z"/>
										<path id="Rectangle_19_" class="st0" d="M63,34h2c0.6,0,1,0.4,1,1v5c0,0.6-0.4,1-1,1h-2c-0.6,0-1-0.4-1-1v-5
											C62,34.4,62.4,34,63,34z"/>
										<path id="Rectangle_20_" class="st0" d="M68,34h2c0.6,0,1,0.4,1,1v5c0,0.6-0.4,1-1,1h-2c-0.6,0-1-0.4-1-1v-5
											C67,34.4,67.4,34,68,34z"/>
										<path id="Rectangle_21_" class="st0" d="M79,34h2c0.6,0,1,0.4,1,1v5c0,0.6-0.4,1-1,1h-2c-0.6,0-1-0.4-1-1v-5
											C78,34.4,78.4,34,79,34z"/>
										<path id="Rectangle_22_" class="st0" d="M84,34h2c0.6,0,1,0.4,1,1v5c0,0.6-0.4,1-1,1h-2c-0.6,0-1-0.4-1-1v-5
											C83,34.4,83.4,34,84,34z"/>
										<path id="Rectangle_23_" class="st0" d="M89,34h2c0.6,0,1,0.4,1,1v5c0,0.6-0.4,1-1,1h-2c-0.6,0-1-0.4-1-1v-5
											C88,34.4,88.4,34,89,34z"/>
										<path id="Rectangle_24_" class="st0" d="M94,34h2c0.6,0,1,0.4,1,1v5c0,0.6-0.4,1-1,1h-2c-0.6,0-1-0.4-1-1v-5
											C93,34.4,93.4,34,94,34z"/>
									</g>
								</g>
							</g>
						</g>
					</g>
				</g>
			</g>
		</g>
	</g>
</g>
</svg>
