<svg width="502" height="399" xmlns="http://www.w3.org/2000/svg"><g fill="none" fill-rule="evenodd"><path d="M57 3h384v384H57z"/><path d="M55.62 385.718C-5.23 336.343-27 166 90.664 246.105 208.326 326.211 248.27 264.55 184.5 166 119.554 65.633 330.197-32.55 401.598 11.725 473 56 372.178 62.445 394.588 131.723 417 201 517 201 441 294.5 365 388 278 404 193 366s-76.53 69.092-137.38 19.718z" fill="#FDF3E6"/><g transform="translate(57 3)"><path d="M0 0h384v384H0z"/><path d="M344 96H88c-22.08.026-39.974 17.92-40 40v160c.026 22.08 17.92 39.974 40 40h256c22.08-.026 39.974-17.92 40-40V136c-.026-22.08-17.92-39.974-40-40zm24 200c0 13.255-10.745 24-24 24H88c-13.255 0-24-10.745-24-24V136c0-13.255 10.745-24 24-24h256c13.255 0 24 10.745 24 24v160z" fill="#46BBC4" fill-rule="nonzero"/><path d="M330.48 68A40.112 40.112 0 0 0 296 48H40C17.92 48.026.026 65.92 0 88v160a40.128 40.128 0 0 0 20 34.48 8 8 0 0 0 12-6.92V136c.035-30.913 25.087-55.965 56-56h235.56a8 8 0 0 0 6.92-12z" fill="#A7DFE3"/><rect fill="#1C7F8A" x="80" y="144" width="272" height="56" rx="1"/><path d="M216 240a8 8 0 0 1-8 8H104a8 8 0 1 1 0-16h104a8 8 0 0 1 8 8zm-40 32h-72a8 8 0 1 0 0 16h72a8 8 0 1 0 0-16z" fill="#F4BA67" fill-rule="nonzero"/></g><g transform="translate(1 13)" opacity=".24" stroke="#F0B867" stroke-width="2"><circle cx="17" cy="168" r="17"/><circle cx="477" cy="219" r="23"/><circle cx="124" cy="9" r="9"/><circle cx="472" cy="119" r="4"/><circle cx="408.5" cy="355.5" r="7.5"/><circle cx="35" cy="348" r="13"/><circle cx="325" cy="346" r="4"/><circle cx="31" cy="82" r="4"/><circle cx="425" cy="25" r="17"/></g></g></svg>