<svg width="460" height="362" xmlns="http://www.w3.org/2000/svg"><g fill="none" fill-rule="evenodd"><path d="M39-9h384v384H39z"/><path d="M79 219C-17.5 109.5-24.5 35 58 67S92 9 188.5 42 307 86 371 61.5 459.5 119 459.5 184 421 415 309 294s-133.5 34.5-230-75z" fill="#FDF3E6"/><g transform="translate(39 -9)"><path d="M0 0h384v384H0z"/><path d="M296 200h-32a8 8 0 0 1-8-8v-32a8 8 0 0 1 8-8h32a8 8 0 0 1 8 8v32a8 8 0 0 1-8 8zm-24-16h16v-16h-16v16z" fill="#F4BA67" fill-rule="nonzero"/><rect fill="#1C7F8A" x="184" y="152" width="56" height="88" rx="1"/><path d="M312 272H176c-13.255 0-24-10.745-24-24V144h-40a8 8 0 0 1-5.264-14.024l128-112a8 8 0 0 1 10.352-.144l136 112A8 8 0 0 1 376 144h-40v104c0 13.255-10.745 24-24 24zM133.288 128H160a8 8 0 0 1 8 8v112a8 8 0 0 0 8 8h136a8 8 0 0 0 8-8V136a8 8 0 0 1 8-8h25.704L240.16 34.496 133.288 128z" fill="#46BBC4" fill-rule="nonzero"/><path d="M255.66 344.033l-6.872-16.367a4.689 4.689 0 0 0-2.477-2.475l-110.274-46.673c0-.798.12-1.596.12-2.347.072-32.643-23.078-60.734-55.156-66.928-32.078-6.195-64.038 11.253-76.146 41.572-12.108 30.318-.95 64.956 26.586 82.526 27.535 17.57 63.681 13.118 86.12-10.609l44.966 3.817 17.42 20.039a4.46 4.46 0 0 0 3.676 1.517l26.05-1.357 17.1 19.64a4.46 4.46 0 0 0 6.313.558l21.416-17.883a4.444 4.444 0 0 0 1.159-5.03zM48.218 288.147c-8.827 0-15.982-7.15-15.982-15.968s7.155-15.967 15.982-15.967c8.826 0 15.981 7.149 15.981 15.967 0 8.819-7.155 15.968-15.981 15.968z" fill="#F57361" fill-rule="nonzero"/></g><g transform="translate(28 1)" opacity=".24" stroke="#F0B867" stroke-width="2"><circle cx="401" cy="71" r="17"/><circle cx="57" cy="138" r="23"/><circle cx="9" cy="59" r="9"/><circle cx="406" cy="170" r="4"/><circle cx="374.5" cy="226.5" r="7.5"/><circle cx="157" cy="13" r="13"/><circle cx="55" cy="330" r="4"/><circle cx="148" cy="356" r="4"/><circle cx="331" cy="320" r="17"/></g></g></svg>