<?xml version="1.0" encoding="UTF-8"?>
<svg width="48px" height="48px" viewBox="0 0 48 48" version="1.1" xmlns="http://www.w3.org/2000/svg" xmlns:xlink="http://www.w3.org/1999/xlink">
    <!-- Generator: sketchtool 52.6 (67491) - http://www.bohemiancoding.com/sketch -->
    <title>2FC6A20B-1C6C-46DA-8836-7A3F059BA9AC</title>
    <desc>Created with sketchtool.</desc>
    <g id="Pages" stroke="none" stroke-width="1" fill="none" fill-rule="evenodd">
        <g id="M---Free-Trial-Home-1" transform="translate(-136.000000, -1606.000000)">
            <g id="section-3" transform="translate(-1.000000, 1581.000000)">
                <g id="icon-/-48x48-/-price-tag" transform="translate(137.000000, 25.000000)">
                    <path d="M5,2.00008334 C3.346,2.00008334 2,3.34613942 2,5.00020834 L2,20.3438477 C2,21.1458811 2.312,21.8989125 2.879,22.464936 L25.535,45.1238802 C26.705,46.2939289 28.608,46.2919288 29.778,45.1238802 L45.121,29.7792408 C45.688,29.2122172 46,28.4591858 46,27.6581524 C46,26.856119 45.688,26.1040877 45.121,25.537064 L22.465,2.87811992 C21.897,2.31209634 21.144,2.00008334 20.343,2.00008334 L5,2.00008334 Z M27.656,48 C26.376,48 25.096,47.5119797 24.121,46.5379391 L1.465,23.878995 C0.521,22.9369557 0,21.6809034 0,20.3438477 L0,5.00020834 C0,2.24309346 2.243,0 5,0 L20.343,0 C21.678,0 22.934,0.520021668 23.879,1.464061 L46.535,24.1230051 C47.479,25.0670445 48,26.3220968 48,27.6581524 C48,28.9942081 47.479,30.2492604 46.535,31.1932997 L31.192,46.5379391 C30.218,47.5119797 28.937,48 27.656,48 Z" id="Fill-1" fill="#46BBC4"></path>
                    <path d="M23.0823696,27.6782946 L22.7668339,27.9948482 C22.5958339,28.1648304 22.4197446,28.1770446 22.2558696,28.0131696 L22.2121018,27.9694018 C22.0349946,27.7922946 22.0411018,27.6345268 22.1795304,27.4950804 L22.5398518,27.1357768 C22.0787625,26.5606875 21.9393161,25.9672768 21.8955482,25.6334196 C21.8578875,25.4054196 21.9902089,25.2608839 22.2171911,25.2222054 L22.5520661,25.1652054 C22.7922804,25.1275446 22.9246018,25.2354375 22.9754946,25.4746339 C23.0314768,25.7972946 23.1709232,26.3021518 23.5627982,26.6930089 C23.9037804,27.0339911 24.3954054,27.1734375 24.7618339,26.8070089 C25.5201375,26.0497232 23.3103696,23.9916161 24.6671732,22.6337946 C25.3175839,21.9833839 26.3089768,21.9650625 27.1232625,22.5523661 L27.4581375,22.2174911 C27.6281196,22.0464911 27.7919946,22.0342768 27.9691018,22.2113839 L28.0128696,22.2551518 C28.1777625,22.4190268 28.1838696,22.5778125 28.0383161,22.7223482 L27.6790125,23.0826696 C28.0831018,23.5498661 28.2276375,24.0231696 28.2775125,24.3132589 C28.3355304,24.5341339 28.2154232,24.6796875 28.0006554,24.7427946 L27.6790125,24.8496696 C27.4449054,24.9199018 27.3054589,24.8181161 27.2362446,24.5717946 C27.1741554,24.3071518 27.0347089,23.9030625 26.7120482,23.5814196 C26.3334054,23.2027768 25.8102268,23.1203304 25.4936732,23.4358661 C24.7435125,24.1870446 27.0092625,26.1881518 25.5954589,27.6029732 C24.9511554,28.2472768 23.9526375,28.3480446 23.0823696,27.6782946 M30.1625839,20.0871161 C27.3807804,17.3042946 22.8696375,17.3042946 20.0868161,20.0871161 C17.3039946,22.8689196 17.3039946,27.3810804 20.0868161,30.1628839 C22.8696375,32.9457054 27.3807804,32.9457054 30.1625839,30.1628839 C32.9454054,27.3800625 32.9454054,22.8689196 30.1625839,20.0871161" id="Fill-4" fill="#F4BA67"></path>
                    <path d="M10.875,7.95 C9.26235,7.95 7.95,9.26235 7.95,10.875 C7.95,12.48765 9.26235,13.8 10.875,13.8 C12.48765,13.8 13.8,12.48765 13.8,10.875 C13.8,9.26235 12.48765,7.95 10.875,7.95 M10.875,15.75 C8.186925,15.75 6,13.563075 6,10.875 C6,8.186925 8.186925,6 10.875,6 C13.563075,6 15.75,8.186925 15.75,10.875 C15.75,13.563075 13.563075,15.75 10.875,15.75" id="Fill-6" fill="#A7DFE3"></path>
                </g>
            </g>
        </g>
    </g>
</svg>