<svg width="49" height="44" xmlns="http://www.w3.org/2000/svg"><g transform="translate(0 -2)" fill="none" fill-rule="evenodd"><path d="M1 0h48v48H1z"/><path d="M38 25h-4a1 1 0 0 1-1-1v-4a1 1 0 0 1 1-1h4a1 1 0 0 1 1 1v4a1 1 0 0 1-1 1zm-3-2h2v-2h-2v2z" fill="#F4BA67" fill-rule="nonzero"/><rect fill="#1C7F8A" x="24" y="19" width="7" height="11" rx="1"/><path d="M40 34H23a3 3 0 0 1-3-3V18h-5a1 1 0 0 1-.658-1.753l16-14a1 1 0 0 1 1.294-.018l17 14A1 1 0 0 1 48 18h-5v13a3 3 0 0 1-3 3zM17.661 16H21a1 1 0 0 1 1 1v14a1 1 0 0 0 1 1h17a1 1 0 0 0 1-1V17a1 1 0 0 1 1-1h3.213L31.02 4.312 17.661 16z" fill="#46BBC4" fill-rule="nonzero"/><path d="M32.96 43l-.86-2.05a.587.587 0 0 0-.31-.31l-13.8-5.846c0-.1.015-.2.015-.294a8.519 8.519 0 1 0-2.327 5.832l5.627.478 2.18 2.51a.558.558 0 0 0 .46.19l3.26-.17 2.14 2.46a.558.558 0 0 0 .79.07l2.68-2.24a.557.557 0 0 0 .145-.63zM7 36a2 2 0 1 1 0-4 2 2 0 0 1 0 4z" fill="#F57361" fill-rule="nonzero"/></g></svg>