<svg width="217" height="289" xmlns="http://www.w3.org/2000/svg"><g fill="none" fill-rule="evenodd"><path d="M-116.5 369.5h450v-450h-450z"/><path d="M102.499 228.492h-48c-3.316 0-6 2.684-6 6s2.684 6 6 6h48c3.316 0 6-2.684 6-6s-2.684-6-6-6m54-29.999c0 3.316-2.684 6-6 6h-96c-3.316 0-6-2.684-6-6s2.684-6 6-6h96c3.316 0 6 2.684 6 6" fill="#A7DFE3"/><path d="M118.862 100.435l43.903-8.002c1.84-.336 2.899-2.246 2.278-4.011-5.586-15.856-17.608-28.631-32.932-35.22-1.721-.74-3.702.196-4.155 2.014l-10.818 43.38a1.5 1.5 0 0 0 1.724 1.839" fill="#F57361"/><path d="M101.868 108.595l-23.88-47.881c-.839-1.681-2.977-2.157-4.5-1.057-15.12 10.916-24.99 28.674-24.99 48.78 0 29.966 21.858 54.806 50.46 59.387 1.848.297 3.54-1.085 3.54-2.958v-53.593c0-.93-.215-1.847-.63-2.678" fill="#1C7F8A"/><path d="M114.499 115.96v48.906c0 1.88 1.538 3.275 3.395 2.982 28.673-4.521 50.604-29.396 50.604-59.41 0-.441-.007-.879-.022-1.316a3.015 3.015 0 0 0-3.555-2.855l-47.96 8.742a3 3 0 0 0-2.462 2.951" fill="#F4BA67"/><path d="M204.498 30.497c0-9.925-8.073-17.999-18-17.999h-156c-9.926 0-18 8.074-18 18v227.994c0 9.925 8.074 18 18 18h126v-21.36c0-14.699 11.94-26.64 26.64-26.64h21.36V30.497zm12 0v199.015c0 2.625-.548 5.144-1.628 7.488a17.944 17.944 0 0 1-3.668 5.273l-40.92 40.921a18.135 18.135 0 0 1-5.29 3.674 17.696 17.696 0 0 1-7.473 1.623H30.499c-16.541 0-30-13.459-30-29.999V30.497c0-16.54 13.459-29.999 30-29.999h156c16.54 0 30 13.46 30 30zM116.318 52.28l-8.723 34.978c-.338 1.352-2.175 1.553-2.797.306L88.714 55.317c-.832-1.667.047-3.659 1.822-4.222 5.672-1.802 11.695-2.808 17.963-2.808 1.745 0 3.464.1 5.163.267 1.84.18 3.102 1.933 2.655 3.726z" fill="#46BBC4"/></g></svg>