<?xml version="1.0" encoding="utf-8"?>
<!-- Generator: Adobe Illustrator 21.0.0, SVG Export Plug-In . SVG Version: 6.00 Build 0)  -->
<svg version="1.1" id="Слой_1" xmlns="http://www.w3.org/2000/svg" xmlns:xlink="http://www.w3.org/1999/xlink" x="0px" y="0px"
	 viewBox="0 0 242 134" style="enable-background:new 0 0 242 134;" xml:space="preserve">
<style type="text/css">
	.st0{fill:#FFFFFF;}
	.st1{fill:#D3EFF1;}
	.st2{fill:#FFFFFF;stroke:#000000;stroke-opacity:0.12;}
	.st3{enable-background:new    ;}
	.st4{fill:#525252;}
	.st5{fill:#A5CD7F;}
	.st6{fill:#E6E6E6;}
	.st7{fill:#F7F7F7;}
	.st8{fill:none;stroke:#F57361;stroke-width:2;stroke-linecap:round;stroke-linejoin:round;}
	.st9{fill:none;stroke:#46BBC4;stroke-width:2;stroke-linecap:round;stroke-linejoin:round;}
</style>
<g>
	<rect id="path-1" class="st0" width="242" height="134"/>
</g>
<title>7D25EB31-EDE9-4A8A-9BEA-1EA99F24DCFE</title>
<desc>Created with sketchtool.</desc>
<g id="Pricing">
	<g id="Pricing---Core-Features" transform="translate(-81.000000, -1303.000000)">
		<g id="section-3" transform="translate(81.000000, 1194.000000)">
			<g id="list" transform="translate(0.000000, 109.000000)">
				<g id="item">
					<g id="image">
						<g id="reporting-statistics">
							<g id="mask">
								<rect id="path-1_1_" class="st1" width="242" height="134"/>
							</g>
							<g id="design">
								<g transform="translate(39.000000, 27.000000)">
									<g id="box">
										<g>
											<path id="path-3_1_" d="M2,0h160c1.1,0,2,0.9,2,2v76c0,1.1-0.9,2-2,2H2c-1.1,0-2-0.9-2-2V2C0,0.9,0.9,0,2,0z"/>
										</g>
										<path class="st2" d="M1.5-0.5h161c1.1,0,2,0.9,2,2v77c0,1.1-0.9,2-2,2H1.5c-1.1,0-2-0.9-2-2v-77C-0.5,0.4,0.4-0.5,1.5-0.5
											z"/>
									</g>
									<g class="st3">
										<g class="st3">
											<path class="st4" d="M8.8,15V7.8H12c0.6,0,1.1,0.1,1.5,0.2c0.3,0.1,0.6,0.4,0.8,0.7s0.3,0.7,0.3,1.1
												c0,0.5-0.2,0.9-0.5,1.3s-0.8,0.6-1.5,0.7c0.3,0.1,0.4,0.2,0.6,0.4c0.3,0.3,0.5,0.6,0.8,1l1.2,1.9h-1.2L13,13.5
												c-0.3-0.4-0.5-0.8-0.7-1s-0.3-0.4-0.5-0.5s-0.3-0.2-0.4-0.2c-0.1,0-0.3,0-0.5,0H9.7V15H8.8z M9.7,11h2c0.4,0,0.8,0,1-0.1
												c0.2-0.1,0.4-0.2,0.6-0.4c0.1-0.2,0.2-0.4,0.2-0.6c0-0.3-0.1-0.6-0.4-0.8S12.5,8.6,12,8.6H9.7V11z"/>
											<path class="st4" d="M19.4,13.3l0.9,0.1c-0.1,0.5-0.4,0.9-0.8,1.2s-0.9,0.4-1.5,0.4c-0.8,0-1.4-0.2-1.8-0.7
												c-0.4-0.5-0.7-1.1-0.7-2c0-0.9,0.2-1.5,0.7-2s1-0.7,1.7-0.7c0.7,0,1.3,0.2,1.7,0.7s0.7,1.1,0.7,2c0,0.1,0,0.1,0,0.2h-3.9
												c0,0.6,0.2,1,0.5,1.3s0.7,0.5,1.1,0.5c0.3,0,0.6-0.1,0.8-0.3S19.3,13.7,19.4,13.3z M16.5,11.9h2.9c0-0.4-0.1-0.8-0.3-1
												c-0.3-0.3-0.6-0.5-1.1-0.5c-0.4,0-0.7,0.1-1,0.4S16.6,11.5,16.5,11.9z"/>
											<path class="st4" d="M21.4,15V9.8h0.8v0.7c0.4-0.6,0.9-0.9,1.7-0.9c0.3,0,0.6,0.1,0.9,0.2c0.3,0.1,0.5,0.3,0.6,0.4
												s0.2,0.4,0.3,0.6c0,0.2,0,0.4,0,0.9V15h-0.9v-3.2c0-0.4,0-0.6-0.1-0.8c-0.1-0.2-0.2-0.3-0.4-0.4
												c-0.2-0.1-0.4-0.2-0.6-0.2c-0.4,0-0.7,0.1-1,0.4s-0.4,0.7-0.4,1.4V15H21.4z"/>
											<path class="st4" d="M28.9,14.2L29,15c-0.2,0.1-0.5,0.1-0.7,0.1c-0.3,0-0.6-0.1-0.7-0.2s-0.3-0.2-0.4-0.4
												c-0.1-0.2-0.1-0.5-0.1-1v-3h-0.6V9.8h0.6V8.5L28,8v1.8h0.9v0.7H28v3c0,0.3,0,0.4,0,0.5s0.1,0.1,0.2,0.2s0.2,0.1,0.3,0.1
												C28.6,14.2,28.8,14.2,28.9,14.2z"/>
											<path class="st4" d="M33.2,14.4c-0.3,0.3-0.6,0.5-0.9,0.6s-0.6,0.2-1,0.2c-0.6,0-1-0.1-1.3-0.4c-0.3-0.3-0.5-0.6-0.5-1.1
												c0-0.3,0.1-0.5,0.2-0.7c0.1-0.2,0.3-0.4,0.5-0.5s0.4-0.2,0.6-0.3c0.2,0,0.4-0.1,0.8-0.1c0.7-0.1,1.2-0.2,1.6-0.3
												c0-0.1,0-0.2,0-0.2c0-0.4-0.1-0.6-0.2-0.8c-0.2-0.2-0.6-0.3-1-0.3c-0.4,0-0.7,0.1-0.9,0.2c-0.2,0.1-0.3,0.4-0.4,0.8
												l-0.9-0.1c0.1-0.4,0.2-0.7,0.4-0.9c0.2-0.2,0.4-0.4,0.8-0.5c0.3-0.1,0.7-0.2,1.2-0.2c0.4,0,0.8,0.1,1.1,0.2
												s0.5,0.2,0.6,0.4c0.1,0.2,0.2,0.4,0.3,0.6c0,0.1,0,0.4,0,0.8v1.2c0,0.8,0,1.3,0.1,1.5c0,0.2,0.1,0.4,0.2,0.6h-0.9
												C33.3,14.8,33.2,14.6,33.2,14.4z M33.1,12.4c-0.3,0.1-0.8,0.2-1.4,0.3c-0.4,0.1-0.6,0.1-0.8,0.2s-0.3,0.2-0.3,0.3
												c-0.1,0.1-0.1,0.3-0.1,0.4c0,0.2,0.1,0.4,0.3,0.6s0.4,0.2,0.8,0.2c0.3,0,0.6-0.1,0.9-0.2c0.3-0.1,0.5-0.4,0.6-0.6
												c0.1-0.2,0.1-0.5,0.1-0.9V12.4z"/>
											<path class="st4" d="M35.3,15V7.8h0.9V15H35.3z"/>
											<path class="st4" d="M40.6,15V7.8h0.9V15H40.6z"/>
											<path class="st4" d="M43.1,15V9.8h0.8v0.7c0.4-0.6,0.9-0.9,1.7-0.9c0.3,0,0.6,0.1,0.9,0.2c0.3,0.1,0.5,0.3,0.6,0.4
												s0.2,0.4,0.3,0.6c0,0.2,0,0.4,0,0.9V15h-0.9v-3.2c0-0.4,0-0.6-0.1-0.8c-0.1-0.2-0.2-0.3-0.4-0.4
												c-0.2-0.1-0.4-0.2-0.6-0.2c-0.4,0-0.7,0.1-1,0.4S44,11.5,44,12.2V15H43.1z"/>
											<path class="st4" d="M52.1,13.1l0.9,0.1c-0.1,0.6-0.3,1.1-0.7,1.4c-0.4,0.3-0.9,0.5-1.4,0.5c-0.7,0-1.3-0.2-1.7-0.7
												c-0.4-0.5-0.6-1.1-0.6-2c0-0.6,0.1-1,0.3-1.5s0.5-0.7,0.8-0.9c0.4-0.2,0.8-0.3,1.2-0.3c0.6,0,1,0.1,1.4,0.4
												c0.4,0.3,0.6,0.7,0.7,1.2L52,11.5c-0.1-0.3-0.2-0.6-0.4-0.8s-0.5-0.3-0.7-0.3c-0.4,0-0.8,0.2-1.1,0.5
												c-0.3,0.3-0.4,0.8-0.4,1.5c0,0.7,0.1,1.2,0.4,1.5s0.6,0.5,1,0.5c0.3,0,0.6-0.1,0.9-0.3S52,13.5,52.1,13.1z"/>
											<path class="st4" d="M53.4,12.4c0-1,0.3-1.7,0.8-2.1c0.4-0.4,1-0.6,1.6-0.6c0.7,0,1.3,0.2,1.7,0.7
												c0.5,0.5,0.7,1.1,0.7,1.9c0,0.7-0.1,1.2-0.3,1.6c-0.2,0.4-0.5,0.7-0.9,0.9s-0.8,0.3-1.3,0.3c-0.7,0-1.3-0.2-1.8-0.7
												S53.4,13.3,53.4,12.4z M54.3,12.4c0,0.7,0.1,1.2,0.4,1.5c0.3,0.3,0.7,0.5,1.1,0.5c0.4,0,0.8-0.2,1.1-0.5s0.4-0.8,0.4-1.5
												c0-0.6-0.1-1.1-0.4-1.5c-0.3-0.3-0.7-0.5-1.1-0.5c-0.4,0-0.8,0.2-1.1,0.5S54.3,11.7,54.3,12.4z"/>
											<path class="st4" d="M59.2,15V9.8H60v0.7c0.2-0.3,0.4-0.5,0.6-0.6c0.3-0.2,0.6-0.2,0.9-0.2c0.4,0,0.7,0.1,0.9,0.2
												s0.4,0.4,0.5,0.7c0.4-0.6,0.9-0.9,1.6-0.9c0.5,0,0.9,0.1,1.2,0.4c0.3,0.3,0.4,0.7,0.4,1.3V15h-0.9v-3.3
												c0-0.4,0-0.6-0.1-0.8c-0.1-0.2-0.2-0.3-0.3-0.4s-0.3-0.1-0.5-0.1c-0.4,0-0.7,0.1-0.9,0.4c-0.2,0.2-0.4,0.6-0.4,1.2v3
												h-0.9v-3.4c0-0.4-0.1-0.7-0.2-0.9s-0.4-0.3-0.7-0.3c-0.2,0-0.5,0.1-0.7,0.2s-0.4,0.3-0.5,0.6s-0.1,0.6-0.1,1.1V15H59.2z"
												/>
											<path class="st4" d="M71.1,13.3l0.9,0.1c-0.1,0.5-0.4,0.9-0.8,1.2s-0.9,0.4-1.5,0.4c-0.8,0-1.4-0.2-1.8-0.7
												c-0.4-0.5-0.7-1.1-0.7-2c0-0.9,0.2-1.5,0.7-2s1-0.7,1.7-0.7c0.7,0,1.3,0.2,1.7,0.7s0.7,1.1,0.7,2c0,0.1,0,0.1,0,0.2h-3.9
												c0,0.6,0.2,1,0.5,1.3s0.7,0.5,1.1,0.5c0.3,0,0.6-0.1,0.8-0.3S71,13.7,71.1,13.3z M68.2,11.9h2.9c0-0.4-0.1-0.8-0.3-1
												c-0.3-0.3-0.6-0.5-1.1-0.5c-0.4,0-0.7,0.1-1,0.4S68.3,11.5,68.2,11.9z"/>
										</g>
									</g>
									<g class="st3">
										<g class="st3">
											<path class="st5" d="M138.7,15h-0.9V9.4c-0.2,0.2-0.5,0.4-0.8,0.6c-0.3,0.2-0.7,0.4-0.9,0.5V9.6c0.5-0.2,0.9-0.5,1.3-0.8
												s0.6-0.6,0.8-1h0.6V15z"/>
											<path class="st5" d="M145.6,14.2V15h-4.7c0-0.2,0-0.4,0.1-0.6c0.1-0.3,0.3-0.6,0.6-1c0.3-0.3,0.6-0.7,1.2-1.1
												c0.8-0.6,1.3-1.1,1.6-1.5c0.3-0.4,0.4-0.7,0.4-1.1c0-0.3-0.1-0.6-0.4-0.9c-0.2-0.2-0.6-0.4-1-0.4c-0.4,0-0.8,0.1-1,0.4
												s-0.4,0.6-0.4,1.1L141,9.9c0.1-0.7,0.3-1.2,0.7-1.5c0.4-0.4,0.9-0.5,1.6-0.5c0.7,0,1.2,0.2,1.6,0.6s0.6,0.9,0.6,1.4
												c0,0.3-0.1,0.6-0.2,0.8s-0.3,0.6-0.6,0.9c-0.3,0.3-0.7,0.7-1.4,1.3c-0.5,0.4-0.9,0.7-1,0.9c-0.1,0.2-0.3,0.3-0.4,0.5
												H145.6z"/>
											<path class="st5" d="M146.7,9.6c0-0.5,0.1-0.9,0.4-1.3s0.6-0.5,1.1-0.5c0.4,0,0.8,0.2,1.1,0.5c0.3,0.3,0.4,0.8,0.4,1.4
												c0,0.6-0.1,1.1-0.4,1.4c-0.3,0.3-0.7,0.5-1.1,0.5c-0.4,0-0.8-0.2-1.1-0.5C146.8,10.7,146.7,10.2,146.7,9.6z M148.2,8.3
												c-0.2,0-0.4,0.1-0.5,0.3c-0.1,0.2-0.2,0.5-0.2,1c0,0.5,0.1,0.8,0.2,1c0.1,0.2,0.3,0.3,0.5,0.3c0.2,0,0.4-0.1,0.5-0.3
												c0.1-0.2,0.2-0.5,0.2-1c0-0.5-0.1-0.8-0.2-1C148.6,8.4,148.5,8.3,148.2,8.3z M148.2,15.3l3.9-7.5h0.7l-3.9,7.5H148.2z
												 M151.3,13.3c0-0.5,0.1-0.9,0.4-1.3c0.3-0.4,0.6-0.5,1.1-0.5c0.4,0,0.8,0.2,1.1,0.5c0.3,0.3,0.4,0.8,0.4,1.4
												c0,0.6-0.1,1.1-0.4,1.4c-0.3,0.3-0.7,0.5-1.1,0.5c-0.4,0-0.8-0.2-1.1-0.5C151.5,14.5,151.3,14,151.3,13.3z M152.9,12.1
												c-0.2,0-0.4,0.1-0.5,0.3c-0.1,0.2-0.2,0.5-0.2,1c0,0.5,0.1,0.8,0.2,1s0.3,0.3,0.5,0.3c0.2,0,0.4-0.1,0.6-0.3
												c0.1-0.2,0.2-0.5,0.2-1c0-0.5-0.1-0.8-0.2-1C153.3,12.2,153.1,12.1,152.9,12.1z"/>
										</g>
									</g>
									<g id="icon-_x2F_-16x16-_x2F_-dropdown-arrow-up" transform="translate(119.000000, 4.000000)">
										<g id="Color" transform="translate(4.000000, 5.000000)">
											<path class="st5" d="M7.9,5.2l-3.5-5c-0.2-0.3-0.6-0.3-0.8,0l-3.5,5C0,5.4,0,5.6,0.1,5.7C0.1,5.9,0.3,6,0.5,6h7
												c0.2,0,0.4-0.1,0.4-0.3C8,5.6,8,5.4,7.9,5.2"/>
										</g>
									</g>
									<g id="lines" transform="translate(8.000000, 23.000000)">
										<rect id="Rectangle" y="48" class="st6" width="148" height="1"/>
										<rect id="Rectangle_1_" y="40" class="st7" width="148" height="1"/>
										<rect id="Rectangle_2_" y="32" class="st7" width="148" height="1"/>
										<rect id="Rectangle_3_" y="24" class="st7" width="148" height="1"/>
										<rect id="Rectangle_4_" y="16" class="st7" width="148" height="1"/>
										<rect id="Rectangle_5_" y="8" class="st7" width="148" height="1"/>
										<rect id="Rectangle_6_" class="st6" width="148" height="1"/>
										<rect id="Rectangle_7_" class="st6" width="1" height="49"/>
										<rect id="Rectangle_8_" x="147" class="st6" width="1" height="49"/>
									</g>
									<g id="graph" transform="translate(11.000000, 26.000000)">
										<polyline id="Path-4" class="st8" points="0,23.3 25.6,43 50.3,16.3 76.7,25.6 103.7,2 126.9,4.8 142,14.1 										"/>
										<path id="Path-3" class="st9" d="M0,23.4c0.6,0,9.2,3.5,25.8,10.6l25.3-5.1c16.1-11.4,24.5-17.1,25.3-17.1
											c0.8,0,10,1.5,27.8,4.6l23.9-4.6L142,0"/>
									</g>
								</g>
							</g>
						</g>
					</g>
				</g>
			</g>
		</g>
	</g>
</g>
</svg>
