<?xml version="1.0" encoding="UTF-8"?>
<svg width="429px" height="336px" viewBox="0 0 429 336" version="1.1" xmlns="http://www.w3.org/2000/svg" xmlns:xlink="http://www.w3.org/1999/xlink">
    <!-- Generator: sketchtool 51.3 (57544) - http://www.bohemiancoding.com/sketch -->
    <title>281FD12B-E05D-4197-B502-E9D2073FC627</title>
    <desc>Created with sketchtool.</desc>
    <defs></defs>
    <g id="Pages" stroke="none" stroke-width="1" fill="none" fill-rule="evenodd">
        <g id="Request-a-Demo" transform="translate(-851.000000, -640.000000)">
            <g id="section-1" transform="translate(0.000000, 60.000000)">
                <g id="background">
                    <g id="right-illustration" transform="translate(853.000000, 582.000000)">
                        <polyline id="Stroke-1" stroke="#85D2D8" stroke-width="4" stroke-linecap="round" stroke-linejoin="round" points="462.0001 20 462.0001 332 238.0001 332 238.0001 20"></polyline>
                        <polygon id="Stroke-3" stroke="#85D2D8" stroke-width="4" stroke-linecap="round" stroke-linejoin="round" points="258 284 306 284 306 244 258 244"></polygon>
                        <polygon id="Stroke-4" stroke="#85D2D8" stroke-width="4" stroke-linecap="round" stroke-linejoin="round" points="394 284 442 284 442 244 394 244"></polygon>
                        <polygon id="Stroke-5" stroke="#85D2D8" stroke-width="4" stroke-linecap="round" stroke-linejoin="round" points="394 216 442 216 442 176 394 176"></polygon>
                        <polygon id="Stroke-6" stroke="#85D2D8" stroke-width="4" stroke-linecap="round" stroke-linejoin="round" points="326 216 374 216 374 176 326 176"></polygon>
                        <polygon id="Stroke-7" stroke="#85D2D8" stroke-width="4" stroke-linecap="round" stroke-linejoin="round" points="258 216 306 216 306 176 258 176"></polygon>
                        <polygon id="Stroke-8" stroke="#85D2D8" stroke-width="4" stroke-linecap="round" stroke-linejoin="round" points="394 148 442 148 442 108 394 108"></polygon>
                        <polygon id="Stroke-9" stroke="#85D2D8" stroke-width="4" stroke-linecap="round" stroke-linejoin="round" points="326 148 374 148 374 108 326 108"></polygon>
                        <polygon id="Stroke-10" stroke="#85D2D8" stroke-width="4" stroke-linecap="round" stroke-linejoin="round" points="258 148 306 148 306 108 258 108"></polygon>
                        <polygon id="Stroke-11" stroke="#85D2D8" stroke-width="4" stroke-linecap="round" stroke-linejoin="round" points="394 80 442 80 442 40 394 40"></polygon>
                        <polygon id="Stroke-12" stroke="#85D2D8" stroke-width="4" stroke-linecap="round" stroke-linejoin="round" points="326 80 374 80 374 40 326 40"></polygon>
                        <polygon id="Stroke-13" stroke="#85D2D8" stroke-width="4" stroke-linecap="round" stroke-linejoin="round" points="258 80 306 80 306 40 258 40"></polygon>
                        <polygon id="Stroke-14" stroke="#F4BA67" stroke-width="4" stroke-linecap="round" stroke-linejoin="round" points="228 12 472 12 472 0 228 0"></polygon>
                        <path d="M318.0001,324 L246.0001,324" id="Stroke-16" stroke="#C2E9EC" stroke-width="4" stroke-linecap="round" stroke-linejoin="round"></path>
                        <path d="M402.0001,208 L434.0001,208" id="Stroke-17" stroke="#C2E9EC" stroke-width="4" stroke-linecap="round" stroke-linejoin="round"></path>
                        <path d="M266.0001,276 L298.0001,276" id="Stroke-18" stroke="#C2E9EC" stroke-width="4" stroke-linecap="round" stroke-linejoin="round"></path>
                        <path d="M266.0001,140 L298.0001,140" id="Stroke-19" stroke="#C2E9EC" stroke-width="4" stroke-linecap="round" stroke-linejoin="round"></path>
                        <path d="M334.0001,72 L366.0001,72" id="Stroke-20" stroke="#C2E9EC" stroke-width="4" stroke-linecap="round" stroke-linejoin="round"></path>
                        <path d="M454.0001,324 L382.0001,324" id="Stroke-21" stroke="#C2E9EC" stroke-width="4" stroke-linecap="round" stroke-linejoin="round"></path>
                        <polyline id="Stroke-22" stroke="#85D2D8" stroke-width="4" stroke-linecap="round" stroke-linejoin="round" points="238.0001 152 238.0001 332 58.0001 332 58.0001 152"></polyline>
                        <polygon id="Stroke-24" stroke="#85D2D8" stroke-width="4" stroke-linecap="round" stroke-linejoin="round" points="90 284 138 284 138 244 90 244"></polygon>
                        <polygon id="Stroke-25" stroke="#85D2D8" stroke-width="4" stroke-linecap="round" stroke-linejoin="round" points="90 216 206 216 206 176 90 176"></polygon>
                        <polyline id="Stroke-26" stroke="#F4BA67" stroke-width="4" stroke-linecap="round" stroke-linejoin="round" points="230.0001 144 48.0001 144 48.0001 132 148.0001 108 230.0001 127.68"></polyline>
                        <path d="M150.0001,324 L66.0001,324" id="Stroke-27" stroke="#C2E9EC" stroke-width="4" stroke-linecap="round" stroke-linejoin="round"></path>
                        <path d="M98.0001,276 L130.0001,276" id="Stroke-28" stroke="#C2E9EC" stroke-width="4" stroke-linecap="round" stroke-linejoin="round"></path>
                        <path d="M98.0001,196 L198.0001,196" id="Stroke-29" stroke="#C2E9EC" stroke-width="4" stroke-linecap="round" stroke-linejoin="round"></path>
                        <path d="M230.0001,324 L214.0001,324" id="Stroke-30" stroke="#C2E9EC" stroke-width="4" stroke-linecap="round" stroke-linejoin="round"></path>
                        <path d="M130.0001,184 L130.0001,208" id="Stroke-31" stroke="#C2E9EC" stroke-width="4" stroke-linecap="round" stroke-linejoin="round"></path>
                        <path d="M166.0001,184 L166.0001,208" id="Stroke-32" stroke="#C2E9EC" stroke-width="4" stroke-linecap="round" stroke-linejoin="round"></path>
                        <path d="M478.0001,332 L42.0001,332" id="Stroke-33" stroke="#85D2D8" stroke-width="4" stroke-linecap="round" stroke-linejoin="round"></path>
                        <polygon id="Fill-35" fill="#2B8E9E" points="158 332 206 332 206 244 158 244"></polygon>
                        <polygon id="Stroke-36" stroke="#2B8E9E" stroke-width="4" stroke-linecap="round" stroke-linejoin="round" points="158 332 206 332 206 244 158 244"></polygon>
                        <path d="M200.0001,292 C200.0001,293.104 199.1041,294 198.0001,294 C196.8961,294 196.0001,293.104 196.0001,292 C196.0001,290.896 196.8961,290 198.0001,290 C199.1041,290 200.0001,290.896 200.0001,292" id="Fill-38" fill="#FFFFFF"></path>
                        <polygon id="Fill-39" fill="#2B8E9E" points="326 332 374 332 374 244 326 244"></polygon>
                        <polygon id="Stroke-40" stroke="#2B8E9E" stroke-width="4" stroke-linecap="round" stroke-linejoin="round" points="326 332 374 332 374 244 326 244"></polygon>
                        <path d="M368.0001,292 C368.0001,293.104 367.1041,294 366.0001,294 C364.8961,294 364.0001,293.104 364.0001,292 C364.0001,290.896 364.8961,290 366.0001,290 C367.1041,290 368.0001,290.896 368.0001,292" id="Fill-41" fill="#FFFFFF"></path>
                        <polygon id="Fill-42" fill="#C2E9EC" points="4.0001 312 32.0001 312 28.0001 332 8.0001 332"></polygon>
                        <polygon id="Stroke-43" stroke="#C2E9EC" stroke-width="4" stroke-linecap="round" stroke-linejoin="round" points="4.0001 312 32.0001 312 28.0001 332 8.0001 332"></polygon>
                        <path d="M18.0001,266 C21.3131,266 24.0001,263.313 24.0001,260 C24.0001,256.687 21.3131,254 18.0001,254 C14.6871,254 12.0001,256.687 12.0001,260 C12.0001,263.313 14.6871,266 18.0001,266" id="Fill-44" fill="#FBE8CD"></path>
                        <path d="M18.0001,266 C21.3131,266 24.0001,263.313 24.0001,260 C24.0001,256.687 21.3131,254 18.0001,254 C14.6871,254 12.0001,256.687 12.0001,260 C12.0001,263.313 14.6871,266 18.0001,266 Z" id="Stroke-45" stroke="#FBE8CD" stroke-width="4" stroke-linecap="round" stroke-linejoin="round"></path>
                        <path d="M36.0001,290 C36.0001,285.162 32.5641,281.129 28.0001,280.202 L28.0001,279.241 C29.5411,277.478 30.3611,275.066 29.8471,272.434 C29.2911,269.59 27.1201,267.209 24.3501,266.36 C21.9811,265.634 19.7911,266.067 18.0001,267.109 C16.2091,266.067 14.0191,265.634 11.6501,266.36 C8.8801,267.209 6.7091,269.59 6.1531,272.434 C5.6391,275.066 6.4581,277.478 8.0001,279.241 L8.0001,280.202 C3.4361,281.129 0.0001,285.162 0.0001,290 C0.0001,294.195 2.5901,297.769 6.2551,299.246 C7.5231,299.759 8.5181,300.732 9.3811,301.795 C10.4741,303.139 12.1301,304 14.0001,304 L22.0001,304 C23.8701,304 25.5261,303.139 26.6191,301.795 C27.4821,300.732 28.4761,299.759 29.7451,299.246 C33.4101,297.769 36.0001,294.195 36.0001,290" id="Fill-46" fill="#FBE8CD"></path>
                        <path d="M36.0001,290 C36.0001,285.162 32.5641,281.129 28.0001,280.202 L28.0001,279.241 C29.5411,277.478 30.3611,275.066 29.8471,272.434 C29.2911,269.59 27.1201,267.209 24.3501,266.36 C21.9811,265.634 19.7911,266.067 18.0001,267.109 C16.2091,266.067 14.0191,265.634 11.6501,266.36 C8.8801,267.209 6.7091,269.59 6.1531,272.434 C5.6391,275.066 6.4581,277.478 8.0001,279.241 L8.0001,280.202 C3.4361,281.129 0.0001,285.162 0.0001,290 C0.0001,294.195 2.5901,297.769 6.2551,299.246 C7.5231,299.759 8.5181,300.732 9.3811,301.795 C10.4741,303.139 12.1301,304 14.0001,304 L22.0001,304 C23.8701,304 25.5261,303.139 26.6191,301.795 C27.4821,300.732 28.4761,299.759 29.7451,299.246 C33.4101,297.769 36.0001,294.195 36.0001,290 Z" id="Stroke-47" stroke="#FBE8CD" stroke-width="4" stroke-linecap="round" stroke-linejoin="round"></path>
                    </g>
                </g>
            </g>
        </g>
    </g>
</svg>