<?xml version="1.0" encoding="UTF-8"?>
<svg width="230px" height="120px" viewBox="0 0 230 120" version="1.1" xmlns="http://www.w3.org/2000/svg" xmlns:xlink="http://www.w3.org/1999/xlink">
    <!-- Generator: sketchtool 59.1 (101010) - https://sketch.com -->
    <title>17754426-4F23-4B9C-99D9-F80973F18D26</title>
    <desc>Created with sketchtool.</desc>
    <g id="Pages" stroke="none" stroke-width="1" fill="none" fill-rule="evenodd">
        <g id="Self-Storage-Solution" transform="translate(-245.000000, -948.000000)">
            <g id="section-2" transform="translate(218.000000, 735.000000)">
                <g id="cards" transform="translate(27.000000, 213.000000)">
                    <g id="illustration">
                        <g id="self-storage">
                            <polygon id="Fill-1" fill="#FFFFFF" points="0 120 230 120 230 0 0 0"></polygon>
                            <line x1="23" y1="119" x2="207" y2="119" id="Stroke-2" stroke="#46BBC4" stroke-width="2" stroke-linecap="round" stroke-linejoin="round"></line>
                            <polygon id="Fill-4" fill="#1C7F8A" points="109 115 121 115 121 97 109 97"></polygon>
                            <polygon id="Stroke-5" stroke="#1C7F8A" stroke-width="2" stroke-linecap="round" stroke-linejoin="round" points="109 115 121 115 121 97 109 97"></polygon>
                            <line x1="111" y1="113" x2="119" y2="113" id="Stroke-6" stroke="#46BBC4" stroke-width="2" stroke-linecap="round" stroke-linejoin="round"></line>
                            <polygon id="Stroke-7" stroke="#F4BA67" stroke-width="2" stroke-linecap="round" stroke-linejoin="round" points="115 29 43 47 43 57 115 39 187 57 187 47"></polygon>
                            <line x1="33" y1="115" x2="33" y2="98" id="Stroke-8" stroke="#A5CD7F" stroke-width="2" stroke-linecap="round" stroke-linejoin="round"></line>
                            <polyline id="Stroke-9" stroke="#FDEFDB" stroke-width="2" stroke-linecap="round" stroke-linejoin="round" points="49 51.7002 115 35.0002 181 51.7002"></polyline>
                            <line x1="183" y1="60" x2="183" y2="115" id="Stroke-10" stroke="#46BBC4" stroke-width="2" stroke-linecap="round" stroke-linejoin="round"></line>
                            <line x1="47" y1="60" x2="47" y2="115" id="Stroke-11" stroke="#46BBC4" stroke-width="2" stroke-linecap="round" stroke-linejoin="round"></line>
                            <polyline id="Stroke-12" stroke="#A7DFE3" stroke-width="2" stroke-linecap="round" stroke-linejoin="round" points="131 115 131 75 173 75 173 115"></polyline>
                            <line x1="135" y1="93" x2="169" y2="93" id="Stroke-13" stroke="#D3EFF1" stroke-width="2" stroke-linecap="round" stroke-linejoin="round"></line>
                            <line x1="135" y1="87" x2="169" y2="87" id="Stroke-14" stroke="#D3EFF1" stroke-width="2" stroke-linecap="round" stroke-linejoin="round"></line>
                            <line x1="135" y1="81" x2="169" y2="81" id="Stroke-15" stroke="#D3EFF1" stroke-width="2" stroke-linecap="round" stroke-linejoin="round"></line>
                            <line x1="135" y1="99" x2="169" y2="99" id="Stroke-16" stroke="#D3EFF1" stroke-width="2" stroke-linecap="round" stroke-linejoin="round"></line>
                            <line x1="135" y1="105" x2="169" y2="105" id="Stroke-17" stroke="#D3EFF1" stroke-width="2" stroke-linecap="round" stroke-linejoin="round"></line>
                            <line x1="135" y1="111" x2="169" y2="111" id="Stroke-18" stroke="#D3EFF1" stroke-width="2" stroke-linecap="round" stroke-linejoin="round"></line>
                            <polyline id="Stroke-19" stroke="#A7DFE3" stroke-width="2" stroke-linecap="round" stroke-linejoin="round" points="57 115 57 75 99 75 99 115"></polyline>
                            <line x1="61" y1="93" x2="95" y2="93" id="Stroke-20" stroke="#D3EFF1" stroke-width="2" stroke-linecap="round" stroke-linejoin="round"></line>
                            <line x1="61" y1="87" x2="95" y2="87" id="Stroke-21" stroke="#D3EFF1" stroke-width="2" stroke-linecap="round" stroke-linejoin="round"></line>
                            <line x1="61" y1="81" x2="95" y2="81" id="Stroke-22" stroke="#D3EFF1" stroke-width="2" stroke-linecap="round" stroke-linejoin="round"></line>
                            <line x1="61" y1="99" x2="95" y2="99" id="Stroke-23" stroke="#D3EFF1" stroke-width="2" stroke-linecap="round" stroke-linejoin="round"></line>
                            <line x1="61" y1="105" x2="95" y2="105" id="Stroke-24" stroke="#D3EFF1" stroke-width="2" stroke-linecap="round" stroke-linejoin="round"></line>
                            <line x1="61" y1="111" x2="95" y2="111" id="Stroke-25" stroke="#D3EFF1" stroke-width="2" stroke-linecap="round" stroke-linejoin="round"></line>
                            <path d="M120,57 C120,59.762 117.761,62 115,62 C112.239,62 110,59.762 110,57 C110,54.238 112.239,52 115,52 C117.761,52 120,54.238 120,57 Z" id="Stroke-26" stroke="#F57361" stroke-width="2" stroke-linecap="round" stroke-linejoin="round"></path>
                            <path d="M33,108 C44.514,108 41.635,103 36.533,100 C40.066,99 41.026,95 35.673,92.89 C38.67,92 36.918,88 33,88 C29.082,88 27.33,92 30.327,92.89 C24.974,95 25.934,99 29.467,100 C24.365,103 21.486,108 33,108 Z" id="Stroke-28" stroke="#A5CD7F" stroke-width="2" stroke-linecap="round" stroke-linejoin="round"></path>
                            <line x1="197" y1="115" x2="197" y2="98" id="Stroke-30" stroke="#A5CD7F" stroke-width="2" stroke-linecap="round" stroke-linejoin="round"></line>
                            <path d="M197,108 C208.514,108 205.635,103 200.533,100 C204.066,99 205.026,95 199.673,92.89 C202.67,92 200.918,88 197,88 C193.082,88 191.33,92 194.327,92.89 C188.974,95 189.934,99 193.467,100 C188.365,103 185.486,108 197,108 Z" id="Stroke-32" stroke="#A5CD7F" stroke-width="2" stroke-linecap="round" stroke-linejoin="round"></path>
                            <line x1="22" y1="56" x2="17" y2="61" id="Stroke-34" stroke="#FDEFDB" stroke-width="2" stroke-linecap="round" stroke-linejoin="round"></line>
                            <line x1="52" y1="16" x2="47" y2="11" id="Stroke-36" stroke="#FDEFDB" stroke-width="2" stroke-linecap="round" stroke-linejoin="round"></line>
                            <line x1="166" y1="18" x2="159" y2="25" id="Stroke-38" stroke="#FDEFDB" stroke-width="2" stroke-linecap="round" stroke-linejoin="round"></line>
                            <line x1="217" y1="43" x2="210.5" y2="36.5" id="Stroke-40" stroke="#FDEFDB" stroke-width="2" stroke-linecap="round" stroke-linejoin="round"></line>
                            <line x1="203" y1="70" x2="207" y2="66" id="Stroke-42" stroke="#FDEFDB" stroke-width="2" stroke-linecap="round" stroke-linejoin="round"></line>
                        </g>
                    </g>
                </g>
            </g>
        </g>
    </g>
</svg>