<?xml version="1.0" encoding="utf-8"?>
<!-- Generator: Adobe Illustrator 21.0.0, SVG Export Plug-In . SVG Version: 6.00 Build 0)  -->
<svg version="1.1" id="Слой_1" xmlns="http://www.w3.org/2000/svg" xmlns:xlink="http://www.w3.org/1999/xlink" x="0px" y="0px"
	 viewBox="0 0 242 134" style="enable-background:new 0 0 242 134;" xml:space="preserve">
<style type="text/css">
	.st0{fill:#FFFFFF;}
	.st1{fill:#D3EFF1;}
	.st2{fill:#FFFFFF;stroke:#000000;stroke-opacity:0.12;}
	.st3{fill:#A5CD7F;}
	.st4{fill:none;}
	.st5{fill:#D4E7C2;}
	.st6{enable-background:new    ;}
	.st7{fill:#525252;}
	.st8{opacity:0.64;fill:#46BBC4;enable-background:new    ;}
	.st9{opacity:0.32;fill:#46BBC4;enable-background:new    ;}
	.st10{fill:#46BBC4;}
</style>
<g>
	<rect id="path-1" class="st0" width="242" height="134"/>
</g>
<title>E3D9DBCA-DF72-4875-9D86-22426D6F2013</title>
<desc>Created with sketchtool.</desc>
<g id="Pricing">
	<g id="Pricing---Core-Features" transform="translate(-373.000000, -1817.000000)">
		<g id="section-3" transform="translate(81.000000, 1194.000000)">
			<g id="list" transform="translate(0.000000, 109.000000)">
				<g id="item" transform="translate(292.000000, 514.000000)">
					<g id="image">
						<g id="service-pro-portal">
							<g id="mask">
								<rect id="path-1_1_" class="st1" width="242" height="134"/>
							</g>
							<g id="design">
								<g transform="translate(27.000000, 25.000000)">
									<g id="box">
										<g>
											<path id="path-3_1_" d="M2,0h184c1.1,0,2,0.9,2,2v80c0,1.1-0.9,2-2,2H2c-1.1,0-2-0.9-2-2V2C0,0.9,0.9,0,2,0z"/>
										</g>
										<path class="st2" d="M2-0.5h184c1.4,0,2.5,1.1,2.5,2.5v80c0,1.4-1.1,2.5-2.5,2.5H2c-1.4,0-2.5-1.1-2.5-2.5V2
											C-0.5,0.6,0.6-0.5,2-0.5z"/>
									</g>
									<path id="box_1_" class="st3" d="M2,0h71l0,0v84H2c-1.1,0-2-0.9-2-2V2C0,0.9,0.9,0,2,0z"/>
									<g id="icon-_x2F_-48x48-_x2F_-section-role-_x2F_-service-pro" transform="translate(13.000000, 18.000000)">
										<g>
											<rect id="bounds" x="1" class="st4" width="48" height="48"/>
											<path id="Shape" class="st0" d="M48,26.5c0-0.7-0.4-2.4-3.4-2.9c-1.1-0.2-2.3-0.3-3.5-0.3c0.4-0.5,0.5-1.2,0.3-1.8
												C38.8,14,32.1,1.8,16.9,4.3C10.8,5.2,5.4,9,2.4,14.4c-2.8,5.4-3.1,11.7-0.8,17.3l-1,1C0.2,33.1,0,33.6,0,34.2
												s0.2,1,0.6,1.4l1.9,1.9C3,38,3.8,38.2,4.5,38c11.1-3.7,22.5-6.2,34.1-7.6c2.1-0.2,4.2-0.5,6.3-0.9
												C47.8,28.8,48,27,48,26.5L48,26.5z M44.5,27.5c-2,0.4-4,0.7-6.1,0.8c-11.7,1.4-23.3,4-34.5,7.7L2,34.2l1-0.9
												c0.6-0.5,0.7-1.4,0.4-2.1C1.3,26,1.6,20.3,4.2,15.4c2.7-4.9,7.5-8.3,13.1-9.1C30.9,4.1,37,15.2,39.4,22.1
												c-2.4,0.3-4.8,0.8-7.1,1.5h-0.1c-0.3,0.1-0.6,0.3-0.7,0.6c-0.2,0.3-0.2,0.6-0.1,1c0.2,0.6,0.8,1,1.5,0.8
												c3.7-0.7,7.6-0.9,11.3-0.4c1.1,0.2,1.8,0.5,1.8,1C46,26.8,45.6,27.3,44.5,27.5L44.5,27.5z"/>
											<path id="Path" class="st5" d="M17.9,10c-4.3,0.6-8.1,3.2-10.2,7c-1.1,2.1-1.7,4.4-1.6,6.8c0,0.5,0.5,1,1,1l0,0
												c0.6,0,1-0.5,1-1c-0.1-2,0.4-4,1.4-5.8c1.8-3.2,5.1-5.5,8.8-6c0.5-0.1,0.9-0.6,0.8-1.1C18.9,10.3,18.4,9.9,17.9,10z"/>
											<path id="Path_1_" class="st5" d="M25.1,34.4c-0.2-0.3-0.6-0.4-1-0.3c-6,1.3-12,3-17.8,4.9c-0.3,0.1-0.5,0.3-0.6,0.5
												c-0.1,0.3-0.1,0.5-0.1,0.8l0.1,0.4c0.2,0.5,0.5,0.9,1,1.2l3.8,2c1,0.5,2.1,0.1,2.6-0.9l1.3-2.6c0.1-0.3,0.4-0.4,0.6-0.5
												l8.2-1.7c0.7-0.1,1.2-0.7,1.5-1.3l0.4-1.3C25.5,35,25.4,34.6,25.1,34.4L25.1,34.4z"/>
										</g>
									</g>
									<g id="text" transform="translate(89.000000, 13.000000)">
										<g class="st6">
											<g class="st6">
												<path class="st7" d="M0.3,8l0.9-0.1c0,0.5,0.1,0.9,0.3,1.1s0.4,0.3,0.8,0.3c0.2,0,0.4-0.1,0.6-0.2C3,9,3.1,8.9,3.2,8.7
													c0.1-0.2,0.1-0.5,0.1-0.9V2.8h0.9v4.9c0,0.6-0.1,1.1-0.2,1.4S3.6,9.7,3.3,9.9s-0.7,0.3-1.1,0.3c-0.6,0-1.1-0.2-1.4-0.5
													S0.3,8.7,0.3,8z"/>
												<path class="st7" d="M5.3,7.4c0-1,0.3-1.7,0.8-2.1c0.4-0.4,1-0.6,1.6-0.6c0.7,0,1.3,0.2,1.7,0.7
													c0.5,0.5,0.7,1.1,0.7,1.9c0,0.7-0.1,1.2-0.3,1.6C9.7,9.3,9.4,9.6,9,9.8c-0.4,0.2-0.8,0.3-1.3,0.3C7,10.1,6.5,9.9,6,9.4
													C5.6,9,5.3,8.3,5.3,7.4z M6.2,7.4c0,0.7,0.1,1.2,0.4,1.5C7,9.2,7.3,9.4,7.8,9.4c0.4,0,0.8-0.2,1.1-0.5s0.4-0.8,0.4-1.5
													c0-0.6-0.1-1.1-0.4-1.5C8.6,5.6,8.2,5.4,7.8,5.4C7.3,5.4,7,5.6,6.7,5.9S6.2,6.7,6.2,7.4z"/>
												<path class="st7" d="M11.2,10V4.8H12v0.7c0.4-0.6,0.9-0.9,1.7-0.9c0.3,0,0.6,0.1,0.9,0.2C14.8,5,15,5.1,15.1,5.3
													s0.2,0.4,0.3,0.6c0,0.2,0,0.4,0,0.9V10h-0.9V6.8c0-0.4,0-0.6-0.1-0.8c-0.1-0.2-0.2-0.3-0.4-0.4
													c-0.2-0.1-0.4-0.2-0.6-0.2c-0.4,0-0.7,0.1-1,0.4c-0.3,0.2-0.4,0.7-0.4,1.4V10H11.2z"/>
												<path class="st7" d="M20.3,8.3l0.9,0.1c-0.1,0.5-0.4,0.9-0.8,1.2s-0.9,0.4-1.5,0.4c-0.8,0-1.4-0.2-1.8-0.7
													c-0.4-0.5-0.7-1.1-0.7-2c0-0.9,0.2-1.5,0.7-2s1-0.7,1.7-0.7c0.7,0,1.3,0.2,1.7,0.7s0.7,1.1,0.7,2c0,0.1,0,0.1,0,0.2
													h-3.9c0,0.6,0.2,1,0.5,1.3s0.7,0.5,1.1,0.5c0.3,0,0.6-0.1,0.8-0.3S20.2,8.7,20.3,8.3z M17.4,6.9h2.9
													c0-0.4-0.2-0.8-0.3-1c-0.3-0.3-0.6-0.5-1.1-0.5c-0.4,0-0.7,0.1-1,0.4C17.6,6.1,17.5,6.5,17.4,6.9z"/>
												<path class="st7" d="M22,8.5l0.9-0.1c0,0.3,0.2,0.6,0.4,0.8c0.2,0.2,0.5,0.3,0.9,0.3c0.4,0,0.7-0.1,0.9-0.2
													c0.2-0.2,0.3-0.4,0.3-0.6c0-0.2-0.1-0.4-0.3-0.5C25,8,24.7,7.9,24.2,7.8c-0.6-0.2-1.1-0.3-1.3-0.4
													c-0.3-0.1-0.4-0.3-0.6-0.5c-0.1-0.2-0.2-0.4-0.2-0.7c0-0.2,0.1-0.4,0.2-0.6c0.1-0.2,0.3-0.4,0.4-0.5
													c0.1-0.1,0.3-0.2,0.6-0.3c0.2-0.1,0.5-0.1,0.8-0.1c0.4,0,0.8,0.1,1.1,0.2c0.3,0.1,0.5,0.3,0.7,0.5
													c0.1,0.2,0.2,0.5,0.3,0.8l-0.9,0.1c0-0.3-0.2-0.5-0.3-0.6c-0.2-0.1-0.5-0.2-0.8-0.2c-0.4,0-0.7,0.1-0.9,0.2
													S23,5.9,23,6.1c0,0.1,0,0.2,0.1,0.3c0.1,0.1,0.2,0.2,0.3,0.2c0.1,0,0.3,0.1,0.8,0.2c0.6,0.2,1.1,0.3,1.3,0.4
													c0.2,0.1,0.4,0.3,0.6,0.5s0.2,0.5,0.2,0.8c0,0.3-0.1,0.6-0.3,0.8c-0.2,0.3-0.4,0.5-0.7,0.6c-0.3,0.1-0.7,0.2-1.1,0.2
													c-0.7,0-1.2-0.1-1.5-0.4C22.3,9.4,22.1,9,22,8.5z"/>
												<path class="st7" d="M35.3,7.5l0.9,0.2c-0.2,0.8-0.6,1.4-1.1,1.8c-0.5,0.4-1.1,0.6-1.9,0.6c-0.8,0-1.4-0.2-1.9-0.5
													c-0.5-0.3-0.9-0.8-1.1-1.4C30.1,7.7,30,7.1,30,6.4c0-0.7,0.1-1.4,0.4-2c0.3-0.6,0.7-1,1.2-1.3c0.5-0.3,1.1-0.4,1.7-0.4
													c0.7,0,1.3,0.2,1.8,0.5s0.8,0.9,1,1.5L35.2,5c-0.2-0.5-0.4-0.9-0.7-1.1s-0.7-0.4-1.2-0.4c-0.6,0-1,0.1-1.4,0.4
													c-0.4,0.3-0.6,0.6-0.8,1.1c-0.2,0.4-0.2,0.9-0.2,1.4C30.9,7,31,7.5,31.2,8c0.2,0.5,0.5,0.8,0.8,1s0.8,0.3,1.2,0.3
													c0.5,0,1-0.2,1.3-0.5S35.2,8.1,35.3,7.5z"/>
												<path class="st7" d="M37,7.4c0-1,0.3-1.7,0.8-2.1c0.4-0.4,1-0.6,1.6-0.6c0.7,0,1.3,0.2,1.7,0.7c0.5,0.5,0.7,1.1,0.7,1.9
													c0,0.7-0.1,1.2-0.3,1.6c-0.2,0.4-0.5,0.7-0.9,0.9c-0.4,0.2-0.8,0.3-1.3,0.3c-0.7,0-1.3-0.2-1.8-0.7
													C37.2,9,37,8.3,37,7.4z M37.9,7.4c0,0.7,0.1,1.2,0.4,1.5c0.3,0.3,0.7,0.5,1.1,0.5c0.4,0,0.8-0.2,1.1-0.5S41,8.1,41,7.4
													c0-0.6-0.1-1.1-0.4-1.5c-0.3-0.3-0.7-0.5-1.1-0.5c-0.4,0-0.8,0.2-1.1,0.5S37.9,6.7,37.9,7.4z"/>
												<path class="st7" d="M42.9,10V4.8h0.8v0.7c0.4-0.6,0.9-0.9,1.7-0.9c0.3,0,0.6,0.1,0.9,0.2c0.3,0.1,0.5,0.3,0.6,0.4
													S47,5.7,47.1,6c0,0.2,0,0.4,0,0.9V10h-0.9V6.8c0-0.4,0-0.6-0.1-0.8c-0.1-0.2-0.2-0.3-0.4-0.4c-0.2-0.1-0.4-0.2-0.6-0.2
													c-0.4,0-0.7,0.1-1,0.4c-0.3,0.2-0.4,0.7-0.4,1.4V10H42.9z"/>
												<path class="st7" d="M50.4,9.2l0.1,0.8c-0.2,0.1-0.5,0.1-0.7,0.1c-0.3,0-0.6-0.1-0.7-0.2s-0.3-0.2-0.4-0.4
													c-0.1-0.2-0.1-0.5-0.1-1v-3H48V4.8h0.6V3.5L49.5,3v1.8h0.9v0.7h-0.9v3c0,0.3,0,0.4,0,0.5c0,0.1,0.1,0.1,0.2,0.2
													c0.1,0,0.2,0.1,0.3,0.1C50.1,9.2,50.2,9.2,50.4,9.2z"/>
												<path class="st7" d="M51.2,10V4.8H52v0.8c0.2-0.4,0.4-0.6,0.6-0.7c0.2-0.1,0.4-0.2,0.6-0.2c0.3,0,0.6,0.1,0.9,0.3
													l-0.3,0.8c-0.2-0.1-0.4-0.2-0.6-0.2c-0.2,0-0.4,0.1-0.5,0.2c-0.2,0.1-0.3,0.3-0.3,0.5c-0.1,0.3-0.1,0.7-0.1,1V10H51.2z"
													/>
												<path class="st7" d="M58,9.4c-0.3,0.3-0.6,0.5-0.9,0.6c-0.3,0.1-0.6,0.2-1,0.2c-0.6,0-1-0.1-1.3-0.4
													c-0.3-0.3-0.5-0.6-0.5-1.1c0-0.3,0.1-0.5,0.2-0.7c0.1-0.2,0.3-0.4,0.5-0.5c0.2-0.1,0.4-0.2,0.6-0.3
													c0.2,0,0.4-0.1,0.8-0.1c0.7-0.1,1.2-0.2,1.6-0.3c0-0.1,0-0.2,0-0.2c0-0.4-0.1-0.6-0.2-0.8c-0.2-0.2-0.6-0.3-1-0.3
													c-0.4,0-0.7,0.1-0.9,0.2c-0.2,0.1-0.3,0.4-0.4,0.8l-0.9-0.1c0.1-0.4,0.2-0.7,0.4-0.9C55,5.2,55.3,5,55.6,4.9
													c0.3-0.1,0.7-0.2,1.2-0.2c0.4,0,0.8,0.1,1.1,0.2s0.5,0.2,0.6,0.4c0.1,0.2,0.2,0.4,0.3,0.6c0,0.1,0,0.4,0,0.8v1.2
													c0,0.8,0,1.3,0.1,1.5c0,0.2,0.1,0.4,0.2,0.6h-0.9C58,9.8,58,9.6,58,9.4z M57.9,7.4c-0.3,0.1-0.8,0.2-1.4,0.3
													c-0.4,0.1-0.6,0.1-0.8,0.2s-0.3,0.2-0.3,0.3c-0.1,0.1-0.1,0.3-0.1,0.4c0,0.2,0.1,0.4,0.3,0.6c0.2,0.2,0.4,0.2,0.8,0.2
													c0.3,0,0.6-0.1,0.9-0.2c0.3-0.1,0.5-0.4,0.6-0.6c0.1-0.2,0.1-0.5,0.1-0.9V7.4z"/>
												<path class="st7" d="M63.5,8.1l0.9,0.1c-0.1,0.6-0.3,1.1-0.7,1.4c-0.4,0.3-0.9,0.5-1.4,0.5c-0.7,0-1.3-0.2-1.7-0.7
													c-0.4-0.5-0.6-1.1-0.6-2c0-0.6,0.1-1,0.3-1.5S60.6,5.2,61,5c0.4-0.2,0.8-0.3,1.2-0.3c0.6,0,1,0.1,1.4,0.4
													c0.4,0.3,0.6,0.7,0.7,1.2l-0.9,0.1c-0.1-0.3-0.2-0.6-0.4-0.8c-0.2-0.2-0.5-0.3-0.8-0.3c-0.4,0-0.8,0.2-1.1,0.5
													c-0.3,0.3-0.4,0.8-0.4,1.5c0,0.7,0.1,1.2,0.4,1.5s0.6,0.5,1,0.5c0.3,0,0.6-0.1,0.9-0.3S63.5,8.5,63.5,8.1z"/>
												<path class="st7" d="M67.1,9.2l0.1,0.8c-0.2,0.1-0.5,0.1-0.7,0.1c-0.3,0-0.6-0.1-0.7-0.2s-0.3-0.2-0.4-0.4
													c-0.1-0.2-0.1-0.5-0.1-1v-3h-0.6V4.8h0.6V3.5L66.2,3v1.8h0.9v0.7h-0.9v3c0,0.3,0,0.4,0,0.5c0,0.1,0.1,0.1,0.2,0.2
													c0.1,0,0.2,0.1,0.3,0.1C66.8,9.2,66.9,9.2,67.1,9.2z"/>
												<path class="st7" d="M67.9,3.9v-1h0.9v1H67.9z M67.9,10V4.8h0.9V10H67.9z"/>
												<path class="st7" d="M70.1,10V4.8h0.8v0.7c0.4-0.6,0.9-0.9,1.7-0.9c0.3,0,0.6,0.1,0.9,0.2C73.7,5,73.9,5.1,74,5.3
													s0.2,0.4,0.3,0.6c0,0.2,0,0.4,0,0.9V10h-0.9V6.8c0-0.4,0-0.6-0.1-0.8c-0.1-0.2-0.2-0.3-0.4-0.4
													c-0.2-0.1-0.4-0.2-0.6-0.2c-0.4,0-0.7,0.1-1,0.4C71.2,6.1,71,6.5,71,7.2V10H70.1z"/>
												<path class="st7" d="M75.5,10.4l0.9,0.1c0,0.3,0.1,0.5,0.3,0.6c0.2,0.2,0.5,0.2,0.9,0.2c0.4,0,0.7-0.1,0.9-0.2
													s0.4-0.4,0.4-0.7c0-0.2,0.1-0.6,0.1-1.1c-0.4,0.5-0.9,0.7-1.4,0.7c-0.7,0-1.3-0.3-1.7-0.8s-0.6-1.1-0.6-1.9
													c0-0.5,0.1-1,0.3-1.4c0.2-0.4,0.4-0.7,0.8-1c0.3-0.2,0.7-0.3,1.2-0.3c0.6,0,1.1,0.2,1.5,0.7V4.8h0.8v4.5
													c0,0.8-0.1,1.4-0.2,1.7c-0.2,0.3-0.4,0.6-0.8,0.8c-0.4,0.2-0.8,0.3-1.3,0.3c-0.6,0-1.1-0.1-1.5-0.4
													C75.7,11.4,75.5,11,75.5,10.4z M76.3,7.3c0,0.7,0.1,1.2,0.4,1.5s0.6,0.5,1,0.5c0.4,0,0.7-0.2,1-0.5
													C79,8.5,79.1,8,79.1,7.3c0-0.6-0.1-1.1-0.4-1.4c-0.3-0.3-0.6-0.5-1-0.5c-0.4,0-0.7,0.2-1,0.5
													C76.4,6.2,76.3,6.7,76.3,7.3z"/>
											</g>
										</g>
										<path id="Rectangle" class="st8" d="M2,18h16c1.1,0,2,0.9,2,2s-0.9,2-2,2H2c-1.1,0-2-0.9-2-2S0.9,18,2,18z"/>
										<path id="Rectangle_1_" class="st8" d="M26,18h40c1.1,0,2,0.9,2,2s-0.9,2-2,2H26c-1.1,0-2-0.9-2-2S24.9,18,26,18z"/>
										<path id="Rectangle_2_" class="st9" d="M1,26h39c0.6,0,1,0.4,1,1s-0.4,1-1,1H1c-0.6,0-1-0.4-1-1S0.4,26,1,26z"/>
										<path id="Rectangle_3_" class="st9" d="M46,26h29c0.6,0,1,0.4,1,1s-0.4,1-1,1H46c-0.6,0-1-0.4-1-1S45.4,26,46,26z"/>
									</g>
									<g id="button" transform="translate(89.000000, 49.000000)">
										<path id="Rectangle_4_" class="st10" d="M9.5,0h59C73.7,0,78,4.3,78,9.5S73.7,19,68.5,19h-59C4.3,19,0,14.7,0,9.5
											S4.3,0,9.5,0z"/>
										<g class="st6">
											<g class="st6">
												<path class="st0" d="M11,13L9.1,5.8h1l1.1,4.7c0.1,0.5,0.2,1,0.3,1.5c0.2-0.8,0.3-1.2,0.3-1.3l1.4-4.8h1.1l1,3.6
													c0.3,0.9,0.4,1.7,0.6,2.5c0.1-0.5,0.2-1,0.4-1.6l1.1-4.6h1l-2,7.2h-0.9l-1.5-5.5c-0.1-0.5-0.2-0.7-0.2-0.8
													c-0.1,0.3-0.1,0.6-0.2,0.8L12,13H11z"/>
												<path class="st0" d="M18.6,10.4c0-1,0.3-1.7,0.8-2.1c0.4-0.4,1-0.6,1.6-0.6c0.7,0,1.3,0.2,1.7,0.7
													c0.5,0.5,0.7,1.1,0.7,1.9c0,0.7-0.1,1.2-0.3,1.6c-0.2,0.4-0.5,0.7-0.9,0.9c-0.4,0.2-0.8,0.3-1.3,0.3
													c-0.7,0-1.3-0.2-1.8-0.7C18.8,12,18.6,11.3,18.6,10.4z M19.5,10.4c0,0.7,0.1,1.2,0.4,1.5c0.3,0.3,0.7,0.5,1.1,0.5
													c0.4,0,0.8-0.2,1.1-0.5s0.4-0.8,0.4-1.5c0-0.6-0.1-1.1-0.4-1.5c-0.3-0.3-0.7-0.5-1.1-0.5c-0.4,0-0.8,0.2-1.1,0.5
													S19.5,9.7,19.5,10.4z"/>
												<path class="st0" d="M24.5,13V7.8h0.8v0.8c0.2-0.4,0.4-0.6,0.6-0.7c0.2-0.1,0.4-0.2,0.6-0.2c0.3,0,0.6,0.1,0.9,0.3
													L27,8.8c-0.2-0.1-0.4-0.2-0.6-0.2c-0.2,0-0.4,0.1-0.5,0.2c-0.2,0.1-0.3,0.3-0.3,0.5c-0.1,0.3-0.1,0.7-0.1,1V13H24.5z"/>
												<path class="st0" d="M27.8,13V5.8h0.9v4.1l2.1-2.1h1.1l-2,1.9l2.2,3.3H31l-1.7-2.7l-0.6,0.6V13H27.8z"/>
												<path class="st0" d="M35.4,9.5c0-1.2,0.3-2.1,1-2.8c0.6-0.7,1.5-1,2.5-1c0.7,0,1.3,0.2,1.8,0.5s0.9,0.8,1.2,1.3
													c0.3,0.6,0.4,1.2,0.4,1.9c0,0.7-0.1,1.4-0.4,1.9s-0.7,1-1.2,1.3c-0.5,0.3-1.1,0.4-1.7,0.4c-0.7,0-1.3-0.2-1.8-0.5
													s-0.9-0.8-1.2-1.3S35.4,10.1,35.4,9.5z M36.4,9.5c0,0.9,0.2,1.5,0.7,2c0.5,0.5,1,0.7,1.7,0.7c0.7,0,1.3-0.3,1.8-0.8
													c0.5-0.5,0.7-1.2,0.7-2.1c0-0.6-0.1-1.1-0.3-1.5c-0.2-0.4-0.5-0.8-0.9-1c-0.4-0.2-0.8-0.4-1.3-0.4
													c-0.7,0-1.2,0.2-1.7,0.7C36.6,7.7,36.4,8.5,36.4,9.5z"/>
												<path class="st0" d="M43.4,13V7.8h0.8v0.8c0.2-0.4,0.4-0.6,0.6-0.7c0.2-0.1,0.4-0.2,0.6-0.2c0.3,0,0.6,0.1,0.9,0.3
													l-0.3,0.8c-0.2-0.1-0.4-0.2-0.6-0.2c-0.2,0-0.4,0.1-0.5,0.2c-0.2,0.1-0.3,0.3-0.3,0.5c-0.1,0.3-0.1,0.7-0.1,1V13H43.4z"
													/>
												<path class="st0" d="M50.1,13v-0.7c-0.3,0.5-0.8,0.8-1.5,0.8c-0.4,0-0.8-0.1-1.1-0.3c-0.3-0.2-0.6-0.5-0.8-1
													c-0.2-0.4-0.3-0.9-0.3-1.4c0-0.5,0.1-1,0.3-1.4c0.2-0.4,0.4-0.7,0.8-1s0.7-0.3,1.2-0.3c0.3,0,0.6,0.1,0.8,0.2
													C49.6,8,49.8,8.2,50,8.4V5.8h0.9V13H50.1z M47.3,10.4c0,0.7,0.1,1.2,0.4,1.5s0.6,0.5,1,0.5c0.4,0,0.7-0.2,1-0.5
													c0.3-0.3,0.4-0.8,0.4-1.4c0-0.7-0.1-1.2-0.4-1.6s-0.6-0.5-1-0.5c-0.4,0-0.7,0.2-1,0.5C47.4,9.2,47.3,9.7,47.3,10.4z"/>
												<path class="st0" d="M55.8,11.3l0.9,0.1c-0.1,0.5-0.4,0.9-0.8,1.2s-0.9,0.4-1.5,0.4c-0.8,0-1.4-0.2-1.8-0.7
													c-0.4-0.5-0.7-1.1-0.7-2c0-0.9,0.2-1.5,0.7-2s1-0.7,1.7-0.7c0.7,0,1.3,0.2,1.7,0.7s0.7,1.1,0.7,2c0,0.1,0,0.1,0,0.2
													h-3.9c0,0.6,0.2,1,0.5,1.3s0.7,0.5,1.1,0.5c0.3,0,0.6-0.1,0.8-0.3S55.7,11.7,55.8,11.3z M52.9,9.9h2.9
													c0-0.4-0.2-0.8-0.3-1c-0.3-0.3-0.6-0.5-1.1-0.5c-0.4,0-0.7,0.1-1,0.4C53.1,9.1,53,9.5,52.9,9.9z"/>
												<path class="st0" d="M57.8,13V7.8h0.8v0.8C58.8,8.2,59,8,59.2,7.9c0.2-0.1,0.4-0.2,0.6-0.2c0.3,0,0.6,0.1,0.9,0.3
													l-0.3,0.8c-0.2-0.1-0.4-0.2-0.6-0.2c-0.2,0-0.4,0.1-0.5,0.2c-0.2,0.1-0.3,0.3-0.3,0.5c-0.1,0.3-0.1,0.7-0.1,1V13H57.8z"
													/>
												<path class="st0" d="M60.8,11.5l0.9-0.1c0,0.3,0.2,0.6,0.4,0.8c0.2,0.2,0.5,0.3,0.9,0.3c0.4,0,0.7-0.1,0.9-0.2
													c0.2-0.2,0.3-0.4,0.3-0.6c0-0.2-0.1-0.4-0.3-0.5c-0.1-0.1-0.4-0.2-0.9-0.3c-0.6-0.2-1.1-0.3-1.3-0.4
													c-0.3-0.1-0.4-0.3-0.6-0.5c-0.1-0.2-0.2-0.4-0.2-0.7c0-0.2,0.1-0.4,0.2-0.6c0.1-0.2,0.3-0.4,0.4-0.5
													c0.1-0.1,0.3-0.2,0.6-0.3c0.2-0.1,0.5-0.1,0.8-0.1c0.4,0,0.8,0.1,1.1,0.2c0.3,0.1,0.5,0.3,0.7,0.5
													c0.1,0.2,0.2,0.5,0.3,0.8L64,9.3c0-0.3-0.2-0.5-0.3-0.6c-0.2-0.1-0.5-0.2-0.8-0.2c-0.4,0-0.7,0.1-0.9,0.2
													s-0.3,0.3-0.3,0.5c0,0.1,0,0.2,0.1,0.3c0.1,0.1,0.2,0.2,0.3,0.2c0.1,0,0.3,0.1,0.8,0.2c0.6,0.2,1.1,0.3,1.3,0.4
													c0.2,0.1,0.4,0.3,0.6,0.5s0.2,0.5,0.2,0.8c0,0.3-0.1,0.6-0.3,0.8c-0.2,0.3-0.4,0.5-0.7,0.6c-0.3,0.1-0.7,0.2-1.1,0.2
													c-0.7,0-1.2-0.1-1.5-0.4C61.1,12.4,60.9,12,60.8,11.5z"/>
											</g>
										</g>
									</g>
								</g>
							</g>
						</g>
					</g>
				</g>
			</g>
		</g>
	</g>
</g>
</svg>
