<?xml version="1.0" encoding="UTF-8"?>
<svg width="400px" height="120px" viewBox="0 0 400 120" version="1.1" xmlns="http://www.w3.org/2000/svg" xmlns:xlink="http://www.w3.org/1999/xlink">
    <!-- Generator: sketchtool 59.1 (101010) - https://sketch.com -->
    <title>B4FF3919-FF3A-41F1-9F2A-0A6BBBF795DB</title>
    <desc>Created with sketchtool.</desc>
    <g id="Pages" stroke="none" stroke-width="1" fill="none" fill-rule="evenodd">
        <g id="Residential-Solution" transform="translate(-160.000000, -932.000000)">
            <g id="section-2" transform="translate(120.000000, 735.000000)">
                <g id="cards" transform="translate(0.000000, 197.000000)">
                    <g id="left">
                        <g id="single-family-homes-townhomes-illustration" transform="translate(40.000000, 0.000000)">
                            <polygon id="Fill-1" fill="#FFFFFF" points="0 120 400 120 400 0 0 0"></polygon>
                            <line x1="33" y1="119" x2="367" y2="119" id="Stroke-2" stroke="#46BBC4" stroke-width="2" stroke-linecap="round" stroke-linejoin="round"></line>
                            <line x1="129" y1="59" x2="129" y2="115" id="Stroke-4" stroke="#46BBC4" stroke-width="2" stroke-linecap="round" stroke-linejoin="round"></line>
                            <line x1="63" y1="59" x2="63" y2="104" id="Stroke-5" stroke="#46BBC4" stroke-width="2" stroke-linecap="round" stroke-linejoin="round"></line>
                            <polygon id="Fill-6" fill="#1C7F8A" points="107 115 119 115 119 97 107 97"></polygon>
                            <polygon id="Stroke-7" stroke="#1C7F8A" stroke-width="2" stroke-linecap="round" stroke-linejoin="round" points="107 115 119 115 119 97 107 97"></polygon>
                            <polygon id="Stroke-8" stroke="#A7DFE3" stroke-width="2" stroke-linecap="round" stroke-linejoin="round" points="73 109 99 109 99 97 73 97"></polygon>
                            <polygon id="Stroke-9" stroke="#A7DFE3" stroke-width="2" stroke-linecap="round" stroke-linejoin="round" points="73 77 85 77 85 65 73 65"></polygon>
                            <polygon id="Stroke-10" stroke="#A7DFE3" stroke-width="2" stroke-linecap="round" stroke-linejoin="round" points="107 77 119 77 119 65 107 65"></polygon>
                            <line x1="109" y1="113" x2="117" y2="113" id="Stroke-11" stroke="#46BBC4" stroke-width="2" stroke-linecap="round" stroke-linejoin="round"></line>
                            <line x1="67" y1="87" x2="125" y2="87" id="Stroke-12" stroke="#D3EFF1" stroke-width="2" stroke-linecap="round" stroke-linejoin="round"></line>
                            <polygon id="Stroke-13" stroke="#F4BA67" stroke-width="2" stroke-linecap="round" stroke-linejoin="round" points="96 29 59 47 59 57 96 39 133 57 133 47"></polygon>
                            <polyline id="Stroke-14" stroke="#FDEFDB" stroke-width="2" stroke-linecap="round" stroke-linejoin="round" points="63 51.0498 96 34.9998 129 51.0498"></polyline>
                            <polyline id="Stroke-15" stroke="#46BBC4" stroke-width="2" stroke-linecap="round" stroke-linejoin="round" points="130 77 173 77 173 115"></polyline>
                            <polyline id="Stroke-16" stroke="#F57361" stroke-width="2" stroke-linecap="round" stroke-linejoin="round" points="133 67 167 67 173 73"></polyline>
                            <line x1="167" y1="73" x2="133" y2="73" id="Stroke-17" stroke="#FDDED9" stroke-width="2" stroke-linecap="round" stroke-linejoin="round"></line>
                            <polyline id="Stroke-18" stroke="#A7DFE3" stroke-width="2" stroke-linecap="round" stroke-linejoin="round" points="135 115 135 87 167 87 167 115"></polyline>
                            <line x1="139" y1="93" x2="163" y2="93" id="Stroke-19" stroke="#D3EFF1" stroke-width="2" stroke-linecap="round" stroke-linejoin="round"></line>
                            <line x1="139" y1="99" x2="163" y2="99" id="Stroke-20" stroke="#D3EFF1" stroke-width="2" stroke-linecap="round" stroke-linejoin="round"></line>
                            <line x1="139" y1="105" x2="163" y2="105" id="Stroke-21" stroke="#D3EFF1" stroke-width="2" stroke-linecap="round" stroke-linejoin="round"></line>
                            <line x1="139" y1="111" x2="163" y2="111" id="Stroke-22" stroke="#D3EFF1" stroke-width="2" stroke-linecap="round" stroke-linejoin="round"></line>
                            <path d="M39,115 C40,110.085 46,106.153 51,110.085 C53,106.153 58,106.153 60,109.102 C63,107.136 68,108.119 69,113.034 C72,112.051 74,113.034 75,115" id="Stroke-23" stroke="#A5CD7F" stroke-width="2" stroke-linecap="round" stroke-linejoin="round"></path>
                            <path d="M177,105.3882 C180,102.5052 184,104.4272 185,108.2722 C190,108.2722 192,111.1552 192,115.0002" id="Stroke-25" stroke="#A5CD7F" stroke-width="2" stroke-linecap="round" stroke-linejoin="round"></path>
                            <line x1="20" y1="119" x2="20" y2="104" id="Stroke-27" stroke="#FDEFDB" stroke-width="2" stroke-linecap="round" stroke-linejoin="round"></line>
                            <polyline id="Stroke-29" stroke="#FDEFDB" stroke-width="2" stroke-linecap="round" stroke-linejoin="round" points="20 104 38 104 28 87 36 87 24 69 31 69 20 53 9 69 16 69 4 87 12 87 2 104 20 104"></polyline>
                            <line x1="335" y1="87" x2="293" y2="87" id="Stroke-31" stroke="#D3EFF1" stroke-width="2" stroke-linecap="round" stroke-linejoin="round"></line>
                            <line x1="335" y1="55" x2="293" y2="55" id="Stroke-33" stroke="#D3EFF1" stroke-width="2" stroke-linecap="round" stroke-linejoin="round"></line>
                            <line x1="339" y1="53" x2="339" y2="103" id="Stroke-35" stroke="#46BBC4" stroke-width="2" stroke-linecap="round" stroke-linejoin="round"></line>
                            <polygon id="Fill-37" fill="#1C7F8A" points="301 115 309 115 309 97 301 97"></polygon>
                            <polygon id="Stroke-39" stroke="#1C7F8A" stroke-width="2" stroke-linecap="round" stroke-linejoin="round" points="301 115 309 115 309 97 301 97"></polygon>
                            <polyline id="Stroke-40" stroke="#F4BA67" stroke-width="2" stroke-linecap="round" stroke-linejoin="round" points="293 49 341 49 341 39 293 39"></polyline>
                            <line x1="336" y1="45" x2="293" y2="45" id="Stroke-41" stroke="#FDEFDB" stroke-width="2" stroke-linecap="round" stroke-linejoin="round"></line>
                            <polygon id="Stroke-42" stroke="#A7DFE3" stroke-width="2" stroke-linecap="round" stroke-linejoin="round" points="301 77 309 77 309 65 301 65"></polygon>
                            <polygon id="Stroke-43" stroke="#A7DFE3" stroke-width="2" stroke-linecap="round" stroke-linejoin="round" points="319 77 327 77 327 65 319 65"></polygon>
                            <polygon id="Stroke-44" stroke="#A7DFE3" stroke-width="2" stroke-linecap="round" stroke-linejoin="round" points="319 105 327 105 327 97 319 97"></polygon>
                            <line x1="307" y1="113" x2="303" y2="113" id="Stroke-45" stroke="#46BBC4" stroke-width="2" stroke-linecap="round" stroke-linejoin="round"></line>
                            <line x1="285" y1="87" x2="243" y2="87" id="Stroke-46" stroke="#D3EFF1" stroke-width="2" stroke-linecap="round" stroke-linejoin="round"></line>
                            <line x1="285" y1="55" x2="243" y2="55" id="Stroke-47" stroke="#D3EFF1" stroke-width="2" stroke-linecap="round" stroke-linejoin="round"></line>
                            <line x1="289" y1="39" x2="289" y2="115" id="Stroke-48" stroke="#46BBC4" stroke-width="2" stroke-linecap="round" stroke-linejoin="round"></line>
                            <line x1="239" y1="115" x2="239" y2="53" id="Stroke-49" stroke="#46BBC4" stroke-width="2" stroke-linecap="round" stroke-linejoin="round"></line>
                            <polygon id="Fill-50" fill="#1C7F8A" points="251 115 259 115 259 97 251 97"></polygon>
                            <polygon id="Stroke-51" stroke="#1C7F8A" stroke-width="2" stroke-linecap="round" stroke-linejoin="round" points="251 115 259 115 259 97 251 97"></polygon>
                            <line x1="257" y1="113" x2="253" y2="113" id="Stroke-52" stroke="#46BBC4" stroke-width="2" stroke-linecap="round" stroke-linejoin="round"></line>
                            <polyline id="Stroke-53" stroke="#F57361" stroke-width="2" stroke-linecap="round" stroke-linejoin="round" points="285 39 237 39 237 49 285 49"></polyline>
                            <line x1="285" y1="45" x2="241" y2="45" id="Stroke-54" stroke="#FDDED9" stroke-width="2" stroke-linecap="round" stroke-linejoin="round"></line>
                            <polygon id="Stroke-55" stroke="#A7DFE3" stroke-width="2" stroke-linecap="round" stroke-linejoin="round" points="251 77 259 77 259 65 251 65"></polygon>
                            <polygon id="Stroke-56" stroke="#A7DFE3" stroke-width="2" stroke-linecap="round" stroke-linejoin="round" points="269 77 277 77 277 65 269 65"></polygon>
                            <polygon id="Stroke-57" stroke="#A7DFE3" stroke-width="2" stroke-linecap="round" stroke-linejoin="round" points="269 105 277 105 277 97 269 97"></polygon>
                            <path d="M327.0303,115 C327.2693,111.09 330.5303,108 334.5003,108 C335.0503,108 335.5903,108.06 336.1103,108.18 C337.2303,107.43 338.5603,107 340.0003,107 C340.7403,107 341.4603,107.12 342.1303,107.33 C342.6603,104.86 344.8603,103 347.5003,103 C349.3203,103 350.9293,103.89 351.9293,105.25 C352.5903,105.09 353.2903,105 354.0003,105 C358.9693,105 363.0003,109.03 363.0003,114 C363.0003,114.34 362.9803,114.67 362.9393,115" id="Stroke-58" stroke="#A5CD7F" stroke-width="2" stroke-linecap="round" stroke-linejoin="round"></path>
                            <line x1="217" y1="89" x2="213" y2="85" id="Stroke-59" stroke="#A5CD7F" stroke-width="2" stroke-linecap="round" stroke-linejoin="round"></line>
                            <line x1="217" y1="97" x2="221" y2="93" id="Stroke-60" stroke="#A5CD7F" stroke-width="2" stroke-linecap="round" stroke-linejoin="round"></line>
                            <path d="M221,102.79 C226.71,100.77 230.86,94.69 230.86,87.5 C230.86,78.66 224.59,71.5 216.86,71.5 C209.13,71.5 202.86,78.66 202.86,87.5 C202.86,96.34 209.13,103.5 216.86,103.5 L217,103.5" id="Stroke-61" stroke="#A5CD7F" stroke-width="2" stroke-linecap="round" stroke-linejoin="round"></path>
                            <line x1="217" y1="115" x2="217" y2="80" id="Stroke-62" stroke="#A5CD7F" stroke-width="2" stroke-linecap="round" stroke-linejoin="round"></line>
                            <polyline id="Stroke-67" stroke="#FDEFDB" stroke-width="2" stroke-linecap="round" stroke-linejoin="round" points="399 40 381 40 381 108"></polyline>
                            <polyline id="Stroke-68" stroke="#FDEFDB" stroke-width="2" stroke-linecap="round" stroke-linejoin="round" points="350 65 361 65 361 91"></polyline>
                        </g>
                    </g>
                </g>
            </g>
        </g>
    </g>
</svg>