<svg width="48" height="48" xmlns="http://www.w3.org/2000/svg"><g fill="none" fill-rule="evenodd"><path d="M0 0h48v48H0z"/><path d="M22.044 44C10.129 44.002.37 34.555.007 22.67-.355 10.783 8.81.761 20.703.04 32.595-.68 42.91 8.159 43.993 20a1.001 1.001 0 1 1-1.996.179c-.795-8.703-7.158-15.885-15.715-17.737C17.724.591 8.952 4.497 4.617 12.09a19.976 19.976 0 0 0 2.73 23.52 20.074 20.074 0 0 0 23.3 4.449 1.004 1.004 0 0 1 1.48.97 1 1 0 0 1-.613.83A22.042 22.042 0 0 1 22.044 44z" fill="#46BBC4"/><path d="M30 29.455a.523.523 0 0 1-.5.545h-15a.524.524 0 0 1-.5-.544c.033-3.633.455-5.18 3.436-6.076 1.432-.43 2.236-1.054 2.487-1.788a.16.16 0 0 0-.128-.206 8.462 8.462 0 0 1-2.291-.769.264.264 0 0 1-.128-.328c.356-1.037.64-2.097.853-3.173.333-1.812-.813-3.202.354-5.39A2.113 2.113 0 0 1 21 10.428a3.227 3.227 0 0 1 4.736 2.012c.556 1.69-.249 3.126.036 4.675.212 1.076.496 2.136.852 3.173a.264.264 0 0 1-.128.328 8.475 8.475 0 0 1-2.291.769.16.16 0 0 0-.128.206c.251.734 1.055 1.358 2.487 1.788 2.981.895 3.4 2.443 3.436 6.076" fill="#1C7F8A"/><path d="M29 34H15a1 1 0 0 1 0-2h14a1 1 0 0 1 0 2z" fill="#F4BA67"/><path d="M47.513 27.964a6.284 6.284 0 0 0-8.25-3.482 6.484 6.484 0 0 0-3.418 8.413c.342.85.865 1.615 1.531 2.243L33.032 45.82a.433.433 0 0 0 0 .328l.645 1.586c.068.17.239.278.423.265l2.655-.192a.428.428 0 0 0 .39-.46l-.173-2.491 1.852-1.636c.1-.09.154-.221.144-.356l-.176-2.53 2.957-3.473a6.194 6.194 0 0 0 2.35-.488 6.484 6.484 0 0 0 3.414-8.409zm-5.798 2.601a1.5 1.5 0 1 1 1.059-.438 1.499 1.499 0 0 1-1.064.438h.005z" fill="#F57361" fill-rule="nonzero"/></g></svg>