<?xml version="1.0" encoding="utf-8"?>
<!-- Generator: Adobe Illustrator 21.0.0, SVG Export Plug-In . SVG Version: 6.00 Build 0)  -->
<svg version="1.1" id="Слой_1" xmlns="http://www.w3.org/2000/svg" xmlns:xlink="http://www.w3.org/1999/xlink" x="0px" y="0px"
	 viewBox="0 0 242 134" style="enable-background:new 0 0 242 134;" xml:space="preserve">
<style type="text/css">
	.st0{fill:#FFFFFF;}
	.st1{fill:#D3EFF1;}
	.st2{fill:#FFFFFF;stroke:#000000;stroke-opacity:0.12;}
	.st3{fill:#F4BA67;}
	.st4{fill:#C63E2B;}
	.st5{fill:#A18FE7;}
	.st6{fill:#715CC3;}
	.st7{fill:#FFCDC6;}
	.st8{fill:#A23F36;}
	.st9{opacity:0.5;fill:#A23F36;enable-background:new    ;}
	.st10{fill:#FF6651;}
	.st11{opacity:0.23;fill:#A23F36;enable-background:new    ;}
	.st12{enable-background:new    ;}
	.st13{fill:#525252;}
	.st14{opacity:0.64;fill:#46BBC4;enable-background:new    ;}
	.st15{opacity:0.32;fill:#46BBC4;enable-background:new    ;}
	.st16{fill:#46BBC4;}
</style>
<g>
	<rect id="path-1" class="st0" width="242" height="134"/>
</g>
<title>50B4D59A-AD91-4429-8E9A-109459DE82DC</title>
<desc>Created with sketchtool.</desc>
<g id="Pricing">
	<g id="Pricing---Core-Features" transform="translate(-81.000000, -1817.000000)">
		<g id="section-3" transform="translate(81.000000, 1194.000000)">
			<g id="list" transform="translate(0.000000, 109.000000)">
				<g id="item" transform="translate(0.000000, 514.000000)">
					<g id="image">
						<g id="tenant-portal">
							<g id="mask">
								<rect id="path-1_1_" class="st1" width="242" height="134"/>
							</g>
							<g id="design">
								<g transform="translate(37.000000, 25.000000)">
									<g id="box">
										<g>
											<path id="path-3_1_" d="M28,0h112c15.5,0,28,12.5,28,28s-12.5,28-28,28H28C12.5,56,0,43.5,0,28S12.5,0,28,0z"/>
										</g>
										<path class="st2" d="M28-0.5h112c15.7,0,28.5,12.8,28.5,28.5S155.7,56.5,140,56.5H28C12.3,56.5-0.5,43.7-0.5,28
											S12.3-0.5,28-0.5z"/>
									</g>
									<g id="avatar" transform="translate(112.000000, 0.000000)">
										<path id="Fill-1" class="st3" d="M28,56C12.5,56,0,43.5,0,28S12.5,0,28,0s28,12.5,28,28S43.5,56,28,56z"/>
										<path id="Path-2" class="st4" d="M25.9,40.7c-5.5,1.8-12.4-2.3-11.5-10.1c0,0-5.1-3.7-0.5-8.7c0,0-3.7-5.5,2.8-8.7
											c0,0,2.3-7.8,9.2-2.3c0,0,7.4-4.1,9.7,2.7c0,0,4.6-1.8,6,4.6c0,0,3.2,2.3,0.9,5.5c0,0,3.7,4.1-0.5,8.2c0,0,1.8,8.7-6,8.7
											c0,0-2.8,5.5-7.4,2.3L25.9,40.7z"/>
										<path id="Fill-7" class="st5" d="M29.5,51.2c-0.5,1.6-1,3.2-1.5,4.8l0,0c-5.4,0-10.4-1.5-14.7-4.2
											c4.4-5.5,8.8-7.1,10.9-14.3c0,0,0.4,6.6,5.1,13.6L29.5,51.2z"/>
										<path id="Fill-10" class="st6" d="M42.5,52c-4.2,2.6-9.2,4-14.5,4c0.5-1.6,1.1-3.2,1.5-4.8c1.2-4.3,2-8.8,2-13.6
											C33.6,44.8,38,46.3,42.5,52"/>
										<path id="Fill-13" class="st7" d="M27.9,18.1c11,0,7,13.9,3.7,19.4c-2.6,4.4-4.4,4.4-7.3,0C20.5,32,16.9,18.1,27.9,18.1"
											/>
										<path id="Fill-15" class="st8" d="M25.7,34.7c0.4,0.3,0.8,0.5,1.2,0.7c0.4,0.2,0.8,0.3,1.2,0.3c0.4,0,0.8-0.1,1.2-0.3
											c0.4-0.2,0.8-0.5,1.1-0.8l0,0c0.1-0.1,0.3-0.1,0.4,0s0.1,0.2,0,0.3c-0.1,0.2-0.3,0.4-0.5,0.6c-0.2,0.2-0.4,0.4-0.6,0.6
											c-0.4,0.4-1,0.5-1.6,0.6c-0.6,0-1.2-0.1-1.7-0.4c-0.5-0.3-0.9-0.7-1.2-1.2c-0.1-0.1,0-0.3,0.1-0.3
											C25.5,34.6,25.6,34.6,25.7,34.7L25.7,34.7z"/>
										<path id="Fill-17" class="st8" d="M25.7,26.5c0,0.4-0.3,0.7-0.7,0.7c-0.4,0-0.7-0.3-0.7-0.7c0-0.4,0.3-0.7,0.7-0.7
											C25.3,25.8,25.7,26.1,25.7,26.5"/>
										<path id="Fill-19" class="st8" d="M30.4,26.5c0,0.4,0.3,0.7,0.7,0.7s0.7-0.3,0.7-0.7c0-0.4-0.3-0.7-0.7-0.7
											S30.4,26.1,30.4,26.5"/>
										<path id="Fill-21" class="st9" d="M30.2,23.9c0.2-0.2,0.5-0.2,0.8-0.3c0.3,0,0.5,0,0.8,0.1c0.5,0.1,1,0.5,1.2,1
											c0.1,0.1,0,0.3-0.1,0.4c-0.1,0-0.1,0-0.2,0l0,0c-0.2-0.1-0.4-0.2-0.6-0.2c-0.2-0.1-0.4-0.1-0.6-0.2s-0.4-0.1-0.6-0.1
											s-0.4-0.1-0.6-0.1h-0.1c-0.1,0-0.2-0.2-0.2-0.3C30.1,24,30.1,24,30.2,23.9"/>
										<path id="Fill-23" class="st9" d="M25.4,24.4c-0.2,0.1-0.4,0.1-0.6,0.1c-0.2,0.1-0.4,0.1-0.6,0.1s-0.4,0.1-0.6,0.2
											S23.2,24.9,23,25l0,0c-0.1,0-0.3,0-0.3-0.2c0-0.1,0-0.1,0-0.2c0.2-0.5,0.7-0.8,1.2-1c0.3-0.1,0.5-0.1,0.8-0.1
											s0.5,0.1,0.8,0.3c0.1,0.1,0.2,0.2,0.1,0.4C25.6,24.3,25.5,24.4,25.4,24.4L25.4,24.4z"/>
										<path id="Fill-25" class="st10" d="M28.2,27.1c0,0.9,0.1,1.8,0.3,2.8c0.2,0.9,0.5,1.8,1,2.6l0,0l0.1-0.6
											c-0.1,0.1-0.3,0.3-0.4,0.3c-0.2,0.1-0.3,0.2-0.5,0.2c-0.4,0.1-0.8,0.1-1.2-0.1l0,0c-0.1,0-0.3,0-0.3,0.1s0,0.2,0.1,0.3
											c0.4,0.3,1,0.4,1.5,0.4c0.3,0,0.5-0.1,0.8-0.2c0.3-0.1,0.5-0.2,0.7-0.4c0.2-0.1,0.2-0.4,0.1-0.6l0,0l0,0
											c-0.5-0.7-0.8-1.5-1.1-2.3c-0.3-0.8-0.5-1.7-0.5-2.5l0,0c0-0.1-0.1-0.2-0.3-0.2C28.3,26.9,28.2,27,28.2,27.1"/>
										<path id="Fill-27" class="st7" d="M31.5,37.5c0,1.2-0.1,2.4-0.1,3.6c-0.3,3.5-0.9,6.8-1.9,10L29.3,51
											c-2.4-3.6-3.7-7-4.4-9.6c-0.6-2.4-0.7-4-0.7-4C27.1,41.9,28.9,41.9,31.5,37.5"/>
										<path id="Fill-29" class="st11" d="M31.5,37.5c0,1.2-0.1,2.4-0.1,3.6c-0.9,1-2.1,1.7-3.4,1.7c-1.1,0-2.1-0.5-3-1.3
											c-0.6-2.4-0.7-4-0.7-4C27.1,41.9,28.9,41.9,31.5,37.5"/>
										<path id="Fill-31" class="st4" d="M28,15.7c0,0-4.8,9-13.7,13.9C14.3,29.6,9.6,21.1,28,15.7"/>
										<path id="Fill-33" class="st4" d="M19.5,17.2c0,0,6.8-1.7,17.4,10.5C37,27.7,42.5,10.5,19.5,17.2"/>
									</g>
									<g id="text" transform="translate(24.000000, 14.000000)">
										<g class="st12">
											<g class="st12">
												<path class="st13" d="M0,10l2.7-7.2h1L6.7,10H5.6L4.8,7.8h-3L1,10H0z M2.1,7.1h2.4l-0.7-2C3.5,4.5,3.3,4,3.2,3.6
													C3.1,4.1,3,4.5,2.8,5L2.1,7.1z"/>
												<path class="st13" d="M7,8.5l0.9-0.1c0,0.3,0.2,0.6,0.4,0.8s0.5,0.3,0.9,0.3c0.4,0,0.7-0.1,0.9-0.2
													c0.2-0.2,0.3-0.4,0.3-0.6c0-0.2-0.1-0.4-0.3-0.5C10,8,9.7,7.9,9.2,7.8C8.6,7.6,8.1,7.5,7.9,7.4C7.6,7.3,7.4,7.1,7.3,6.9
													C7.2,6.7,7.1,6.4,7.1,6.2c0-0.2,0.1-0.4,0.2-0.6c0.1-0.2,0.3-0.4,0.4-0.5C7.9,5,8,4.9,8.3,4.8C8.5,4.7,8.8,4.7,9,4.7
													c0.4,0,0.8,0.1,1.1,0.2s0.5,0.3,0.7,0.5c0.1,0.2,0.2,0.5,0.3,0.8l-0.9,0.1c0-0.3-0.2-0.5-0.3-0.6S9.4,5.4,9.1,5.4
													c-0.4,0-0.7,0.1-0.9,0.2S8,5.9,8,6.1c0,0.1,0,0.2,0.1,0.3c0.1,0.1,0.2,0.2,0.3,0.2c0.1,0,0.3,0.1,0.8,0.2
													c0.6,0.2,1.1,0.3,1.3,0.4c0.2,0.1,0.4,0.3,0.6,0.5s0.2,0.5,0.2,0.8c0,0.3-0.1,0.6-0.3,0.8c-0.2,0.3-0.4,0.5-0.7,0.6
													C10,10,9.6,10.1,9.2,10.1C8.5,10.1,8,10,7.7,9.7S7.1,9,7,8.5z"/>
												<path class="st13" d="M12.3,10V2.8h0.9v2.6c0.4-0.5,0.9-0.7,1.6-0.7c0.4,0,0.7,0.1,1,0.2c0.3,0.2,0.5,0.4,0.6,0.6
													s0.2,0.7,0.2,1.2V10h-0.9V6.7c0-0.4-0.1-0.8-0.3-1c-0.2-0.2-0.5-0.3-0.8-0.3c-0.3,0-0.5,0.1-0.7,0.2
													c-0.2,0.1-0.4,0.3-0.5,0.5s-0.1,0.5-0.1,1V10H12.3z"/>
												<path class="st13" d="M17.9,10V2.8h0.9V10H17.9z"/>
												<path class="st13" d="M23.7,8.3l0.9,0.1c-0.1,0.5-0.4,0.9-0.8,1.2s-0.9,0.4-1.5,0.4c-0.8,0-1.4-0.2-1.8-0.7
													c-0.4-0.5-0.7-1.1-0.7-2c0-0.9,0.2-1.5,0.7-2s1-0.7,1.7-0.7c0.7,0,1.3,0.2,1.7,0.7s0.7,1.1,0.7,2c0,0.1,0,0.1,0,0.2
													h-3.9c0,0.6,0.2,1,0.5,1.3s0.7,0.5,1.1,0.5c0.3,0,0.6-0.1,0.8-0.3S23.5,8.7,23.7,8.3z M20.8,6.9h2.9
													c0-0.4-0.1-0.8-0.3-1c-0.3-0.3-0.6-0.5-1.1-0.5c-0.4,0-0.7,0.1-1,0.4S20.8,6.5,20.8,6.9z"/>
												<path class="st13" d="M25.6,12l-0.1-0.8c0.2,0.1,0.4,0.1,0.5,0.1c0.2,0,0.4,0,0.5-0.1s0.2-0.2,0.3-0.3
													c0.1-0.1,0.1-0.3,0.3-0.7c0,0,0-0.1,0.1-0.2l-2-5.2h0.9l1.1,3c0.1,0.4,0.3,0.8,0.4,1.2c0.1-0.4,0.2-0.8,0.4-1.2l1.1-3
													h0.9l-2,5.3c-0.2,0.6-0.4,1-0.5,1.2c-0.2,0.3-0.3,0.5-0.5,0.6c-0.2,0.1-0.4,0.2-0.7,0.2C26,12.1,25.8,12.1,25.6,12z"/>
												<path class="st13" d="M36.9,7.2V6.4l3,0V9c-0.5,0.4-0.9,0.7-1.4,0.8c-0.5,0.2-1,0.3-1.5,0.3c-0.7,0-1.3-0.2-1.9-0.5
													c-0.6-0.3-1-0.7-1.3-1.3s-0.4-1.2-0.4-1.9c0-0.7,0.1-1.3,0.4-2c0.3-0.6,0.7-1.1,1.3-1.3s1.2-0.4,1.9-0.4
													c0.5,0,1,0.1,1.4,0.3c0.4,0.2,0.7,0.4,1,0.7s0.4,0.7,0.5,1.2L39,5.1c-0.1-0.4-0.2-0.7-0.4-0.9s-0.4-0.4-0.7-0.5
													c-0.3-0.1-0.6-0.2-1-0.2c-0.4,0-0.8,0.1-1.1,0.2C35.5,3.9,35.2,4,35,4.2S34.7,4.7,34.6,5c-0.2,0.4-0.3,0.9-0.3,1.4
													c0,0.6,0.1,1.2,0.3,1.6s0.5,0.7,1,1s0.9,0.3,1.3,0.3c0.4,0,0.8-0.1,1.2-0.2c0.4-0.2,0.7-0.3,0.9-0.5V7.2H36.9z"/>
												<path class="st13" d="M41.2,3.9v-1h0.9v1H41.2z M41.2,10V4.8h0.9V10H41.2z"/>
												<path class="st13" d="M43.4,10V2.8h0.9V10H43.4z"/>
												<path class="st13" d="M45.7,10V2.8h0.9V10H45.7z"/>
												<path class="st13" d="M51.3,9.4c-0.3,0.3-0.6,0.5-0.9,0.6s-0.6,0.2-1,0.2c-0.6,0-1-0.1-1.3-0.4
													c-0.3-0.3-0.5-0.6-0.5-1.1c0-0.3,0.1-0.5,0.2-0.7c0.1-0.2,0.3-0.4,0.5-0.5s0.4-0.2,0.6-0.3c0.2,0,0.4-0.1,0.8-0.1
													c0.7-0.1,1.2-0.2,1.6-0.3c0-0.1,0-0.2,0-0.2c0-0.4-0.1-0.6-0.2-0.8c-0.2-0.2-0.6-0.3-1-0.3c-0.4,0-0.7,0.1-0.9,0.2
													c-0.2,0.1-0.3,0.4-0.4,0.8l-0.9-0.1c0.1-0.4,0.2-0.7,0.4-0.9c0.2-0.2,0.4-0.4,0.8-0.5c0.3-0.1,0.7-0.2,1.2-0.2
													c0.4,0,0.8,0.1,1.1,0.2s0.5,0.2,0.6,0.4c0.1,0.2,0.2,0.4,0.3,0.6c0,0.1,0,0.4,0,0.8v1.2c0,0.8,0,1.3,0.1,1.5
													c0,0.2,0.1,0.4,0.2,0.6h-0.9C51.4,9.8,51.3,9.6,51.3,9.4z M51.2,7.4c-0.3,0.1-0.8,0.2-1.4,0.3c-0.4,0.1-0.6,0.1-0.8,0.2
													s-0.3,0.2-0.3,0.3c-0.1,0.1-0.1,0.3-0.1,0.4c0,0.2,0.1,0.4,0.3,0.6s0.4,0.2,0.8,0.2c0.3,0,0.6-0.1,0.9-0.2
													c0.3-0.1,0.5-0.4,0.6-0.6c0.1-0.2,0.1-0.5,0.1-0.9V7.4z"/>
												<path class="st13" d="M53.4,10V4.8h0.8v0.8c0.2-0.4,0.4-0.6,0.6-0.7s0.4-0.2,0.6-0.2c0.3,0,0.6,0.1,0.9,0.3L56,5.8
													c-0.2-0.1-0.4-0.2-0.6-0.2c-0.2,0-0.4,0.1-0.5,0.2c-0.2,0.1-0.3,0.3-0.3,0.5c-0.1,0.3-0.1,0.7-0.1,1V10H53.4z"/>
												<path class="st13" d="M60.2,10V9.3c-0.3,0.5-0.8,0.8-1.5,0.8c-0.4,0-0.8-0.1-1.1-0.3s-0.6-0.5-0.8-1
													c-0.2-0.4-0.3-0.9-0.3-1.4c0-0.5,0.1-1,0.3-1.4c0.2-0.4,0.4-0.7,0.8-1s0.7-0.3,1.2-0.3c0.3,0,0.6,0.1,0.8,0.2
													c0.2,0.1,0.4,0.3,0.6,0.5V2.8H61V10H60.2z M57.4,7.4c0,0.7,0.1,1.2,0.4,1.5s0.6,0.5,1,0.5c0.4,0,0.7-0.2,1-0.5
													c0.3-0.3,0.4-0.8,0.4-1.4c0-0.7-0.1-1.2-0.4-1.6s-0.6-0.5-1-0.5c-0.4,0-0.7,0.2-1,0.5S57.4,6.7,57.4,7.4z"/>
											</g>
										</g>
										<path id="Rectangle" class="st14" d="M2,18h48c1.1,0,2,0.9,2,2s-0.9,2-2,2H2c-1.1,0-2-0.9-2-2S0.9,18,2,18z"/>
										<path id="Rectangle_1_" class="st15" d="M1,26h30c0.6,0,1,0.4,1,1s-0.4,1-1,1H1c-0.6,0-1-0.4-1-1S0.4,26,1,26z"/>
										<path id="Rectangle_2_" class="st15" d="M37,26h22c0.6,0,1,0.4,1,1s-0.4,1-1,1H37c-0.6,0-1-0.4-1-1S36.4,26,37,26z"/>
									</g>
									<g id="button" transform="translate(59.000000, 64.000000)">
										<path id="Rectangle_3_" class="st16" d="M9.5,0h31C45.7,0,50,4.3,50,9.5S45.7,19,40.5,19h-31C4.3,19,0,14.7,0,9.5
											S4.3,0,9.5,0z"/>
										<g class="st12">
											<g class="st12">
												<path class="st0" d="M9.4,10.7l0.9-0.1c0,0.4,0.1,0.7,0.3,0.9c0.2,0.2,0.4,0.4,0.7,0.6c0.3,0.1,0.7,0.2,1.1,0.2
													c0.4,0,0.7-0.1,1-0.2s0.5-0.3,0.6-0.4c0.1-0.2,0.2-0.4,0.2-0.6c0-0.2-0.1-0.4-0.2-0.6c-0.1-0.2-0.3-0.3-0.6-0.4
													c-0.2-0.1-0.6-0.2-1.3-0.3c-0.7-0.2-1.1-0.3-1.4-0.4c-0.3-0.2-0.6-0.4-0.8-0.7C9.8,8.3,9.7,8,9.7,7.7
													c0-0.4,0.1-0.7,0.3-1c0.2-0.3,0.5-0.6,0.9-0.7s0.8-0.2,1.3-0.2c0.5,0,1,0.1,1.4,0.3c0.4,0.2,0.7,0.4,0.9,0.8
													s0.3,0.7,0.4,1.1L14,7.9c0-0.5-0.2-0.8-0.5-1s-0.7-0.3-1.2-0.3c-0.6,0-1,0.1-1.3,0.3c-0.3,0.2-0.4,0.5-0.4,0.8
													c0,0.3,0.1,0.5,0.3,0.6c0.2,0.2,0.7,0.3,1.4,0.5c0.8,0.2,1.3,0.3,1.6,0.5c0.4,0.2,0.7,0.4,0.9,0.7
													c0.2,0.3,0.3,0.6,0.3,1c0,0.4-0.1,0.7-0.3,1.1c-0.2,0.3-0.5,0.6-0.9,0.8c-0.4,0.2-0.9,0.3-1.4,0.3
													c-0.6,0-1.2-0.1-1.6-0.3s-0.8-0.5-1-0.9C9.6,11.6,9.5,11.2,9.4,10.7z"/>
												<path class="st0" d="M16.3,6.9v-1h0.9v1H16.3z M16.3,13V7.8h0.9V13H16.3z"/>
												<path class="st0" d="M18.4,13.4l0.9,0.1c0,0.3,0.1,0.5,0.3,0.6c0.2,0.2,0.5,0.2,0.9,0.2c0.4,0,0.7-0.1,0.9-0.2
													s0.4-0.4,0.4-0.7c0-0.2,0.1-0.6,0.1-1.1C21.5,12.8,21,13,20.5,13c-0.7,0-1.3-0.3-1.7-0.8s-0.6-1.1-0.6-1.9
													c0-0.5,0.1-1,0.3-1.4c0.2-0.4,0.4-0.7,0.8-1s0.7-0.3,1.2-0.3c0.6,0,1.1,0.2,1.5,0.7V7.8h0.8v4.5c0,0.8-0.1,1.4-0.2,1.7
													c-0.2,0.3-0.4,0.6-0.8,0.8s-0.8,0.3-1.3,0.3c-0.6,0-1.1-0.1-1.5-0.4C18.6,14.4,18.4,14,18.4,13.4z M19.1,10.3
													c0,0.7,0.1,1.2,0.4,1.5s0.6,0.5,1,0.5c0.4,0,0.7-0.2,1-0.5c0.3-0.3,0.4-0.8,0.4-1.5c0-0.6-0.1-1.1-0.4-1.4
													s-0.6-0.5-1-0.5c-0.4,0-0.7,0.2-1,0.5C19.3,9.2,19.1,9.7,19.1,10.3z"/>
												<path class="st0" d="M24.1,13V7.8h0.8v0.7c0.4-0.6,0.9-0.9,1.7-0.9c0.3,0,0.6,0.1,0.9,0.2C27.7,8,27.9,8.1,28,8.3
													s0.2,0.4,0.3,0.6c0,0.2,0,0.4,0,0.9V13h-0.9V9.8c0-0.4,0-0.6-0.1-0.8c-0.1-0.2-0.2-0.3-0.4-0.4
													c-0.2-0.1-0.4-0.2-0.6-0.2c-0.4,0-0.7,0.1-1,0.4S25,9.5,25,10.2V13H24.1z"/>
												<path class="st0" d="M32.7,13V5.8h0.9V13H32.7z"/>
												<path class="st0" d="M35.2,13V7.8H36v0.7C36.4,8,37,7.7,37.7,7.7c0.3,0,0.6,0.1,0.9,0.2C38.8,8,39,8.1,39.1,8.3
													s0.2,0.4,0.3,0.6c0,0.2,0,0.4,0,0.9V13h-0.9V9.8c0-0.4,0-0.6-0.1-0.8c-0.1-0.2-0.2-0.3-0.4-0.4
													c-0.2-0.1-0.4-0.2-0.6-0.2c-0.4,0-0.7,0.1-1,0.4c-0.3,0.2-0.4,0.7-0.4,1.4V13H35.2z"/>
											</g>
										</g>
									</g>
								</g>
							</g>
						</g>
					</g>
				</g>
			</g>
		</g>
	</g>
</g>
</svg>
