<?xml version="1.0" encoding="utf-8"?>
<!-- Generator: Adobe Illustrator 21.0.0, SVG Export Plug-In . SVG Version: 6.00 Build 0)  -->
<svg version="1.1" id="Слой_1" xmlns="http://www.w3.org/2000/svg" xmlns:xlink="http://www.w3.org/1999/xlink" x="0px" y="0px"
	 viewBox="0 0 242 134" style="enable-background:new 0 0 242 134;" xml:space="preserve">
<style type="text/css">
	.st0{fill:#FFFFFF;}
	.st1{fill:#D3EFF1;}
	.st2{fill:#FFFFFF;stroke:#000000;stroke-opacity:0.12;}
	.st3{fill:#717171;}
	.st4{enable-background:new    ;}
	.st5{fill:#525252;}
	.st6{fill:#E9E9E9;}
	.st7{fill:#FDEFDB;}
	.st8{opacity:0.64;fill:#46BBC4;enable-background:new    ;}
	.st9{opacity:0.32;fill:#46BBC4;enable-background:new    ;}
</style>
<g>
	<rect id="path-1" class="st0" width="242" height="134"/>
</g>
<title>5E77C7A4-58D8-453C-8536-CB15C3991090</title>
<desc>Created with sketchtool.</desc>
<g id="Pricing">
	<g id="Pricing---Core-Features" transform="translate(-957.000000, -2074.000000)">
		<g id="section-3" transform="translate(81.000000, 1194.000000)">
			<g id="list" transform="translate(0.000000, 109.000000)">
				<g id="item" transform="translate(876.000000, 771.000000)">
					<g id="image">
						<g id="work-orders">
							<g id="mask">
								<rect id="path-1_1_" class="st1" width="242" height="134"/>
							</g>
							<g id="design">
								<g transform="translate(39.000000, 27.000000)">
									<g id="box">
										<g>
											<path id="path-3_1_" d="M2,0h160c1.1,0,2,0.9,2,2v106l0,0H0V2C0,0.9,0.9,0,2,0z"/>
										</g>
										<path class="st2" d="M2-0.5h160c1.4,0,2.5,1.1,2.5,2.5v106.5h-165V2C-0.5,0.6,0.6-0.5,2-0.5z"/>
									</g>
									<g id="icon-_x2F_-16x16-_x2F_-service-pro-services" transform="translate(10.000000, 10.000000)">
										<g id="Color">
											<path class="st3" d="M8.6,9.9L9,9.8l-0.2,0.7c-0.1,0.2-0.2,0.3-0.4,0.3l-1.6,0.3l-0.3,0.6C6.4,11.9,6.3,12,6.1,12H6
												l-0.1-0.1l-0.8-0.4c-0.1-0.1-0.2-0.2-0.2-0.3L4.8,11L5,10.8C6.2,10.5,7.4,10.2,8.6,9.9L8.6,9.9z M12.8,8.2
												c0,0.1,0,0.3-0.5,0.4c-0.4,0.1-0.8,0.1-1.2,0.2c-2.3,0.3-4.5,0.8-6.7,1.5c-0.1,0-0.1,0-0.2,0L3.8,9.9L3.7,9.8
												c0,0,0-0.1,0.1-0.1L4,9.4c0.1-0.1,0.1-0.1,0-0.2C3.6,8.2,3.7,7,4.2,6c0.6-1,1.6-1.7,2.7-1.9c2.8-0.5,4.1,1.8,4.6,3.3l0,0
												v0.1l-0.1,0.1c-0.5,0.1-0.9,0.2-1.4,0.3l0,0l0,0l0,0c0,0,0,0,0.1,0c0.8-0.2,1.5-0.2,2.3-0.1C12.7,7.9,12.7,8.1,12.8,8.2
												L12.8,8.2z M7.3,5.2c0-0.1,0-0.1-0.1-0.2c0,0-0.1,0-0.2,0C6.2,5.1,5.4,5.6,5,6.4C4.8,6.8,4.7,7.3,4.7,7.8
												C4.7,7.9,4.8,8,4.9,8l0,0C5,8,5.1,7.9,5.1,7.7c0-0.4,0.1-0.8,0.3-1.1c0.3-0.6,1-1.1,1.7-1.2C7.3,5.5,7.4,5.3,7.3,5.2
												L7.3,5.2z M16,8c0,5.5-2.5,8-8,8s-8-2.5-8-8s2.5-8,8-8S16,2.5,16,8z M14,8c0-4.4-1.6-6-6-6S2,3.6,2,8s1.6,6,6,6
												S14,12.4,14,8z"/>
										</g>
									</g>
									<g class="st4">
										<g class="st4">
											<path class="st3" d="M34,21l-1.9-7.2h1l1.1,4.7c0.1,0.5,0.2,1,0.3,1.5c0.2-0.8,0.3-1.2,0.3-1.3l1.4-4.8h1.1l1,3.6
												c0.3,0.9,0.4,1.7,0.6,2.5c0.1-0.5,0.2-1,0.4-1.6l1.1-4.6h1l-2,7.2h-0.9l-1.5-5.5c-0.1-0.5-0.2-0.7-0.2-0.8
												c-0.1,0.3-0.1,0.6-0.2,0.8L35,21H34z"/>
											<path class="st3" d="M41.6,18.4c0-1,0.3-1.7,0.8-2.1c0.4-0.4,1-0.6,1.6-0.6c0.7,0,1.3,0.2,1.7,0.7
												c0.5,0.5,0.7,1.1,0.7,1.9c0,0.7-0.1,1.2-0.3,1.6c-0.2,0.4-0.5,0.7-0.9,0.9s-0.8,0.3-1.3,0.3c-0.7,0-1.3-0.2-1.8-0.7
												S41.6,19.3,41.6,18.4z M42.5,18.4c0,0.7,0.1,1.2,0.4,1.5c0.3,0.3,0.7,0.5,1.1,0.5c0.4,0,0.8-0.2,1.1-0.5s0.4-0.8,0.4-1.5
												c0-0.6-0.1-1.1-0.4-1.5c-0.3-0.3-0.7-0.5-1.1-0.5c-0.4,0-0.8,0.2-1.1,0.5S42.5,17.7,42.5,18.4z"/>
											<path class="st3" d="M47.5,21v-5.2h0.8v0.8c0.2-0.4,0.4-0.6,0.6-0.7s0.4-0.2,0.6-0.2c0.3,0,0.6,0.1,0.9,0.3L50,16.8
												c-0.2-0.1-0.4-0.2-0.6-0.2c-0.2,0-0.4,0.1-0.5,0.2c-0.2,0.1-0.3,0.3-0.3,0.5c-0.1,0.3-0.1,0.7-0.1,1V21H47.5z"/>
											<path class="st3" d="M50.8,21v-7.2h0.9v4.1l2.1-2.1h1.1l-2,1.9l2.2,3.3H54l-1.7-2.7l-0.6,0.6V21H50.8z"/>
											<path class="st3" d="M58.4,17.5c0-1.2,0.3-2.1,1-2.8c0.6-0.7,1.5-1,2.5-1c0.7,0,1.3,0.2,1.8,0.5s0.9,0.8,1.2,1.3
												c0.3,0.6,0.4,1.2,0.4,1.9c0,0.7-0.1,1.4-0.4,1.9s-0.7,1-1.2,1.3c-0.5,0.3-1.1,0.4-1.7,0.4c-0.7,0-1.3-0.2-1.8-0.5
												s-0.9-0.8-1.2-1.3S58.4,18.1,58.4,17.5z M59.4,17.5c0,0.9,0.2,1.5,0.7,2c0.5,0.5,1,0.7,1.7,0.7c0.7,0,1.3-0.3,1.8-0.8
												s0.7-1.2,0.7-2.1c0-0.6-0.1-1.1-0.3-1.5c-0.2-0.4-0.5-0.8-0.9-1c-0.4-0.2-0.8-0.4-1.3-0.4c-0.7,0-1.2,0.2-1.7,0.7
												C59.6,15.7,59.4,16.5,59.4,17.5z"/>
											<path class="st3" d="M66.4,21v-5.2h0.8v0.8c0.2-0.4,0.4-0.6,0.6-0.7s0.4-0.2,0.6-0.2c0.3,0,0.6,0.1,0.9,0.3l-0.3,0.8
												c-0.2-0.1-0.4-0.2-0.6-0.2c-0.2,0-0.4,0.1-0.5,0.2c-0.2,0.1-0.3,0.3-0.3,0.5c-0.1,0.3-0.1,0.7-0.1,1V21H66.4z"/>
											<path class="st3" d="M73.1,21v-0.7c-0.3,0.5-0.8,0.8-1.5,0.8c-0.4,0-0.8-0.1-1.1-0.3s-0.6-0.5-0.8-1
												c-0.2-0.4-0.3-0.9-0.3-1.4c0-0.5,0.1-1,0.3-1.4c0.2-0.4,0.4-0.7,0.8-1s0.7-0.3,1.2-0.3c0.3,0,0.6,0.1,0.8,0.2
												c0.2,0.1,0.4,0.3,0.6,0.5v-2.6h0.9V21H73.1z M70.3,18.4c0,0.7,0.1,1.2,0.4,1.5s0.6,0.5,1,0.5c0.4,0,0.7-0.2,1-0.5
												c0.3-0.3,0.4-0.8,0.4-1.4c0-0.7-0.1-1.2-0.4-1.6s-0.6-0.5-1-0.5c-0.4,0-0.7,0.2-1,0.5S70.3,17.7,70.3,18.4z"/>
											<path class="st3" d="M78.8,19.3l0.9,0.1c-0.1,0.5-0.4,0.9-0.8,1.2s-0.9,0.4-1.5,0.4c-0.8,0-1.4-0.2-1.8-0.7
												c-0.4-0.5-0.7-1.1-0.7-2c0-0.9,0.2-1.5,0.7-2s1-0.7,1.7-0.7c0.7,0,1.3,0.2,1.7,0.7s0.7,1.1,0.7,2c0,0.1,0,0.1,0,0.2h-3.9
												c0,0.6,0.2,1,0.5,1.3s0.7,0.5,1.1,0.5c0.3,0,0.6-0.1,0.8-0.3S78.7,19.7,78.8,19.3z M75.9,17.9h2.9c0-0.4-0.1-0.8-0.3-1
												c-0.3-0.3-0.6-0.5-1.1-0.5c-0.4,0-0.7,0.1-1,0.4S76,17.5,75.9,17.9z"/>
											<path class="st3" d="M80.8,21v-5.2h0.8v0.8c0.2-0.4,0.4-0.6,0.6-0.7s0.4-0.2,0.6-0.2c0.3,0,0.6,0.1,0.9,0.3l-0.3,0.8
												c-0.2-0.1-0.4-0.2-0.6-0.2c-0.2,0-0.4,0.1-0.5,0.2c-0.2,0.1-0.3,0.3-0.3,0.5c-0.1,0.3-0.1,0.7-0.1,1V21H80.8z"/>
											<path class="st3" d="M84.4,16.8v-1h1v1H84.4z M84.4,21v-1h1v1H84.4z"/>
											<path class="st3" d="M89.5,21.1L90,19h-0.8v-0.7h1l0.4-1.8h-1.3v-0.7h1.5l0.4-2.1h0.7l-0.4,2.1h1.5l0.4-2.1h0.7l-0.4,2.1
												h0.8v0.7h-1l-0.4,1.8h1.4V19H93l-0.4,2.1h-0.7l0.4-2.1h-1.5l-0.4,2.1H89.5z M90.9,18.3h1.5l0.4-1.8h-1.5L90.9,18.3z"/>
											<path class="st3" d="M99.6,20.2V21h-4.7c0-0.2,0-0.4,0.1-0.6c0.1-0.3,0.3-0.6,0.6-1c0.3-0.3,0.6-0.7,1.1-1.1
												c0.8-0.6,1.3-1.1,1.6-1.5c0.3-0.4,0.4-0.7,0.4-1.1c0-0.3-0.1-0.6-0.4-0.9c-0.3-0.2-0.6-0.4-1-0.4c-0.4,0-0.8,0.1-1,0.4
												S96,15.5,96,16l-0.9-0.1c0.1-0.7,0.3-1.2,0.7-1.5c0.4-0.4,0.9-0.5,1.6-0.5c0.7,0,1.2,0.2,1.6,0.6s0.6,0.9,0.6,1.4
												c0,0.3-0.1,0.6-0.2,0.8s-0.3,0.6-0.6,0.9c-0.3,0.3-0.7,0.7-1.4,1.3c-0.5,0.4-0.9,0.7-1,0.9c-0.2,0.2-0.3,0.3-0.4,0.5
												H99.6z"/>
											<path class="st3" d="M101.9,17.1c-0.4-0.1-0.6-0.3-0.8-0.6s-0.3-0.5-0.3-0.9c0-0.5,0.2-1,0.6-1.3s0.9-0.5,1.5-0.5
												c0.6,0,1.1,0.2,1.5,0.5c0.4,0.4,0.6,0.8,0.6,1.3c0,0.3-0.1,0.6-0.3,0.9c-0.2,0.2-0.4,0.4-0.8,0.6c0.4,0.1,0.8,0.4,1,0.7
												c0.2,0.3,0.3,0.7,0.3,1.1c0,0.6-0.2,1.1-0.6,1.5s-1,0.6-1.7,0.6s-1.3-0.2-1.7-0.6c-0.4-0.4-0.6-0.9-0.6-1.6
												c0-0.5,0.1-0.9,0.4-1.2C101.2,17.4,101.5,17.2,101.9,17.1z M101.5,18.9c0,0.3,0.1,0.5,0.2,0.7c0.1,0.2,0.3,0.4,0.5,0.5
												c0.2,0.1,0.5,0.2,0.8,0.2c0.4,0,0.8-0.1,1-0.4s0.4-0.6,0.4-1c0-0.4-0.1-0.8-0.4-1c-0.3-0.3-0.6-0.4-1.1-0.4
												c-0.4,0-0.8,0.1-1,0.4C101.6,18.2,101.5,18.5,101.5,18.9z M101.8,15.6c0,0.3,0.1,0.6,0.3,0.8s0.5,0.3,0.8,0.3
												c0.3,0,0.6-0.1,0.8-0.3c0.2-0.2,0.3-0.5,0.3-0.8c0-0.3-0.1-0.6-0.3-0.8c-0.2-0.2-0.5-0.3-0.8-0.3c-0.3,0-0.6,0.1-0.8,0.3
												S101.8,15.3,101.8,15.6z"/>
											<path class="st3" d="M109,21v-1.7h-3.1v-0.8l3.3-4.6h0.7v4.6h1v0.8h-1V21H109z M109,18.5v-3.2l-2.2,3.2H109z"/>
											<path class="st3" d="M115,21h-0.9v-5.6c-0.2,0.2-0.5,0.4-0.8,0.6c-0.3,0.2-0.7,0.4-0.9,0.5v-0.8c0.5-0.2,0.9-0.5,1.3-0.8
												s0.6-0.6,0.8-1h0.6V21z"/>
											<path class="st3" d="M117.3,17.5c0-0.8,0.1-1.5,0.3-2c0.2-0.5,0.4-0.9,0.8-1.2c0.3-0.3,0.8-0.4,1.3-0.4
												c0.4,0,0.7,0.1,1,0.2c0.3,0.2,0.5,0.4,0.7,0.7c0.2,0.3,0.3,0.6,0.4,1.1c0.1,0.4,0.2,1,0.2,1.7c0,0.8-0.1,1.5-0.3,2
												c-0.2,0.5-0.4,0.9-0.8,1.2c-0.3,0.3-0.8,0.4-1.3,0.4c-0.7,0-1.2-0.2-1.6-0.7C117.5,19.8,117.3,18.8,117.3,17.5z
												 M118.2,17.5c0,1.2,0.1,2,0.4,2.3c0.3,0.4,0.6,0.6,1,0.6s0.7-0.2,1-0.6c0.3-0.4,0.4-1.2,0.4-2.3c0-1.2-0.1-2-0.4-2.3
												c-0.3-0.4-0.6-0.6-1-0.6c-0.4,0-0.7,0.2-1,0.5C118.3,15.5,118.2,16.3,118.2,17.5z"/>
											<path class="st3" d="M123,19.3l0.8-0.1c0.1,0.4,0.2,0.7,0.4,0.9s0.5,0.3,0.8,0.3c0.3,0,0.5-0.1,0.7-0.2
												c0.2-0.1,0.4-0.3,0.5-0.5c0.1-0.2,0.2-0.5,0.3-0.8s0.1-0.7,0.1-1.1c0,0,0-0.1,0-0.2c-0.2,0.3-0.4,0.5-0.7,0.7
												c-0.3,0.2-0.6,0.3-1,0.3c-0.6,0-1.1-0.2-1.5-0.6s-0.6-1-0.6-1.7c0-0.7,0.2-1.3,0.6-1.8c0.4-0.4,1-0.7,1.6-0.7
												c0.5,0,0.9,0.1,1.3,0.4c0.4,0.3,0.7,0.6,0.9,1.1c0.2,0.5,0.3,1.1,0.3,2c0,0.9-0.1,1.6-0.3,2.2c-0.2,0.5-0.5,1-0.9,1.2
												c-0.4,0.3-0.9,0.4-1.4,0.4c-0.6,0-1-0.2-1.4-0.5C123.2,20.3,123,19.9,123,19.3z M126.6,16.2c0-0.5-0.1-0.9-0.4-1.2
												c-0.3-0.3-0.6-0.4-1-0.4c-0.4,0-0.7,0.2-1,0.5s-0.4,0.7-0.4,1.2c0,0.5,0.1,0.8,0.4,1.1c0.3,0.3,0.6,0.4,1,0.4
												c0.4,0,0.7-0.1,1-0.4C126.4,17.1,126.6,16.7,126.6,16.2z"/>
										</g>
									</g>
									<g class="st4">
										<g class="st4">
											<path class="st5" d="M32.8,35v-7.2H36c0.6,0,1.1,0.1,1.5,0.2c0.3,0.1,0.6,0.4,0.8,0.7s0.3,0.7,0.3,1.1
												c0,0.5-0.2,0.9-0.5,1.3s-0.8,0.6-1.5,0.7c0.3,0.1,0.4,0.2,0.6,0.4c0.3,0.3,0.5,0.6,0.8,1l1.2,1.9h-1.2L37,33.5
												c-0.3-0.4-0.5-0.8-0.7-1s-0.3-0.4-0.5-0.5s-0.3-0.2-0.4-0.2c-0.1,0-0.3,0-0.5,0h-1.1V35H32.8z M33.7,31h2
												c0.4,0,0.8,0,1-0.1c0.2-0.1,0.4-0.2,0.6-0.4c0.1-0.2,0.2-0.4,0.2-0.6c0-0.3-0.1-0.6-0.4-0.8s-0.6-0.3-1.2-0.3h-2.3V31z"
												/>
											<path class="st5" d="M43.4,33.3l0.9,0.1c-0.1,0.5-0.4,0.9-0.8,1.2s-0.9,0.4-1.5,0.4c-0.8,0-1.4-0.2-1.8-0.7
												c-0.4-0.5-0.7-1.1-0.7-2c0-0.9,0.2-1.5,0.7-2s1-0.7,1.7-0.7c0.7,0,1.3,0.2,1.7,0.7s0.7,1.1,0.7,2c0,0.1,0,0.1,0,0.2h-3.9
												c0,0.6,0.2,1,0.5,1.3s0.7,0.5,1.1,0.5c0.3,0,0.6-0.1,0.8-0.3S43.3,33.7,43.4,33.3z M40.5,31.9h2.9c0-0.4-0.1-0.8-0.3-1
												c-0.3-0.3-0.6-0.5-1.1-0.5c-0.4,0-0.7,0.1-1,0.4S40.6,31.5,40.5,31.9z"/>
											<path class="st5" d="M45.4,37v-7.2h0.8v0.7c0.2-0.3,0.4-0.5,0.6-0.6c0.2-0.1,0.5-0.2,0.9-0.2c0.4,0,0.8,0.1,1.2,0.3
												s0.6,0.5,0.8,1c0.2,0.4,0.3,0.9,0.3,1.4c0,0.5-0.1,1-0.3,1.4c-0.2,0.4-0.5,0.8-0.8,1c-0.4,0.2-0.7,0.3-1.1,0.3
												c-0.3,0-0.6-0.1-0.8-0.2s-0.4-0.3-0.6-0.5V37H45.4z M46.2,32.4c0,0.7,0.1,1.2,0.4,1.5s0.6,0.5,1,0.5c0.4,0,0.7-0.2,1-0.5
												c0.3-0.3,0.4-0.8,0.4-1.5c0-0.7-0.1-1.2-0.4-1.5s-0.6-0.5-1-0.5c-0.4,0-0.7,0.2-1,0.5C46.4,31.3,46.2,31.8,46.2,32.4z"/>
											<path class="st5" d="M51,35v-7.2h0.9V35H51z"/>
											<path class="st5" d="M56.6,34.4c-0.3,0.3-0.6,0.5-0.9,0.6s-0.6,0.2-1,0.2c-0.6,0-1-0.1-1.3-0.4c-0.3-0.3-0.5-0.6-0.5-1.1
												c0-0.3,0.1-0.5,0.2-0.7c0.1-0.2,0.3-0.4,0.5-0.5s0.4-0.2,0.6-0.3c0.2,0,0.4-0.1,0.8-0.1c0.7-0.1,1.2-0.2,1.6-0.3
												c0-0.1,0-0.2,0-0.2c0-0.4-0.1-0.6-0.2-0.8c-0.2-0.2-0.6-0.3-1-0.3c-0.4,0-0.7,0.1-0.9,0.2c-0.2,0.1-0.3,0.4-0.4,0.8
												l-0.9-0.1c0.1-0.4,0.2-0.7,0.4-0.9c0.2-0.2,0.4-0.4,0.8-0.5c0.3-0.1,0.7-0.2,1.2-0.2c0.4,0,0.8,0.1,1.1,0.2
												s0.5,0.2,0.6,0.4c0.1,0.2,0.2,0.4,0.3,0.6c0,0.1,0,0.4,0,0.8v1.2c0,0.8,0,1.3,0.1,1.5c0,0.2,0.1,0.4,0.2,0.6h-0.9
												C56.7,34.8,56.6,34.6,56.6,34.4z M56.5,32.4c-0.3,0.1-0.8,0.2-1.4,0.3c-0.4,0.1-0.6,0.1-0.8,0.2s-0.3,0.2-0.3,0.3
												c-0.1,0.1-0.1,0.3-0.1,0.4c0,0.2,0.1,0.4,0.3,0.6s0.4,0.2,0.8,0.2c0.3,0,0.6-0.1,0.9-0.2c0.3-0.1,0.5-0.4,0.6-0.6
												c0.1-0.2,0.1-0.5,0.1-0.9V32.4z"/>
											<path class="st5" d="M62.2,33.1l0.9,0.1c-0.1,0.6-0.3,1.1-0.7,1.4c-0.4,0.3-0.9,0.5-1.4,0.5c-0.7,0-1.3-0.2-1.7-0.7
												c-0.4-0.5-0.6-1.1-0.6-2c0-0.6,0.1-1,0.3-1.5s0.5-0.7,0.8-0.9c0.4-0.2,0.8-0.3,1.2-0.3c0.6,0,1,0.1,1.4,0.4
												c0.4,0.3,0.6,0.7,0.7,1.2l-0.9,0.1c-0.1-0.3-0.2-0.6-0.4-0.8s-0.5-0.3-0.7-0.3c-0.4,0-0.8,0.2-1.1,0.5
												c-0.3,0.3-0.4,0.8-0.4,1.5c0,0.7,0.1,1.2,0.4,1.5s0.6,0.5,1,0.5c0.3,0,0.6-0.1,0.9-0.3S62.1,33.5,62.2,33.1z"/>
											<path class="st5" d="M67.3,33.3l0.9,0.1c-0.1,0.5-0.4,0.9-0.8,1.2s-0.9,0.4-1.5,0.4c-0.8,0-1.4-0.2-1.8-0.7
												c-0.4-0.5-0.7-1.1-0.7-2c0-0.9,0.2-1.5,0.7-2s1-0.7,1.7-0.7c0.7,0,1.3,0.2,1.7,0.7s0.7,1.1,0.7,2c0,0.1,0,0.1,0,0.2h-3.9
												c0,0.6,0.2,1,0.5,1.3s0.7,0.5,1.1,0.5c0.3,0,0.6-0.1,0.8-0.3S67.2,33.7,67.3,33.3z M64.5,31.9h2.9c0-0.4-0.1-0.8-0.3-1
												c-0.3-0.3-0.6-0.5-1.1-0.5c-0.4,0-0.7,0.1-1,0.4S64.5,31.5,64.5,31.9z"/>
											<path class="st5" d="M72.2,35v-7.2h0.9v3.5l3.6-3.5H78l-3,2.9l3.1,4.3h-1.3l-2.5-3.6l-1.2,1.1V35H72.2z"/>
											<path class="st5" d="M78.8,28.9v-1h0.9v1H78.8z M78.8,35v-5.2h0.9V35H78.8z"/>
											<path class="st5" d="M82.9,34.2l0.1,0.8c-0.2,0.1-0.5,0.1-0.7,0.1c-0.3,0-0.6-0.1-0.7-0.2s-0.3-0.2-0.4-0.4
												c-0.1-0.2-0.1-0.5-0.1-1v-3h-0.6v-0.7h0.6v-1.3l0.9-0.5v1.8h0.9v0.7h-0.9v3c0,0.3,0,0.4,0,0.5s0.1,0.1,0.2,0.2
												s0.2,0.1,0.3,0.1C82.6,34.2,82.8,34.2,82.9,34.2z"/>
											<path class="st5" d="M87.2,33.1l0.9,0.1c-0.1,0.6-0.3,1.1-0.7,1.4c-0.4,0.3-0.9,0.5-1.4,0.5c-0.7,0-1.3-0.2-1.7-0.7
												c-0.4-0.5-0.6-1.1-0.6-2c0-0.6,0.1-1,0.3-1.5s0.5-0.7,0.8-0.9c0.4-0.2,0.8-0.3,1.2-0.3c0.6,0,1,0.1,1.4,0.4
												c0.4,0.3,0.6,0.7,0.7,1.2l-0.9,0.1c-0.1-0.3-0.2-0.6-0.4-0.8c-0.2-0.2-0.5-0.3-0.8-0.3c-0.4,0-0.8,0.2-1.1,0.5
												c-0.3,0.3-0.4,0.8-0.4,1.5c0,0.7,0.1,1.2,0.4,1.5s0.6,0.5,1,0.5c0.3,0,0.6-0.1,0.9-0.3S87.1,33.5,87.2,33.1z"/>
											<path class="st5" d="M88.8,35v-7.2h0.9v2.6c0.4-0.5,0.9-0.7,1.6-0.7c0.4,0,0.7,0.1,1,0.2c0.3,0.2,0.5,0.4,0.6,0.6
												c0.1,0.3,0.2,0.7,0.2,1.2V35h-0.9v-3.3c0-0.4-0.1-0.8-0.3-1c-0.2-0.2-0.5-0.3-0.8-0.3c-0.3,0-0.5,0.1-0.7,0.2
												c-0.2,0.1-0.4,0.3-0.5,0.5s-0.1,0.5-0.1,1V35H88.8z"/>
											<path class="st5" d="M97.9,33.3l0.9,0.1c-0.1,0.5-0.4,0.9-0.8,1.2s-0.9,0.4-1.5,0.4c-0.8,0-1.4-0.2-1.8-0.7
												c-0.4-0.5-0.7-1.1-0.7-2c0-0.9,0.2-1.5,0.7-2s1-0.7,1.7-0.7c0.7,0,1.3,0.2,1.7,0.7s0.7,1.1,0.7,2c0,0.1,0,0.1,0,0.2H95
												c0,0.6,0.2,1,0.5,1.3s0.7,0.5,1.1,0.5c0.3,0,0.6-0.1,0.8-0.3S97.8,33.7,97.9,33.3z M95,31.9h2.9c0-0.4-0.2-0.8-0.3-1
												c-0.3-0.3-0.6-0.5-1.1-0.5c-0.4,0-0.7,0.1-1,0.4C95.2,31.1,95.1,31.5,95,31.9z"/>
											<path class="st5" d="M99.9,35v-5.2h0.8v0.7c0.4-0.6,0.9-0.9,1.7-0.9c0.3,0,0.6,0.1,0.9,0.2c0.3,0.1,0.5,0.3,0.6,0.4
												s0.2,0.4,0.3,0.6c0,0.2,0,0.4,0,0.9V35h-0.9v-3.2c0-0.4,0-0.6-0.1-0.8c-0.1-0.2-0.2-0.3-0.4-0.4
												c-0.2-0.1-0.4-0.2-0.6-0.2c-0.4,0-0.7,0.1-1,0.4c-0.3,0.2-0.4,0.7-0.4,1.4V35H99.9z"/>
											<path class="st5" d="M108,32.7l0.9-0.1c0,0.4,0.1,0.7,0.3,0.9c0.2,0.2,0.4,0.4,0.7,0.6c0.3,0.1,0.7,0.2,1.1,0.2
												c0.4,0,0.7-0.1,1-0.2s0.5-0.3,0.6-0.4c0.1-0.2,0.2-0.4,0.2-0.6c0-0.2-0.1-0.4-0.2-0.6c-0.1-0.2-0.3-0.3-0.6-0.4
												c-0.2-0.1-0.6-0.2-1.3-0.3c-0.7-0.2-1.1-0.3-1.4-0.4c-0.3-0.2-0.6-0.4-0.8-0.7c-0.2-0.3-0.3-0.6-0.3-0.9
												c0-0.4,0.1-0.7,0.3-1c0.2-0.3,0.5-0.6,0.9-0.7s0.8-0.2,1.3-0.2c0.5,0,1,0.1,1.4,0.3c0.4,0.2,0.7,0.4,0.9,0.8
												s0.3,0.7,0.4,1.1l-0.9,0.1c0-0.5-0.2-0.8-0.5-1c-0.3-0.2-0.7-0.3-1.2-0.3c-0.6,0-1,0.1-1.3,0.3c-0.3,0.2-0.4,0.5-0.4,0.8
												c0,0.3,0.1,0.5,0.3,0.6c0.2,0.2,0.7,0.3,1.4,0.5c0.8,0.2,1.3,0.3,1.6,0.5c0.4,0.2,0.7,0.4,0.9,0.7c0.2,0.3,0.3,0.6,0.3,1
												c0,0.4-0.1,0.7-0.3,1.1c-0.2,0.3-0.5,0.6-0.9,0.8c-0.4,0.2-0.9,0.3-1.4,0.3c-0.6,0-1.2-0.1-1.6-0.3
												c-0.4-0.2-0.8-0.5-1-0.9C108.2,33.6,108.1,33.2,108,32.7z"/>
											<path class="st5" d="M114.9,28.9v-1h0.9v1H114.9z M114.9,35v-5.2h0.9V35H114.9z"/>
											<path class="st5" d="M117.2,35v-5.2h0.8v0.7c0.4-0.6,0.9-0.9,1.7-0.9c0.3,0,0.6,0.1,0.9,0.2c0.3,0.1,0.5,0.3,0.6,0.4
												s0.2,0.4,0.3,0.6c0,0.2,0,0.4,0,0.9V35h-0.9v-3.2c0-0.4,0-0.6-0.1-0.8c-0.1-0.2-0.2-0.3-0.4-0.4
												c-0.2-0.1-0.4-0.2-0.6-0.2c-0.4,0-0.7,0.1-1,0.4c-0.3,0.2-0.4,0.7-0.4,1.4V35H117.2z"/>
											<path class="st5" d="M122.7,35v-7.2h0.9v4.1l2.1-2.1h1.1l-2,1.9L127,35h-1.1l-1.7-2.7l-0.6,0.6V35H122.7z"/>
										</g>
									</g>
									<g class="st4">
										<g class="st4">
											<path class="st5" d="M32.8,49v-7.2h4.8v0.8h-3.9v2.2h3.4v0.8h-3.4V49H32.8z"/>
											<path class="st5" d="M42.2,48.4c-0.3,0.3-0.6,0.5-0.9,0.6s-0.6,0.2-1,0.2c-0.6,0-1-0.1-1.3-0.4c-0.3-0.3-0.5-0.6-0.5-1.1
												c0-0.3,0.1-0.5,0.2-0.7c0.1-0.2,0.3-0.4,0.5-0.5s0.4-0.2,0.6-0.3c0.2,0,0.4-0.1,0.8-0.1c0.7-0.1,1.2-0.2,1.6-0.3
												c0-0.1,0-0.2,0-0.2c0-0.4-0.1-0.6-0.2-0.8c-0.2-0.2-0.6-0.3-1-0.3c-0.4,0-0.7,0.1-0.9,0.2c-0.2,0.1-0.3,0.4-0.4,0.8
												l-0.9-0.1c0.1-0.4,0.2-0.7,0.4-0.9c0.2-0.2,0.4-0.4,0.8-0.5c0.3-0.1,0.7-0.2,1.2-0.2c0.4,0,0.8,0.1,1.1,0.2
												s0.5,0.2,0.6,0.4c0.1,0.2,0.2,0.4,0.3,0.6c0,0.1,0,0.4,0,0.8v1.2c0,0.8,0,1.3,0.1,1.5c0,0.2,0.1,0.4,0.2,0.6h-0.9
												C42.2,48.8,42.2,48.6,42.2,48.4z M42.1,46.4c-0.3,0.1-0.8,0.2-1.4,0.3c-0.4,0.1-0.6,0.1-0.8,0.2s-0.3,0.2-0.3,0.3
												c-0.1,0.1-0.1,0.3-0.1,0.4c0,0.2,0.1,0.4,0.3,0.6s0.4,0.2,0.8,0.2c0.3,0,0.6-0.1,0.9-0.2c0.3-0.1,0.5-0.4,0.6-0.6
												c0.1-0.2,0.1-0.5,0.1-0.9V46.4z"/>
											<path class="st5" d="M47.7,49v-0.8c-0.4,0.6-1,0.9-1.6,0.9c-0.3,0-0.6-0.1-0.9-0.2s-0.5-0.3-0.6-0.4
												c-0.1-0.2-0.2-0.4-0.3-0.7c0-0.2-0.1-0.4-0.1-0.8v-3.2h0.9v2.9c0,0.5,0,0.8,0.1,0.9c0.1,0.2,0.2,0.4,0.4,0.5
												c0.2,0.1,0.4,0.2,0.7,0.2s0.5-0.1,0.7-0.2c0.2-0.1,0.4-0.3,0.5-0.6c0.1-0.2,0.1-0.6,0.1-1v-2.8h0.9V49H47.7z"/>
											<path class="st5" d="M53.3,47.1l0.9,0.1c-0.1,0.6-0.3,1.1-0.7,1.4c-0.4,0.3-0.9,0.5-1.4,0.5c-0.7,0-1.3-0.2-1.7-0.7
												c-0.4-0.5-0.6-1.1-0.6-2c0-0.6,0.1-1,0.3-1.5s0.5-0.7,0.8-0.9c0.4-0.2,0.8-0.3,1.2-0.3c0.6,0,1,0.1,1.4,0.4
												c0.4,0.3,0.6,0.7,0.7,1.2l-0.9,0.1c-0.1-0.3-0.2-0.6-0.4-0.8s-0.5-0.3-0.7-0.3c-0.4,0-0.8,0.2-1.1,0.5
												c-0.3,0.3-0.4,0.8-0.4,1.5c0,0.7,0.1,1.2,0.4,1.5s0.6,0.5,1,0.5c0.3,0,0.6-0.1,0.9-0.3S53.2,47.5,53.3,47.1z"/>
											<path class="st5" d="M58.4,47.3l0.9,0.1c-0.1,0.5-0.4,0.9-0.8,1.2s-0.9,0.4-1.5,0.4c-0.8,0-1.4-0.2-1.8-0.7
												c-0.4-0.5-0.7-1.1-0.7-2c0-0.9,0.2-1.5,0.7-2s1-0.7,1.7-0.7c0.7,0,1.3,0.2,1.7,0.7s0.7,1.1,0.7,2c0,0.1,0,0.1,0,0.2h-3.9
												c0,0.6,0.2,1,0.5,1.3s0.7,0.5,1.1,0.5c0.3,0,0.6-0.1,0.8-0.3S58.3,47.7,58.4,47.3z M55.6,45.9h2.9c0-0.4-0.1-0.8-0.3-1
												c-0.3-0.3-0.6-0.5-1.1-0.5c-0.4,0-0.7,0.1-1,0.4S55.6,45.5,55.6,45.9z"/>
											<path class="st5" d="M62.4,48.2l0.1,0.8c-0.2,0.1-0.5,0.1-0.7,0.1c-0.3,0-0.6-0.1-0.7-0.2s-0.3-0.2-0.4-0.4
												c-0.1-0.2-0.1-0.5-0.1-1v-3H60v-0.7h0.6v-1.3l0.9-0.5v1.8h0.9v0.7h-0.9v3c0,0.3,0,0.4,0,0.5s0.1,0.1,0.2,0.2
												s0.2,0.1,0.3,0.1C62.1,48.2,62.2,48.2,62.4,48.2z"/>
											<path class="st5" d="M66.2,49v-7.2h0.9v2.9h3.7v-2.9h0.9V49h-0.9v-3.4h-3.7V49H66.2z"/>
											<path class="st5" d="M76.6,48.4c-0.3,0.3-0.6,0.5-0.9,0.6s-0.6,0.2-1,0.2c-0.6,0-1-0.1-1.3-0.4c-0.3-0.3-0.5-0.6-0.5-1.1
												c0-0.3,0.1-0.5,0.2-0.7c0.1-0.2,0.3-0.4,0.5-0.5s0.4-0.2,0.6-0.3c0.2,0,0.4-0.1,0.8-0.1c0.7-0.1,1.2-0.2,1.6-0.3
												c0-0.1,0-0.2,0-0.2c0-0.4-0.1-0.6-0.2-0.8c-0.2-0.2-0.6-0.3-1-0.3c-0.4,0-0.7,0.1-0.9,0.2c-0.2,0.1-0.3,0.4-0.4,0.8
												l-0.9-0.1c0.1-0.4,0.2-0.7,0.4-0.9c0.2-0.2,0.4-0.4,0.8-0.5c0.3-0.1,0.7-0.2,1.2-0.2c0.4,0,0.8,0.1,1.1,0.2
												s0.5,0.2,0.6,0.4c0.1,0.2,0.2,0.4,0.3,0.6c0,0.1,0,0.4,0,0.8v1.2c0,0.8,0,1.3,0.1,1.5c0,0.2,0.1,0.4,0.2,0.6h-0.9
												C76.7,48.8,76.6,48.6,76.6,48.4z M76.5,46.4c-0.3,0.1-0.8,0.2-1.4,0.3c-0.4,0.1-0.6,0.1-0.8,0.2s-0.3,0.2-0.3,0.3
												c-0.1,0.1-0.1,0.3-0.1,0.4c0,0.2,0.1,0.4,0.3,0.6s0.4,0.2,0.8,0.2c0.3,0,0.6-0.1,0.9-0.2c0.3-0.1,0.5-0.4,0.6-0.6
												c0.1-0.2,0.1-0.5,0.1-0.9V46.4z"/>
											<path class="st5" d="M78.8,49v-5.2h0.8v0.7c0.4-0.6,0.9-0.9,1.7-0.9c0.3,0,0.6,0.1,0.9,0.2c0.3,0.1,0.5,0.3,0.6,0.4
												s0.2,0.4,0.3,0.6c0,0.2,0,0.4,0,0.9V49h-0.9v-3.2c0-0.4,0-0.6-0.1-0.8c-0.1-0.2-0.2-0.3-0.4-0.4
												c-0.2-0.1-0.4-0.2-0.6-0.2c-0.4,0-0.7,0.1-1,0.4s-0.4,0.7-0.4,1.4V49H78.8z"/>
											<path class="st5" d="M87.7,49v-0.7c-0.3,0.5-0.8,0.8-1.5,0.8c-0.4,0-0.8-0.1-1.1-0.3c-0.3-0.2-0.6-0.5-0.8-1
												c-0.2-0.4-0.3-0.9-0.3-1.4c0-0.5,0.1-1,0.3-1.4c0.2-0.4,0.4-0.7,0.8-1s0.7-0.3,1.2-0.3c0.3,0,0.6,0.1,0.8,0.2
												c0.2,0.1,0.4,0.3,0.6,0.5v-2.6h0.9V49H87.7z M84.9,46.4c0,0.7,0.1,1.2,0.4,1.5s0.6,0.5,1,0.5c0.4,0,0.7-0.2,1-0.5
												c0.3-0.3,0.4-0.8,0.4-1.4c0-0.7-0.1-1.2-0.4-1.6s-0.6-0.5-1-0.5c-0.4,0-0.7,0.2-1,0.5C85.1,45.2,84.9,45.7,84.9,46.4z"/>
											<path class="st5" d="M89.9,49v-7.2h0.9V49H89.9z"/>
											<path class="st5" d="M95.7,47.3l0.9,0.1c-0.1,0.5-0.4,0.9-0.8,1.2s-0.9,0.4-1.5,0.4c-0.8,0-1.4-0.2-1.8-0.7
												c-0.4-0.5-0.7-1.1-0.7-2c0-0.9,0.2-1.5,0.7-2s1-0.7,1.7-0.7c0.7,0,1.3,0.2,1.7,0.7s0.7,1.1,0.7,2c0,0.1,0,0.1,0,0.2h-3.9
												c0,0.6,0.2,1,0.5,1.3s0.7,0.5,1.1,0.5c0.3,0,0.6-0.1,0.8-0.3S95.6,47.7,95.7,47.3z M92.8,45.9h2.9c0-0.4-0.1-0.8-0.3-1
												c-0.3-0.3-0.6-0.5-1.1-0.5c-0.4,0-0.7,0.1-1,0.4C93,45.1,92.8,45.5,92.8,45.9z"/>
										</g>
									</g>
									<rect id="Rectangle" x="8" y="63" class="st6" width="148" height="1"/>
									<rect id="Rectangle_1_" x="8" y="72" class="st7" width="43" height="43"/>
									<path id="Rectangle_2_" class="st8" d="M61,80h44c1.1,0,2,0.9,2,2s-0.9,2-2,2H61c-1.1,0-2-0.9-2-2S59.9,80,61,80z"/>
									<path id="Rectangle_3_" class="st9" d="M60,88h22c0.6,0,1,0.4,1,1s-0.4,1-1,1H60c-0.6,0-1-0.4-1-1S59.4,88,60,88z"/>
									<path id="Rectangle_4_" class="st9" d="M88,88h38c0.6,0,1,0.4,1,1s-0.4,1-1,1H88c-0.6,0-1-0.4-1-1S87.4,88,88,88z"/>
									<path id="Rectangle_5_" class="st9" d="M132,88h23c0.6,0,1,0.4,1,1s-0.4,1-1,1h-23c-0.6,0-1-0.4-1-1S131.4,88,132,88z"/>
									<path id="Rectangle_6_" class="st9" d="M60,94h32c0.6,0,1,0.4,1,1s-0.4,1-1,1H60c-0.6,0-1-0.4-1-1S59.4,94,60,94z"/>
									<path id="Rectangle_7_" class="st9" d="M98,94h14c0.6,0,1,0.4,1,1s-0.4,1-1,1H98c-0.6,0-1-0.4-1-1S97.4,94,98,94z"/>
									<path id="Rectangle_8_" class="st9" d="M118,94h23c0.6,0,1,0.4,1,1s-0.4,1-1,1h-23c-0.6,0-1-0.4-1-1S117.4,94,118,94z"/>
									<path id="Rectangle_9_" class="st9" d="M60,100h10c0.6,0,1,0.4,1,1s-0.4,1-1,1H60c-0.6,0-1-0.4-1-1S59.4,100,60,100z"/>
									<path id="Rectangle_10_" class="st9" d="M76,100h27c0.6,0,1,0.4,1,1s-0.4,1-1,1H76c-0.6,0-1-0.4-1-1S75.4,100,76,100z"/>
									<path id="Rectangle_11_" class="st9" d="M109,100h40c0.6,0,1,0.4,1,1s-0.4,1-1,1h-40c-0.6,0-1-0.4-1-1S108.4,100,109,100z"
										/>
								</g>
							</g>
						</g>
					</g>
				</g>
			</g>
		</g>
	</g>
</g>
</svg>
