<?xml version="1.0" encoding="UTF-8"?>
<svg width="48px" height="48px" viewBox="0 0 48 48" version="1.1" xmlns="http://www.w3.org/2000/svg" xmlns:xlink="http://www.w3.org/1999/xlink">
    <!-- Generator: sketchtool 59.1 (101010) - https://sketch.com -->
    <title>15818629-3A3A-4D60-B535-296AEC109960</title>
    <desc>Created with sketchtool.</desc>
    <g id="Asset-Artboard-Page" stroke="none" stroke-width="1" fill="none" fill-rule="evenodd">
        <g id="icon-/-48x48-/-section-role-/-accounting">
            <g>
                <rect id="bounds" x="0" y="0" width="48" height="48"></rect>
                <path d="M37,0 L11,0 C8.23994685,0.00330611633 6.00330612,2.23994685 6,5 L6,43 C6.00330612,45.7600532 8.23994685,47.9966939 11,48.0000208 L32.17,48.0000208 C32.6001267,48.001616 33.0254003,47.9091207 33.416,47.729 C33.7439851,47.5794722 34.0424024,47.3721721 34.297,47.117 L41.117,40.297 C41.6825875,39.7337094 42.0003639,38.9682389 42,38.17 L42,5 C41.9966939,2.23994685 39.7600532,0.00330611633 37,0 Z M8,43 L8,5 C8,3.34314575 9.34314575,2 11,2 L37,2 C38.6568542,2 40,3.34314575 40,5 L40,38 L36.44,38 C33.9885414,38.0016547 32.0016547,39.9885414 32,42.44 L32,46 L11,46 C9.34314575,46 8,44.6568542 8,43 Z" id="Shape" fill="#46BBC4" fill-rule="nonzero"></path>
                <path d="M27,39 C27,39.5522847 26.5522847,40 26,40 L15,40 C14.4477153,40 14,39.5522847 14,39 C14,38.4477153 14.4477153,38 15,38 L26,38 C26.5522847,38 27,38.4477153 27,39 Z M34,32 L15,32 C14.4477153,32 14,32.4477153 14,33 C14,33.5522847 14.4477153,34 15,34 L34,34 C34.5522847,34 35,33.5522847 35,33 C35,32.4477153 34.5522847,32 34,32 Z" id="Shape" fill="#A7DFE3" fill-rule="nonzero"></path>
                <path d="M24,8 C18.4771525,8 14,12.4771525 14,18 C14,23.5228475 18.4771525,28 24,28 C29.5228475,28 34,23.5228475 34,18 C34,15.3478351 32.9464316,12.804296 31.0710678,10.9289322 C29.195704,9.0535684 26.6521649,8 24,8 L24,8 Z M24.533,22.789 L24.533,23.447 C24.533,23.802 24.362,24 24.019,24 L23.928,24 C23.559,24 23.401,23.829 23.401,23.54 L23.401,22.789 C22.5881552,22.7002076 21.815001,22.3910842 21.165,21.895 C21.040196,21.8145135 20.9576283,21.6827135 20.9396602,21.5352983 C20.9216922,21.387883 20.9701834,21.2401087 21.072,21.132 L21.361,20.724 C21.4370173,20.5949666 21.5668706,20.5068018 21.714847,20.4837531 C21.8628234,20.4607045 22.0133396,20.5051991 22.125,20.605 C22.6704672,21.0105701 23.3266636,21.2401167 24.006,21.263 C24.717,21.263 25.375,20.895 25.375,20.132 C25.375,18.552 20.928,18.711 20.928,15.882 C20.963958,14.5018197 22.0253999,13.366094 23.4,13.237 L23.4,12.537 C23.4,12.182 23.558,11.998 23.927,11.998 L24.018,11.998 C24.361,11.998 24.532,12.156 24.532,12.459 L24.532,13.209 C25.2154111,13.2513805 25.8745061,13.478452 26.439,13.866 C26.5655565,13.9358381 26.6556966,14.0570284 26.6861798,14.1983248 C26.7166631,14.3396213 26.6845062,14.4871959 26.598,14.603 L26.374,15.051 C26.203,15.366 25.953,15.406 25.624,15.222 C25.1521535,14.9182215 24.6059834,14.7497701 24.045,14.735 C23.256,14.735 22.624,15.195 22.624,15.853 C22.624,17.419 27.071,17.143 27.071,20.09 C27.0675904,21.5175791 25.9576738,22.6979041 24.533,22.789 L24.533,22.789 Z" id="Shape" fill="#F4BA67" fill-rule="nonzero"></path>
            </g>
        </g>
    </g>
</svg>