<?xml version="1.0" encoding="UTF-8"?>
<svg width="48px" height="48px" viewBox="0 0 48 48" version="1.1" xmlns="http://www.w3.org/2000/svg" xmlns:xlink="http://www.w3.org/1999/xlink">
    <!-- Generator: sketchtool 59.1 (101010) - https://sketch.com -->
    <title>4A7C9C42-CEA4-46AE-A41C-00136D0F7111</title>
    <desc>Created with sketchtool.</desc>
    <g id="Asset-Artboard-Page" stroke="none" stroke-width="1" fill="none" fill-rule="evenodd">
        <g id="icon-/-48x48-/-section-role-/-maintenance-icon-/-48x48-/-section-role-/-application">
            <g id="icon-/-48x48-/-section-role-/-application">
                <rect id="bounds" x="0" y="0" width="48" height="48"></rect>
                <path d="M41,10 C41.5522847,10 42.0000177,9.55228475 42.0000177,9 L42.0000177,5 C41.9966939,2.23994685 39.7600532,0.00330611633 37,0 L11,0 C8.23994685,0.00330611633 6.00330612,2.23994685 6,5 L6,43 C6.00330612,45.7600532 8.23994685,47.9966939 11,48.0000258 L32.17,48.0000258 C32.599395,48.0017992 33.023986,47.9096452 33.414,47.73 C33.7426977,47.5802463 34.0417899,47.3726093 34.297,47.117 L41.117,40.297 C41.3719587,40.0429852 41.5792463,39.7452633 41.729,39.418 C41.909006,39.0266545 42.0014887,38.6007566 42.0000177,38.17 L42.0000177,36 C42.0000177,35.4477153 41.5522847,35 41,35 C40.4477153,35 40,35.4477153 40,36 L40,38 L36.44,38 C33.9885414,38.0016547 32.0016547,39.9885414 32,42.44 L32,46 L11,46 C9.34383121,45.9983463 8.00165369,44.6561688 8,43 L8,5 C8.00165369,3.34383121 9.34383121,2.00165369 11,2 L37,2 C38.6561688,2.00165369 39.9983463,3.34383121 40,5 L40,9 C40,9.55228475 40.4477153,10 41,10 Z" id="Path" fill="#46BBC4" fill-rule="nonzero"></path>
                <path d="M47.97,12.026 C47.6946752,11.2175347 47.0440541,10.593013 46.225,10.351 C45.5004709,9.92102574 44.6081923,9.88456786 43.851,10.254 C43.6125158,10.4181477 43.4308314,10.6522411 43.331,10.924 L43.007,11.734 C42.9015299,11.9919678 43.019071,12.2871463 43.273,12.402 L46.915,13.967 C47.0368012,14.0178277 47.1740162,14.0170431 47.2952282,13.9648258 C47.4164402,13.9126085 47.5112681,13.8134306 47.558,13.69 L47.882,12.88 C47.9967153,12.6107201 48.027727,12.3131469 47.971,12.026 L47.97,12.026 Z" id="Path" fill="#F57361" fill-rule="nonzero"></path>
                <path d="M36.304,30.424 C36.0843953,30.5220954 35.9619332,30.7591321 36.009,30.995 L36.504,33.588 C36.534307,33.7535998 36.6448377,33.8933555 36.799,33.961 C36.9507753,34.0262183 37.1254676,34.0084466 37.261,33.914 L39.378,32.443 C39.5742946,32.3029466 39.6491121,32.0466657 39.559,31.823 L38.606,29.435 L36.304,30.424 Z" id="Path" fill="#F4BA67" fill-rule="nonzero"></path>
                <path d="M46.804,15.579 L40.713,30.836 C40.6774633,30.9302746 40.5874375,30.9928425 40.4866885,30.9932887 C40.3859395,30.9937301 40.2953659,30.9319579 40.259,30.838 L39.328,28.571 C39.2813179,28.4473159 39.1862645,28.347986 39.064753,28.2959096 C38.9432416,28.2438333 38.8057589,28.2435048 38.684,28.295 L36.481,29.215 C36.386472,29.2513543 36.2793569,29.2273369 36.2094011,29.1541019 C36.1394453,29.0808669 36.1203565,28.9727647 36.161,28.88 L42.253,13.623 C42.2995,13.4993875 42.3943046,13.4000223 42.5155977,13.3477701 C42.6368908,13.2955179 42.7742259,13.2948788 42.896,13.346 L46.538,14.911 C46.791929,15.0258537 46.9094701,15.3210322 46.804,15.579 L46.804,15.579 Z M27.423,17.369 C26.349,17.069 25.746,16.632 25.558,16.119 C25.5482589,16.0869374 25.5533859,16.0521976 25.5719738,16.0243158 C25.5905616,15.9964341 25.6206572,15.97834 25.654,15.975 C26.2483278,15.8740448 26.8262462,15.6930669 27.372,15.437 C27.4608836,15.3988607 27.5033944,15.2970119 27.468,15.207 C27.2020638,14.4836136 26.9885126,13.7420329 26.829,12.988 C26.616,11.905 27.219,10.9 26.802,9.718 C26.5738456,9.01519025 26.0440667,8.45079437 25.3570845,8.1786705 C24.6701023,7.90654664 23.8975388,7.95506531 23.25,8.311 C22.5067949,8.14308105 21.7482811,8.52254711 21.437,9.218 C20.562,10.746 21.421,11.721 21.171,12.988 C21.0112434,13.742299 20.7976977,14.4841949 20.532,15.208 C20.4972479,15.2977285 20.5396508,15.3988772 20.628,15.437 C21.1737583,15.6930554 21.751675,15.8740329 22.346,15.975 C22.3793428,15.97834 22.4094384,15.9964341 22.4280262,16.0243158 C22.4466141,16.0521976 22.4517411,16.0869374 22.442,16.119 C22.254,16.632 21.651,17.069 20.577,17.369 C18.341,17.996 18.025,19.077 17.999988,21.619 C17.9992016,21.7194249 18.0383993,21.8160395 18.1089421,21.8875204 C18.1794849,21.9590012 18.2755733,21.9994718 18.376,22 L29.626,22 C29.7262536,21.9989447 29.8219812,21.9581042 29.8921211,21.8864641 C29.9622609,21.8148239 30.0010665,21.7182535 30.0000214,21.618 C29.976,19.078 29.659,17.996 27.423,17.37 L27.423,17.369 Z" id="Shape" fill="#1C7F8A" fill-rule="nonzero"></path>
                <path d="M32,27 C32,27.5522847 31.5522847,28 31,28 L14,28 C13.4477153,28 13,27.5522847 13,27 C13,26.4477153 13.4477153,26 14,26 L31,26 C31.5522847,26 32,26.4477153 32,27 Z M30,32 L14,32 C13.4477153,32 13,32.4477153 13,33 C13,33.5522847 13.4477153,34 14,34 L30,34 C30.5522847,34 31,33.5522847 31,33 C31,32.4477153 30.5522847,32 30,32 Z M26,38 L14,38 C13.4477153,38 13,38.4477153 13,39 C13,39.5522847 13.4477153,40 14,40 L26,40 C26.5522847,40 27,39.5522847 27,39 C27,38.4477153 26.5522847,38 26,38 Z" id="Shape" fill="#A7DFE3" fill-rule="nonzero"></path>
            </g>
        </g>
    </g>
</svg>