<?xml version="1.0" encoding="UTF-8"?>
<svg width="48px" height="48px" viewBox="0 0 48 48" version="1.1" xmlns="http://www.w3.org/2000/svg" xmlns:xlink="http://www.w3.org/1999/xlink">
    <!-- Generator: sketchtool 59.1 (101010) - https://sketch.com -->
    <title>58B82BD3-B988-47A8-B8F1-2E676AD83370</title>
    <desc>Created with sketchtool.</desc>
    <g id="Asset-Artboard-Page" stroke="none" stroke-width="1" fill="none" fill-rule="evenodd">
        <g id="icon-/-48x48-/-section-role-/-late-fee-policy-icon-/-48x48-/-section-role-/-balance-sheet">
            <g id="icon-/-48x48-/-section-role-/-balance-sheet">
                <rect id="bounds" x="0" y="0" width="48" height="48"></rect>
                <path d="M34,36 L14,36 C13.4477153,36 13,35.5522847 13,35 C13,34.4477153 13.4477153,34 14,34 L34,34 C34.5522847,34 35,34.4477153 35,35 C35,35.5522847 34.5522847,36 34,36 Z" id="Path" fill="#F4BA67"></path>
                <path d="M31.8,13.4 C31.783,13.378 31.755,13.371 31.737,13.351 C31.6603869,13.2626204 31.5681902,13.1890664 31.465,13.134 L31.42,13.112 C31.2468182,13.0234051 31.0511129,12.9885821 30.858,13.012 L25,13.847 L25,13 C25,12.4477153 24.5522847,12 24,12 C23.4477153,12 23,12.4477153 23,13 L23,14.132 L16.858,15.01 C16.7526564,15.0283983 16.6512096,15.064581 16.558,15.117 C16.4186048,15.1831834 16.2964171,15.2807283 16.201,15.402 C15.665,16.116 13.001,19.78 13.001,22.002 C13.001,23.628 14.833,25.002 17.001,25.002 C19.169,25.002 21.001,23.628 21.001,22.002 C21.001,20.461 19.718,18.225 18.754,16.762 L23,16.153 L23,28.045 C21.2190606,28.2303516 19.5565646,29.0243374 18.293,30.293 C18.0070921,30.5789943 17.9215781,31.0090366 18.076322,31.3826546 C18.2310659,31.7562725 18.5956041,32 19,32 L29,32 C29.4043959,32 29.7689341,31.7562725 29.923678,31.3826546 C30.0784219,31.0090366 29.9929079,30.5789943 29.707,30.293 C28.4434354,29.0243374 26.7809394,28.2303516 25,28.045 L25,15.868 L28.894,15.311 C28,16.745 27,18.642 27,20 C27,21.626 28.832,23 31,23 C33.168,23 35,21.626 35,20 C35,17.779 32.334,14.112 31.8,13.4 Z M15.237,21 C15.7112823,19.85605 16.3020627,18.7639608 17,17.741 C17.6990941,18.7632555 18.289941,19.8554678 18.763,21 L15.237,21 Z M29.237,19 C29.7112823,17.85605 30.3020627,16.7639608 31,15.741 C31.6990941,16.7632555 32.289941,17.8554678 32.763,19 L29.237,19 Z" id="Shape" fill="#1C7F8A" fill-rule="nonzero"></path>
                <path d="M37,0 L11,0 C8.23994685,0.00330611633 6.00330612,2.23994685 6,5 L6,43 C6.00330612,45.7600532 8.23994685,47.9966939 11,48.0000208 L32.17,48.0000208 C32.6001267,48.001616 33.0254003,47.9091207 33.416,47.729 C33.7439851,47.5794722 34.0424024,47.3721721 34.297,47.117 L41.117,40.297 C41.6825875,39.7337094 42.0003639,38.9682389 42,38.17 L42,5 C41.9966939,2.23994685 39.7600532,0.00330611633 37,0 Z M8,43 L8,5 C8,3.34314575 9.34314575,2 11,2 L37,2 C38.6568542,2 40,3.34314575 40,5 L40,38 L36.44,38 C33.9885414,38.0016547 32.0016547,39.9885414 32,42.44 L32,46 L11,46 C9.34314575,46 8,44.6568542 8,43 Z" id="Shape" fill="#46BBC4" fill-rule="nonzero"></path>
            </g>
        </g>
    </g>
</svg>