<?xml version="1.0" encoding="UTF-8"?>
<svg width="48px" height="48px" viewBox="0 0 48 48" version="1.1" xmlns="http://www.w3.org/2000/svg" xmlns:xlink="http://www.w3.org/1999/xlink">
    <!-- Generator: sketchtool 59.1 (101010) - https://sketch.com -->
    <title>C884811C-F460-4FB1-BF2A-0E2A1803A752</title>
    <desc>Created with sketchtool.</desc>
    <g id="Asset-Artboard-Page" stroke="none" stroke-width="1" fill="none" fill-rule="evenodd">
        <g id="icon-/-48x48-/-section-role-/-maintenance-icon-/-48x48-/-section-role-/-community-association-manager">
            <g id="icon-/-48x48-/-section-role-/-community-association-manager">
                <rect id="bounds" x="0" y="0" width="48" height="48"></rect>
                <path d="M34.669,32.257 L24.669,23.257 C24.2886843,22.9146832 23.7113157,22.9146832 23.331,23.257 L13.331,32.257 C13.0234587,32.5340319 12.918377,32.9719015 13.0666975,33.358333 C13.215018,33.7447645 13.5860818,33.9998794 14,34 L17,34 L17,40 C17,41.6568542 18.3431458,43 20,43 L28,43 C29.6568542,43 31,41.6568542 31,40 L31,34 L34,34 C34.4139182,33.9998794 34.784982,33.7447645 34.9333025,33.358333 C35.081623,32.9719015 34.9765413,32.5340319 34.669,32.257 Z M30,32 C29.4477153,32 29,32.4477153 29,33 L29,40 C29,40.5522847 28.5522847,41 28,41 L20,41 C19.4477153,41 19,40.5522847 19,40 L19,33 C19,32.4477153 18.5522847,32 18,32 L16.606,32 L24,25.346 L31.394,32 L30,32 Z" id="Shape" fill="#46BBC4" fill-rule="nonzero"></path>
                <path d="M21.669,14.257 L11.669,5.257 C11.2886843,4.9146832 10.7113157,4.9146832 10.331,5.257 L0.331,14.257 C0.0234587389,14.5340319 -0.0816230307,14.9719015 0.0666975009,15.358333 C0.215018033,15.7447645 0.586081789,15.9998794 1,16 L4,16 L4,22 C4,23.6568542 5.34314575,25 7,25 L15,25 C16.6568542,25 18,23.6568542 18,22 L18,16 L21,16 C21.4139182,15.9998794 21.784982,15.7447645 21.9333025,15.358333 C22.081623,14.9719015 21.9765413,14.5340319 21.669,14.257 Z M17,14 C16.4477153,14 16,14.4477153 16,15 L16,22 C16,22.5522847 15.5522847,23 15,23 L7,23 C6.44771525,23 6,22.5522847 6,22 L6,15 C6,14.4477153 5.55228475,14 5,14 L3.606,14 L11,7.346 L18.394,14 L17,14 Z" id="Shape" fill="#F4BA67" fill-rule="nonzero"></path>
                <path d="M26,35 L26,38 C26,38.5522847 25.5522847,39 25,39 L23,39 C22.4477153,39 22,38.5522847 22,38 L22,35 C22,34.4477153 22.4477153,34 23,34 L25,34 C25.5522847,34 26,34.4477153 26,35 Z M38,16 L36,16 C35.4477153,16 35,16.4477153 35,17 L35,20 C35,20.5522847 35.4477153,21 36,21 L38,21 C38.5522847,21 39,20.5522847 39,20 L39,17 C39,16.4477153 38.5522847,16 38,16 Z M12,16 L10,16 C9.44771525,16 9,16.4477153 9,17 L9,20 C9,20.5522847 9.44771525,21 10,21 L12,21 C12.5522847,21 13,20.5522847 13,20 L13,17 C13,16.4477153 12.5522847,16 12,16 Z" id="Shape" fill="#1C7F8A" fill-rule="nonzero"></path>
                <path d="M47.669,14.257 L37.669,5.257 C37.2886843,4.9146832 36.7113157,4.9146832 36.331,5.257 L26.331,14.257 C26.0234587,14.5340319 25.918377,14.9719015 26.0666975,15.358333 C26.215018,15.7447645 26.5860818,15.9998794 27,16 L30,16 L30,22 C30,23.6568542 31.3431458,25 33,25 L41,25 C42.6568542,25 44,23.6568542 44,22 L44,16 L47,16 C47.4139182,15.9998794 47.784982,15.7447645 47.9333025,15.358333 C48.081623,14.9719015 47.9765413,14.5340319 47.669,14.257 Z M43,14 C42.4477153,14 42,14.4477153 42,15 L42,22 C42,22.5522847 41.5522847,23 41,23 L33,23 C32.4477153,23 32,22.5522847 32,22 L32,15 C32,14.4477153 31.5522847,14 31,14 L29.606,14 L37,7.346 L44.394,14 L43,14 Z" id="Shape" fill="#F57361" fill-rule="nonzero"></path>
            </g>
        </g>
    </g>
</svg>