<?xml version="1.0" encoding="UTF-8"?>
<svg width="230px" height="120px" viewBox="0 0 230 120" version="1.1" xmlns="http://www.w3.org/2000/svg" xmlns:xlink="http://www.w3.org/1999/xlink">
    <!-- Generator: sketchtool 59.1 (101010) - https://sketch.com -->
    <title>E7490D2C-516D-42F7-ACC2-A56837866465</title>
    <desc>Created with sketchtool.</desc>
    <g id="Pages" stroke="none" stroke-width="1" fill="none" fill-rule="evenodd">
        <g id="Association-Solution" transform="translate(-522.000000, -3680.000000)">
            <g id="section-4" transform="translate(0.000000, 3496.000000)">
                <g id="cards" transform="translate(238.000000, 184.000000)">
                    <g id="illustrations">
                        <g id="commercial" transform="translate(284.000000, 0.000000)">
                            <polygon id="bounds" fill="#FFFFFF" points="0 120 230 120 230 0 0 0"></polygon>
                            <line x1="31" y1="119" x2="199" y2="119" id="Stroke-2" stroke="#46BBC4" stroke-width="2" stroke-linecap="round" stroke-linejoin="round"></line>
                            <polygon id="Fill-4" fill="#1C7F8A" points="87 115 99 115 99 101 87 101"></polygon>
                            <polygon id="Stroke-5" stroke="#1C7F8A" stroke-width="2" stroke-linecap="round" stroke-linejoin="round" points="87 115 99 115 99 101 87 101"></polygon>
                            <line x1="89" y1="113" x2="97" y2="113" id="Stroke-6" stroke="#46BBC4" stroke-width="2" stroke-linecap="round" stroke-linejoin="round"></line>
                            <polygon id="Fill-7" fill="#1C7F8A" points="144 115 152 115 152 101 144 101"></polygon>
                            <polygon id="Stroke-8" stroke="#1C7F8A" stroke-width="2" stroke-linecap="round" stroke-linejoin="round" points="144 115 152 115 152 101 144 101"></polygon>
                            <line x1="146" y1="113" x2="150" y2="113" id="Stroke-9" stroke="#46BBC4" stroke-width="2" stroke-linecap="round" stroke-linejoin="round"></line>
                            <polyline id="Stroke-10" stroke="#46BBC4" stroke-width="2" stroke-linecap="round" stroke-linejoin="round" points="60 115 60 25 126 25 126 115"></polyline>
                            <polyline id="Stroke-11" stroke="#F4BA67" stroke-width="2" stroke-linecap="round" stroke-linejoin="round" points="90 21 90 15 70 15 70 21"></polyline>
                            <line x1="74" y1="21" x2="86" y2="21" id="Stroke-12" stroke="#FDEFDB" stroke-width="2" stroke-linecap="round" stroke-linejoin="round"></line>
                            <polyline id="Stroke-13" stroke="#F57361" stroke-width="2" stroke-linecap="round" stroke-linejoin="round" points="150 53 150 47 136 47 136 53"></polyline>
                            <line x1="140" y1="53" x2="146" y2="53" id="Stroke-14" stroke="#FDDED9" stroke-width="2" stroke-linecap="round" stroke-linejoin="round"></line>
                            <polyline id="Stroke-15" stroke="#46BBC4" stroke-width="2" stroke-linecap="round" stroke-linejoin="round" points="126 57 170 57 170 115"></polyline>
                            <polygon id="Stroke-16" stroke="#A7DFE3" stroke-width="2" stroke-linecap="round" stroke-linejoin="round" points="152 91 160 91 160 83 152 83"></polygon>
                            <polygon id="Stroke-17" stroke="#A7DFE3" stroke-width="2" stroke-linecap="round" stroke-linejoin="round" points="136 91 144 91 144 83 136 83"></polygon>
                            <polygon id="Stroke-18" stroke="#A7DFE3" stroke-width="2" stroke-linecap="round" stroke-linejoin="round" points="152 75 160 75 160 67 152 67"></polygon>
                            <polygon id="Stroke-19" stroke="#A7DFE3" stroke-width="2" stroke-linecap="round" stroke-linejoin="round" points="136 75 144 75 144 67 136 67"></polygon>
                            <polygon id="Stroke-20" stroke="#A7DFE3" stroke-width="2" stroke-linecap="round" stroke-linejoin="round" points="70 91 99 91 99 83 70 83"></polygon>
                            <polygon id="Stroke-21" stroke="#A7DFE3" stroke-width="2" stroke-linecap="round" stroke-linejoin="round" points="70 75 99 75 99 67 70 67"></polygon>
                            <polygon id="Stroke-22" stroke="#A7DFE3" stroke-width="2" stroke-linecap="round" stroke-linejoin="round" points="70 59 99 59 99 51 70 51"></polygon>
                            <polygon id="Stroke-23" stroke="#A7DFE3" stroke-width="2" stroke-linecap="round" stroke-linejoin="round" points="70 43 99 43 99 35 70 35"></polygon>
                            <line x1="109" y1="67" x2="109" y2="115" id="Stroke-24" stroke="#D3EFF1" stroke-width="2" stroke-linecap="round" stroke-linejoin="round"></line>
                            <line x1="116" y1="35" x2="116" y2="51" id="Stroke-25" stroke="#D3EFF1" stroke-width="2" stroke-linecap="round" stroke-linejoin="round"></line>
                            <line x1="116" y1="21" x2="116" y2="7" id="Stroke-26" stroke="#F4BA67" stroke-width="2" stroke-linecap="round" stroke-linejoin="round"></line>
                            <line x1="110" y1="21" x2="110" y2="11" id="Stroke-27" stroke="#F4BA67" stroke-width="2" stroke-linecap="round" stroke-linejoin="round"></line>
                            <path d="M39.0996,115 C39.0306,114.68 38.9996,114.34 38.9996,114 C38.9996,111.57 40.7406,109.54 43.0396,109.09 C43.0096,108.9 42.9996,108.7 42.9996,108.5 C42.9996,106.01 45.0096,104 47.4996,104 C49.0896,104 50.4906,104.82 51.2806,106.07 C51.9996,105.41 52.9506,105 53.9996,105 C54.7306,105 55.4106,105.2 55.9996,105.54" id="Stroke-28" stroke="#A5CD7F" stroke-width="2" stroke-linecap="round" stroke-linejoin="round"></path>
                            <path d="M174,105.0303 C174.16,105.0093 174.33,105.0003 174.5,105.0003 C175.09,105.0003 175.66,105.1203 176.17,105.3303 C176.69,103.4203 178.42,102.0003 180.5,102.0003 C182.55,102.0003 184.26,103.3803 184.8,105.2503 C185.17,105.0903 185.57,105.0003 186,105.0003 C187.66,105.0003 189,106.3403 189,108.0003 C189,108.3093 188.94,108.6103 188.85,108.9003 C190.15,109.8003 191,111.3003 191,113.0003 C191,113.7103 190.85,114.3893 190.59,115.0003" id="Stroke-30" stroke="#A5CD7F" stroke-width="2" stroke-linecap="round" stroke-linejoin="round"></path>
                            <polyline id="Stroke-32" stroke="#FDEFDB" stroke-width="2" stroke-linecap="round" stroke-linejoin="round" points="21 60 21 35 50 35"></polyline>
                            <polyline id="Stroke-34" stroke="#FDEFDB" stroke-width="2" stroke-linecap="round" stroke-linejoin="round" points="44 70 1 70 1 107"></polyline>
                            <polyline id="Stroke-36" stroke="#FDEFDB" stroke-width="2" stroke-linecap="round" stroke-linejoin="round" points="170 47 199 47 199 82"></polyline>
                            <polyline id="Stroke-38" stroke="#FDEFDB" stroke-width="2" stroke-linecap="round" stroke-linejoin="round" points="229 65 211 65 211 108"></polyline>
                            <polyline id="Stroke-40" stroke="#FDEFDB" stroke-width="2" stroke-linecap="round" stroke-linejoin="round" points="174 75 187 75 187 97"></polyline>
                        </g>
                    </g>
                </g>
            </g>
        </g>
    </g>
</svg>