<?xml version="1.0" encoding="UTF-8"?>
<svg width="48px" height="48px" viewBox="0 0 48 48" version="1.1" xmlns="http://www.w3.org/2000/svg" xmlns:xlink="http://www.w3.org/1999/xlink">
    <!-- Generator: sketchtool 59.1 (101010) - https://sketch.com -->
    <title>00A68C0B-CEBA-45AD-AC63-2EB900436864</title>
    <desc>Created with sketchtool.</desc>
    <g id="Asset-Artboard-Page" stroke="none" stroke-width="1" fill="none" fill-rule="evenodd">
        <g id="icon-/-48x48-/-section-role-/-late-fee-policy-icon-/-48x48-/-section-role-/-common-area-maintenance">
            <g id="icon-/-48x48-/-section-role-/-common-area-maintenance">
                <rect id="bounds" x="0" y="0" width="48" height="48"></rect>
                <path d="M28,48 L8,48 C6.34383121,47.9983463 5.00165369,46.6561688 5,45 L5,32 L1,32 C0.589993904,32.0001734 0.221422379,31.7500537 0.0701390188,31.3689784 C-0.0811443412,30.9879031 0.015515499,30.5530908 0.314,30.272 L17.314,14.272 C17.5740893,14.0269158 17.9451727,13.9392047 18.2874665,14.0419066 C18.6297603,14.1446085 18.891262,14.4221205 18.9734665,14.7699066 C19.055671,15.1176927 18.9460893,15.4829158 18.686,15.728 L3.52,30 L6,30 C6.55228475,30 7,30.4477153 7,31 L7,45 C7.00055123,45.5520563 7.44794374,45.9994488 8,46 L28,46 C28.5520563,45.9994488 28.9994488,45.5520563 29,45 L29,37 C29,36.4477153 29.4477153,36 30,36 C30.5522847,36 31,36.4477153 31,37 L31,45 C30.9983463,46.6561688 29.6561688,47.9983463 28,48 Z" id="Path" fill="#46BBC4" fill-rule="nonzero"></path>
                <circle id="Oval" fill="#F4BA67" fill-rule="nonzero" cx="9" cy="9" r="5"></circle>
                <path d="M48,3 L48,45 C47.9983463,46.6561688 46.6561688,47.9983463 45,48 L34,48 C33.4477153,48 33,47.5522847 33,47 C33,46.4477153 33.4477153,46 34,46 L45,46 C45.5520563,45.9994488 45.9994488,45.5520563 46,45 L46,3 C45.9994488,2.44794374 45.5520563,2.00055123 45,2 L29,2 C28.4479437,2.00055123 28.0005512,2.44794374 28,3 L28,17 C28,17.5522847 27.5522847,18 27,18 C26.4477153,18 26,17.5522847 26,17 L26,3 C26.0016537,1.34383121 27.3438312,0.00165368949 29,0 L45,0 C46.6561688,0.00165368949 47.9983463,1.34383121 48,3 Z M33,10 L35,10 C35.5522847,10 36,9.55228475 36,9 L36,7 C36,6.44771525 35.5522847,6 35,6 L33,6 C32.4477153,6 32,6.44771525 32,7 L32,9 C32,9.55228475 32.4477153,10 33,10 Z M39,10 L41,10 C41.5522847,10 42,9.55228475 42,9 L42,7 C42,6.44771525 41.5522847,6 41,6 L39,6 C38.4477153,6 38,6.44771525 38,7 L38,9 C38,9.55228475 38.4477153,10 39,10 Z M35,16 C35.5522847,16 36,15.5522847 36,15 L36,13 C36,12.4477153 35.5522847,12 35,12 L33,12 C32.4477153,12 32,12.4477153 32,13 L32,15 C32,15.5522847 32.4477153,16 33,16 L35,16 Z M38,15 C38,15.5522847 38.4477153,16 39,16 L41,16 C41.5522847,16 42,15.5522847 42,15 L42,13 C42,12.4477153 41.5522847,12 41,12 L39,12 C38.4477153,12 38,12.4477153 38,13 L38,15 Z M38,21 C38,21.5522847 38.4477153,22 39,22 L41,22 C41.5522847,22 42,21.5522847 42,21 L42,19 C42,18.4477153 41.5522847,18 41,18 L39,18 C38.4477153,18 38,18.4477153 38,19 L38,21 Z M38,27 C38,27.5522847 38.4477153,28 39,28 L41,28 C41.5522847,28 42,27.5522847 42,27 L42,25 C42,24.4477153 41.5522847,24 41,24 L39,24 C38.4477153,24 38,24.4477153 38,25 L38,27 Z" id="Shape" fill="#A7DFE3" fill-rule="nonzero"></path>
                <path d="M21,35 L21,43 C21,43.5522847 20.5522847,44 20,44 L16,44 C15.4477153,44 15,43.5522847 15,43 L15,35 C15,34.4477153 15.4477153,34 16,34 L20,34 C20.5522847,34 21,34.4477153 21,35 Z M40.827,38.827 C39.264774,40.3860936 36.735226,40.3860936 35.173,38.827 L28.991,32.033 C28.717771,31.7545214 28.3133611,31.6491903 27.939,31.759 C26.7157097,32.0687398 25.4360378,32.0810839 24.207,31.795 C21.8471138,31.2548382 19.8593953,29.6738472 18.8020692,27.4960273 C17.744743,25.3182075 17.7318459,22.7784456 18.767,20.59 C18.9065818,20.2969571 19.1797112,20.0898909 19.49956,20.034628 C19.8194089,19.9793651 20.1461828,20.0827811 20.376,20.312 L25.076,25.002 L26.066,24.582 C26.3026564,24.4870153 26.4899279,24.2990207 26.584,24.062 L27.002,23.025 L22.312,18.376 C22.0827811,18.1461828 21.9793651,17.8194089 22.034628,17.49956 C22.0898909,17.1797112 22.2969571,16.9065818 22.59,16.767 C24.7792442,15.731516 27.3199899,15.7448548 29.4982412,16.803268 C31.6764926,17.8616812 33.2571427,19.8509303 33.796,22.212 C34.0824914,23.4386754 34.0698013,24.7162574 33.759,25.937 C33.6481571,26.311966 33.7535775,26.7174882 34.033,26.991 L40.793,33.141 C41.5536466,33.8893545 41.9848377,34.9098955 41.99129,35.9769368 C41.9975987,37.043978 41.5786428,38.0696026 40.827,38.827 L40.827,38.827 Z M39.413,34.587 L32.688,28.47 C31.8585446,27.6994955 31.5246615,26.5326376 31.821,25.44 C32.0519506,24.52601 32.0605233,23.5699846 31.846,22.652 C31.3199632,20.3304591 29.4646499,18.5435263 27.125,18.105 C26.379348,17.9657934 25.6142792,17.9668108 24.869,18.108 L28.418,21.664 C28.9749276,22.2110056 29.1495202,23.0386452 28.861,23.764 L28.438,24.814 C28.1402076,25.55192 27.555552,26.1372974 26.818,26.436 L25.775,26.857 C25.0397907,27.1502374 24.200302,26.9709675 23.649,26.403 L20.107,22.87 C19.9670862,23.613351 19.9657301,24.3761562 20.103,25.12 C20.5397562,27.4600966 22.3256268,29.3167103 24.647,29.844 C25.5673489,30.0607526 26.5263415,30.0528639 27.443,29.821 C27.7043202,29.753514 27.9731064,29.7192437 28.243,29.719 C29.088403,29.7132558 29.897014,30.064368 30.47,30.686 L36.62,37.447 C37.4166243,38.1723224 38.6446304,38.1362907 39.3973565,37.3655078 C40.1500827,36.5947248 40.1569994,35.3662098 39.413,34.587 L39.413,34.587 Z" id="Shape" fill="#1C7F8A" fill-rule="nonzero"></path>
            </g>
        </g>
    </g>
</svg>