<?xml version="1.0" encoding="UTF-8"?>
<svg width="48px" height="48px" viewBox="0 0 48 48" version="1.1" xmlns="http://www.w3.org/2000/svg" xmlns:xlink="http://www.w3.org/1999/xlink">
    <!-- Generator: sketchtool 59.1 (101010) - https://sketch.com -->
    <title>792F4AC6-5591-47F2-A6BA-E57B4E4B0469</title>
    <desc>Created with sketchtool.</desc>
    <g id="Asset-Artboard-Page" stroke="none" stroke-width="1" fill="none" fill-rule="evenodd">
        <g id="icon-/-48x48-/-section-role-/-maintenance-icon-/-48x48-/-section-role-/-contacts">
            <g id="icon-/-48x48-/-section-role-/-contacts">
                <rect id="bounds" x="0" y="0" width="48" height="48"></rect>
                <path d="M37,0 L11,0 C8.23994685,0.00330611633 6.00330612,2.23994685 6,5 L6,11 L5,11 C4.44771525,11 4,11.4477153 4,12 C4,12.5522847 4.44771525,13 5,13 L6,13 L6,19 L5,19 C4.44771525,19 4,19.4477153 4,20 C4,20.5522847 4.44771525,21 5,21 L6,21 L6,27 L5,27 C4.44771525,27 4,27.4477153 4,28 C4,28.5522847 4.44771525,29 5,29 L6,29 L6,35 L5,35 C4.44771525,35 4,35.4477153 4,36 C4,36.5522847 4.44771525,37 5,37 L6,37 L6,43 C6.00330612,45.7600532 8.23994685,47.9966939 11,48 L37,48 C39.7600532,47.9966939 41.9966939,45.7600532 42,43 L42,5 C41.9966939,2.23994685 39.7600532,0.00330611633 37,0 Z M40,43 C40,44.6568542 38.6568542,46 37,46 L11,46 C9.34314575,46 8,44.6568542 8,43 L8,37 L9,37 C9.55228475,37 10,36.5522847 10,36 C10,35.4477153 9.55228475,35 9,35 L8,35 L8,29 L9,29 C9.55228475,29 10,28.5522847 10,28 C10,27.4477153 9.55228475,27 9,27 L8,27 L8,21 L9,21 C9.55228475,21 10,20.5522847 10,20 C10,19.4477153 9.55228475,19 9,19 L8,19 L8,13 L9,13 C9.55228475,13 10,12.5522847 10,12 C10,11.4477153 9.55228475,11 9,11 L8,11 L8,5 C8,3.34314575 9.34314575,2 11,2 L37,2 C38.6568542,2 40,3.34314575 40,5 L40,43 Z" id="Shape" fill="#46BBC4" fill-rule="nonzero"></path>
                <path d="M27.5,31.564 C27.5079449,31.7941223 27.3299534,31.9881331 27.1,32 L14.907,32 C14.6746772,31.9918518 14.4926959,31.7973509 14.5,31.565 C14.527,28.665 14.87,27.425 17.292,26.709 C18.455,26.365 19.108,25.866 19.312,25.28 C19.3235933,25.2447603 19.3191986,25.2062133 19.2999708,25.1744874 C19.280743,25.1427615 19.2486046,25.1210289 19.212,25.115 C18.5658421,24.9984969 17.9393408,24.7914586 17.351,24.5 C17.2556942,24.4509793 17.2125937,24.3380559 17.251,24.238 C17.5394499,23.4094245 17.7709883,22.5621207 17.944,21.702 C18.214,20.253 17.284,19.139 18.231,17.393 C18.5451809,16.6146369 19.3750452,16.1764652 20.195,16.356 C20.9048476,15.9533198 21.7611035,15.9018578 22.5140704,16.216621 C23.2670372,16.5313842 23.8319236,17.1769273 24.044,17.965 C24.495,19.316 23.844,20.465 24.073,21.702 C24.2453065,22.5621859 24.4765177,23.409515 24.765,24.238 C24.8034063,24.3380559 24.7603058,24.4509793 24.665,24.5 C24.0766592,24.7914586 23.4501579,24.9984969 22.804,25.115 C22.7673954,25.1210289 22.735257,25.1427615 22.7160292,25.1744874 C22.6968014,25.2062133 22.6924067,25.2447603 22.704,25.28 C22.904,25.866 23.561,26.365 24.724,26.709 C27.146,27.425 27.49,28.661 27.516,31.565" id="Path" fill="#1C7F8A"></path>
                <path d="M32.674,27.706 C31.582,27.391 31.244,27.091 31.16,26.537 C31.1428038,26.4432293 31.1701465,26.346791 31.234,26.276 C31.5899296,25.7300526 31.7901213,25.0973225 31.813,24.446 C32.0563026,24.0805678 32.2113791,23.6636069 32.266,23.228 C32.372,22.767 32.141,22.589 32.022,22.528 C31.9860833,22.5085952 31.9670205,22.468036 31.975,22.428 C32.488,19.997 31.045,19.255 30.585,19.341 C28.963,18.631 28.159,19.153 27.693,19.762 C26.928,20.057 26.93,21.562 27.187,22.418 C27.1995903,22.4630767 27.179232,22.5108563 27.138,22.533 C27.016,22.597 26.798,22.778 26.902,23.227 C26.9555937,23.6630096 27.1103794,24.0804515 27.354,24.446 C27.3770592,25.0969799 27.5772435,25.7293409 27.933,26.275 C29.292,27.64 29.479,29.538 29.497,31.541 C29.497236,31.6933141 29.4831743,31.8453141 29.455,31.9950009 L34.455,31.9950009 C34.5981249,31.9952655 34.7354787,31.9385954 34.8367772,31.8374845 C34.9380757,31.7363736 34.9950592,31.5991251 34.9950592,31.456 C35,29.3 34.692,28.287 32.674,27.706 L32.674,27.706 Z" id="Path" fill="#F4BA67"></path>
            </g>
        </g>
    </g>
</svg>