<?xml version="1.0" encoding="UTF-8"?>
<svg width="48px" height="48px" viewBox="0 0 48 48" version="1.1" xmlns="http://www.w3.org/2000/svg" xmlns:xlink="http://www.w3.org/1999/xlink">
    <!-- Generator: sketchtool 59.1 (101010) - https://sketch.com -->
    <title>47984542-30D0-40AD-92A3-29458179E514</title>
    <desc>Created with sketchtool.</desc>
    <g id="Asset-Artboard-Page" stroke="none" stroke-width="1" fill="none" fill-rule="evenodd">
        <g id="icon-/-48x48-/-section-role-/-e-lease">
            <g>
                <rect id="bounds" x="0" y="0" width="48" height="48"></rect>
                <path d="M41,13 C41.5522847,13 42,12.5522847 42,12 L42,5 C41.9966939,2.23994685 39.7600532,0.00330611633 37,0 L11,0 C8.23994685,0.00330611633 6.00330612,2.23994685 6,5 L6,43 C6.00330612,45.7600532 8.23994685,47.9966939 11,48.0000187 L32.17,48.0000187 C32.599688,48.0015264 33.0245465,47.9093884 33.415,47.73 C33.7433099,47.5800861 34.0420464,47.3724608 34.297,47.117 L41.117,40.297 C41.3717417,40.0424228 41.5789925,39.7444151 41.729,39.417 C41.90862,39.0258792 42.0010874,38.6003924 42,38.17 L42,31 C42,30.4477153 41.5522847,30 41,30 C40.4477153,30 40,30.4477153 40,31 L40,38 L36.44,38 C33.9887698,38.0022053 32.0022053,39.9887698 32,42.44 L32,46 L11,46 C9.34383121,45.9983463 8.00165369,44.6561688 8,43 L8,5 C8.00165369,3.34383121 9.34383121,2.00165369 11,2 L37,2 C38.6561688,2.00165369 39.9983463,3.34383121 40,5 L40,12 C40,12.5522847 40.4477153,13 41,13 Z" id="Path" fill="#46BBC4" fill-rule="nonzero"></path>
                <path d="M32,27 C32,27.5522847 31.5522847,28 31,28 L14,28 C13.4477153,28 13,27.5522847 13,27 C13,26.4477153 13.4477153,26 14,26 L31,26 C31.5522847,26 32,26.4477153 32,27 Z M14,22 L31,22 C31.5522847,22 32,21.5522847 32,21 C32,20.4477153 31.5522847,20 31,20 L14,20 C13.4477153,20 13,20.4477153 13,21 C13,21.5522847 13.4477153,22 14,22 Z M30,32 L14,32 C13.4477153,32 13,32.4477153 13,33 C13,33.5522847 13.4477153,34 14,34 L30,34 C30.5522847,34 31,33.5522847 31,33 C31,32.4477153 30.5522847,32 30,32 Z M26,38 L14,38 C13.4477153,38 13,38.4477153 13,39 C13,39.5522847 13.4477153,40 14,40 L26,40 C26.5522847,40 27,39.5522847 27,39 C27,38.4477153 26.5522847,38 26,38 Z" id="Shape" fill="#A7DFE3" fill-rule="nonzero"></path>
                <path d="M30.854,11.934 C30.616,11.969 30.391,12 30.163,12.032 C29.5408821,12.1084351 28.9111403,12.0976645 28.292,12 C27.6039872,11.8662822 26.8932324,11.9103386 26.227,12.128 L26.007,12.211 L25.952,12.233 C25.9491182,12.2027351 25.9491182,12.1722649 25.952,12.142 C25.9803207,11.948379 26.0244686,11.7574059 26.084,11.571 C26.179604,11.2669142 26.2465622,10.9545544 26.284,10.638 C26.3276129,10.1766087 26.0484916,9.74570795 25.6095942,9.59686863 C25.1706968,9.44802931 24.6870421,9.62025666 24.441,10.013 C24.0082082,10.6905689 23.5032601,11.3192392 22.935,11.888 C22.5097622,11.4456604 21.8791552,11.2667973 21.285,11.42 C21.0684815,11.4639478 20.8615612,11.5462418 20.674,11.663 C21.8372369,10.7054484 22.3429228,9.16228815 21.972,7.702 C21.8515271,7.31528869 21.5094755,7.03959347 21.106,7.004 C20.7040299,6.97245979 20.3214459,7.1816057 20.131,7.537 C19.6028097,8.54924454 19.1239162,9.58645772 18.696,10.645 C18.0410393,11.0080435 17.3529183,11.3077361 16.641,11.54 C15.4433864,11.8980044 14.3236499,12.4777165 13.34,13.249 C12.9382607,13.6165395 12.9044129,14.2379448 13.2638543,14.6469456 C13.6232958,15.0559464 14.243901,15.1021999 14.66,14.751 C15.4606259,14.1509286 16.3626516,13.6997464 17.323,13.419 C17.591,13.323 17.866,13.223 18.144,13.114 C18.2361627,13.2804219 18.3738838,13.4171023 18.541,13.508 C18.7046624,13.5990747 18.8910936,13.6410825 19.078,13.629 C19.2324237,14.0304721 19.6262822,14.2882118 20.056,14.269 L20.096,14.268 C20.2727943,14.427527 20.5009385,14.5183589 20.739,14.524 C23.9656983,14.650257 27.1971806,14.4808837 30.393,14.018 L30.436,14.014 L30.449,14.01 C30.681,13.977 30.905,13.948 31.146,13.912 C31.5052324,13.8662605 31.8116669,13.6298813 31.9471132,13.2940325 C32.0825594,12.9581838 32.0258506,12.5753505 31.7988589,12.2931895 C31.5718672,12.0110285 31.2100659,11.8736346 30.853,11.934 L30.854,11.934 Z" id="Path" fill="#1C7F8A" fill-rule="nonzero"></path>
                <path d="M47.938,20.651 C47.5106966,17.3753495 44.6917496,14.9428765 41.3888351,14.9997174 C38.0859207,15.0565583 35.3523405,17.5845863 35.038,20.873 C35.0123243,21.081008 34.9996331,21.2904136 34.9999923,21.5 C34.9986609,24.2432963 36.7202708,26.691909 39.3021921,27.618925 C41.8841134,28.545941 44.7700655,27.7516328 46.514,25.634 C46.7405064,25.3576551 46.8023787,24.9814621 46.6763102,24.6471293 C46.5502416,24.3127966 46.2553851,24.0711171 45.9028101,24.0131293 C45.5502352,23.9551415 45.1935064,24.089655 44.967,24.366 C43.8165932,25.7588056 41.9446723,26.3284537 40.2134282,25.8125691 C38.482184,25.2966845 37.2273925,23.7953234 37.027,22 L47.002,22 C47.3293803,21.9996325 47.6358492,21.8390412 47.8224773,21.5700654 C48.0091054,21.3010896 48.052256,20.9577957 47.938,20.651 L47.938,20.651 Z M37.258,20 C37.8927716,18.2017504 39.5925033,16.9992247 41.4995,16.9992247 C43.4064967,16.9992247 45.1062284,18.2017504 45.741,20 L37.258,20 Z" id="Shape" fill="#F57361" fill-rule="nonzero"></path>
            </g>
        </g>
    </g>
</svg>