<?xml version="1.0" encoding="UTF-8"?>
<svg width="48px" height="48px" viewBox="0 0 48 48" version="1.1" xmlns="http://www.w3.org/2000/svg" xmlns:xlink="http://www.w3.org/1999/xlink">
    <!-- Generator: sketchtool 59.1 (101010) - https://sketch.com -->
    <title>FBE2387A-B716-43E4-8F72-550C89FCD4E5</title>
    <desc>Created with sketchtool.</desc>
    <g id="Asset-Artboard-Page" stroke="none" stroke-width="1" fill="none" fill-rule="evenodd">
        <g id="icon-/-48x48-/-section-role-/-accounting-icon-/-48x48-/-section-role-/-files">
            <g id="icon-/-48x48-/-section-role-/-files">
                <rect id="bounds" x="0" y="0" width="48" height="48"></rect>
                <path d="M43,44 L5,44 C2.23994685,43.9966939 0.00330611633,41.7600532 0,39 L0,9 C0.00330611633,6.23994685 2.23994685,4.00330612 5,3.999985 L13.343,3.999985 C14.6696767,3.99674205 15.9425446,4.52425305 16.878,5.465 L20.536,9.121 C21.0995284,9.68207495 21.861786,9.9979752 22.657,10 L43,10 C45.7600532,10.0033061 47.9966939,12.2399468 48,15 L48,39 C47.9966939,41.7600532 45.7600532,43.9966939 43,44 L43,44 Z M5,6 C3.34314575,6 2,7.34314575 2,9 L2,39 C2,40.6568542 3.34314575,42 5,42 L43,42 C44.6568542,42 46,40.6568542 46,39 L46,15 C46,13.3431458 44.6568542,12 43,12 L22.657,12 C21.3303233,12.0032579 20.0574554,11.4757469 19.122,10.535 L15.464,6.879 C14.9004716,6.31792505 14.138214,6.0020248 13.343,6 L5,6 Z" id="Shape" fill="#46BBC4" fill-rule="nonzero"></path>
                <path d="M40,37 L8,37 C7.44771525,37 7,36.5522847 7,36 C7,35.4477153 7.44771525,35 8,35 L40,35 C40.5522847,35 41,35.4477153 41,36 C41,36.5522847 40.5522847,37 40,37 Z" id="Path" fill="#A7DFE3"></path>
            </g>
        </g>
    </g>
</svg>