<?xml version="1.0" encoding="UTF-8"?>
<svg width="48px" height="48px" viewBox="0 0 48 48" version="1.1" xmlns="http://www.w3.org/2000/svg" xmlns:xlink="http://www.w3.org/1999/xlink">
    <!-- Generator: sketchtool 59.1 (101010) - https://sketch.com -->
    <title>42F24E2D-1942-4AD4-8804-176B1ACE14E1</title>
    <desc>Created with sketchtool.</desc>
    <g id="Asset-Artboard-Page" stroke="none" stroke-width="1" fill="none" fill-rule="evenodd">
        <g id="icon-/-48x48-/-section-role-/-maintenance">
            <g transform="translate(-1.000000, -1.000000)">
                <rect id="bounds" x="1" y="1" width="48" height="48"></rect>
                <path d="M47.1675287,38.6968088 L47.1385754,38.6678558 L31.0135841,23.8019855 C30.1404939,22.9757914 29.833661,21.7140761 30.2298482,20.5792165 C31.6418796,16.1983983 30.9619492,11.4116665 28.3858388,7.59733165 C25.8097285,3.78299674 21.6233462,1.36439018 17.0321354,1.03793512 C14.5570114,0.8550953 12.0758694,1.3015864 9.8197685,2.33582844 C9.52120867,2.47093158 9.30795982,2.74394779 9.24918019,3.06633582 C9.19040056,3.38872384 9.29357512,3.719431 9.52524355,3.95120642 L18.6315556,13.0574256 C18.913975,13.339596 19.0011458,13.7628807 18.8531981,14.1336787 L17.9806055,16.3151378 C17.6753475,17.0758638 17.0722143,17.6786302 16.311298,17.9834299 L14.1318134,18.8560136 C13.7607304,19.0044032 13.336911,18.9172049 13.054551,18.6343733 L3.94823894,9.52515901 C3.71646116,9.29349294 3.38575063,9.19031944 3.06335931,9.24909847 C2.740968,9.3078775 2.467949,9.52112417 2.33284448,9.81968095 C1.3024433,12.0769652 0.856126578,14.5570876 1.03493793,17.0319743 C1.6260926,24.7477269 7.9631379,30.7628539 15.6992852,30.9513808 C17.3548523,30.9868089 19.0045835,30.7434693 20.5794138,30.2315492 C21.7143107,29.8358958 22.9757471,30.1426546 23.8022156,31.0152771 L38.6971908,47.169057 C40.2012118,48.7262689 42.4284399,49.3507913 44.5228383,48.8025884 C46.6172368,48.2543856 48.2528684,46.6187707 48.8010768,44.5243936 C49.3492852,42.4300165 48.7247565,40.2028111 47.1675287,38.6988055 L47.1675287,38.6968088 Z M45.7558057,45.7553516 C44.2075259,47.3038574 41.7010244,47.3167728 40.1368687,45.7843047 L25.2708468,29.6604762 C24.3303982,28.637249 23.0025048,28.0573888 21.6127471,28.063069 C21.0532183,28.0641187 20.4973277,28.1530603 19.9654042,28.3266412 C18.6001304,28.7699691 17.1704117,28.9822145 15.7352272,28.9546219 C9.0312774,28.7906884 3.54023466,23.5775516 3.02872207,16.8912028 C2.90944064,15.2443194 3.10980252,13.58991 3.61877036,12.0191109 L11.642828,20.0430867 C12.4899451,20.8908191 13.7608444,21.151987 14.8736169,20.7070091 L17.0531015,19.8344254 C18.3201937,19.3249883 19.3247179,18.3208349 19.8346151,17.0539386 L20.7072077,14.8734778 C21.1538387,13.7608641 20.8924763,12.4890447 20.0432786,11.6427219 L12.0192209,3.61874606 C13.5903279,3.11110941 15.2444953,2.91078094 16.8913624,3.02870379 C20.8708367,3.31306593 24.4989672,5.41016505 26.7316678,8.71650806 C28.9643685,12.0228511 29.554011,16.1717323 28.3309111,19.9692067 C27.688836,21.8451636 28.2097408,23.9232866 29.6607661,25.2745952 L45.7697832,40.1224947 C47.3156449,41.6841916 47.3093988,44.2013456 45.7558057,45.7553516 Z" id="Shape" fill="#46BBC4" fill-rule="nonzero"></path>
                <path d="M18.565,24.5800042 C18.0850041,24.580924 17.6720576,24.2406718 17.5811668,23.769359 C17.490276,23.2980461 17.7470821,22.8286349 18.193,22.651 C20.2243563,21.8348531 21.8343088,20.2245393 22.65,18.193 C22.8551738,17.6799275 23.4374275,17.4303263 23.9505,17.6355 C24.4635725,17.8406738 24.7131738,18.4229275 24.508,18.936 C23.4872032,21.4743238 21.4757738,23.4868365 18.938,24.509 C18.819342,24.5562706 18.6927267,24.5803716 18.565,24.5800042 L18.565,24.5800042 Z" id="Path" fill="#F4BA67"></path>
            </g>
        </g>
    </g>
</svg>