<?xml version="1.0" encoding="UTF-8"?>
<svg width="230px" height="120px" viewBox="0 0 230 120" version="1.1" xmlns="http://www.w3.org/2000/svg" xmlns:xlink="http://www.w3.org/1999/xlink">
    <!-- Generator: sketchtool 59.1 (101010) - https://sketch.com -->
    <title>0C0FC628-2352-4A17-B3DF-18924A6968E0</title>
    <desc>Created with sketchtool.</desc>
    <g id="Pages" stroke="none" stroke-width="1" fill="none" fill-rule="evenodd">
        <g id="Commercial-Solution" transform="translate(-383.000000, -3770.000000)">
            <g id="section-4" transform="translate(0.000000, 3368.000000)">
                <g id="cards" transform="translate(238.000000, 184.000000)">
                    <g id="illustrations">
                        <g id="marina" transform="translate(145.000000, 218.000000)">
                            <polygon id="Fill-1" fill="#FFFFFF" points="0 120 230 120 230 0 0 0"></polygon>
                            <polygon id="Fill-2" fill="#1C7F8A" points="167 75.9199 167 88.9499 155 88.3299 155 74.9999"></polygon>
                            <polygon id="Stroke-3" stroke="#1C7F8A" stroke-width="2" stroke-linecap="round" stroke-linejoin="round" points="167 75.9199 167 88.9499 155 88.3299 155 74.9999"></polygon>
                            <line x1="31" y1="119" x2="199" y2="119" id="Stroke-4" stroke="#46BBC4" stroke-width="2" stroke-linecap="round" stroke-linejoin="round"></line>
                            <polyline id="Stroke-6" stroke="#A7DFE3" stroke-width="2" stroke-linecap="round" stroke-linejoin="round" points="177 85.71 182 86 182 90"></polyline>
                            <line x1="157" y1="86.3999" x2="165" y2="86.8499" id="Stroke-7" stroke="#46BBC4" stroke-width="2" stroke-linecap="round" stroke-linejoin="round"></line>
                            <polyline id="Stroke-8" stroke="#A7DFE3" stroke-width="2" stroke-linecap="round" stroke-linejoin="round" points="96.5 85 95 81 126.48 82.81"></polyline>
                            <path d="M121,103 C121,106.313 118.313,109 115,109 C111.687,109 109,106.313 109,103 C109,99.687 111.687,97 115,97 C118.313,97 121,99.687 121,103 Z" id="Stroke-9" stroke="#F57361" stroke-width="2" stroke-linecap="round" stroke-linejoin="round"></path>
                            <line x1="77" y1="79" x2="90" y2="85" id="Stroke-11" stroke="#1C7F8A" stroke-width="2" stroke-linecap="round" stroke-linejoin="round"></line>
                            <line x1="47" y1="89" x2="69" y2="89" id="Stroke-13" stroke="#A7DFE3" stroke-width="2" stroke-linecap="round" stroke-linejoin="round"></line>
                            <line x1="47" y1="115" x2="69" y2="93" id="Stroke-15" stroke="#A7DFE3" stroke-width="2" stroke-linecap="round" stroke-linejoin="round"></line>
                            <line x1="141" y1="111" x2="169" y2="111" id="Stroke-17" stroke="#A7DFE3" stroke-width="2" stroke-linecap="round" stroke-linejoin="round"></line>
                            <path d="M107,58 C107,58 109,58 110,60 C111,58 113,58 113,58" id="Stroke-19" stroke="#FDEFDB" stroke-width="2" stroke-linecap="round" stroke-linejoin="round"></path>
                            <path d="M139,25 C139,25 141,25 142,27 C143,25 145,25 145,25" id="Stroke-21" stroke="#FDEFDB" stroke-width="2" stroke-linecap="round" stroke-linejoin="round"></path>
                            <path d="M30,36 C30,36 32,36 33,38 C34,36 36,36 36,36" id="Stroke-23" stroke="#FDEFDB" stroke-width="2" stroke-linecap="round" stroke-linejoin="round"></path>
                            <path d="M205,45 C205,45 207,45 208,47 C209,45 211,45 211,45" id="Stroke-25" stroke="#FDEFDB" stroke-width="2" stroke-linecap="round" stroke-linejoin="round"></path>
                            <path d="M190,15 C190,15 192,15 193,17 C194,15 196,15 196,15" id="Stroke-27" stroke="#FDEFDB" stroke-width="2" stroke-linecap="round" stroke-linejoin="round"></path>
                            <path d="M109,28 C109,38.494 100.493,47 90,47 C79.507,47 71,38.494 71,28 C71,17.506 79.507,9 90,9 C100.493,9 109,17.506 109,28 Z" id="Stroke-29" stroke="#FDEFDB" stroke-width="2" stroke-linecap="round" stroke-linejoin="round"></path>
                            <polyline id="Stroke-32" stroke="#46BBC4" stroke-width="2" stroke-linecap="round" stroke-linejoin="round" points="73 115 73 83 43 83 43 115"></polyline>
                            <polygon id="Stroke-33" stroke="#46BBC4" stroke-width="2" stroke-linecap="round" stroke-linejoin="round" points="66 83 70 83 70 76 66 76"></polygon>
                            <polygon id="Stroke-34" stroke="#46BBC4" stroke-width="2" stroke-linecap="round" stroke-linejoin="round" points="63 76 73 76 73 72 63 72"></polygon>
                            <polyline id="Stroke-35" stroke="#46BBC4" stroke-width="2" stroke-linecap="round" stroke-linejoin="round" points="179 115 187 94 91 89 100 115"></polyline>
                            <line x1="135.8604" y1="69.54" x2="128.0004" y2="90" id="Stroke-36" stroke="#46BBC4" stroke-width="2" stroke-linecap="round" stroke-linejoin="round"></line>
                            <line x1="173.0098" y1="93.27" x2="173.0098" y2="72.4" id="Stroke-37" stroke="#46BBC4" stroke-width="2" stroke-linecap="round" stroke-linejoin="round"></line>
                            <polygon id="Stroke-38" stroke="#F4BA67" stroke-width="2" stroke-linecap="round" stroke-linejoin="round" points="181 69 129 65 137 56 175 59"></polygon>
                            <line x1="173.5859" y1="64.418" x2="137.3469" y2="61.63" id="Stroke-39" stroke="#FDEFDB" stroke-width="2" stroke-linecap="round" stroke-linejoin="round"></line>
                            <polyline id="Stroke-40" stroke="#A7DFE3" stroke-width="2" stroke-linecap="round" stroke-linejoin="round" points="134.8604 83.29 147.6704 84.03 147.6704 74.45 138.5194 73.74"></polyline>
                            <line x1="165.5" y1="54.375" x2="167.5" y2="47" id="Stroke-41" stroke="#46BBC4" stroke-width="2" stroke-linecap="round" stroke-linejoin="round"></line>
                        </g>
                    </g>
                </g>
            </g>
        </g>
    </g>
</svg>