<?xml version="1.0" encoding="UTF-8"?>
<svg width="48px" height="48px" viewBox="0 0 48 48" version="1.1" xmlns="http://www.w3.org/2000/svg" xmlns:xlink="http://www.w3.org/1999/xlink">
    <!-- Generator: sketchtool 59.1 (101010) - https://sketch.com -->
    <title>3919A5D3-D9E7-4223-B05C-F4D4901FD48A</title>
    <desc>Created with sketchtool.</desc>
    <g id="Asset-Artboard-Page" stroke="none" stroke-width="1" fill="none" fill-rule="evenodd">
        <g id="icon-/-48x48-/-section-role-/-market-property">
            <g>
                <rect id="bounds" x="0" y="0" width="48" height="48"></rect>
                <path d="M24,25 L20,25 C19.4477153,25 19,24.5522847 19,24 L19,20 C19,19.4477153 19.4477153,19 20,19 L24,19 C24.5522847,19 25,19.4477153 25,20 L25,24 C25,24.5522847 24.5522847,25 24,25 Z M21,23 L23,23 L23,21 L21,21 L21,23 Z" id="Shape" fill="#A7DFE3" fill-rule="nonzero"></path>
                <path d="M17,34 L9,34 C7.34383121,33.9983463 6.00165369,32.6561688 6,31 L6,18 L1,18 C0.583764026,17.9995162 0.211354223,17.7412535 0.0650089462,17.3515925 C-0.0813363307,16.9619315 0.0289900552,16.5223673 0.342,16.248 L16.342,2.248 C16.7099748,1.92467375 17.2582087,1.91620028 17.636,2.228 L34.636,16.228 C34.9619195,16.4963442 35.0842074,16.9404599 34.9415896,17.3378166 C34.7989717,17.7351732 34.4221755,18.0001594 34,18 L29,18 L29,26 C29,26.5522847 28.5522847,27 28,27 C27.4477153,27 27,26.5522847 27,26 L27,17 C27,16.4477153 27.4477153,16 28,16 L31.213,16 L17.02,4.312 L3.66,16 L7,16 C7.55228475,16 8,16.4477153 8,17 L8,31 C8.00055123,31.5520563 8.44794374,31.9994488 9,32 L17,32 C17.5522847,32 18,32.4477153 18,33 C18,33.5522847 17.5522847,34 17,34 Z" id="Path" fill="#46BBC4" fill-rule="nonzero"></path>
                <path d="M39,24.501 L39,41.501 C39.0004531,41.7334007 38.8407184,41.9354745 38.614492,41.9886902 C38.3882656,42.0419059 38.1551978,41.9322318 38.052,41.724 C37.112,39.844 33.221,37.001 29.5,37.001 L24.5,37.001 C23.3125185,36.999308 22.2893915,36.1641023 22.05,35.001 L21.5,35.001 C20.6718015,35.0004484 20.0005516,34.3291985 20,33.501 L20,32.501 C20,31.6725729 20.6715729,31.001 21.5,31.001 L22.05,31.001 C22.289041,29.8376854 23.3123807,29.0023061 24.5,29.001 L29.5,29.001 C33.221,29.001 37.112,26.157 38.052,24.277 C38.155279,24.0685971 38.388624,23.9589332 38.6149813,24.0124184 C38.8413386,24.0659037 39.0009215,24.2684114 39,24.501" id="Path" fill="#F4BA67" fill-rule="nonzero"></path>
                <path d="M17,20 L17,29 C17,29.5522847 16.5522847,30 16,30 L11,30 C10.4477153,30 10,29.5522847 10,29 L10,20 C10,19.4477153 10.4477153,19 11,19 L16,19 C16.5522847,19 17,19.4477153 17,20 Z M47,32 L44,32 C43.4477153,32 43,32.4477153 43,33 C43,33.5522847 43.4477153,34 44,34 L47,34 C47.5522847,34 48,33.5522847 48,33 C48,32.4477153 47.5522847,32 47,32 Z M42,29 C42.1073912,29.0001126 42.2140967,28.9828911 42.316,28.949 L45.316,27.949 C45.8401182,27.774478 46.123522,27.2081182 45.949,26.684 C45.774478,26.1598818 45.2081182,25.876478 44.684,26.051 L41.684,27.051 C41.2166277,27.204606 40.9304082,27.6753397 41.0091055,28.1609716 C41.0878028,28.6466036 41.5080364,29.0028556 42,29.0010072 L42,29 Z M45.316,38.051 L42.316,37.051 C41.7918818,36.876478 41.225522,37.1598818 41.051,37.684 C40.876478,38.2081182 41.1598818,38.774478 41.684,38.949 L44.684,39.949 C45.2081182,40.123522 45.774478,39.8401182 45.949,39.316 C46.123522,38.7918818 45.8401182,38.225522 45.316,38.051 L45.316,38.051 Z" id="Shape" fill="#1C7F8A" fill-rule="nonzero"></path>
                <path d="M30.897,40.355 C30.618,39.641 30.876,39.348 31.109,38.8 C31.1670192,38.657952 31.1573091,38.4972302 31.0826104,38.3632005 C31.0079117,38.2291707 30.8763278,38.1363727 30.725,38.111 C30.3206126,38.039003 29.9107448,38.0021986 29.5,38.0009982 L26.12,38.0009982 C25.9248206,38.0004714 25.7472498,38.1137868 25.6655126,38.2910276 C25.5837753,38.4682684 25.612878,38.6768944 25.74,38.825 C26.260037,39.3783307 26.6960192,40.005013 27.034,40.685 C27.69,42.386 28.528,45.668 28.529,45.67 C28.6008579,45.8683366 28.7890479,46.000589 29,46.0009982 L32,46.0009982 C32.1653092,45.9998635 32.3194619,45.917413 32.412173,45.7805442 C32.5048842,45.6436754 32.5242674,45.4699359 32.464,45.316 C32.464,45.316 31.259,41.28 30.897,40.356" id="Path" fill="#F57361" fill-rule="nonzero"></path>
            </g>
        </g>
    </g>
</svg>