<?xml version="1.0" encoding="UTF-8"?>
<svg width="48px" height="48px" viewBox="0 0 48 48" version="1.1" xmlns="http://www.w3.org/2000/svg" xmlns:xlink="http://www.w3.org/1999/xlink">
    <!-- Generator: sketchtool 59.1 (101010) - https://sketch.com -->
    <title>A2FE31D2-A198-4E19-BAC7-638073331BAD</title>
    <desc>Created with sketchtool.</desc>
    <g id="Asset-Artboard-Page" stroke="none" stroke-width="1" fill="none" fill-rule="evenodd">
        <g id="icon-/-48x48-/-section-role-/-payments">
            <g>
                <rect id="bounds" x="0" y="0" width="48" height="48"></rect>
                <path d="M45.7,23.265 L41.676,19.289 C41.2833255,18.9004677 40.6500323,18.9038255 40.2615,19.2965 C39.8729677,19.6891745 39.8763255,20.3224677 40.269,20.711 L42.575,22.988 L33,22.988 C32.4477153,22.988 32,23.4357153 32,23.988 C32,24.5402847 32.4477153,24.988 33,24.988 L42.594,24.988 L40.313,27.3 C40.0339123,27.5478662 39.9161029,27.9305358 40.0074628,28.2924487 C40.0988226,28.6543617 40.3841421,28.935267 40.7474355,29.0209732 C41.1107288,29.1066794 41.4915151,28.9829182 41.735,28.7 L45.711,24.676 C46.0963619,24.2828251 46.091445,23.652119 45.7,23.265 L45.7,23.265 Z" id="Path" fill="#1C7F8A" fill-rule="nonzero"></path>
                <path d="M37,17 C37.5522847,17 38,16.5522847 38,16 L38,5 C37.9966939,2.23994685 35.7600532,0.00330611633 33,0 L7,0 C4.23994685,0.00330611633 2.00330612,2.23994685 2,5 L2,43 C2.00330612,45.7600532 4.23994685,47.9966939 7,48 L33,48 C35.7600532,47.9966939 37.9966939,45.7600532 38,43 L38,32 C38,31.4477153 37.5522847,31 37,31 C36.4477153,31 36,31.4477153 36,32 L36,43 C36,44.6568542 34.6568542,46 33,46 L7,46 C5.34314575,46 4,44.6568542 4,43 L4,5 C4,3.34314575 5.34314575,2 7,2 L33,2 C34.6568542,2 36,3.34314575 36,5 L36,16 C36,16.5522847 36.4477153,17 37,17 Z" id="Path" fill="#46BBC4" fill-rule="nonzero"></path>
                <path d="M20,14 C14.4771525,14 10,18.4771525 10,24 C10,29.5228475 14.4771525,34 20,34 C25.5228475,34 30,29.5228475 30,24 C30,18.4771525 25.5228475,14 20,14 L20,14 Z M20.533,28.789 L20.533,29.447 C20.533,29.802 20.362,30 20.019,30 L19.928,30 C19.559,30 19.401,29.829 19.401,29.54 L19.401,28.789 C18.5881552,28.7002076 17.815001,28.3910842 17.165,27.895 C17.040196,27.8145135 16.9576283,27.6827135 16.9396602,27.5352983 C16.9216922,27.387883 16.9701834,27.2401087 17.072,27.132 L17.361,26.724 C17.4370173,26.5949666 17.5668706,26.5068018 17.714847,26.4837531 C17.8628234,26.4607045 18.0133396,26.5051991 18.125,26.605 C18.6704672,27.0105701 19.3266636,27.2401167 20.006,27.263 C20.717,27.263 21.375,26.895 21.375,26.132 C21.375,24.552 16.928,24.711 16.928,21.882 C16.963958,20.5018197 18.0253999,19.366094 19.4,19.237 L19.4,18.537 C19.4,18.182 19.558,17.998 19.927,17.998 L20.018,17.998 C20.361,17.998 20.532,18.156 20.532,18.459 L20.532,19.209 C21.2154111,19.2513805 21.8745061,19.478452 22.439,19.866 C22.5655565,19.9358381 22.6556966,20.0570284 22.6861798,20.1983248 C22.7166631,20.3396213 22.6845062,20.4871959 22.598,20.603 L22.374,21.051 C22.203,21.366 21.953,21.406 21.624,21.222 C21.1521535,20.9182215 20.6059834,20.7497701 20.045,20.735 C19.256,20.735 18.624,21.195 18.624,21.853 C18.624,23.419 23.071,23.143 23.071,26.09 C23.0675904,27.5175791 21.9576738,28.6979041 20.533,28.789 L20.533,28.789 Z" id="Shape" fill="#F4BA67" fill-rule="nonzero"></path>
            </g>
        </g>
    </g>
</svg>