<?xml version="1.0" encoding="UTF-8"?>
<svg width="230px" height="120px" viewBox="0 0 230 120" version="1.1" xmlns="http://www.w3.org/2000/svg" xmlns:xlink="http://www.w3.org/1999/xlink">
    <!-- Generator: sketchtool 59.1 (101010) - https://sketch.com -->
    <title>D8C3DF63-082B-4A1A-86B8-F7B7BF8ECE28</title>
    <desc>Created with sketchtool.</desc>
    <g id="Pages" stroke="none" stroke-width="1" fill="none" fill-rule="evenodd">
        <g id="Commercial-Solution" transform="translate(-238.000000, -3552.000000)">
            <g id="section-4" transform="translate(0.000000, 3368.000000)">
                <g id="cards" transform="translate(238.000000, 184.000000)">
                    <g id="illustrations">
                        <g id="residential">
                            <polygon id="bounds" fill="#FFFFFF" points="0 120 230 120 230 0 0 0"></polygon>
                            <line x1="31" y1="119" x2="199" y2="119" id="Stroke-1" stroke="#46BBC4" stroke-width="2" stroke-linecap="round" stroke-linejoin="round"></line>
                            <line x1="128" y1="59" x2="128" y2="115" id="Stroke-3" stroke="#46BBC4" stroke-width="2" stroke-linecap="round" stroke-linejoin="round"></line>
                            <line x1="62" y1="59" x2="62" y2="105" id="Stroke-4" stroke="#46BBC4" stroke-width="2" stroke-linecap="round" stroke-linejoin="round"></line>
                            <polygon id="Fill-5" fill="#1C7F8A" points="106 115 118 115 118 97 106 97"></polygon>
                            <polygon id="Stroke-6" stroke="#1C7F8A" stroke-width="2" stroke-linecap="round" stroke-linejoin="round" points="106 115 118 115 118 97 106 97"></polygon>
                            <polygon id="Stroke-7" stroke="#A7DFE3" stroke-width="2" stroke-linecap="round" stroke-linejoin="round" points="72 109 98 109 98 97 72 97"></polygon>
                            <polygon id="Stroke-8" stroke="#A7DFE3" stroke-width="2" stroke-linecap="round" stroke-linejoin="round" points="72 77 84 77 84 65 72 65"></polygon>
                            <polygon id="Stroke-9" stroke="#A7DFE3" stroke-width="2" stroke-linecap="round" stroke-linejoin="round" points="106 77 118 77 118 65 106 65"></polygon>
                            <line x1="108" y1="113" x2="116" y2="113" id="Stroke-10" stroke="#46BBC4" stroke-width="2" stroke-linecap="round" stroke-linejoin="round"></line>
                            <line x1="66" y1="87" x2="124" y2="87" id="Stroke-11" stroke="#D3EFF1" stroke-width="2" stroke-linecap="round" stroke-linejoin="round"></line>
                            <polygon id="Stroke-12" stroke="#F4BA67" stroke-width="2" stroke-linecap="round" stroke-linejoin="round" points="95 29 58 47 58 57 95 39 132 57 132 47"></polygon>
                            <polyline id="Stroke-13" stroke="#FDEFDB" stroke-width="2" stroke-linecap="round" stroke-linejoin="round" points="62 51.0498 95 34.9998 128 51.0498"></polyline>
                            <polyline id="Stroke-14" stroke="#46BBC4" stroke-width="2" stroke-linecap="round" stroke-linejoin="round" points="128 77 172 77 172 115"></polyline>
                            <polyline id="Stroke-15" stroke="#F57361" stroke-width="2" stroke-linecap="round" stroke-linejoin="round" points="132 67 166 67 172 73"></polyline>
                            <line x1="166" y1="73" x2="132" y2="73" id="Stroke-16" stroke="#FDDED9" stroke-width="2" stroke-linecap="round" stroke-linejoin="round"></line>
                            <polyline id="Stroke-17" stroke="#A7DFE3" stroke-width="2" stroke-linecap="round" stroke-linejoin="round" points="134 115 134 87 166 87 166 115"></polyline>
                            <line x1="138" y1="93" x2="162" y2="93" id="Stroke-18" stroke="#D3EFF1" stroke-width="2" stroke-linecap="round" stroke-linejoin="round"></line>
                            <line x1="138" y1="99" x2="162" y2="99" id="Stroke-19" stroke="#D3EFF1" stroke-width="2" stroke-linecap="round" stroke-linejoin="round"></line>
                            <line x1="138" y1="105" x2="162" y2="105" id="Stroke-20" stroke="#D3EFF1" stroke-width="2" stroke-linecap="round" stroke-linejoin="round"></line>
                            <line x1="138" y1="111" x2="162" y2="111" id="Stroke-21" stroke="#D3EFF1" stroke-width="2" stroke-linecap="round" stroke-linejoin="round"></line>
                            <path d="M39,116 C40,111.085 46,107.153 51,111.085 C53,107.153 58,107.153 60,110.103 C63,108.136 68,109.119 69,114.034 C72,113.051 74,114.034 75,116" id="Stroke-22" stroke="#A5CD7F" stroke-width="2" stroke-linecap="round" stroke-linejoin="round"></path>
                            <path d="M176,104.8887 C179,102.0047 183,103.9267 184,107.7717 C189,107.7717 191,110.6557 191,114.4997" id="Stroke-24" stroke="#A5CD7F" stroke-width="2" stroke-linecap="round" stroke-linejoin="round"></path>
                            <line x1="19" y1="119" x2="19" y2="104" id="Stroke-26" stroke="#FDEFDB" stroke-width="2" stroke-linecap="round" stroke-linejoin="round"></line>
                            <polyline id="Stroke-28" stroke="#FDEFDB" stroke-width="2" stroke-linecap="round" stroke-linejoin="round" points="19 104 37 104 27 87 35 87 23 69 30 69 19 53 8 69 15 69 3 87 11 87 1 104 19 104"></polyline>
                            <line x1="190" y1="54" x2="190" y2="46" id="Stroke-30" stroke="#FDEFDB" stroke-width="2" stroke-linecap="round" stroke-linejoin="round"></line>
                            <polygon id="Stroke-32" stroke="#FDEFDB" stroke-width="2" stroke-linecap="round" stroke-linejoin="round" points="200 46 195 38 198 38 193 29 196 29 190 19 184 29 187 29 182 38 185 38 180 46"></polygon>
                            <path d="M171,51 C171,51 175,51 180,55 C182,55 191,52 200,59 C200,59 208,58 216,64" id="Stroke-34" stroke="#FDEFDB" stroke-width="2" stroke-linecap="round" stroke-linejoin="round"></path>
                            <path d="M215,103 C217.29,96.14 223.82,93.2 229,91.94" id="Stroke-36" stroke="#FDEFDB" stroke-width="2" stroke-linecap="round" stroke-linejoin="round"></path>
                            <path d="M202,101 C206,94 214.107,94 220.054,96" id="Stroke-38" stroke="#FDEFDB" stroke-width="2" stroke-linecap="round" stroke-linejoin="round"></path>
                        </g>
                    </g>
                </g>
            </g>
        </g>
    </g>
</svg>