<?xml version="1.0" encoding="UTF-8"?>
<svg width="48px" height="48px" viewBox="0 0 48 48" version="1.1" xmlns="http://www.w3.org/2000/svg" xmlns:xlink="http://www.w3.org/1999/xlink">
    <!-- Generator: sketchtool 59.1 (101010) - https://sketch.com -->
    <title>B40FD44A-9550-42A2-AD58-28B209BA2538</title>
    <desc>Created with sketchtool.</desc>
    <g id="Asset-Artboard-Page" stroke="none" stroke-width="1" fill="none" fill-rule="evenodd">
        <g id="icon-/-48x48-/-section-role-/-rent-estimate-icon-/-48x48-/-section-role-/-schedule-rent-increase">
            <g id="icon-/-48x48-/-section-role-/-schedule-rent-increase">
                <rect id="bounds" x="0" y="0" width="48" height="48"></rect>
                <path d="M41,4 L39,4 L39,3 C39,2.44771525 38.5522847,2 38,2 C37.4477153,2 37,2.44771525 37,3 L37,4 L11,4 L11,3 C11,2.44771525 10.5522847,2 10,2 C9.44771525,2 9,2.44771525 9,3 L9,4 L7,4 C4.23994685,4.00330612 2.00330612,6.23994685 2,9 L2,41 C2.00330612,43.7600532 4.23994685,45.9966939 7,46 L41,46 C43.7600532,45.9966939 45.9966939,43.7600532 46,41 L46,9 C45.9966939,6.23994685 43.7600532,4.00330612 41,4 Z M41,44 L7,44 C5.34383121,43.9983463 4.00165369,42.6561688 4,41 L4,10 L44,10 L44,41 C43.9983463,42.6561688 42.6561688,43.9983463 41,44 Z" id="Shape" fill="#46BBC4" fill-rule="nonzero"></path>
                <path d="M16,24 C11.581722,24 8,27.581722 8,32 C8,36.418278 11.581722,40 16,40 C20.418278,40 24,36.418278 24,32 C24,27.581722 20.418278,24 16,24 Z M16.444,35.991 L16.444,36.539 C16.444,36.835 16.302,37 16.016,37 L15.94,37 C15.633,37 15.501,36.857 15.501,36.616 L15.501,35.991 C14.8234114,35.9170664 14.1788859,35.6594637 13.637,35.246 C13.5331124,35.1787715 13.4644486,35.068876 13.4495758,34.9460301 C13.4347029,34.8231843 13.4751574,34.7000779 13.56,34.61 L13.801,34.27 C13.8632077,34.1613233 13.9714644,34.0868365 14.0951959,34.0675764 C14.2189274,34.0483163 14.3447026,34.0863736 14.437,34.171 C14.8918197,34.508791 15.4387838,34.6999494 16.005,34.719 C16.597,34.719 17.145,34.412 17.145,33.776 C17.145,32.46 13.44,32.592 13.44,30.235 C13.4703439,29.0850353 14.3547025,28.1388575 15.5,28.031 L15.5,27.45 C15.5,27.154 15.633,27 15.94,27 L16.016,27 C16.302,27 16.444,27.132 16.444,27.384 L16.444,28.009 C17.0138003,28.0445398 17.5632993,28.2339268 18.034,28.557 C18.1401279,28.6145885 18.2157385,28.7157365 18.2409332,28.8338245 C18.2661279,28.9519125 18.2383829,29.075112 18.165,29.171 L17.979,29.544 C17.836,29.807 17.629,29.84 17.354,29.687 C16.9607419,29.4338102 16.5055508,29.2933789 16.038,29.281 C15.38,29.281 14.854,29.665 14.854,30.213 C14.854,31.518 18.56,31.287 18.56,33.743 C18.556101,34.9323975 17.6309874,35.9152214 16.444,35.991 Z" id="Shape" fill="#F4BA67" fill-rule="nonzero"></path>
                <path d="M39,14 L34,14 C33.4477153,14 33,14.4477153 33,15 C33,15.5522847 33.4477153,16 34,16 L36.586,16 L32,20.586 L29.707,18.293 C29.3165001,17.9026181 28.6834999,17.9026181 28.293,18.293 L23.293,23.293 C23.0330434,23.5440745 22.9287874,23.9158779 23.0203028,24.2655073 C23.1118183,24.6151368 23.3848632,24.8881817 23.7344927,24.9796972 C24.0841221,25.0712126 24.4559255,24.9669566 24.707,24.707 L29,20.414 L31.293,22.707 C31.6834999,23.0973819 32.3165001,23.0973819 32.707,22.707 L38,17.414 L38,20 C38,20.5522847 38.4477153,21 39,21 C39.5522847,21 40,20.5522847 40,20 L40,15 C40,14.4477153 39.5522847,14 39,14 Z" id="Path" fill="#1C7F8A" fill-rule="nonzero"></path>
            </g>
        </g>
    </g>
</svg>