<?xml version="1.0" encoding="UTF-8"?>
<svg width="230px" height="120px" viewBox="0 0 230 120" version="1.1" xmlns="http://www.w3.org/2000/svg" xmlns:xlink="http://www.w3.org/1999/xlink">
    <!-- Generator: sketchtool 59.1 (101010) - https://sketch.com -->
    <title>FD1D2E70-D8C0-4B87-B16F-4551AEFCBD03</title>
    <desc>Created with sketchtool.</desc>
    <g id="Pages" stroke="none" stroke-width="1" fill="none" fill-rule="evenodd">
        <g id="Commercial-Solution" transform="translate(-667.000000, -3770.000000)">
            <g id="section-4" transform="translate(0.000000, 3368.000000)">
                <g id="cards" transform="translate(238.000000, 184.000000)">
                    <g id="illustrations">
                        <g id="student-housing" transform="translate(429.000000, 218.000000)">
                            <polygon id="Fill-1" fill="#FFFFFF" points="0 120 230 120 230 0 0 0"></polygon>
                            <line x1="149.8799" y1="45" x2="80.1199" y2="45" id="Stroke-2" stroke="#FDEFDB" stroke-width="2" stroke-linecap="round" stroke-linejoin="round"></line>
                            <line x1="79" y1="53" x2="79" y2="105" id="Stroke-3" stroke="#46BBC4" stroke-width="2" stroke-linecap="round" stroke-linejoin="round"></line>
                            <line x1="151" y1="105" x2="151" y2="53" id="Stroke-4" stroke="#46BBC4" stroke-width="2" stroke-linecap="round" stroke-linejoin="round"></line>
                            <polygon id="Stroke-5" stroke="#F4BA67" stroke-width="2" stroke-linecap="round" stroke-linejoin="round" points="149 25 81 25 75 49 155 49"></polygon>
                            <line x1="177" y1="93" x2="181" y2="89" id="Stroke-6" stroke="#A5CD7F" stroke-width="2" stroke-linecap="round" stroke-linejoin="round"></line>
                            <line x1="177" y1="99" x2="173" y2="95" id="Stroke-7" stroke="#A5CD7F" stroke-width="2" stroke-linecap="round" stroke-linejoin="round"></line>
                            <path d="M181,103.2002 C185.66,101.2802 189,96.0992 189,90.0002 C189,82.2692 183.63,76.0002 177,76.0002 C170.37,76.0002 165,82.2692 165,90.0002 C165,97.7302 170.37,104.0002 177,104.0002" id="Stroke-8" stroke="#A5CD7F" stroke-width="2" stroke-linecap="round" stroke-linejoin="round"></path>
                            <line x1="177" y1="115" x2="177" y2="84" id="Stroke-10" stroke="#A5CD7F" stroke-width="2" stroke-linecap="round" stroke-linejoin="round"></line>
                            <line x1="51" y1="89" x2="47" y2="85" id="Stroke-12" stroke="#A5CD7F" stroke-width="2" stroke-linecap="round" stroke-linejoin="round"></line>
                            <line x1="51" y1="97" x2="55" y2="93" id="Stroke-14" stroke="#A5CD7F" stroke-width="2" stroke-linecap="round" stroke-linejoin="round"></line>
                            <path d="M55,102.79 C60.71,100.769 64.86,94.69 64.86,87.5 C64.86,78.66 58.59,71.5 50.86,71.5 C43.13,71.5 36.86,78.66 36.86,87.5 C36.86,96.34 43.13,103.5 50.86,103.5 L51,103.5" id="Stroke-16" stroke="#A5CD7F" stroke-width="2" stroke-linecap="round" stroke-linejoin="round"></path>
                            <line x1="51" y1="115" x2="51" y2="80" id="Stroke-18" stroke="#A5CD7F" stroke-width="2" stroke-linecap="round" stroke-linejoin="round"></line>
                            <path d="M105,115 L105,101 C105,95.478 109.477,91 115,91 C120.523,91 125,95.478 125,101 L125,115 L105,115 Z" id="Fill-20" fill="#1C7F8A"></path>
                            <path d="M105,115 L105,101 C105,95.478 109.477,91 115,91 C120.523,91 125,95.478 125,101 L125,115 L105,115 Z" id="Stroke-22" stroke="#1C7F8A" stroke-width="2" stroke-linecap="round" stroke-linejoin="round"></path>
                            <polygon id="Stroke-24" stroke="#A7DFE3" stroke-width="2" stroke-linecap="round" stroke-linejoin="round" points="103 83 111 83 111 75 103 75"></polygon>
                            <polygon id="Stroke-26" stroke="#A7DFE3" stroke-width="2" stroke-linecap="round" stroke-linejoin="round" points="119 83 127 83 127 75 119 75"></polygon>
                            <polygon id="Stroke-27" stroke="#A7DFE3" stroke-width="2" stroke-linecap="round" stroke-linejoin="round" points="134 83 142 83 142 75 134 75"></polygon>
                            <polygon id="Stroke-28" stroke="#A7DFE3" stroke-width="2" stroke-linecap="round" stroke-linejoin="round" points="87 83 95 83 95 75 87 75"></polygon>
                            <polygon id="Stroke-29" stroke="#A7DFE3" stroke-width="2" stroke-linecap="round" stroke-linejoin="round" points="103 67 111 67 111 59 103 59"></polygon>
                            <polygon id="Stroke-30" stroke="#A7DFE3" stroke-width="2" stroke-linecap="round" stroke-linejoin="round" points="119 67 127 67 127 59 119 59"></polygon>
                            <polygon id="Stroke-31" stroke="#A7DFE3" stroke-width="2" stroke-linecap="round" stroke-linejoin="round" points="134 67 142 67 142 59 134 59"></polygon>
                            <polygon id="Stroke-32" stroke="#A7DFE3" stroke-width="2" stroke-linecap="round" stroke-linejoin="round" points="87 67 95 67 95 59 87 59"></polygon>
                            <line x1="31" y1="119" x2="199" y2="119" id="Stroke-33" stroke="#46BBC4" stroke-width="2" stroke-linecap="round" stroke-linejoin="round"></line>
                            <polyline id="Stroke-34" stroke="#F57361" stroke-width="2" stroke-linecap="round" stroke-linejoin="round" points="65 115 65 109 85 109 85 115"></polyline>
                            <polyline id="Stroke-35" stroke="#F57361" stroke-width="2" stroke-linecap="round" stroke-linejoin="round" points="165 115 165 109 145 109 145 115"></polyline>
                            <path d="M21,22 L47,22 C49.209,22 51,20.209 51,18 C51,15.791 49.209,14 47,14" id="Stroke-36" stroke="#FDEFDB" stroke-width="2" stroke-linecap="round" stroke-linejoin="round"></path>
                            <path d="M32,28 L51,28 C53.209,28 55,29.791 55,32 C55,34.209 53.209,36 51,36" id="Stroke-37" stroke="#FDEFDB" stroke-width="2" stroke-linecap="round" stroke-linejoin="round"></path>
                            <path d="M193,62 C190.791,62 189,60.209 189,58 C189,55.791 190.791,54 193,54 L211,54" id="Stroke-38" stroke="#FDEFDB" stroke-width="2" stroke-linecap="round" stroke-linejoin="round"></path>
                            <path d="M229,48 L186,48 C181.029,48 177,43.971 177,39 C177,34.029 181.029,30 186,30" id="Stroke-39" stroke="#FDEFDB" stroke-width="2" stroke-linecap="round" stroke-linejoin="round"></path>
                            <line x1="107" y1="113" x2="123" y2="113" id="Stroke-40" stroke="#46BBC4" stroke-width="2" stroke-linecap="round" stroke-linejoin="round"></line>
                            <line x1="69" y1="115" x2="81" y2="115" id="Stroke-41" stroke="#FDDED9" stroke-width="2" stroke-linecap="round" stroke-linejoin="round"></line>
                            <line x1="83" y1="101" x2="101" y2="101" id="Stroke-42" stroke="#D3EFF1" stroke-width="2" stroke-linecap="round" stroke-linejoin="round"></line>
                            <line x1="129" y1="101" x2="147" y2="101" id="Stroke-43" stroke="#D3EFF1" stroke-width="2" stroke-linecap="round" stroke-linejoin="round"></line>
                            <line x1="149" y1="115" x2="161" y2="115" id="Stroke-44" stroke="#FDDED9" stroke-width="2" stroke-linecap="round" stroke-linejoin="round"></line>
                        </g>
                    </g>
                </g>
            </g>
        </g>
    </g>
</svg>