<?xml version="1.0" encoding="UTF-8"?>
<svg width="48px" height="48px" viewBox="0 0 48 48" version="1.1" xmlns="http://www.w3.org/2000/svg" xmlns:xlink="http://www.w3.org/1999/xlink">
    <!-- Generator: sketchtool 59.1 (101010) - https://sketch.com -->
    <title>2EDA972E-9045-42C6-A161-B2A17BB30132</title>
    <desc>Created with sketchtool.</desc>
    <g id="Asset-Artboard-Page" stroke="none" stroke-width="1" fill="none" fill-rule="evenodd">
        <g id="icon-/-48x48-/-section-role-/-rent-estimate-icon-/-48x48-/-section-role-/-tasks">
            <g id="icon-/-48x48-/-section-role-/-tasks">
                <rect id="bounds" x="0" y="0" width="48" height="48"></rect>
                <path d="M23,9 C23,8.44771525 23.4477153,8 24,8 L34,8 C34.5522847,8 35,8.44771525 35,9 C35,9.55228475 34.5522847,10 34,10 L24,10 C23.4477153,10 23,9.55228475 23,9 Z M24,16 L32,16 C32.5522847,16 33,15.5522847 33,15 C33,14.4477153 32.5522847,14 32,14 L24,14 C23.4477153,14 23,14.4477153 23,15 C23,15.5522847 23.4477153,16 24,16 Z M34,20 L24,20 C23.4477153,20 23,20.4477153 23,21 C23,21.5522847 23.4477153,22 24,22 L34,22 C34.5522847,22 35,21.5522847 35,21 C35,20.4477153 34.5522847,20 34,20 Z M24,28 L30,28 C30.5522847,28 31,27.5522847 31,27 C31,26.4477153 30.5522847,26 30,26 L24,26 C23.4477153,26 23,26.4477153 23,27 C23,27.5522847 23.4477153,28 24,28 Z M34,32 L24,32 C23.4477153,32 23,32.4477153 23,33 C23,33.5522847 23.4477153,34 24,34 L34,34 C34.5522847,34 35,33.5522847 35,33 C35,32.4477153 34.5522847,32 34,32 Z M26,38 L24,38 C23.4477153,38 23,38.4477153 23,39 C23,39.5522847 23.4477153,40 24,40 L26,40 C26.5522847,40 27,39.5522847 27,39 C27,38.4477153 26.5522847,38 26,38 Z" id="Shape" fill="#A7DFE3" fill-rule="nonzero"></path>
                <path d="M17,40 C14.790861,40 13,38.209139 13,36 C13,33.790861 14.790861,32 17,32 C19.209139,32 21,33.790861 21,36 C21,38.209139 19.209139,40 17,40 Z M17,34 C15.8954305,34 15,34.8954305 15,36 C15,37.1045695 15.8954305,38 17,38 C18.1045695,38 19,37.1045695 19,36 C19,34.8954305 18.1045695,34 17,34 Z" id="Shape" fill="#1C7F8A" fill-rule="nonzero"></path>
                <path d="M13.293,13.707 C12.9140278,13.3146211 12.9194476,12.6909152 13.3051814,12.3051814 C13.6909152,11.9194476 14.3146211,11.9140278 14.707,12.293 L15.845,13.431 L19.168,8.445 C19.474518,7.98549911 20.0954991,7.861482 20.555,8.16800002 C21.0145009,8.47451805 21.138518,9.09549909 20.832,9.555 L16.832,15.555 C16.6671045,15.805626 16.3983984,15.9689788 16.1,16 C16.066,16 16.033,16.005 16,16.005 C15.7348052,16.005 15.4804927,15.8995494 15.293,15.712 L13.293,13.707 Z M19.168,20.445 L15.845,25.431 L14.707,24.293 C14.3146211,23.9140278 13.6909152,23.9194476 13.3051814,24.3051814 C12.9194476,24.6909152 12.9140278,25.3146211 13.293,25.707 L15.293,27.707 C15.4804927,27.8945494 15.7348052,28 16,28 L16.1,28 C16.3978726,27.9704324 16.6668354,27.8089813 16.833,27.56 L20.833,21.56 C21.139518,21.1004991 21.0155009,20.479518 20.556,20.173 C20.0964991,19.866482 19.475518,19.9904991 19.169,20.45 L19.168,20.445 Z" id="Shape" fill="#F4BA67" fill-rule="nonzero"></path>
                <path d="M37,0 L11,0 C8.23994685,0.00330611633 6.00330612,2.23994685 6,5 L6,43 C6.00330612,45.7600532 8.23994685,47.9966939 11,48.0000208 L32.17,48.0000208 C32.6001267,48.001616 33.0254003,47.9091207 33.416,47.729 C33.7439851,47.5794722 34.0424024,47.3721721 34.297,47.117 L41.117,40.297 C41.6825875,39.7337094 42.0003639,38.9682389 42,38.17 L42,5 C41.9966939,2.23994685 39.7600532,0.00330611633 37,0 Z M8,43 L8,5 C8,3.34314575 9.34314575,2 11,2 L37,2 C38.6568542,2 40,3.34314575 40,5 L40,38 L36.44,38 C33.9885414,38.0016547 32.0016547,39.9885414 32,42.44 L32,46 L11,46 C9.34314575,46 8,44.6568542 8,43 Z" id="Shape" fill="#46BBC4" fill-rule="nonzero"></path>
            </g>
        </g>
    </g>
</svg>