<?xml version="1.0" encoding="UTF-8"?>
<svg width="48px" height="48px" viewBox="0 0 48 48" version="1.1" xmlns="http://www.w3.org/2000/svg" xmlns:xlink="http://www.w3.org/1999/xlink">
    <!-- Generator: sketchtool 59.1 (101010) - https://sketch.com -->
    <title>E9B42DCA-945B-4BD2-AA34-24972BC4DFB0</title>
    <desc>Created with sketchtool.</desc>
    <g id="Asset-Artboard-Page" stroke="none" stroke-width="1" fill="none" fill-rule="evenodd">
        <g id="icon-/-48x48-/-section-role-/-rent-estimate-icon-/-48x48-/-section-role-/-tenant">
            <g id="icon-/-48x48-/-section-role-/-tenant" transform="translate(-1.000000, -1.000000)">
                <rect id="bounds" x="1" y="1" width="48" height="48"></rect>
                <path d="M23,45 C11.1092579,45.0015686 1.36909833,35.5546564 1.00728469,23.6694201 C0.645471054,11.7841839 9.79295587,1.76228875 21.6617747,1.0405623 C33.5305935,0.318835852 43.8250233,9.15849509 44.906,21 C44.9554295,21.5500756 44.5495756,22.0360705 43.9995,22.0855 C43.4494244,22.1349295 42.9634295,21.7290756 42.914,21.179 C42.1210975,12.4757135 35.7706845,5.29430103 27.2298159,3.44242219 C18.6889474,1.59054335 9.93443913,5.49682237 5.60802247,13.0901095 C1.2816058,20.6833966 2.38464595,30.2061973 8.33229955,36.6094236 C14.2799532,43.0126499 23.6956137,44.8142513 31.587,41.059 C31.9115032,40.880772 32.3079224,40.8964144 32.617373,41.0996577 C32.9268237,41.3029009 33.0986615,41.6604826 33.0640141,42.0290841 C33.0293666,42.3976856 32.7939042,42.7169822 32.452,42.859 C29.5000707,44.2676031 26.2707871,44.9990775 23,45 Z" id="Path" fill="#46BBC4"></path>
                <path d="M31,30.455 C31.0124175,30.7435656 30.7885648,30.987565 30.5,31 L15.5,31 C15.2120929,30.9870213 14.9887076,30.7439782 15,30.456 C15.033,26.826 15.455,25.28 18.436,24.386 C19.868,23.956 20.672,23.332 20.923,22.599 C20.9369517,22.5545462 20.9308334,22.5062191 20.9062436,22.4666448 C20.8816537,22.4270705 20.8410351,22.4001804 20.795,22.393 C19.9985442,22.2478439 19.2270232,21.9892109 18.504,21.625 C18.3840105,21.564235 18.3288852,21.4229765 18.376,21.297 C18.7315342,20.2607905 19.0165189,19.201703 19.229,18.127 C19.562,16.316 18.416,14.927 19.583,12.741 C19.9604236,11.7734116 20.9850679,11.2235715 22,11.444 C22.8764958,10.9417872 23.9375136,10.8787073 24.8673402,11.2735302 C25.7971668,11.6683531 26.4886373,12.4755745 26.736,13.455 C27.292,15.143 26.487,16.578 26.772,18.126 C26.9837734,19.2007676 27.2684309,20.2598803 27.624,21.296 C27.6711148,21.4219765 27.6159895,21.563235 27.496,21.624 C26.7729078,21.9880453 26.0014111,22.2466702 25.205,22.392 C25.1589649,22.3991804 25.1183463,22.4260705 25.0937564,22.4656448 C25.0691666,22.5052191 25.0630483,22.5535462 25.077,22.598 C25.328,23.331 26.132,23.955 27.564,24.385 C30.545,25.279 30.964,26.825 31,30.455" id="Path" fill="#1C7F8A"></path>
                <path d="M30,35 L16,35 C15.4477153,35 15,34.5522847 15,34 C15,33.4477153 15.4477153,33 16,33 L30,33 C30.5522847,33 31,33.4477153 31,34 C31,34.5522847 30.5522847,35 30,35 Z" id="Path" fill="#F4BA67"></path>
                <path d="M48.519,28.971 C47.8970415,27.405939 46.6729035,26.156024 45.121141,25.5015916 C43.5693786,24.8471592 41.819869,24.8429831 40.265,25.49 C37.0243299,26.8935876 35.5039636,30.6333597 36.846,33.9 C37.1888232,34.7494592 37.7114565,35.5146462 38.378,36.143 L34.032,46.822 C33.9889874,46.927103 33.9889874,47.044897 34.032,47.15 L34.677,48.735 C34.7453019,48.9059777 34.9163538,49.0131378 35.1,49 L37.757,48.808 C37.9908757,48.7878395 38.1648697,48.5830619 38.147,48.349 L37.974,45.858 L39.826,44.222 C39.9268425,44.1326743 39.9801181,44.0013351 39.97,43.867 L39.794,41.338 L42.753,37.865 C43.560979,37.857085 44.3596198,37.6913101 45.104,37.377 C48.3409339,35.9719329 49.8589103,32.2354441 48.519,28.971 L48.519,28.971 Z M42.719,31.571 C41.8905729,31.571 41.219,30.8994271 41.219,30.071 C41.219,29.2425729 41.8905729,28.571 42.719,28.571 C43.5474271,28.571 44.219,29.2425729 44.219,30.071 C44.219,30.4696926 44.0602808,30.8519831 43.7778939,31.1334319 C43.495507,31.4148806 43.1126903,31.572329 42.714,31.571 L42.719,31.571 Z" id="Shape" fill="#F57361" fill-rule="nonzero"></path>
            </g>
        </g>
    </g>
</svg>